<?xml version="1.0" encoding="utf-8" standalone="no"?>
<!DOCTYPE svg PUBLIC "-//W3C//DTD SVG 1.1//EN"
  "http://www.w3.org/Graphics/SVG/1.1/DTD/svg11.dtd">
<svg xmlns:xlink="http://www.w3.org/1999/xlink" width="231.585756pt" height="193.073297pt" viewBox="0 0 231.585756 193.073297" xmlns="http://www.w3.org/2000/svg" version="1.1">
 <metadata>
  <rdf:RDF xmlns:dc="http://purl.org/dc/elements/1.1/" xmlns:cc="http://creativecommons.org/ns#" xmlns:rdf="http://www.w3.org/1999/02/22-rdf-syntax-ns#">
   <cc:Work>
    <dc:type rdf:resource="http://purl.org/dc/dcmitype/StillImage"/>
    <dc:date>2023-12-30T20:43:26.574607</dc:date>
    <dc:format>image/svg+xml</dc:format>
    <dc:creator>
     <cc:Agent>
      <dc:title>Matplotlib v3.7.2, https://matplotlib.org/</dc:title>
     </cc:Agent>
    </dc:creator>
   </cc:Work>
  </rdf:RDF>
 </metadata>
 <defs>
  <style type="text/css">*{stroke-linejoin: round; stroke-linecap: butt}</style>
 </defs>
 <g id="figure_1">
  <g id="patch_1">
   <path d="M 0 193.073297 
L 231.585756 193.073297 
L 231.585756 0 
L 0 0 
z
" style="fill: #ffffff"/>
  </g>
  <g id="axes_1">
   <g id="patch_2">
    <path d="M 32.685756 163.15498 
L 227.985756 163.15498 
L 227.985756 17.90218 
L 32.685756 17.90218 
z
" style="fill: #ffffff"/>
   </g>
   <g id="matplotlib.axis_1">
    <g id="xtick_1">
     <g id="line2d_1">
      <defs>
       <path id="mc52ca0ef1a" d="M 0 0 
L 0 -3 
" style="stroke: #000000; stroke-width: 0.5"/>
      </defs>
      <g>
       <use xlink:href="#mc52ca0ef1a" x="41.563028" y="163.15498" style="stroke: #000000; stroke-width: 0.5"/>
      </g>
     </g>
     <g id="line2d_2">
      <defs>
       <path id="m78e54b5df5" d="M 0 0 
L 0 3 
" style="stroke: #000000; stroke-width: 0.5"/>
      </defs>
      <g>
       <use xlink:href="#m78e54b5df5" x="41.563028" y="17.90218" style="stroke: #000000; stroke-width: 0.5"/>
      </g>
     </g>
     <g id="text_1">
      <!-- $\mathdefault{0}$ -->
      <g transform="translate(39.072361 173.573478) scale(0.1 -0.1)">
       <defs>
        <path id="CMR17-30" d="M 2688 2025 
C 2688 2416 2682 3080 2413 3591 
C 2176 4039 1798 4198 1466 4198 
C 1158 4198 768 4058 525 3597 
C 269 3118 243 2524 243 2025 
C 243 1661 250 1106 448 619 
C 723 -39 1216 -128 1466 -128 
C 1760 -128 2208 -7 2470 600 
C 2662 1042 2688 1559 2688 2025 
z
M 1466 -26 
C 1056 -26 813 325 723 812 
C 653 1188 653 1738 653 2096 
C 653 2588 653 2997 736 3387 
C 858 3929 1216 4096 1466 4096 
C 1728 4096 2067 3923 2189 3400 
C 2272 3036 2278 2607 2278 2096 
C 2278 1680 2278 1169 2202 792 
C 2067 95 1690 -26 1466 -26 
z
" transform="scale(0.015625)"/>
       </defs>
       <use xlink:href="#CMR17-30" transform="scale(0.996264)"/>
      </g>
     </g>
    </g>
    <g id="xtick_2">
     <g id="line2d_3">
      <g>
       <use xlink:href="#mc52ca0ef1a" x="100.744847" y="163.15498" style="stroke: #000000; stroke-width: 0.5"/>
      </g>
     </g>
     <g id="line2d_4">
      <g>
       <use xlink:href="#m78e54b5df5" x="100.744847" y="17.90218" style="stroke: #000000; stroke-width: 0.5"/>
      </g>
     </g>
     <g id="text_2">
      <!-- $\mathdefault{1}$ -->
      <g transform="translate(98.254179 173.573478) scale(0.1 -0.1)">
       <defs>
        <path id="CMR17-31" d="M 1702 4058 
C 1702 4192 1696 4192 1606 4192 
C 1357 3916 979 3827 621 3827 
C 602 3827 570 3827 563 3808 
C 557 3795 557 3782 557 3648 
C 755 3648 1088 3686 1344 3839 
L 1344 461 
C 1344 236 1331 160 781 160 
L 589 160 
L 589 0 
C 896 0 1216 0 1523 0 
C 1830 0 2150 0 2458 0 
L 2458 160 
L 2266 160 
C 1715 160 1702 230 1702 458 
L 1702 4058 
z
" transform="scale(0.015625)"/>
       </defs>
       <use xlink:href="#CMR17-31" transform="scale(0.996264)"/>
      </g>
     </g>
    </g>
    <g id="xtick_3">
     <g id="line2d_5">
      <g>
       <use xlink:href="#mc52ca0ef1a" x="159.926665" y="163.15498" style="stroke: #000000; stroke-width: 0.5"/>
      </g>
     </g>
     <g id="line2d_6">
      <g>
       <use xlink:href="#m78e54b5df5" x="159.926665" y="17.90218" style="stroke: #000000; stroke-width: 0.5"/>
      </g>
     </g>
     <g id="text_3">
      <!-- $\mathdefault{2}$ -->
      <g transform="translate(157.435997 173.573478) scale(0.1 -0.1)">
       <defs>
        <path id="CMR17-32" d="M 2669 989 
L 2554 989 
C 2490 536 2438 459 2413 420 
C 2381 369 1920 369 1830 369 
L 602 369 
C 832 619 1280 1072 1824 1597 
C 2214 1967 2669 2402 2669 3035 
C 2669 3790 2067 4224 1395 4224 
C 691 4224 262 3604 262 3030 
C 262 2780 448 2748 525 2748 
C 589 2748 781 2787 781 3010 
C 781 3207 614 3264 525 3264 
C 486 3264 448 3258 422 3245 
C 544 3790 915 4058 1306 4058 
C 1862 4058 2227 3617 2227 3035 
C 2227 2479 1901 2000 1536 1584 
L 262 146 
L 262 0 
L 2515 0 
L 2669 989 
z
" transform="scale(0.015625)"/>
       </defs>
       <use xlink:href="#CMR17-32" transform="scale(0.996264)"/>
      </g>
     </g>
    </g>
    <g id="xtick_4">
     <g id="line2d_7">
      <g>
       <use xlink:href="#mc52ca0ef1a" x="219.108483" y="163.15498" style="stroke: #000000; stroke-width: 0.5"/>
      </g>
     </g>
     <g id="line2d_8">
      <g>
       <use xlink:href="#m78e54b5df5" x="219.108483" y="17.90218" style="stroke: #000000; stroke-width: 0.5"/>
      </g>
     </g>
     <g id="text_4">
      <!-- $\mathdefault{3}$ -->
      <g transform="translate(216.617815 173.573478) scale(0.1 -0.1)">
       <defs>
        <path id="CMR17-33" d="M 1414 2157 
C 1984 2157 2234 1662 2234 1090 
C 2234 320 1824 25 1453 25 
C 1114 25 563 194 390 693 
C 422 680 454 680 486 680 
C 640 680 755 782 755 948 
C 755 1133 614 1216 486 1216 
C 378 1216 211 1165 211 926 
C 211 335 787 -128 1466 -128 
C 2176 -128 2720 430 2720 1085 
C 2720 1707 2208 2157 1600 2227 
C 2086 2328 2554 2756 2554 3329 
C 2554 3820 2048 4179 1472 4179 
C 890 4179 378 3829 378 3329 
C 378 3110 544 3072 627 3072 
C 762 3072 877 3155 877 3321 
C 877 3486 762 3569 627 3569 
C 602 3569 570 3569 544 3557 
C 730 3959 1235 4032 1459 4032 
C 1683 4032 2106 3925 2106 3320 
C 2106 3143 2080 2828 1862 2550 
C 1670 2304 1453 2304 1242 2284 
C 1210 2284 1062 2269 1037 2269 
C 992 2263 966 2257 966 2208 
C 966 2163 973 2157 1101 2157 
L 1414 2157 
z
" transform="scale(0.015625)"/>
       </defs>
       <use xlink:href="#CMR17-33" transform="scale(0.996264)"/>
      </g>
     </g>
    </g>
    <g id="xtick_5">
     <g id="line2d_9">
      <defs>
       <path id="me571599a41" d="M 0 0 
L 0 -1.5 
" style="stroke: #000000; stroke-width: 0.5"/>
      </defs>
      <g>
       <use xlink:href="#me571599a41" x="53.399392" y="163.15498" style="stroke: #000000; stroke-width: 0.5"/>
      </g>
     </g>
     <g id="line2d_10">
      <defs>
       <path id="m7ae0136ad8" d="M 0 0 
L 0 1.5 
" style="stroke: #000000; stroke-width: 0.5"/>
      </defs>
      <g>
       <use xlink:href="#m7ae0136ad8" x="53.399392" y="17.90218" style="stroke: #000000; stroke-width: 0.5"/>
      </g>
     </g>
    </g>
    <g id="xtick_6">
     <g id="line2d_11">
      <g>
       <use xlink:href="#me571599a41" x="65.235756" y="163.15498" style="stroke: #000000; stroke-width: 0.5"/>
      </g>
     </g>
     <g id="line2d_12">
      <g>
       <use xlink:href="#m7ae0136ad8" x="65.235756" y="17.90218" style="stroke: #000000; stroke-width: 0.5"/>
      </g>
     </g>
    </g>
    <g id="xtick_7">
     <g id="line2d_13">
      <g>
       <use xlink:href="#me571599a41" x="77.072119" y="163.15498" style="stroke: #000000; stroke-width: 0.5"/>
      </g>
     </g>
     <g id="line2d_14">
      <g>
       <use xlink:href="#m7ae0136ad8" x="77.072119" y="17.90218" style="stroke: #000000; stroke-width: 0.5"/>
      </g>
     </g>
    </g>
    <g id="xtick_8">
     <g id="line2d_15">
      <g>
       <use xlink:href="#me571599a41" x="88.908483" y="163.15498" style="stroke: #000000; stroke-width: 0.5"/>
      </g>
     </g>
     <g id="line2d_16">
      <g>
       <use xlink:href="#m7ae0136ad8" x="88.908483" y="17.90218" style="stroke: #000000; stroke-width: 0.5"/>
      </g>
     </g>
    </g>
    <g id="xtick_9">
     <g id="line2d_17">
      <g>
       <use xlink:href="#me571599a41" x="112.58121" y="163.15498" style="stroke: #000000; stroke-width: 0.5"/>
      </g>
     </g>
     <g id="line2d_18">
      <g>
       <use xlink:href="#m7ae0136ad8" x="112.58121" y="17.90218" style="stroke: #000000; stroke-width: 0.5"/>
      </g>
     </g>
    </g>
    <g id="xtick_10">
     <g id="line2d_19">
      <g>
       <use xlink:href="#me571599a41" x="124.417574" y="163.15498" style="stroke: #000000; stroke-width: 0.5"/>
      </g>
     </g>
     <g id="line2d_20">
      <g>
       <use xlink:href="#m7ae0136ad8" x="124.417574" y="17.90218" style="stroke: #000000; stroke-width: 0.5"/>
      </g>
     </g>
    </g>
    <g id="xtick_11">
     <g id="line2d_21">
      <g>
       <use xlink:href="#me571599a41" x="136.253938" y="163.15498" style="stroke: #000000; stroke-width: 0.5"/>
      </g>
     </g>
     <g id="line2d_22">
      <g>
       <use xlink:href="#m7ae0136ad8" x="136.253938" y="17.90218" style="stroke: #000000; stroke-width: 0.5"/>
      </g>
     </g>
    </g>
    <g id="xtick_12">
     <g id="line2d_23">
      <g>
       <use xlink:href="#me571599a41" x="148.090301" y="163.15498" style="stroke: #000000; stroke-width: 0.5"/>
      </g>
     </g>
     <g id="line2d_24">
      <g>
       <use xlink:href="#m7ae0136ad8" x="148.090301" y="17.90218" style="stroke: #000000; stroke-width: 0.5"/>
      </g>
     </g>
    </g>
    <g id="xtick_13">
     <g id="line2d_25">
      <g>
       <use xlink:href="#me571599a41" x="171.763028" y="163.15498" style="stroke: #000000; stroke-width: 0.5"/>
      </g>
     </g>
     <g id="line2d_26">
      <g>
       <use xlink:href="#m7ae0136ad8" x="171.763028" y="17.90218" style="stroke: #000000; stroke-width: 0.5"/>
      </g>
     </g>
    </g>
    <g id="xtick_14">
     <g id="line2d_27">
      <g>
       <use xlink:href="#me571599a41" x="183.599392" y="163.15498" style="stroke: #000000; stroke-width: 0.5"/>
      </g>
     </g>
     <g id="line2d_28">
      <g>
       <use xlink:href="#m7ae0136ad8" x="183.599392" y="17.90218" style="stroke: #000000; stroke-width: 0.5"/>
      </g>
     </g>
    </g>
    <g id="xtick_15">
     <g id="line2d_29">
      <g>
       <use xlink:href="#me571599a41" x="195.435756" y="163.15498" style="stroke: #000000; stroke-width: 0.5"/>
      </g>
     </g>
     <g id="line2d_30">
      <g>
       <use xlink:href="#m7ae0136ad8" x="195.435756" y="17.90218" style="stroke: #000000; stroke-width: 0.5"/>
      </g>
     </g>
    </g>
    <g id="xtick_16">
     <g id="line2d_31">
      <g>
       <use xlink:href="#me571599a41" x="207.272119" y="163.15498" style="stroke: #000000; stroke-width: 0.5"/>
      </g>
     </g>
     <g id="line2d_32">
      <g>
       <use xlink:href="#m7ae0136ad8" x="207.272119" y="17.90218" style="stroke: #000000; stroke-width: 0.5"/>
      </g>
     </g>
    </g>
    <g id="text_5">
     <!-- Pulse Duration [ns] -->
     <g transform="translate(88.202009 186.982637) scale(0.1 -0.1)">
      <defs>
       <path id="CMR17-50" d="M 1267 2042 
L 2291 2042 
C 3117 2042 3718 2578 3718 3184 
C 3718 3791 3130 4352 2291 4352 
L 333 4352 
L 333 4186 
C 774 4186 845 4186 845 3899 
L 845 446 
C 845 160 774 160 333 160 
L 333 0 
C 518 0 858 0 1056 0 
C 1254 0 1594 0 1779 0 
L 1779 160 
C 1338 160 1267 160 1267 446 
L 1267 2042 
z
M 1254 2176 
L 1254 3938 
C 1254 4155 1267 4186 1523 4186 
L 2170 4186 
C 2995 4186 3232 3714 3232 3184 
C 3232 2604 2950 2176 2170 2176 
L 1254 2176 
z
" transform="scale(0.015625)"/>
       <path id="CMR17-75" d="M 1882 2693 
L 1882 2528 
C 2259 2528 2317 2489 2317 2186 
L 2317 1032 
C 2317 500 2029 38 1555 38 
C 1030 38 986 348 986 678 
L 986 2763 
L 211 2693 
L 211 2528 
C 467 2528 640 2528 646 2274 
L 646 1058 
C 646 633 646 361 813 183 
C 896 101 1056 -64 1517 -64 
C 2061 -64 2272 377 2323 506 
L 2330 506 
L 2330 -63 
L 3091 -63 
L 3091 128 
C 2714 128 2656 166 2656 473 
L 2656 2763 
L 1882 2693 
z
" transform="scale(0.015625)"/>
       <path id="CMR17-6c" d="M 979 4396 
L 218 4326 
L 218 4160 
C 595 4160 653 4122 653 3817 
L 653 426 
C 653 184 627 153 218 153 
L 218 -13 
C 371 0 653 0 813 0 
C 979 0 1261 0 1414 -13 
L 1414 153 
C 1005 153 979 178 979 426 
L 979 4396 
z
" transform="scale(0.015625)"/>
       <path id="CMR17-73" d="M 1978 2697 
C 1978 2813 1971 2819 1933 2819 
C 1907 2819 1901 2813 1824 2717 
C 1805 2691 1747 2626 1728 2601 
C 1523 2819 1235 2819 1126 2819 
C 416 2819 160 2447 160 2076 
C 160 1498 813 1365 998 1325 
C 1402 1243 1542 1217 1677 1101 
C 1760 1025 1901 884 1901 654 
C 1901 384 1747 38 1158 38 
C 602 38 403 460 288 1021 
C 269 1110 269 1117 218 1117 
C 166 1117 160 1110 160 983 
L 160 63 
C 160 -51 166 -58 205 -58 
C 237 -58 243 -51 275 0 
C 314 57 410 211 448 276 
C 576 103 800 -64 1158 -64 
C 1792 -64 2131 283 2131 784 
C 2131 1112 1958 1285 1875 1362 
C 1683 1561 1459 1606 1190 1657 
C 838 1735 390 1825 390 2217 
C 390 2383 480 2737 1126 2737 
C 1811 2737 1850 2094 1862 1888 
C 1869 1856 1901 1849 1920 1849 
C 1978 1849 1978 1869 1978 1978 
L 1978 2697 
z
" transform="scale(0.015625)"/>
       <path id="CMR17-65" d="M 2438 1472 
C 2464 1498 2464 1511 2464 1576 
C 2464 2238 2118 2816 1389 2816 
C 710 2816 173 2169 173 1383 
C 173 551 781 -64 1459 -64 
C 2176 -64 2458 607 2458 740 
C 2458 784 2419 784 2406 784 
C 2362 784 2355 771 2330 696 
C 2189 265 1837 51 1504 51 
C 1229 51 954 203 781 480 
C 582 803 582 1176 582 1472 
L 2438 1472 
z
M 589 1568 
C 634 2505 1126 2714 1382 2714 
C 1818 2714 2112 2297 2118 1568 
L 589 1568 
z
" transform="scale(0.015625)"/>
       <path id="CMR17-44" d="M 333 4352 
L 333 4186 
C 774 4186 845 4186 845 3900 
L 845 452 
C 845 166 774 166 333 166 
L 333 0 
L 2368 0 
C 3398 0 4224 943 4224 2141 
C 4224 3346 3411 4352 2368 4352 
L 333 4352 
z
M 1523 166 
C 1267 166 1254 197 1254 414 
L 1254 3938 
C 1254 4155 1267 4186 1523 4186 
L 2240 4186 
C 2771 4186 3750 3874 3750 2141 
C 3750 1242 3488 879 3366 707 
C 3213 510 2848 166 2240 166 
L 1523 166 
z
" transform="scale(0.015625)"/>
       <path id="CMR17-72" d="M 960 1497 
C 960 2112 1222 2688 1702 2688 
C 1747 2688 1792 2682 1837 2662 
C 1837 2662 1696 2617 1696 2452 
C 1696 2298 1818 2234 1914 2234 
C 1990 2234 2131 2279 2131 2458 
C 2131 2663 1926 2790 1709 2790 
C 1222 2790 1011 2317 947 2093 
L 941 2093 
L 941 2790 
L 198 2720 
L 198 2554 
C 576 2554 634 2515 634 2208 
L 634 428 
C 634 184 608 153 198 153 
L 198 -13 
C 352 0 646 0 813 0 
C 998 0 1325 0 1498 -13 
L 1498 153 
C 1037 153 960 153 960 440 
L 960 1497 
z
" transform="scale(0.015625)"/>
       <path id="CMR17-61" d="M 2304 1653 
C 2304 2072 2304 2294 2035 2543 
C 1798 2752 1523 2816 1306 2816 
C 800 2816 435 2407 435 1971 
C 435 1728 627 1728 666 1728 
C 749 1728 896 1778 896 1954 
C 896 2112 774 2181 666 2181 
C 640 2181 608 2174 589 2168 
C 723 2592 1069 2714 1293 2714 
C 1613 2714 1965 2429 1965 1885 
L 1965 1600 
C 1587 1600 1133 1549 774 1357 
C 371 1133 256 813 256 570 
C 256 77 832 -64 1171 -64 
C 1523 -64 1850 139 1990 511 
C 2003 233 2182 -18 2464 -18 
C 2598 -18 2938 70 2938 567 
L 2938 920 
L 2822 920 
L 2822 562 
C 2822 178 2650 128 2566 128 
C 2304 128 2304 458 2304 738 
L 2304 1653 
z
M 1965 870 
C 1965 317 1568 38 1216 38 
C 896 38 646 275 646 570 
C 646 761 730 1100 1101 1305 
C 1408 1478 1760 1504 1965 1504 
L 1965 870 
z
" transform="scale(0.015625)"/>
       <path id="CMR17-74" d="M 966 2560 
L 1862 2560 
L 1862 2725 
L 966 2725 
L 966 3904 
L 851 3904 
C 838 3245 614 2668 70 2668 
L 70 2560 
L 627 2560 
L 627 771 
C 627 650 627 -64 1370 -64 
C 1747 -64 1965 306 1965 777 
L 1965 1140 
L 1850 1140 
L 1850 783 
C 1850 344 1677 51 1408 51 
C 1222 51 966 178 966 758 
L 966 2560 
z
" transform="scale(0.015625)"/>
       <path id="CMR17-69" d="M 992 3909 
C 992 4049 877 4170 730 4170 
C 589 4170 467 4056 467 3909 
C 467 3769 582 3648 730 3648 
C 870 3648 992 3763 992 3909 
z
M 243 2706 
L 243 2541 
C 602 2541 653 2502 653 2197 
L 653 427 
C 653 184 627 153 218 153 
L 218 -13 
C 371 0 646 0 806 0 
C 960 0 1222 0 1370 -13 
L 1370 153 
C 992 153 979 191 979 420 
L 979 2776 
L 243 2706 
z
" transform="scale(0.015625)"/>
       <path id="CMR17-6f" d="M 2758 1356 
C 2758 2176 2163 2816 1466 2816 
C 768 2816 173 2176 173 1356 
C 173 551 768 -64 1466 -64 
C 2163 -64 2758 551 2758 1356 
z
M 1466 51 
C 1165 51 909 230 762 480 
C 602 767 582 1126 582 1408 
C 582 1677 595 2010 762 2298 
C 890 2509 1139 2714 1466 2714 
C 1754 2714 1997 2554 2150 2330 
C 2349 2029 2349 1607 2349 1408 
C 2349 1158 2336 775 2163 467 
C 1984 173 1709 51 1466 51 
z
" transform="scale(0.015625)"/>
       <path id="CMR17-6e" d="M 2656 1933 
C 2656 2259 2592 2790 1837 2790 
C 1331 2790 1069 2400 973 2144 
L 966 2144 
L 966 2790 
L 211 2720 
L 211 2554 
C 589 2554 646 2515 646 2208 
L 646 428 
C 646 184 621 153 211 153 
L 211 -13 
C 365 0 646 0 813 0 
C 979 0 1267 0 1421 -13 
L 1421 153 
C 1011 153 986 178 986 428 
L 986 1658 
C 986 2247 1344 2688 1792 2688 
C 2266 2688 2317 2266 2317 1958 
L 2317 428 
C 2317 184 2291 153 1882 153 
L 1882 -13 
C 2035 0 2317 0 2483 0 
C 2650 0 2938 0 3091 -13 
L 3091 153 
C 2682 153 2656 178 2656 428 
L 2656 1933 
z
" transform="scale(0.015625)"/>
       <path id="CMR17-5b" d="M 1504 -1600 
L 1504 -1377 
L 902 -1377 
L 902 4544 
L 1504 4544 
L 1504 4767 
L 678 4767 
L 678 -1600 
L 1504 -1600 
z
" transform="scale(0.015625)"/>
       <path id="CMR17-5d" d="M 915 4767 
L 90 4767 
L 90 4544 
L 691 4544 
L 691 -1377 
L 90 -1377 
L 90 -1600 
L 915 -1600 
L 915 4767 
z
" transform="scale(0.015625)"/>
      </defs>
      <use xlink:href="#CMR17-50" transform="scale(0.996264)"/>
      <use xlink:href="#CMR17-75" transform="translate(62.586301 0) scale(0.996264)"/>
      <use xlink:href="#CMR17-6c" transform="translate(113.48167 0) scale(0.996264)"/>
      <use xlink:href="#CMR17-73" transform="translate(138.352729 0) scale(0.996264)"/>
      <use xlink:href="#CMR17-65" transform="translate(174.154066 0) scale(0.996264)"/>
      <use xlink:href="#CMR17-44" transform="translate(244.715693 0) scale(0.996264)"/>
      <use xlink:href="#CMR17-75" transform="translate(315.109249 0) scale(0.996264)"/>
      <use xlink:href="#CMR17-72" transform="translate(366.004619 0) scale(0.996264)"/>
      <use xlink:href="#CMR17-61" transform="translate(401.285387 0) scale(0.996264)"/>
      <use xlink:href="#CMR17-74" transform="translate(446.975864 0) scale(0.996264)"/>
      <use xlink:href="#CMR17-69" transform="translate(482.256632 0) scale(0.996264)"/>
      <use xlink:href="#CMR17-6f" transform="translate(507.12769 0) scale(0.996264)"/>
      <use xlink:href="#CMR17-6e" transform="translate(552.818167 0) scale(0.996264)"/>
      <use xlink:href="#CMR17-5b" transform="translate(633.789503 0) scale(0.996264)"/>
      <use xlink:href="#CMR17-6e" transform="translate(658.660562 0) scale(0.996264)"/>
      <use xlink:href="#CMR17-73" transform="translate(709.555932 0) scale(0.996264)"/>
      <use xlink:href="#CMR17-5d" transform="translate(745.357269 0) scale(0.996264)"/>
     </g>
    </g>
   </g>
   <g id="matplotlib.axis_2">
    <g id="ytick_1">
     <g id="line2d_33">
      <defs>
       <path id="mffbb588c35" d="M 0 0 
L 3 0 
" style="stroke: #000000; stroke-width: 0.5"/>
      </defs>
      <g>
       <use xlink:href="#mffbb588c35" x="32.685756" y="156.55258" style="stroke: #000000; stroke-width: 0.5"/>
      </g>
     </g>
     <g id="line2d_34">
      <defs>
       <path id="m2d5f2bc9c9" d="M 0 0 
L -3 0 
" style="stroke: #000000; stroke-width: 0.5"/>
      </defs>
      <g>
       <use xlink:href="#m2d5f2bc9c9" x="227.985756" y="156.55258" style="stroke: #000000; stroke-width: 0.5"/>
      </g>
     </g>
     <g id="text_6">
      <!-- $\mathdefault{0.0}$ -->
      <g transform="translate(16.455677 160.011829) scale(0.1 -0.1)">
       <defs>
        <path id="CMMI12-3a" d="M 1178 307 
C 1178 492 1024 619 870 619 
C 685 619 557 466 557 313 
C 557 128 710 0 864 0 
C 1050 0 1178 153 1178 307 
z
" transform="scale(0.015625)"/>
       </defs>
       <use xlink:href="#CMR17-30" transform="scale(0.996264)"/>
       <use xlink:href="#CMMI12-3a" transform="translate(45.690477 0) scale(0.996264)"/>
       <use xlink:href="#CMR17-30" transform="translate(72.787654 0) scale(0.996264)"/>
      </g>
     </g>
    </g>
    <g id="ytick_2">
     <g id="line2d_35">
      <g>
       <use xlink:href="#mffbb588c35" x="32.685756" y="130.14298" style="stroke: #000000; stroke-width: 0.5"/>
      </g>
     </g>
     <g id="line2d_36">
      <g>
       <use xlink:href="#m2d5f2bc9c9" x="227.985756" y="130.14298" style="stroke: #000000; stroke-width: 0.5"/>
      </g>
     </g>
     <g id="text_7">
      <!-- $\mathdefault{0.2}$ -->
      <g transform="translate(16.455677 133.602229) scale(0.1 -0.1)">
       <use xlink:href="#CMR17-30" transform="scale(0.996264)"/>
       <use xlink:href="#CMMI12-3a" transform="translate(45.690477 0) scale(0.996264)"/>
       <use xlink:href="#CMR17-32" transform="translate(72.787654 0) scale(0.996264)"/>
      </g>
     </g>
    </g>
    <g id="ytick_3">
     <g id="line2d_37">
      <g>
       <use xlink:href="#mffbb588c35" x="32.685756" y="103.73338" style="stroke: #000000; stroke-width: 0.5"/>
      </g>
     </g>
     <g id="line2d_38">
      <g>
       <use xlink:href="#m2d5f2bc9c9" x="227.985756" y="103.73338" style="stroke: #000000; stroke-width: 0.5"/>
      </g>
     </g>
     <g id="text_8">
      <!-- $\mathdefault{0.4}$ -->
      <g transform="translate(16.455677 107.192629) scale(0.1 -0.1)">
       <defs>
        <path id="CMR17-34" d="M 2150 4122 
C 2150 4256 2144 4256 2029 4256 
L 128 1254 
L 128 1088 
L 1779 1088 
L 1779 457 
C 1779 224 1766 160 1318 160 
L 1197 160 
L 1197 0 
C 1402 0 1747 0 1965 0 
C 2182 0 2528 0 2733 0 
L 2733 160 
L 2611 160 
C 2163 160 2150 224 2150 457 
L 2150 1088 
L 2803 1088 
L 2803 1254 
L 2150 1254 
L 2150 4122 
z
M 1798 3703 
L 1798 1254 
L 256 1254 
L 1798 3703 
z
" transform="scale(0.015625)"/>
       </defs>
       <use xlink:href="#CMR17-30" transform="scale(0.996264)"/>
       <use xlink:href="#CMMI12-3a" transform="translate(45.690477 0) scale(0.996264)"/>
       <use xlink:href="#CMR17-34" transform="translate(72.787654 0) scale(0.996264)"/>
      </g>
     </g>
    </g>
    <g id="ytick_4">
     <g id="line2d_39">
      <g>
       <use xlink:href="#mffbb588c35" x="32.685756" y="77.32378" style="stroke: #000000; stroke-width: 0.5"/>
      </g>
     </g>
     <g id="line2d_40">
      <g>
       <use xlink:href="#m2d5f2bc9c9" x="227.985756" y="77.32378" style="stroke: #000000; stroke-width: 0.5"/>
      </g>
     </g>
     <g id="text_9">
      <!-- $\mathdefault{0.6}$ -->
      <g transform="translate(16.455677 80.783029) scale(0.1 -0.1)">
       <defs>
        <path id="CMR17-36" d="M 678 2176 
C 678 3690 1395 4032 1811 4032 
C 1946 4032 2272 4009 2400 3776 
C 2298 3776 2106 3776 2106 3553 
C 2106 3381 2246 3323 2336 3323 
C 2394 3323 2566 3348 2566 3560 
C 2566 3954 2246 4179 1805 4179 
C 1043 4179 243 3390 243 1984 
C 243 253 966 -128 1478 -128 
C 2099 -128 2688 427 2688 1283 
C 2688 2081 2170 2662 1517 2662 
C 1126 2662 838 2407 678 1960 
L 678 2176 
z
M 1478 25 
C 691 25 691 1200 691 1436 
C 691 1896 909 2560 1504 2560 
C 1613 2560 1926 2560 2138 2120 
C 2253 1870 2253 1609 2253 1289 
C 2253 944 2253 690 2118 434 
C 1978 171 1773 25 1478 25 
z
" transform="scale(0.015625)"/>
       </defs>
       <use xlink:href="#CMR17-30" transform="scale(0.996264)"/>
       <use xlink:href="#CMMI12-3a" transform="translate(45.690477 0) scale(0.996264)"/>
       <use xlink:href="#CMR17-36" transform="translate(72.787654 0) scale(0.996264)"/>
      </g>
     </g>
    </g>
    <g id="ytick_5">
     <g id="line2d_41">
      <g>
       <use xlink:href="#mffbb588c35" x="32.685756" y="50.91418" style="stroke: #000000; stroke-width: 0.5"/>
      </g>
     </g>
     <g id="line2d_42">
      <g>
       <use xlink:href="#m2d5f2bc9c9" x="227.985756" y="50.91418" style="stroke: #000000; stroke-width: 0.5"/>
      </g>
     </g>
     <g id="text_10">
      <!-- $\mathdefault{0.8}$ -->
      <g transform="translate(16.455677 54.373429) scale(0.1 -0.1)">
       <defs>
        <path id="CMR17-38" d="M 1741 2264 
C 2144 2467 2554 2773 2554 3263 
C 2554 3841 1990 4179 1472 4179 
C 890 4179 378 3759 378 3180 
C 378 3021 416 2747 666 2505 
C 730 2442 998 2251 1171 2130 
C 883 1983 211 1634 211 934 
C 211 279 838 -128 1459 -128 
C 2144 -128 2720 362 2720 1010 
C 2720 1590 2330 1857 2074 2029 
L 1741 2264 
z
M 902 2822 
C 851 2854 595 3051 595 3351 
C 595 3739 998 4032 1459 4032 
C 1965 4032 2336 3676 2336 3262 
C 2336 2669 1670 2331 1638 2331 
C 1632 2331 1626 2331 1574 2370 
L 902 2822 
z
M 2080 1519 
C 2176 1449 2483 1240 2483 851 
C 2483 381 2010 25 1472 25 
C 890 25 448 438 448 940 
C 448 1443 838 1862 1280 2060 
L 2080 1519 
z
" transform="scale(0.015625)"/>
       </defs>
       <use xlink:href="#CMR17-30" transform="scale(0.996264)"/>
       <use xlink:href="#CMMI12-3a" transform="translate(45.690477 0) scale(0.996264)"/>
       <use xlink:href="#CMR17-38" transform="translate(72.787654 0) scale(0.996264)"/>
      </g>
     </g>
    </g>
    <g id="ytick_6">
     <g id="line2d_43">
      <g>
       <use xlink:href="#mffbb588c35" x="32.685756" y="24.50458" style="stroke: #000000; stroke-width: 0.5"/>
      </g>
     </g>
     <g id="line2d_44">
      <g>
       <use xlink:href="#m2d5f2bc9c9" x="227.985756" y="24.50458" style="stroke: #000000; stroke-width: 0.5"/>
      </g>
     </g>
     <g id="text_11">
      <!-- $\mathdefault{1.0}$ -->
      <g transform="translate(16.455677 27.963829) scale(0.1 -0.1)">
       <use xlink:href="#CMR17-31" transform="scale(0.996264)"/>
       <use xlink:href="#CMMI12-3a" transform="translate(45.690477 0) scale(0.996264)"/>
       <use xlink:href="#CMR17-30" transform="translate(72.787654 0) scale(0.996264)"/>
      </g>
     </g>
    </g>
    <g id="ytick_7">
     <g id="line2d_45">
      <defs>
       <path id="mc86a37ae1e" d="M 0 0 
L 1.5 0 
" style="stroke: #000000; stroke-width: 0.5"/>
      </defs>
      <g>
       <use xlink:href="#mc86a37ae1e" x="32.685756" y="149.95018" style="stroke: #000000; stroke-width: 0.5"/>
      </g>
     </g>
     <g id="line2d_46">
      <defs>
       <path id="m6ef4631ab8" d="M 0 0 
L -1.5 0 
" style="stroke: #000000; stroke-width: 0.5"/>
      </defs>
      <g>
       <use xlink:href="#m6ef4631ab8" x="227.985756" y="149.95018" style="stroke: #000000; stroke-width: 0.5"/>
      </g>
     </g>
    </g>
    <g id="ytick_8">
     <g id="line2d_47">
      <g>
       <use xlink:href="#mc86a37ae1e" x="32.685756" y="143.34778" style="stroke: #000000; stroke-width: 0.5"/>
      </g>
     </g>
     <g id="line2d_48">
      <g>
       <use xlink:href="#m6ef4631ab8" x="227.985756" y="143.34778" style="stroke: #000000; stroke-width: 0.5"/>
      </g>
     </g>
    </g>
    <g id="ytick_9">
     <g id="line2d_49">
      <g>
       <use xlink:href="#mc86a37ae1e" x="32.685756" y="136.74538" style="stroke: #000000; stroke-width: 0.5"/>
      </g>
     </g>
     <g id="line2d_50">
      <g>
       <use xlink:href="#m6ef4631ab8" x="227.985756" y="136.74538" style="stroke: #000000; stroke-width: 0.5"/>
      </g>
     </g>
    </g>
    <g id="ytick_10">
     <g id="line2d_51">
      <g>
       <use xlink:href="#mc86a37ae1e" x="32.685756" y="123.54058" style="stroke: #000000; stroke-width: 0.5"/>
      </g>
     </g>
     <g id="line2d_52">
      <g>
       <use xlink:href="#m6ef4631ab8" x="227.985756" y="123.54058" style="stroke: #000000; stroke-width: 0.5"/>
      </g>
     </g>
    </g>
    <g id="ytick_11">
     <g id="line2d_53">
      <g>
       <use xlink:href="#mc86a37ae1e" x="32.685756" y="116.93818" style="stroke: #000000; stroke-width: 0.5"/>
      </g>
     </g>
     <g id="line2d_54">
      <g>
       <use xlink:href="#m6ef4631ab8" x="227.985756" y="116.93818" style="stroke: #000000; stroke-width: 0.5"/>
      </g>
     </g>
    </g>
    <g id="ytick_12">
     <g id="line2d_55">
      <g>
       <use xlink:href="#mc86a37ae1e" x="32.685756" y="110.33578" style="stroke: #000000; stroke-width: 0.5"/>
      </g>
     </g>
     <g id="line2d_56">
      <g>
       <use xlink:href="#m6ef4631ab8" x="227.985756" y="110.33578" style="stroke: #000000; stroke-width: 0.5"/>
      </g>
     </g>
    </g>
    <g id="ytick_13">
     <g id="line2d_57">
      <g>
       <use xlink:href="#mc86a37ae1e" x="32.685756" y="97.13098" style="stroke: #000000; stroke-width: 0.5"/>
      </g>
     </g>
     <g id="line2d_58">
      <g>
       <use xlink:href="#m6ef4631ab8" x="227.985756" y="97.13098" style="stroke: #000000; stroke-width: 0.5"/>
      </g>
     </g>
    </g>
    <g id="ytick_14">
     <g id="line2d_59">
      <g>
       <use xlink:href="#mc86a37ae1e" x="32.685756" y="90.52858" style="stroke: #000000; stroke-width: 0.5"/>
      </g>
     </g>
     <g id="line2d_60">
      <g>
       <use xlink:href="#m6ef4631ab8" x="227.985756" y="90.52858" style="stroke: #000000; stroke-width: 0.5"/>
      </g>
     </g>
    </g>
    <g id="ytick_15">
     <g id="line2d_61">
      <g>
       <use xlink:href="#mc86a37ae1e" x="32.685756" y="83.92618" style="stroke: #000000; stroke-width: 0.5"/>
      </g>
     </g>
     <g id="line2d_62">
      <g>
       <use xlink:href="#m6ef4631ab8" x="227.985756" y="83.92618" style="stroke: #000000; stroke-width: 0.5"/>
      </g>
     </g>
    </g>
    <g id="ytick_16">
     <g id="line2d_63">
      <g>
       <use xlink:href="#mc86a37ae1e" x="32.685756" y="70.72138" style="stroke: #000000; stroke-width: 0.5"/>
      </g>
     </g>
     <g id="line2d_64">
      <g>
       <use xlink:href="#m6ef4631ab8" x="227.985756" y="70.72138" style="stroke: #000000; stroke-width: 0.5"/>
      </g>
     </g>
    </g>
    <g id="ytick_17">
     <g id="line2d_65">
      <g>
       <use xlink:href="#mc86a37ae1e" x="32.685756" y="64.11898" style="stroke: #000000; stroke-width: 0.5"/>
      </g>
     </g>
     <g id="line2d_66">
      <g>
       <use xlink:href="#m6ef4631ab8" x="227.985756" y="64.11898" style="stroke: #000000; stroke-width: 0.5"/>
      </g>
     </g>
    </g>
    <g id="ytick_18">
     <g id="line2d_67">
      <g>
       <use xlink:href="#mc86a37ae1e" x="32.685756" y="57.51658" style="stroke: #000000; stroke-width: 0.5"/>
      </g>
     </g>
     <g id="line2d_68">
      <g>
       <use xlink:href="#m6ef4631ab8" x="227.985756" y="57.51658" style="stroke: #000000; stroke-width: 0.5"/>
      </g>
     </g>
    </g>
    <g id="ytick_19">
     <g id="line2d_69">
      <g>
       <use xlink:href="#mc86a37ae1e" x="32.685756" y="44.31178" style="stroke: #000000; stroke-width: 0.5"/>
      </g>
     </g>
     <g id="line2d_70">
      <g>
       <use xlink:href="#m6ef4631ab8" x="227.985756" y="44.31178" style="stroke: #000000; stroke-width: 0.5"/>
      </g>
     </g>
    </g>
    <g id="ytick_20">
     <g id="line2d_71">
      <g>
       <use xlink:href="#mc86a37ae1e" x="32.685756" y="37.70938" style="stroke: #000000; stroke-width: 0.5"/>
      </g>
     </g>
     <g id="line2d_72">
      <g>
       <use xlink:href="#m6ef4631ab8" x="227.985756" y="37.70938" style="stroke: #000000; stroke-width: 0.5"/>
      </g>
     </g>
    </g>
    <g id="ytick_21">
     <g id="line2d_73">
      <g>
       <use xlink:href="#mc86a37ae1e" x="32.685756" y="31.10698" style="stroke: #000000; stroke-width: 0.5"/>
      </g>
     </g>
     <g id="line2d_74">
      <g>
       <use xlink:href="#m6ef4631ab8" x="227.985756" y="31.10698" style="stroke: #000000; stroke-width: 0.5"/>
      </g>
     </g>
    </g>
    <g id="text_12">
     <!-- Weight -->
     <g transform="translate(10.518498 105.887678) rotate(-90) scale(0.1 -0.1)">
      <defs>
       <path id="CMR17-57" d="M 5523 3764 
C 5581 3936 5677 4160 6048 4160 
L 6048 4326 
C 5939 4326 5715 4326 5600 4326 
C 5440 4326 5158 4326 5005 4332 
L 5005 4160 
C 5293 4160 5414 4000 5414 3847 
C 5414 3802 5408 3777 5382 3707 
L 4390 555 
L 3347 3873 
C 3328 3937 3322 3963 3322 3988 
C 3322 4160 3603 4160 3725 4160 
L 3725 4326 
C 3539 4326 3219 4326 3021 4326 
C 2861 4326 2573 4326 2426 4332 
L 2426 4160 
C 2720 4160 2797 4141 2861 4027 
C 2886 3969 2989 3638 2989 3619 
C 2989 3593 2976 3555 2970 3536 
L 2029 561 
L 986 3867 
C 954 3957 954 3969 954 3982 
C 954 4160 1235 4160 1363 4160 
L 1363 4326 
C 1178 4326 858 4326 659 4326 
C 493 4326 211 4326 58 4332 
L 58 4160 
C 442 4160 467 4122 531 3918 
L 1779 -20 
C 1811 -115 1811 -128 1869 -128 
C 1920 -128 1939 -115 1965 -26 
L 3053 3433 
L 4141 -26 
C 4166 -115 4186 -128 4237 -128 
C 4294 -128 4294 -115 4326 -20 
L 5523 3764 
z
" transform="scale(0.015625)"/>
       <path id="CMR17-67" d="M 710 1164 
C 832 1068 1043 960 1299 960 
C 1805 960 2240 1357 2240 1888 
C 2240 2054 2189 2310 1997 2509 
C 2176 2692 2438 2752 2586 2752 
C 2611 2752 2650 2752 2682 2734 
C 2656 2728 2598 2703 2598 2605 
C 2598 2527 2656 2471 2739 2471 
C 2835 2471 2886 2533 2886 2614 
C 2886 2731 2790 2854 2586 2854 
C 2330 2854 2106 2738 1926 2580 
C 1734 2753 1504 2816 1299 2816 
C 794 2816 358 2419 358 1888 
C 358 1522 570 1292 634 1228 
C 442 1004 442 743 442 711 
C 442 545 506 302 723 168 
C 390 85 128 -169 128 -486 
C 128 -943 736 -1280 1466 -1280 
C 2170 -1280 2803 -956 2803 -479 
C 2803 384 1856 384 1363 384 
C 1216 384 954 384 922 391 
C 723 423 589 602 589 826 
C 589 883 589 1024 710 1164 
z
M 1299 1068 
C 736 1068 736 1760 736 1889 
C 736 2016 736 2708 1299 2708 
C 1862 2708 1862 2016 1862 1889 
C 1862 1760 1862 1068 1299 1068 
z
M 1466 -1171 
C 826 -1171 384 -835 384 -486 
C 384 -289 493 -105 634 -4 
C 794 104 858 104 1293 104 
C 1818 104 2547 104 2547 -486 
C 2547 -835 2106 -1171 1466 -1171 
z
" transform="scale(0.015625)"/>
       <path id="CMR17-68" d="M 2656 1933 
C 2656 2259 2592 2790 1837 2790 
C 1312 2790 1056 2368 979 2157 
L 973 2157 
L 973 4396 
L 211 4326 
L 211 4160 
C 589 4160 646 4122 646 3817 
L 646 426 
C 646 184 621 153 211 153 
L 211 -13 
C 365 0 646 0 813 0 
C 979 0 1267 0 1421 -13 
L 1421 153 
C 1011 153 986 178 986 428 
L 986 1658 
C 986 2247 1344 2688 1792 2688 
C 2266 2688 2317 2266 2317 1958 
L 2317 428 
C 2317 184 2291 153 1882 153 
L 1882 -13 
C 2035 0 2317 0 2483 0 
C 2650 0 2938 0 3091 -13 
L 3091 153 
C 2682 153 2656 178 2656 428 
L 2656 1933 
z
" transform="scale(0.015625)"/>
      </defs>
      <use xlink:href="#CMR17-57" transform="scale(0.996264)"/>
      <use xlink:href="#CMR17-65" transform="translate(87.289395 0) scale(0.996264)"/>
      <use xlink:href="#CMR17-69" transform="translate(127.775055 0) scale(0.996264)"/>
      <use xlink:href="#CMR17-67" transform="translate(152.646113 0) scale(0.996264)"/>
      <use xlink:href="#CMR17-68" transform="translate(198.336591 0) scale(0.996264)"/>
      <use xlink:href="#CMR17-74" transform="translate(246.629506 0) scale(0.996264)"/>
     </g>
    </g>
   </g>
   <g id="line2d_75">
    <path d="M 41.563028 156.55258 
L 60.420562 156.55258 
L 60.776364 155.2321 
L 61.132167 156.55258 
L 63.266982 156.55258 
L 63.622784 155.2321 
L 63.978587 156.55258 
L 65.401797 156.55258 
L 65.757599 155.2321 
L 66.113402 156.55258 
L 66.469204 155.2321 
L 66.825007 155.2321 
L 67.180809 156.55258 
L 67.536612 155.2321 
L 67.892414 156.55258 
L 68.248217 153.91162 
L 68.604019 153.91162 
L 68.959822 156.55258 
L 69.315625 153.91162 
L 69.671427 153.91162 
L 70.02723 155.2321 
L 70.383032 153.91162 
L 70.738835 156.55258 
L 71.094637 155.2321 
L 71.45044 155.2321 
L 71.806242 153.91162 
L 72.162045 156.55258 
L 72.517847 152.59114 
L 72.87365 151.27066 
L 73.229452 153.91162 
L 73.585255 153.91162 
L 73.941057 155.2321 
L 74.29686 148.6297 
L 74.652662 151.27066 
L 75.008465 152.59114 
L 75.364267 148.6297 
L 75.72007 148.6297 
L 76.075872 152.59114 
L 76.431675 152.59114 
L 76.787477 149.95018 
L 77.14328 144.66826 
L 77.499082 143.34778 
L 77.854885 143.34778 
L 78.56649 151.27066 
L 78.922292 149.95018 
L 79.278095 143.34778 
L 79.9897 145.98874 
L 80.345502 140.70682 
L 80.701305 131.46346 
L 81.057107 144.66826 
L 81.41291 140.70682 
L 81.768713 140.70682 
L 82.124515 143.34778 
L 82.480318 147.30922 
L 82.83612 140.70682 
L 83.191923 136.74538 
L 83.903528 134.10442 
L 84.25933 147.30922 
L 84.970935 130.14298 
L 85.326738 138.06586 
L 85.68254 131.46346 
L 86.038343 127.50202 
L 86.394145 115.6177 
L 86.749948 120.89962 
L 87.10575 123.54058 
L 87.461553 110.33578 
L 87.817355 116.93818 
L 88.173158 127.50202 
L 88.52896 130.14298 
L 88.884763 123.54058 
L 89.240565 114.29722 
L 89.596368 124.86106 
L 89.95217 116.93818 
L 90.307973 116.93818 
L 90.663775 122.2201 
L 91.019578 103.73338 
L 91.37538 114.29722 
L 91.731183 119.57914 
L 92.086985 106.37434 
L 92.442788 109.0153 
L 92.79859 109.0153 
L 93.154393 103.73338 
L 93.510195 110.33578 
L 93.865998 106.37434 
L 94.221801 97.13098 
L 94.577603 94.49002 
L 94.933406 103.73338 
L 95.289208 90.52858 
L 95.645011 99.77194 
L 96.000813 101.09242 
L 96.356616 98.45146 
L 96.712418 109.0153 
L 97.068221 93.16954 
L 97.424023 94.49002 
L 97.779826 101.09242 
L 98.135628 83.92618 
L 98.847233 105.05386 
L 99.203036 89.2081 
L 99.558838 94.49002 
L 99.914641 86.56714 
L 100.270443 95.8105 
L 100.982048 66.75994 
L 101.337851 77.32378 
L 101.693653 73.36234 
L 102.049456 77.32378 
L 102.405258 90.52858 
L 102.761061 79.96474 
L 103.116863 78.64426 
L 103.472666 91.84906 
L 103.828468 72.04186 
L 104.184271 76.0033 
L 104.540073 70.72138 
L 104.895876 81.28522 
L 105.251678 62.7985 
L 105.607481 78.64426 
L 105.963283 69.4009 
L 106.319086 64.11898 
L 106.674888 68.08042 
L 107.030691 68.08042 
L 107.386494 77.32378 
L 107.742296 73.36234 
L 108.098099 60.15754 
L 108.453901 76.0033 
L 108.809704 58.83706 
L 109.165506 76.0033 
L 109.521309 68.08042 
L 109.877111 74.68282 
L 110.232914 62.7985 
L 110.588716 66.75994 
L 110.944519 68.08042 
L 111.300321 56.1961 
L 111.656124 64.11898 
L 112.011926 69.4009 
L 112.367729 60.15754 
L 112.723531 57.51658 
L 113.079334 56.1961 
L 113.435136 65.43946 
L 114.146741 46.95274 
L 114.858346 66.75994 
L 115.214149 57.51658 
L 115.569951 53.55514 
L 115.925754 57.51658 
L 116.281556 53.55514 
L 116.637359 53.55514 
L 116.993161 48.27322 
L 117.348964 50.91418 
L 117.704766 58.83706 
L 118.060569 50.91418 
L 118.416371 54.87562 
L 118.772174 44.31178 
L 119.127976 49.5937 
L 119.483779 46.95274 
L 119.839582 64.11898 
L 120.195384 44.31178 
L 120.551187 42.9913 
L 120.906989 52.23466 
L 121.262792 46.95274 
L 121.618594 52.23466 
L 121.974397 49.5937 
L 122.330199 49.5937 
L 122.686002 52.23466 
L 123.041804 46.95274 
L 123.397607 48.27322 
L 123.753409 57.51658 
L 124.109212 39.02986 
L 124.465014 41.67082 
L 124.820817 45.63226 
L 125.176619 42.9913 
L 125.532422 32.42746 
L 126.244027 41.67082 
L 126.599829 54.87562 
L 126.955632 50.91418 
L 127.311434 40.35034 
L 127.667237 37.70938 
L 128.023039 39.02986 
L 128.378842 37.70938 
L 128.734644 49.5937 
L 129.090447 37.70938 
L 129.446249 45.63226 
L 129.802052 36.3889 
L 130.157854 42.9913 
L 130.513657 44.31178 
L 130.869459 37.70938 
L 131.225262 39.02986 
L 131.581064 46.95274 
L 131.936867 37.70938 
L 132.29267 37.70938 
L 132.648472 36.3889 
L 133.004275 42.9913 
L 133.360077 33.74794 
L 133.71588 36.3889 
L 134.071682 35.06842 
L 134.427485 36.3889 
L 134.783287 40.35034 
L 135.13909 35.06842 
L 135.494892 35.06842 
L 135.850695 41.67082 
L 136.206497 36.3889 
L 136.5623 39.02986 
L 137.273905 27.14554 
L 137.98551 39.02986 
L 138.341312 29.7865 
L 138.697115 39.02986 
L 139.052917 37.70938 
L 139.40872 35.06842 
L 139.764522 39.02986 
L 140.120325 32.42746 
L 140.476127 37.70938 
L 140.83193 35.06842 
L 141.187732 31.10698 
L 141.543535 39.02986 
L 141.899337 29.7865 
L 142.25514 31.10698 
L 142.610942 33.74794 
L 142.966745 32.42746 
L 143.322547 35.06842 
L 143.67835 31.10698 
L 144.034152 25.82506 
L 144.389955 36.3889 
L 144.745758 37.70938 
L 145.10156 29.7865 
L 145.457363 39.02986 
L 146.168968 27.14554 
L 146.52477 31.10698 
L 146.880573 28.46602 
L 147.236375 27.14554 
L 147.592178 33.74794 
L 147.94798 33.74794 
L 148.303783 25.82506 
L 148.659585 32.42746 
L 149.015388 31.10698 
L 149.37119 33.74794 
L 149.726993 28.46602 
L 150.082795 31.10698 
L 150.438598 36.3889 
L 150.7944 35.06842 
L 151.150203 27.14554 
L 151.506005 28.46602 
L 151.861808 25.82506 
L 152.21761 31.10698 
L 152.573413 33.74794 
L 152.929215 25.82506 
L 153.285018 27.14554 
L 153.64082 29.7865 
L 154.352425 27.14554 
L 154.708228 28.46602 
L 155.06403 31.10698 
L 155.419833 29.7865 
L 155.775635 29.7865 
L 156.131438 31.10698 
L 156.48724 25.82506 
L 156.843043 29.7865 
L 157.198846 32.42746 
L 157.554648 25.82506 
L 157.910451 25.82506 
L 158.266253 27.14554 
L 158.622056 25.82506 
L 158.977858 29.7865 
L 159.333661 27.14554 
L 159.689463 31.10698 
L 160.045266 27.14554 
L 160.401068 28.46602 
L 160.756871 25.82506 
L 161.112673 28.46602 
L 161.468476 29.7865 
L 161.824278 28.46602 
L 162.180081 25.82506 
L 162.535883 25.82506 
L 162.891686 24.50458 
L 163.247488 28.46602 
L 163.603291 25.82506 
L 163.959093 24.50458 
L 164.670698 27.14554 
L 165.026501 29.7865 
L 165.382303 24.50458 
L 165.738106 25.82506 
L 166.093908 25.82506 
L 166.449711 24.50458 
L 166.805513 29.7865 
L 167.161316 29.7865 
L 167.872921 24.50458 
L 168.228723 24.50458 
L 168.584526 28.46602 
L 168.940328 27.14554 
L 169.296131 29.7865 
L 169.651933 25.82506 
L 170.007736 27.14554 
L 170.719341 27.14554 
L 171.430946 24.50458 
L 172.142551 24.50458 
L 172.498354 25.82506 
L 172.854156 25.82506 
L 173.209959 27.14554 
L 173.565761 27.14554 
L 173.921564 25.82506 
L 174.277366 27.14554 
L 174.633169 25.82506 
L 174.988971 27.14554 
L 175.700576 24.50458 
L 176.056379 25.82506 
L 176.412181 24.50458 
L 176.767984 24.50458 
L 177.123786 27.14554 
L 177.479589 27.14554 
L 177.835391 25.82506 
L 178.191194 27.14554 
L 178.546996 27.14554 
L 178.902799 25.82506 
L 179.258601 27.14554 
L 179.614404 24.50458 
L 179.970206 24.50458 
L 180.681811 27.14554 
L 181.037614 25.82506 
L 181.749219 28.46602 
L 182.105021 24.50458 
L 182.460824 24.50458 
L 182.816627 28.46602 
L 183.172429 24.50458 
L 183.528232 25.82506 
L 183.884034 25.82506 
L 184.239837 27.14554 
L 184.595639 24.50458 
L 184.951442 24.50458 
L 185.307244 25.82506 
L 185.663047 24.50458 
L 186.018849 27.14554 
L 186.374652 24.50458 
L 186.730454 25.82506 
L 187.086257 24.50458 
L 187.442059 28.46602 
L 187.797862 28.46602 
L 188.153664 25.82506 
L 188.509467 24.50458 
L 189.221072 24.50458 
L 189.576874 25.82506 
L 189.932677 24.50458 
L 191.355887 24.50458 
L 191.711689 27.14554 
L 192.067492 24.50458 
L 192.779097 24.50458 
L 193.134899 25.82506 
L 193.490702 24.50458 
L 195.98132 24.50458 
L 196.337122 25.82506 
L 196.692925 24.50458 
L 197.048727 25.82506 
L 197.40453 24.50458 
L 199.183542 24.50458 
L 199.539345 25.82506 
L 199.895147 24.50458 
L 200.25095 25.82506 
L 200.606752 24.50458 
L 200.962555 25.82506 
L 201.318357 25.82506 
L 201.67416 24.50458 
L 202.029962 24.50458 
L 202.385765 25.82506 
L 202.741567 24.50458 
L 203.453172 24.50458 
L 203.808975 25.82506 
L 204.164777 24.50458 
L 204.876382 24.50458 
L 205.232185 25.82506 
L 205.587987 24.50458 
L 206.299592 24.50458 
L 206.655395 27.14554 
L 207.011197 24.50458 
L 207.367 25.82506 
L 207.722803 24.50458 
L 209.501815 24.50458 
L 209.857618 25.82506 
L 210.21342 25.82506 
L 210.569223 24.50458 
L 210.925025 25.82506 
L 211.280828 24.50458 
L 212.704038 24.50458 
L 213.05984 25.82506 
L 213.415643 25.82506 
L 213.771445 24.50458 
L 214.127248 24.50458 
L 214.48305 25.82506 
L 214.838853 25.82506 
L 215.194655 24.50458 
L 215.90626 24.50458 
L 216.262063 25.82506 
L 216.617865 24.50458 
L 218.75268 24.50458 
L 219.108483 25.82506 
L 219.108483 25.82506 
" clip-path="url(#p3db4b2b9fe)" style="fill: none; stroke: #440154; stroke-opacity: 0.7; stroke-linecap: square"/>
   </g>
   <g id="patch_3">
    <path d="M 32.685756 163.15498 
L 32.685756 17.90218 
" style="fill: none; stroke: #000000; stroke-width: 0.5; stroke-linejoin: miter; stroke-linecap: square"/>
   </g>
   <g id="patch_4">
    <path d="M 227.985756 163.15498 
L 227.985756 17.90218 
" style="fill: none; stroke: #000000; stroke-width: 0.5; stroke-linejoin: miter; stroke-linecap: square"/>
   </g>
   <g id="patch_5">
    <path d="M 32.685756 163.15498 
L 227.985756 163.15498 
" style="fill: none; stroke: #000000; stroke-width: 0.5; stroke-linejoin: miter; stroke-linecap: square"/>
   </g>
   <g id="patch_6">
    <path d="M 32.685756 17.90218 
L 227.985756 17.90218 
" style="fill: none; stroke: #000000; stroke-width: 0.5; stroke-linejoin: miter; stroke-linecap: square"/>
   </g>
   <g id="text_13">
    <!-- Coin Bias -->
    <g transform="translate(105.347773 11.90218) scale(0.12 -0.12)">
     <defs>
      <path id="CMR17-43" d="M 3974 4289 
C 3974 4403 3968 4410 3930 4410 
C 3904 4410 3898 4403 3853 4327 
L 3571 3792 
C 3258 4187 2874 4416 2381 4416 
C 1286 4416 294 3456 294 2148 
C 294 826 1286 -128 2387 -128 
C 3366 -128 3974 730 3974 1461 
C 3974 1524 3974 1550 3917 1550 
C 3866 1550 3866 1531 3859 1474 
C 3808 585 3168 38 2477 38 
C 1824 38 781 495 781 2147 
C 781 3805 1843 4250 2464 4250 
C 3187 4250 3712 3628 3834 2745 
C 3846 2668 3846 2655 3904 2655 
C 3974 2655 3974 2668 3974 2783 
L 3974 4289 
z
" transform="scale(0.015625)"/>
      <path id="CMR17-42" d="M 333 4352 
L 333 4186 
C 774 4186 845 4186 845 3900 
L 845 452 
C 845 166 774 166 333 166 
L 333 0 
L 2534 0 
C 3354 0 3885 583 3885 1164 
C 3885 1741 3360 2233 2675 2233 
C 3290 2356 3718 2771 3718 3264 
C 3718 3802 3194 4352 2368 4352 
L 333 4352 
z
M 1248 2304 
L 1248 3937 
C 1248 4155 1261 4186 1517 4186 
L 2336 4186 
C 2970 4186 3251 3674 3251 3277 
C 3251 2791 2861 2304 2170 2304 
L 1248 2304 
z
M 1517 166 
C 1261 166 1248 197 1248 413 
L 1248 2202 
L 2432 2202 
C 3091 2202 3411 1625 3411 1162 
C 3411 699 3046 166 2349 166 
L 1517 166 
z
" transform="scale(0.015625)"/>
     </defs>
     <use xlink:href="#CMR17-43" transform="scale(0.996264)"/>
     <use xlink:href="#CMR17-6f" transform="translate(66.509881 0) scale(0.996264)"/>
     <use xlink:href="#CMR17-69" transform="translate(112.200358 0) scale(0.996264)"/>
     <use xlink:href="#CMR17-6e" transform="translate(137.071416 0) scale(0.996264)"/>
     <use xlink:href="#CMR17-42" transform="translate(218.042752 0) scale(0.996264)"/>
     <use xlink:href="#CMR17-69" transform="translate(283.231507 0) scale(0.996264)"/>
     <use xlink:href="#CMR17-61" transform="translate(308.102565 0) scale(0.996264)"/>
     <use xlink:href="#CMR17-73" transform="translate(353.793042 0) scale(0.996264)"/>
    </g>
   </g>
  </g>
 </g>
 <defs>
  <clipPath id="p3db4b2b9fe">
   <rect x="32.685756" y="17.90218" width="195.3" height="145.2528"/>
  </clipPath>
 </defs>
</svg>
