<?xml version="1.0" encoding="utf-8" standalone="no"?>
<!DOCTYPE svg PUBLIC "-//W3C//DTD SVG 1.1//EN"
  "http://www.w3.org/Graphics/SVG/1.1/DTD/svg11.dtd">
<svg xmlns:xlink="http://www.w3.org/1999/xlink" width="518.4pt" height="583.92pt" viewBox="0 0 518.4 583.92" xmlns="http://www.w3.org/2000/svg" version="1.1">
 <metadata>
  <rdf:RDF xmlns:dc="http://purl.org/dc/elements/1.1/" xmlns:cc="http://creativecommons.org/ns#" xmlns:rdf="http://www.w3.org/1999/02/22-rdf-syntax-ns#">
   <cc:Work>
    <dc:type rdf:resource="http://purl.org/dc/dcmitype/StillImage"/>
    <dc:date>2024-01-29T14:56:50.456362</dc:date>
    <dc:format>image/svg+xml</dc:format>
    <dc:creator>
     <cc:Agent>
      <dc:title>Matplotlib v3.7.2, https://matplotlib.org/</dc:title>
     </cc:Agent>
    </dc:creator>
   </cc:Work>
  </rdf:RDF>
 </metadata>
 <defs>
  <style type="text/css">*{stroke-linejoin: round; stroke-linecap: butt}</style>
 </defs>
 <g id="figure_1">
  <g id="patch_1">
   <path d="M 0 583.92 
L 518.4 583.92 
L 518.4 0 
L 0 0 
z
" style="fill: #ffffff"/>
  </g>
  <g id="axes_1">
   <g id="patch_2">
    <path d="M 64.8 519.6888 
L 466.56 519.6888 
L 466.56 70.0704 
L 64.8 70.0704 
z
" style="fill: #ffffff"/>
   </g>
   <g id="matplotlib.axis_1">
    <g id="xtick_1">
     <g id="line2d_1">
      <defs>
       <path id="m1638bc7700" d="M 0 0 
L 0 3.5 
" style="stroke: #000000; stroke-width: 0.8"/>
      </defs>
      <g>
       <use xlink:href="#m1638bc7700" x="64.8" y="519.6888" style="stroke: #000000; stroke-width: 0.8"/>
      </g>
     </g>
     <g id="text_1">
      <!-- 0 -->
      <g transform="translate(61.61875 534.287237) scale(0.1 -0.1)">
       <defs>
        <path id="DejaVuSans-30" d="M 2034 4250 
Q 1547 4250 1301 3770 
Q 1056 3291 1056 2328 
Q 1056 1369 1301 889 
Q 1547 409 2034 409 
Q 2525 409 2770 889 
Q 3016 1369 3016 2328 
Q 3016 3291 2770 3770 
Q 2525 4250 2034 4250 
z
M 2034 4750 
Q 2819 4750 3233 4129 
Q 3647 3509 3647 2328 
Q 3647 1150 3233 529 
Q 2819 -91 2034 -91 
Q 1250 -91 836 529 
Q 422 1150 422 2328 
Q 422 3509 836 4129 
Q 1250 4750 2034 4750 
z
" transform="scale(0.015625)"/>
       </defs>
       <use xlink:href="#DejaVuSans-30"/>
      </g>
     </g>
    </g>
    <g id="xtick_2">
     <g id="line2d_2">
      <g>
       <use xlink:href="#m1638bc7700" x="143.576471" y="519.6888" style="stroke: #000000; stroke-width: 0.8"/>
      </g>
     </g>
     <g id="text_2">
      <!-- 50 -->
      <g transform="translate(137.213971 534.287237) scale(0.1 -0.1)">
       <defs>
        <path id="DejaVuSans-35" d="M 691 4666 
L 3169 4666 
L 3169 4134 
L 1269 4134 
L 1269 2991 
Q 1406 3038 1543 3061 
Q 1681 3084 1819 3084 
Q 2600 3084 3056 2656 
Q 3513 2228 3513 1497 
Q 3513 744 3044 326 
Q 2575 -91 1722 -91 
Q 1428 -91 1123 -41 
Q 819 9 494 109 
L 494 744 
Q 775 591 1075 516 
Q 1375 441 1709 441 
Q 2250 441 2565 725 
Q 2881 1009 2881 1497 
Q 2881 1984 2565 2268 
Q 2250 2553 1709 2553 
Q 1456 2553 1204 2497 
Q 953 2441 691 2322 
L 691 4666 
z
" transform="scale(0.015625)"/>
       </defs>
       <use xlink:href="#DejaVuSans-35"/>
       <use xlink:href="#DejaVuSans-30" x="63.623047"/>
      </g>
     </g>
    </g>
    <g id="xtick_3">
     <g id="line2d_3">
      <g>
       <use xlink:href="#m1638bc7700" x="222.352941" y="519.6888" style="stroke: #000000; stroke-width: 0.8"/>
      </g>
     </g>
     <g id="text_3">
      <!-- 100 -->
      <g transform="translate(212.809191 534.287237) scale(0.1 -0.1)">
       <defs>
        <path id="DejaVuSans-31" d="M 794 531 
L 1825 531 
L 1825 4091 
L 703 3866 
L 703 4441 
L 1819 4666 
L 2450 4666 
L 2450 531 
L 3481 531 
L 3481 0 
L 794 0 
L 794 531 
z
" transform="scale(0.015625)"/>
       </defs>
       <use xlink:href="#DejaVuSans-31"/>
       <use xlink:href="#DejaVuSans-30" x="63.623047"/>
       <use xlink:href="#DejaVuSans-30" x="127.246094"/>
      </g>
     </g>
    </g>
    <g id="xtick_4">
     <g id="line2d_4">
      <g>
       <use xlink:href="#m1638bc7700" x="301.129412" y="519.6888" style="stroke: #000000; stroke-width: 0.8"/>
      </g>
     </g>
     <g id="text_4">
      <!-- 150 -->
      <g transform="translate(291.585662 534.287237) scale(0.1 -0.1)">
       <use xlink:href="#DejaVuSans-31"/>
       <use xlink:href="#DejaVuSans-35" x="63.623047"/>
       <use xlink:href="#DejaVuSans-30" x="127.246094"/>
      </g>
     </g>
    </g>
    <g id="xtick_5">
     <g id="line2d_5">
      <g>
       <use xlink:href="#m1638bc7700" x="379.905882" y="519.6888" style="stroke: #000000; stroke-width: 0.8"/>
      </g>
     </g>
     <g id="text_5">
      <!-- 200 -->
      <g transform="translate(370.362132 534.287237) scale(0.1 -0.1)">
       <defs>
        <path id="DejaVuSans-32" d="M 1228 531 
L 3431 531 
L 3431 0 
L 469 0 
L 469 531 
Q 828 903 1448 1529 
Q 2069 2156 2228 2338 
Q 2531 2678 2651 2914 
Q 2772 3150 2772 3378 
Q 2772 3750 2511 3984 
Q 2250 4219 1831 4219 
Q 1534 4219 1204 4116 
Q 875 4013 500 3803 
L 500 4441 
Q 881 4594 1212 4672 
Q 1544 4750 1819 4750 
Q 2544 4750 2975 4387 
Q 3406 4025 3406 3419 
Q 3406 3131 3298 2873 
Q 3191 2616 2906 2266 
Q 2828 2175 2409 1742 
Q 1991 1309 1228 531 
z
" transform="scale(0.015625)"/>
       </defs>
       <use xlink:href="#DejaVuSans-32"/>
       <use xlink:href="#DejaVuSans-30" x="63.623047"/>
       <use xlink:href="#DejaVuSans-30" x="127.246094"/>
      </g>
     </g>
    </g>
    <g id="xtick_6">
     <g id="line2d_6">
      <g>
       <use xlink:href="#m1638bc7700" x="458.682353" y="519.6888" style="stroke: #000000; stroke-width: 0.8"/>
      </g>
     </g>
     <g id="text_6">
      <!-- 250 -->
      <g transform="translate(449.138603 534.287237) scale(0.1 -0.1)">
       <use xlink:href="#DejaVuSans-32"/>
       <use xlink:href="#DejaVuSans-35" x="63.623047"/>
       <use xlink:href="#DejaVuSans-30" x="127.246094"/>
      </g>
     </g>
    </g>
    <g id="text_7">
     <!-- Generated 8-bit Number -->
     <g transform="translate(204.380781 547.965362) scale(0.1 -0.1)">
      <defs>
       <path id="DejaVuSans-47" d="M 3809 666 
L 3809 1919 
L 2778 1919 
L 2778 2438 
L 4434 2438 
L 4434 434 
Q 4069 175 3628 42 
Q 3188 -91 2688 -91 
Q 1594 -91 976 548 
Q 359 1188 359 2328 
Q 359 3472 976 4111 
Q 1594 4750 2688 4750 
Q 3144 4750 3555 4637 
Q 3966 4525 4313 4306 
L 4313 3634 
Q 3963 3931 3569 4081 
Q 3175 4231 2741 4231 
Q 1884 4231 1454 3753 
Q 1025 3275 1025 2328 
Q 1025 1384 1454 906 
Q 1884 428 2741 428 
Q 3075 428 3337 486 
Q 3600 544 3809 666 
z
" transform="scale(0.015625)"/>
       <path id="DejaVuSans-65" d="M 3597 1894 
L 3597 1613 
L 953 1613 
Q 991 1019 1311 708 
Q 1631 397 2203 397 
Q 2534 397 2845 478 
Q 3156 559 3463 722 
L 3463 178 
Q 3153 47 2828 -22 
Q 2503 -91 2169 -91 
Q 1331 -91 842 396 
Q 353 884 353 1716 
Q 353 2575 817 3079 
Q 1281 3584 2069 3584 
Q 2775 3584 3186 3129 
Q 3597 2675 3597 1894 
z
M 3022 2063 
Q 3016 2534 2758 2815 
Q 2500 3097 2075 3097 
Q 1594 3097 1305 2825 
Q 1016 2553 972 2059 
L 3022 2063 
z
" transform="scale(0.015625)"/>
       <path id="DejaVuSans-6e" d="M 3513 2113 
L 3513 0 
L 2938 0 
L 2938 2094 
Q 2938 2591 2744 2837 
Q 2550 3084 2163 3084 
Q 1697 3084 1428 2787 
Q 1159 2491 1159 1978 
L 1159 0 
L 581 0 
L 581 3500 
L 1159 3500 
L 1159 2956 
Q 1366 3272 1645 3428 
Q 1925 3584 2291 3584 
Q 2894 3584 3203 3211 
Q 3513 2838 3513 2113 
z
" transform="scale(0.015625)"/>
       <path id="DejaVuSans-72" d="M 2631 2963 
Q 2534 3019 2420 3045 
Q 2306 3072 2169 3072 
Q 1681 3072 1420 2755 
Q 1159 2438 1159 1844 
L 1159 0 
L 581 0 
L 581 3500 
L 1159 3500 
L 1159 2956 
Q 1341 3275 1631 3429 
Q 1922 3584 2338 3584 
Q 2397 3584 2469 3576 
Q 2541 3569 2628 3553 
L 2631 2963 
z
" transform="scale(0.015625)"/>
       <path id="DejaVuSans-61" d="M 2194 1759 
Q 1497 1759 1228 1600 
Q 959 1441 959 1056 
Q 959 750 1161 570 
Q 1363 391 1709 391 
Q 2188 391 2477 730 
Q 2766 1069 2766 1631 
L 2766 1759 
L 2194 1759 
z
M 3341 1997 
L 3341 0 
L 2766 0 
L 2766 531 
Q 2569 213 2275 61 
Q 1981 -91 1556 -91 
Q 1019 -91 701 211 
Q 384 513 384 1019 
Q 384 1609 779 1909 
Q 1175 2209 1959 2209 
L 2766 2209 
L 2766 2266 
Q 2766 2663 2505 2880 
Q 2244 3097 1772 3097 
Q 1472 3097 1187 3025 
Q 903 2953 641 2809 
L 641 3341 
Q 956 3463 1253 3523 
Q 1550 3584 1831 3584 
Q 2591 3584 2966 3190 
Q 3341 2797 3341 1997 
z
" transform="scale(0.015625)"/>
       <path id="DejaVuSans-74" d="M 1172 4494 
L 1172 3500 
L 2356 3500 
L 2356 3053 
L 1172 3053 
L 1172 1153 
Q 1172 725 1289 603 
Q 1406 481 1766 481 
L 2356 481 
L 2356 0 
L 1766 0 
Q 1100 0 847 248 
Q 594 497 594 1153 
L 594 3053 
L 172 3053 
L 172 3500 
L 594 3500 
L 594 4494 
L 1172 4494 
z
" transform="scale(0.015625)"/>
       <path id="DejaVuSans-64" d="M 2906 2969 
L 2906 4863 
L 3481 4863 
L 3481 0 
L 2906 0 
L 2906 525 
Q 2725 213 2448 61 
Q 2172 -91 1784 -91 
Q 1150 -91 751 415 
Q 353 922 353 1747 
Q 353 2572 751 3078 
Q 1150 3584 1784 3584 
Q 2172 3584 2448 3432 
Q 2725 3281 2906 2969 
z
M 947 1747 
Q 947 1113 1208 752 
Q 1469 391 1925 391 
Q 2381 391 2643 752 
Q 2906 1113 2906 1747 
Q 2906 2381 2643 2742 
Q 2381 3103 1925 3103 
Q 1469 3103 1208 2742 
Q 947 2381 947 1747 
z
" transform="scale(0.015625)"/>
       <path id="DejaVuSans-20" transform="scale(0.015625)"/>
       <path id="DejaVuSans-38" d="M 2034 2216 
Q 1584 2216 1326 1975 
Q 1069 1734 1069 1313 
Q 1069 891 1326 650 
Q 1584 409 2034 409 
Q 2484 409 2743 651 
Q 3003 894 3003 1313 
Q 3003 1734 2745 1975 
Q 2488 2216 2034 2216 
z
M 1403 2484 
Q 997 2584 770 2862 
Q 544 3141 544 3541 
Q 544 4100 942 4425 
Q 1341 4750 2034 4750 
Q 2731 4750 3128 4425 
Q 3525 4100 3525 3541 
Q 3525 3141 3298 2862 
Q 3072 2584 2669 2484 
Q 3125 2378 3379 2068 
Q 3634 1759 3634 1313 
Q 3634 634 3220 271 
Q 2806 -91 2034 -91 
Q 1263 -91 848 271 
Q 434 634 434 1313 
Q 434 1759 690 2068 
Q 947 2378 1403 2484 
z
M 1172 3481 
Q 1172 3119 1398 2916 
Q 1625 2713 2034 2713 
Q 2441 2713 2670 2916 
Q 2900 3119 2900 3481 
Q 2900 3844 2670 4047 
Q 2441 4250 2034 4250 
Q 1625 4250 1398 4047 
Q 1172 3844 1172 3481 
z
" transform="scale(0.015625)"/>
       <path id="DejaVuSans-2d" d="M 313 2009 
L 1997 2009 
L 1997 1497 
L 313 1497 
L 313 2009 
z
" transform="scale(0.015625)"/>
       <path id="DejaVuSans-62" d="M 3116 1747 
Q 3116 2381 2855 2742 
Q 2594 3103 2138 3103 
Q 1681 3103 1420 2742 
Q 1159 2381 1159 1747 
Q 1159 1113 1420 752 
Q 1681 391 2138 391 
Q 2594 391 2855 752 
Q 3116 1113 3116 1747 
z
M 1159 2969 
Q 1341 3281 1617 3432 
Q 1894 3584 2278 3584 
Q 2916 3584 3314 3078 
Q 3713 2572 3713 1747 
Q 3713 922 3314 415 
Q 2916 -91 2278 -91 
Q 1894 -91 1617 61 
Q 1341 213 1159 525 
L 1159 0 
L 581 0 
L 581 4863 
L 1159 4863 
L 1159 2969 
z
" transform="scale(0.015625)"/>
       <path id="DejaVuSans-69" d="M 603 3500 
L 1178 3500 
L 1178 0 
L 603 0 
L 603 3500 
z
M 603 4863 
L 1178 4863 
L 1178 4134 
L 603 4134 
L 603 4863 
z
" transform="scale(0.015625)"/>
       <path id="DejaVuSans-4e" d="M 628 4666 
L 1478 4666 
L 3547 763 
L 3547 4666 
L 4159 4666 
L 4159 0 
L 3309 0 
L 1241 3903 
L 1241 0 
L 628 0 
L 628 4666 
z
" transform="scale(0.015625)"/>
       <path id="DejaVuSans-75" d="M 544 1381 
L 544 3500 
L 1119 3500 
L 1119 1403 
Q 1119 906 1312 657 
Q 1506 409 1894 409 
Q 2359 409 2629 706 
Q 2900 1003 2900 1516 
L 2900 3500 
L 3475 3500 
L 3475 0 
L 2900 0 
L 2900 538 
Q 2691 219 2414 64 
Q 2138 -91 1772 -91 
Q 1169 -91 856 284 
Q 544 659 544 1381 
z
M 1991 3584 
L 1991 3584 
z
" transform="scale(0.015625)"/>
       <path id="DejaVuSans-6d" d="M 3328 2828 
Q 3544 3216 3844 3400 
Q 4144 3584 4550 3584 
Q 5097 3584 5394 3201 
Q 5691 2819 5691 2113 
L 5691 0 
L 5113 0 
L 5113 2094 
Q 5113 2597 4934 2840 
Q 4756 3084 4391 3084 
Q 3944 3084 3684 2787 
Q 3425 2491 3425 1978 
L 3425 0 
L 2847 0 
L 2847 2094 
Q 2847 2600 2669 2842 
Q 2491 3084 2119 3084 
Q 1678 3084 1418 2786 
Q 1159 2488 1159 1978 
L 1159 0 
L 581 0 
L 581 3500 
L 1159 3500 
L 1159 2956 
Q 1356 3278 1631 3431 
Q 1906 3584 2284 3584 
Q 2666 3584 2933 3390 
Q 3200 3197 3328 2828 
z
" transform="scale(0.015625)"/>
      </defs>
      <use xlink:href="#DejaVuSans-47"/>
      <use xlink:href="#DejaVuSans-65" x="77.490234"/>
      <use xlink:href="#DejaVuSans-6e" x="139.013672"/>
      <use xlink:href="#DejaVuSans-65" x="202.392578"/>
      <use xlink:href="#DejaVuSans-72" x="263.916016"/>
      <use xlink:href="#DejaVuSans-61" x="305.029297"/>
      <use xlink:href="#DejaVuSans-74" x="366.308594"/>
      <use xlink:href="#DejaVuSans-65" x="405.517578"/>
      <use xlink:href="#DejaVuSans-64" x="467.041016"/>
      <use xlink:href="#DejaVuSans-20" x="530.517578"/>
      <use xlink:href="#DejaVuSans-38" x="562.304688"/>
      <use xlink:href="#DejaVuSans-2d" x="625.927734"/>
      <use xlink:href="#DejaVuSans-62" x="662.011719"/>
      <use xlink:href="#DejaVuSans-69" x="725.488281"/>
      <use xlink:href="#DejaVuSans-74" x="753.271484"/>
      <use xlink:href="#DejaVuSans-20" x="792.480469"/>
      <use xlink:href="#DejaVuSans-4e" x="824.267578"/>
      <use xlink:href="#DejaVuSans-75" x="899.072266"/>
      <use xlink:href="#DejaVuSans-6d" x="962.451172"/>
      <use xlink:href="#DejaVuSans-62" x="1059.863281"/>
      <use xlink:href="#DejaVuSans-65" x="1123.339844"/>
      <use xlink:href="#DejaVuSans-72" x="1184.863281"/>
     </g>
    </g>
   </g>
   <g id="matplotlib.axis_2">
    <g id="ytick_1">
     <g id="line2d_7">
      <defs>
       <path id="m38354ba6aa" d="M 0 0 
L -3.5 0 
" style="stroke: #000000; stroke-width: 0.8"/>
      </defs>
      <g>
       <use xlink:href="#m38354ba6aa" x="64.8" y="519.6888" style="stroke: #000000; stroke-width: 0.8"/>
      </g>
     </g>
     <g id="text_8">
      <!-- 0.001 -->
      <g transform="translate(29.171875 523.488019) scale(0.1 -0.1)">
       <defs>
        <path id="DejaVuSans-2e" d="M 684 794 
L 1344 794 
L 1344 0 
L 684 0 
L 684 794 
z
" transform="scale(0.015625)"/>
       </defs>
       <use xlink:href="#DejaVuSans-30"/>
       <use xlink:href="#DejaVuSans-2e" x="63.623047"/>
       <use xlink:href="#DejaVuSans-30" x="95.410156"/>
       <use xlink:href="#DejaVuSans-30" x="159.033203"/>
       <use xlink:href="#DejaVuSans-31" x="222.65625"/>
      </g>
     </g>
    </g>
    <g id="ytick_2">
     <g id="line2d_8">
      <g>
       <use xlink:href="#m38354ba6aa" x="64.8" y="463.4865" style="stroke: #000000; stroke-width: 0.8"/>
      </g>
     </g>
     <g id="text_9">
      <!-- 0.002 -->
      <g transform="translate(29.171875 467.285719) scale(0.1 -0.1)">
       <use xlink:href="#DejaVuSans-30"/>
       <use xlink:href="#DejaVuSans-2e" x="63.623047"/>
       <use xlink:href="#DejaVuSans-30" x="95.410156"/>
       <use xlink:href="#DejaVuSans-30" x="159.033203"/>
       <use xlink:href="#DejaVuSans-32" x="222.65625"/>
      </g>
     </g>
    </g>
    <g id="ytick_3">
     <g id="line2d_9">
      <g>
       <use xlink:href="#m38354ba6aa" x="64.8" y="407.2842" style="stroke: #000000; stroke-width: 0.8"/>
      </g>
     </g>
     <g id="text_10">
      <!-- 0.003 -->
      <g transform="translate(29.171875 411.083419) scale(0.1 -0.1)">
       <defs>
        <path id="DejaVuSans-33" d="M 2597 2516 
Q 3050 2419 3304 2112 
Q 3559 1806 3559 1356 
Q 3559 666 3084 287 
Q 2609 -91 1734 -91 
Q 1441 -91 1130 -33 
Q 819 25 488 141 
L 488 750 
Q 750 597 1062 519 
Q 1375 441 1716 441 
Q 2309 441 2620 675 
Q 2931 909 2931 1356 
Q 2931 1769 2642 2001 
Q 2353 2234 1838 2234 
L 1294 2234 
L 1294 2753 
L 1863 2753 
Q 2328 2753 2575 2939 
Q 2822 3125 2822 3475 
Q 2822 3834 2567 4026 
Q 2313 4219 1838 4219 
Q 1578 4219 1281 4162 
Q 984 4106 628 3988 
L 628 4550 
Q 988 4650 1302 4700 
Q 1616 4750 1894 4750 
Q 2613 4750 3031 4423 
Q 3450 4097 3450 3541 
Q 3450 3153 3228 2886 
Q 3006 2619 2597 2516 
z
" transform="scale(0.015625)"/>
       </defs>
       <use xlink:href="#DejaVuSans-30"/>
       <use xlink:href="#DejaVuSans-2e" x="63.623047"/>
       <use xlink:href="#DejaVuSans-30" x="95.410156"/>
       <use xlink:href="#DejaVuSans-30" x="159.033203"/>
       <use xlink:href="#DejaVuSans-33" x="222.65625"/>
      </g>
     </g>
    </g>
    <g id="ytick_4">
     <g id="line2d_10">
      <g>
       <use xlink:href="#m38354ba6aa" x="64.8" y="351.0819" style="stroke: #000000; stroke-width: 0.8"/>
      </g>
     </g>
     <g id="text_11">
      <!-- 0.004 -->
      <g transform="translate(29.171875 354.881119) scale(0.1 -0.1)">
       <defs>
        <path id="DejaVuSans-34" d="M 2419 4116 
L 825 1625 
L 2419 1625 
L 2419 4116 
z
M 2253 4666 
L 3047 4666 
L 3047 1625 
L 3713 1625 
L 3713 1100 
L 3047 1100 
L 3047 0 
L 2419 0 
L 2419 1100 
L 313 1100 
L 313 1709 
L 2253 4666 
z
" transform="scale(0.015625)"/>
       </defs>
       <use xlink:href="#DejaVuSans-30"/>
       <use xlink:href="#DejaVuSans-2e" x="63.623047"/>
       <use xlink:href="#DejaVuSans-30" x="95.410156"/>
       <use xlink:href="#DejaVuSans-30" x="159.033203"/>
       <use xlink:href="#DejaVuSans-34" x="222.65625"/>
      </g>
     </g>
    </g>
    <g id="ytick_5">
     <g id="line2d_11">
      <g>
       <use xlink:href="#m38354ba6aa" x="64.8" y="294.8796" style="stroke: #000000; stroke-width: 0.8"/>
      </g>
     </g>
     <g id="text_12">
      <!-- 0.005 -->
      <g transform="translate(29.171875 298.678819) scale(0.1 -0.1)">
       <use xlink:href="#DejaVuSans-30"/>
       <use xlink:href="#DejaVuSans-2e" x="63.623047"/>
       <use xlink:href="#DejaVuSans-30" x="95.410156"/>
       <use xlink:href="#DejaVuSans-30" x="159.033203"/>
       <use xlink:href="#DejaVuSans-35" x="222.65625"/>
      </g>
     </g>
    </g>
    <g id="ytick_6">
     <g id="line2d_12">
      <g>
       <use xlink:href="#m38354ba6aa" x="64.8" y="238.6773" style="stroke: #000000; stroke-width: 0.8"/>
      </g>
     </g>
     <g id="text_13">
      <!-- 0.006 -->
      <g transform="translate(29.171875 242.476519) scale(0.1 -0.1)">
       <defs>
        <path id="DejaVuSans-36" d="M 2113 2584 
Q 1688 2584 1439 2293 
Q 1191 2003 1191 1497 
Q 1191 994 1439 701 
Q 1688 409 2113 409 
Q 2538 409 2786 701 
Q 3034 994 3034 1497 
Q 3034 2003 2786 2293 
Q 2538 2584 2113 2584 
z
M 3366 4563 
L 3366 3988 
Q 3128 4100 2886 4159 
Q 2644 4219 2406 4219 
Q 1781 4219 1451 3797 
Q 1122 3375 1075 2522 
Q 1259 2794 1537 2939 
Q 1816 3084 2150 3084 
Q 2853 3084 3261 2657 
Q 3669 2231 3669 1497 
Q 3669 778 3244 343 
Q 2819 -91 2113 -91 
Q 1303 -91 875 529 
Q 447 1150 447 2328 
Q 447 3434 972 4092 
Q 1497 4750 2381 4750 
Q 2619 4750 2861 4703 
Q 3103 4656 3366 4563 
z
" transform="scale(0.015625)"/>
       </defs>
       <use xlink:href="#DejaVuSans-30"/>
       <use xlink:href="#DejaVuSans-2e" x="63.623047"/>
       <use xlink:href="#DejaVuSans-30" x="95.410156"/>
       <use xlink:href="#DejaVuSans-30" x="159.033203"/>
       <use xlink:href="#DejaVuSans-36" x="222.65625"/>
      </g>
     </g>
    </g>
    <g id="ytick_7">
     <g id="line2d_13">
      <g>
       <use xlink:href="#m38354ba6aa" x="64.8" y="182.475" style="stroke: #000000; stroke-width: 0.8"/>
      </g>
     </g>
     <g id="text_14">
      <!-- 0.007 -->
      <g transform="translate(29.171875 186.274219) scale(0.1 -0.1)">
       <defs>
        <path id="DejaVuSans-37" d="M 525 4666 
L 3525 4666 
L 3525 4397 
L 1831 0 
L 1172 0 
L 2766 4134 
L 525 4134 
L 525 4666 
z
" transform="scale(0.015625)"/>
       </defs>
       <use xlink:href="#DejaVuSans-30"/>
       <use xlink:href="#DejaVuSans-2e" x="63.623047"/>
       <use xlink:href="#DejaVuSans-30" x="95.410156"/>
       <use xlink:href="#DejaVuSans-30" x="159.033203"/>
       <use xlink:href="#DejaVuSans-37" x="222.65625"/>
      </g>
     </g>
    </g>
    <g id="ytick_8">
     <g id="line2d_14">
      <g>
       <use xlink:href="#m38354ba6aa" x="64.8" y="126.2727" style="stroke: #000000; stroke-width: 0.8"/>
      </g>
     </g>
     <g id="text_15">
      <!-- 0.008 -->
      <g transform="translate(29.171875 130.071919) scale(0.1 -0.1)">
       <use xlink:href="#DejaVuSans-30"/>
       <use xlink:href="#DejaVuSans-2e" x="63.623047"/>
       <use xlink:href="#DejaVuSans-30" x="95.410156"/>
       <use xlink:href="#DejaVuSans-30" x="159.033203"/>
       <use xlink:href="#DejaVuSans-38" x="222.65625"/>
      </g>
     </g>
    </g>
    <g id="ytick_9">
     <g id="line2d_15">
      <g>
       <use xlink:href="#m38354ba6aa" x="64.8" y="70.0704" style="stroke: #000000; stroke-width: 0.8"/>
      </g>
     </g>
     <g id="text_16">
      <!-- 0.009 -->
      <g transform="translate(29.171875 73.869619) scale(0.1 -0.1)">
       <defs>
        <path id="DejaVuSans-39" d="M 703 97 
L 703 672 
Q 941 559 1184 500 
Q 1428 441 1663 441 
Q 2288 441 2617 861 
Q 2947 1281 2994 2138 
Q 2813 1869 2534 1725 
Q 2256 1581 1919 1581 
Q 1219 1581 811 2004 
Q 403 2428 403 3163 
Q 403 3881 828 4315 
Q 1253 4750 1959 4750 
Q 2769 4750 3195 4129 
Q 3622 3509 3622 2328 
Q 3622 1225 3098 567 
Q 2575 -91 1691 -91 
Q 1453 -91 1209 -44 
Q 966 3 703 97 
z
M 1959 2075 
Q 2384 2075 2632 2365 
Q 2881 2656 2881 3163 
Q 2881 3666 2632 3958 
Q 2384 4250 1959 4250 
Q 1534 4250 1286 3958 
Q 1038 3666 1038 3163 
Q 1038 2656 1286 2365 
Q 1534 2075 1959 2075 
z
" transform="scale(0.015625)"/>
       </defs>
       <use xlink:href="#DejaVuSans-30"/>
       <use xlink:href="#DejaVuSans-2e" x="63.623047"/>
       <use xlink:href="#DejaVuSans-30" x="95.410156"/>
       <use xlink:href="#DejaVuSans-30" x="159.033203"/>
       <use xlink:href="#DejaVuSans-39" x="222.65625"/>
      </g>
     </g>
    </g>
    <g id="text_17">
     <!-- p -->
     <g transform="translate(23.092187 298.053819) rotate(-90) scale(0.1 -0.1)">
      <defs>
       <path id="DejaVuSans-70" d="M 1159 525 
L 1159 -1331 
L 581 -1331 
L 581 3500 
L 1159 3500 
L 1159 2969 
Q 1341 3281 1617 3432 
Q 1894 3584 2278 3584 
Q 2916 3584 3314 3078 
Q 3713 2572 3713 1747 
Q 3713 922 3314 415 
Q 2916 -91 2278 -91 
Q 1894 -91 1617 61 
Q 1341 213 1159 525 
z
M 3116 1747 
Q 3116 2381 2855 2742 
Q 2594 3103 2138 3103 
Q 1681 3103 1420 2742 
Q 1159 2381 1159 1747 
Q 1159 1113 1420 752 
Q 1681 391 2138 391 
Q 2594 391 2855 752 
Q 3116 1113 3116 1747 
z
" transform="scale(0.015625)"/>
      </defs>
      <use xlink:href="#DejaVuSans-70"/>
     </g>
    </g>
   </g>
   <g id="line2d_16">
    <path d="M 64.8 396.605763 
L 66.375529 368.504613 
L 67.951059 357.826176 
L 69.526588 373.000797 
L 71.102118 379.745073 
L 72.677647 369.628659 
L 74.253176 375.248889 
L 75.828706 363.446406 
L 77.404235 369.628659 
L 78.979765 366.818544 
L 80.555294 371.314728 
L 82.130824 342.089532 
L 83.706353 381.993165 
L 85.281882 354.454038 
L 86.857412 349.395831 
L 88.432941 344.899647 
L 90.008471 368.504613 
L 91.584 360.074268 
L 93.159529 378.621027 
L 94.735059 375.810912 
L 96.310588 367.380567 
L 97.886118 367.94259 
L 99.461647 349.957854 
L 101.037176 376.372935 
L 102.612706 375.248889 
L 104.188235 362.32236 
L 107.339294 366.818544 
L 108.914824 357.826176 
L 110.490353 344.337624 
L 112.065882 344.899647 
L 113.641412 338.717394 
L 115.216941 366.256521 
L 116.792471 376.934958 
L 118.368 377.496981 
L 119.943529 361.198314 
L 121.519059 355.578084 
L 123.094588 360.636291 
L 124.670118 362.884383 
L 126.245647 354.454038 
L 127.821176 371.876751 
L 129.396706 355.578084 
L 130.972235 370.190682 
L 132.547765 358.388199 
L 134.123294 366.818544 
L 135.698824 357.264153 
L 137.274353 352.767969 
L 138.849882 344.337624 
L 140.425412 379.18305 
L 142.000941 355.016061 
L 143.576471 378.059004 
L 145.152 357.264153 
L 146.727529 360.636291 
L 148.303059 367.380567 
L 149.878588 362.32236 
L 151.454118 353.329992 
L 153.029647 363.446406 
L 154.605176 339.84144 
L 156.180706 360.636291 
L 157.756235 323.542773 
L 159.331765 362.884383 
L 160.907294 351.643923 
L 162.482824 352.205946 
L 164.058353 338.155371 
L 165.633882 379.18305 
L 167.209412 359.512245 
L 170.360471 366.256521 
L 171.936 362.884383 
L 173.511529 353.892015 
L 175.087059 353.329992 
L 176.662588 365.694498 
L 178.238118 364.008429 
L 179.813647 379.745073 
L 181.389176 366.818544 
L 182.964706 352.205946 
L 184.540235 353.329992 
L 186.115765 375.248889 
L 187.691294 368.504613 
L 189.266824 330.849072 
L 190.842353 360.074268 
L 192.417882 370.190682 
L 193.993412 368.504613 
L 195.568941 330.849072 
L 197.144471 364.570452 
L 198.72 335.907279 
L 200.295529 357.826176 
L 201.871059 357.826176 
L 203.446588 370.752705 
L 205.022118 358.388199 
L 206.597647 360.636291 
L 208.173176 349.395831 
L 209.748706 349.395831 
L 211.324235 349.957854 
L 212.899765 348.271785 
L 214.475294 339.279417 
L 216.050824 365.694498 
L 217.626353 363.446406 
L 219.201882 350.519877 
L 220.777412 367.94259 
L 222.352941 362.32236 
L 223.928471 346.023693 
L 225.504 339.279417 
L 227.079529 357.826176 
L 228.655059 364.570452 
L 230.230588 358.388199 
L 231.806118 351.0819 
L 233.381647 348.271785 
L 234.957176 357.826176 
L 236.532706 342.089532 
L 238.108235 347.709762 
L 239.683765 331.411095 
L 241.259294 376.372935 
L 242.834824 354.454038 
L 244.410353 353.892015 
L 245.985882 348.833808 
L 247.561412 360.074268 
L 249.136941 341.527509 
L 250.712471 366.256521 
L 252.288 352.767969 
L 255.439059 362.884383 
L 257.014588 328.038957 
L 258.590118 360.074268 
L 260.165647 325.790865 
L 261.741176 356.140107 
L 263.316706 357.264153 
L 264.892235 342.089532 
L 266.467765 389.861487 
L 268.043294 362.884383 
L 269.618824 370.190682 
L 271.194353 348.271785 
L 272.769882 361.198314 
L 274.345412 379.745073 
L 275.920941 380.307096 
L 277.496471 351.643923 
L 279.072 372.438774 
L 280.647529 366.256521 
L 282.223059 351.643923 
L 283.798588 346.023693 
L 285.374118 370.752705 
L 286.949647 344.899647 
L 288.525176 365.694498 
L 290.100706 359.512245 
L 291.676235 367.380567 
L 293.251765 356.140107 
L 294.827294 369.066636 
L 296.402824 351.0819 
L 297.978353 372.438774 
L 299.553882 351.0819 
L 301.129412 353.892015 
L 302.704941 369.628659 
L 304.280471 343.775601 
L 305.856 342.651555 
L 307.431529 351.0819 
L 309.007059 343.775601 
L 310.582588 385.927326 
L 312.158118 342.089532 
L 313.733647 331.411095 
L 315.309176 344.899647 
L 316.884706 370.752705 
L 318.460235 379.745073 
L 320.035765 365.132475 
L 321.611294 352.205946 
L 323.186824 369.066636 
L 324.762353 340.403463 
L 326.337882 347.147739 
L 327.913412 330.849072 
L 329.488941 366.818544 
L 331.064471 354.454038 
L 332.64 353.329992 
L 334.215529 375.248889 
L 335.791059 344.899647 
L 337.366588 349.395831 
L 338.942118 339.84144 
L 340.517647 339.279417 
L 342.093176 369.628659 
L 343.668706 370.190682 
L 345.244235 355.578084 
L 346.819765 351.643923 
L 348.395294 375.248889 
L 349.970824 348.833808 
L 351.546353 356.70213 
L 353.121882 353.329992 
L 354.697412 357.264153 
L 356.272941 365.694498 
L 357.848471 359.512245 
L 359.424 352.767969 
L 360.999529 340.965486 
L 362.575059 356.70213 
L 364.150588 345.46167 
L 365.726118 331.973118 
L 367.301647 377.496981 
L 368.877176 361.760337 
L 370.452706 371.876751 
L 372.028235 366.256521 
L 373.603765 345.46167 
L 375.179294 354.454038 
L 376.754824 361.198314 
L 378.330353 343.775601 
L 379.905882 359.512245 
L 381.481412 348.833808 
L 383.056941 365.694498 
L 384.632471 342.651555 
L 386.208 369.628659 
L 387.783529 365.694498 
L 389.359059 352.205946 
L 390.934588 349.395831 
L 392.510118 351.0819 
L 394.085647 348.833808 
L 395.661176 357.264153 
L 397.236706 352.205946 
L 398.812235 356.70213 
L 400.387765 337.031325 
L 401.963294 340.403463 
L 403.538824 353.892015 
L 405.114353 352.767969 
L 406.689882 370.190682 
L 408.265412 346.585716 
L 409.840941 347.147739 
L 411.416471 333.659187 
L 412.992 335.345256 
L 414.567529 344.899647 
L 416.143059 338.155371 
L 417.718588 330.849072 
L 419.294118 359.512245 
L 420.869647 335.907279 
L 422.445176 360.074268 
L 424.020706 360.074268 
L 425.596235 359.512245 
L 427.171765 362.32236 
L 428.747294 365.694498 
L 430.322824 349.395831 
L 431.898353 346.585716 
L 433.473882 352.205946 
L 435.049412 346.023693 
L 436.624941 352.205946 
L 438.200471 330.849072 
L 439.776 360.074268 
L 441.351529 331.973118 
L 442.927059 358.950222 
L 444.502588 343.775601 
L 446.078118 344.899647 
L 447.653647 325.228842 
L 449.229176 355.016061 
L 450.804706 347.709762 
L 452.380235 361.198314 
L 453.955765 355.578084 
L 455.531294 353.892015 
L 457.106824 361.760337 
L 458.682353 314.550405 
L 460.257882 353.892015 
L 461.833412 342.089532 
L 463.408941 338.155371 
L 464.984471 339.84144 
L 466.56 329.163003 
L 466.56 329.163003 
" clip-path="url(#pa8cad28552)" style="fill: none; stroke: #000000; stroke-opacity: 0.9; stroke-width: 1.5; stroke-linecap: square"/>
   </g>
   <g id="line2d_17">
    <path d="M 64.8 550.038042 
L 66.375529 538.797582 
L 67.951059 542.16972 
L 69.526588 524.747007 
L 71.102118 543.293766 
L 72.677647 514.630593 
L 74.253176 517.440708 
L 75.828706 478.661121 
L 77.404235 538.235559 
L 78.979765 520.250823 
L 80.555294 519.126777 
L 82.130824 478.099098 
L 83.706353 507.886317 
L 85.281882 467.982684 
L 86.857412 473.040891 
L 88.432941 402.788016 
L 90.008471 537.111513 
L 91.584 510.696432 
L 93.159529 511.258455 
L 94.735059 469.668753 
L 96.310588 520.250823 
L 97.886118 472.478868 
L 99.461647 484.281351 
L 101.037176 414.590499 
L 102.612706 515.754639 
L 104.188235 476.413029 
L 105.763765 467.982684 
L 107.339294 391.547556 
L 108.914824 465.734592 
L 110.490353 406.160154 
L 112.065882 394.919694 
L 113.641412 298.813761 
L 115.216941 537.673536 
L 116.792471 520.812846 
L 118.368 518.564754 
L 119.943529 470.792799 
L 121.519059 516.316662 
L 123.094588 472.478868 
L 124.670118 480.909213 
L 126.245647 392.671602 
L 127.821176 520.250823 
L 129.396706 477.537075 
L 130.972235 474.72696 
L 132.547765 399.977901 
L 134.123294 457.304247 
L 135.698824 402.225993 
L 137.274353 411.780384 
L 138.849882 304.433991 
L 140.425412 511.258455 
L 142.000941 474.164937 
L 143.576471 467.420661 
L 145.152 380.307096 
L 146.727529 473.602914 
L 148.303059 423.020844 
L 149.878588 408.408246 
L 151.454118 276.894864 
L 153.029647 454.494132 
L 154.605176 410.094315 
L 156.180706 392.109579 
L 157.756235 294.317577 
L 159.331765 394.919694 
L 160.907294 294.8796 
L 162.482824 286.449255 
L 164.058353 122.900562 
L 165.633882 535.425444 
L 167.209412 510.696432 
L 168.784941 516.878685 
L 170.360471 476.413029 
L 171.936 507.324294 
L 173.511529 454.494132 
L 175.087059 474.72696 
L 176.662588 414.028476 
L 178.238118 510.134409 
L 179.813647 480.34719 
L 181.389176 464.610546 
L 182.964706 402.225993 
L 184.540235 471.354822 
L 186.115765 419.648706 
L 187.691294 419.086683 
L 189.266824 294.317577 
L 190.842353 509.572386 
L 192.417882 466.858638 
L 193.993412 462.362454 
L 195.568941 399.977901 
L 197.144471 468.544707 
L 198.72 404.474085 
L 200.295529 406.722177 
L 201.871059 292.069485 
L 203.446588 478.099098 
L 205.022118 406.722177 
L 206.597647 391.547556 
L 208.173176 294.8796 
L 209.748706 409.532292 
L 211.324235 289.821393 
L 212.899765 310.054221 
L 214.475294 115.03224 
L 216.050824 521.374869 
L 217.626353 472.478868 
L 219.201882 472.478868 
L 220.777412 396.605763 
L 222.352941 469.10673 
L 223.928471 405.598131 
L 225.504 406.160154 
L 227.079529 301.623876 
L 228.655059 473.602914 
L 230.230588 396.605763 
L 231.806118 401.66397 
L 233.381647 268.464519 
L 234.957176 395.481717 
L 236.532706 286.449255 
L 238.108235 268.464519 
L 239.683765 129.644838 
L 241.259294 467.982684 
L 242.834824 388.175418 
L 244.410353 403.350039 
L 245.985882 310.054221 
L 247.561412 399.415878 
L 249.136941 308.368152 
L 250.712471 288.135324 
L 252.288 103.229757 
L 253.863529 392.109579 
L 255.439059 322.98075 
L 257.014588 282.515094 
L 258.590118 115.03224 
L 260.165647 285.325209 
L 261.741176 114.470217 
L 263.316706 84.120975 
L 263.796829 -1 
M 265.306556 -1 
L 266.467765 543.293766 
L 268.043294 515.192616 
L 269.618824 518.002731 
L 271.194353 483.157305 
L 272.769882 510.134409 
L 274.345412 468.544707 
L 275.920941 465.172569 
L 277.496471 407.846223 
L 279.072 507.886317 
L 280.647529 482.033259 
L 282.223059 476.413029 
L 283.798588 413.466453 
L 285.374118 479.223144 
L 286.949647 393.233625 
L 288.525176 417.962637 
L 290.100706 295.441623 
L 291.676235 516.878685 
L 293.251765 470.230776 
L 294.827294 473.040891 
L 296.402824 400.539924 
L 297.978353 475.288983 
L 299.553882 413.466453 
L 301.129412 401.101947 
L 302.704941 296.003646 
L 304.280471 462.362454 
L 305.856 408.970269 
L 307.431529 411.218361 
L 309.007059 296.003646 
L 310.582588 419.086683 
L 312.158118 292.631508 
L 313.733647 296.003646 
L 315.309176 84.120975 
L 316.884706 519.126777 
L 318.460235 469.10673 
L 320.035765 474.72696 
L 321.611294 412.342407 
L 323.186824 464.048523 
L 324.762353 393.233625 
L 326.337882 403.912062 
L 327.913412 303.871968 
L 329.488941 479.785167 
L 331.064471 411.780384 
L 332.64 402.225993 
L 334.215529 282.515094 
L 335.791059 387.613395 
L 337.366588 315.674451 
L 338.942118 300.49983 
L 340.517647 88.055136 
L 342.093176 476.975052 
L 343.668706 439.319511 
L 345.244235 389.861487 
L 346.819765 270.712611 
L 348.395294 405.598131 
L 349.970824 290.945439 
L 351.546353 298.251738 
L 353.121882 100.981665 
L 354.697412 381.993165 
L 356.272941 290.383416 
L 357.848471 282.515094 
L 359.424 129.082815 
L 360.999529 293.193531 
L 362.575059 93.675366 
L 364.150588 127.958769 
L 364.888369 -1 
M 366.074883 -1 
L 367.301647 514.06857 
L 368.877176 467.420661 
L 370.452706 474.164937 
L 372.028235 412.342407 
L 373.603765 475.288983 
L 375.179294 412.90443 
L 376.754824 397.729809 
L 378.330353 272.39868 
L 379.905882 461.800431 
L 381.481412 394.919694 
L 383.056941 397.729809 
L 384.632471 297.127692 
L 386.208 397.167786 
L 387.783529 296.565669 
L 389.359059 274.084749 
L 390.934588 114.470217 
L 392.510118 453.370086 
L 394.085647 410.094315 
L 395.661176 416.276568 
L 397.236706 276.332841 
L 398.812235 415.152522 
L 400.387765 275.770818 
L 401.963294 290.945439 
L 403.538824 122.338539 
L 405.114353 409.532292 
L 406.689882 270.712611 
L 408.265412 289.25937 
L 409.840941 96.485481 
L 411.416471 316.236474 
L 412.992 81.31086 
L 414.567529 107.163918 
L 415.123893 -1 
M 416.604392 -1 
L 417.718588 477.537075 
L 419.294118 406.722177 
L 420.869647 433.137258 
L 422.445176 293.755554 
L 424.020706 394.357671 
L 425.596235 305.558037 
L 427.171765 296.003646 
L 428.747294 126.2727 
L 430.322824 400.539924 
L 431.898353 299.937807 
L 433.473882 297.127692 
L 435.049412 135.827091 
L 436.624941 294.317577 
L 438.200471 122.900562 
L 439.776 117.842355 
L 440.348428 -1 
M 441.880818 -1 
L 442.927059 410.656338 
L 444.502588 301.623876 
L 446.078118 284.201163 
L 447.653647 110.536056 
L 449.229176 292.069485 
L 450.804706 90.303228 
L 452.380235 90.303228 
L 452.872451 -1 
M 454.590853 -1 
L 455.531294 296.565669 
L 457.106824 94.799412 
L 458.682353 132.454953 
L 459.352813 -1 
M 461.143898 -1 
L 461.833412 139.199229 
L 462.47877 -1 
L 462.47877 -1 
" clip-path="url(#pa8cad28552)" style="fill: none; stroke: #808080; stroke-opacity: 0.5; stroke-width: 1.5; stroke-linecap: square"/>
   </g>
   <g id="line2d_18">
    <path d="M 64.8 410.094315 
L 66.375529 404.474085 
L 67.951059 405.598131 
L 69.526588 407.2842 
L 71.102118 411.218361 
L 72.677647 387.051372 
L 74.253176 393.233625 
L 75.828706 378.621027 
L 77.404235 401.101947 
L 78.979765 376.934958 
L 80.555294 374.124843 
L 82.130824 365.132475 
L 83.706353 393.233625 
L 85.281882 381.431142 
L 86.857412 368.504613 
L 88.432941 357.264153 
L 90.008471 414.590499 
L 91.584 378.621027 
L 93.159529 373.56282 
L 94.735059 381.993165 
L 96.310588 396.605763 
L 97.886118 367.380567 
L 99.461647 372.438774 
L 101.037176 352.205946 
L 102.612706 398.853855 
L 104.188235 388.737441 
L 105.763765 375.810912 
L 107.339294 357.826176 
L 108.914824 378.621027 
L 110.490353 364.570452 
L 112.065882 355.016061 
L 113.641412 343.775601 
L 115.216941 391.547556 
L 116.792471 397.729809 
L 118.368 390.42351 
L 119.943529 369.066636 
L 121.519059 371.876751 
L 123.094588 376.372935 
L 124.670118 378.059004 
L 126.245647 344.899647 
L 127.821176 388.737441 
L 129.396706 368.504613 
L 130.972235 370.190682 
L 132.547765 347.709762 
L 134.123294 376.372935 
L 135.698824 349.395831 
L 137.274353 346.585716 
L 138.849882 325.790865 
L 140.425412 390.42351 
L 142.000941 381.993165 
L 143.576471 395.481717 
L 145.152 350.519877 
L 146.727529 388.737441 
L 148.303059 323.542773 
L 149.878588 354.454038 
L 151.454118 338.717394 
L 153.029647 374.686866 
L 154.605176 348.271785 
L 156.180706 357.264153 
L 157.756235 346.585716 
L 159.331765 360.074268 
L 160.907294 356.140107 
L 162.482824 348.271785 
L 164.058353 308.368152 
L 165.633882 418.52466 
L 167.209412 392.109579 
L 168.784941 397.167786 
L 170.360471 376.372935 
L 171.936 387.613395 
L 173.511529 375.248889 
L 175.087059 364.008429 
L 176.662588 372.438774 
L 178.238118 379.745073 
L 179.813647 355.016061 
L 181.389176 370.190682 
L 182.964706 370.190682 
L 184.540235 383.117211 
L 186.115765 356.140107 
L 187.691294 348.271785 
L 189.266824 324.104796 
L 190.842353 390.985533 
L 192.417882 365.132475 
L 193.993412 371.876751 
L 195.568941 360.636291 
L 197.144471 405.598131 
L 198.72 347.709762 
L 200.295529 367.380567 
L 201.871059 339.84144 
L 203.446588 366.818544 
L 205.022118 350.519877 
L 206.597647 356.70213 
L 208.173176 349.957854 
L 209.748706 362.32236 
L 211.324235 336.469302 
L 212.899765 346.023693 
L 214.475294 294.8796 
L 216.050824 392.671602 
L 217.626353 361.198314 
L 219.201882 366.818544 
L 220.777412 364.570452 
L 222.352941 373.56282 
L 223.928471 365.694498 
L 225.504 354.454038 
L 227.079529 332.535141 
L 228.655059 373.000797 
L 230.230588 360.074268 
L 231.806118 371.314728 
L 233.381647 345.46167 
L 234.957176 362.32236 
L 236.532706 340.965486 
L 238.108235 333.097164 
L 239.683765 308.368152 
L 241.259294 384.80328 
L 242.834824 360.636291 
L 244.410353 385.365303 
L 245.985882 346.023693 
L 247.561412 367.380567 
L 249.136941 335.907279 
L 250.712471 343.213578 
L 252.288 312.864336 
L 253.863529 352.767969 
L 257.014588 337.031325 
L 258.590118 338.155371 
L 260.165647 330.287049 
L 261.741176 315.674451 
L 263.316706 338.717394 
L 264.892235 301.061853 
L 266.467765 403.912062 
L 268.043294 386.489349 
L 269.618824 395.481717 
L 271.194353 370.190682 
L 272.769882 385.927326 
L 274.345412 375.248889 
L 275.920941 370.752705 
L 277.496471 367.94259 
L 279.072 373.56282 
L 280.647529 371.314728 
L 282.223059 388.175418 
L 283.798588 353.329992 
L 285.374118 355.578084 
L 286.949647 330.849072 
L 288.525176 356.140107 
L 290.100706 326.914911 
L 291.676235 405.598131 
L 293.251765 377.496981 
L 294.827294 345.46167 
L 296.402824 365.132475 
L 297.978353 396.605763 
L 299.553882 344.337624 
L 301.129412 359.512245 
L 302.704941 343.775601 
L 304.280471 365.132475 
L 307.431529 349.957854 
L 309.007059 361.198314 
L 310.582588 363.446406 
L 312.158118 353.329992 
L 313.733647 317.922543 
L 315.309176 306.12006 
L 316.884706 386.489349 
L 318.460235 363.446406 
L 320.035765 366.256521 
L 321.611294 354.454038 
L 323.186824 376.372935 
L 324.762353 352.205946 
L 326.337882 346.023693 
L 327.913412 346.585716 
L 329.488941 384.241257 
L 331.064471 347.147739 
L 332.64 369.628659 
L 334.215529 350.519877 
L 335.791059 376.372935 
L 337.366588 337.031325 
L 338.942118 346.023693 
L 340.517647 319.046589 
L 342.093176 363.446406 
L 343.668706 358.950222 
L 345.244235 378.621027 
L 346.819765 352.205946 
L 348.395294 347.709762 
L 349.970824 352.767969 
L 351.546353 346.023693 
L 353.121882 313.988382 
L 354.697412 363.446406 
L 357.848471 325.228842 
L 360.999529 339.84144 
L 362.575059 318.484566 
L 364.150588 326.914911 
L 365.726118 310.616244 
L 367.301647 387.051372 
L 368.877176 375.248889 
L 370.452706 375.248889 
L 372.028235 351.0819 
L 373.603765 351.643923 
L 375.179294 356.70213 
L 376.754824 356.140107 
L 378.330353 341.527509 
L 379.905882 367.380567 
L 381.481412 365.694498 
L 383.056941 343.213578 
L 384.632471 327.476934 
L 386.208 357.826176 
L 387.783529 335.907279 
L 389.359059 328.60098 
L 390.934588 342.089532 
L 392.510118 388.737441 
L 394.085647 344.337624 
L 395.661176 357.264153 
L 397.236706 309.492198 
L 398.812235 360.636291 
L 400.387765 331.973118 
L 401.963294 366.818544 
L 403.538824 334.22121 
L 405.114353 381.431142 
L 406.689882 330.849072 
L 408.265412 340.965486 
L 409.840941 319.608612 
L 411.416471 339.84144 
L 412.992 311.74029 
L 414.567529 330.287049 
L 416.143059 308.368152 
L 417.718588 380.307096 
L 419.294118 344.899647 
L 420.869647 339.279417 
L 422.445176 347.147739 
L 424.020706 351.643923 
L 425.596235 329.163003 
L 427.171765 333.659187 
L 428.747294 315.674451 
L 430.322824 358.950222 
L 431.898353 337.593348 
L 433.473882 346.023693 
L 435.049412 328.60098 
L 436.624941 323.542773 
L 438.200471 329.163003 
L 439.776 322.98075 
L 441.351529 317.922543 
L 442.927059 359.512245 
L 444.502588 333.097164 
L 446.078118 350.519877 
L 447.653647 321.856704 
L 449.229176 335.345256 
L 450.804706 307.244106 
L 452.380235 325.228842 
L 453.955765 307.244106 
L 455.531294 351.0819 
L 457.106824 331.411095 
L 458.682353 308.930175 
L 460.257882 308.368152 
L 461.833412 324.104796 
L 463.408941 305.558037 
L 464.984471 307.806129 
L 466.56 284.763186 
L 466.56 284.763186 
" clip-path="url(#pa8cad28552)" style="fill: none; stroke: #008000; stroke-opacity: 0.5; stroke-width: 1.5; stroke-linecap: square"/>
   </g>
   <g id="line2d_19">
    <path d="M 64.8 232.495047 
L 66.375529 260.034174 
L 67.951059 262.844289 
L 69.526588 310.616244 
L 71.102118 261.15822 
L 72.677647 328.038957 
L 74.253176 311.74029 
L 75.828706 326.352888 
L 77.404235 274.646772 
L 78.979765 304.433991 
L 80.555294 313.426359 
L 82.130824 334.22121 
L 83.706353 306.12006 
L 85.281882 322.98075 
L 86.857412 319.046589 
L 88.432941 357.826176 
L 90.008471 267.902496 
L 91.584 289.821393 
L 93.159529 287.011278 
L 94.735059 325.228842 
L 96.310588 300.49983 
L 97.886118 337.031325 
L 99.461647 315.674451 
L 101.037176 367.380567 
L 102.612706 289.25937 
L 104.188235 314.550405 
L 107.339294 354.454038 
L 108.914824 344.899647 
L 110.490353 362.32236 
L 112.065882 357.826176 
L 113.641412 381.993165 
L 115.216941 274.084749 
L 116.792471 307.244106 
L 118.368 284.201163 
L 119.943529 337.031325 
L 121.519059 279.142956 
L 123.094588 338.717394 
L 124.670118 334.783233 
L 126.245647 366.818544 
L 127.821176 308.930175 
L 129.396706 338.717394 
L 130.972235 347.709762 
L 132.547765 353.329992 
L 134.123294 351.0819 
L 135.698824 366.818544 
L 137.274353 332.535141 
L 138.849882 402.225993 
L 140.425412 284.201163 
L 142.000941 317.36052 
L 143.576471 344.899647 
L 145.152 348.833808 
L 146.727529 326.914911 
L 148.303059 365.132475 
L 149.878588 339.279417 
L 151.454118 391.547556 
L 153.029647 349.395831 
L 154.605176 352.205946 
L 156.180706 350.519877 
L 157.756235 370.190682 
L 159.331765 361.760337 
L 160.907294 388.175418 
L 162.482824 380.307096 
L 164.058353 406.722177 
L 165.633882 269.026542 
L 167.209412 303.309945 
L 168.784941 288.697347 
L 170.360471 313.988382 
L 171.936 298.813761 
L 173.511529 326.352888 
L 175.087059 328.60098 
L 176.662588 370.752705 
L 178.238118 301.061853 
L 179.813647 325.790865 
L 181.389176 329.725026 
L 182.964706 357.264153 
L 184.540235 322.418727 
L 186.115765 371.314728 
L 187.691294 351.643923 
L 189.266824 389.861487 
L 190.842353 306.12006 
L 192.417882 345.46167 
L 193.993412 340.403463 
L 195.568941 334.22121 
L 197.144471 331.973118 
L 198.72 352.205946 
L 200.295529 369.066636 
L 201.871059 393.795648 
L 203.446588 336.469302 
L 205.022118 353.892015 
L 206.597647 344.337624 
L 208.173176 376.934958 
L 209.748706 382.555188 
L 211.324235 402.788016 
L 212.899765 393.795648 
L 214.475294 414.590499 
L 216.050824 326.352888 
L 217.626353 328.60098 
L 219.201882 296.003646 
L 220.777412 364.570452 
L 222.352941 324.104796 
L 223.928471 366.818544 
L 225.504 361.760337 
L 227.079529 385.365303 
L 228.655059 334.22121 
L 230.230588 377.496981 
L 231.806118 362.32236 
L 233.381647 378.059004 
L 234.957176 362.32236 
L 236.532706 362.884383 
L 238.108235 396.605763 
L 239.683765 406.722177 
L 241.259294 317.36052 
L 242.834824 367.380567 
L 244.410353 342.651555 
L 245.985882 394.919694 
L 247.561412 373.56282 
L 249.136941 386.489349 
L 250.712471 361.760337 
L 252.288 393.233625 
L 253.863529 354.454038 
L 255.439059 395.481717 
L 257.014588 376.372935 
L 258.590118 397.729809 
L 260.165647 389.861487 
L 261.741176 411.218361 
L 263.316706 401.66397 
L 264.892235 420.772752 
L 266.467765 257.224059 
L 268.043294 276.332841 
L 269.618824 312.864336 
L 271.194353 342.089532 
L 272.769882 317.922543 
L 274.345412 331.411095 
L 275.920941 340.403463 
L 277.496471 387.613395 
L 279.072 313.988382 
L 280.647529 342.651555 
L 282.223059 346.585716 
L 283.798588 347.709762 
L 285.374118 315.112428 
L 286.949647 352.205946 
L 288.525176 361.198314 
L 290.100706 380.869119 
L 291.676235 299.937807 
L 293.251765 323.542773 
L 294.827294 340.965486 
L 296.402824 353.329992 
L 297.978353 351.643923 
L 299.553882 354.454038 
L 301.129412 367.94259 
L 302.704941 397.167786 
L 304.280471 352.767969 
L 305.856 351.0819 
L 307.431529 355.578084 
L 309.007059 369.628659 
L 310.582588 353.892015 
L 312.158118 381.431142 
L 313.733647 393.233625 
L 315.309176 412.342407 
L 316.884706 287.573301 
L 318.460235 329.725026 
L 320.035765 338.717394 
L 321.611294 360.636291 
L 323.186824 342.651555 
L 324.762353 355.016061 
L 326.337882 353.892015 
L 327.913412 374.686866 
L 329.488941 325.790865 
L 331.064471 356.140107 
L 332.64 352.205946 
L 334.215529 384.241257 
L 335.791059 356.70213 
L 337.366588 390.985533 
L 338.942118 390.985533 
L 340.517647 406.160154 
L 342.093176 335.907279 
L 343.668706 343.775601 
L 345.244235 367.380567 
L 346.819765 366.818544 
L 348.395294 362.884383 
L 349.970824 396.605763 
L 351.546353 388.737441 
L 353.121882 411.780384 
L 354.697412 334.783233 
L 356.272941 394.357671 
L 357.848471 383.679234 
L 359.424 403.350039 
L 360.999529 388.175418 
L 362.575059 415.152522 
L 364.150588 409.532292 
L 365.726118 435.38535 
L 367.301647 310.054221 
L 368.877176 330.849072 
L 370.452706 332.535141 
L 372.028235 348.833808 
L 373.603765 320.170635 
L 375.179294 365.132475 
L 376.754824 359.512245 
L 378.330353 408.970269 
L 379.905882 340.403463 
L 381.481412 375.248889 
L 383.056941 360.636291 
L 384.632471 380.307096 
L 386.208 360.074268 
L 387.783529 403.912062 
L 389.359059 382.555188 
L 390.934588 407.2842 
L 392.510118 347.147739 
L 394.085647 340.965486 
L 395.661176 360.636291 
L 397.236706 387.613395 
L 398.812235 360.636291 
L 400.387765 387.613395 
L 401.963294 387.613395 
L 403.538824 406.722177 
L 405.114353 365.132475 
L 406.689882 392.671602 
L 408.265412 385.927326 
L 409.840941 398.853855 
L 411.416471 365.132475 
L 412.992 403.912062 
L 414.567529 405.036108 
L 416.143059 426.392982 
L 417.718588 342.089532 
L 419.294118 354.454038 
L 420.869647 346.585716 
L 422.445176 397.729809 
L 424.020706 351.0819 
L 425.596235 383.117211 
L 427.171765 373.56282 
L 428.747294 407.2842 
L 430.322824 349.957854 
L 431.898353 374.686866 
L 433.473882 384.241257 
L 435.049412 398.853855 
L 436.624941 388.175418 
L 438.200471 401.66397 
L 439.776 394.357671 
L 441.351529 426.955005 
L 442.927059 347.709762 
L 444.502588 381.431142 
L 446.078118 380.869119 
L 447.653647 403.912062 
L 449.229176 358.388199 
L 450.804706 403.350039 
L 452.380235 398.853855 
L 453.955765 431.451189 
L 455.531294 370.752705 
L 457.106824 406.722177 
L 458.682353 403.350039 
L 460.257882 417.962637 
L 461.833412 414.028476 
L 463.408941 410.656338 
L 464.984471 447.187833 
L 466.56 433.137258 
L 466.56 433.137258 
" clip-path="url(#pa8cad28552)" style="fill: none; stroke: #ff0000; stroke-opacity: 0.7; stroke-width: 1.5; stroke-linecap: square"/>
   </g>
   <g id="line2d_20">
    <path d="M 64.8 346.023693 
L 66.375529 361.198314 
L 67.951059 362.32236 
L 69.526588 356.140107 
L 71.102118 374.124843 
L 72.677647 355.016061 
L 74.253176 367.380567 
L 75.828706 375.248889 
L 77.404235 344.337624 
L 78.979765 356.140107 
L 80.555294 339.84144 
L 82.130824 355.578084 
L 83.706353 342.089532 
L 85.281882 354.454038 
L 86.857412 352.205946 
L 88.432941 355.578084 
L 90.008471 341.527509 
L 91.584 352.205946 
L 93.159529 356.70213 
L 94.735059 338.155371 
L 96.310588 364.008429 
L 97.886118 366.256521 
L 99.461647 349.395831 
L 101.037176 362.884383 
L 102.612706 345.46167 
L 104.188235 359.512245 
L 105.763765 355.578084 
L 107.339294 352.205946 
L 108.914824 337.031325 
L 110.490353 352.767969 
L 112.065882 345.46167 
L 113.641412 340.403463 
L 115.216941 374.686866 
L 116.792471 353.329992 
L 118.368 351.0819 
L 119.943529 385.365303 
L 121.519059 357.826176 
L 123.094588 362.32236 
L 124.670118 345.46167 
L 126.245647 350.519877 
L 127.821176 360.074268 
L 129.396706 374.124843 
L 130.972235 368.504613 
L 132.547765 360.074268 
L 134.123294 344.899647 
L 135.698824 328.60098 
L 137.274353 360.074268 
L 138.849882 329.163003 
L 140.425412 357.264153 
L 142.000941 375.810912 
L 143.576471 346.585716 
L 145.152 365.694498 
L 146.727529 357.826176 
L 148.303059 362.32236 
L 149.878588 344.337624 
L 151.454118 356.70213 
L 153.029647 379.745073 
L 154.605176 364.570452 
L 156.180706 347.147739 
L 157.756235 365.132475 
L 159.331765 355.578084 
L 160.907294 349.395831 
L 162.482824 366.256521 
L 164.058353 352.767969 
L 165.633882 362.32236 
L 167.209412 339.279417 
L 168.784941 356.140107 
L 170.360471 353.892015 
L 171.936 343.213578 
L 173.511529 361.760337 
L 175.087059 357.826176 
L 176.662588 359.512245 
L 178.238118 370.190682 
L 179.813647 365.694498 
L 181.389176 356.140107 
L 182.964706 359.512245 
L 184.540235 359.512245 
L 186.115765 358.388199 
L 187.691294 369.066636 
L 189.266824 364.008429 
L 190.842353 344.899647 
L 192.417882 368.504613 
L 193.993412 353.892015 
L 195.568941 337.031325 
L 197.144471 348.833808 
L 198.72 370.752705 
L 200.295529 356.140107 
L 201.871059 358.950222 
L 203.446588 356.70213 
L 205.022118 352.205946 
L 206.597647 356.140107 
L 208.173176 359.512245 
L 209.748706 343.213578 
L 211.324235 358.950222 
L 212.899765 364.570452 
L 214.475294 343.775601 
L 216.050824 366.818544 
L 217.626353 363.446406 
L 219.201882 371.876751 
L 220.777412 360.636291 
L 222.352941 341.527509 
L 223.928471 348.271785 
L 225.504 377.496981 
L 227.079529 367.380567 
L 228.655059 358.388199 
L 230.230588 362.32236 
L 231.806118 348.271785 
L 233.381647 366.818544 
L 234.957176 351.0819 
L 236.532706 348.833808 
L 238.108235 337.031325 
L 239.683765 351.0819 
L 241.259294 327.476934 
L 242.834824 341.527509 
L 244.410353 339.279417 
L 245.985882 370.190682 
L 247.561412 356.70213 
L 249.136941 358.388199 
L 250.712471 325.228842 
L 252.288 371.314728 
L 253.863529 356.70213 
L 255.439059 356.140107 
L 257.014588 369.628659 
L 258.590118 354.454038 
L 260.165647 375.810912 
L 263.316706 346.023693 
L 264.892235 350.519877 
L 266.467765 366.818544 
L 268.043294 352.767969 
L 269.618824 354.454038 
L 271.194353 344.899647 
L 272.769882 378.621027 
L 274.345412 360.636291 
L 275.920941 363.446406 
L 277.496471 333.659187 
L 279.072 375.248889 
L 280.647529 361.198314 
L 282.223059 368.504613 
L 283.798588 342.089532 
L 285.374118 374.124843 
L 286.949647 342.651555 
L 288.525176 334.22121 
L 290.100706 364.008429 
L 291.676235 352.205946 
L 293.251765 351.0819 
L 294.827294 368.504613 
L 296.402824 349.395831 
L 297.978353 362.884383 
L 299.553882 356.70213 
L 301.129412 375.248889 
L 302.704941 346.585716 
L 304.280471 346.023693 
L 305.856 355.016061 
L 307.431529 336.469302 
L 309.007059 357.264153 
L 310.582588 370.752705 
L 312.158118 344.899647 
L 313.733647 360.636291 
L 315.309176 366.256521 
L 316.884706 353.329992 
L 318.460235 359.512245 
L 320.035765 348.833808 
L 321.611294 378.621027 
L 323.186824 340.403463 
L 324.762353 348.833808 
L 326.337882 327.476934 
L 327.913412 345.46167 
L 329.488941 342.651555 
L 331.064471 370.752705 
L 334.215529 345.46167 
L 335.791059 348.271785 
L 337.366588 365.132475 
L 338.942118 357.826176 
L 340.517647 358.950222 
L 342.093176 347.709762 
L 343.668706 368.504613 
L 345.244235 349.957854 
L 346.819765 342.089532 
L 348.395294 359.512245 
L 349.970824 331.973118 
L 351.546353 352.205946 
L 353.121882 355.016061 
L 354.697412 356.70213 
L 356.272941 364.008429 
L 357.848471 362.884383 
L 359.424 359.512245 
L 360.999529 365.132475 
L 362.575059 379.18305 
L 364.150588 354.454038 
L 365.726118 367.94259 
L 367.301647 372.438774 
L 368.877176 343.213578 
L 370.452706 362.884383 
L 372.028235 343.775601 
L 373.603765 349.395831 
L 375.179294 352.205946 
L 376.754824 358.950222 
L 378.330353 355.578084 
L 379.905882 357.826176 
L 381.481412 353.329992 
L 383.056941 362.884383 
L 384.632471 356.140107 
L 386.208 355.016061 
L 387.783529 356.70213 
L 389.359059 360.636291 
L 390.934588 355.578084 
L 392.510118 373.000797 
L 394.085647 367.94259 
L 395.661176 347.709762 
L 397.236706 345.46167 
L 398.812235 363.446406 
L 400.387765 348.271785 
L 401.963294 347.709762 
L 403.538824 352.205946 
L 405.114353 353.329992 
L 406.689882 362.32236 
L 408.265412 354.454038 
L 409.840941 361.760337 
L 411.416471 334.22121 
L 412.992 355.016061 
L 414.567529 365.132475 
L 416.143059 356.140107 
L 417.718588 357.264153 
L 419.294118 349.395831 
L 420.869647 352.767969 
L 422.445176 357.264153 
L 424.020706 370.190682 
L 425.596235 349.957854 
L 427.171765 369.628659 
L 428.747294 356.70213 
L 430.322824 356.140107 
L 431.898353 362.32236 
L 433.473882 348.271785 
L 435.049412 356.70213 
L 438.200471 365.694498 
L 439.776 349.957854 
L 441.351529 341.527509 
L 442.927059 358.950222 
L 444.502588 363.446406 
L 446.078118 359.512245 
L 447.653647 341.527509 
L 449.229176 361.198314 
L 450.804706 376.372935 
L 452.380235 354.454038 
L 453.955765 365.132475 
L 455.531294 366.256521 
L 458.682353 361.760337 
L 460.257882 375.248889 
L 461.833412 369.628659 
L 463.408941 358.388199 
L 464.984471 360.636291 
L 466.56 352.767969 
L 466.56 352.767969 
" clip-path="url(#pa8cad28552)" style="fill: none; stroke: #0000ff; stroke-opacity: 0.7; stroke-width: 1.5; stroke-linecap: square"/>
   </g>
   <g id="patch_3">
    <path d="M 64.8 519.6888 
L 64.8 70.0704 
" style="fill: none; stroke: #000000; stroke-width: 0.8; stroke-linejoin: miter; stroke-linecap: square"/>
   </g>
   <g id="patch_4">
    <path d="M 466.56 519.6888 
L 466.56 70.0704 
" style="fill: none; stroke: #000000; stroke-width: 0.8; stroke-linejoin: miter; stroke-linecap: square"/>
   </g>
   <g id="patch_5">
    <path d="M 64.8 519.6888 
L 466.56 519.6888 
" style="fill: none; stroke: #000000; stroke-width: 0.8; stroke-linejoin: miter; stroke-linecap: square"/>
   </g>
   <g id="patch_6">
    <path d="M 64.8 70.0704 
L 466.56 70.0704 
" style="fill: none; stroke: #000000; stroke-width: 0.8; stroke-linejoin: miter; stroke-linecap: square"/>
   </g>
   <g id="text_18">
    <!-- K whitening, 1 XOR -->
    <g transform="translate(208.179375 64.0704) scale(0.12 -0.12)">
     <defs>
      <path id="DejaVuSans-4b" d="M 628 4666 
L 1259 4666 
L 1259 2694 
L 3353 4666 
L 4166 4666 
L 1850 2491 
L 4331 0 
L 3500 0 
L 1259 2247 
L 1259 0 
L 628 0 
L 628 4666 
z
" transform="scale(0.015625)"/>
      <path id="DejaVuSans-77" d="M 269 3500 
L 844 3500 
L 1563 769 
L 2278 3500 
L 2956 3500 
L 3675 769 
L 4391 3500 
L 4966 3500 
L 4050 0 
L 3372 0 
L 2619 2869 
L 1863 0 
L 1184 0 
L 269 3500 
z
" transform="scale(0.015625)"/>
      <path id="DejaVuSans-68" d="M 3513 2113 
L 3513 0 
L 2938 0 
L 2938 2094 
Q 2938 2591 2744 2837 
Q 2550 3084 2163 3084 
Q 1697 3084 1428 2787 
Q 1159 2491 1159 1978 
L 1159 0 
L 581 0 
L 581 4863 
L 1159 4863 
L 1159 2956 
Q 1366 3272 1645 3428 
Q 1925 3584 2291 3584 
Q 2894 3584 3203 3211 
Q 3513 2838 3513 2113 
z
" transform="scale(0.015625)"/>
      <path id="DejaVuSans-67" d="M 2906 1791 
Q 2906 2416 2648 2759 
Q 2391 3103 1925 3103 
Q 1463 3103 1205 2759 
Q 947 2416 947 1791 
Q 947 1169 1205 825 
Q 1463 481 1925 481 
Q 2391 481 2648 825 
Q 2906 1169 2906 1791 
z
M 3481 434 
Q 3481 -459 3084 -895 
Q 2688 -1331 1869 -1331 
Q 1566 -1331 1297 -1286 
Q 1028 -1241 775 -1147 
L 775 -588 
Q 1028 -725 1275 -790 
Q 1522 -856 1778 -856 
Q 2344 -856 2625 -561 
Q 2906 -266 2906 331 
L 2906 616 
Q 2728 306 2450 153 
Q 2172 0 1784 0 
Q 1141 0 747 490 
Q 353 981 353 1791 
Q 353 2603 747 3093 
Q 1141 3584 1784 3584 
Q 2172 3584 2450 3431 
Q 2728 3278 2906 2969 
L 2906 3500 
L 3481 3500 
L 3481 434 
z
" transform="scale(0.015625)"/>
      <path id="DejaVuSans-2c" d="M 750 794 
L 1409 794 
L 1409 256 
L 897 -744 
L 494 -744 
L 750 256 
L 750 794 
z
" transform="scale(0.015625)"/>
      <path id="DejaVuSans-58" d="M 403 4666 
L 1081 4666 
L 2241 2931 
L 3406 4666 
L 4084 4666 
L 2584 2425 
L 4184 0 
L 3506 0 
L 2194 1984 
L 872 0 
L 191 0 
L 1856 2491 
L 403 4666 
z
" transform="scale(0.015625)"/>
      <path id="DejaVuSans-4f" d="M 2522 4238 
Q 1834 4238 1429 3725 
Q 1025 3213 1025 2328 
Q 1025 1447 1429 934 
Q 1834 422 2522 422 
Q 3209 422 3611 934 
Q 4013 1447 4013 2328 
Q 4013 3213 3611 3725 
Q 3209 4238 2522 4238 
z
M 2522 4750 
Q 3503 4750 4090 4092 
Q 4678 3434 4678 2328 
Q 4678 1225 4090 567 
Q 3503 -91 2522 -91 
Q 1538 -91 948 565 
Q 359 1222 359 2328 
Q 359 3434 948 4092 
Q 1538 4750 2522 4750 
z
" transform="scale(0.015625)"/>
      <path id="DejaVuSans-52" d="M 2841 2188 
Q 3044 2119 3236 1894 
Q 3428 1669 3622 1275 
L 4263 0 
L 3584 0 
L 2988 1197 
Q 2756 1666 2539 1819 
Q 2322 1972 1947 1972 
L 1259 1972 
L 1259 0 
L 628 0 
L 628 4666 
L 2053 4666 
Q 2853 4666 3247 4331 
Q 3641 3997 3641 3322 
Q 3641 2881 3436 2590 
Q 3231 2300 2841 2188 
z
M 1259 4147 
L 1259 2491 
L 2053 2491 
Q 2509 2491 2742 2702 
Q 2975 2913 2975 3322 
Q 2975 3731 2742 3939 
Q 2509 4147 2053 4147 
L 1259 4147 
z
" transform="scale(0.015625)"/>
     </defs>
     <use xlink:href="#DejaVuSans-4b"/>
     <use xlink:href="#DejaVuSans-20" x="65.576172"/>
     <use xlink:href="#DejaVuSans-77" x="97.363281"/>
     <use xlink:href="#DejaVuSans-68" x="179.150391"/>
     <use xlink:href="#DejaVuSans-69" x="242.529297"/>
     <use xlink:href="#DejaVuSans-74" x="270.3125"/>
     <use xlink:href="#DejaVuSans-65" x="309.521484"/>
     <use xlink:href="#DejaVuSans-6e" x="371.044922"/>
     <use xlink:href="#DejaVuSans-69" x="434.423828"/>
     <use xlink:href="#DejaVuSans-6e" x="462.207031"/>
     <use xlink:href="#DejaVuSans-67" x="525.585938"/>
     <use xlink:href="#DejaVuSans-2c" x="589.0625"/>
     <use xlink:href="#DejaVuSans-20" x="620.849609"/>
     <use xlink:href="#DejaVuSans-31" x="652.636719"/>
     <use xlink:href="#DejaVuSans-20" x="716.259766"/>
     <use xlink:href="#DejaVuSans-58" x="748.046875"/>
     <use xlink:href="#DejaVuSans-4f" x="810.177734"/>
     <use xlink:href="#DejaVuSans-52" x="888.888672"/>
    </g>
   </g>
   <g id="legend_1">
    <g id="patch_7">
     <path d="M 71.8 151.461025 
L 207.2 151.461025 
Q 209.2 151.461025 209.2 149.461025 
L 209.2 77.0704 
Q 209.2 75.0704 207.2 75.0704 
L 71.8 75.0704 
Q 69.8 75.0704 69.8 77.0704 
L 69.8 149.461025 
Q 69.8 151.461025 71.8 151.461025 
z
" style="fill: #ffffff; opacity: 0.8; stroke: #cccccc; stroke-linejoin: miter"/>
    </g>
    <g id="line2d_21">
     <path d="M 73.8 83.168837 
L 83.8 83.168837 
L 93.8 83.168837 
" style="fill: none; stroke: #000000; stroke-opacity: 0.9; stroke-width: 1.5; stroke-linecap: square"/>
    </g>
    <g id="text_19">
     <!-- base -->
     <g transform="translate(101.8 86.668837) scale(0.1 -0.1)">
      <defs>
       <path id="DejaVuSans-73" d="M 2834 3397 
L 2834 2853 
Q 2591 2978 2328 3040 
Q 2066 3103 1784 3103 
Q 1356 3103 1142 2972 
Q 928 2841 928 2578 
Q 928 2378 1081 2264 
Q 1234 2150 1697 2047 
L 1894 2003 
Q 2506 1872 2764 1633 
Q 3022 1394 3022 966 
Q 3022 478 2636 193 
Q 2250 -91 1575 -91 
Q 1294 -91 989 -36 
Q 684 19 347 128 
L 347 722 
Q 666 556 975 473 
Q 1284 391 1588 391 
Q 1994 391 2212 530 
Q 2431 669 2431 922 
Q 2431 1156 2273 1281 
Q 2116 1406 1581 1522 
L 1381 1569 
Q 847 1681 609 1914 
Q 372 2147 372 2553 
Q 372 3047 722 3315 
Q 1072 3584 1716 3584 
Q 2034 3584 2315 3537 
Q 2597 3491 2834 3397 
z
" transform="scale(0.015625)"/>
      </defs>
      <use xlink:href="#DejaVuSans-62"/>
      <use xlink:href="#DejaVuSans-61" x="63.476562"/>
      <use xlink:href="#DejaVuSans-73" x="124.755859"/>
      <use xlink:href="#DejaVuSans-65" x="176.855469"/>
     </g>
    </g>
    <g id="line2d_22">
     <path d="M 73.8 97.846962 
L 83.8 97.846962 
L 93.8 97.846962 
" style="fill: none; stroke: #808080; stroke-opacity: 0.5; stroke-width: 1.5; stroke-linecap: square"/>
    </g>
    <g id="text_20">
     <!-- (a) K 2.5%, No XOR -->
     <g transform="translate(101.8 101.346962) scale(0.1 -0.1)">
      <defs>
       <path id="DejaVuSans-28" d="M 1984 4856 
Q 1566 4138 1362 3434 
Q 1159 2731 1159 2009 
Q 1159 1288 1364 580 
Q 1569 -128 1984 -844 
L 1484 -844 
Q 1016 -109 783 600 
Q 550 1309 550 2009 
Q 550 2706 781 3412 
Q 1013 4119 1484 4856 
L 1984 4856 
z
" transform="scale(0.015625)"/>
       <path id="DejaVuSans-29" d="M 513 4856 
L 1013 4856 
Q 1481 4119 1714 3412 
Q 1947 2706 1947 2009 
Q 1947 1309 1714 600 
Q 1481 -109 1013 -844 
L 513 -844 
Q 928 -128 1133 580 
Q 1338 1288 1338 2009 
Q 1338 2731 1133 3434 
Q 928 4138 513 4856 
z
" transform="scale(0.015625)"/>
       <path id="DejaVuSans-25" d="M 4653 2053 
Q 4381 2053 4226 1822 
Q 4072 1591 4072 1178 
Q 4072 772 4226 539 
Q 4381 306 4653 306 
Q 4919 306 5073 539 
Q 5228 772 5228 1178 
Q 5228 1588 5073 1820 
Q 4919 2053 4653 2053 
z
M 4653 2450 
Q 5147 2450 5437 2106 
Q 5728 1763 5728 1178 
Q 5728 594 5436 251 
Q 5144 -91 4653 -91 
Q 4153 -91 3862 251 
Q 3572 594 3572 1178 
Q 3572 1766 3864 2108 
Q 4156 2450 4653 2450 
z
M 1428 4353 
Q 1159 4353 1004 4120 
Q 850 3888 850 3481 
Q 850 3069 1003 2837 
Q 1156 2606 1428 2606 
Q 1700 2606 1854 2837 
Q 2009 3069 2009 3481 
Q 2009 3884 1853 4118 
Q 1697 4353 1428 4353 
z
M 4250 4750 
L 4750 4750 
L 1831 -91 
L 1331 -91 
L 4250 4750 
z
M 1428 4750 
Q 1922 4750 2215 4408 
Q 2509 4066 2509 3481 
Q 2509 2891 2217 2550 
Q 1925 2209 1428 2209 
Q 931 2209 642 2551 
Q 353 2894 353 3481 
Q 353 4063 643 4406 
Q 934 4750 1428 4750 
z
" transform="scale(0.015625)"/>
       <path id="DejaVuSans-6f" d="M 1959 3097 
Q 1497 3097 1228 2736 
Q 959 2375 959 1747 
Q 959 1119 1226 758 
Q 1494 397 1959 397 
Q 2419 397 2687 759 
Q 2956 1122 2956 1747 
Q 2956 2369 2687 2733 
Q 2419 3097 1959 3097 
z
M 1959 3584 
Q 2709 3584 3137 3096 
Q 3566 2609 3566 1747 
Q 3566 888 3137 398 
Q 2709 -91 1959 -91 
Q 1206 -91 779 398 
Q 353 888 353 1747 
Q 353 2609 779 3096 
Q 1206 3584 1959 3584 
z
" transform="scale(0.015625)"/>
      </defs>
      <use xlink:href="#DejaVuSans-28"/>
      <use xlink:href="#DejaVuSans-61" x="39.013672"/>
      <use xlink:href="#DejaVuSans-29" x="100.292969"/>
      <use xlink:href="#DejaVuSans-20" x="139.306641"/>
      <use xlink:href="#DejaVuSans-4b" x="171.09375"/>
      <use xlink:href="#DejaVuSans-20" x="236.669922"/>
      <use xlink:href="#DejaVuSans-32" x="268.457031"/>
      <use xlink:href="#DejaVuSans-2e" x="332.080078"/>
      <use xlink:href="#DejaVuSans-35" x="363.867188"/>
      <use xlink:href="#DejaVuSans-25" x="427.490234"/>
      <use xlink:href="#DejaVuSans-2c" x="522.509766"/>
      <use xlink:href="#DejaVuSans-20" x="554.296875"/>
      <use xlink:href="#DejaVuSans-4e" x="586.083984"/>
      <use xlink:href="#DejaVuSans-6f" x="660.888672"/>
      <use xlink:href="#DejaVuSans-20" x="722.070312"/>
      <use xlink:href="#DejaVuSans-58" x="753.857422"/>
      <use xlink:href="#DejaVuSans-4f" x="815.988281"/>
      <use xlink:href="#DejaVuSans-52" x="894.699219"/>
     </g>
    </g>
    <g id="line2d_23">
     <path d="M 73.8 112.525087 
L 83.8 112.525087 
L 93.8 112.525087 
" style="fill: none; stroke: #008000; stroke-opacity: 0.5; stroke-width: 1.5; stroke-linecap: square"/>
    </g>
    <g id="text_21">
     <!-- (b) K 2.5%, No XOR -->
     <g transform="translate(101.8 116.025087) scale(0.1 -0.1)">
      <use xlink:href="#DejaVuSans-28"/>
      <use xlink:href="#DejaVuSans-62" x="39.013672"/>
      <use xlink:href="#DejaVuSans-29" x="102.490234"/>
      <use xlink:href="#DejaVuSans-20" x="141.503906"/>
      <use xlink:href="#DejaVuSans-4b" x="173.291016"/>
      <use xlink:href="#DejaVuSans-20" x="238.867188"/>
      <use xlink:href="#DejaVuSans-32" x="270.654297"/>
      <use xlink:href="#DejaVuSans-2e" x="334.277344"/>
      <use xlink:href="#DejaVuSans-35" x="366.064453"/>
      <use xlink:href="#DejaVuSans-25" x="429.6875"/>
      <use xlink:href="#DejaVuSans-2c" x="524.707031"/>
      <use xlink:href="#DejaVuSans-20" x="556.494141"/>
      <use xlink:href="#DejaVuSans-4e" x="588.28125"/>
      <use xlink:href="#DejaVuSans-6f" x="663.085938"/>
      <use xlink:href="#DejaVuSans-20" x="724.267578"/>
      <use xlink:href="#DejaVuSans-58" x="756.054688"/>
      <use xlink:href="#DejaVuSans-4f" x="818.185547"/>
      <use xlink:href="#DejaVuSans-52" x="896.896484"/>
     </g>
    </g>
    <g id="line2d_24">
     <path d="M 73.8 127.203212 
L 83.8 127.203212 
L 93.8 127.203212 
" style="fill: none; stroke: #ff0000; stroke-opacity: 0.7; stroke-width: 1.5; stroke-linecap: square"/>
    </g>
    <g id="text_22">
     <!-- (a) K 2.5%, One XOR -->
     <g transform="translate(101.8 130.703212) scale(0.1 -0.1)">
      <use xlink:href="#DejaVuSans-28"/>
      <use xlink:href="#DejaVuSans-61" x="39.013672"/>
      <use xlink:href="#DejaVuSans-29" x="100.292969"/>
      <use xlink:href="#DejaVuSans-20" x="139.306641"/>
      <use xlink:href="#DejaVuSans-4b" x="171.09375"/>
      <use xlink:href="#DejaVuSans-20" x="236.669922"/>
      <use xlink:href="#DejaVuSans-32" x="268.457031"/>
      <use xlink:href="#DejaVuSans-2e" x="332.080078"/>
      <use xlink:href="#DejaVuSans-35" x="363.867188"/>
      <use xlink:href="#DejaVuSans-25" x="427.490234"/>
      <use xlink:href="#DejaVuSans-2c" x="522.509766"/>
      <use xlink:href="#DejaVuSans-20" x="554.296875"/>
      <use xlink:href="#DejaVuSans-4f" x="586.083984"/>
      <use xlink:href="#DejaVuSans-6e" x="664.794922"/>
      <use xlink:href="#DejaVuSans-65" x="728.173828"/>
      <use xlink:href="#DejaVuSans-20" x="789.697266"/>
      <use xlink:href="#DejaVuSans-58" x="821.484375"/>
      <use xlink:href="#DejaVuSans-4f" x="883.615234"/>
      <use xlink:href="#DejaVuSans-52" x="962.326172"/>
     </g>
    </g>
    <g id="line2d_25">
     <path d="M 73.8 141.881337 
L 83.8 141.881337 
L 93.8 141.881337 
" style="fill: none; stroke: #0000ff; stroke-opacity: 0.7; stroke-width: 1.5; stroke-linecap: square"/>
    </g>
    <g id="text_23">
     <!-- (b) K 2.5%, One XOR -->
     <g transform="translate(101.8 145.381337) scale(0.1 -0.1)">
      <use xlink:href="#DejaVuSans-28"/>
      <use xlink:href="#DejaVuSans-62" x="39.013672"/>
      <use xlink:href="#DejaVuSans-29" x="102.490234"/>
      <use xlink:href="#DejaVuSans-20" x="141.503906"/>
      <use xlink:href="#DejaVuSans-4b" x="173.291016"/>
      <use xlink:href="#DejaVuSans-20" x="238.867188"/>
      <use xlink:href="#DejaVuSans-32" x="270.654297"/>
      <use xlink:href="#DejaVuSans-2e" x="334.277344"/>
      <use xlink:href="#DejaVuSans-35" x="366.064453"/>
      <use xlink:href="#DejaVuSans-25" x="429.6875"/>
      <use xlink:href="#DejaVuSans-2c" x="524.707031"/>
      <use xlink:href="#DejaVuSans-20" x="556.494141"/>
      <use xlink:href="#DejaVuSans-4f" x="588.28125"/>
      <use xlink:href="#DejaVuSans-6e" x="666.992188"/>
      <use xlink:href="#DejaVuSans-65" x="730.371094"/>
      <use xlink:href="#DejaVuSans-20" x="791.894531"/>
      <use xlink:href="#DejaVuSans-58" x="823.681641"/>
      <use xlink:href="#DejaVuSans-4f" x="885.8125"/>
      <use xlink:href="#DejaVuSans-52" x="964.523438"/>
     </g>
    </g>
   </g>
   <g id="legend_2">
    <g id="patch_8">
     <path d="M 341.49125 514.6888 
L 459.56 514.6888 
Q 461.56 514.6888 461.56 512.6888 
L 461.56 438.6888 
Q 461.56 436.6888 459.56 436.6888 
L 341.49125 436.6888 
Q 339.49125 436.6888 339.49125 438.6888 
L 339.49125 512.6888 
Q 339.49125 514.6888 341.49125 514.6888 
z
" style="fill: #ffffff; opacity: 0.8; stroke: #cccccc; stroke-linejoin: miter"/>
    </g>
    <g id="line2d_26">
     <path d="M 343.49125 444.830987 
L 353.49125 444.830987 
L 363.49125 444.830987 
" style="fill: none; stroke: #000000; stroke-opacity: 0.9; stroke-width: 1.5; stroke-linecap: square"/>
    </g>
    <g id="text_24">
     <!-- 368.85 | 0.000 -->
     <g transform="translate(371.49125 448.330987) scale(0.1 -0.1)">
      <defs>
       <path id="DejaVuSans-7c" d="M 1344 4891 
L 1344 -1509 
L 813 -1509 
L 813 4891 
L 1344 4891 
z
" transform="scale(0.015625)"/>
      </defs>
      <use xlink:href="#DejaVuSans-33"/>
      <use xlink:href="#DejaVuSans-36" x="63.623047"/>
      <use xlink:href="#DejaVuSans-38" x="127.246094"/>
      <use xlink:href="#DejaVuSans-2e" x="190.869141"/>
      <use xlink:href="#DejaVuSans-38" x="222.65625"/>
      <use xlink:href="#DejaVuSans-35" x="286.279297"/>
      <use xlink:href="#DejaVuSans-20" x="349.902344"/>
      <use xlink:href="#DejaVuSans-7c" x="381.689453"/>
      <use xlink:href="#DejaVuSans-20" x="415.380859"/>
      <use xlink:href="#DejaVuSans-30" x="447.167969"/>
      <use xlink:href="#DejaVuSans-2e" x="510.791016"/>
      <use xlink:href="#DejaVuSans-30" x="542.578125"/>
      <use xlink:href="#DejaVuSans-30" x="606.201172"/>
      <use xlink:href="#DejaVuSans-30" x="669.824219"/>
     </g>
    </g>
    <g id="line2d_27">
     <path d="M 343.49125 459.830987 
L 353.49125 459.830987 
L 363.49125 459.830987 
" style="fill: none; stroke: #808080; stroke-opacity: 0.5; stroke-width: 1.5; stroke-linecap: square"/>
    </g>
    <g id="text_25">
     <!-- 60105.00 | 0.000 -->
     <g transform="translate(371.49125 463.330987) scale(0.1 -0.1)">
      <use xlink:href="#DejaVuSans-36"/>
      <use xlink:href="#DejaVuSans-30" x="63.623047"/>
      <use xlink:href="#DejaVuSans-31" x="127.246094"/>
      <use xlink:href="#DejaVuSans-30" x="190.869141"/>
      <use xlink:href="#DejaVuSans-35" x="254.492188"/>
      <use xlink:href="#DejaVuSans-2e" x="318.115234"/>
      <use xlink:href="#DejaVuSans-30" x="349.902344"/>
      <use xlink:href="#DejaVuSans-30" x="413.525391"/>
      <use xlink:href="#DejaVuSans-20" x="477.148438"/>
      <use xlink:href="#DejaVuSans-7c" x="508.935547"/>
      <use xlink:href="#DejaVuSans-20" x="542.626953"/>
      <use xlink:href="#DejaVuSans-30" x="574.414062"/>
      <use xlink:href="#DejaVuSans-2e" x="638.037109"/>
      <use xlink:href="#DejaVuSans-30" x="669.824219"/>
      <use xlink:href="#DejaVuSans-30" x="733.447266"/>
      <use xlink:href="#DejaVuSans-30" x="797.070312"/>
     </g>
    </g>
    <g id="line2d_28">
     <path d="M 343.49125 474.830987 
L 353.49125 474.830987 
L 363.49125 474.830987 
" style="fill: none; stroke: #008000; stroke-opacity: 0.5; stroke-width: 1.5; stroke-linecap: square"/>
    </g>
    <g id="text_26">
     <!-- 1382.57 | 0.000 -->
     <g transform="translate(371.49125 478.330987) scale(0.1 -0.1)">
      <use xlink:href="#DejaVuSans-31"/>
      <use xlink:href="#DejaVuSans-33" x="63.623047"/>
      <use xlink:href="#DejaVuSans-38" x="127.246094"/>
      <use xlink:href="#DejaVuSans-32" x="190.869141"/>
      <use xlink:href="#DejaVuSans-2e" x="254.492188"/>
      <use xlink:href="#DejaVuSans-35" x="286.279297"/>
      <use xlink:href="#DejaVuSans-37" x="349.902344"/>
      <use xlink:href="#DejaVuSans-20" x="413.525391"/>
      <use xlink:href="#DejaVuSans-7c" x="445.3125"/>
      <use xlink:href="#DejaVuSans-20" x="479.003906"/>
      <use xlink:href="#DejaVuSans-30" x="510.791016"/>
      <use xlink:href="#DejaVuSans-2e" x="574.414062"/>
      <use xlink:href="#DejaVuSans-30" x="606.201172"/>
      <use xlink:href="#DejaVuSans-30" x="669.824219"/>
      <use xlink:href="#DejaVuSans-30" x="733.447266"/>
     </g>
    </g>
    <g id="line2d_29">
     <path d="M 343.49125 489.830987 
L 353.49125 489.830987 
L 363.49125 489.830987 
" style="fill: none; stroke: #ff0000; stroke-opacity: 0.7; stroke-width: 1.5; stroke-linecap: square"/>
    </g>
    <g id="text_27">
     <!-- 3105.37 | 0.000 -->
     <g transform="translate(371.49125 493.330987) scale(0.1 -0.1)">
      <use xlink:href="#DejaVuSans-33"/>
      <use xlink:href="#DejaVuSans-31" x="63.623047"/>
      <use xlink:href="#DejaVuSans-30" x="127.246094"/>
      <use xlink:href="#DejaVuSans-35" x="190.869141"/>
      <use xlink:href="#DejaVuSans-2e" x="254.492188"/>
      <use xlink:href="#DejaVuSans-33" x="286.279297"/>
      <use xlink:href="#DejaVuSans-37" x="349.902344"/>
      <use xlink:href="#DejaVuSans-20" x="413.525391"/>
      <use xlink:href="#DejaVuSans-7c" x="445.3125"/>
      <use xlink:href="#DejaVuSans-20" x="479.003906"/>
      <use xlink:href="#DejaVuSans-30" x="510.791016"/>
      <use xlink:href="#DejaVuSans-2e" x="574.414062"/>
      <use xlink:href="#DejaVuSans-30" x="606.201172"/>
      <use xlink:href="#DejaVuSans-30" x="669.824219"/>
      <use xlink:href="#DejaVuSans-30" x="733.447266"/>
     </g>
    </g>
    <g id="line2d_30">
     <path d="M 343.49125 504.830987 
L 353.49125 504.830987 
L 363.49125 504.830987 
" style="fill: none; stroke: #0000ff; stroke-opacity: 0.7; stroke-width: 1.5; stroke-linecap: square"/>
    </g>
    <g id="text_28">
     <!-- 246.43 | 0.655 -->
     <g transform="translate(371.49125 508.330987) scale(0.1 -0.1)">
      <use xlink:href="#DejaVuSans-32"/>
      <use xlink:href="#DejaVuSans-34" x="63.623047"/>
      <use xlink:href="#DejaVuSans-36" x="127.246094"/>
      <use xlink:href="#DejaVuSans-2e" x="190.869141"/>
      <use xlink:href="#DejaVuSans-34" x="222.65625"/>
      <use xlink:href="#DejaVuSans-33" x="286.279297"/>
      <use xlink:href="#DejaVuSans-20" x="349.902344"/>
      <use xlink:href="#DejaVuSans-7c" x="381.689453"/>
      <use xlink:href="#DejaVuSans-20" x="415.380859"/>
      <use xlink:href="#DejaVuSans-30" x="447.167969"/>
      <use xlink:href="#DejaVuSans-2e" x="510.791016"/>
      <use xlink:href="#DejaVuSans-36" x="542.578125"/>
      <use xlink:href="#DejaVuSans-35" x="606.201172"/>
      <use xlink:href="#DejaVuSans-35" x="669.824219"/>
     </g>
    </g>
   </g>
  </g>
 </g>
 <defs>
  <clipPath id="pa8cad28552">
   <rect x="64.8" y="70.0704" width="401.76" height="449.6184"/>
  </clipPath>
 </defs>
</svg>
