<?xml version="1.0" encoding="utf-8" standalone="no"?>
<!DOCTYPE svg PUBLIC "-//W3C//DTD SVG 1.1//EN"
  "http://www.w3.org/Graphics/SVG/1.1/DTD/svg11.dtd">
<svg xmlns:xlink="http://www.w3.org/1999/xlink" width="1036.8pt" height="583.92pt" viewBox="0 0 1036.8 583.92" xmlns="http://www.w3.org/2000/svg" version="1.1">
 <metadata>
  <rdf:RDF xmlns:dc="http://purl.org/dc/elements/1.1/" xmlns:cc="http://creativecommons.org/ns#" xmlns:rdf="http://www.w3.org/1999/02/22-rdf-syntax-ns#">
   <cc:Work>
    <dc:type rdf:resource="http://purl.org/dc/dcmitype/StillImage"/>
    <dc:date>2024-01-26T18:10:59.536943</dc:date>
    <dc:format>image/svg+xml</dc:format>
    <dc:creator>
     <cc:Agent>
      <dc:title>Matplotlib v3.7.2, https://matplotlib.org/</dc:title>
     </cc:Agent>
    </dc:creator>
   </cc:Work>
  </rdf:RDF>
 </metadata>
 <defs>
  <style type="text/css">*{stroke-linejoin: round; stroke-linecap: butt}</style>
 </defs>
 <g id="figure_1">
  <g id="patch_1">
   <path d="M 0 583.92 
L 1036.8 583.92 
L 1036.8 0 
L 0 0 
z
" style="fill: #ffffff"/>
  </g>
  <g id="axes_1">
   <g id="patch_2">
    <path d="M 129.6 519.6888 
L 933.12 519.6888 
L 933.12 70.0704 
L 129.6 70.0704 
z
" style="fill: #ffffff"/>
   </g>
   <g id="matplotlib.axis_1">
    <g id="xtick_1">
     <g id="line2d_1">
      <defs>
       <path id="m0f2cdfc4ca" d="M 0 0 
L 0 3.5 
" style="stroke: #000000; stroke-width: 0.8"/>
      </defs>
      <g>
       <use xlink:href="#m0f2cdfc4ca" x="129.6" y="519.6888" style="stroke: #000000; stroke-width: 0.8"/>
      </g>
     </g>
     <g id="text_1">
      <!-- 0 -->
      <g transform="translate(126.41875 534.287237) scale(0.1 -0.1)">
       <defs>
        <path id="DejaVuSans-30" d="M 2034 4250 
Q 1547 4250 1301 3770 
Q 1056 3291 1056 2328 
Q 1056 1369 1301 889 
Q 1547 409 2034 409 
Q 2525 409 2770 889 
Q 3016 1369 3016 2328 
Q 3016 3291 2770 3770 
Q 2525 4250 2034 4250 
z
M 2034 4750 
Q 2819 4750 3233 4129 
Q 3647 3509 3647 2328 
Q 3647 1150 3233 529 
Q 2819 -91 2034 -91 
Q 1250 -91 836 529 
Q 422 1150 422 2328 
Q 422 3509 836 4129 
Q 1250 4750 2034 4750 
z
" transform="scale(0.015625)"/>
       </defs>
       <use xlink:href="#DejaVuSans-30"/>
      </g>
     </g>
    </g>
    <g id="xtick_2">
     <g id="line2d_2">
      <g>
       <use xlink:href="#m0f2cdfc4ca" x="287.152941" y="519.6888" style="stroke: #000000; stroke-width: 0.8"/>
      </g>
     </g>
     <g id="text_2">
      <!-- 50 -->
      <g transform="translate(280.790441 534.287237) scale(0.1 -0.1)">
       <defs>
        <path id="DejaVuSans-35" d="M 691 4666 
L 3169 4666 
L 3169 4134 
L 1269 4134 
L 1269 2991 
Q 1406 3038 1543 3061 
Q 1681 3084 1819 3084 
Q 2600 3084 3056 2656 
Q 3513 2228 3513 1497 
Q 3513 744 3044 326 
Q 2575 -91 1722 -91 
Q 1428 -91 1123 -41 
Q 819 9 494 109 
L 494 744 
Q 775 591 1075 516 
Q 1375 441 1709 441 
Q 2250 441 2565 725 
Q 2881 1009 2881 1497 
Q 2881 1984 2565 2268 
Q 2250 2553 1709 2553 
Q 1456 2553 1204 2497 
Q 953 2441 691 2322 
L 691 4666 
z
" transform="scale(0.015625)"/>
       </defs>
       <use xlink:href="#DejaVuSans-35"/>
       <use xlink:href="#DejaVuSans-30" x="63.623047"/>
      </g>
     </g>
    </g>
    <g id="xtick_3">
     <g id="line2d_3">
      <g>
       <use xlink:href="#m0f2cdfc4ca" x="444.705882" y="519.6888" style="stroke: #000000; stroke-width: 0.8"/>
      </g>
     </g>
     <g id="text_3">
      <!-- 100 -->
      <g transform="translate(435.162132 534.287237) scale(0.1 -0.1)">
       <defs>
        <path id="DejaVuSans-31" d="M 794 531 
L 1825 531 
L 1825 4091 
L 703 3866 
L 703 4441 
L 1819 4666 
L 2450 4666 
L 2450 531 
L 3481 531 
L 3481 0 
L 794 0 
L 794 531 
z
" transform="scale(0.015625)"/>
       </defs>
       <use xlink:href="#DejaVuSans-31"/>
       <use xlink:href="#DejaVuSans-30" x="63.623047"/>
       <use xlink:href="#DejaVuSans-30" x="127.246094"/>
      </g>
     </g>
    </g>
    <g id="xtick_4">
     <g id="line2d_4">
      <g>
       <use xlink:href="#m0f2cdfc4ca" x="602.258824" y="519.6888" style="stroke: #000000; stroke-width: 0.8"/>
      </g>
     </g>
     <g id="text_4">
      <!-- 150 -->
      <g transform="translate(592.715074 534.287237) scale(0.1 -0.1)">
       <use xlink:href="#DejaVuSans-31"/>
       <use xlink:href="#DejaVuSans-35" x="63.623047"/>
       <use xlink:href="#DejaVuSans-30" x="127.246094"/>
      </g>
     </g>
    </g>
    <g id="xtick_5">
     <g id="line2d_5">
      <g>
       <use xlink:href="#m0f2cdfc4ca" x="759.811765" y="519.6888" style="stroke: #000000; stroke-width: 0.8"/>
      </g>
     </g>
     <g id="text_5">
      <!-- 200 -->
      <g transform="translate(750.268015 534.287237) scale(0.1 -0.1)">
       <defs>
        <path id="DejaVuSans-32" d="M 1228 531 
L 3431 531 
L 3431 0 
L 469 0 
L 469 531 
Q 828 903 1448 1529 
Q 2069 2156 2228 2338 
Q 2531 2678 2651 2914 
Q 2772 3150 2772 3378 
Q 2772 3750 2511 3984 
Q 2250 4219 1831 4219 
Q 1534 4219 1204 4116 
Q 875 4013 500 3803 
L 500 4441 
Q 881 4594 1212 4672 
Q 1544 4750 1819 4750 
Q 2544 4750 2975 4387 
Q 3406 4025 3406 3419 
Q 3406 3131 3298 2873 
Q 3191 2616 2906 2266 
Q 2828 2175 2409 1742 
Q 1991 1309 1228 531 
z
" transform="scale(0.015625)"/>
       </defs>
       <use xlink:href="#DejaVuSans-32"/>
       <use xlink:href="#DejaVuSans-30" x="63.623047"/>
       <use xlink:href="#DejaVuSans-30" x="127.246094"/>
      </g>
     </g>
    </g>
    <g id="xtick_6">
     <g id="line2d_6">
      <g>
       <use xlink:href="#m0f2cdfc4ca" x="917.364706" y="519.6888" style="stroke: #000000; stroke-width: 0.8"/>
      </g>
     </g>
     <g id="text_6">
      <!-- 250 -->
      <g transform="translate(907.820956 534.287237) scale(0.1 -0.1)">
       <use xlink:href="#DejaVuSans-32"/>
       <use xlink:href="#DejaVuSans-35" x="63.623047"/>
       <use xlink:href="#DejaVuSans-30" x="127.246094"/>
      </g>
     </g>
    </g>
    <g id="text_7">
     <!-- Generated 8-bit Number -->
     <g transform="translate(470.060781 547.965362) scale(0.1 -0.1)">
      <defs>
       <path id="DejaVuSans-47" d="M 3809 666 
L 3809 1919 
L 2778 1919 
L 2778 2438 
L 4434 2438 
L 4434 434 
Q 4069 175 3628 42 
Q 3188 -91 2688 -91 
Q 1594 -91 976 548 
Q 359 1188 359 2328 
Q 359 3472 976 4111 
Q 1594 4750 2688 4750 
Q 3144 4750 3555 4637 
Q 3966 4525 4313 4306 
L 4313 3634 
Q 3963 3931 3569 4081 
Q 3175 4231 2741 4231 
Q 1884 4231 1454 3753 
Q 1025 3275 1025 2328 
Q 1025 1384 1454 906 
Q 1884 428 2741 428 
Q 3075 428 3337 486 
Q 3600 544 3809 666 
z
" transform="scale(0.015625)"/>
       <path id="DejaVuSans-65" d="M 3597 1894 
L 3597 1613 
L 953 1613 
Q 991 1019 1311 708 
Q 1631 397 2203 397 
Q 2534 397 2845 478 
Q 3156 559 3463 722 
L 3463 178 
Q 3153 47 2828 -22 
Q 2503 -91 2169 -91 
Q 1331 -91 842 396 
Q 353 884 353 1716 
Q 353 2575 817 3079 
Q 1281 3584 2069 3584 
Q 2775 3584 3186 3129 
Q 3597 2675 3597 1894 
z
M 3022 2063 
Q 3016 2534 2758 2815 
Q 2500 3097 2075 3097 
Q 1594 3097 1305 2825 
Q 1016 2553 972 2059 
L 3022 2063 
z
" transform="scale(0.015625)"/>
       <path id="DejaVuSans-6e" d="M 3513 2113 
L 3513 0 
L 2938 0 
L 2938 2094 
Q 2938 2591 2744 2837 
Q 2550 3084 2163 3084 
Q 1697 3084 1428 2787 
Q 1159 2491 1159 1978 
L 1159 0 
L 581 0 
L 581 3500 
L 1159 3500 
L 1159 2956 
Q 1366 3272 1645 3428 
Q 1925 3584 2291 3584 
Q 2894 3584 3203 3211 
Q 3513 2838 3513 2113 
z
" transform="scale(0.015625)"/>
       <path id="DejaVuSans-72" d="M 2631 2963 
Q 2534 3019 2420 3045 
Q 2306 3072 2169 3072 
Q 1681 3072 1420 2755 
Q 1159 2438 1159 1844 
L 1159 0 
L 581 0 
L 581 3500 
L 1159 3500 
L 1159 2956 
Q 1341 3275 1631 3429 
Q 1922 3584 2338 3584 
Q 2397 3584 2469 3576 
Q 2541 3569 2628 3553 
L 2631 2963 
z
" transform="scale(0.015625)"/>
       <path id="DejaVuSans-61" d="M 2194 1759 
Q 1497 1759 1228 1600 
Q 959 1441 959 1056 
Q 959 750 1161 570 
Q 1363 391 1709 391 
Q 2188 391 2477 730 
Q 2766 1069 2766 1631 
L 2766 1759 
L 2194 1759 
z
M 3341 1997 
L 3341 0 
L 2766 0 
L 2766 531 
Q 2569 213 2275 61 
Q 1981 -91 1556 -91 
Q 1019 -91 701 211 
Q 384 513 384 1019 
Q 384 1609 779 1909 
Q 1175 2209 1959 2209 
L 2766 2209 
L 2766 2266 
Q 2766 2663 2505 2880 
Q 2244 3097 1772 3097 
Q 1472 3097 1187 3025 
Q 903 2953 641 2809 
L 641 3341 
Q 956 3463 1253 3523 
Q 1550 3584 1831 3584 
Q 2591 3584 2966 3190 
Q 3341 2797 3341 1997 
z
" transform="scale(0.015625)"/>
       <path id="DejaVuSans-74" d="M 1172 4494 
L 1172 3500 
L 2356 3500 
L 2356 3053 
L 1172 3053 
L 1172 1153 
Q 1172 725 1289 603 
Q 1406 481 1766 481 
L 2356 481 
L 2356 0 
L 1766 0 
Q 1100 0 847 248 
Q 594 497 594 1153 
L 594 3053 
L 172 3053 
L 172 3500 
L 594 3500 
L 594 4494 
L 1172 4494 
z
" transform="scale(0.015625)"/>
       <path id="DejaVuSans-64" d="M 2906 2969 
L 2906 4863 
L 3481 4863 
L 3481 0 
L 2906 0 
L 2906 525 
Q 2725 213 2448 61 
Q 2172 -91 1784 -91 
Q 1150 -91 751 415 
Q 353 922 353 1747 
Q 353 2572 751 3078 
Q 1150 3584 1784 3584 
Q 2172 3584 2448 3432 
Q 2725 3281 2906 2969 
z
M 947 1747 
Q 947 1113 1208 752 
Q 1469 391 1925 391 
Q 2381 391 2643 752 
Q 2906 1113 2906 1747 
Q 2906 2381 2643 2742 
Q 2381 3103 1925 3103 
Q 1469 3103 1208 2742 
Q 947 2381 947 1747 
z
" transform="scale(0.015625)"/>
       <path id="DejaVuSans-20" transform="scale(0.015625)"/>
       <path id="DejaVuSans-38" d="M 2034 2216 
Q 1584 2216 1326 1975 
Q 1069 1734 1069 1313 
Q 1069 891 1326 650 
Q 1584 409 2034 409 
Q 2484 409 2743 651 
Q 3003 894 3003 1313 
Q 3003 1734 2745 1975 
Q 2488 2216 2034 2216 
z
M 1403 2484 
Q 997 2584 770 2862 
Q 544 3141 544 3541 
Q 544 4100 942 4425 
Q 1341 4750 2034 4750 
Q 2731 4750 3128 4425 
Q 3525 4100 3525 3541 
Q 3525 3141 3298 2862 
Q 3072 2584 2669 2484 
Q 3125 2378 3379 2068 
Q 3634 1759 3634 1313 
Q 3634 634 3220 271 
Q 2806 -91 2034 -91 
Q 1263 -91 848 271 
Q 434 634 434 1313 
Q 434 1759 690 2068 
Q 947 2378 1403 2484 
z
M 1172 3481 
Q 1172 3119 1398 2916 
Q 1625 2713 2034 2713 
Q 2441 2713 2670 2916 
Q 2900 3119 2900 3481 
Q 2900 3844 2670 4047 
Q 2441 4250 2034 4250 
Q 1625 4250 1398 4047 
Q 1172 3844 1172 3481 
z
" transform="scale(0.015625)"/>
       <path id="DejaVuSans-2d" d="M 313 2009 
L 1997 2009 
L 1997 1497 
L 313 1497 
L 313 2009 
z
" transform="scale(0.015625)"/>
       <path id="DejaVuSans-62" d="M 3116 1747 
Q 3116 2381 2855 2742 
Q 2594 3103 2138 3103 
Q 1681 3103 1420 2742 
Q 1159 2381 1159 1747 
Q 1159 1113 1420 752 
Q 1681 391 2138 391 
Q 2594 391 2855 752 
Q 3116 1113 3116 1747 
z
M 1159 2969 
Q 1341 3281 1617 3432 
Q 1894 3584 2278 3584 
Q 2916 3584 3314 3078 
Q 3713 2572 3713 1747 
Q 3713 922 3314 415 
Q 2916 -91 2278 -91 
Q 1894 -91 1617 61 
Q 1341 213 1159 525 
L 1159 0 
L 581 0 
L 581 4863 
L 1159 4863 
L 1159 2969 
z
" transform="scale(0.015625)"/>
       <path id="DejaVuSans-69" d="M 603 3500 
L 1178 3500 
L 1178 0 
L 603 0 
L 603 3500 
z
M 603 4863 
L 1178 4863 
L 1178 4134 
L 603 4134 
L 603 4863 
z
" transform="scale(0.015625)"/>
       <path id="DejaVuSans-4e" d="M 628 4666 
L 1478 4666 
L 3547 763 
L 3547 4666 
L 4159 4666 
L 4159 0 
L 3309 0 
L 1241 3903 
L 1241 0 
L 628 0 
L 628 4666 
z
" transform="scale(0.015625)"/>
       <path id="DejaVuSans-75" d="M 544 1381 
L 544 3500 
L 1119 3500 
L 1119 1403 
Q 1119 906 1312 657 
Q 1506 409 1894 409 
Q 2359 409 2629 706 
Q 2900 1003 2900 1516 
L 2900 3500 
L 3475 3500 
L 3475 0 
L 2900 0 
L 2900 538 
Q 2691 219 2414 64 
Q 2138 -91 1772 -91 
Q 1169 -91 856 284 
Q 544 659 544 1381 
z
M 1991 3584 
L 1991 3584 
z
" transform="scale(0.015625)"/>
       <path id="DejaVuSans-6d" d="M 3328 2828 
Q 3544 3216 3844 3400 
Q 4144 3584 4550 3584 
Q 5097 3584 5394 3201 
Q 5691 2819 5691 2113 
L 5691 0 
L 5113 0 
L 5113 2094 
Q 5113 2597 4934 2840 
Q 4756 3084 4391 3084 
Q 3944 3084 3684 2787 
Q 3425 2491 3425 1978 
L 3425 0 
L 2847 0 
L 2847 2094 
Q 2847 2600 2669 2842 
Q 2491 3084 2119 3084 
Q 1678 3084 1418 2786 
Q 1159 2488 1159 1978 
L 1159 0 
L 581 0 
L 581 3500 
L 1159 3500 
L 1159 2956 
Q 1356 3278 1631 3431 
Q 1906 3584 2284 3584 
Q 2666 3584 2933 3390 
Q 3200 3197 3328 2828 
z
" transform="scale(0.015625)"/>
      </defs>
      <use xlink:href="#DejaVuSans-47"/>
      <use xlink:href="#DejaVuSans-65" x="77.490234"/>
      <use xlink:href="#DejaVuSans-6e" x="139.013672"/>
      <use xlink:href="#DejaVuSans-65" x="202.392578"/>
      <use xlink:href="#DejaVuSans-72" x="263.916016"/>
      <use xlink:href="#DejaVuSans-61" x="305.029297"/>
      <use xlink:href="#DejaVuSans-74" x="366.308594"/>
      <use xlink:href="#DejaVuSans-65" x="405.517578"/>
      <use xlink:href="#DejaVuSans-64" x="467.041016"/>
      <use xlink:href="#DejaVuSans-20" x="530.517578"/>
      <use xlink:href="#DejaVuSans-38" x="562.304688"/>
      <use xlink:href="#DejaVuSans-2d" x="625.927734"/>
      <use xlink:href="#DejaVuSans-62" x="662.011719"/>
      <use xlink:href="#DejaVuSans-69" x="725.488281"/>
      <use xlink:href="#DejaVuSans-74" x="753.271484"/>
      <use xlink:href="#DejaVuSans-20" x="792.480469"/>
      <use xlink:href="#DejaVuSans-4e" x="824.267578"/>
      <use xlink:href="#DejaVuSans-75" x="899.072266"/>
      <use xlink:href="#DejaVuSans-6d" x="962.451172"/>
      <use xlink:href="#DejaVuSans-62" x="1059.863281"/>
      <use xlink:href="#DejaVuSans-65" x="1123.339844"/>
      <use xlink:href="#DejaVuSans-72" x="1184.863281"/>
     </g>
    </g>
   </g>
   <g id="matplotlib.axis_2">
    <g id="ytick_1">
     <g id="line2d_7">
      <defs>
       <path id="m5fe5b122ef" d="M 0 0 
L -3.5 0 
" style="stroke: #000000; stroke-width: 0.8"/>
      </defs>
      <g>
       <use xlink:href="#m5fe5b122ef" x="129.6" y="507.64545" style="stroke: #000000; stroke-width: 0.8"/>
      </g>
     </g>
     <g id="text_8">
      <!-- 0 -->
      <g transform="translate(116.2375 511.444669) scale(0.1 -0.1)">
       <use xlink:href="#DejaVuSans-30"/>
      </g>
     </g>
    </g>
    <g id="ytick_2">
     <g id="line2d_8">
      <g>
       <use xlink:href="#m5fe5b122ef" x="129.6" y="416.40795" style="stroke: #000000; stroke-width: 0.8"/>
      </g>
     </g>
     <g id="text_9">
      <!-- 500 -->
      <g transform="translate(103.5125 420.207169) scale(0.1 -0.1)">
       <use xlink:href="#DejaVuSans-35"/>
       <use xlink:href="#DejaVuSans-30" x="63.623047"/>
       <use xlink:href="#DejaVuSans-30" x="127.246094"/>
      </g>
     </g>
    </g>
    <g id="ytick_3">
     <g id="line2d_9">
      <g>
       <use xlink:href="#m5fe5b122ef" x="129.6" y="325.17045" style="stroke: #000000; stroke-width: 0.8"/>
      </g>
     </g>
     <g id="text_10">
      <!-- 1000 -->
      <g transform="translate(97.15 328.969669) scale(0.1 -0.1)">
       <use xlink:href="#DejaVuSans-31"/>
       <use xlink:href="#DejaVuSans-30" x="63.623047"/>
       <use xlink:href="#DejaVuSans-30" x="127.246094"/>
       <use xlink:href="#DejaVuSans-30" x="190.869141"/>
      </g>
     </g>
    </g>
    <g id="ytick_4">
     <g id="line2d_10">
      <g>
       <use xlink:href="#m5fe5b122ef" x="129.6" y="233.93295" style="stroke: #000000; stroke-width: 0.8"/>
      </g>
     </g>
     <g id="text_11">
      <!-- 1500 -->
      <g transform="translate(97.15 237.732169) scale(0.1 -0.1)">
       <use xlink:href="#DejaVuSans-31"/>
       <use xlink:href="#DejaVuSans-35" x="63.623047"/>
       <use xlink:href="#DejaVuSans-30" x="127.246094"/>
       <use xlink:href="#DejaVuSans-30" x="190.869141"/>
      </g>
     </g>
    </g>
    <g id="ytick_5">
     <g id="line2d_11">
      <g>
       <use xlink:href="#m5fe5b122ef" x="129.6" y="142.69545" style="stroke: #000000; stroke-width: 0.8"/>
      </g>
     </g>
     <g id="text_12">
      <!-- 2000 -->
      <g transform="translate(97.15 146.494669) scale(0.1 -0.1)">
       <use xlink:href="#DejaVuSans-32"/>
       <use xlink:href="#DejaVuSans-30" x="63.623047"/>
       <use xlink:href="#DejaVuSans-30" x="127.246094"/>
       <use xlink:href="#DejaVuSans-30" x="190.869141"/>
      </g>
     </g>
    </g>
    <g id="text_13">
     <!-- p -->
     <g transform="translate(91.070312 298.053819) rotate(-90) scale(0.1 -0.1)">
      <defs>
       <path id="DejaVuSans-70" d="M 1159 525 
L 1159 -1331 
L 581 -1331 
L 581 3500 
L 1159 3500 
L 1159 2969 
Q 1341 3281 1617 3432 
Q 1894 3584 2278 3584 
Q 2916 3584 3314 3078 
Q 3713 2572 3713 1747 
Q 3713 922 3314 415 
Q 2916 -91 2278 -91 
Q 1894 -91 1617 61 
Q 1341 213 1159 525 
z
M 3116 1747 
Q 3116 2381 2855 2742 
Q 2594 3103 2138 3103 
Q 1681 3103 1420 2742 
Q 1159 2381 1159 1747 
Q 1159 1113 1420 752 
Q 1681 391 2138 391 
Q 2594 391 2855 752 
Q 3116 1113 3116 1747 
z
" transform="scale(0.015625)"/>
      </defs>
      <use xlink:href="#DejaVuSans-70"/>
     </g>
    </g>
   </g>
   <g id="line2d_12">
    <path d="M 129.6 449.435925 
L 132.751059 440.312175 
L 135.902118 436.84515 
L 139.053176 441.771975 
L 142.204235 443.961675 
L 145.355294 440.677125 
L 148.506353 442.501875 
L 151.657412 438.6699 
L 154.808471 440.677125 
L 157.959529 439.76475 
L 161.110588 441.22455 
L 164.261647 431.73585 
L 167.412706 444.691575 
L 170.563765 435.7503 
L 173.714824 434.108025 
L 176.865882 432.648225 
L 180.016941 440.312175 
L 183.168 437.57505 
L 186.319059 443.596725 
L 189.470118 442.68435 
L 192.621176 439.947225 
L 195.772235 440.1297 
L 198.923294 434.2905 
L 202.074353 442.866825 
L 205.225412 442.501875 
L 208.376471 438.30495 
L 214.678588 439.76475 
L 217.829647 436.84515 
L 220.980706 432.46575 
L 224.131765 432.648225 
L 227.282824 430.641 
L 230.433882 439.582275 
L 233.584941 443.0493 
L 236.736 443.231775 
L 239.887059 437.94 
L 243.038118 436.11525 
L 246.189176 437.757525 
L 249.340235 438.487425 
L 252.491294 435.7503 
L 255.642353 441.407025 
L 258.793412 436.11525 
L 261.944471 440.8596 
L 265.095529 437.027625 
L 268.246588 439.76475 
L 271.397647 436.662675 
L 274.548706 435.202875 
L 277.699765 432.46575 
L 280.850824 443.7792 
L 284.001882 435.932775 
L 287.152941 443.41425 
L 290.304 436.662675 
L 293.455059 437.757525 
L 296.606118 439.947225 
L 299.757176 438.30495 
L 302.908235 435.38535 
L 306.059294 438.6699 
L 309.210353 431.00595 
L 312.361412 437.757525 
L 315.512471 425.714175 
L 318.663529 438.487425 
L 321.814588 434.837925 
L 324.965647 435.0204 
L 328.116706 430.458525 
L 331.267765 443.7792 
L 334.418824 437.392575 
L 340.720941 439.582275 
L 343.872 438.487425 
L 347.023059 435.567825 
L 350.174118 435.38535 
L 353.325176 439.3998 
L 356.476235 438.852375 
L 359.627294 443.961675 
L 362.778353 439.76475 
L 365.929412 435.0204 
L 369.080471 435.38535 
L 372.231529 442.501875 
L 375.382588 440.312175 
L 378.533647 428.08635 
L 381.684706 437.57505 
L 384.835765 440.8596 
L 387.986824 440.312175 
L 391.137882 428.08635 
L 394.288941 439.03485 
L 397.44 429.728625 
L 400.591059 436.84515 
L 403.742118 436.84515 
L 406.893176 441.042075 
L 410.044235 437.027625 
L 413.195294 437.757525 
L 416.346353 434.108025 
L 419.497412 434.108025 
L 422.648471 434.2905 
L 425.799529 433.743075 
L 428.950588 430.823475 
L 432.101647 439.3998 
L 435.252706 438.6699 
L 438.403765 434.472975 
L 441.554824 440.1297 
L 444.705882 438.30495 
L 447.856941 433.013175 
L 451.008 430.823475 
L 454.159059 436.84515 
L 457.310118 439.03485 
L 460.461176 437.027625 
L 463.612235 434.65545 
L 466.763294 433.743075 
L 469.914353 436.84515 
L 473.065412 431.73585 
L 476.216471 433.5606 
L 479.367529 428.268825 
L 482.518588 442.866825 
L 485.669647 435.7503 
L 488.820706 435.567825 
L 491.971765 433.92555 
L 495.122824 437.57505 
L 498.273882 431.553375 
L 501.424941 439.582275 
L 504.576 435.202875 
L 510.878118 438.487425 
L 514.029176 427.173975 
L 517.180235 437.57505 
L 520.331294 426.444075 
L 523.482353 436.297725 
L 526.633412 436.662675 
L 529.784471 431.73585 
L 532.935529 447.246225 
L 536.086588 438.487425 
L 539.237647 440.8596 
L 542.388706 433.743075 
L 545.539765 437.94 
L 548.690824 443.961675 
L 551.841882 444.14415 
L 554.992941 434.837925 
L 558.144 441.5895 
L 561.295059 439.582275 
L 564.446118 434.837925 
L 567.597176 433.013175 
L 570.748235 441.042075 
L 573.899294 432.648225 
L 577.050353 439.3998 
L 580.201412 437.392575 
L 583.352471 439.947225 
L 586.503529 436.297725 
L 589.654588 440.49465 
L 592.805647 434.65545 
L 595.956706 441.5895 
L 599.107765 434.65545 
L 602.258824 435.567825 
L 605.409882 440.677125 
L 608.560941 432.283275 
L 611.712 431.918325 
L 614.863059 434.65545 
L 618.014118 432.283275 
L 621.165176 445.9689 
L 624.316235 431.73585 
L 627.467294 428.268825 
L 630.618353 432.648225 
L 633.769412 441.042075 
L 636.920471 443.961675 
L 640.071529 439.217325 
L 643.222588 435.0204 
L 646.373647 440.49465 
L 649.524706 431.188425 
L 652.675765 433.378125 
L 655.826824 428.08635 
L 658.977882 439.76475 
L 662.128941 435.7503 
L 665.28 435.38535 
L 668.431059 442.501875 
L 671.582118 432.648225 
L 674.733176 434.108025 
L 677.884235 431.00595 
L 681.035294 430.823475 
L 684.186353 440.677125 
L 687.337412 440.8596 
L 690.488471 436.11525 
L 693.639529 434.837925 
L 696.790588 442.501875 
L 699.941647 433.92555 
L 703.092706 436.4802 
L 706.243765 435.38535 
L 709.394824 436.662675 
L 712.545882 439.3998 
L 715.696941 437.392575 
L 718.848 435.202875 
L 721.999059 431.3709 
L 725.150118 436.4802 
L 728.301176 432.8307 
L 731.452235 428.4513 
L 734.603294 443.231775 
L 737.754353 438.122475 
L 740.905412 441.407025 
L 744.056471 439.582275 
L 747.207529 432.8307 
L 750.358588 435.7503 
L 753.509647 437.94 
L 756.660706 432.283275 
L 759.811765 437.392575 
L 762.962824 433.92555 
L 766.113882 439.3998 
L 769.264941 431.918325 
L 772.416 440.677125 
L 775.567059 439.3998 
L 778.718118 435.0204 
L 781.869176 434.108025 
L 785.020235 434.65545 
L 788.171294 433.92555 
L 791.322353 436.662675 
L 794.473412 435.0204 
L 797.624471 436.4802 
L 800.775529 430.093575 
L 803.926588 431.188425 
L 807.077647 435.567825 
L 810.228706 435.202875 
L 813.379765 440.8596 
L 816.530824 433.19565 
L 819.681882 433.378125 
L 822.832941 428.998725 
L 825.984 429.54615 
L 829.135059 432.648225 
L 832.286118 430.458525 
L 835.437176 428.08635 
L 838.588235 437.392575 
L 841.739294 429.728625 
L 844.890353 437.57505 
L 848.041412 437.57505 
L 851.192471 437.392575 
L 854.343529 438.30495 
L 857.494588 439.3998 
L 860.645647 434.108025 
L 863.796706 433.19565 
L 866.947765 435.0204 
L 870.098824 433.013175 
L 873.249882 435.0204 
L 876.400941 428.08635 
L 879.552 437.57505 
L 882.703059 428.4513 
L 885.854118 437.2101 
L 889.005176 432.283275 
L 892.156235 432.648225 
L 895.307294 426.2616 
L 898.458353 435.932775 
L 901.609412 433.5606 
L 904.760471 437.94 
L 907.911529 436.11525 
L 911.062588 435.567825 
L 914.213647 438.122475 
L 917.364706 422.794575 
L 920.515765 435.567825 
L 923.666824 431.73585 
L 926.817882 430.458525 
L 929.968941 431.00595 
L 933.12 427.538925 
L 933.12 427.538925 
" clip-path="url(#p91a8968c12)" style="fill: none; stroke: #1f77b4; stroke-opacity: 0.5; stroke-width: 1.5; stroke-linecap: square"/>
   </g>
   <g id="line2d_13">
    <path d="M 129.6 499.2516 
L 132.751059 495.6021 
L 135.902118 496.69695 
L 139.053176 491.040225 
L 142.204235 497.0619 
L 145.355294 487.755675 
L 148.506353 488.66805 
L 151.657412 476.077275 
L 154.808471 495.419625 
L 157.959529 489.580425 
L 161.110588 489.215475 
L 164.261647 475.8948 
L 167.412706 485.565975 
L 170.563765 472.61025 
L 173.714824 474.252525 
L 176.865882 451.44315 
L 180.016941 495.054675 
L 183.168 486.47835 
L 186.319059 486.660825 
L 189.470118 473.157675 
L 192.621176 489.580425 
L 195.772235 474.07005 
L 198.923294 477.902025 
L 202.074353 455.275125 
L 205.225412 488.120625 
L 208.376471 475.347375 
L 211.527529 472.61025 
L 214.678588 447.79365 
L 217.829647 471.88035 
L 220.980706 452.538 
L 224.131765 448.8885 
L 227.282824 417.685275 
L 230.433882 495.23715 
L 233.584941 489.7629 
L 236.736 489.033 
L 239.887059 473.522625 
L 243.038118 488.3031 
L 246.189176 474.07005 
L 249.340235 476.807175 
L 252.491294 448.1586 
L 255.642353 489.580425 
L 258.793412 475.712325 
L 261.944471 474.79995 
L 265.095529 450.530775 
L 268.246588 469.143225 
L 271.397647 451.260675 
L 274.548706 454.36275 
L 277.699765 419.510025 
L 280.850824 486.660825 
L 284.001882 474.617475 
L 287.152941 472.427775 
L 290.304 444.14415 
L 293.455059 474.435 
L 296.606118 458.01225 
L 299.757176 453.2679 
L 302.908235 410.56875 
L 306.059294 468.23085 
L 309.210353 453.815325 
L 312.361412 447.976125 
L 315.512471 416.225475 
L 318.663529 448.8885 
L 321.814588 416.40795 
L 324.965647 413.670825 
L 328.116706 360.5706 
L 331.267765 494.50725 
L 334.418824 486.47835 
L 337.569882 488.485575 
L 340.720941 475.347375 
L 343.872 485.3835 
L 347.023059 468.23085 
L 350.174118 474.79995 
L 353.325176 455.09265 
L 356.476235 486.295875 
L 359.627294 476.6247 
L 362.778353 471.5154 
L 365.929412 451.260675 
L 369.080471 473.7051 
L 372.231529 456.9174 
L 375.382588 456.734925 
L 378.533647 416.225475 
L 381.684706 486.1134 
L 384.835765 472.2453 
L 387.986824 470.7855 
L 391.137882 450.530775 
L 394.288941 472.792725 
L 397.44 451.990575 
L 400.591059 452.720475 
L 403.742118 415.495575 
L 406.893176 475.8948 
L 410.044235 452.720475 
L 413.195294 447.79365 
L 416.346353 416.40795 
L 419.497412 453.63285 
L 422.648471 414.765675 
L 425.799529 421.334775 
L 428.950588 358.01595 
L 432.101647 489.945375 
L 435.252706 474.07005 
L 438.403765 474.07005 
L 441.554824 449.435925 
L 444.705882 472.9752 
L 447.856941 452.355525 
L 451.008 452.538 
L 454.159059 418.59765 
L 457.310118 474.435 
L 460.461176 449.435925 
L 463.612235 451.0782 
L 466.763294 407.831625 
L 469.914353 449.070975 
L 473.065412 413.670825 
L 476.216471 407.831625 
L 479.367529 362.7603 
L 482.518588 472.61025 
L 485.669647 446.6988 
L 488.820706 451.625625 
L 491.971765 421.334775 
L 495.122824 450.3483 
L 498.273882 420.78735 
L 501.424941 414.21825 
L 504.576 354.183975 
L 507.727059 447.976125 
L 510.878118 425.5317 
L 514.029176 412.3935 
L 517.180235 358.01595 
L 520.331294 413.305875 
L 523.482353 357.833475 
L 526.633412 347.979825 
L 529.784471 257.28975 
L 532.935529 497.0619 
L 536.086588 487.93815 
L 539.237647 488.850525 
L 542.388706 477.537075 
L 545.539765 486.295875 
L 548.690824 472.792725 
L 551.841882 471.697875 
L 554.992941 453.085425 
L 558.144 485.565975 
L 561.295059 477.172125 
L 564.446118 475.347375 
L 567.597176 454.910175 
L 570.748235 476.25975 
L 573.899294 448.341075 
L 577.050353 456.369975 
L 580.201412 416.590425 
L 583.352471 488.485575 
L 586.503529 473.34015 
L 589.654588 474.252525 
L 592.805647 450.71325 
L 595.956706 474.982425 
L 599.107765 454.910175 
L 602.258824 450.895725 
L 605.409882 416.7729 
L 608.560941 470.7855 
L 611.712 453.450375 
L 614.863059 454.180275 
L 618.014118 416.7729 
L 621.165176 456.734925 
L 624.316235 415.67805 
L 627.467294 416.7729 
L 630.618353 347.979825 
L 633.769412 489.215475 
L 636.920471 472.9752 
L 640.071529 474.79995 
L 643.222588 454.545225 
L 646.373647 471.332925 
L 649.524706 448.341075 
L 652.675765 451.8081 
L 655.826824 419.32755 
L 658.977882 476.442225 
L 662.128941 454.36275 
L 665.28 451.260675 
L 668.431059 412.3935 
L 671.582118 446.516325 
L 674.733176 423.159525 
L 677.884235 418.2327 
L 681.035294 349.25715 
L 684.186353 475.52985 
L 687.337412 463.304025 
L 690.488471 447.246225 
L 693.639529 408.561525 
L 696.790588 452.355525 
L 699.941647 415.130625 
L 703.092706 417.5028 
L 706.243765 353.454075 
L 709.394824 444.691575 
L 712.545882 414.94815 
L 715.696941 412.3935 
L 718.848 362.577825 
L 721.999059 415.860525 
L 725.150118 351.0819 
L 728.301176 362.212875 
L 731.452235 272.800125 
L 734.603294 487.5732 
L 737.754353 472.427775 
L 740.905412 474.617475 
L 744.056471 454.545225 
L 747.207529 474.982425 
L 750.358588 454.7277 
L 753.509647 449.800875 
L 756.660706 409.10895 
L 759.811765 470.603025 
L 762.962824 448.8885 
L 766.113882 449.800875 
L 769.264941 417.13785 
L 772.416 449.6184 
L 775.567059 416.955375 
L 778.718118 409.656375 
L 781.869176 357.833475 
L 785.020235 467.8659 
L 788.171294 453.815325 
L 791.322353 455.82255 
L 794.473412 410.386275 
L 797.624471 455.4576 
L 800.775529 410.2038 
L 803.926588 415.130625 
L 807.077647 360.388125 
L 810.228706 453.63285 
L 813.379765 408.561525 
L 816.530824 414.5832 
L 819.681882 351.994275 
L 822.832941 423.342 
L 825.984 347.06745 
L 829.135059 355.4613 
L 832.286118 256.012425 
L 835.437176 475.712325 
L 838.588235 452.720475 
L 841.739294 461.2968 
L 844.890353 416.043 
L 848.041412 448.706025 
L 851.192471 419.874975 
L 854.343529 416.7729 
L 857.494588 361.66545 
L 860.645647 450.71325 
L 863.796706 418.050225 
L 866.947765 417.13785 
L 870.098824 364.767525 
L 873.249882 416.225475 
L 876.400941 360.5706 
L 879.552 358.928325 
L 882.703059 252.727875 
L 885.854118 453.9978 
L 889.005176 418.59765 
L 892.156235 412.940925 
L 895.307294 356.55615 
L 898.458353 415.495575 
L 901.609412 349.98705 
L 904.760471 349.98705 
L 907.911529 255.10005 
L 911.062588 416.955375 
L 914.213647 351.44685 
L 917.364706 363.672675 
L 920.515765 261.851625 
L 923.666824 365.862375 
L 926.817882 254.7351 
L 929.968941 254.0052 
L 933.12 90.5076 
L 933.12 90.5076 
" clip-path="url(#p91a8968c12)" style="fill: none; stroke: #ff7f0e; stroke-opacity: 0.6; stroke-width: 1.5; stroke-linecap: square"/>
   </g>
   <g id="line2d_14">
    <path d="M 129.6 396.153225 
L 132.751059 405.0945 
L 135.902118 406.006875 
L 139.053176 421.51725 
L 142.204235 405.45945 
L 145.355294 427.173975 
L 148.506353 421.8822 
L 151.657412 426.62655 
L 154.808471 409.83885 
L 157.959529 419.510025 
L 161.110588 422.429625 
L 164.261647 429.1812 
L 167.412706 420.05745 
L 170.563765 425.5317 
L 173.714824 424.254375 
L 176.865882 436.84515 
L 180.016941 407.64915 
L 183.168 414.765675 
L 186.319059 413.8533 
L 189.470118 426.2616 
L 192.621176 418.2327 
L 195.772235 430.093575 
L 198.923294 423.159525 
L 202.074353 439.947225 
L 205.225412 414.5832 
L 208.376471 422.794575 
L 214.678588 435.7503 
L 217.829647 432.648225 
L 220.980706 438.30495 
L 224.131765 436.84515 
L 227.282824 444.691575 
L 230.433882 409.656375 
L 233.584941 420.4224 
L 236.736 412.940925 
L 239.887059 430.093575 
L 243.038118 411.29865 
L 246.189176 430.641 
L 249.340235 429.363675 
L 252.491294 439.76475 
L 255.642353 420.969825 
L 258.793412 430.641 
L 261.944471 433.5606 
L 265.095529 435.38535 
L 268.246588 434.65545 
L 271.397647 439.76475 
L 274.548706 428.633775 
L 277.699765 451.260675 
L 280.850824 412.940925 
L 284.001882 423.70695 
L 287.152941 432.648225 
L 290.304 433.92555 
L 293.455059 426.809025 
L 296.606118 439.217325 
L 299.757176 430.823475 
L 302.908235 447.79365 
L 306.059294 434.108025 
L 309.210353 435.0204 
L 312.361412 434.472975 
L 315.512471 440.8596 
L 318.663529 438.122475 
L 321.814588 446.6988 
L 324.965647 444.14415 
L 328.116706 452.720475 
L 331.267765 408.0141 
L 334.418824 419.145075 
L 337.569882 414.400725 
L 340.720941 422.6121 
L 343.872 417.685275 
L 347.023059 426.62655 
L 350.174118 427.35645 
L 353.325176 441.042075 
L 356.476235 418.415175 
L 359.627294 426.444075 
L 362.778353 427.7214 
L 365.929412 436.662675 
L 369.080471 425.349225 
L 372.231529 441.22455 
L 375.382588 434.837925 
L 378.533647 447.246225 
L 381.684706 420.05745 
L 384.835765 432.8307 
L 387.986824 431.188425 
L 391.137882 429.1812 
L 394.288941 428.4513 
L 397.44 435.0204 
L 400.591059 440.49465 
L 403.742118 448.52355 
L 406.893176 429.9111 
L 410.044235 435.567825 
L 413.195294 432.46575 
L 416.346353 443.0493 
L 419.497412 444.87405 
L 422.648471 451.44315 
L 425.799529 448.52355 
L 428.950588 455.275125 
L 432.101647 426.62655 
L 435.252706 427.35645 
L 438.403765 416.7729 
L 441.554824 439.03485 
L 444.705882 425.89665 
L 447.856941 439.76475 
L 451.008 438.122475 
L 454.159059 445.786425 
L 457.310118 429.1812 
L 460.461176 443.231775 
L 463.612235 438.30495 
L 466.763294 443.41425 
L 469.914353 438.30495 
L 473.065412 438.487425 
L 476.216471 449.435925 
L 479.367529 452.720475 
L 482.518588 423.70695 
L 485.669647 439.947225 
L 488.820706 431.918325 
L 491.971765 448.8885 
L 495.122824 441.95445 
L 498.273882 446.151375 
L 501.424941 438.122475 
L 504.576 448.341075 
L 507.727059 435.7503 
L 510.878118 449.070975 
L 514.029176 442.866825 
L 517.180235 449.800875 
L 520.331294 447.246225 
L 523.482353 454.180275 
L 526.633412 451.0782 
L 529.784471 457.28235 
L 532.935529 404.182125 
L 536.086588 410.386275 
L 539.237647 422.24715 
L 542.388706 431.73585 
L 545.539765 423.889425 
L 548.690824 428.268825 
L 551.841882 431.188425 
L 554.992941 446.516325 
L 558.144 422.6121 
L 561.295059 431.918325 
L 564.446118 433.19565 
L 567.597176 433.5606 
L 570.748235 422.97705 
L 573.899294 435.0204 
L 577.050353 437.94 
L 580.201412 444.326625 
L 583.352471 418.050225 
L 586.503529 425.714175 
L 589.654588 431.3709 
L 592.805647 435.38535 
L 595.956706 434.837925 
L 599.107765 435.7503 
L 602.258824 440.1297 
L 605.409882 449.6184 
L 608.560941 435.202875 
L 611.712 434.65545 
L 614.863059 436.11525 
L 618.014118 440.677125 
L 621.165176 435.567825 
L 624.316235 444.5091 
L 627.467294 448.341075 
L 630.618353 454.545225 
L 633.769412 414.035775 
L 636.920471 427.7214 
L 640.071529 430.641 
L 643.222588 437.757525 
L 646.373647 431.918325 
L 649.524706 435.932775 
L 652.675765 435.567825 
L 655.826824 442.3194 
L 658.977882 426.444075 
L 662.128941 436.297725 
L 665.28 435.0204 
L 668.431059 445.421475 
L 671.582118 436.4802 
L 674.733176 447.611175 
L 677.884235 447.611175 
L 681.035294 452.538 
L 684.186353 429.728625 
L 687.337412 432.283275 
L 690.488471 439.947225 
L 693.639529 439.76475 
L 696.790588 438.487425 
L 699.941647 449.435925 
L 703.092706 446.881275 
L 706.243765 454.36275 
L 709.394824 429.363675 
L 712.545882 448.706025 
L 715.696941 445.239 
L 718.848 451.625625 
L 721.999059 446.6988 
L 725.150118 455.4576 
L 728.301176 453.63285 
L 731.452235 462.0267 
L 734.603294 421.334775 
L 737.754353 428.08635 
L 740.905412 428.633775 
L 744.056471 433.92555 
L 747.207529 424.619325 
L 750.358588 439.217325 
L 753.509647 437.392575 
L 756.660706 453.450375 
L 759.811765 431.188425 
L 762.962824 442.501875 
L 766.113882 437.757525 
L 769.264941 444.14415 
L 772.416 437.57505 
L 775.567059 451.8081 
L 778.718118 444.87405 
L 781.869176 452.90295 
L 785.020235 433.378125 
L 788.171294 431.3709 
L 791.322353 437.757525 
L 794.473412 446.516325 
L 797.624471 437.757525 
L 800.775529 446.516325 
L 803.926588 446.516325 
L 807.077647 452.720475 
L 810.228706 439.217325 
L 813.379765 448.1586 
L 816.530824 445.9689 
L 819.681882 450.165825 
L 822.832941 439.217325 
L 825.984 451.8081 
L 829.135059 452.17305 
L 832.286118 459.1071 
L 835.437176 431.73585 
L 838.588235 435.7503 
L 841.739294 433.19565 
L 844.890353 449.800875 
L 848.041412 434.65545 
L 851.192471 445.056525 
L 854.343529 441.95445 
L 857.494588 452.90295 
L 860.645647 434.2905 
L 863.796706 442.3194 
L 866.947765 445.421475 
L 870.098824 450.165825 
L 873.249882 446.6988 
L 876.400941 451.0782 
L 879.552 448.706025 
L 882.703059 459.289575 
L 885.854118 433.5606 
L 889.005176 444.5091 
L 892.156235 444.326625 
L 895.307294 451.8081 
L 898.458353 437.027625 
L 901.609412 451.625625 
L 904.760471 450.165825 
L 907.911529 460.749375 
L 911.062588 441.042075 
L 914.213647 452.720475 
L 917.364706 451.625625 
L 920.515765 456.369975 
L 923.666824 455.09265 
L 926.817882 453.9978 
L 929.968941 465.858675 
L 933.12 461.2968 
L 933.12 461.2968 
" clip-path="url(#p91a8968c12)" style="fill: none; stroke: #2ca02c; stroke-opacity: 0.8; stroke-width: 1.5; stroke-linecap: square"/>
   </g>
   <g id="line2d_15">
    <path d="M 129.6 453.815325 
L 132.751059 451.990575 
L 135.902118 452.355525 
L 139.053176 452.90295 
L 142.204235 454.180275 
L 145.355294 446.33385 
L 148.506353 448.341075 
L 151.657412 443.596725 
L 154.808471 450.895725 
L 157.959529 443.0493 
L 161.110588 442.136925 
L 164.261647 439.217325 
L 167.412706 448.341075 
L 170.563765 444.5091 
L 173.714824 440.312175 
L 176.865882 436.662675 
L 180.016941 455.275125 
L 183.168 443.596725 
L 186.319059 441.95445 
L 189.470118 444.691575 
L 192.621176 449.435925 
L 195.772235 439.947225 
L 198.923294 441.5895 
L 202.074353 435.0204 
L 205.225412 450.165825 
L 208.376471 446.881275 
L 211.527529 442.68435 
L 214.678588 436.84515 
L 217.829647 443.596725 
L 220.980706 439.03485 
L 224.131765 435.932775 
L 227.282824 432.283275 
L 230.433882 447.79365 
L 233.584941 449.800875 
L 236.736 447.4287 
L 239.887059 440.49465 
L 243.038118 441.407025 
L 246.189176 442.866825 
L 249.340235 443.41425 
L 252.491294 432.648225 
L 255.642353 446.881275 
L 258.793412 440.312175 
L 261.944471 440.8596 
L 265.095529 433.5606 
L 268.246588 442.866825 
L 271.397647 434.108025 
L 274.548706 433.19565 
L 277.699765 426.444075 
L 280.850824 447.4287 
L 284.001882 444.691575 
L 287.152941 449.070975 
L 290.304 434.472975 
L 293.455059 446.881275 
L 296.606118 425.714175 
L 299.757176 435.7503 
L 302.908235 430.641 
L 306.059294 442.3194 
L 309.210353 433.743075 
L 312.361412 436.662675 
L 315.512471 433.19565 
L 318.663529 437.57505 
L 321.814588 436.297725 
L 324.965647 433.743075 
L 328.116706 420.78735 
L 331.267765 456.55245 
L 334.418824 447.976125 
L 337.569882 449.6184 
L 340.720941 442.866825 
L 343.872 446.516325 
L 347.023059 442.501875 
L 350.174118 438.852375 
L 353.325176 441.5895 
L 356.476235 443.961675 
L 359.627294 435.932775 
L 362.778353 440.8596 
L 365.929412 440.8596 
L 369.080471 445.056525 
L 372.231529 436.297725 
L 375.382588 433.743075 
L 378.533647 425.89665 
L 381.684706 447.611175 
L 384.835765 439.217325 
L 387.986824 441.407025 
L 391.137882 437.757525 
L 394.288941 452.355525 
L 397.44 433.5606 
L 400.591059 439.947225 
L 403.742118 431.00595 
L 406.893176 439.76475 
L 410.044235 434.472975 
L 413.195294 436.4802 
L 416.346353 434.2905 
L 419.497412 438.30495 
L 422.648471 429.9111 
L 425.799529 433.013175 
L 428.950588 416.40795 
L 432.101647 448.1586 
L 435.252706 437.94 
L 438.403765 439.76475 
L 441.554824 439.03485 
L 444.705882 441.95445 
L 447.856941 439.3998 
L 451.008 435.7503 
L 454.159059 428.633775 
L 457.310118 441.771975 
L 460.461176 437.57505 
L 463.612235 441.22455 
L 466.763294 432.8307 
L 469.914353 438.30495 
L 473.065412 431.3709 
L 476.216471 428.81625 
L 479.367529 420.78735 
L 482.518588 445.60395 
L 485.669647 437.757525 
L 488.820706 445.786425 
L 491.971765 433.013175 
L 495.122824 439.947225 
L 498.273882 429.728625 
L 501.424941 432.1008 
L 504.576 422.24715 
L 507.727059 435.202875 
L 514.029176 430.093575 
L 517.180235 430.458525 
L 520.331294 427.903875 
L 523.482353 423.159525 
L 526.633412 430.641 
L 529.784471 418.415175 
L 532.935529 451.8081 
L 536.086588 446.151375 
L 539.237647 449.070975 
L 542.388706 440.8596 
L 545.539765 445.9689 
L 548.690824 442.501875 
L 551.841882 441.042075 
L 554.992941 440.1297 
L 558.144 441.95445 
L 561.295059 441.22455 
L 564.446118 446.6988 
L 567.597176 435.38535 
L 570.748235 436.11525 
L 573.899294 428.08635 
L 577.050353 436.297725 
L 580.201412 426.809025 
L 583.352471 452.355525 
L 586.503529 443.231775 
L 589.654588 432.8307 
L 592.805647 439.217325 
L 595.956706 449.435925 
L 599.107765 432.46575 
L 602.258824 437.392575 
L 605.409882 432.283275 
L 608.560941 439.217325 
L 611.712 436.662675 
L 614.863059 434.2905 
L 618.014118 437.94 
L 621.165176 438.6699 
L 624.316235 435.38535 
L 627.467294 423.889425 
L 630.618353 420.05745 
L 633.769412 446.151375 
L 636.920471 438.6699 
L 640.071529 439.582275 
L 643.222588 435.7503 
L 646.373647 442.866825 
L 649.524706 435.0204 
L 652.675765 433.013175 
L 655.826824 433.19565 
L 658.977882 445.421475 
L 662.128941 433.378125 
L 665.28 440.677125 
L 668.431059 434.472975 
L 671.582118 442.866825 
L 674.733176 430.093575 
L 677.884235 433.013175 
L 681.035294 424.254375 
L 684.186353 438.6699 
L 687.337412 437.2101 
L 690.488471 443.596725 
L 693.639529 435.0204 
L 696.790588 433.5606 
L 699.941647 435.202875 
L 703.092706 433.013175 
L 706.243765 422.6121 
L 709.394824 438.6699 
L 715.696941 426.2616 
L 721.999059 431.00595 
L 725.150118 424.0719 
L 728.301176 426.809025 
L 731.452235 421.51725 
L 734.603294 446.33385 
L 737.754353 442.501875 
L 740.905412 442.501875 
L 744.056471 434.65545 
L 747.207529 434.837925 
L 750.358588 436.4802 
L 753.509647 436.297725 
L 756.660706 431.553375 
L 759.811765 439.947225 
L 762.962824 439.3998 
L 766.113882 432.1008 
L 769.264941 426.9915 
L 772.416 436.84515 
L 775.567059 429.728625 
L 778.718118 427.35645 
L 781.869176 431.73585 
L 785.020235 446.881275 
L 788.171294 432.46575 
L 791.322353 436.662675 
L 794.473412 421.1523 
L 797.624471 437.757525 
L 800.775529 428.4513 
L 803.926588 439.76475 
L 807.077647 429.1812 
L 810.228706 444.5091 
L 813.379765 428.08635 
L 816.530824 431.3709 
L 819.681882 424.43685 
L 822.832941 431.00595 
L 825.984 421.8822 
L 829.135059 427.903875 
L 832.286118 420.78735 
L 835.437176 444.14415 
L 838.588235 432.648225 
L 841.739294 430.823475 
L 844.890353 433.378125 
L 848.041412 434.837925 
L 851.192471 427.538925 
L 854.343529 428.998725 
L 857.494588 423.159525 
L 860.645647 437.2101 
L 863.796706 430.27605 
L 866.947765 433.013175 
L 870.098824 427.35645 
L 873.249882 425.714175 
L 876.400941 427.538925 
L 879.552 425.5317 
L 882.703059 423.889425 
L 885.854118 437.392575 
L 889.005176 428.81625 
L 892.156235 434.472975 
L 895.307294 425.16675 
L 898.458353 429.54615 
L 901.609412 420.4224 
L 904.760471 426.2616 
L 907.911529 420.4224 
L 911.062588 434.65545 
L 914.213647 428.268825 
L 917.364706 420.969825 
L 920.515765 420.78735 
L 923.666824 425.89665 
L 926.817882 419.874975 
L 929.968941 420.604875 
L 933.12 413.1234 
L 933.12 413.1234 
" clip-path="url(#p91a8968c12)" style="fill: none; stroke: #d62728; stroke-opacity: 0.6; stroke-width: 1.5; stroke-linecap: square"/>
   </g>
   <g id="line2d_16">
    <path d="M 129.6 433.013175 
L 132.751059 437.94 
L 135.902118 438.30495 
L 139.053176 436.297725 
L 142.204235 442.136925 
L 145.355294 435.932775 
L 148.506353 439.947225 
L 151.657412 442.501875 
L 154.808471 432.46575 
L 157.959529 436.297725 
L 161.110588 431.00595 
L 164.261647 436.11525 
L 167.412706 431.73585 
L 170.563765 435.7503 
L 173.714824 435.0204 
L 176.865882 436.11525 
L 180.016941 431.553375 
L 183.168 435.0204 
L 186.319059 436.4802 
L 189.470118 430.458525 
L 192.621176 438.852375 
L 195.772235 439.582275 
L 198.923294 434.108025 
L 202.074353 438.487425 
L 205.225412 432.8307 
L 208.376471 437.392575 
L 211.527529 436.11525 
L 214.678588 435.0204 
L 217.829647 430.093575 
L 220.980706 435.202875 
L 224.131765 432.8307 
L 227.282824 431.188425 
L 230.433882 442.3194 
L 233.584941 435.38535 
L 236.736 434.65545 
L 239.887059 445.786425 
L 243.038118 436.84515 
L 246.189176 438.30495 
L 249.340235 432.8307 
L 252.491294 434.472975 
L 255.642353 437.57505 
L 258.793412 442.136925 
L 261.944471 440.312175 
L 265.095529 437.57505 
L 268.246588 432.648225 
L 271.397647 427.35645 
L 274.548706 437.57505 
L 277.699765 427.538925 
L 280.850824 436.662675 
L 284.001882 442.68435 
L 287.152941 433.19565 
L 290.304 439.3998 
L 293.455059 436.84515 
L 296.606118 438.30495 
L 299.757176 432.46575 
L 302.908235 436.4802 
L 306.059294 443.961675 
L 309.210353 439.03485 
L 312.361412 433.378125 
L 315.512471 439.217325 
L 318.663529 436.11525 
L 321.814588 434.108025 
L 324.965647 439.582275 
L 328.116706 435.202875 
L 331.267765 438.30495 
L 334.418824 430.823475 
L 337.569882 436.297725 
L 340.720941 435.567825 
L 343.872 432.1008 
L 347.023059 438.122475 
L 350.174118 436.84515 
L 353.325176 437.392575 
L 356.476235 440.8596 
L 359.627294 439.3998 
L 362.778353 436.297725 
L 365.929412 437.392575 
L 369.080471 437.392575 
L 372.231529 437.027625 
L 375.382588 440.49465 
L 378.533647 438.852375 
L 381.684706 432.648225 
L 384.835765 440.312175 
L 387.986824 435.567825 
L 391.137882 430.093575 
L 394.288941 433.92555 
L 397.44 441.042075 
L 400.591059 436.297725 
L 403.742118 437.2101 
L 406.893176 436.4802 
L 410.044235 435.0204 
L 413.195294 436.297725 
L 416.346353 437.392575 
L 419.497412 432.1008 
L 422.648471 437.2101 
L 425.799529 439.03485 
L 428.950588 432.283275 
L 432.101647 439.76475 
L 435.252706 438.6699 
L 438.403765 441.407025 
L 441.554824 437.757525 
L 444.705882 431.553375 
L 447.856941 433.743075 
L 451.008 443.231775 
L 454.159059 439.947225 
L 457.310118 437.027625 
L 460.461176 438.30495 
L 463.612235 433.743075 
L 466.763294 439.76475 
L 469.914353 434.65545 
L 473.065412 433.92555 
L 476.216471 430.093575 
L 479.367529 434.65545 
L 482.518588 426.9915 
L 485.669647 431.553375 
L 488.820706 430.823475 
L 491.971765 440.8596 
L 495.122824 436.4802 
L 498.273882 437.027625 
L 501.424941 426.2616 
L 504.576 441.22455 
L 507.727059 436.4802 
L 510.878118 436.297725 
L 514.029176 440.677125 
L 517.180235 435.7503 
L 520.331294 442.68435 
L 526.633412 433.013175 
L 529.784471 434.472975 
L 532.935529 439.76475 
L 536.086588 435.202875 
L 539.237647 435.7503 
L 542.388706 432.648225 
L 545.539765 443.596725 
L 548.690824 437.757525 
L 551.841882 438.6699 
L 554.992941 428.998725 
L 558.144 442.501875 
L 561.295059 437.94 
L 564.446118 440.312175 
L 567.597176 431.73585 
L 570.748235 442.136925 
L 573.899294 431.918325 
L 577.050353 429.1812 
L 580.201412 438.852375 
L 583.352471 435.0204 
L 586.503529 434.65545 
L 589.654588 440.312175 
L 592.805647 434.108025 
L 595.956706 438.487425 
L 599.107765 436.4802 
L 602.258824 442.501875 
L 605.409882 433.19565 
L 608.560941 433.013175 
L 611.712 435.932775 
L 614.863059 429.9111 
L 618.014118 436.662675 
L 621.165176 441.042075 
L 624.316235 432.648225 
L 627.467294 437.757525 
L 630.618353 439.582275 
L 633.769412 435.38535 
L 636.920471 437.392575 
L 640.071529 433.92555 
L 643.222588 443.596725 
L 646.373647 431.188425 
L 649.524706 433.92555 
L 652.675765 426.9915 
L 655.826824 432.8307 
L 658.977882 431.918325 
L 662.128941 441.042075 
L 665.28 437.027625 
L 668.431059 432.8307 
L 671.582118 433.743075 
L 674.733176 439.217325 
L 677.884235 436.84515 
L 681.035294 437.2101 
L 684.186353 433.5606 
L 687.337412 440.312175 
L 690.488471 434.2905 
L 693.639529 431.73585 
L 696.790588 437.392575 
L 699.941647 428.4513 
L 703.092706 435.0204 
L 706.243765 435.932775 
L 709.394824 436.4802 
L 712.545882 438.852375 
L 715.696941 438.487425 
L 718.848 437.392575 
L 721.999059 439.217325 
L 725.150118 443.7792 
L 728.301176 435.7503 
L 731.452235 440.1297 
L 734.603294 441.5895 
L 737.754353 432.1008 
L 740.905412 438.487425 
L 744.056471 432.283275 
L 747.207529 434.108025 
L 750.358588 435.0204 
L 753.509647 437.2101 
L 756.660706 436.11525 
L 759.811765 436.84515 
L 762.962824 435.38535 
L 766.113882 438.487425 
L 769.264941 436.297725 
L 772.416 435.932775 
L 775.567059 436.4802 
L 778.718118 437.757525 
L 781.869176 436.11525 
L 785.020235 441.771975 
L 788.171294 440.1297 
L 791.322353 433.5606 
L 794.473412 432.8307 
L 797.624471 438.6699 
L 800.775529 433.743075 
L 803.926588 433.5606 
L 807.077647 435.0204 
L 810.228706 435.38535 
L 813.379765 438.30495 
L 816.530824 435.7503 
L 819.681882 438.122475 
L 822.832941 429.1812 
L 825.984 435.932775 
L 829.135059 439.217325 
L 832.286118 436.297725 
L 835.437176 436.662675 
L 838.588235 434.108025 
L 841.739294 435.202875 
L 844.890353 436.662675 
L 848.041412 440.8596 
L 851.192471 434.2905 
L 854.343529 440.677125 
L 857.494588 436.4802 
L 860.645647 436.297725 
L 863.796706 438.30495 
L 866.947765 433.743075 
L 870.098824 436.4802 
L 876.400941 439.3998 
L 879.552 434.2905 
L 882.703059 431.553375 
L 885.854118 437.2101 
L 889.005176 438.6699 
L 892.156235 437.392575 
L 895.307294 431.553375 
L 898.458353 437.94 
L 901.609412 442.866825 
L 904.760471 435.7503 
L 907.911529 439.217325 
L 911.062588 439.582275 
L 917.364706 438.122475 
L 920.515765 442.501875 
L 923.666824 440.677125 
L 926.817882 437.027625 
L 929.968941 437.757525 
L 933.12 435.202875 
L 933.12 435.202875 
" clip-path="url(#p91a8968c12)" style="fill: none; stroke: #9467bd; stroke-opacity: 0.8; stroke-width: 1.5; stroke-linecap: square"/>
   </g>
   <g id="patch_3">
    <path d="M 129.6 519.6888 
L 129.6 70.0704 
" style="fill: none; stroke: #000000; stroke-width: 0.8; stroke-linejoin: miter; stroke-linecap: square"/>
   </g>
   <g id="patch_4">
    <path d="M 933.12 519.6888 
L 933.12 70.0704 
" style="fill: none; stroke: #000000; stroke-width: 0.8; stroke-linejoin: miter; stroke-linecap: square"/>
   </g>
   <g id="patch_5">
    <path d="M 129.6 519.6888 
L 933.12 519.6888 
" style="fill: none; stroke: #000000; stroke-width: 0.8; stroke-linejoin: miter; stroke-linecap: square"/>
   </g>
   <g id="patch_6">
    <path d="M 129.6 70.0704 
L 933.12 70.0704 
" style="fill: none; stroke: #000000; stroke-width: 0.8; stroke-linejoin: miter; stroke-linecap: square"/>
   </g>
   <g id="legend_1">
    <g id="patch_7">
     <path d="M 722.352813 153.0704 
L 926.12 153.0704 
Q 928.12 153.0704 928.12 151.0704 
L 928.12 77.0704 
Q 928.12 75.0704 926.12 75.0704 
L 722.352813 75.0704 
Q 720.352813 75.0704 720.352813 77.0704 
L 720.352813 151.0704 
Q 720.352813 153.0704 722.352813 153.0704 
z
" style="fill: #ffffff; opacity: 0.8; stroke: #cccccc; stroke-linejoin: miter"/>
    </g>
    <g id="line2d_17">
     <path d="M 724.352813 83.212587 
L 734.352813 83.212587 
L 744.352813 83.212587 
" style="fill: none; stroke: #1f77b4; stroke-opacity: 0.5; stroke-width: 1.5; stroke-linecap: square"/>
    </g>
    <g id="text_14">
     <!-- baseline | 566273245414.62 -->
     <g transform="translate(752.352813 86.712587) scale(0.1 -0.1)">
      <defs>
       <path id="DejaVuSans-73" d="M 2834 3397 
L 2834 2853 
Q 2591 2978 2328 3040 
Q 2066 3103 1784 3103 
Q 1356 3103 1142 2972 
Q 928 2841 928 2578 
Q 928 2378 1081 2264 
Q 1234 2150 1697 2047 
L 1894 2003 
Q 2506 1872 2764 1633 
Q 3022 1394 3022 966 
Q 3022 478 2636 193 
Q 2250 -91 1575 -91 
Q 1294 -91 989 -36 
Q 684 19 347 128 
L 347 722 
Q 666 556 975 473 
Q 1284 391 1588 391 
Q 1994 391 2212 530 
Q 2431 669 2431 922 
Q 2431 1156 2273 1281 
Q 2116 1406 1581 1522 
L 1381 1569 
Q 847 1681 609 1914 
Q 372 2147 372 2553 
Q 372 3047 722 3315 
Q 1072 3584 1716 3584 
Q 2034 3584 2315 3537 
Q 2597 3491 2834 3397 
z
" transform="scale(0.015625)"/>
       <path id="DejaVuSans-6c" d="M 603 4863 
L 1178 4863 
L 1178 0 
L 603 0 
L 603 4863 
z
" transform="scale(0.015625)"/>
       <path id="DejaVuSans-7c" d="M 1344 4891 
L 1344 -1509 
L 813 -1509 
L 813 4891 
L 1344 4891 
z
" transform="scale(0.015625)"/>
       <path id="DejaVuSans-36" d="M 2113 2584 
Q 1688 2584 1439 2293 
Q 1191 2003 1191 1497 
Q 1191 994 1439 701 
Q 1688 409 2113 409 
Q 2538 409 2786 701 
Q 3034 994 3034 1497 
Q 3034 2003 2786 2293 
Q 2538 2584 2113 2584 
z
M 3366 4563 
L 3366 3988 
Q 3128 4100 2886 4159 
Q 2644 4219 2406 4219 
Q 1781 4219 1451 3797 
Q 1122 3375 1075 2522 
Q 1259 2794 1537 2939 
Q 1816 3084 2150 3084 
Q 2853 3084 3261 2657 
Q 3669 2231 3669 1497 
Q 3669 778 3244 343 
Q 2819 -91 2113 -91 
Q 1303 -91 875 529 
Q 447 1150 447 2328 
Q 447 3434 972 4092 
Q 1497 4750 2381 4750 
Q 2619 4750 2861 4703 
Q 3103 4656 3366 4563 
z
" transform="scale(0.015625)"/>
       <path id="DejaVuSans-37" d="M 525 4666 
L 3525 4666 
L 3525 4397 
L 1831 0 
L 1172 0 
L 2766 4134 
L 525 4134 
L 525 4666 
z
" transform="scale(0.015625)"/>
       <path id="DejaVuSans-33" d="M 2597 2516 
Q 3050 2419 3304 2112 
Q 3559 1806 3559 1356 
Q 3559 666 3084 287 
Q 2609 -91 1734 -91 
Q 1441 -91 1130 -33 
Q 819 25 488 141 
L 488 750 
Q 750 597 1062 519 
Q 1375 441 1716 441 
Q 2309 441 2620 675 
Q 2931 909 2931 1356 
Q 2931 1769 2642 2001 
Q 2353 2234 1838 2234 
L 1294 2234 
L 1294 2753 
L 1863 2753 
Q 2328 2753 2575 2939 
Q 2822 3125 2822 3475 
Q 2822 3834 2567 4026 
Q 2313 4219 1838 4219 
Q 1578 4219 1281 4162 
Q 984 4106 628 3988 
L 628 4550 
Q 988 4650 1302 4700 
Q 1616 4750 1894 4750 
Q 2613 4750 3031 4423 
Q 3450 4097 3450 3541 
Q 3450 3153 3228 2886 
Q 3006 2619 2597 2516 
z
" transform="scale(0.015625)"/>
       <path id="DejaVuSans-34" d="M 2419 4116 
L 825 1625 
L 2419 1625 
L 2419 4116 
z
M 2253 4666 
L 3047 4666 
L 3047 1625 
L 3713 1625 
L 3713 1100 
L 3047 1100 
L 3047 0 
L 2419 0 
L 2419 1100 
L 313 1100 
L 313 1709 
L 2253 4666 
z
" transform="scale(0.015625)"/>
       <path id="DejaVuSans-2e" d="M 684 794 
L 1344 794 
L 1344 0 
L 684 0 
L 684 794 
z
" transform="scale(0.015625)"/>
      </defs>
      <use xlink:href="#DejaVuSans-62"/>
      <use xlink:href="#DejaVuSans-61" x="63.476562"/>
      <use xlink:href="#DejaVuSans-73" x="124.755859"/>
      <use xlink:href="#DejaVuSans-65" x="176.855469"/>
      <use xlink:href="#DejaVuSans-6c" x="238.378906"/>
      <use xlink:href="#DejaVuSans-69" x="266.162109"/>
      <use xlink:href="#DejaVuSans-6e" x="293.945312"/>
      <use xlink:href="#DejaVuSans-65" x="357.324219"/>
      <use xlink:href="#DejaVuSans-20" x="418.847656"/>
      <use xlink:href="#DejaVuSans-7c" x="450.634766"/>
      <use xlink:href="#DejaVuSans-20" x="484.326172"/>
      <use xlink:href="#DejaVuSans-35" x="516.113281"/>
      <use xlink:href="#DejaVuSans-36" x="579.736328"/>
      <use xlink:href="#DejaVuSans-36" x="643.359375"/>
      <use xlink:href="#DejaVuSans-32" x="706.982422"/>
      <use xlink:href="#DejaVuSans-37" x="770.605469"/>
      <use xlink:href="#DejaVuSans-33" x="834.228516"/>
      <use xlink:href="#DejaVuSans-32" x="897.851562"/>
      <use xlink:href="#DejaVuSans-34" x="961.474609"/>
      <use xlink:href="#DejaVuSans-35" x="1025.097656"/>
      <use xlink:href="#DejaVuSans-34" x="1088.720703"/>
      <use xlink:href="#DejaVuSans-31" x="1152.34375"/>
      <use xlink:href="#DejaVuSans-34" x="1215.966797"/>
      <use xlink:href="#DejaVuSans-2e" x="1279.589844"/>
      <use xlink:href="#DejaVuSans-36" x="1311.376953"/>
      <use xlink:href="#DejaVuSans-32" x="1375"/>
     </g>
    </g>
    <g id="line2d_18">
     <path d="M 724.352813 98.212587 
L 734.352813 98.212587 
L 744.352813 98.212587 
" style="fill: none; stroke: #ff7f0e; stroke-opacity: 0.6; stroke-width: 1.5; stroke-linecap: square"/>
    </g>
    <g id="text_15">
     <!-- K 2.5% no xor | 776905514320.62 -->
     <g transform="translate(752.352813 101.712587) scale(0.1 -0.1)">
      <defs>
       <path id="DejaVuSans-4b" d="M 628 4666 
L 1259 4666 
L 1259 2694 
L 3353 4666 
L 4166 4666 
L 1850 2491 
L 4331 0 
L 3500 0 
L 1259 2247 
L 1259 0 
L 628 0 
L 628 4666 
z
" transform="scale(0.015625)"/>
       <path id="DejaVuSans-25" d="M 4653 2053 
Q 4381 2053 4226 1822 
Q 4072 1591 4072 1178 
Q 4072 772 4226 539 
Q 4381 306 4653 306 
Q 4919 306 5073 539 
Q 5228 772 5228 1178 
Q 5228 1588 5073 1820 
Q 4919 2053 4653 2053 
z
M 4653 2450 
Q 5147 2450 5437 2106 
Q 5728 1763 5728 1178 
Q 5728 594 5436 251 
Q 5144 -91 4653 -91 
Q 4153 -91 3862 251 
Q 3572 594 3572 1178 
Q 3572 1766 3864 2108 
Q 4156 2450 4653 2450 
z
M 1428 4353 
Q 1159 4353 1004 4120 
Q 850 3888 850 3481 
Q 850 3069 1003 2837 
Q 1156 2606 1428 2606 
Q 1700 2606 1854 2837 
Q 2009 3069 2009 3481 
Q 2009 3884 1853 4118 
Q 1697 4353 1428 4353 
z
M 4250 4750 
L 4750 4750 
L 1831 -91 
L 1331 -91 
L 4250 4750 
z
M 1428 4750 
Q 1922 4750 2215 4408 
Q 2509 4066 2509 3481 
Q 2509 2891 2217 2550 
Q 1925 2209 1428 2209 
Q 931 2209 642 2551 
Q 353 2894 353 3481 
Q 353 4063 643 4406 
Q 934 4750 1428 4750 
z
" transform="scale(0.015625)"/>
       <path id="DejaVuSans-6f" d="M 1959 3097 
Q 1497 3097 1228 2736 
Q 959 2375 959 1747 
Q 959 1119 1226 758 
Q 1494 397 1959 397 
Q 2419 397 2687 759 
Q 2956 1122 2956 1747 
Q 2956 2369 2687 2733 
Q 2419 3097 1959 3097 
z
M 1959 3584 
Q 2709 3584 3137 3096 
Q 3566 2609 3566 1747 
Q 3566 888 3137 398 
Q 2709 -91 1959 -91 
Q 1206 -91 779 398 
Q 353 888 353 1747 
Q 353 2609 779 3096 
Q 1206 3584 1959 3584 
z
" transform="scale(0.015625)"/>
       <path id="DejaVuSans-78" d="M 3513 3500 
L 2247 1797 
L 3578 0 
L 2900 0 
L 1881 1375 
L 863 0 
L 184 0 
L 1544 1831 
L 300 3500 
L 978 3500 
L 1906 2253 
L 2834 3500 
L 3513 3500 
z
" transform="scale(0.015625)"/>
       <path id="DejaVuSans-39" d="M 703 97 
L 703 672 
Q 941 559 1184 500 
Q 1428 441 1663 441 
Q 2288 441 2617 861 
Q 2947 1281 2994 2138 
Q 2813 1869 2534 1725 
Q 2256 1581 1919 1581 
Q 1219 1581 811 2004 
Q 403 2428 403 3163 
Q 403 3881 828 4315 
Q 1253 4750 1959 4750 
Q 2769 4750 3195 4129 
Q 3622 3509 3622 2328 
Q 3622 1225 3098 567 
Q 2575 -91 1691 -91 
Q 1453 -91 1209 -44 
Q 966 3 703 97 
z
M 1959 2075 
Q 2384 2075 2632 2365 
Q 2881 2656 2881 3163 
Q 2881 3666 2632 3958 
Q 2384 4250 1959 4250 
Q 1534 4250 1286 3958 
Q 1038 3666 1038 3163 
Q 1038 2656 1286 2365 
Q 1534 2075 1959 2075 
z
" transform="scale(0.015625)"/>
      </defs>
      <use xlink:href="#DejaVuSans-4b"/>
      <use xlink:href="#DejaVuSans-20" x="65.576172"/>
      <use xlink:href="#DejaVuSans-32" x="97.363281"/>
      <use xlink:href="#DejaVuSans-2e" x="160.986328"/>
      <use xlink:href="#DejaVuSans-35" x="192.773438"/>
      <use xlink:href="#DejaVuSans-25" x="256.396484"/>
      <use xlink:href="#DejaVuSans-20" x="351.416016"/>
      <use xlink:href="#DejaVuSans-6e" x="383.203125"/>
      <use xlink:href="#DejaVuSans-6f" x="446.582031"/>
      <use xlink:href="#DejaVuSans-20" x="507.763672"/>
      <use xlink:href="#DejaVuSans-78" x="539.550781"/>
      <use xlink:href="#DejaVuSans-6f" x="595.605469"/>
      <use xlink:href="#DejaVuSans-72" x="656.787109"/>
      <use xlink:href="#DejaVuSans-20" x="697.900391"/>
      <use xlink:href="#DejaVuSans-7c" x="729.6875"/>
      <use xlink:href="#DejaVuSans-20" x="763.378906"/>
      <use xlink:href="#DejaVuSans-37" x="795.166016"/>
      <use xlink:href="#DejaVuSans-37" x="858.789062"/>
      <use xlink:href="#DejaVuSans-36" x="922.412109"/>
      <use xlink:href="#DejaVuSans-39" x="986.035156"/>
      <use xlink:href="#DejaVuSans-30" x="1049.658203"/>
      <use xlink:href="#DejaVuSans-35" x="1113.28125"/>
      <use xlink:href="#DejaVuSans-35" x="1176.904297"/>
      <use xlink:href="#DejaVuSans-31" x="1240.527344"/>
      <use xlink:href="#DejaVuSans-34" x="1304.150391"/>
      <use xlink:href="#DejaVuSans-33" x="1367.773438"/>
      <use xlink:href="#DejaVuSans-32" x="1431.396484"/>
      <use xlink:href="#DejaVuSans-30" x="1495.019531"/>
      <use xlink:href="#DejaVuSans-2e" x="1558.642578"/>
      <use xlink:href="#DejaVuSans-36" x="1590.429688"/>
      <use xlink:href="#DejaVuSans-32" x="1654.052734"/>
     </g>
    </g>
    <g id="line2d_19">
     <path d="M 724.352813 113.212587 
L 734.352813 113.212587 
L 744.352813 113.212587 
" style="fill: none; stroke: #2ca02c; stroke-opacity: 0.8; stroke-width: 1.5; stroke-linecap: square"/>
    </g>
    <g id="text_16">
     <!-- K 2.5% 1 xor | 508124167990.62 -->
     <g transform="translate(752.352813 116.712587) scale(0.1 -0.1)">
      <use xlink:href="#DejaVuSans-4b"/>
      <use xlink:href="#DejaVuSans-20" x="65.576172"/>
      <use xlink:href="#DejaVuSans-32" x="97.363281"/>
      <use xlink:href="#DejaVuSans-2e" x="160.986328"/>
      <use xlink:href="#DejaVuSans-35" x="192.773438"/>
      <use xlink:href="#DejaVuSans-25" x="256.396484"/>
      <use xlink:href="#DejaVuSans-20" x="351.416016"/>
      <use xlink:href="#DejaVuSans-31" x="383.203125"/>
      <use xlink:href="#DejaVuSans-20" x="446.826172"/>
      <use xlink:href="#DejaVuSans-78" x="478.613281"/>
      <use xlink:href="#DejaVuSans-6f" x="534.667969"/>
      <use xlink:href="#DejaVuSans-72" x="595.849609"/>
      <use xlink:href="#DejaVuSans-20" x="636.962891"/>
      <use xlink:href="#DejaVuSans-7c" x="668.75"/>
      <use xlink:href="#DejaVuSans-20" x="702.441406"/>
      <use xlink:href="#DejaVuSans-35" x="734.228516"/>
      <use xlink:href="#DejaVuSans-30" x="797.851562"/>
      <use xlink:href="#DejaVuSans-38" x="861.474609"/>
      <use xlink:href="#DejaVuSans-31" x="925.097656"/>
      <use xlink:href="#DejaVuSans-32" x="988.720703"/>
      <use xlink:href="#DejaVuSans-34" x="1052.34375"/>
      <use xlink:href="#DejaVuSans-31" x="1115.966797"/>
      <use xlink:href="#DejaVuSans-36" x="1179.589844"/>
      <use xlink:href="#DejaVuSans-37" x="1243.212891"/>
      <use xlink:href="#DejaVuSans-39" x="1306.835938"/>
      <use xlink:href="#DejaVuSans-39" x="1370.458984"/>
      <use xlink:href="#DejaVuSans-30" x="1434.082031"/>
      <use xlink:href="#DejaVuSans-2e" x="1497.705078"/>
      <use xlink:href="#DejaVuSans-36" x="1529.492188"/>
      <use xlink:href="#DejaVuSans-32" x="1593.115234"/>
     </g>
    </g>
    <g id="line2d_20">
     <path d="M 724.352813 128.212587 
L 734.352813 128.212587 
L 744.352813 128.212587 
" style="fill: none; stroke: #d62728; stroke-opacity: 0.6; stroke-width: 1.5; stroke-linecap: square"/>
    </g>
    <g id="text_17">
     <!-- K 2.5% no xor | 587735599654.62 -->
     <g transform="translate(752.352813 131.712587) scale(0.1 -0.1)">
      <use xlink:href="#DejaVuSans-4b"/>
      <use xlink:href="#DejaVuSans-20" x="65.576172"/>
      <use xlink:href="#DejaVuSans-32" x="97.363281"/>
      <use xlink:href="#DejaVuSans-2e" x="160.986328"/>
      <use xlink:href="#DejaVuSans-35" x="192.773438"/>
      <use xlink:href="#DejaVuSans-25" x="256.396484"/>
      <use xlink:href="#DejaVuSans-20" x="351.416016"/>
      <use xlink:href="#DejaVuSans-6e" x="383.203125"/>
      <use xlink:href="#DejaVuSans-6f" x="446.582031"/>
      <use xlink:href="#DejaVuSans-20" x="507.763672"/>
      <use xlink:href="#DejaVuSans-78" x="539.550781"/>
      <use xlink:href="#DejaVuSans-6f" x="595.605469"/>
      <use xlink:href="#DejaVuSans-72" x="656.787109"/>
      <use xlink:href="#DejaVuSans-20" x="697.900391"/>
      <use xlink:href="#DejaVuSans-7c" x="729.6875"/>
      <use xlink:href="#DejaVuSans-20" x="763.378906"/>
      <use xlink:href="#DejaVuSans-35" x="795.166016"/>
      <use xlink:href="#DejaVuSans-38" x="858.789062"/>
      <use xlink:href="#DejaVuSans-37" x="922.412109"/>
      <use xlink:href="#DejaVuSans-37" x="986.035156"/>
      <use xlink:href="#DejaVuSans-33" x="1049.658203"/>
      <use xlink:href="#DejaVuSans-35" x="1113.28125"/>
      <use xlink:href="#DejaVuSans-35" x="1176.904297"/>
      <use xlink:href="#DejaVuSans-39" x="1240.527344"/>
      <use xlink:href="#DejaVuSans-39" x="1304.150391"/>
      <use xlink:href="#DejaVuSans-36" x="1367.773438"/>
      <use xlink:href="#DejaVuSans-35" x="1431.396484"/>
      <use xlink:href="#DejaVuSans-34" x="1495.019531"/>
      <use xlink:href="#DejaVuSans-2e" x="1558.642578"/>
      <use xlink:href="#DejaVuSans-36" x="1590.429688"/>
      <use xlink:href="#DejaVuSans-32" x="1654.052734"/>
     </g>
    </g>
    <g id="line2d_21">
     <path d="M 724.352813 143.212587 
L 734.352813 143.212587 
L 744.352813 143.212587 
" style="fill: none; stroke: #9467bd; stroke-opacity: 0.8; stroke-width: 1.5; stroke-linecap: square"/>
    </g>
    <g id="text_18">
     <!-- K 2.5% 1 xor | 554194825748.62 -->
     <g transform="translate(752.352813 146.712587) scale(0.1 -0.1)">
      <use xlink:href="#DejaVuSans-4b"/>
      <use xlink:href="#DejaVuSans-20" x="65.576172"/>
      <use xlink:href="#DejaVuSans-32" x="97.363281"/>
      <use xlink:href="#DejaVuSans-2e" x="160.986328"/>
      <use xlink:href="#DejaVuSans-35" x="192.773438"/>
      <use xlink:href="#DejaVuSans-25" x="256.396484"/>
      <use xlink:href="#DejaVuSans-20" x="351.416016"/>
      <use xlink:href="#DejaVuSans-31" x="383.203125"/>
      <use xlink:href="#DejaVuSans-20" x="446.826172"/>
      <use xlink:href="#DejaVuSans-78" x="478.613281"/>
      <use xlink:href="#DejaVuSans-6f" x="534.667969"/>
      <use xlink:href="#DejaVuSans-72" x="595.849609"/>
      <use xlink:href="#DejaVuSans-20" x="636.962891"/>
      <use xlink:href="#DejaVuSans-7c" x="668.75"/>
      <use xlink:href="#DejaVuSans-20" x="702.441406"/>
      <use xlink:href="#DejaVuSans-35" x="734.228516"/>
      <use xlink:href="#DejaVuSans-35" x="797.851562"/>
      <use xlink:href="#DejaVuSans-34" x="861.474609"/>
      <use xlink:href="#DejaVuSans-31" x="925.097656"/>
      <use xlink:href="#DejaVuSans-39" x="988.720703"/>
      <use xlink:href="#DejaVuSans-34" x="1052.34375"/>
      <use xlink:href="#DejaVuSans-38" x="1115.966797"/>
      <use xlink:href="#DejaVuSans-32" x="1179.589844"/>
      <use xlink:href="#DejaVuSans-35" x="1243.212891"/>
      <use xlink:href="#DejaVuSans-37" x="1306.835938"/>
      <use xlink:href="#DejaVuSans-34" x="1370.458984"/>
      <use xlink:href="#DejaVuSans-38" x="1434.082031"/>
      <use xlink:href="#DejaVuSans-2e" x="1497.705078"/>
      <use xlink:href="#DejaVuSans-36" x="1529.492188"/>
      <use xlink:href="#DejaVuSans-32" x="1593.115234"/>
     </g>
    </g>
   </g>
  </g>
 </g>
 <defs>
  <clipPath id="p91a8968c12">
   <rect x="129.6" y="70.0704" width="803.52" height="449.6184"/>
  </clipPath>
 </defs>
</svg>
