<?xml version="1.0" encoding="utf-8" standalone="no"?>
<!DOCTYPE svg PUBLIC "-//W3C//DTD SVG 1.1//EN"
  "http://www.w3.org/Graphics/SVG/1.1/DTD/svg11.dtd">
<svg xmlns:xlink="http://www.w3.org/1999/xlink" width="1036.8pt" height="583.92pt" viewBox="0 0 1036.8 583.92" xmlns="http://www.w3.org/2000/svg" version="1.1">
 <metadata>
  <rdf:RDF xmlns:dc="http://purl.org/dc/elements/1.1/" xmlns:cc="http://creativecommons.org/ns#" xmlns:rdf="http://www.w3.org/1999/02/22-rdf-syntax-ns#">
   <cc:Work>
    <dc:type rdf:resource="http://purl.org/dc/dcmitype/StillImage"/>
    <dc:date>2024-01-26T18:11:07.030943</dc:date>
    <dc:format>image/svg+xml</dc:format>
    <dc:creator>
     <cc:Agent>
      <dc:title>Matplotlib v3.7.2, https://matplotlib.org/</dc:title>
     </cc:Agent>
    </dc:creator>
   </cc:Work>
  </rdf:RDF>
 </metadata>
 <defs>
  <style type="text/css">*{stroke-linejoin: round; stroke-linecap: butt}</style>
 </defs>
 <g id="figure_1">
  <g id="patch_1">
   <path d="M 0 583.92 
L 1036.8 583.92 
L 1036.8 0 
L 0 0 
z
" style="fill: #ffffff"/>
  </g>
  <g id="axes_1">
   <g id="patch_2">
    <path d="M 129.6 519.6888 
L 933.12 519.6888 
L 933.12 70.0704 
L 129.6 70.0704 
z
" style="fill: #ffffff"/>
   </g>
   <g id="matplotlib.axis_1">
    <g id="xtick_1">
     <g id="line2d_1">
      <defs>
       <path id="m7365f3fdce" d="M 0 0 
L 0 3.5 
" style="stroke: #000000; stroke-width: 0.8"/>
      </defs>
      <g>
       <use xlink:href="#m7365f3fdce" x="129.6" y="519.6888" style="stroke: #000000; stroke-width: 0.8"/>
      </g>
     </g>
     <g id="text_1">
      <!-- 0 -->
      <g transform="translate(126.41875 534.287237) scale(0.1 -0.1)">
       <defs>
        <path id="DejaVuSans-30" d="M 2034 4250 
Q 1547 4250 1301 3770 
Q 1056 3291 1056 2328 
Q 1056 1369 1301 889 
Q 1547 409 2034 409 
Q 2525 409 2770 889 
Q 3016 1369 3016 2328 
Q 3016 3291 2770 3770 
Q 2525 4250 2034 4250 
z
M 2034 4750 
Q 2819 4750 3233 4129 
Q 3647 3509 3647 2328 
Q 3647 1150 3233 529 
Q 2819 -91 2034 -91 
Q 1250 -91 836 529 
Q 422 1150 422 2328 
Q 422 3509 836 4129 
Q 1250 4750 2034 4750 
z
" transform="scale(0.015625)"/>
       </defs>
       <use xlink:href="#DejaVuSans-30"/>
      </g>
     </g>
    </g>
    <g id="xtick_2">
     <g id="line2d_2">
      <g>
       <use xlink:href="#m7365f3fdce" x="287.152941" y="519.6888" style="stroke: #000000; stroke-width: 0.8"/>
      </g>
     </g>
     <g id="text_2">
      <!-- 50 -->
      <g transform="translate(280.790441 534.287237) scale(0.1 -0.1)">
       <defs>
        <path id="DejaVuSans-35" d="M 691 4666 
L 3169 4666 
L 3169 4134 
L 1269 4134 
L 1269 2991 
Q 1406 3038 1543 3061 
Q 1681 3084 1819 3084 
Q 2600 3084 3056 2656 
Q 3513 2228 3513 1497 
Q 3513 744 3044 326 
Q 2575 -91 1722 -91 
Q 1428 -91 1123 -41 
Q 819 9 494 109 
L 494 744 
Q 775 591 1075 516 
Q 1375 441 1709 441 
Q 2250 441 2565 725 
Q 2881 1009 2881 1497 
Q 2881 1984 2565 2268 
Q 2250 2553 1709 2553 
Q 1456 2553 1204 2497 
Q 953 2441 691 2322 
L 691 4666 
z
" transform="scale(0.015625)"/>
       </defs>
       <use xlink:href="#DejaVuSans-35"/>
       <use xlink:href="#DejaVuSans-30" x="63.623047"/>
      </g>
     </g>
    </g>
    <g id="xtick_3">
     <g id="line2d_3">
      <g>
       <use xlink:href="#m7365f3fdce" x="444.705882" y="519.6888" style="stroke: #000000; stroke-width: 0.8"/>
      </g>
     </g>
     <g id="text_3">
      <!-- 100 -->
      <g transform="translate(435.162132 534.287237) scale(0.1 -0.1)">
       <defs>
        <path id="DejaVuSans-31" d="M 794 531 
L 1825 531 
L 1825 4091 
L 703 3866 
L 703 4441 
L 1819 4666 
L 2450 4666 
L 2450 531 
L 3481 531 
L 3481 0 
L 794 0 
L 794 531 
z
" transform="scale(0.015625)"/>
       </defs>
       <use xlink:href="#DejaVuSans-31"/>
       <use xlink:href="#DejaVuSans-30" x="63.623047"/>
       <use xlink:href="#DejaVuSans-30" x="127.246094"/>
      </g>
     </g>
    </g>
    <g id="xtick_4">
     <g id="line2d_4">
      <g>
       <use xlink:href="#m7365f3fdce" x="602.258824" y="519.6888" style="stroke: #000000; stroke-width: 0.8"/>
      </g>
     </g>
     <g id="text_4">
      <!-- 150 -->
      <g transform="translate(592.715074 534.287237) scale(0.1 -0.1)">
       <use xlink:href="#DejaVuSans-31"/>
       <use xlink:href="#DejaVuSans-35" x="63.623047"/>
       <use xlink:href="#DejaVuSans-30" x="127.246094"/>
      </g>
     </g>
    </g>
    <g id="xtick_5">
     <g id="line2d_5">
      <g>
       <use xlink:href="#m7365f3fdce" x="759.811765" y="519.6888" style="stroke: #000000; stroke-width: 0.8"/>
      </g>
     </g>
     <g id="text_5">
      <!-- 200 -->
      <g transform="translate(750.268015 534.287237) scale(0.1 -0.1)">
       <defs>
        <path id="DejaVuSans-32" d="M 1228 531 
L 3431 531 
L 3431 0 
L 469 0 
L 469 531 
Q 828 903 1448 1529 
Q 2069 2156 2228 2338 
Q 2531 2678 2651 2914 
Q 2772 3150 2772 3378 
Q 2772 3750 2511 3984 
Q 2250 4219 1831 4219 
Q 1534 4219 1204 4116 
Q 875 4013 500 3803 
L 500 4441 
Q 881 4594 1212 4672 
Q 1544 4750 1819 4750 
Q 2544 4750 2975 4387 
Q 3406 4025 3406 3419 
Q 3406 3131 3298 2873 
Q 3191 2616 2906 2266 
Q 2828 2175 2409 1742 
Q 1991 1309 1228 531 
z
" transform="scale(0.015625)"/>
       </defs>
       <use xlink:href="#DejaVuSans-32"/>
       <use xlink:href="#DejaVuSans-30" x="63.623047"/>
       <use xlink:href="#DejaVuSans-30" x="127.246094"/>
      </g>
     </g>
    </g>
    <g id="xtick_6">
     <g id="line2d_6">
      <g>
       <use xlink:href="#m7365f3fdce" x="917.364706" y="519.6888" style="stroke: #000000; stroke-width: 0.8"/>
      </g>
     </g>
     <g id="text_6">
      <!-- 250 -->
      <g transform="translate(907.820956 534.287237) scale(0.1 -0.1)">
       <use xlink:href="#DejaVuSans-32"/>
       <use xlink:href="#DejaVuSans-35" x="63.623047"/>
       <use xlink:href="#DejaVuSans-30" x="127.246094"/>
      </g>
     </g>
    </g>
    <g id="text_7">
     <!-- Generated 8-bit Number -->
     <g transform="translate(470.060781 547.965362) scale(0.1 -0.1)">
      <defs>
       <path id="DejaVuSans-47" d="M 3809 666 
L 3809 1919 
L 2778 1919 
L 2778 2438 
L 4434 2438 
L 4434 434 
Q 4069 175 3628 42 
Q 3188 -91 2688 -91 
Q 1594 -91 976 548 
Q 359 1188 359 2328 
Q 359 3472 976 4111 
Q 1594 4750 2688 4750 
Q 3144 4750 3555 4637 
Q 3966 4525 4313 4306 
L 4313 3634 
Q 3963 3931 3569 4081 
Q 3175 4231 2741 4231 
Q 1884 4231 1454 3753 
Q 1025 3275 1025 2328 
Q 1025 1384 1454 906 
Q 1884 428 2741 428 
Q 3075 428 3337 486 
Q 3600 544 3809 666 
z
" transform="scale(0.015625)"/>
       <path id="DejaVuSans-65" d="M 3597 1894 
L 3597 1613 
L 953 1613 
Q 991 1019 1311 708 
Q 1631 397 2203 397 
Q 2534 397 2845 478 
Q 3156 559 3463 722 
L 3463 178 
Q 3153 47 2828 -22 
Q 2503 -91 2169 -91 
Q 1331 -91 842 396 
Q 353 884 353 1716 
Q 353 2575 817 3079 
Q 1281 3584 2069 3584 
Q 2775 3584 3186 3129 
Q 3597 2675 3597 1894 
z
M 3022 2063 
Q 3016 2534 2758 2815 
Q 2500 3097 2075 3097 
Q 1594 3097 1305 2825 
Q 1016 2553 972 2059 
L 3022 2063 
z
" transform="scale(0.015625)"/>
       <path id="DejaVuSans-6e" d="M 3513 2113 
L 3513 0 
L 2938 0 
L 2938 2094 
Q 2938 2591 2744 2837 
Q 2550 3084 2163 3084 
Q 1697 3084 1428 2787 
Q 1159 2491 1159 1978 
L 1159 0 
L 581 0 
L 581 3500 
L 1159 3500 
L 1159 2956 
Q 1366 3272 1645 3428 
Q 1925 3584 2291 3584 
Q 2894 3584 3203 3211 
Q 3513 2838 3513 2113 
z
" transform="scale(0.015625)"/>
       <path id="DejaVuSans-72" d="M 2631 2963 
Q 2534 3019 2420 3045 
Q 2306 3072 2169 3072 
Q 1681 3072 1420 2755 
Q 1159 2438 1159 1844 
L 1159 0 
L 581 0 
L 581 3500 
L 1159 3500 
L 1159 2956 
Q 1341 3275 1631 3429 
Q 1922 3584 2338 3584 
Q 2397 3584 2469 3576 
Q 2541 3569 2628 3553 
L 2631 2963 
z
" transform="scale(0.015625)"/>
       <path id="DejaVuSans-61" d="M 2194 1759 
Q 1497 1759 1228 1600 
Q 959 1441 959 1056 
Q 959 750 1161 570 
Q 1363 391 1709 391 
Q 2188 391 2477 730 
Q 2766 1069 2766 1631 
L 2766 1759 
L 2194 1759 
z
M 3341 1997 
L 3341 0 
L 2766 0 
L 2766 531 
Q 2569 213 2275 61 
Q 1981 -91 1556 -91 
Q 1019 -91 701 211 
Q 384 513 384 1019 
Q 384 1609 779 1909 
Q 1175 2209 1959 2209 
L 2766 2209 
L 2766 2266 
Q 2766 2663 2505 2880 
Q 2244 3097 1772 3097 
Q 1472 3097 1187 3025 
Q 903 2953 641 2809 
L 641 3341 
Q 956 3463 1253 3523 
Q 1550 3584 1831 3584 
Q 2591 3584 2966 3190 
Q 3341 2797 3341 1997 
z
" transform="scale(0.015625)"/>
       <path id="DejaVuSans-74" d="M 1172 4494 
L 1172 3500 
L 2356 3500 
L 2356 3053 
L 1172 3053 
L 1172 1153 
Q 1172 725 1289 603 
Q 1406 481 1766 481 
L 2356 481 
L 2356 0 
L 1766 0 
Q 1100 0 847 248 
Q 594 497 594 1153 
L 594 3053 
L 172 3053 
L 172 3500 
L 594 3500 
L 594 4494 
L 1172 4494 
z
" transform="scale(0.015625)"/>
       <path id="DejaVuSans-64" d="M 2906 2969 
L 2906 4863 
L 3481 4863 
L 3481 0 
L 2906 0 
L 2906 525 
Q 2725 213 2448 61 
Q 2172 -91 1784 -91 
Q 1150 -91 751 415 
Q 353 922 353 1747 
Q 353 2572 751 3078 
Q 1150 3584 1784 3584 
Q 2172 3584 2448 3432 
Q 2725 3281 2906 2969 
z
M 947 1747 
Q 947 1113 1208 752 
Q 1469 391 1925 391 
Q 2381 391 2643 752 
Q 2906 1113 2906 1747 
Q 2906 2381 2643 2742 
Q 2381 3103 1925 3103 
Q 1469 3103 1208 2742 
Q 947 2381 947 1747 
z
" transform="scale(0.015625)"/>
       <path id="DejaVuSans-20" transform="scale(0.015625)"/>
       <path id="DejaVuSans-38" d="M 2034 2216 
Q 1584 2216 1326 1975 
Q 1069 1734 1069 1313 
Q 1069 891 1326 650 
Q 1584 409 2034 409 
Q 2484 409 2743 651 
Q 3003 894 3003 1313 
Q 3003 1734 2745 1975 
Q 2488 2216 2034 2216 
z
M 1403 2484 
Q 997 2584 770 2862 
Q 544 3141 544 3541 
Q 544 4100 942 4425 
Q 1341 4750 2034 4750 
Q 2731 4750 3128 4425 
Q 3525 4100 3525 3541 
Q 3525 3141 3298 2862 
Q 3072 2584 2669 2484 
Q 3125 2378 3379 2068 
Q 3634 1759 3634 1313 
Q 3634 634 3220 271 
Q 2806 -91 2034 -91 
Q 1263 -91 848 271 
Q 434 634 434 1313 
Q 434 1759 690 2068 
Q 947 2378 1403 2484 
z
M 1172 3481 
Q 1172 3119 1398 2916 
Q 1625 2713 2034 2713 
Q 2441 2713 2670 2916 
Q 2900 3119 2900 3481 
Q 2900 3844 2670 4047 
Q 2441 4250 2034 4250 
Q 1625 4250 1398 4047 
Q 1172 3844 1172 3481 
z
" transform="scale(0.015625)"/>
       <path id="DejaVuSans-2d" d="M 313 2009 
L 1997 2009 
L 1997 1497 
L 313 1497 
L 313 2009 
z
" transform="scale(0.015625)"/>
       <path id="DejaVuSans-62" d="M 3116 1747 
Q 3116 2381 2855 2742 
Q 2594 3103 2138 3103 
Q 1681 3103 1420 2742 
Q 1159 2381 1159 1747 
Q 1159 1113 1420 752 
Q 1681 391 2138 391 
Q 2594 391 2855 752 
Q 3116 1113 3116 1747 
z
M 1159 2969 
Q 1341 3281 1617 3432 
Q 1894 3584 2278 3584 
Q 2916 3584 3314 3078 
Q 3713 2572 3713 1747 
Q 3713 922 3314 415 
Q 2916 -91 2278 -91 
Q 1894 -91 1617 61 
Q 1341 213 1159 525 
L 1159 0 
L 581 0 
L 581 4863 
L 1159 4863 
L 1159 2969 
z
" transform="scale(0.015625)"/>
       <path id="DejaVuSans-69" d="M 603 3500 
L 1178 3500 
L 1178 0 
L 603 0 
L 603 3500 
z
M 603 4863 
L 1178 4863 
L 1178 4134 
L 603 4134 
L 603 4863 
z
" transform="scale(0.015625)"/>
       <path id="DejaVuSans-4e" d="M 628 4666 
L 1478 4666 
L 3547 763 
L 3547 4666 
L 4159 4666 
L 4159 0 
L 3309 0 
L 1241 3903 
L 1241 0 
L 628 0 
L 628 4666 
z
" transform="scale(0.015625)"/>
       <path id="DejaVuSans-75" d="M 544 1381 
L 544 3500 
L 1119 3500 
L 1119 1403 
Q 1119 906 1312 657 
Q 1506 409 1894 409 
Q 2359 409 2629 706 
Q 2900 1003 2900 1516 
L 2900 3500 
L 3475 3500 
L 3475 0 
L 2900 0 
L 2900 538 
Q 2691 219 2414 64 
Q 2138 -91 1772 -91 
Q 1169 -91 856 284 
Q 544 659 544 1381 
z
M 1991 3584 
L 1991 3584 
z
" transform="scale(0.015625)"/>
       <path id="DejaVuSans-6d" d="M 3328 2828 
Q 3544 3216 3844 3400 
Q 4144 3584 4550 3584 
Q 5097 3584 5394 3201 
Q 5691 2819 5691 2113 
L 5691 0 
L 5113 0 
L 5113 2094 
Q 5113 2597 4934 2840 
Q 4756 3084 4391 3084 
Q 3944 3084 3684 2787 
Q 3425 2491 3425 1978 
L 3425 0 
L 2847 0 
L 2847 2094 
Q 2847 2600 2669 2842 
Q 2491 3084 2119 3084 
Q 1678 3084 1418 2786 
Q 1159 2488 1159 1978 
L 1159 0 
L 581 0 
L 581 3500 
L 1159 3500 
L 1159 2956 
Q 1356 3278 1631 3431 
Q 1906 3584 2284 3584 
Q 2666 3584 2933 3390 
Q 3200 3197 3328 2828 
z
" transform="scale(0.015625)"/>
      </defs>
      <use xlink:href="#DejaVuSans-47"/>
      <use xlink:href="#DejaVuSans-65" x="77.490234"/>
      <use xlink:href="#DejaVuSans-6e" x="139.013672"/>
      <use xlink:href="#DejaVuSans-65" x="202.392578"/>
      <use xlink:href="#DejaVuSans-72" x="263.916016"/>
      <use xlink:href="#DejaVuSans-61" x="305.029297"/>
      <use xlink:href="#DejaVuSans-74" x="366.308594"/>
      <use xlink:href="#DejaVuSans-65" x="405.517578"/>
      <use xlink:href="#DejaVuSans-64" x="467.041016"/>
      <use xlink:href="#DejaVuSans-20" x="530.517578"/>
      <use xlink:href="#DejaVuSans-38" x="562.304688"/>
      <use xlink:href="#DejaVuSans-2d" x="625.927734"/>
      <use xlink:href="#DejaVuSans-62" x="662.011719"/>
      <use xlink:href="#DejaVuSans-69" x="725.488281"/>
      <use xlink:href="#DejaVuSans-74" x="753.271484"/>
      <use xlink:href="#DejaVuSans-20" x="792.480469"/>
      <use xlink:href="#DejaVuSans-4e" x="824.267578"/>
      <use xlink:href="#DejaVuSans-75" x="899.072266"/>
      <use xlink:href="#DejaVuSans-6d" x="962.451172"/>
      <use xlink:href="#DejaVuSans-62" x="1059.863281"/>
      <use xlink:href="#DejaVuSans-65" x="1123.339844"/>
      <use xlink:href="#DejaVuSans-72" x="1184.863281"/>
     </g>
    </g>
   </g>
   <g id="matplotlib.axis_2">
    <g id="ytick_1">
     <g id="line2d_7">
      <defs>
       <path id="mff79ff1df1" d="M 0 0 
L -3.5 0 
" style="stroke: #000000; stroke-width: 0.8"/>
      </defs>
      <g>
       <use xlink:href="#mff79ff1df1" x="129.6" y="503.165907" style="stroke: #000000; stroke-width: 0.8"/>
      </g>
     </g>
     <g id="text_8">
      <!-- 0 -->
      <g transform="translate(116.2375 506.965126) scale(0.1 -0.1)">
       <use xlink:href="#DejaVuSans-30"/>
      </g>
     </g>
    </g>
    <g id="ytick_2">
     <g id="line2d_8">
      <g>
       <use xlink:href="#mff79ff1df1" x="129.6" y="427.890769" style="stroke: #000000; stroke-width: 0.8"/>
      </g>
     </g>
     <g id="text_9">
      <!-- 500 -->
      <g transform="translate(103.5125 431.689988) scale(0.1 -0.1)">
       <use xlink:href="#DejaVuSans-35"/>
       <use xlink:href="#DejaVuSans-30" x="63.623047"/>
       <use xlink:href="#DejaVuSans-30" x="127.246094"/>
      </g>
     </g>
    </g>
    <g id="ytick_3">
     <g id="line2d_9">
      <g>
       <use xlink:href="#mff79ff1df1" x="129.6" y="352.615631" style="stroke: #000000; stroke-width: 0.8"/>
      </g>
     </g>
     <g id="text_10">
      <!-- 1000 -->
      <g transform="translate(97.15 356.41485) scale(0.1 -0.1)">
       <use xlink:href="#DejaVuSans-31"/>
       <use xlink:href="#DejaVuSans-30" x="63.623047"/>
       <use xlink:href="#DejaVuSans-30" x="127.246094"/>
       <use xlink:href="#DejaVuSans-30" x="190.869141"/>
      </g>
     </g>
    </g>
    <g id="ytick_4">
     <g id="line2d_10">
      <g>
       <use xlink:href="#mff79ff1df1" x="129.6" y="277.340493" style="stroke: #000000; stroke-width: 0.8"/>
      </g>
     </g>
     <g id="text_11">
      <!-- 1500 -->
      <g transform="translate(97.15 281.139712) scale(0.1 -0.1)">
       <use xlink:href="#DejaVuSans-31"/>
       <use xlink:href="#DejaVuSans-35" x="63.623047"/>
       <use xlink:href="#DejaVuSans-30" x="127.246094"/>
       <use xlink:href="#DejaVuSans-30" x="190.869141"/>
      </g>
     </g>
    </g>
    <g id="ytick_5">
     <g id="line2d_11">
      <g>
       <use xlink:href="#mff79ff1df1" x="129.6" y="202.065355" style="stroke: #000000; stroke-width: 0.8"/>
      </g>
     </g>
     <g id="text_12">
      <!-- 2000 -->
      <g transform="translate(97.15 205.864573) scale(0.1 -0.1)">
       <use xlink:href="#DejaVuSans-32"/>
       <use xlink:href="#DejaVuSans-30" x="63.623047"/>
       <use xlink:href="#DejaVuSans-30" x="127.246094"/>
       <use xlink:href="#DejaVuSans-30" x="190.869141"/>
      </g>
     </g>
    </g>
    <g id="ytick_6">
     <g id="line2d_12">
      <g>
       <use xlink:href="#mff79ff1df1" x="129.6" y="126.790217" style="stroke: #000000; stroke-width: 0.8"/>
      </g>
     </g>
     <g id="text_13">
      <!-- 2500 -->
      <g transform="translate(97.15 130.589435) scale(0.1 -0.1)">
       <use xlink:href="#DejaVuSans-32"/>
       <use xlink:href="#DejaVuSans-35" x="63.623047"/>
       <use xlink:href="#DejaVuSans-30" x="127.246094"/>
       <use xlink:href="#DejaVuSans-30" x="190.869141"/>
      </g>
     </g>
    </g>
    <g id="text_14">
     <!-- p -->
     <g transform="translate(91.070312 298.053819) rotate(-90) scale(0.1 -0.1)">
      <defs>
       <path id="DejaVuSans-70" d="M 1159 525 
L 1159 -1331 
L 581 -1331 
L 581 3500 
L 1159 3500 
L 1159 2969 
Q 1341 3281 1617 3432 
Q 1894 3584 2278 3584 
Q 2916 3584 3314 3078 
Q 3713 2572 3713 1747 
Q 3713 922 3314 415 
Q 2916 -91 2278 -91 
Q 1894 -91 1617 61 
Q 1341 213 1159 525 
z
M 3116 1747 
Q 3116 2381 2855 2742 
Q 2594 3103 2138 3103 
Q 1681 3103 1420 2742 
Q 1159 2381 1159 1747 
Q 1159 1113 1420 752 
Q 1681 391 2138 391 
Q 2594 391 2855 752 
Q 3116 1113 3116 1747 
z
" transform="scale(0.015625)"/>
      </defs>
      <use xlink:href="#DejaVuSans-70"/>
     </g>
    </g>
   </g>
   <g id="line2d_13">
    <path d="M 129.6 455.140369 
L 132.751059 447.612855 
L 135.902118 444.7524 
L 139.053176 448.817257 
L 142.204235 450.623861 
L 145.355294 447.913956 
L 148.506353 449.419459 
L 151.657412 446.257903 
L 154.808471 447.913956 
L 157.959529 447.161204 
L 161.110588 448.365607 
L 164.261647 440.536992 
L 167.412706 451.226062 
L 170.563765 443.849098 
L 173.714824 442.494146 
L 176.865882 441.289744 
L 180.016941 447.612855 
L 183.168 445.354601 
L 186.319059 450.32276 
L 189.470118 449.570009 
L 192.621176 447.311755 
L 195.772235 447.462305 
L 198.923294 442.644696 
L 202.074353 449.720559 
L 205.225412 449.419459 
L 208.376471 445.956802 
L 214.678588 447.161204 
L 217.829647 444.7524 
L 220.980706 441.139193 
L 224.131765 441.289744 
L 227.282824 439.633691 
L 230.433882 447.010654 
L 233.584941 449.871109 
L 236.736 450.02166 
L 239.887059 445.655702 
L 243.038118 444.150199 
L 246.189176 445.505151 
L 249.340235 446.107352 
L 252.491294 443.849098 
L 255.642353 448.516157 
L 258.793412 444.150199 
L 261.944471 448.064506 
L 265.095529 444.90295 
L 268.246588 447.161204 
L 271.397647 444.60185 
L 274.548706 443.397448 
L 277.699765 441.139193 
L 280.850824 450.47331 
L 284.001882 443.999649 
L 287.152941 450.17221 
L 290.304 444.60185 
L 293.455059 445.505151 
L 296.606118 447.311755 
L 299.757176 445.956802 
L 302.908235 443.547998 
L 306.059294 446.257903 
L 309.210353 439.934791 
L 312.361412 445.505151 
L 315.512471 435.568833 
L 318.663529 446.107352 
L 321.814588 443.096347 
L 324.965647 443.246897 
L 328.116706 439.48314 
L 331.267765 450.47331 
L 334.418824 445.204051 
L 340.720941 447.010654 
L 343.872 446.107352 
L 347.023059 443.698548 
L 350.174118 443.547998 
L 353.325176 446.860104 
L 356.476235 446.408453 
L 359.627294 450.623861 
L 362.778353 447.161204 
L 365.929412 443.246897 
L 369.080471 443.547998 
L 372.231529 449.419459 
L 375.382588 447.612855 
L 378.533647 437.525987 
L 381.684706 445.354601 
L 384.835765 448.064506 
L 387.986824 447.612855 
L 391.137882 437.525987 
L 394.288941 446.559003 
L 397.44 438.880939 
L 400.591059 444.7524 
L 403.742118 444.7524 
L 406.893176 448.215056 
L 410.044235 444.90295 
L 413.195294 445.505151 
L 416.346353 442.494146 
L 419.497412 442.494146 
L 422.648471 442.644696 
L 425.799529 442.193045 
L 428.950588 439.784241 
L 432.101647 446.860104 
L 435.252706 446.257903 
L 438.403765 442.795246 
L 441.554824 447.462305 
L 444.705882 445.956802 
L 447.856941 441.590844 
L 451.008 439.784241 
L 454.159059 444.7524 
L 457.310118 446.559003 
L 460.461176 444.90295 
L 463.612235 442.945797 
L 466.763294 442.193045 
L 469.914353 444.7524 
L 473.065412 440.536992 
L 476.216471 442.042495 
L 479.367529 437.676537 
L 482.518588 449.720559 
L 485.669647 443.849098 
L 488.820706 443.698548 
L 491.971765 442.343596 
L 495.122824 445.354601 
L 498.273882 440.386442 
L 501.424941 447.010654 
L 504.576 443.397448 
L 510.878118 446.107352 
L 514.029176 436.773235 
L 517.180235 445.354601 
L 520.331294 436.171034 
L 523.482353 444.300749 
L 526.633412 444.60185 
L 529.784471 440.536992 
L 532.935529 453.333766 
L 536.086588 446.107352 
L 539.237647 448.064506 
L 542.388706 442.193045 
L 545.539765 445.655702 
L 548.690824 450.623861 
L 551.841882 450.774411 
L 554.992941 443.096347 
L 558.144 448.666707 
L 561.295059 447.010654 
L 564.446118 443.096347 
L 567.597176 441.590844 
L 570.748235 448.215056 
L 573.899294 441.289744 
L 577.050353 446.860104 
L 580.201412 445.204051 
L 583.352471 447.311755 
L 586.503529 444.300749 
L 589.654588 447.763406 
L 592.805647 442.945797 
L 595.956706 448.666707 
L 599.107765 442.945797 
L 602.258824 443.698548 
L 605.409882 447.913956 
L 608.560941 440.988643 
L 611.712 440.687543 
L 614.863059 442.945797 
L 618.014118 440.988643 
L 621.165176 452.279914 
L 624.316235 440.536992 
L 627.467294 437.676537 
L 630.618353 441.289744 
L 633.769412 448.215056 
L 636.920471 450.623861 
L 640.071529 446.709554 
L 643.222588 443.246897 
L 646.373647 447.763406 
L 649.524706 440.085341 
L 652.675765 441.891945 
L 655.826824 437.525987 
L 658.977882 447.161204 
L 662.128941 443.849098 
L 665.28 443.547998 
L 668.431059 449.419459 
L 671.582118 441.289744 
L 674.733176 442.494146 
L 677.884235 439.934791 
L 681.035294 439.784241 
L 684.186353 447.913956 
L 687.337412 448.064506 
L 690.488471 444.150199 
L 693.639529 443.096347 
L 696.790588 449.419459 
L 699.941647 442.343596 
L 703.092706 444.451299 
L 706.243765 443.547998 
L 709.394824 444.60185 
L 712.545882 446.860104 
L 715.696941 445.204051 
L 718.848 443.397448 
L 721.999059 440.235892 
L 725.150118 444.451299 
L 728.301176 441.440294 
L 731.452235 437.827087 
L 734.603294 450.02166 
L 737.754353 445.806252 
L 740.905412 448.516157 
L 744.056471 447.010654 
L 747.207529 441.440294 
L 750.358588 443.849098 
L 753.509647 445.655702 
L 756.660706 440.988643 
L 759.811765 445.204051 
L 762.962824 442.343596 
L 766.113882 446.860104 
L 769.264941 440.687543 
L 772.416 447.913956 
L 775.567059 446.860104 
L 778.718118 443.246897 
L 781.869176 442.494146 
L 785.020235 442.945797 
L 788.171294 442.343596 
L 791.322353 444.60185 
L 794.473412 443.246897 
L 797.624471 444.451299 
L 800.775529 439.18204 
L 803.926588 440.085341 
L 807.077647 443.698548 
L 810.228706 443.397448 
L 813.379765 448.064506 
L 816.530824 441.741394 
L 819.681882 441.891945 
L 822.832941 438.278738 
L 825.984 438.730389 
L 829.135059 441.289744 
L 832.286118 439.48314 
L 835.437176 437.525987 
L 838.588235 445.204051 
L 841.739294 438.880939 
L 844.890353 445.354601 
L 848.041412 445.354601 
L 851.192471 445.204051 
L 854.343529 445.956802 
L 857.494588 446.860104 
L 860.645647 442.494146 
L 863.796706 441.741394 
L 866.947765 443.246897 
L 870.098824 441.590844 
L 873.249882 443.246897 
L 876.400941 437.525987 
L 879.552 445.354601 
L 882.703059 437.827087 
L 885.854118 445.053501 
L 889.005176 440.988643 
L 892.156235 441.289744 
L 895.307294 436.020484 
L 898.458353 443.999649 
L 901.609412 442.042495 
L 904.760471 445.655702 
L 907.911529 444.150199 
L 911.062588 443.698548 
L 914.213647 445.806252 
L 917.364706 433.160029 
L 920.515765 443.698548 
L 923.666824 440.536992 
L 926.817882 439.48314 
L 929.968941 439.934791 
L 933.12 437.074336 
L 933.12 437.074336 
" clip-path="url(#pc073e3cc15)" style="fill: none; stroke: #1f77b4; stroke-opacity: 0.5; stroke-width: 1.5; stroke-linecap: square"/>
   </g>
   <g id="line2d_14">
    <path d="M 129.6 90.5076 
L 132.751059 268.458027 
L 135.902118 266.199772 
L 139.053176 366.014606 
L 142.204235 272.372334 
L 145.355294 365.111304 
L 148.506353 373.69267 
L 151.657412 424.428113 
L 154.808471 266.049222 
L 157.959529 364.057452 
L 161.110588 371.283865 
L 164.261647 429.847923 
L 167.412706 363.605801 
L 170.563765 431.805076 
L 173.714824 423.374261 
L 176.865882 460.108528 
L 180.016941 266.651423 
L 183.168 368.122309 
L 186.319059 373.542119 
L 189.470118 431.052325 
L 192.621176 374.14432 
L 195.772235 428.49297 
L 198.923294 420.814906 
L 202.074353 456.194221 
L 205.225412 362.551949 
L 208.376471 431.353425 
L 211.527529 422.621509 
L 214.678588 464.022835 
L 217.829647 421.266557 
L 220.980706 458.151375 
L 224.131765 457.699724 
L 227.282824 480.583366 
L 230.433882 265.447021 
L 233.584941 379.41358 
L 236.736 364.358552 
L 239.887059 428.944621 
L 243.038118 369.928913 
L 246.189176 426.385266 
L 249.340235 430.600674 
L 252.491294 461.16238 
L 255.642353 370.681664 
L 258.793412 429.847923 
L 261.944471 432.256727 
L 265.095529 458.603025 
L 268.246588 430.450124 
L 271.397647 463.270084 
L 274.548706 461.463481 
L 277.699765 478.626212 
L 280.850824 366.917907 
L 284.001882 427.740219 
L 287.152941 422.019308 
L 290.304 464.474486 
L 293.455059 431.353425 
L 296.606118 461.16238 
L 299.757176 466.28109 
L 302.908235 479.830614 
L 306.059294 430.751224 
L 309.210353 462.065682 
L 312.361412 460.86128 
L 315.512471 479.077863 
L 318.663529 459.205227 
L 321.814588 478.776762 
L 324.965647 480.282265 
L 328.116706 491.121885 
L 331.267765 264.393169 
L 334.418824 375.800373 
L 337.569882 369.477262 
L 340.720941 423.374261 
L 343.872 370.079463 
L 347.023059 430.149023 
L 350.174118 425.783065 
L 353.325176 461.764581 
L 356.476235 371.584966 
L 359.627294 422.621509 
L 362.778353 430.600674 
L 365.929412 460.710729 
L 369.080471 427.740219 
L 372.231529 459.957978 
L 375.382588 459.205227 
L 378.533647 479.529514 
L 381.684706 367.219008 
L 384.835765 427.439118 
L 387.986824 429.396272 
L 391.137882 456.344771 
L 394.288941 428.944621 
L 397.44 457.850274 
L 400.591059 461.01183 
L 403.742118 482.239419 
L 406.893176 430.751224 
L 410.044235 462.065682 
L 413.195294 456.796422 
L 416.346353 480.432815 
L 419.497412 458.452475 
L 422.648471 479.830614 
L 425.799529 477.72291 
L 428.950588 489.164731 
L 432.101647 366.165156 
L 435.252706 425.632515 
L 438.403765 431.503976 
L 441.554824 455.140369 
L 444.705882 421.417107 
L 447.856941 464.625036 
L 451.008 461.463481 
L 454.159059 478.174561 
L 457.310118 423.675361 
L 460.461176 463.270084 
L 463.612235 456.796422 
L 466.763294 480.432815 
L 469.914353 463.420634 
L 473.065412 477.120709 
L 476.216471 479.680064 
L 479.367529 487.960329 
L 482.518588 427.138018 
L 485.669647 454.086517 
L 488.820706 464.474486 
L 491.971765 481.185567 
L 495.122824 458.151375 
L 498.273882 477.873461 
L 501.424941 477.873461 
L 504.576 487.207578 
L 507.727059 458.000824 
L 510.878118 479.680064 
L 514.029176 480.884466 
L 517.180235 489.014181 
L 520.331294 481.787768 
L 523.482353 490.670234 
L 526.633412 488.863631 
L 529.784471 495.487843 
L 532.935529 258.521708 
L 536.086588 371.584966 
L 539.237647 369.477262 
L 542.388706 428.944621 
L 545.539765 376.252024 
L 548.690824 426.686367 
L 551.841882 427.589669 
L 554.992941 459.355777 
L 558.144 371.735516 
L 561.295059 426.084166 
L 564.446118 425.180864 
L 567.597176 461.915131 
L 570.748235 432.407277 
L 573.899294 459.205227 
L 577.050353 461.463481 
L 580.201412 478.024011 
L 583.352471 375.047622 
L 586.503529 431.805076 
L 589.654588 428.041319 
L 592.805647 459.355777 
L 595.956706 427.439118 
L 599.107765 458.753576 
L 602.258824 459.054676 
L 605.409882 477.120709 
L 608.560941 429.245722 
L 611.712 464.173386 
L 614.863059 459.205227 
L 618.014118 481.486667 
L 621.165176 462.216232 
L 624.316235 479.981165 
L 627.467294 477.72291 
L 630.618353 490.820785 
L 633.769412 370.531114 
L 636.920471 420.814906 
L 640.071529 428.041319 
L 643.222588 458.904126 
L 646.373647 424.127012 
L 649.524706 459.054676 
L 652.675765 459.506327 
L 655.826824 474.862455 
L 658.977882 427.439118 
L 662.128941 457.398623 
L 665.28 461.01183 
L 668.431059 476.819609 
L 671.582118 463.571185 
L 674.733176 478.927313 
L 677.884235 480.733916 
L 681.035294 490.369134 
L 684.186353 431.052325 
L 687.337412 461.01183 
L 690.488471 463.270084 
L 693.639529 482.99217 
L 696.790588 459.506327 
L 699.941647 476.066857 
L 703.092706 478.776762 
L 706.243765 490.068033 
L 709.394824 460.108528 
L 712.545882 476.819609 
L 715.696941 476.518508 
L 718.848 489.164731 
L 721.999059 476.669059 
L 725.150118 491.422986 
L 728.301176 489.917483 
L 731.452235 496.240594 
L 734.603294 372.488267 
L 737.754353 429.998473 
L 740.905412 427.288568 
L 744.056471 452.430464 
L 747.207529 428.944621 
L 750.358588 463.721735 
L 753.509647 464.926137 
L 756.660706 479.981165 
L 759.811765 427.740219 
L 762.962824 465.829439 
L 766.113882 458.301925 
L 769.264941 482.239419 
L 772.416 464.775587 
L 775.567059 478.325112 
L 778.718118 481.787768 
L 781.869176 490.068033 
L 785.020235 428.49297 
L 788.171294 462.366782 
L 791.322353 459.957978 
L 794.473412 479.228413 
L 797.624471 458.753576 
L 800.775529 478.626212 
L 803.926588 481.185567 
L 807.077647 490.218583 
L 810.228706 455.74257 
L 813.379765 479.680064 
L 816.530824 480.583366 
L 819.681882 487.358128 
L 822.832941 479.228413 
L 825.984 489.164731 
L 829.135059 487.508678 
L 832.286118 495.939494 
L 835.437176 425.632515 
L 838.588235 458.000824 
L 841.739294 464.926137 
L 844.890353 479.981165 
L 848.041412 459.355777 
L 851.192471 480.583366 
L 854.343529 482.239419 
L 857.494588 488.41198 
L 860.645647 453.484316 
L 863.796706 478.927313 
L 866.947765 475.615207 
L 870.098824 490.218583 
L 873.249882 476.669059 
L 876.400941 489.164731 
L 879.552 486.906477 
L 882.703059 495.788944 
L 885.854118 462.065682 
L 889.005176 479.077863 
L 892.156235 478.325112 
L 895.307294 492.326287 
L 898.458353 478.927313 
L 901.609412 490.369134 
L 904.760471 489.164731 
L 907.911529 493.83179 
L 911.062588 479.228413 
L 914.213647 489.917483 
L 917.364706 489.465832 
L 920.515765 496.391145 
L 923.666824 492.777938 
L 926.817882 496.692245 
L 929.968941 496.391145 
L 933.12 499.2516 
L 933.12 499.2516 
" clip-path="url(#pc073e3cc15)" style="fill: none; stroke: #ff7f0e; stroke-opacity: 0.6; stroke-width: 1.5; stroke-linecap: square"/>
   </g>
   <g id="line2d_15">
    <path d="M 129.6 442.494146 
L 132.751059 445.354601 
L 135.902118 440.235892 
L 139.053176 445.354601 
L 142.204235 439.633691 
L 145.355294 439.784241 
L 148.506353 445.053501 
L 151.657412 442.945797 
L 154.808471 445.053501 
L 157.959529 440.838093 
L 161.110588 447.010654 
L 164.261647 444.150199 
L 167.412706 442.042495 
L 170.563765 444.7524 
L 173.714824 435.568833 
L 176.865882 444.300749 
L 180.016941 441.440294 
L 183.168 442.343596 
L 186.319059 437.074336 
L 189.470118 442.193045 
L 192.621176 444.150199 
L 195.772235 445.956802 
L 198.923294 445.956802 
L 202.074353 442.644696 
L 205.225412 446.257903 
L 208.376471 441.139193 
L 211.527529 446.709554 
L 214.678588 442.343596 
L 217.829647 446.257903 
L 220.980706 448.365607 
L 224.131765 447.913956 
L 227.282824 445.655702 
L 230.433882 440.235892 
L 233.584941 442.644696 
L 236.736 441.741394 
L 239.887059 439.934791 
L 243.038118 440.085341 
L 246.189176 444.7524 
L 249.340235 441.590844 
L 252.491294 445.053501 
L 255.642353 445.053501 
L 258.793412 440.988643 
L 261.944471 436.321585 
L 265.095529 447.913956 
L 268.246588 437.375436 
L 271.397647 451.075512 
L 274.548706 450.47331 
L 277.699765 449.118358 
L 280.850824 447.010654 
L 284.001882 445.053501 
L 287.152941 438.128188 
L 290.304 443.999649 
L 293.455059 448.064506 
L 296.606118 442.343596 
L 299.757176 449.570009 
L 302.908235 443.246897 
L 306.059294 446.559003 
L 309.210353 445.655702 
L 312.361412 442.795246 
L 315.512471 445.053501 
L 318.663529 443.698548 
L 321.814588 450.774411 
L 324.965647 443.849098 
L 328.116706 445.505151 
L 331.267765 439.633691 
L 334.418824 443.547998 
L 337.569882 443.397448 
L 340.720941 441.139193 
L 343.872 448.064506 
L 347.023059 440.838093 
L 350.174118 442.193045 
L 353.325176 437.977638 
L 356.476235 439.48314 
L 359.627294 442.042495 
L 362.778353 441.289744 
L 365.929412 446.257903 
L 369.080471 447.612855 
L 372.231529 446.257903 
L 375.382588 446.709554 
L 378.533647 448.516157 
L 381.684706 439.934791 
L 384.835765 445.354601 
L 387.986824 446.860104 
L 391.137882 445.053501 
L 394.288941 441.289744 
L 397.44 448.365607 
L 400.591059 450.623861 
L 403.742118 448.967808 
L 406.893176 446.408453 
L 410.044235 442.945797 
L 413.195294 445.204051 
L 416.346353 448.365607 
L 419.497412 444.60185 
L 422.648471 443.999649 
L 425.799529 445.354601 
L 428.950588 442.343596 
L 432.101647 443.698548 
L 435.252706 441.891945 
L 438.403765 441.440294 
L 441.554824 441.891945 
L 444.705882 443.849098 
L 447.856941 442.193045 
L 451.008 442.945797 
L 454.159059 447.311755 
L 457.310118 441.289744 
L 460.461176 442.795246 
L 463.612235 444.7524 
L 466.763294 442.494146 
L 469.914353 450.623861 
L 473.065412 443.698548 
L 476.216471 438.880939 
L 479.367529 446.408453 
L 482.518588 438.278738 
L 485.669647 443.246897 
L 488.820706 444.90295 
L 491.971765 447.913956 
L 495.122824 442.945797 
L 498.273882 441.741394 
L 501.424941 447.311755 
L 504.576 445.956802 
L 507.727059 447.010654 
L 510.878118 447.462305 
L 514.029176 447.161204 
L 517.180235 446.408453 
L 520.331294 449.118358 
L 523.482353 443.849098 
L 526.633412 447.161204 
L 529.784471 442.795246 
L 532.935529 439.18204 
L 536.086588 446.408453 
L 539.237647 445.505151 
L 542.388706 444.451299 
L 545.539765 444.90295 
L 548.690824 443.397448 
L 551.841882 446.257903 
L 554.992941 447.311755 
L 558.144 439.633691 
L 561.295059 446.709554 
L 564.446118 444.451299 
L 567.597176 447.612855 
L 570.748235 442.343596 
L 573.899294 442.644696 
L 577.050353 443.246897 
L 580.201412 445.505151 
L 583.352471 442.795246 
L 586.503529 445.505151 
L 589.654588 442.494146 
L 592.805647 445.354601 
L 595.956706 443.246897 
L 599.107765 451.226062 
L 602.258824 449.118358 
L 605.409882 447.913956 
L 608.560941 442.042495 
L 611.712 446.257903 
L 614.863059 444.90295 
L 618.014118 446.408453 
L 621.165176 438.579839 
L 624.316235 441.139193 
L 630.618353 446.559003 
L 633.769412 445.655702 
L 636.920471 442.644696 
L 640.071529 444.90295 
L 643.222588 439.934791 
L 646.373647 441.741394 
L 649.524706 446.559003 
L 652.675765 443.698548 
L 655.826824 447.462305 
L 658.977882 440.386442 
L 662.128941 438.730389 
L 665.28 441.891945 
L 668.431059 447.462305 
L 671.582118 445.806252 
L 674.733176 443.096347 
L 681.035294 440.386442 
L 684.186353 446.257903 
L 687.337412 442.945797 
L 690.488471 441.891945 
L 693.639529 445.806252 
L 696.790588 442.042495 
L 699.941647 442.945797 
L 703.092706 446.107352 
L 706.243765 448.967808 
L 709.394824 444.300749 
L 712.545882 441.741394 
L 715.696941 446.709554 
L 718.848 445.204051 
L 721.999059 447.763406 
L 725.150118 442.795246 
L 728.301176 445.655702 
L 731.452235 447.311755 
L 734.603294 440.536992 
L 737.754353 444.150199 
L 740.905412 443.096347 
L 744.056471 450.02166 
L 747.207529 450.47331 
L 750.358588 447.010654 
L 753.509647 447.462305 
L 756.660706 443.096347 
L 759.811765 446.408453 
L 762.962824 439.48314 
L 766.113882 445.505151 
L 769.264941 446.107352 
L 772.416 444.60185 
L 775.567059 443.849098 
L 778.718118 444.7524 
L 781.869176 443.698548 
L 785.020235 439.33259 
L 788.171294 445.505151 
L 791.322353 446.559003 
L 794.473412 445.505151 
L 797.624471 444.300749 
L 800.775529 442.343596 
L 803.926588 442.795246 
L 807.077647 441.440294 
L 810.228706 448.666707 
L 813.379765 447.612855 
L 816.530824 441.289744 
L 819.681882 448.365607 
L 822.832941 448.666707 
L 825.984 445.354601 
L 829.135059 443.849098 
L 832.286118 443.999649 
L 835.437176 445.204051 
L 838.588235 449.720559 
L 841.739294 441.289744 
L 844.890353 449.871109 
L 848.041412 442.042495 
L 851.192471 443.999649 
L 854.343529 445.204051 
L 857.494588 447.161204 
L 860.645647 445.505151 
L 863.796706 440.536992 
L 866.947765 447.311755 
L 870.098824 439.784241 
L 873.249882 444.150199 
L 876.400941 445.655702 
L 879.552 447.612855 
L 882.703059 449.419459 
L 885.854118 440.988643 
L 889.005176 447.311755 
L 892.156235 445.655702 
L 895.307294 445.053501 
L 898.458353 443.397448 
L 901.609412 445.204051 
L 904.760471 443.547998 
L 907.911529 450.32276 
L 911.062588 444.451299 
L 914.213647 447.010654 
L 917.364706 445.505151 
L 920.515765 447.010654 
L 923.666824 439.934791 
L 926.817882 439.03149 
L 929.968941 443.849098 
L 933.12 442.644696 
L 933.12 442.644696 
" clip-path="url(#pc073e3cc15)" style="fill: none; stroke: #2ca02c; stroke-opacity: 0.8; stroke-width: 1.5; stroke-linecap: square"/>
   </g>
   <g id="line2d_16">
    <path d="M 129.6 495.638393 
L 132.751059 491.724086 
L 135.902118 492.025187 
L 139.053176 485.400975 
L 142.204235 492.025187 
L 145.355294 483.594371 
L 148.506353 482.99217 
L 151.657412 473.808603 
L 154.808471 493.83179 
L 157.959529 484.949324 
L 161.110588 484.648223 
L 164.261647 471.700899 
L 167.412706 485.551525 
L 170.563765 473.356952 
L 173.714824 469.593196 
L 176.865882 461.463481 
L 180.016941 490.369134 
L 183.168 486.153726 
L 186.319059 486.755927 
L 189.470118 472.604201 
L 192.621176 482.99217 
L 195.772235 474.862455 
L 198.923294 469.743746 
L 202.074353 455.140369 
L 205.225412 483.293271 
L 208.376471 474.711905 
L 211.527529 473.808603 
L 214.678588 454.688718 
L 217.829647 476.819609 
L 220.980706 452.430464 
L 224.131765 454.387618 
L 227.282824 425.030314 
L 230.433882 488.56253 
L 233.584941 486.605377 
L 236.736 484.046022 
L 239.887059 469.593196 
L 243.038118 484.648223 
L 246.189176 471.550349 
L 249.340235 475.013006 
L 252.491294 459.506327 
L 255.642353 486.003176 
L 258.793412 469.292095 
L 261.944471 468.539344 
L 265.095529 453.935967 
L 268.246588 475.314106 
L 271.397647 465.076687 
L 274.548706 458.000824 
L 277.699765 424.127012 
L 280.850824 484.648223 
L 284.001882 477.57236 
L 287.152941 473.658053 
L 290.304 454.989819 
L 293.455059 479.077863 
L 296.606118 451.978813 
L 299.757176 455.59202 
L 302.908235 421.718208 
L 306.059294 471.550349 
L 309.210353 455.59202 
L 312.361412 458.452475 
L 315.512471 428.041319 
L 318.663529 452.279914 
L 321.814588 424.428113 
L 324.965647 434.06333 
L 328.116706 383.628988 
L 331.267765 490.971335 
L 334.418824 484.497673 
L 337.569882 483.594371 
L 340.720941 472.453651 
L 343.872 483.895472 
L 347.023059 470.948148 
L 350.174118 473.356952 
L 353.325176 453.634866 
L 356.476235 485.099874 
L 359.627294 471.550349 
L 362.778353 473.959154 
L 365.929412 455.59202 
L 369.080471 474.711905 
L 372.231529 456.043671 
L 375.382588 458.151375 
L 378.533647 426.987467 
L 381.684706 483.895472 
L 384.835765 470.797598 
L 387.986824 476.066857 
L 391.137882 456.796422 
L 394.288941 475.765757 
L 397.44 459.656877 
L 400.591059 456.344771 
L 403.742118 426.987467 
L 406.893176 474.862455 
L 410.044235 458.904126 
L 413.195294 454.989819 
L 416.346353 425.180864 
L 419.497412 452.882115 
L 422.648471 430.450124 
L 425.799529 427.890769 
L 428.950588 380.166331 
L 432.101647 485.099874 
L 435.252706 470.647048 
L 438.403765 473.507503 
L 441.554824 451.677713 
L 444.705882 475.615207 
L 447.856941 456.194221 
L 451.008 456.645872 
L 454.159059 433.76223 
L 457.310118 472.453651 
L 460.461176 454.538168 
L 463.612235 453.484316 
L 466.763294 426.836917 
L 469.914353 454.839269 
L 473.065412 430.450124 
L 476.216471 429.245722 
L 479.367529 387.994946 
L 482.518588 475.314106 
L 485.669647 461.915131 
L 488.820706 453.333766 
L 491.971765 433.310579 
L 495.122824 458.753576 
L 498.273882 429.697372 
L 501.424941 425.331414 
L 504.576 382.725686 
L 507.727059 460.86128 
L 510.878118 423.07316 
L 514.029176 418.707202 
L 517.180235 378.510278 
L 520.331294 422.169859 
L 523.482353 380.919083 
L 526.633412 384.381739 
L 529.784471 304.439543 
L 532.935529 492.025187 
L 536.086588 480.131715 
L 539.237647 486.153726 
L 542.388706 470.345947 
L 545.539765 485.852625 
L 548.690824 476.066857 
L 551.841882 473.658053 
L 554.992941 457.248073 
L 558.144 487.960329 
L 561.295059 475.163556 
L 564.446118 472.604201 
L 567.597176 460.108528 
L 570.748235 474.410804 
L 573.899294 457.549173 
L 577.050353 453.183215 
L 580.201412 430.901775 
L 583.352471 484.949324 
L 586.503529 470.948148 
L 589.654588 472.15255 
L 592.805647 453.032665 
L 595.956706 474.109704 
L 599.107765 454.237067 
L 602.258824 458.603025 
L 605.409882 426.385266 
L 608.560941 471.550349 
L 611.712 458.301925 
L 614.863059 455.290919 
L 618.014118 429.697372 
L 621.165176 454.387618 
L 624.316235 433.310579 
L 627.467294 429.546822 
L 630.618353 381.521284 
L 633.769412 484.949324 
L 636.920471 471.550349 
L 640.071529 472.002 
L 643.222588 452.581014 
L 646.373647 476.217408 
L 649.524706 459.205227 
L 652.675765 456.344771 
L 655.826824 425.933615 
L 658.977882 474.109704 
L 662.128941 454.989819 
L 665.28 457.549173 
L 668.431059 428.944621 
L 671.582118 454.237067 
L 674.733176 426.987467 
L 677.884235 428.49297 
L 681.035294 383.779538 
L 684.186353 473.206402 
L 687.337412 456.194221 
L 690.488471 455.74257 
L 693.639529 430.901775 
L 696.790588 462.667883 
L 699.941647 430.149023 
L 703.092706 425.783065 
L 706.243765 377.456427 
L 709.394824 453.333766 
L 712.545882 426.385266 
L 715.696941 423.825912 
L 718.848 384.53229 
L 721.999059 422.621509 
L 725.150118 385.887242 
L 728.301176 382.274035 
L 731.452235 305.945045 
L 734.603294 487.057028 
L 737.754353 474.561355 
L 740.905412 475.615207 
L 744.056471 458.000824 
L 747.207529 474.561355 
L 750.358588 452.731565 
L 753.509647 453.785417 
L 756.660706 427.740219 
L 759.811765 472.002 
L 762.962824 453.333766 
L 766.113882 458.904126 
L 769.264941 427.439118 
L 772.416 460.108528 
L 775.567059 429.245722 
L 778.718118 422.470959 
L 781.869176 378.058628 
L 785.020235 471.249249 
L 788.171294 459.957978 
L 791.322353 456.796422 
L 794.473412 429.546822 
L 797.624471 458.753576 
L 800.775529 425.783065 
L 803.926588 429.847923 
L 807.077647 384.231189 
L 810.228706 456.946972 
L 813.379765 430.149023 
L 816.530824 426.686367 
L 819.681882 378.359728 
L 822.832941 429.245722 
L 825.984 381.370734 
L 829.135059 385.736692 
L 832.286118 311.364855 
L 835.437176 476.819609 
L 838.588235 458.603025 
L 841.739294 460.259078 
L 844.890353 426.084166 
L 848.041412 456.796422 
L 851.192471 434.966632 
L 854.343529 427.439118 
L 857.494588 387.994946 
L 860.645647 456.796422 
L 863.796706 426.535817 
L 866.947765 425.180864 
L 870.098824 378.961929 
L 873.249882 427.439118 
L 876.400941 383.026787 
L 879.552 384.53229 
L 882.703059 308.805501 
L 885.854118 453.183215 
L 889.005176 430.450124 
L 892.156235 429.095171 
L 895.307294 386.338893 
L 898.458353 432.256727 
L 901.609412 370.531114 
L 904.760471 391.758703 
L 907.911529 306.547246 
L 911.062588 429.847923 
L 914.213647 374.897072 
L 917.364706 380.467432 
L 920.515765 302.181288 
L 923.666824 379.11248 
L 926.817882 307.751649 
L 929.968941 300.675786 
L 933.12 195.591693 
L 933.12 195.591693 
" clip-path="url(#pc073e3cc15)" style="fill: none; stroke: #d62728; stroke-opacity: 0.6; stroke-width: 1.5; stroke-linecap: square"/>
   </g>
   <g id="line2d_17">
    <path d="M 129.6 443.096347 
L 132.751059 441.289744 
L 135.902118 446.860104 
L 139.053176 439.48314 
L 142.204235 439.33259 
L 145.355294 446.559003 
L 148.506353 447.913956 
L 151.657412 440.838093 
L 154.808471 441.289744 
L 157.959529 442.343596 
L 161.110588 441.440294 
L 164.261647 443.246897 
L 167.412706 441.289744 
L 170.563765 444.150199 
L 173.714824 447.311755 
L 176.865882 445.956802 
L 180.016941 439.633691 
L 183.168 441.289744 
L 186.319059 436.472135 
L 189.470118 443.999649 
L 192.621176 445.354601 
L 195.772235 440.536992 
L 198.923294 446.107352 
L 202.074353 443.397448 
L 205.225412 447.161204 
L 208.376471 447.612855 
L 211.527529 440.988643 
L 214.678588 444.60185 
L 217.829647 443.849098 
L 220.980706 445.806252 
L 224.131765 448.064506 
L 227.282824 444.150199 
L 230.433882 445.053501 
L 233.584941 444.90295 
L 236.736 439.934791 
L 239.887059 440.235892 
L 243.038118 443.547998 
L 246.189176 444.451299 
L 249.340235 445.505151 
L 252.491294 443.096347 
L 255.642353 438.579839 
L 258.793412 445.354601 
L 261.944471 439.03149 
L 265.095529 446.709554 
L 268.246588 445.053501 
L 271.397647 444.150199 
L 274.548706 440.536992 
L 277.699765 446.709554 
L 280.850824 445.806252 
L 284.001882 443.547998 
L 287.152941 443.246897 
L 290.304 443.547998 
L 293.455059 448.064506 
L 296.606118 444.7524 
L 299.757176 443.397448 
L 302.908235 444.150199 
L 306.059294 440.988643 
L 309.210353 449.570009 
L 312.361412 442.644696 
L 315.512471 442.343596 
L 318.663529 446.709554 
L 321.814588 448.666707 
L 324.965647 440.687543 
L 328.116706 440.536992 
L 331.267765 441.741394 
L 334.418824 441.741394 
L 337.569882 445.806252 
L 340.720941 447.161204 
L 343.872 443.397448 
L 347.023059 440.536992 
L 350.174118 444.90295 
L 353.325176 439.633691 
L 356.476235 443.096347 
L 359.627294 444.60185 
L 362.778353 451.677713 
L 365.929412 443.397448 
L 369.080471 446.408453 
L 372.231529 444.150199 
L 375.382588 442.494146 
L 378.533647 446.107352 
L 381.684706 443.096347 
L 384.835765 449.570009 
L 387.986824 443.849098 
L 391.137882 442.042495 
L 394.288941 445.956802 
L 397.44 447.462305 
L 400.591059 443.698548 
L 403.742118 447.913956 
L 406.893176 447.161204 
L 410.044235 439.633691 
L 413.195294 442.644696 
L 416.346353 447.161204 
L 419.497412 443.698548 
L 422.648471 447.763406 
L 425.799529 447.462305 
L 428.950588 446.559003 
L 432.101647 439.18204 
L 435.252706 441.139193 
L 438.403765 446.408453 
L 441.554824 447.311755 
L 444.705882 442.193045 
L 447.856941 442.945797 
L 451.008 447.161204 
L 454.159059 439.784241 
L 457.310118 442.343596 
L 463.612235 446.860104 
L 466.763294 443.547998 
L 469.914353 444.90295 
L 473.065412 445.655702 
L 476.216471 446.559003 
L 479.367529 441.440294 
L 482.518588 440.687543 
L 485.669647 441.289744 
L 488.820706 442.795246 
L 491.971765 439.633691 
L 495.122824 444.451299 
L 498.273882 447.161204 
L 501.424941 444.300749 
L 504.576 449.419459 
L 507.727059 443.547998 
L 510.878118 445.655702 
L 514.029176 445.053501 
L 517.180235 440.838093 
L 520.331294 445.204051 
L 523.482353 442.193045 
L 526.633412 449.419459 
L 529.784471 445.354601 
L 532.935529 445.204051 
L 536.086588 448.064506 
L 539.237647 445.204051 
L 542.388706 448.064506 
L 545.539765 442.795246 
L 548.690824 448.365607 
L 551.841882 445.655702 
L 554.992941 443.397448 
L 558.144 445.053501 
L 561.295059 440.687543 
L 564.446118 448.666707 
L 567.597176 443.397448 
L 570.748235 440.838093 
L 573.899294 442.644696 
L 577.050353 446.257903 
L 580.201412 437.676537 
L 583.352471 443.246897 
L 586.503529 447.010654 
L 589.654588 446.257903 
L 592.805647 443.096347 
L 595.956706 441.891945 
L 599.107765 447.311755 
L 602.258824 444.7524 
L 605.409882 446.107352 
L 608.560941 440.386442 
L 611.712 442.644696 
L 614.863059 449.720559 
L 618.014118 443.547998 
L 621.165176 445.354601 
L 624.316235 443.096347 
L 630.618353 448.967808 
L 633.769412 443.849098 
L 636.920471 441.590844 
L 640.071529 442.343596 
L 643.222588 447.010654 
L 646.373647 442.795246 
L 649.524706 441.590844 
L 652.675765 448.365607 
L 655.826824 442.494146 
L 658.977882 443.849098 
L 662.128941 452.279914 
L 665.28 438.880939 
L 668.431059 442.795246 
L 671.582118 440.536992 
L 674.733176 439.934791 
L 677.884235 441.440294 
L 681.035294 445.204051 
L 684.186353 445.053501 
L 687.337412 450.924961 
L 690.488471 447.612855 
L 693.639529 443.849098 
L 696.790588 443.096347 
L 699.941647 449.871109 
L 703.092706 442.494146 
L 706.243765 446.107352 
L 709.394824 442.042495 
L 712.545882 444.90295 
L 715.696941 442.193045 
L 718.848 443.246897 
L 721.999059 442.042495 
L 725.150118 444.60185 
L 728.301176 446.257903 
L 731.452235 448.365607 
L 734.603294 438.429288 
L 737.754353 437.224886 
L 740.905412 444.451299 
L 744.056471 446.257903 
L 747.207529 439.934791 
L 750.358588 445.505151 
L 753.509647 448.064506 
L 756.660706 449.570009 
L 759.811765 446.408453 
L 762.962824 445.956802 
L 766.113882 445.204051 
L 769.264941 444.300749 
L 772.416 443.096347 
L 775.567059 447.763406 
L 778.718118 445.806252 
L 781.869176 446.107352 
L 785.020235 448.365607 
L 788.171294 449.720559 
L 791.322353 440.838093 
L 794.473412 445.806252 
L 797.624471 443.999649 
L 800.775529 453.634866 
L 803.926588 443.849098 
L 807.077647 446.709554 
L 810.228706 440.536992 
L 813.379765 444.90295 
L 816.530824 447.161204 
L 819.681882 443.999649 
L 822.832941 440.386442 
L 825.984 439.18204 
L 829.135059 443.547998 
L 832.286118 443.246897 
L 835.437176 449.720559 
L 838.588235 442.343596 
L 841.739294 437.827087 
L 844.890353 447.612855 
L 848.041412 448.215056 
L 851.192471 446.860104 
L 854.343529 446.559003 
L 857.494588 438.429288 
L 860.645647 445.204051 
L 863.796706 447.612855 
L 866.947765 439.633691 
L 870.098824 446.860104 
L 873.249882 442.945797 
L 876.400941 442.494146 
L 879.552 444.60185 
L 882.703059 450.17221 
L 885.854118 442.042495 
L 889.005176 445.053501 
L 892.156235 447.010654 
L 895.307294 446.408453 
L 898.458353 448.967808 
L 901.609412 441.289744 
L 904.760471 443.999649 
L 907.911529 443.698548 
L 911.062588 446.709554 
L 914.213647 442.644696 
L 917.364706 447.462305 
L 920.515765 450.924961 
L 923.666824 447.462305 
L 926.817882 446.107352 
L 929.968941 444.300749 
L 933.12 440.687543 
L 933.12 440.687543 
" clip-path="url(#pc073e3cc15)" style="fill: none; stroke: #9467bd; stroke-opacity: 0.8; stroke-width: 1.5; stroke-linecap: square"/>
   </g>
   <g id="patch_3">
    <path d="M 129.6 519.6888 
L 129.6 70.0704 
" style="fill: none; stroke: #000000; stroke-width: 0.8; stroke-linejoin: miter; stroke-linecap: square"/>
   </g>
   <g id="patch_4">
    <path d="M 933.12 519.6888 
L 933.12 70.0704 
" style="fill: none; stroke: #000000; stroke-width: 0.8; stroke-linejoin: miter; stroke-linecap: square"/>
   </g>
   <g id="patch_5">
    <path d="M 129.6 519.6888 
L 933.12 519.6888 
" style="fill: none; stroke: #000000; stroke-width: 0.8; stroke-linejoin: miter; stroke-linecap: square"/>
   </g>
   <g id="patch_6">
    <path d="M 129.6 70.0704 
L 933.12 70.0704 
" style="fill: none; stroke: #000000; stroke-width: 0.8; stroke-linejoin: miter; stroke-linecap: square"/>
   </g>
   <g id="legend_1">
    <g id="patch_7">
     <path d="M 722.352813 153.0704 
L 926.12 153.0704 
Q 928.12 153.0704 928.12 151.0704 
L 928.12 77.0704 
Q 928.12 75.0704 926.12 75.0704 
L 722.352813 75.0704 
Q 720.352813 75.0704 720.352813 77.0704 
L 720.352813 151.0704 
Q 720.352813 153.0704 722.352813 153.0704 
z
" style="fill: #ffffff; opacity: 0.8; stroke: #cccccc; stroke-linejoin: miter"/>
    </g>
    <g id="line2d_18">
     <path d="M 724.352813 83.212587 
L 734.352813 83.212587 
L 744.352813 83.212587 
" style="fill: none; stroke: #1f77b4; stroke-opacity: 0.5; stroke-width: 1.5; stroke-linecap: square"/>
    </g>
    <g id="text_15">
     <!-- baseline | 566273245414.62 -->
     <g transform="translate(752.352813 86.712587) scale(0.1 -0.1)">
      <defs>
       <path id="DejaVuSans-73" d="M 2834 3397 
L 2834 2853 
Q 2591 2978 2328 3040 
Q 2066 3103 1784 3103 
Q 1356 3103 1142 2972 
Q 928 2841 928 2578 
Q 928 2378 1081 2264 
Q 1234 2150 1697 2047 
L 1894 2003 
Q 2506 1872 2764 1633 
Q 3022 1394 3022 966 
Q 3022 478 2636 193 
Q 2250 -91 1575 -91 
Q 1294 -91 989 -36 
Q 684 19 347 128 
L 347 722 
Q 666 556 975 473 
Q 1284 391 1588 391 
Q 1994 391 2212 530 
Q 2431 669 2431 922 
Q 2431 1156 2273 1281 
Q 2116 1406 1581 1522 
L 1381 1569 
Q 847 1681 609 1914 
Q 372 2147 372 2553 
Q 372 3047 722 3315 
Q 1072 3584 1716 3584 
Q 2034 3584 2315 3537 
Q 2597 3491 2834 3397 
z
" transform="scale(0.015625)"/>
       <path id="DejaVuSans-6c" d="M 603 4863 
L 1178 4863 
L 1178 0 
L 603 0 
L 603 4863 
z
" transform="scale(0.015625)"/>
       <path id="DejaVuSans-7c" d="M 1344 4891 
L 1344 -1509 
L 813 -1509 
L 813 4891 
L 1344 4891 
z
" transform="scale(0.015625)"/>
       <path id="DejaVuSans-36" d="M 2113 2584 
Q 1688 2584 1439 2293 
Q 1191 2003 1191 1497 
Q 1191 994 1439 701 
Q 1688 409 2113 409 
Q 2538 409 2786 701 
Q 3034 994 3034 1497 
Q 3034 2003 2786 2293 
Q 2538 2584 2113 2584 
z
M 3366 4563 
L 3366 3988 
Q 3128 4100 2886 4159 
Q 2644 4219 2406 4219 
Q 1781 4219 1451 3797 
Q 1122 3375 1075 2522 
Q 1259 2794 1537 2939 
Q 1816 3084 2150 3084 
Q 2853 3084 3261 2657 
Q 3669 2231 3669 1497 
Q 3669 778 3244 343 
Q 2819 -91 2113 -91 
Q 1303 -91 875 529 
Q 447 1150 447 2328 
Q 447 3434 972 4092 
Q 1497 4750 2381 4750 
Q 2619 4750 2861 4703 
Q 3103 4656 3366 4563 
z
" transform="scale(0.015625)"/>
       <path id="DejaVuSans-37" d="M 525 4666 
L 3525 4666 
L 3525 4397 
L 1831 0 
L 1172 0 
L 2766 4134 
L 525 4134 
L 525 4666 
z
" transform="scale(0.015625)"/>
       <path id="DejaVuSans-33" d="M 2597 2516 
Q 3050 2419 3304 2112 
Q 3559 1806 3559 1356 
Q 3559 666 3084 287 
Q 2609 -91 1734 -91 
Q 1441 -91 1130 -33 
Q 819 25 488 141 
L 488 750 
Q 750 597 1062 519 
Q 1375 441 1716 441 
Q 2309 441 2620 675 
Q 2931 909 2931 1356 
Q 2931 1769 2642 2001 
Q 2353 2234 1838 2234 
L 1294 2234 
L 1294 2753 
L 1863 2753 
Q 2328 2753 2575 2939 
Q 2822 3125 2822 3475 
Q 2822 3834 2567 4026 
Q 2313 4219 1838 4219 
Q 1578 4219 1281 4162 
Q 984 4106 628 3988 
L 628 4550 
Q 988 4650 1302 4700 
Q 1616 4750 1894 4750 
Q 2613 4750 3031 4423 
Q 3450 4097 3450 3541 
Q 3450 3153 3228 2886 
Q 3006 2619 2597 2516 
z
" transform="scale(0.015625)"/>
       <path id="DejaVuSans-34" d="M 2419 4116 
L 825 1625 
L 2419 1625 
L 2419 4116 
z
M 2253 4666 
L 3047 4666 
L 3047 1625 
L 3713 1625 
L 3713 1100 
L 3047 1100 
L 3047 0 
L 2419 0 
L 2419 1100 
L 313 1100 
L 313 1709 
L 2253 4666 
z
" transform="scale(0.015625)"/>
       <path id="DejaVuSans-2e" d="M 684 794 
L 1344 794 
L 1344 0 
L 684 0 
L 684 794 
z
" transform="scale(0.015625)"/>
      </defs>
      <use xlink:href="#DejaVuSans-62"/>
      <use xlink:href="#DejaVuSans-61" x="63.476562"/>
      <use xlink:href="#DejaVuSans-73" x="124.755859"/>
      <use xlink:href="#DejaVuSans-65" x="176.855469"/>
      <use xlink:href="#DejaVuSans-6c" x="238.378906"/>
      <use xlink:href="#DejaVuSans-69" x="266.162109"/>
      <use xlink:href="#DejaVuSans-6e" x="293.945312"/>
      <use xlink:href="#DejaVuSans-65" x="357.324219"/>
      <use xlink:href="#DejaVuSans-20" x="418.847656"/>
      <use xlink:href="#DejaVuSans-7c" x="450.634766"/>
      <use xlink:href="#DejaVuSans-20" x="484.326172"/>
      <use xlink:href="#DejaVuSans-35" x="516.113281"/>
      <use xlink:href="#DejaVuSans-36" x="579.736328"/>
      <use xlink:href="#DejaVuSans-36" x="643.359375"/>
      <use xlink:href="#DejaVuSans-32" x="706.982422"/>
      <use xlink:href="#DejaVuSans-37" x="770.605469"/>
      <use xlink:href="#DejaVuSans-33" x="834.228516"/>
      <use xlink:href="#DejaVuSans-32" x="897.851562"/>
      <use xlink:href="#DejaVuSans-34" x="961.474609"/>
      <use xlink:href="#DejaVuSans-35" x="1025.097656"/>
      <use xlink:href="#DejaVuSans-34" x="1088.720703"/>
      <use xlink:href="#DejaVuSans-31" x="1152.34375"/>
      <use xlink:href="#DejaVuSans-34" x="1215.966797"/>
      <use xlink:href="#DejaVuSans-2e" x="1279.589844"/>
      <use xlink:href="#DejaVuSans-36" x="1311.376953"/>
      <use xlink:href="#DejaVuSans-32" x="1375"/>
     </g>
    </g>
    <g id="line2d_19">
     <path d="M 724.352813 98.212587 
L 734.352813 98.212587 
L 744.352813 98.212587 
" style="fill: none; stroke: #ff7f0e; stroke-opacity: 0.6; stroke-width: 1.5; stroke-linecap: square"/>
    </g>
    <g id="text_16">
     <!-- K 2.5% no xor | 345596607738.62 -->
     <g transform="translate(752.352813 101.712587) scale(0.1 -0.1)">
      <defs>
       <path id="DejaVuSans-4b" d="M 628 4666 
L 1259 4666 
L 1259 2694 
L 3353 4666 
L 4166 4666 
L 1850 2491 
L 4331 0 
L 3500 0 
L 1259 2247 
L 1259 0 
L 628 0 
L 628 4666 
z
" transform="scale(0.015625)"/>
       <path id="DejaVuSans-25" d="M 4653 2053 
Q 4381 2053 4226 1822 
Q 4072 1591 4072 1178 
Q 4072 772 4226 539 
Q 4381 306 4653 306 
Q 4919 306 5073 539 
Q 5228 772 5228 1178 
Q 5228 1588 5073 1820 
Q 4919 2053 4653 2053 
z
M 4653 2450 
Q 5147 2450 5437 2106 
Q 5728 1763 5728 1178 
Q 5728 594 5436 251 
Q 5144 -91 4653 -91 
Q 4153 -91 3862 251 
Q 3572 594 3572 1178 
Q 3572 1766 3864 2108 
Q 4156 2450 4653 2450 
z
M 1428 4353 
Q 1159 4353 1004 4120 
Q 850 3888 850 3481 
Q 850 3069 1003 2837 
Q 1156 2606 1428 2606 
Q 1700 2606 1854 2837 
Q 2009 3069 2009 3481 
Q 2009 3884 1853 4118 
Q 1697 4353 1428 4353 
z
M 4250 4750 
L 4750 4750 
L 1831 -91 
L 1331 -91 
L 4250 4750 
z
M 1428 4750 
Q 1922 4750 2215 4408 
Q 2509 4066 2509 3481 
Q 2509 2891 2217 2550 
Q 1925 2209 1428 2209 
Q 931 2209 642 2551 
Q 353 2894 353 3481 
Q 353 4063 643 4406 
Q 934 4750 1428 4750 
z
" transform="scale(0.015625)"/>
       <path id="DejaVuSans-6f" d="M 1959 3097 
Q 1497 3097 1228 2736 
Q 959 2375 959 1747 
Q 959 1119 1226 758 
Q 1494 397 1959 397 
Q 2419 397 2687 759 
Q 2956 1122 2956 1747 
Q 2956 2369 2687 2733 
Q 2419 3097 1959 3097 
z
M 1959 3584 
Q 2709 3584 3137 3096 
Q 3566 2609 3566 1747 
Q 3566 888 3137 398 
Q 2709 -91 1959 -91 
Q 1206 -91 779 398 
Q 353 888 353 1747 
Q 353 2609 779 3096 
Q 1206 3584 1959 3584 
z
" transform="scale(0.015625)"/>
       <path id="DejaVuSans-78" d="M 3513 3500 
L 2247 1797 
L 3578 0 
L 2900 0 
L 1881 1375 
L 863 0 
L 184 0 
L 1544 1831 
L 300 3500 
L 978 3500 
L 1906 2253 
L 2834 3500 
L 3513 3500 
z
" transform="scale(0.015625)"/>
       <path id="DejaVuSans-39" d="M 703 97 
L 703 672 
Q 941 559 1184 500 
Q 1428 441 1663 441 
Q 2288 441 2617 861 
Q 2947 1281 2994 2138 
Q 2813 1869 2534 1725 
Q 2256 1581 1919 1581 
Q 1219 1581 811 2004 
Q 403 2428 403 3163 
Q 403 3881 828 4315 
Q 1253 4750 1959 4750 
Q 2769 4750 3195 4129 
Q 3622 3509 3622 2328 
Q 3622 1225 3098 567 
Q 2575 -91 1691 -91 
Q 1453 -91 1209 -44 
Q 966 3 703 97 
z
M 1959 2075 
Q 2384 2075 2632 2365 
Q 2881 2656 2881 3163 
Q 2881 3666 2632 3958 
Q 2384 4250 1959 4250 
Q 1534 4250 1286 3958 
Q 1038 3666 1038 3163 
Q 1038 2656 1286 2365 
Q 1534 2075 1959 2075 
z
" transform="scale(0.015625)"/>
      </defs>
      <use xlink:href="#DejaVuSans-4b"/>
      <use xlink:href="#DejaVuSans-20" x="65.576172"/>
      <use xlink:href="#DejaVuSans-32" x="97.363281"/>
      <use xlink:href="#DejaVuSans-2e" x="160.986328"/>
      <use xlink:href="#DejaVuSans-35" x="192.773438"/>
      <use xlink:href="#DejaVuSans-25" x="256.396484"/>
      <use xlink:href="#DejaVuSans-20" x="351.416016"/>
      <use xlink:href="#DejaVuSans-6e" x="383.203125"/>
      <use xlink:href="#DejaVuSans-6f" x="446.582031"/>
      <use xlink:href="#DejaVuSans-20" x="507.763672"/>
      <use xlink:href="#DejaVuSans-78" x="539.550781"/>
      <use xlink:href="#DejaVuSans-6f" x="595.605469"/>
      <use xlink:href="#DejaVuSans-72" x="656.787109"/>
      <use xlink:href="#DejaVuSans-20" x="697.900391"/>
      <use xlink:href="#DejaVuSans-7c" x="729.6875"/>
      <use xlink:href="#DejaVuSans-20" x="763.378906"/>
      <use xlink:href="#DejaVuSans-33" x="795.166016"/>
      <use xlink:href="#DejaVuSans-34" x="858.789062"/>
      <use xlink:href="#DejaVuSans-35" x="922.412109"/>
      <use xlink:href="#DejaVuSans-35" x="986.035156"/>
      <use xlink:href="#DejaVuSans-39" x="1049.658203"/>
      <use xlink:href="#DejaVuSans-36" x="1113.28125"/>
      <use xlink:href="#DejaVuSans-36" x="1176.904297"/>
      <use xlink:href="#DejaVuSans-30" x="1240.527344"/>
      <use xlink:href="#DejaVuSans-37" x="1304.150391"/>
      <use xlink:href="#DejaVuSans-37" x="1367.773438"/>
      <use xlink:href="#DejaVuSans-33" x="1431.396484"/>
      <use xlink:href="#DejaVuSans-38" x="1495.019531"/>
      <use xlink:href="#DejaVuSans-2e" x="1558.642578"/>
      <use xlink:href="#DejaVuSans-36" x="1590.429688"/>
      <use xlink:href="#DejaVuSans-32" x="1654.052734"/>
     </g>
    </g>
    <g id="line2d_20">
     <path d="M 724.352813 113.212587 
L 734.352813 113.212587 
L 744.352813 113.212587 
" style="fill: none; stroke: #2ca02c; stroke-opacity: 0.8; stroke-width: 1.5; stroke-linecap: square"/>
    </g>
    <g id="text_17">
     <!-- K 2.5% 2 xor | 553054720256.62 -->
     <g transform="translate(752.352813 116.712587) scale(0.1 -0.1)">
      <use xlink:href="#DejaVuSans-4b"/>
      <use xlink:href="#DejaVuSans-20" x="65.576172"/>
      <use xlink:href="#DejaVuSans-32" x="97.363281"/>
      <use xlink:href="#DejaVuSans-2e" x="160.986328"/>
      <use xlink:href="#DejaVuSans-35" x="192.773438"/>
      <use xlink:href="#DejaVuSans-25" x="256.396484"/>
      <use xlink:href="#DejaVuSans-20" x="351.416016"/>
      <use xlink:href="#DejaVuSans-32" x="383.203125"/>
      <use xlink:href="#DejaVuSans-20" x="446.826172"/>
      <use xlink:href="#DejaVuSans-78" x="478.613281"/>
      <use xlink:href="#DejaVuSans-6f" x="534.667969"/>
      <use xlink:href="#DejaVuSans-72" x="595.849609"/>
      <use xlink:href="#DejaVuSans-20" x="636.962891"/>
      <use xlink:href="#DejaVuSans-7c" x="668.75"/>
      <use xlink:href="#DejaVuSans-20" x="702.441406"/>
      <use xlink:href="#DejaVuSans-35" x="734.228516"/>
      <use xlink:href="#DejaVuSans-35" x="797.851562"/>
      <use xlink:href="#DejaVuSans-33" x="861.474609"/>
      <use xlink:href="#DejaVuSans-30" x="925.097656"/>
      <use xlink:href="#DejaVuSans-35" x="988.720703"/>
      <use xlink:href="#DejaVuSans-34" x="1052.34375"/>
      <use xlink:href="#DejaVuSans-37" x="1115.966797"/>
      <use xlink:href="#DejaVuSans-32" x="1179.589844"/>
      <use xlink:href="#DejaVuSans-30" x="1243.212891"/>
      <use xlink:href="#DejaVuSans-32" x="1306.835938"/>
      <use xlink:href="#DejaVuSans-35" x="1370.458984"/>
      <use xlink:href="#DejaVuSans-36" x="1434.082031"/>
      <use xlink:href="#DejaVuSans-2e" x="1497.705078"/>
      <use xlink:href="#DejaVuSans-36" x="1529.492188"/>
      <use xlink:href="#DejaVuSans-32" x="1593.115234"/>
     </g>
    </g>
    <g id="line2d_21">
     <path d="M 724.352813 128.212587 
L 734.352813 128.212587 
L 744.352813 128.212587 
" style="fill: none; stroke: #d62728; stroke-opacity: 0.6; stroke-width: 1.5; stroke-linecap: square"/>
    </g>
    <g id="text_18">
     <!-- K 2.5% no xor | 762338835846.62 -->
     <g transform="translate(752.352813 131.712587) scale(0.1 -0.1)">
      <use xlink:href="#DejaVuSans-4b"/>
      <use xlink:href="#DejaVuSans-20" x="65.576172"/>
      <use xlink:href="#DejaVuSans-32" x="97.363281"/>
      <use xlink:href="#DejaVuSans-2e" x="160.986328"/>
      <use xlink:href="#DejaVuSans-35" x="192.773438"/>
      <use xlink:href="#DejaVuSans-25" x="256.396484"/>
      <use xlink:href="#DejaVuSans-20" x="351.416016"/>
      <use xlink:href="#DejaVuSans-6e" x="383.203125"/>
      <use xlink:href="#DejaVuSans-6f" x="446.582031"/>
      <use xlink:href="#DejaVuSans-20" x="507.763672"/>
      <use xlink:href="#DejaVuSans-78" x="539.550781"/>
      <use xlink:href="#DejaVuSans-6f" x="595.605469"/>
      <use xlink:href="#DejaVuSans-72" x="656.787109"/>
      <use xlink:href="#DejaVuSans-20" x="697.900391"/>
      <use xlink:href="#DejaVuSans-7c" x="729.6875"/>
      <use xlink:href="#DejaVuSans-20" x="763.378906"/>
      <use xlink:href="#DejaVuSans-37" x="795.166016"/>
      <use xlink:href="#DejaVuSans-36" x="858.789062"/>
      <use xlink:href="#DejaVuSans-32" x="922.412109"/>
      <use xlink:href="#DejaVuSans-33" x="986.035156"/>
      <use xlink:href="#DejaVuSans-33" x="1049.658203"/>
      <use xlink:href="#DejaVuSans-38" x="1113.28125"/>
      <use xlink:href="#DejaVuSans-38" x="1176.904297"/>
      <use xlink:href="#DejaVuSans-33" x="1240.527344"/>
      <use xlink:href="#DejaVuSans-35" x="1304.150391"/>
      <use xlink:href="#DejaVuSans-38" x="1367.773438"/>
      <use xlink:href="#DejaVuSans-34" x="1431.396484"/>
      <use xlink:href="#DejaVuSans-36" x="1495.019531"/>
      <use xlink:href="#DejaVuSans-2e" x="1558.642578"/>
      <use xlink:href="#DejaVuSans-36" x="1590.429688"/>
      <use xlink:href="#DejaVuSans-32" x="1654.052734"/>
     </g>
    </g>
    <g id="line2d_22">
     <path d="M 724.352813 143.212587 
L 734.352813 143.212587 
L 744.352813 143.212587 
" style="fill: none; stroke: #9467bd; stroke-opacity: 0.8; stroke-width: 1.5; stroke-linecap: square"/>
    </g>
    <g id="text_19">
     <!-- K 2.5% 2 xor | 552515097834.62 -->
     <g transform="translate(752.352813 146.712587) scale(0.1 -0.1)">
      <use xlink:href="#DejaVuSans-4b"/>
      <use xlink:href="#DejaVuSans-20" x="65.576172"/>
      <use xlink:href="#DejaVuSans-32" x="97.363281"/>
      <use xlink:href="#DejaVuSans-2e" x="160.986328"/>
      <use xlink:href="#DejaVuSans-35" x="192.773438"/>
      <use xlink:href="#DejaVuSans-25" x="256.396484"/>
      <use xlink:href="#DejaVuSans-20" x="351.416016"/>
      <use xlink:href="#DejaVuSans-32" x="383.203125"/>
      <use xlink:href="#DejaVuSans-20" x="446.826172"/>
      <use xlink:href="#DejaVuSans-78" x="478.613281"/>
      <use xlink:href="#DejaVuSans-6f" x="534.667969"/>
      <use xlink:href="#DejaVuSans-72" x="595.849609"/>
      <use xlink:href="#DejaVuSans-20" x="636.962891"/>
      <use xlink:href="#DejaVuSans-7c" x="668.75"/>
      <use xlink:href="#DejaVuSans-20" x="702.441406"/>
      <use xlink:href="#DejaVuSans-35" x="734.228516"/>
      <use xlink:href="#DejaVuSans-35" x="797.851562"/>
      <use xlink:href="#DejaVuSans-32" x="861.474609"/>
      <use xlink:href="#DejaVuSans-35" x="925.097656"/>
      <use xlink:href="#DejaVuSans-31" x="988.720703"/>
      <use xlink:href="#DejaVuSans-35" x="1052.34375"/>
      <use xlink:href="#DejaVuSans-30" x="1115.966797"/>
      <use xlink:href="#DejaVuSans-39" x="1179.589844"/>
      <use xlink:href="#DejaVuSans-37" x="1243.212891"/>
      <use xlink:href="#DejaVuSans-38" x="1306.835938"/>
      <use xlink:href="#DejaVuSans-33" x="1370.458984"/>
      <use xlink:href="#DejaVuSans-34" x="1434.082031"/>
      <use xlink:href="#DejaVuSans-2e" x="1497.705078"/>
      <use xlink:href="#DejaVuSans-36" x="1529.492188"/>
      <use xlink:href="#DejaVuSans-32" x="1593.115234"/>
     </g>
    </g>
   </g>
  </g>
 </g>
 <defs>
  <clipPath id="pc073e3cc15">
   <rect x="129.6" y="70.0704" width="803.52" height="449.6184"/>
  </clipPath>
 </defs>
</svg>
