<?xml version="1.0" encoding="utf-8" standalone="no"?>
<!DOCTYPE svg PUBLIC "-//W3C//DTD SVG 1.1//EN"
  "http://www.w3.org/Graphics/SVG/1.1/DTD/svg11.dtd">
<svg height="345.6pt" version="1.1" viewBox="0 0 460.8 345.6" width="460.8pt" xmlns="http://www.w3.org/2000/svg" xmlns:xlink="http://www.w3.org/1999/xlink">
 <metadata>
  <rdf:RDF xmlns:cc="http://creativecommons.org/ns#" xmlns:dc="http://purl.org/dc/elements/1.1/" xmlns:rdf="http://www.w3.org/1999/02/22-rdf-syntax-ns#">
   <cc:Work>
    <dc:type rdf:resource="http://purl.org/dc/dcmitype/StillImage"/>
    <dc:date>2024-02-01T16:37:48.863851</dc:date>
    <dc:format>image/svg+xml</dc:format>
    <dc:creator>
     <cc:Agent>
      <dc:title>Matplotlib v3.4.3, https://matplotlib.org/</dc:title>
     </cc:Agent>
    </dc:creator>
   </cc:Work>
  </rdf:RDF>
 </metadata>
 <defs>
  <style type="text/css">*{stroke-linecap:butt;stroke-linejoin:round;}</style>
 </defs>
 <g id="figure_1">
  <g id="patch_1">
   <path d="M 0 345.6 
L 460.8 345.6 
L 460.8 0 
L 0 0 
z
" style="fill:#ffffff;"/>
  </g>
  <g id="axes_1">
   <g id="patch_2">
    <path d="M 57.6 307.584 
L 414.72 307.584 
L 414.72 41.472 
L 57.6 41.472 
z
" style="fill:#ffffff;"/>
   </g>
   <g id="matplotlib.axis_1">
    <g id="xtick_1">
     <g id="line2d_1">
      <defs>
       <path d="M 0 0 
L 0 3.5 
" id="m7aaff50a37" style="stroke:#000000;stroke-width:0.8;"/>
      </defs>
      <g>
       <use style="stroke:#000000;stroke-width:0.8;" x="57.6" xlink:href="#m7aaff50a37" y="307.584"/>
      </g>
     </g>
     <g id="text_1">
      <!-- 0 -->
      <g transform="translate(54.41875 322.182437)scale(0.1 -0.1)">
       <defs>
        <path d="M 2034 4250 
Q 1547 4250 1301 3770 
Q 1056 3291 1056 2328 
Q 1056 1369 1301 889 
Q 1547 409 2034 409 
Q 2525 409 2770 889 
Q 3016 1369 3016 2328 
Q 3016 3291 2770 3770 
Q 2525 4250 2034 4250 
z
M 2034 4750 
Q 2819 4750 3233 4129 
Q 3647 3509 3647 2328 
Q 3647 1150 3233 529 
Q 2819 -91 2034 -91 
Q 1250 -91 836 529 
Q 422 1150 422 2328 
Q 422 3509 836 4129 
Q 1250 4750 2034 4750 
z
" id="DejaVuSans-30" transform="scale(0.015625)"/>
       </defs>
       <use xlink:href="#DejaVuSans-30"/>
      </g>
     </g>
    </g>
    <g id="xtick_2">
     <g id="line2d_2">
      <g>
       <use style="stroke:#000000;stroke-width:0.8;" x="127.623529" xlink:href="#m7aaff50a37" y="307.584"/>
      </g>
     </g>
     <g id="text_2">
      <!-- 50 -->
      <g transform="translate(121.261029 322.182437)scale(0.1 -0.1)">
       <defs>
        <path d="M 691 4666 
L 3169 4666 
L 3169 4134 
L 1269 4134 
L 1269 2991 
Q 1406 3038 1543 3061 
Q 1681 3084 1819 3084 
Q 2600 3084 3056 2656 
Q 3513 2228 3513 1497 
Q 3513 744 3044 326 
Q 2575 -91 1722 -91 
Q 1428 -91 1123 -41 
Q 819 9 494 109 
L 494 744 
Q 775 591 1075 516 
Q 1375 441 1709 441 
Q 2250 441 2565 725 
Q 2881 1009 2881 1497 
Q 2881 1984 2565 2268 
Q 2250 2553 1709 2553 
Q 1456 2553 1204 2497 
Q 953 2441 691 2322 
L 691 4666 
z
" id="DejaVuSans-35" transform="scale(0.015625)"/>
       </defs>
       <use xlink:href="#DejaVuSans-35"/>
       <use x="63.623047" xlink:href="#DejaVuSans-30"/>
      </g>
     </g>
    </g>
    <g id="xtick_3">
     <g id="line2d_3">
      <g>
       <use style="stroke:#000000;stroke-width:0.8;" x="197.647059" xlink:href="#m7aaff50a37" y="307.584"/>
      </g>
     </g>
     <g id="text_3">
      <!-- 100 -->
      <g transform="translate(188.103309 322.182437)scale(0.1 -0.1)">
       <defs>
        <path d="M 794 531 
L 1825 531 
L 1825 4091 
L 703 3866 
L 703 4441 
L 1819 4666 
L 2450 4666 
L 2450 531 
L 3481 531 
L 3481 0 
L 794 0 
L 794 531 
z
" id="DejaVuSans-31" transform="scale(0.015625)"/>
       </defs>
       <use xlink:href="#DejaVuSans-31"/>
       <use x="63.623047" xlink:href="#DejaVuSans-30"/>
       <use x="127.246094" xlink:href="#DejaVuSans-30"/>
      </g>
     </g>
    </g>
    <g id="xtick_4">
     <g id="line2d_4">
      <g>
       <use style="stroke:#000000;stroke-width:0.8;" x="267.670588" xlink:href="#m7aaff50a37" y="307.584"/>
      </g>
     </g>
     <g id="text_4">
      <!-- 150 -->
      <g transform="translate(258.126838 322.182437)scale(0.1 -0.1)">
       <use xlink:href="#DejaVuSans-31"/>
       <use x="63.623047" xlink:href="#DejaVuSans-35"/>
       <use x="127.246094" xlink:href="#DejaVuSans-30"/>
      </g>
     </g>
    </g>
    <g id="xtick_5">
     <g id="line2d_5">
      <g>
       <use style="stroke:#000000;stroke-width:0.8;" x="337.694118" xlink:href="#m7aaff50a37" y="307.584"/>
      </g>
     </g>
     <g id="text_5">
      <!-- 200 -->
      <g transform="translate(328.150368 322.182437)scale(0.1 -0.1)">
       <defs>
        <path d="M 1228 531 
L 3431 531 
L 3431 0 
L 469 0 
L 469 531 
Q 828 903 1448 1529 
Q 2069 2156 2228 2338 
Q 2531 2678 2651 2914 
Q 2772 3150 2772 3378 
Q 2772 3750 2511 3984 
Q 2250 4219 1831 4219 
Q 1534 4219 1204 4116 
Q 875 4013 500 3803 
L 500 4441 
Q 881 4594 1212 4672 
Q 1544 4750 1819 4750 
Q 2544 4750 2975 4387 
Q 3406 4025 3406 3419 
Q 3406 3131 3298 2873 
Q 3191 2616 2906 2266 
Q 2828 2175 2409 1742 
Q 1991 1309 1228 531 
z
" id="DejaVuSans-32" transform="scale(0.015625)"/>
       </defs>
       <use xlink:href="#DejaVuSans-32"/>
       <use x="63.623047" xlink:href="#DejaVuSans-30"/>
       <use x="127.246094" xlink:href="#DejaVuSans-30"/>
      </g>
     </g>
    </g>
    <g id="xtick_6">
     <g id="line2d_6">
      <g>
       <use style="stroke:#000000;stroke-width:0.8;" x="407.717647" xlink:href="#m7aaff50a37" y="307.584"/>
      </g>
     </g>
     <g id="text_6">
      <!-- 250 -->
      <g transform="translate(398.173897 322.182437)scale(0.1 -0.1)">
       <use xlink:href="#DejaVuSans-32"/>
       <use x="63.623047" xlink:href="#DejaVuSans-35"/>
       <use x="127.246094" xlink:href="#DejaVuSans-30"/>
      </g>
     </g>
    </g>
    <g id="text_7">
     <!-- Generated 8-bit Number -->
     <g transform="translate(174.860781 335.860562)scale(0.1 -0.1)">
      <defs>
       <path d="M 3809 666 
L 3809 1919 
L 2778 1919 
L 2778 2438 
L 4434 2438 
L 4434 434 
Q 4069 175 3628 42 
Q 3188 -91 2688 -91 
Q 1594 -91 976 548 
Q 359 1188 359 2328 
Q 359 3472 976 4111 
Q 1594 4750 2688 4750 
Q 3144 4750 3555 4637 
Q 3966 4525 4313 4306 
L 4313 3634 
Q 3963 3931 3569 4081 
Q 3175 4231 2741 4231 
Q 1884 4231 1454 3753 
Q 1025 3275 1025 2328 
Q 1025 1384 1454 906 
Q 1884 428 2741 428 
Q 3075 428 3337 486 
Q 3600 544 3809 666 
z
" id="DejaVuSans-47" transform="scale(0.015625)"/>
       <path d="M 3597 1894 
L 3597 1613 
L 953 1613 
Q 991 1019 1311 708 
Q 1631 397 2203 397 
Q 2534 397 2845 478 
Q 3156 559 3463 722 
L 3463 178 
Q 3153 47 2828 -22 
Q 2503 -91 2169 -91 
Q 1331 -91 842 396 
Q 353 884 353 1716 
Q 353 2575 817 3079 
Q 1281 3584 2069 3584 
Q 2775 3584 3186 3129 
Q 3597 2675 3597 1894 
z
M 3022 2063 
Q 3016 2534 2758 2815 
Q 2500 3097 2075 3097 
Q 1594 3097 1305 2825 
Q 1016 2553 972 2059 
L 3022 2063 
z
" id="DejaVuSans-65" transform="scale(0.015625)"/>
       <path d="M 3513 2113 
L 3513 0 
L 2938 0 
L 2938 2094 
Q 2938 2591 2744 2837 
Q 2550 3084 2163 3084 
Q 1697 3084 1428 2787 
Q 1159 2491 1159 1978 
L 1159 0 
L 581 0 
L 581 3500 
L 1159 3500 
L 1159 2956 
Q 1366 3272 1645 3428 
Q 1925 3584 2291 3584 
Q 2894 3584 3203 3211 
Q 3513 2838 3513 2113 
z
" id="DejaVuSans-6e" transform="scale(0.015625)"/>
       <path d="M 2631 2963 
Q 2534 3019 2420 3045 
Q 2306 3072 2169 3072 
Q 1681 3072 1420 2755 
Q 1159 2438 1159 1844 
L 1159 0 
L 581 0 
L 581 3500 
L 1159 3500 
L 1159 2956 
Q 1341 3275 1631 3429 
Q 1922 3584 2338 3584 
Q 2397 3584 2469 3576 
Q 2541 3569 2628 3553 
L 2631 2963 
z
" id="DejaVuSans-72" transform="scale(0.015625)"/>
       <path d="M 2194 1759 
Q 1497 1759 1228 1600 
Q 959 1441 959 1056 
Q 959 750 1161 570 
Q 1363 391 1709 391 
Q 2188 391 2477 730 
Q 2766 1069 2766 1631 
L 2766 1759 
L 2194 1759 
z
M 3341 1997 
L 3341 0 
L 2766 0 
L 2766 531 
Q 2569 213 2275 61 
Q 1981 -91 1556 -91 
Q 1019 -91 701 211 
Q 384 513 384 1019 
Q 384 1609 779 1909 
Q 1175 2209 1959 2209 
L 2766 2209 
L 2766 2266 
Q 2766 2663 2505 2880 
Q 2244 3097 1772 3097 
Q 1472 3097 1187 3025 
Q 903 2953 641 2809 
L 641 3341 
Q 956 3463 1253 3523 
Q 1550 3584 1831 3584 
Q 2591 3584 2966 3190 
Q 3341 2797 3341 1997 
z
" id="DejaVuSans-61" transform="scale(0.015625)"/>
       <path d="M 1172 4494 
L 1172 3500 
L 2356 3500 
L 2356 3053 
L 1172 3053 
L 1172 1153 
Q 1172 725 1289 603 
Q 1406 481 1766 481 
L 2356 481 
L 2356 0 
L 1766 0 
Q 1100 0 847 248 
Q 594 497 594 1153 
L 594 3053 
L 172 3053 
L 172 3500 
L 594 3500 
L 594 4494 
L 1172 4494 
z
" id="DejaVuSans-74" transform="scale(0.015625)"/>
       <path d="M 2906 2969 
L 2906 4863 
L 3481 4863 
L 3481 0 
L 2906 0 
L 2906 525 
Q 2725 213 2448 61 
Q 2172 -91 1784 -91 
Q 1150 -91 751 415 
Q 353 922 353 1747 
Q 353 2572 751 3078 
Q 1150 3584 1784 3584 
Q 2172 3584 2448 3432 
Q 2725 3281 2906 2969 
z
M 947 1747 
Q 947 1113 1208 752 
Q 1469 391 1925 391 
Q 2381 391 2643 752 
Q 2906 1113 2906 1747 
Q 2906 2381 2643 2742 
Q 2381 3103 1925 3103 
Q 1469 3103 1208 2742 
Q 947 2381 947 1747 
z
" id="DejaVuSans-64" transform="scale(0.015625)"/>
       <path id="DejaVuSans-20" transform="scale(0.015625)"/>
       <path d="M 2034 2216 
Q 1584 2216 1326 1975 
Q 1069 1734 1069 1313 
Q 1069 891 1326 650 
Q 1584 409 2034 409 
Q 2484 409 2743 651 
Q 3003 894 3003 1313 
Q 3003 1734 2745 1975 
Q 2488 2216 2034 2216 
z
M 1403 2484 
Q 997 2584 770 2862 
Q 544 3141 544 3541 
Q 544 4100 942 4425 
Q 1341 4750 2034 4750 
Q 2731 4750 3128 4425 
Q 3525 4100 3525 3541 
Q 3525 3141 3298 2862 
Q 3072 2584 2669 2484 
Q 3125 2378 3379 2068 
Q 3634 1759 3634 1313 
Q 3634 634 3220 271 
Q 2806 -91 2034 -91 
Q 1263 -91 848 271 
Q 434 634 434 1313 
Q 434 1759 690 2068 
Q 947 2378 1403 2484 
z
M 1172 3481 
Q 1172 3119 1398 2916 
Q 1625 2713 2034 2713 
Q 2441 2713 2670 2916 
Q 2900 3119 2900 3481 
Q 2900 3844 2670 4047 
Q 2441 4250 2034 4250 
Q 1625 4250 1398 4047 
Q 1172 3844 1172 3481 
z
" id="DejaVuSans-38" transform="scale(0.015625)"/>
       <path d="M 313 2009 
L 1997 2009 
L 1997 1497 
L 313 1497 
L 313 2009 
z
" id="DejaVuSans-2d" transform="scale(0.015625)"/>
       <path d="M 3116 1747 
Q 3116 2381 2855 2742 
Q 2594 3103 2138 3103 
Q 1681 3103 1420 2742 
Q 1159 2381 1159 1747 
Q 1159 1113 1420 752 
Q 1681 391 2138 391 
Q 2594 391 2855 752 
Q 3116 1113 3116 1747 
z
M 1159 2969 
Q 1341 3281 1617 3432 
Q 1894 3584 2278 3584 
Q 2916 3584 3314 3078 
Q 3713 2572 3713 1747 
Q 3713 922 3314 415 
Q 2916 -91 2278 -91 
Q 1894 -91 1617 61 
Q 1341 213 1159 525 
L 1159 0 
L 581 0 
L 581 4863 
L 1159 4863 
L 1159 2969 
z
" id="DejaVuSans-62" transform="scale(0.015625)"/>
       <path d="M 603 3500 
L 1178 3500 
L 1178 0 
L 603 0 
L 603 3500 
z
M 603 4863 
L 1178 4863 
L 1178 4134 
L 603 4134 
L 603 4863 
z
" id="DejaVuSans-69" transform="scale(0.015625)"/>
       <path d="M 628 4666 
L 1478 4666 
L 3547 763 
L 3547 4666 
L 4159 4666 
L 4159 0 
L 3309 0 
L 1241 3903 
L 1241 0 
L 628 0 
L 628 4666 
z
" id="DejaVuSans-4e" transform="scale(0.015625)"/>
       <path d="M 544 1381 
L 544 3500 
L 1119 3500 
L 1119 1403 
Q 1119 906 1312 657 
Q 1506 409 1894 409 
Q 2359 409 2629 706 
Q 2900 1003 2900 1516 
L 2900 3500 
L 3475 3500 
L 3475 0 
L 2900 0 
L 2900 538 
Q 2691 219 2414 64 
Q 2138 -91 1772 -91 
Q 1169 -91 856 284 
Q 544 659 544 1381 
z
M 1991 3584 
L 1991 3584 
z
" id="DejaVuSans-75" transform="scale(0.015625)"/>
       <path d="M 3328 2828 
Q 3544 3216 3844 3400 
Q 4144 3584 4550 3584 
Q 5097 3584 5394 3201 
Q 5691 2819 5691 2113 
L 5691 0 
L 5113 0 
L 5113 2094 
Q 5113 2597 4934 2840 
Q 4756 3084 4391 3084 
Q 3944 3084 3684 2787 
Q 3425 2491 3425 1978 
L 3425 0 
L 2847 0 
L 2847 2094 
Q 2847 2600 2669 2842 
Q 2491 3084 2119 3084 
Q 1678 3084 1418 2786 
Q 1159 2488 1159 1978 
L 1159 0 
L 581 0 
L 581 3500 
L 1159 3500 
L 1159 2956 
Q 1356 3278 1631 3431 
Q 1906 3584 2284 3584 
Q 2666 3584 2933 3390 
Q 3200 3197 3328 2828 
z
" id="DejaVuSans-6d" transform="scale(0.015625)"/>
      </defs>
      <use xlink:href="#DejaVuSans-47"/>
      <use x="77.490234" xlink:href="#DejaVuSans-65"/>
      <use x="139.013672" xlink:href="#DejaVuSans-6e"/>
      <use x="202.392578" xlink:href="#DejaVuSans-65"/>
      <use x="263.916016" xlink:href="#DejaVuSans-72"/>
      <use x="305.029297" xlink:href="#DejaVuSans-61"/>
      <use x="366.308594" xlink:href="#DejaVuSans-74"/>
      <use x="405.517578" xlink:href="#DejaVuSans-65"/>
      <use x="467.041016" xlink:href="#DejaVuSans-64"/>
      <use x="530.517578" xlink:href="#DejaVuSans-20"/>
      <use x="562.304688" xlink:href="#DejaVuSans-38"/>
      <use x="625.927734" xlink:href="#DejaVuSans-2d"/>
      <use x="662.011719" xlink:href="#DejaVuSans-62"/>
      <use x="725.488281" xlink:href="#DejaVuSans-69"/>
      <use x="753.271484" xlink:href="#DejaVuSans-74"/>
      <use x="792.480469" xlink:href="#DejaVuSans-20"/>
      <use x="824.267578" xlink:href="#DejaVuSans-4e"/>
      <use x="899.072266" xlink:href="#DejaVuSans-75"/>
      <use x="962.451172" xlink:href="#DejaVuSans-6d"/>
      <use x="1059.863281" xlink:href="#DejaVuSans-62"/>
      <use x="1123.339844" xlink:href="#DejaVuSans-65"/>
      <use x="1184.863281" xlink:href="#DejaVuSans-72"/>
     </g>
    </g>
   </g>
   <g id="matplotlib.axis_2">
    <g id="ytick_1">
     <g id="line2d_7">
      <defs>
       <path d="M 0 0 
L -3.5 0 
" id="m8c4b6f6bef" style="stroke:#000000;stroke-width:0.8;"/>
      </defs>
      <g>
       <use style="stroke:#000000;stroke-width:0.8;" x="57.6" xlink:href="#m8c4b6f6bef" y="307.584"/>
      </g>
     </g>
     <g id="text_8">
      <!-- 0.001 -->
      <g transform="translate(21.971875 311.383219)scale(0.1 -0.1)">
       <defs>
        <path d="M 684 794 
L 1344 794 
L 1344 0 
L 684 0 
L 684 794 
z
" id="DejaVuSans-2e" transform="scale(0.015625)"/>
       </defs>
       <use xlink:href="#DejaVuSans-30"/>
       <use x="63.623047" xlink:href="#DejaVuSans-2e"/>
       <use x="95.410156" xlink:href="#DejaVuSans-30"/>
       <use x="159.033203" xlink:href="#DejaVuSans-30"/>
       <use x="222.65625" xlink:href="#DejaVuSans-31"/>
      </g>
     </g>
    </g>
    <g id="ytick_2">
     <g id="line2d_8">
      <g>
       <use style="stroke:#000000;stroke-width:0.8;" x="57.6" xlink:href="#m8c4b6f6bef" y="274.32"/>
      </g>
     </g>
     <g id="text_9">
      <!-- 0.002 -->
      <g transform="translate(21.971875 278.119219)scale(0.1 -0.1)">
       <use xlink:href="#DejaVuSans-30"/>
       <use x="63.623047" xlink:href="#DejaVuSans-2e"/>
       <use x="95.410156" xlink:href="#DejaVuSans-30"/>
       <use x="159.033203" xlink:href="#DejaVuSans-30"/>
       <use x="222.65625" xlink:href="#DejaVuSans-32"/>
      </g>
     </g>
    </g>
    <g id="ytick_3">
     <g id="line2d_9">
      <g>
       <use style="stroke:#000000;stroke-width:0.8;" x="57.6" xlink:href="#m8c4b6f6bef" y="241.056"/>
      </g>
     </g>
     <g id="text_10">
      <!-- 0.003 -->
      <g transform="translate(21.971875 244.855219)scale(0.1 -0.1)">
       <defs>
        <path d="M 2597 2516 
Q 3050 2419 3304 2112 
Q 3559 1806 3559 1356 
Q 3559 666 3084 287 
Q 2609 -91 1734 -91 
Q 1441 -91 1130 -33 
Q 819 25 488 141 
L 488 750 
Q 750 597 1062 519 
Q 1375 441 1716 441 
Q 2309 441 2620 675 
Q 2931 909 2931 1356 
Q 2931 1769 2642 2001 
Q 2353 2234 1838 2234 
L 1294 2234 
L 1294 2753 
L 1863 2753 
Q 2328 2753 2575 2939 
Q 2822 3125 2822 3475 
Q 2822 3834 2567 4026 
Q 2313 4219 1838 4219 
Q 1578 4219 1281 4162 
Q 984 4106 628 3988 
L 628 4550 
Q 988 4650 1302 4700 
Q 1616 4750 1894 4750 
Q 2613 4750 3031 4423 
Q 3450 4097 3450 3541 
Q 3450 3153 3228 2886 
Q 3006 2619 2597 2516 
z
" id="DejaVuSans-33" transform="scale(0.015625)"/>
       </defs>
       <use xlink:href="#DejaVuSans-30"/>
       <use x="63.623047" xlink:href="#DejaVuSans-2e"/>
       <use x="95.410156" xlink:href="#DejaVuSans-30"/>
       <use x="159.033203" xlink:href="#DejaVuSans-30"/>
       <use x="222.65625" xlink:href="#DejaVuSans-33"/>
      </g>
     </g>
    </g>
    <g id="ytick_4">
     <g id="line2d_10">
      <g>
       <use style="stroke:#000000;stroke-width:0.8;" x="57.6" xlink:href="#m8c4b6f6bef" y="207.792"/>
      </g>
     </g>
     <g id="text_11">
      <!-- 0.004 -->
      <g transform="translate(21.971875 211.591219)scale(0.1 -0.1)">
       <defs>
        <path d="M 2419 4116 
L 825 1625 
L 2419 1625 
L 2419 4116 
z
M 2253 4666 
L 3047 4666 
L 3047 1625 
L 3713 1625 
L 3713 1100 
L 3047 1100 
L 3047 0 
L 2419 0 
L 2419 1100 
L 313 1100 
L 313 1709 
L 2253 4666 
z
" id="DejaVuSans-34" transform="scale(0.015625)"/>
       </defs>
       <use xlink:href="#DejaVuSans-30"/>
       <use x="63.623047" xlink:href="#DejaVuSans-2e"/>
       <use x="95.410156" xlink:href="#DejaVuSans-30"/>
       <use x="159.033203" xlink:href="#DejaVuSans-30"/>
       <use x="222.65625" xlink:href="#DejaVuSans-34"/>
      </g>
     </g>
    </g>
    <g id="ytick_5">
     <g id="line2d_11">
      <g>
       <use style="stroke:#000000;stroke-width:0.8;" x="57.6" xlink:href="#m8c4b6f6bef" y="174.528"/>
      </g>
     </g>
     <g id="text_12">
      <!-- 0.005 -->
      <g transform="translate(21.971875 178.327219)scale(0.1 -0.1)">
       <use xlink:href="#DejaVuSans-30"/>
       <use x="63.623047" xlink:href="#DejaVuSans-2e"/>
       <use x="95.410156" xlink:href="#DejaVuSans-30"/>
       <use x="159.033203" xlink:href="#DejaVuSans-30"/>
       <use x="222.65625" xlink:href="#DejaVuSans-35"/>
      </g>
     </g>
    </g>
    <g id="ytick_6">
     <g id="line2d_12">
      <g>
       <use style="stroke:#000000;stroke-width:0.8;" x="57.6" xlink:href="#m8c4b6f6bef" y="141.264"/>
      </g>
     </g>
     <g id="text_13">
      <!-- 0.006 -->
      <g transform="translate(21.971875 145.063219)scale(0.1 -0.1)">
       <defs>
        <path d="M 2113 2584 
Q 1688 2584 1439 2293 
Q 1191 2003 1191 1497 
Q 1191 994 1439 701 
Q 1688 409 2113 409 
Q 2538 409 2786 701 
Q 3034 994 3034 1497 
Q 3034 2003 2786 2293 
Q 2538 2584 2113 2584 
z
M 3366 4563 
L 3366 3988 
Q 3128 4100 2886 4159 
Q 2644 4219 2406 4219 
Q 1781 4219 1451 3797 
Q 1122 3375 1075 2522 
Q 1259 2794 1537 2939 
Q 1816 3084 2150 3084 
Q 2853 3084 3261 2657 
Q 3669 2231 3669 1497 
Q 3669 778 3244 343 
Q 2819 -91 2113 -91 
Q 1303 -91 875 529 
Q 447 1150 447 2328 
Q 447 3434 972 4092 
Q 1497 4750 2381 4750 
Q 2619 4750 2861 4703 
Q 3103 4656 3366 4563 
z
" id="DejaVuSans-36" transform="scale(0.015625)"/>
       </defs>
       <use xlink:href="#DejaVuSans-30"/>
       <use x="63.623047" xlink:href="#DejaVuSans-2e"/>
       <use x="95.410156" xlink:href="#DejaVuSans-30"/>
       <use x="159.033203" xlink:href="#DejaVuSans-30"/>
       <use x="222.65625" xlink:href="#DejaVuSans-36"/>
      </g>
     </g>
    </g>
    <g id="ytick_7">
     <g id="line2d_13">
      <g>
       <use style="stroke:#000000;stroke-width:0.8;" x="57.6" xlink:href="#m8c4b6f6bef" y="108"/>
      </g>
     </g>
     <g id="text_14">
      <!-- 0.007 -->
      <g transform="translate(21.971875 111.799219)scale(0.1 -0.1)">
       <defs>
        <path d="M 525 4666 
L 3525 4666 
L 3525 4397 
L 1831 0 
L 1172 0 
L 2766 4134 
L 525 4134 
L 525 4666 
z
" id="DejaVuSans-37" transform="scale(0.015625)"/>
       </defs>
       <use xlink:href="#DejaVuSans-30"/>
       <use x="63.623047" xlink:href="#DejaVuSans-2e"/>
       <use x="95.410156" xlink:href="#DejaVuSans-30"/>
       <use x="159.033203" xlink:href="#DejaVuSans-30"/>
       <use x="222.65625" xlink:href="#DejaVuSans-37"/>
      </g>
     </g>
    </g>
    <g id="ytick_8">
     <g id="line2d_14">
      <g>
       <use style="stroke:#000000;stroke-width:0.8;" x="57.6" xlink:href="#m8c4b6f6bef" y="74.736"/>
      </g>
     </g>
     <g id="text_15">
      <!-- 0.008 -->
      <g transform="translate(21.971875 78.535219)scale(0.1 -0.1)">
       <use xlink:href="#DejaVuSans-30"/>
       <use x="63.623047" xlink:href="#DejaVuSans-2e"/>
       <use x="95.410156" xlink:href="#DejaVuSans-30"/>
       <use x="159.033203" xlink:href="#DejaVuSans-30"/>
       <use x="222.65625" xlink:href="#DejaVuSans-38"/>
      </g>
     </g>
    </g>
    <g id="ytick_9">
     <g id="line2d_15">
      <g>
       <use style="stroke:#000000;stroke-width:0.8;" x="57.6" xlink:href="#m8c4b6f6bef" y="41.472"/>
      </g>
     </g>
     <g id="text_16">
      <!-- 0.009 -->
      <g transform="translate(21.971875 45.271219)scale(0.1 -0.1)">
       <defs>
        <path d="M 703 97 
L 703 672 
Q 941 559 1184 500 
Q 1428 441 1663 441 
Q 2288 441 2617 861 
Q 2947 1281 2994 2138 
Q 2813 1869 2534 1725 
Q 2256 1581 1919 1581 
Q 1219 1581 811 2004 
Q 403 2428 403 3163 
Q 403 3881 828 4315 
Q 1253 4750 1959 4750 
Q 2769 4750 3195 4129 
Q 3622 3509 3622 2328 
Q 3622 1225 3098 567 
Q 2575 -91 1691 -91 
Q 1453 -91 1209 -44 
Q 966 3 703 97 
z
M 1959 2075 
Q 2384 2075 2632 2365 
Q 2881 2656 2881 3163 
Q 2881 3666 2632 3958 
Q 2384 4250 1959 4250 
Q 1534 4250 1286 3958 
Q 1038 3666 1038 3163 
Q 1038 2656 1286 2365 
Q 1534 2075 1959 2075 
z
" id="DejaVuSans-39" transform="scale(0.015625)"/>
       </defs>
       <use xlink:href="#DejaVuSans-30"/>
       <use x="63.623047" xlink:href="#DejaVuSans-2e"/>
       <use x="95.410156" xlink:href="#DejaVuSans-30"/>
       <use x="159.033203" xlink:href="#DejaVuSans-30"/>
       <use x="222.65625" xlink:href="#DejaVuSans-39"/>
      </g>
     </g>
    </g>
    <g id="text_17">
     <!-- p -->
     <g transform="translate(15.892188 177.702219)rotate(-90)scale(0.1 -0.1)">
      <defs>
       <path d="M 1159 525 
L 1159 -1331 
L 581 -1331 
L 581 3500 
L 1159 3500 
L 1159 2969 
Q 1341 3281 1617 3432 
Q 1894 3584 2278 3584 
Q 2916 3584 3314 3078 
Q 3713 2572 3713 1747 
Q 3713 922 3314 415 
Q 2916 -91 2278 -91 
Q 1894 -91 1617 61 
Q 1341 213 1159 525 
z
M 3116 1747 
Q 3116 2381 2855 2742 
Q 2594 3103 2138 3103 
Q 1681 3103 1420 2742 
Q 1159 2381 1159 1747 
Q 1159 1113 1420 752 
Q 1681 391 2138 391 
Q 2594 391 2855 752 
Q 3116 1113 3116 1747 
z
" id="DejaVuSans-70" transform="scale(0.015625)"/>
      </defs>
      <use xlink:href="#DejaVuSans-70"/>
     </g>
    </g>
   </g>
   <g id="line2d_16">
    <path clip-path="url(#pc3859c2a33)" d="M 57.6 207.792 
L 59.000471 212.44896 
L 60.400941 209.78784 
L 61.801412 220.09968 
L 63.201882 217.10592 
L 64.602353 217.7712 
L 66.002824 221.43024 
L 67.403294 217.43856 
L 68.803765 216.108 
L 70.204235 209.4552 
L 71.604706 210.45312 
L 73.005176 214.4448 
L 74.405647 216.77328 
L 75.806118 202.46976 
L 77.206588 205.46352 
L 78.607059 205.79616 
L 80.007529 223.75872 
L 81.408 215.11008 
L 82.808471 216.44064 
L 84.208941 216.77328 
L 85.609412 216.44064 
L 87.009882 211.45104 
L 88.410353 222.09552 
L 89.810824 217.10592 
L 91.211294 202.46976 
L 94.012235 217.10592 
L 95.412706 220.43232 
L 96.813176 208.45728 
L 98.213647 212.44896 
L 99.614118 206.79408 
L 101.014588 210.78576 
L 102.415059 212.11632 
L 103.815529 216.44064 
L 105.216 218.43648 
L 106.616471 210.78576 
L 108.016941 216.44064 
L 109.417412 212.44896 
L 110.817882 211.78368 
L 112.218353 218.10384 
L 113.618824 210.78576 
L 115.019294 212.7816 
L 116.419765 207.792 
L 117.820235 217.7712 
L 119.220706 216.108 
L 120.621176 216.77328 
L 122.021647 207.12672 
L 123.422118 216.108 
L 124.822588 221.76288 
L 126.223059 229.08096 
L 127.623529 212.7816 
L 129.024 208.78992 
L 130.424471 211.1184 
L 131.824941 213.11424 
L 133.225412 202.46976 
L 134.625882 200.47392 
L 136.026353 208.45728 
L 137.426824 211.45104 
L 138.827294 205.79616 
L 140.227765 203.13504 
L 141.628235 217.43856 
L 143.028706 214.4448 
L 144.429176 206.79408 
L 145.829647 197.48016 
L 147.230118 225.42192 
L 148.630588 207.792 
L 150.031059 215.11008 
L 151.431529 205.79616 
L 152.832 214.11216 
L 154.232471 214.77744 
L 155.632941 214.77744 
L 157.033412 214.11216 
L 158.433882 214.11216 
L 159.834353 219.10176 
L 161.234824 218.10384 
L 162.635294 206.79408 
L 164.035765 212.11632 
L 165.436235 197.48016 
L 166.836706 221.76288 
L 168.237176 201.47184 
L 169.637647 219.4344 
L 171.038118 220.76496 
L 172.438588 213.44688 
L 173.839059 201.80448 
L 175.239529 209.4552 
L 176.64 196.48224 
L 178.040471 211.45104 
L 179.440941 201.1392 
L 180.841412 220.43232 
L 182.241882 206.1288 
L 183.642353 206.79408 
L 185.042824 202.46976 
L 186.443294 212.7816 
L 187.843765 212.11632 
L 189.244235 210.78576 
L 190.644706 200.47392 
L 192.045176 213.44688 
L 193.445647 205.13088 
L 194.846118 220.76496 
L 196.246588 199.476 
L 197.647059 220.43232 
L 199.047529 214.77744 
L 200.448 214.77744 
L 201.848471 214.4448 
L 203.248941 207.792 
L 204.649412 212.44896 
L 206.049882 212.7816 
L 207.450353 206.79408 
L 208.850824 205.13088 
L 210.251294 219.76704 
L 211.651765 210.78576 
L 213.052235 208.45728 
L 214.452706 218.10384 
L 215.853176 221.43024 
L 217.253647 214.4448 
L 218.654118 206.46144 
L 220.054588 207.12672 
L 221.455059 204.13296 
L 222.855529 202.8024 
L 224.256 192.8232 
L 225.656471 213.77952 
L 227.056941 216.108 
L 228.457412 213.77952 
L 229.857882 210.12048 
L 231.258353 213.44688 
L 232.658824 199.14336 
L 234.059294 217.10592 
L 235.459765 203.46768 
L 236.860235 224.75664 
L 238.260706 220.76496 
L 239.661176 222.42816 
L 241.061647 211.45104 
L 242.462118 217.7712 
L 243.862588 215.11008 
L 245.263059 224.75664 
L 246.663529 200.47392 
L 248.064 217.43856 
L 249.464471 215.77536 
L 250.864941 205.13088 
L 252.265412 210.78576 
L 253.665882 211.1184 
L 255.066353 216.108 
L 256.466824 205.46352 
L 257.867294 210.45312 
L 259.267765 223.09344 
L 260.668235 210.78576 
L 262.068706 221.76288 
L 263.469176 205.46352 
L 264.869647 225.75456 
L 266.270118 215.11008 
L 267.670588 207.792 
L 269.071059 215.77536 
L 270.471529 210.45312 
L 271.872 220.76496 
L 273.272471 204.4656 
L 274.672941 212.44896 
L 276.073412 213.44688 
L 277.473882 212.44896 
L 278.874353 193.15584 
L 280.274824 202.13712 
L 281.675294 223.75872 
L 283.075765 198.47808 
L 284.476235 215.44272 
L 285.876706 208.78992 
L 287.277176 207.12672 
L 288.677647 217.10592 
L 290.078118 209.78784 
L 291.478588 207.12672 
L 292.879059 228.74832 
L 294.279529 208.12464 
L 295.68 222.42816 
L 297.080471 199.14336 
L 298.480941 204.79824 
L 299.881412 204.13296 
L 301.281882 199.80864 
L 302.682353 213.44688 
L 304.082824 203.46768 
L 305.483294 215.11008 
L 306.883765 217.7712 
L 308.284235 196.1496 
L 309.684706 214.77744 
L 312.485647 202.8024 
L 313.886118 202.13712 
L 315.286588 210.45312 
L 316.687059 196.81488 
L 318.087529 210.12048 
L 319.488 204.13296 
L 320.888471 206.79408 
L 322.288941 216.77328 
L 323.689412 201.47184 
L 325.089882 201.47184 
L 326.490353 212.11632 
L 327.890824 221.0976 
L 329.291294 205.46352 
L 330.691765 203.80032 
L 332.092235 212.11632 
L 333.492706 207.45936 
L 334.893176 218.43648 
L 336.293647 197.8128 
L 337.694118 225.08928 
L 339.094588 213.44688 
L 340.495059 212.44896 
L 341.895529 213.77952 
L 343.296 220.09968 
L 344.696471 198.14544 
L 346.096941 211.45104 
L 347.497412 203.13504 
L 348.897882 206.79408 
L 350.298353 214.4448 
L 351.698824 223.75872 
L 353.099294 204.13296 
L 354.499765 216.44064 
L 355.900235 206.46144 
L 357.300706 205.79616 
L 358.701176 204.4656 
L 360.101647 220.76496 
L 361.502118 205.13088 
L 362.902588 219.10176 
L 364.303059 210.45312 
L 365.703529 215.77536 
L 367.104 206.46144 
L 368.504471 200.14128 
L 369.904941 203.80032 
L 371.305412 210.12048 
L 372.705882 220.09968 
L 374.106353 207.792 
L 375.506824 217.10592 
L 376.907294 209.12256 
L 378.307765 207.45936 
L 379.708235 196.81488 
L 381.108706 204.13296 
L 382.509176 216.44064 
L 383.909647 210.12048 
L 385.310118 215.77536 
L 386.710588 200.14128 
L 388.111059 205.46352 
L 389.511529 197.8128 
L 390.912 219.4344 
L 392.312471 198.14544 
L 393.712941 214.77744 
L 395.113412 203.80032 
L 396.513882 218.43648 
L 397.914353 198.81072 
L 399.314824 204.13296 
L 402.115765 194.15376 
L 403.516235 212.11632 
L 404.916706 208.12464 
L 406.317176 211.1184 
L 407.717647 203.80032 
L 409.118118 223.09344 
L 410.518588 206.1288 
L 411.919059 196.81488 
L 413.319529 214.4448 
L 414.72 197.48016 
L 414.72 197.48016 
" style="fill:none;stroke:#000000;stroke-linecap:square;stroke-opacity:0.9;stroke-width:1.5;"/>
   </g>
   <g id="line2d_17">
    <path clip-path="url(#pc3859c2a33)" d="M 57.6 223.75872 
L 59.000471 205.79616 
L 60.400941 221.43024 
L 61.801412 207.12672 
L 63.201882 215.11008 
L 64.602353 205.46352 
L 66.002824 215.77536 
L 67.403294 207.45936 
L 68.803765 198.14544 
L 70.204235 207.45936 
L 71.604706 213.44688 
L 73.005176 203.13504 
L 74.405647 208.78992 
L 75.806118 208.12464 
L 77.206588 227.08512 
L 78.607059 220.76496 
L 81.408 209.12256 
L 82.808471 219.10176 
L 84.208941 202.46976 
L 85.609412 214.77744 
L 87.009882 198.47808 
L 88.410353 211.45104 
L 89.810824 204.4656 
L 91.211294 211.45104 
L 92.611765 219.10176 
L 94.012235 214.77744 
L 95.412706 212.7816 
L 96.813176 197.8128 
L 98.213647 206.1288 
L 99.614118 218.43648 
L 101.014588 217.43856 
L 102.415059 209.12256 
L 103.815529 205.46352 
L 105.216 217.43856 
L 106.616471 208.78992 
L 108.016941 212.44896 
L 109.417412 198.14544 
L 110.817882 214.4448 
L 112.218353 221.43024 
L 113.618824 208.78992 
L 115.019294 205.13088 
L 116.419765 203.46768 
L 117.820235 210.78576 
L 119.220706 209.78784 
L 120.621176 207.12672 
L 122.021647 215.11008 
L 123.422118 208.12464 
L 124.822588 213.11424 
L 126.223059 211.45104 
L 127.623529 206.46144 
L 129.024 203.13504 
L 130.424471 200.47392 
L 131.824941 216.108 
L 133.225412 209.12256 
L 134.625882 212.44896 
L 136.026353 211.45104 
L 137.426824 217.10592 
L 138.827294 208.45728 
L 140.227765 207.792 
L 141.628235 221.43024 
L 143.028706 204.79824 
L 144.429176 219.10176 
L 145.829647 212.11632 
L 147.230118 218.10384 
L 148.630588 201.80448 
L 151.431529 212.11632 
L 152.832 210.45312 
L 154.232471 211.78368 
L 155.632941 212.44896 
L 157.033412 214.11216 
L 158.433882 207.45936 
L 159.834353 213.44688 
L 161.234824 202.13712 
L 162.635294 218.10384 
L 164.035765 208.12464 
L 165.436235 212.11632 
L 166.836706 222.42816 
L 168.237176 228.74832 
L 169.637647 207.45936 
L 171.038118 218.76912 
L 172.438588 204.79824 
L 173.839059 230.07888 
L 175.239529 211.1184 
L 176.64 206.46144 
L 178.040471 209.78784 
L 179.440941 203.46768 
L 180.841412 209.12256 
L 182.241882 213.77952 
L 183.642353 197.48016 
L 185.042824 221.0976 
L 186.443294 217.10592 
L 187.843765 203.13504 
L 189.244235 213.11424 
L 190.644706 207.45936 
L 192.045176 216.44064 
L 193.445647 211.1184 
L 196.246588 203.13504 
L 197.647059 213.11424 
L 199.047529 198.47808 
L 200.448 205.79616 
L 201.848471 218.76912 
L 203.248941 212.11632 
L 204.649412 213.11424 
L 206.049882 206.1288 
L 207.450353 202.8024 
L 208.850824 216.77328 
L 210.251294 210.12048 
L 211.651765 218.10384 
L 213.052235 203.13504 
L 214.452706 215.44272 
L 215.853176 208.12464 
L 217.253647 205.46352 
L 218.654118 214.77744 
L 220.054588 216.77328 
L 221.455059 223.75872 
L 222.855529 209.4552 
L 224.256 209.78784 
L 225.656471 215.77536 
L 227.056941 217.7712 
L 228.457412 212.7816 
L 229.857882 219.10176 
L 231.258353 218.43648 
L 232.658824 213.77952 
L 234.059294 211.1184 
L 235.459765 197.14752 
L 236.860235 206.79408 
L 238.260706 197.14752 
L 239.661176 211.45104 
L 241.061647 205.46352 
L 242.462118 212.7816 
L 243.862588 210.78576 
L 245.263059 212.11632 
L 246.663529 208.12464 
L 248.064 205.13088 
L 249.464471 210.78576 
L 250.864941 205.79616 
L 252.265412 209.12256 
L 253.665882 216.44064 
L 255.066353 203.80032 
L 256.466824 220.09968 
L 257.867294 204.4656 
L 259.267765 213.44688 
L 260.668235 202.8024 
L 262.068706 211.45104 
L 263.469176 206.1288 
L 264.869647 215.77536 
L 266.270118 211.1184 
L 267.670588 210.12048 
L 269.071059 215.11008 
L 270.471529 214.4448 
L 271.872 211.78368 
L 273.272471 210.45312 
L 274.672941 218.76912 
L 276.073412 212.11632 
L 277.473882 207.12672 
L 278.874353 220.09968 
L 280.274824 199.476 
L 281.675294 211.45104 
L 283.075765 210.12048 
L 284.476235 213.44688 
L 285.876706 208.12464 
L 287.277176 193.82112 
L 288.677647 217.43856 
L 290.078118 211.1184 
L 291.478588 225.08928 
L 292.879059 206.1288 
L 294.279529 205.13088 
L 295.68 217.43856 
L 297.080471 212.7816 
L 298.480941 210.78576 
L 299.881412 210.78576 
L 301.281882 216.108 
L 302.682353 211.1184 
L 304.082824 204.79824 
L 305.483294 215.44272 
L 306.883765 210.12048 
L 308.284235 207.792 
L 309.684706 219.10176 
L 312.485647 201.80448 
L 313.886118 212.7816 
L 315.286588 206.1288 
L 316.687059 209.4552 
L 318.087529 217.43856 
L 319.488 210.12048 
L 320.888471 207.45936 
L 322.288941 214.77744 
L 323.689412 211.1184 
L 325.089882 209.12256 
L 326.490353 195.15168 
L 327.890824 208.78992 
L 329.291294 210.12048 
L 330.691765 210.45312 
L 332.092235 206.79408 
L 333.492706 219.4344 
L 334.893176 211.45104 
L 336.293647 207.12672 
L 337.694118 223.09344 
L 339.094588 212.44896 
L 340.495059 209.4552 
L 341.895529 206.79408 
L 343.296 211.1184 
L 344.696471 207.45936 
L 346.096941 210.45312 
L 347.497412 219.76704 
L 348.897882 202.46976 
L 350.298353 212.11632 
L 351.698824 208.45728 
L 353.099294 213.77952 
L 354.499765 207.12672 
L 355.900235 219.10176 
L 357.300706 215.44272 
L 358.701176 204.79824 
L 360.101647 209.4552 
L 361.502118 210.12048 
L 362.902588 216.108 
L 364.303059 212.44896 
L 365.703529 207.792 
L 367.104 206.1288 
L 368.504471 207.45936 
L 369.904941 214.11216 
L 371.305412 204.13296 
L 372.705882 206.79408 
L 374.106353 209.12256 
L 375.506824 211.1184 
L 376.907294 211.45104 
L 378.307765 205.13088 
L 379.708235 214.11216 
L 381.108706 209.4552 
L 382.509176 205.79616 
L 383.909647 213.44688 
L 385.310118 204.79824 
L 386.710588 212.7816 
L 388.111059 225.75456 
L 389.511529 210.45312 
L 390.912 198.14544 
L 392.312471 218.43648 
L 393.712941 212.44896 
L 395.113412 213.77952 
L 396.513882 207.12672 
L 397.914353 216.108 
L 399.314824 208.78992 
L 400.715294 203.46768 
L 402.115765 217.10592 
L 403.516235 221.43024 
L 404.916706 213.77952 
L 406.317176 211.78368 
L 407.717647 208.45728 
L 409.118118 218.10384 
L 410.518588 207.12672 
L 411.919059 210.12048 
L 414.72 212.7816 
L 414.72 212.7816 
" style="fill:none;stroke:#808080;stroke-linecap:square;stroke-opacity:0.7;stroke-width:1.5;"/>
   </g>
   <g id="line2d_18">
    <path clip-path="url(#pc3859c2a33)" d="M 57.6 247.04352 
L 59.000471 232.40736 
L 60.400941 238.39488 
L 61.801412 233.73792 
L 63.201882 236.0664 
L 64.602353 233.73792 
L 66.002824 233.40528 
L 67.403294 220.09968 
L 68.803765 233.07264 
L 70.204235 235.73376 
L 71.604706 232.07472 
L 73.005176 228.08304 
L 74.405647 231.74208 
L 75.806118 211.1184 
L 77.206588 231.0768 
L 78.607059 211.78368 
L 80.007529 241.72128 
L 81.408 234.73584 
L 82.808471 235.40112 
L 84.208941 224.424 
L 85.609412 224.75664 
L 87.009882 219.10176 
L 88.410353 225.08928 
L 89.810824 220.09968 
L 91.211294 243.71712 
L 92.611765 221.0976 
L 94.012235 224.09136 
L 95.412706 213.44688 
L 96.813176 227.7504 
L 98.213647 214.4448 
L 99.614118 209.12256 
L 101.014588 189.4968 
L 102.415059 249.372 
L 103.815529 235.40112 
L 105.216 232.74 
L 106.616471 226.75248 
L 108.016941 218.76912 
L 109.417412 218.43648 
L 110.817882 216.108 
L 112.218353 214.11216 
L 113.618824 243.38448 
L 115.019294 225.42192 
L 116.419765 220.43232 
L 117.820235 211.78368 
L 119.220706 217.10592 
L 120.621176 215.11008 
L 122.021647 215.44272 
L 123.422118 205.13088 
L 124.822588 237.06432 
L 126.223059 221.0976 
L 127.623529 224.424 
L 129.024 215.11008 
L 130.424471 215.77536 
L 131.824941 215.77536 
L 133.225412 201.1392 
L 134.625882 205.13088 
L 136.026353 226.41984 
L 137.426824 208.45728 
L 138.827294 206.1288 
L 140.227765 202.8024 
L 141.628235 206.1288 
L 143.028706 205.79616 
L 144.429176 217.10592 
L 145.829647 198.81072 
L 147.230118 249.70464 
L 148.630588 228.08304 
L 150.031059 237.7296 
L 151.431529 225.08928 
L 152.832 231.74208 
L 154.232471 210.45312 
L 155.632941 214.4448 
L 157.033412 222.42816 
L 159.834353 217.7712 
L 161.234824 226.75248 
L 162.635294 217.10592 
L 164.035765 229.4136 
L 165.436235 211.1184 
L 166.836706 213.44688 
L 168.237176 207.12672 
L 169.637647 234.4032 
L 171.038118 231.0768 
L 172.438588 226.0872 
L 173.839059 207.45936 
L 175.239529 226.75248 
L 176.64 207.12672 
L 178.040471 205.13088 
L 179.440941 194.15376 
L 180.841412 219.4344 
L 182.241882 213.44688 
L 183.642353 205.46352 
L 185.042824 205.46352 
L 186.443294 208.78992 
L 187.843765 198.47808 
L 189.244235 208.78992 
L 190.644706 193.82112 
L 192.045176 225.75456 
L 193.445647 227.7504 
L 194.846118 218.10384 
L 196.246588 216.77328 
L 197.647059 226.0872 
L 199.047529 207.45936 
L 200.448 207.12672 
L 201.848471 193.15584 
L 203.248941 219.76704 
L 204.649412 206.46144 
L 206.049882 207.12672 
L 207.450353 203.13504 
L 208.850824 202.13712 
L 210.251294 213.11424 
L 211.651765 205.79616 
L 213.052235 192.15792 
L 214.452706 207.792 
L 215.853176 218.43648 
L 217.253647 204.79824 
L 218.654118 210.12048 
L 220.054588 206.46144 
L 221.455059 192.8232 
L 222.855529 190.16208 
L 224.256 185.83776 
L 225.656471 216.77328 
L 227.056941 188.83152 
L 228.457412 199.80864 
L 229.857882 187.16832 
L 231.258353 213.77952 
L 232.658824 184.83984 
L 234.059294 175.19328 
L 235.459765 173.53008 
L 236.860235 241.38864 
L 238.260706 237.7296 
L 239.661176 237.06432 
L 241.061647 224.424 
L 242.462118 241.056 
L 243.862588 216.77328 
L 245.263059 233.73792 
L 246.663529 206.46144 
L 248.064 234.07056 
L 249.464471 218.76912 
L 250.864941 218.10384 
L 252.265412 205.79616 
L 253.665882 231.40944 
L 255.066353 214.77744 
L 257.867294 193.48848 
L 259.267765 237.39696 
L 260.668235 218.76912 
L 262.068706 219.4344 
L 263.469176 213.77952 
L 264.869647 223.42608 
L 266.270118 210.12048 
L 267.670588 204.4656 
L 269.071059 202.46976 
L 270.471529 229.4136 
L 271.872 212.7816 
L 274.672941 201.47184 
L 276.073412 202.8024 
L 277.473882 202.13712 
L 278.874353 197.48016 
L 280.274824 180.18288 
L 281.675294 224.09136 
L 283.075765 222.7608 
L 284.476235 222.7608 
L 285.876706 214.11216 
L 287.277176 220.76496 
L 288.677647 213.11424 
L 290.078118 214.11216 
L 291.478588 198.47808 
L 292.879059 226.75248 
L 294.279529 205.46352 
L 295.68 216.77328 
L 297.080471 212.7816 
L 298.480941 213.11424 
L 299.881412 205.46352 
L 301.281882 188.83152 
L 302.682353 191.82528 
L 304.082824 220.76496 
L 305.483294 215.77536 
L 306.883765 200.14128 
L 308.284235 195.81696 
L 309.684706 207.12672 
L 311.085176 200.14128 
L 312.485647 196.1496 
L 313.886118 183.17664 
L 315.286588 212.7816 
L 316.687059 189.4968 
L 318.087529 200.80656 
L 319.488 184.17456 
L 320.888471 199.476 
L 322.288941 196.1496 
L 323.689412 190.82736 
L 325.089882 179.5176 
L 326.490353 239.3928 
L 327.890824 222.42816 
L 329.291294 219.76704 
L 330.691765 209.78784 
L 332.092235 221.76288 
L 333.492706 212.11632 
L 334.893176 214.4448 
L 336.293647 192.8232 
L 337.694118 223.42608 
L 339.094588 206.1288 
L 340.495059 208.45728 
L 341.895529 200.14128 
L 343.296 201.80448 
L 344.696471 200.47392 
L 346.096941 206.46144 
L 347.497412 192.15792 
L 348.897882 222.7608 
L 350.298353 203.13504 
L 351.698824 217.10592 
L 353.099294 202.8024 
L 354.499765 219.10176 
L 355.900235 203.13504 
L 357.300706 203.46768 
L 358.701176 192.49056 
L 360.101647 209.78784 
L 361.502118 193.82112 
L 362.902588 203.46768 
L 364.303059 199.80864 
L 365.703529 208.12464 
L 367.104 182.51136 
L 368.504471 194.81904 
L 369.904941 174.19536 
L 371.305412 217.7712 
L 372.705882 207.12672 
L 374.106353 222.7608 
L 375.506824 192.15792 
L 376.907294 206.79408 
L 378.307765 198.81072 
L 379.708235 210.78576 
L 381.108706 189.4968 
L 382.509176 203.80032 
L 383.909647 194.81904 
L 385.310118 191.82528 
L 386.710588 184.83984 
L 388.111059 198.14544 
L 389.511529 185.17248 
L 390.912 192.8232 
L 392.312471 187.50096 
L 393.712941 216.77328 
L 395.113412 202.13712 
L 396.513882 201.80448 
L 397.914353 183.17664 
L 399.314824 210.45312 
L 400.715294 192.49056 
L 402.115765 190.16208 
L 403.516235 171.53424 
L 404.916706 195.15168 
L 406.317176 191.16 
L 407.717647 183.84192 
L 409.118118 174.528 
L 410.518588 182.844 
L 411.919059 168.20784 
L 413.319529 182.17872 
L 414.72 166.87728 
L 414.72 166.87728 
" style="fill:none;stroke:#ff0000;stroke-linecap:square;stroke-opacity:0.4;stroke-width:1.5;"/>
   </g>
   <g id="line2d_19">
    <path clip-path="url(#pc3859c2a33)" d="M 57.6 244.3824 
L 59.000471 240.05808 
L 60.400941 244.04976 
L 61.801412 231.40944 
L 63.201882 238.39488 
L 64.602353 224.75664 
L 66.002824 221.43024 
L 67.403294 226.75248 
L 68.803765 244.71504 
L 70.204235 219.76704 
L 71.604706 239.72544 
L 73.005176 219.76704 
L 74.405647 239.72544 
L 75.806118 221.76288 
L 77.206588 209.12256 
L 78.607059 212.11632 
L 80.007529 243.38448 
L 81.408 235.73376 
L 82.808471 235.40112 
L 84.208941 216.108 
L 85.609412 226.75248 
L 87.009882 233.07264 
L 89.810824 209.12256 
L 91.211294 225.08928 
L 92.611765 217.43856 
L 94.012235 219.4344 
L 95.412706 205.13088 
L 96.813176 221.43024 
L 98.213647 199.14336 
L 99.614118 207.792 
L 101.014588 201.80448 
L 102.415059 238.39488 
L 103.815529 229.4136 
L 105.216 227.7504 
L 106.616471 218.43648 
L 108.016941 232.07472 
L 109.417412 236.0664 
L 110.817882 218.43648 
L 112.218353 215.11008 
L 113.618824 239.3928 
L 115.019294 209.12256 
L 116.419765 220.09968 
L 117.820235 214.11216 
L 119.220706 222.7608 
L 120.621176 204.79824 
L 122.021647 210.45312 
L 123.422118 206.79408 
L 124.822588 234.07056 
L 126.223059 228.41568 
L 127.623529 222.09552 
L 129.024 221.43024 
L 130.424471 220.43232 
L 131.824941 216.77328 
L 133.225412 211.78368 
L 134.625882 208.12464 
L 136.026353 222.09552 
L 137.426824 213.44688 
L 138.827294 216.44064 
L 140.227765 195.48432 
L 141.628235 198.47808 
L 143.028706 193.48848 
L 144.429176 200.14128 
L 145.829647 195.15168 
L 147.230118 236.73168 
L 148.630588 242.05392 
L 150.031059 236.39904 
L 151.431529 225.42192 
L 152.832 218.76912 
L 154.232471 222.7608 
L 155.632941 208.45728 
L 157.033412 213.77952 
L 158.433882 220.09968 
L 159.834353 227.08512 
L 161.234824 226.75248 
L 162.635294 206.46144 
L 164.035765 234.4032 
L 165.436235 206.46144 
L 166.836706 215.11008 
L 168.237176 197.48016 
L 169.637647 231.0768 
L 171.038118 217.43856 
L 172.438588 221.43024 
L 173.839059 214.11216 
L 175.239529 218.76912 
L 176.64 204.13296 
L 178.040471 212.44896 
L 179.440941 189.4968 
L 180.841412 226.75248 
L 182.241882 202.46976 
L 183.642353 213.44688 
L 185.042824 192.49056 
L 186.443294 212.44896 
L 187.843765 199.14336 
L 189.244235 193.48848 
L 190.644706 181.1808 
L 192.045176 238.39488 
L 193.445647 220.09968 
L 194.846118 229.08096 
L 196.246588 209.4552 
L 197.647059 216.44064 
L 199.047529 215.11008 
L 200.448 205.79616 
L 201.848471 192.8232 
L 203.248941 216.77328 
L 204.649412 210.45312 
L 206.049882 214.77744 
L 207.450353 204.4656 
L 208.850824 211.1184 
L 210.251294 204.4656 
L 211.651765 187.50096 
L 213.052235 196.48224 
L 214.452706 219.10176 
L 215.853176 213.77952 
L 217.253647 207.45936 
L 218.654118 204.79824 
L 220.054588 208.78992 
L 221.455059 206.46144 
L 222.855529 199.80864 
L 224.256 184.5072 
L 225.656471 221.43024 
L 227.056941 203.80032 
L 228.457412 210.12048 
L 229.857882 192.15792 
L 231.258353 191.82528 
L 232.658824 188.16624 
L 234.059294 198.81072 
L 235.459765 164.21616 
L 236.860235 227.41776 
L 238.260706 229.4136 
L 239.661176 221.43024 
L 241.061647 222.42816 
L 242.462118 237.39696 
L 243.862588 229.4136 
L 245.263059 219.4344 
L 246.663529 217.10592 
L 248.064 231.0768 
L 249.464471 220.76496 
L 250.864941 216.77328 
L 252.265412 215.44272 
L 253.665882 228.74832 
L 255.066353 201.47184 
L 256.466824 206.79408 
L 257.867294 197.48016 
L 259.267765 241.056 
L 260.668235 228.74832 
L 263.469176 221.43024 
L 264.869647 219.4344 
L 266.270118 217.10592 
L 267.670588 204.4656 
L 269.071059 186.50304 
L 270.471529 210.45312 
L 271.872 216.77328 
L 273.272471 208.12464 
L 274.672941 202.8024 
L 276.073412 202.46976 
L 277.473882 200.80656 
L 278.874353 202.46976 
L 280.274824 196.48224 
L 281.675294 231.40944 
L 283.075765 217.43856 
L 284.476235 218.10384 
L 285.876706 206.1288 
L 287.277176 209.4552 
L 288.677647 208.12464 
L 290.078118 207.45936 
L 291.478588 209.12256 
L 292.879059 223.09344 
L 294.279529 224.09136 
L 295.68 203.80032 
L 297.080471 191.82528 
L 298.480941 216.77328 
L 299.881412 194.81904 
L 301.281882 207.792 
L 302.682353 189.16416 
L 304.082824 222.09552 
L 305.483294 213.11424 
L 306.883765 225.08928 
L 308.284235 202.8024 
L 309.684706 205.79616 
L 311.085176 200.14128 
L 312.485647 201.47184 
L 313.886118 192.8232 
L 315.286588 224.09136 
L 316.687059 211.1184 
L 318.087529 204.4656 
L 319.488 187.16832 
L 320.888471 203.46768 
L 322.288941 187.16832 
L 323.689412 196.48224 
L 325.089882 176.85648 
L 326.490353 232.74 
L 327.890824 225.42192 
L 329.291294 223.42608 
L 330.691765 211.1184 
L 332.092235 217.43856 
L 333.492706 217.10592 
L 334.893176 218.43648 
L 336.293647 204.79824 
L 337.694118 225.75456 
L 339.094588 205.79616 
L 340.495059 211.45104 
L 341.895529 201.80448 
L 343.296 221.0976 
L 344.696471 202.46976 
L 346.096941 206.79408 
L 347.497412 194.15376 
L 348.897882 212.11632 
L 350.298353 209.12256 
L 351.698824 214.77744 
L 353.099294 195.81696 
L 354.499765 211.45104 
L 355.900235 201.1392 
L 357.300706 198.14544 
L 358.701176 180.84816 
L 360.101647 198.14544 
L 361.502118 206.46144 
L 362.902588 194.81904 
L 364.303059 207.792 
L 365.703529 205.46352 
L 367.104 187.50096 
L 369.904941 179.18496 
L 371.305412 226.75248 
L 372.705882 216.108 
L 374.106353 213.11424 
L 375.506824 197.48016 
L 376.907294 218.43648 
L 378.307765 206.1288 
L 379.708235 199.476 
L 381.108706 182.51136 
L 382.509176 207.45936 
L 383.909647 202.46976 
L 385.310118 210.45312 
L 386.710588 204.4656 
L 388.111059 204.13296 
L 389.511529 190.49472 
L 390.912 191.16 
L 392.312471 166.212 
L 393.712941 211.1184 
L 395.113412 197.8128 
L 396.513882 210.45312 
L 397.914353 187.8336 
L 399.314824 203.13504 
L 400.715294 192.15792 
L 402.115765 189.4968 
L 403.516235 173.86272 
L 404.916706 204.13296 
L 406.317176 191.49264 
L 407.717647 190.49472 
L 409.118118 168.20784 
L 410.518588 194.4864 
L 411.919059 175.52592 
L 413.319529 183.17664 
L 414.72 162.8856 
L 414.72 162.8856 
" style="fill:none;stroke:#0000ff;stroke-linecap:square;stroke-opacity:0.4;stroke-width:1.5;"/>
   </g>
   <g id="patch_3">
    <path d="M 57.6 307.584 
L 57.6 41.472 
" style="fill:none;stroke:#000000;stroke-linecap:square;stroke-linejoin:miter;stroke-width:0.8;"/>
   </g>
   <g id="patch_4">
    <path d="M 414.72 307.584 
L 414.72 41.472 
" style="fill:none;stroke:#000000;stroke-linecap:square;stroke-linejoin:miter;stroke-width:0.8;"/>
   </g>
   <g id="patch_5">
    <path d="M 57.6 307.584 
L 414.72 307.584 
" style="fill:none;stroke:#000000;stroke-linecap:square;stroke-linejoin:miter;stroke-width:0.8;"/>
   </g>
   <g id="patch_6">
    <path d="M 57.6 41.472 
L 414.72 41.472 
" style="fill:none;stroke:#000000;stroke-linecap:square;stroke-linejoin:miter;stroke-width:0.8;"/>
   </g>
   <g id="legend_1">
    <g id="patch_7">
     <path d="M 340.471563 108.1845 
L 407.72 108.1845 
Q 409.72 108.1845 409.72 106.1845 
L 409.72 48.472 
Q 409.72 46.472 407.72 46.472 
L 340.471563 46.472 
Q 338.471563 46.472 338.471563 48.472 
L 338.471563 106.1845 
Q 338.471563 108.1845 340.471563 108.1845 
z
" style="fill:#ffffff;opacity:0.8;stroke:#cccccc;stroke-linejoin:miter;"/>
    </g>
    <g id="line2d_20">
     <path d="M 342.471563 54.570438 
L 362.471563 54.570438 
" style="fill:none;stroke:#000000;stroke-linecap:square;stroke-opacity:0.9;stroke-width:1.5;"/>
    </g>
    <g id="line2d_21"/>
    <g id="text_18">
     <!-- base -->
     <g transform="translate(370.471563 58.070438)scale(0.1 -0.1)">
      <defs>
       <path d="M 2834 3397 
L 2834 2853 
Q 2591 2978 2328 3040 
Q 2066 3103 1784 3103 
Q 1356 3103 1142 2972 
Q 928 2841 928 2578 
Q 928 2378 1081 2264 
Q 1234 2150 1697 2047 
L 1894 2003 
Q 2506 1872 2764 1633 
Q 3022 1394 3022 966 
Q 3022 478 2636 193 
Q 2250 -91 1575 -91 
Q 1294 -91 989 -36 
Q 684 19 347 128 
L 347 722 
Q 666 556 975 473 
Q 1284 391 1588 391 
Q 1994 391 2212 530 
Q 2431 669 2431 922 
Q 2431 1156 2273 1281 
Q 2116 1406 1581 1522 
L 1381 1569 
Q 847 1681 609 1914 
Q 372 2147 372 2553 
Q 372 3047 722 3315 
Q 1072 3584 1716 3584 
Q 2034 3584 2315 3537 
Q 2597 3491 2834 3397 
z
" id="DejaVuSans-73" transform="scale(0.015625)"/>
      </defs>
      <use xlink:href="#DejaVuSans-62"/>
      <use x="63.476562" xlink:href="#DejaVuSans-61"/>
      <use x="124.755859" xlink:href="#DejaVuSans-73"/>
      <use x="176.855469" xlink:href="#DejaVuSans-65"/>
     </g>
    </g>
    <g id="line2d_22">
     <path d="M 342.471563 69.248563 
L 362.471563 69.248563 
" style="fill:none;stroke:#808080;stroke-linecap:square;stroke-opacity:0.7;stroke-width:1.5;"/>
    </g>
    <g id="line2d_23"/>
    <g id="text_19">
     <!-- xor -->
     <g transform="translate(370.471563 72.748563)scale(0.1 -0.1)">
      <defs>
       <path d="M 3513 3500 
L 2247 1797 
L 3578 0 
L 2900 0 
L 1881 1375 
L 863 0 
L 184 0 
L 1544 1831 
L 300 3500 
L 978 3500 
L 1906 2253 
L 2834 3500 
L 3513 3500 
z
" id="DejaVuSans-78" transform="scale(0.015625)"/>
       <path d="M 1959 3097 
Q 1497 3097 1228 2736 
Q 959 2375 959 1747 
Q 959 1119 1226 758 
Q 1494 397 1959 397 
Q 2419 397 2687 759 
Q 2956 1122 2956 1747 
Q 2956 2369 2687 2733 
Q 2419 3097 1959 3097 
z
M 1959 3584 
Q 2709 3584 3137 3096 
Q 3566 2609 3566 1747 
Q 3566 888 3137 398 
Q 2709 -91 1959 -91 
Q 1206 -91 779 398 
Q 353 888 353 1747 
Q 353 2609 779 3096 
Q 1206 3584 1959 3584 
z
" id="DejaVuSans-6f" transform="scale(0.015625)"/>
      </defs>
      <use xlink:href="#DejaVuSans-78"/>
      <use x="56.054688" xlink:href="#DejaVuSans-6f"/>
      <use x="117.236328" xlink:href="#DejaVuSans-72"/>
     </g>
    </g>
    <g id="line2d_24">
     <path d="M 342.471563 83.926688 
L 362.471563 83.926688 
" style="fill:none;stroke:#ff0000;stroke-linecap:square;stroke-opacity:0.4;stroke-width:1.5;"/>
    </g>
    <g id="line2d_25"/>
    <g id="text_20">
     <!-- input a -->
     <g transform="translate(370.471563 87.426688)scale(0.1 -0.1)">
      <use xlink:href="#DejaVuSans-69"/>
      <use x="27.783203" xlink:href="#DejaVuSans-6e"/>
      <use x="91.162109" xlink:href="#DejaVuSans-70"/>
      <use x="154.638672" xlink:href="#DejaVuSans-75"/>
      <use x="218.017578" xlink:href="#DejaVuSans-74"/>
      <use x="257.226562" xlink:href="#DejaVuSans-20"/>
      <use x="289.013672" xlink:href="#DejaVuSans-61"/>
     </g>
    </g>
    <g id="line2d_26">
     <path d="M 342.471563 98.604813 
L 362.471563 98.604813 
" style="fill:none;stroke:#0000ff;stroke-linecap:square;stroke-opacity:0.4;stroke-width:1.5;"/>
    </g>
    <g id="line2d_27"/>
    <g id="text_21">
     <!-- input b -->
     <g transform="translate(370.471563 102.104813)scale(0.1 -0.1)">
      <use xlink:href="#DejaVuSans-69"/>
      <use x="27.783203" xlink:href="#DejaVuSans-6e"/>
      <use x="91.162109" xlink:href="#DejaVuSans-70"/>
      <use x="154.638672" xlink:href="#DejaVuSans-75"/>
      <use x="218.017578" xlink:href="#DejaVuSans-74"/>
      <use x="257.226562" xlink:href="#DejaVuSans-20"/>
      <use x="289.013672" xlink:href="#DejaVuSans-62"/>
     </g>
    </g>
   </g>
   <g id="legend_2">
    <g id="patch_8">
     <path d="M 302.37625 302.584 
L 407.72 302.584 
Q 409.72 302.584 409.72 300.584 
L 409.72 241.584 
Q 409.72 239.584 407.72 239.584 
L 302.37625 239.584 
Q 300.37625 239.584 300.37625 241.584 
L 300.37625 300.584 
Q 300.37625 302.584 302.37625 302.584 
z
" style="fill:#ffffff;opacity:0.8;stroke:#cccccc;stroke-linejoin:miter;"/>
    </g>
    <g id="line2d_28">
     <path d="M 304.37625 247.726187 
L 324.37625 247.726187 
" style="fill:none;stroke:#000000;stroke-linecap:square;stroke-opacity:0.9;stroke-width:1.5;"/>
    </g>
    <g id="line2d_29"/>
    <g id="text_22">
     <!-- 325.57 | 0.00 -->
     <g transform="translate(332.37625 251.226187)scale(0.1 -0.1)">
      <defs>
       <path d="M 1344 4891 
L 1344 -1509 
L 813 -1509 
L 813 4891 
L 1344 4891 
z
" id="DejaVuSans-7c" transform="scale(0.015625)"/>
      </defs>
      <use xlink:href="#DejaVuSans-33"/>
      <use x="63.623047" xlink:href="#DejaVuSans-32"/>
      <use x="127.246094" xlink:href="#DejaVuSans-35"/>
      <use x="190.869141" xlink:href="#DejaVuSans-2e"/>
      <use x="222.65625" xlink:href="#DejaVuSans-35"/>
      <use x="286.279297" xlink:href="#DejaVuSans-37"/>
      <use x="349.902344" xlink:href="#DejaVuSans-20"/>
      <use x="381.689453" xlink:href="#DejaVuSans-7c"/>
      <use x="415.380859" xlink:href="#DejaVuSans-20"/>
      <use x="447.167969" xlink:href="#DejaVuSans-30"/>
      <use x="510.791016" xlink:href="#DejaVuSans-2e"/>
      <use x="542.578125" xlink:href="#DejaVuSans-30"/>
      <use x="606.201172" xlink:href="#DejaVuSans-30"/>
     </g>
    </g>
    <g id="line2d_30">
     <path d="M 304.37625 262.726187 
L 324.37625 262.726187 
" style="fill:none;stroke:#808080;stroke-linecap:square;stroke-opacity:0.7;stroke-width:1.5;"/>
    </g>
    <g id="line2d_31"/>
    <g id="text_23">
     <!-- 222.87 | 0.93 -->
     <g transform="translate(332.37625 266.226187)scale(0.1 -0.1)">
      <use xlink:href="#DejaVuSans-32"/>
      <use x="63.623047" xlink:href="#DejaVuSans-32"/>
      <use x="127.246094" xlink:href="#DejaVuSans-32"/>
      <use x="190.869141" xlink:href="#DejaVuSans-2e"/>
      <use x="222.65625" xlink:href="#DejaVuSans-38"/>
      <use x="286.279297" xlink:href="#DejaVuSans-37"/>
      <use x="349.902344" xlink:href="#DejaVuSans-20"/>
      <use x="381.689453" xlink:href="#DejaVuSans-7c"/>
      <use x="415.380859" xlink:href="#DejaVuSans-20"/>
      <use x="447.167969" xlink:href="#DejaVuSans-30"/>
      <use x="510.791016" xlink:href="#DejaVuSans-2e"/>
      <use x="542.578125" xlink:href="#DejaVuSans-39"/>
      <use x="606.201172" xlink:href="#DejaVuSans-33"/>
     </g>
    </g>
    <g id="line2d_32">
     <path d="M 304.37625 277.726187 
L 324.37625 277.726187 
" style="fill:none;stroke:#ff0000;stroke-linecap:square;stroke-opacity:0.4;stroke-width:1.5;"/>
    </g>
    <g id="line2d_33"/>
    <g id="text_24">
     <!-- 1606.05 | 0.00 -->
     <g transform="translate(332.37625 281.226187)scale(0.1 -0.1)">
      <use xlink:href="#DejaVuSans-31"/>
      <use x="63.623047" xlink:href="#DejaVuSans-36"/>
      <use x="127.246094" xlink:href="#DejaVuSans-30"/>
      <use x="190.869141" xlink:href="#DejaVuSans-36"/>
      <use x="254.492188" xlink:href="#DejaVuSans-2e"/>
      <use x="286.279297" xlink:href="#DejaVuSans-30"/>
      <use x="349.902344" xlink:href="#DejaVuSans-35"/>
      <use x="413.525391" xlink:href="#DejaVuSans-20"/>
      <use x="445.3125" xlink:href="#DejaVuSans-7c"/>
      <use x="479.003906" xlink:href="#DejaVuSans-20"/>
      <use x="510.791016" xlink:href="#DejaVuSans-30"/>
      <use x="574.414062" xlink:href="#DejaVuSans-2e"/>
      <use x="606.201172" xlink:href="#DejaVuSans-30"/>
      <use x="669.824219" xlink:href="#DejaVuSans-30"/>
     </g>
    </g>
    <g id="line2d_34">
     <path d="M 304.37625 292.726187 
L 324.37625 292.726187 
" style="fill:none;stroke:#0000ff;stroke-linecap:square;stroke-opacity:0.4;stroke-width:1.5;"/>
    </g>
    <g id="line2d_35"/>
    <g id="text_25">
     <!-- 1497.99 | 0.00 -->
     <g transform="translate(332.37625 296.226187)scale(0.1 -0.1)">
      <use xlink:href="#DejaVuSans-31"/>
      <use x="63.623047" xlink:href="#DejaVuSans-34"/>
      <use x="127.246094" xlink:href="#DejaVuSans-39"/>
      <use x="190.869141" xlink:href="#DejaVuSans-37"/>
      <use x="254.492188" xlink:href="#DejaVuSans-2e"/>
      <use x="286.279297" xlink:href="#DejaVuSans-39"/>
      <use x="349.902344" xlink:href="#DejaVuSans-39"/>
      <use x="413.525391" xlink:href="#DejaVuSans-20"/>
      <use x="445.3125" xlink:href="#DejaVuSans-7c"/>
      <use x="479.003906" xlink:href="#DejaVuSans-20"/>
      <use x="510.791016" xlink:href="#DejaVuSans-30"/>
      <use x="574.414062" xlink:href="#DejaVuSans-2e"/>
      <use x="606.201172" xlink:href="#DejaVuSans-30"/>
      <use x="669.824219" xlink:href="#DejaVuSans-30"/>
     </g>
    </g>
   </g>
  </g>
 </g>
 <defs>
  <clipPath id="pc3859c2a33">
   <rect height="266.112" width="357.12" x="57.6" y="41.472"/>
  </clipPath>
 </defs>
</svg>
