<?xml version="1.0" encoding="utf-8" standalone="no"?>
<!DOCTYPE svg PUBLIC "-//W3C//DTD SVG 1.1//EN"
  "http://www.w3.org/Graphics/SVG/1.1/DTD/svg11.dtd">
<svg xmlns:xlink="http://www.w3.org/1999/xlink" width="460.8pt" height="345.6pt" viewBox="0 0 460.8 345.6" xmlns="http://www.w3.org/2000/svg" version="1.1">
 <metadata>
  <rdf:RDF xmlns:dc="http://purl.org/dc/elements/1.1/" xmlns:cc="http://creativecommons.org/ns#" xmlns:rdf="http://www.w3.org/1999/02/22-rdf-syntax-ns#">
   <cc:Work>
    <dc:type rdf:resource="http://purl.org/dc/dcmitype/StillImage"/>
    <dc:date>2024-01-26T18:10:15.507666</dc:date>
    <dc:format>image/svg+xml</dc:format>
    <dc:creator>
     <cc:Agent>
      <dc:title>Matplotlib v3.7.2, https://matplotlib.org/</dc:title>
     </cc:Agent>
    </dc:creator>
   </cc:Work>
  </rdf:RDF>
 </metadata>
 <defs>
  <style type="text/css">*{stroke-linejoin: round; stroke-linecap: butt}</style>
 </defs>
 <g id="figure_1">
  <g id="patch_1">
   <path d="M 0 345.6 
L 460.8 345.6 
L 460.8 0 
L 0 0 
z
" style="fill: #ffffff"/>
  </g>
  <g id="axes_1">
   <g id="patch_2">
    <path d="M 57.6 307.584 
L 414.72 307.584 
L 414.72 41.472 
L 57.6 41.472 
z
" style="fill: #ffffff"/>
   </g>
   <g id="matplotlib.axis_1">
    <g id="xtick_1">
     <g id="line2d_1">
      <defs>
       <path id="m8858347c35" d="M 0 0 
L 0 3.5 
" style="stroke: #000000; stroke-width: 0.8"/>
      </defs>
      <g>
       <use xlink:href="#m8858347c35" x="57.6" y="307.584" style="stroke: #000000; stroke-width: 0.8"/>
      </g>
     </g>
     <g id="text_1">
      <!-- 0 -->
      <g transform="translate(54.41875 322.182437) scale(0.1 -0.1)">
       <defs>
        <path id="DejaVuSans-30" d="M 2034 4250 
Q 1547 4250 1301 3770 
Q 1056 3291 1056 2328 
Q 1056 1369 1301 889 
Q 1547 409 2034 409 
Q 2525 409 2770 889 
Q 3016 1369 3016 2328 
Q 3016 3291 2770 3770 
Q 2525 4250 2034 4250 
z
M 2034 4750 
Q 2819 4750 3233 4129 
Q 3647 3509 3647 2328 
Q 3647 1150 3233 529 
Q 2819 -91 2034 -91 
Q 1250 -91 836 529 
Q 422 1150 422 2328 
Q 422 3509 836 4129 
Q 1250 4750 2034 4750 
z
" transform="scale(0.015625)"/>
       </defs>
       <use xlink:href="#DejaVuSans-30"/>
      </g>
     </g>
    </g>
    <g id="xtick_2">
     <g id="line2d_2">
      <g>
       <use xlink:href="#m8858347c35" x="127.623529" y="307.584" style="stroke: #000000; stroke-width: 0.8"/>
      </g>
     </g>
     <g id="text_2">
      <!-- 50 -->
      <g transform="translate(121.261029 322.182437) scale(0.1 -0.1)">
       <defs>
        <path id="DejaVuSans-35" d="M 691 4666 
L 3169 4666 
L 3169 4134 
L 1269 4134 
L 1269 2991 
Q 1406 3038 1543 3061 
Q 1681 3084 1819 3084 
Q 2600 3084 3056 2656 
Q 3513 2228 3513 1497 
Q 3513 744 3044 326 
Q 2575 -91 1722 -91 
Q 1428 -91 1123 -41 
Q 819 9 494 109 
L 494 744 
Q 775 591 1075 516 
Q 1375 441 1709 441 
Q 2250 441 2565 725 
Q 2881 1009 2881 1497 
Q 2881 1984 2565 2268 
Q 2250 2553 1709 2553 
Q 1456 2553 1204 2497 
Q 953 2441 691 2322 
L 691 4666 
z
" transform="scale(0.015625)"/>
       </defs>
       <use xlink:href="#DejaVuSans-35"/>
       <use xlink:href="#DejaVuSans-30" x="63.623047"/>
      </g>
     </g>
    </g>
    <g id="xtick_3">
     <g id="line2d_3">
      <g>
       <use xlink:href="#m8858347c35" x="197.647059" y="307.584" style="stroke: #000000; stroke-width: 0.8"/>
      </g>
     </g>
     <g id="text_3">
      <!-- 100 -->
      <g transform="translate(188.103309 322.182437) scale(0.1 -0.1)">
       <defs>
        <path id="DejaVuSans-31" d="M 794 531 
L 1825 531 
L 1825 4091 
L 703 3866 
L 703 4441 
L 1819 4666 
L 2450 4666 
L 2450 531 
L 3481 531 
L 3481 0 
L 794 0 
L 794 531 
z
" transform="scale(0.015625)"/>
       </defs>
       <use xlink:href="#DejaVuSans-31"/>
       <use xlink:href="#DejaVuSans-30" x="63.623047"/>
       <use xlink:href="#DejaVuSans-30" x="127.246094"/>
      </g>
     </g>
    </g>
    <g id="xtick_4">
     <g id="line2d_4">
      <g>
       <use xlink:href="#m8858347c35" x="267.670588" y="307.584" style="stroke: #000000; stroke-width: 0.8"/>
      </g>
     </g>
     <g id="text_4">
      <!-- 150 -->
      <g transform="translate(258.126838 322.182437) scale(0.1 -0.1)">
       <use xlink:href="#DejaVuSans-31"/>
       <use xlink:href="#DejaVuSans-35" x="63.623047"/>
       <use xlink:href="#DejaVuSans-30" x="127.246094"/>
      </g>
     </g>
    </g>
    <g id="xtick_5">
     <g id="line2d_5">
      <g>
       <use xlink:href="#m8858347c35" x="337.694118" y="307.584" style="stroke: #000000; stroke-width: 0.8"/>
      </g>
     </g>
     <g id="text_5">
      <!-- 200 -->
      <g transform="translate(328.150368 322.182437) scale(0.1 -0.1)">
       <defs>
        <path id="DejaVuSans-32" d="M 1228 531 
L 3431 531 
L 3431 0 
L 469 0 
L 469 531 
Q 828 903 1448 1529 
Q 2069 2156 2228 2338 
Q 2531 2678 2651 2914 
Q 2772 3150 2772 3378 
Q 2772 3750 2511 3984 
Q 2250 4219 1831 4219 
Q 1534 4219 1204 4116 
Q 875 4013 500 3803 
L 500 4441 
Q 881 4594 1212 4672 
Q 1544 4750 1819 4750 
Q 2544 4750 2975 4387 
Q 3406 4025 3406 3419 
Q 3406 3131 3298 2873 
Q 3191 2616 2906 2266 
Q 2828 2175 2409 1742 
Q 1991 1309 1228 531 
z
" transform="scale(0.015625)"/>
       </defs>
       <use xlink:href="#DejaVuSans-32"/>
       <use xlink:href="#DejaVuSans-30" x="63.623047"/>
       <use xlink:href="#DejaVuSans-30" x="127.246094"/>
      </g>
     </g>
    </g>
    <g id="xtick_6">
     <g id="line2d_6">
      <g>
       <use xlink:href="#m8858347c35" x="407.717647" y="307.584" style="stroke: #000000; stroke-width: 0.8"/>
      </g>
     </g>
     <g id="text_6">
      <!-- 250 -->
      <g transform="translate(398.173897 322.182437) scale(0.1 -0.1)">
       <use xlink:href="#DejaVuSans-32"/>
       <use xlink:href="#DejaVuSans-35" x="63.623047"/>
       <use xlink:href="#DejaVuSans-30" x="127.246094"/>
      </g>
     </g>
    </g>
    <g id="text_7">
     <!-- Generated 8-bit Number -->
     <g transform="translate(174.860781 335.860562) scale(0.1 -0.1)">
      <defs>
       <path id="DejaVuSans-47" d="M 3809 666 
L 3809 1919 
L 2778 1919 
L 2778 2438 
L 4434 2438 
L 4434 434 
Q 4069 175 3628 42 
Q 3188 -91 2688 -91 
Q 1594 -91 976 548 
Q 359 1188 359 2328 
Q 359 3472 976 4111 
Q 1594 4750 2688 4750 
Q 3144 4750 3555 4637 
Q 3966 4525 4313 4306 
L 4313 3634 
Q 3963 3931 3569 4081 
Q 3175 4231 2741 4231 
Q 1884 4231 1454 3753 
Q 1025 3275 1025 2328 
Q 1025 1384 1454 906 
Q 1884 428 2741 428 
Q 3075 428 3337 486 
Q 3600 544 3809 666 
z
" transform="scale(0.015625)"/>
       <path id="DejaVuSans-65" d="M 3597 1894 
L 3597 1613 
L 953 1613 
Q 991 1019 1311 708 
Q 1631 397 2203 397 
Q 2534 397 2845 478 
Q 3156 559 3463 722 
L 3463 178 
Q 3153 47 2828 -22 
Q 2503 -91 2169 -91 
Q 1331 -91 842 396 
Q 353 884 353 1716 
Q 353 2575 817 3079 
Q 1281 3584 2069 3584 
Q 2775 3584 3186 3129 
Q 3597 2675 3597 1894 
z
M 3022 2063 
Q 3016 2534 2758 2815 
Q 2500 3097 2075 3097 
Q 1594 3097 1305 2825 
Q 1016 2553 972 2059 
L 3022 2063 
z
" transform="scale(0.015625)"/>
       <path id="DejaVuSans-6e" d="M 3513 2113 
L 3513 0 
L 2938 0 
L 2938 2094 
Q 2938 2591 2744 2837 
Q 2550 3084 2163 3084 
Q 1697 3084 1428 2787 
Q 1159 2491 1159 1978 
L 1159 0 
L 581 0 
L 581 3500 
L 1159 3500 
L 1159 2956 
Q 1366 3272 1645 3428 
Q 1925 3584 2291 3584 
Q 2894 3584 3203 3211 
Q 3513 2838 3513 2113 
z
" transform="scale(0.015625)"/>
       <path id="DejaVuSans-72" d="M 2631 2963 
Q 2534 3019 2420 3045 
Q 2306 3072 2169 3072 
Q 1681 3072 1420 2755 
Q 1159 2438 1159 1844 
L 1159 0 
L 581 0 
L 581 3500 
L 1159 3500 
L 1159 2956 
Q 1341 3275 1631 3429 
Q 1922 3584 2338 3584 
Q 2397 3584 2469 3576 
Q 2541 3569 2628 3553 
L 2631 2963 
z
" transform="scale(0.015625)"/>
       <path id="DejaVuSans-61" d="M 2194 1759 
Q 1497 1759 1228 1600 
Q 959 1441 959 1056 
Q 959 750 1161 570 
Q 1363 391 1709 391 
Q 2188 391 2477 730 
Q 2766 1069 2766 1631 
L 2766 1759 
L 2194 1759 
z
M 3341 1997 
L 3341 0 
L 2766 0 
L 2766 531 
Q 2569 213 2275 61 
Q 1981 -91 1556 -91 
Q 1019 -91 701 211 
Q 384 513 384 1019 
Q 384 1609 779 1909 
Q 1175 2209 1959 2209 
L 2766 2209 
L 2766 2266 
Q 2766 2663 2505 2880 
Q 2244 3097 1772 3097 
Q 1472 3097 1187 3025 
Q 903 2953 641 2809 
L 641 3341 
Q 956 3463 1253 3523 
Q 1550 3584 1831 3584 
Q 2591 3584 2966 3190 
Q 3341 2797 3341 1997 
z
" transform="scale(0.015625)"/>
       <path id="DejaVuSans-74" d="M 1172 4494 
L 1172 3500 
L 2356 3500 
L 2356 3053 
L 1172 3053 
L 1172 1153 
Q 1172 725 1289 603 
Q 1406 481 1766 481 
L 2356 481 
L 2356 0 
L 1766 0 
Q 1100 0 847 248 
Q 594 497 594 1153 
L 594 3053 
L 172 3053 
L 172 3500 
L 594 3500 
L 594 4494 
L 1172 4494 
z
" transform="scale(0.015625)"/>
       <path id="DejaVuSans-64" d="M 2906 2969 
L 2906 4863 
L 3481 4863 
L 3481 0 
L 2906 0 
L 2906 525 
Q 2725 213 2448 61 
Q 2172 -91 1784 -91 
Q 1150 -91 751 415 
Q 353 922 353 1747 
Q 353 2572 751 3078 
Q 1150 3584 1784 3584 
Q 2172 3584 2448 3432 
Q 2725 3281 2906 2969 
z
M 947 1747 
Q 947 1113 1208 752 
Q 1469 391 1925 391 
Q 2381 391 2643 752 
Q 2906 1113 2906 1747 
Q 2906 2381 2643 2742 
Q 2381 3103 1925 3103 
Q 1469 3103 1208 2742 
Q 947 2381 947 1747 
z
" transform="scale(0.015625)"/>
       <path id="DejaVuSans-20" transform="scale(0.015625)"/>
       <path id="DejaVuSans-38" d="M 2034 2216 
Q 1584 2216 1326 1975 
Q 1069 1734 1069 1313 
Q 1069 891 1326 650 
Q 1584 409 2034 409 
Q 2484 409 2743 651 
Q 3003 894 3003 1313 
Q 3003 1734 2745 1975 
Q 2488 2216 2034 2216 
z
M 1403 2484 
Q 997 2584 770 2862 
Q 544 3141 544 3541 
Q 544 4100 942 4425 
Q 1341 4750 2034 4750 
Q 2731 4750 3128 4425 
Q 3525 4100 3525 3541 
Q 3525 3141 3298 2862 
Q 3072 2584 2669 2484 
Q 3125 2378 3379 2068 
Q 3634 1759 3634 1313 
Q 3634 634 3220 271 
Q 2806 -91 2034 -91 
Q 1263 -91 848 271 
Q 434 634 434 1313 
Q 434 1759 690 2068 
Q 947 2378 1403 2484 
z
M 1172 3481 
Q 1172 3119 1398 2916 
Q 1625 2713 2034 2713 
Q 2441 2713 2670 2916 
Q 2900 3119 2900 3481 
Q 2900 3844 2670 4047 
Q 2441 4250 2034 4250 
Q 1625 4250 1398 4047 
Q 1172 3844 1172 3481 
z
" transform="scale(0.015625)"/>
       <path id="DejaVuSans-2d" d="M 313 2009 
L 1997 2009 
L 1997 1497 
L 313 1497 
L 313 2009 
z
" transform="scale(0.015625)"/>
       <path id="DejaVuSans-62" d="M 3116 1747 
Q 3116 2381 2855 2742 
Q 2594 3103 2138 3103 
Q 1681 3103 1420 2742 
Q 1159 2381 1159 1747 
Q 1159 1113 1420 752 
Q 1681 391 2138 391 
Q 2594 391 2855 752 
Q 3116 1113 3116 1747 
z
M 1159 2969 
Q 1341 3281 1617 3432 
Q 1894 3584 2278 3584 
Q 2916 3584 3314 3078 
Q 3713 2572 3713 1747 
Q 3713 922 3314 415 
Q 2916 -91 2278 -91 
Q 1894 -91 1617 61 
Q 1341 213 1159 525 
L 1159 0 
L 581 0 
L 581 4863 
L 1159 4863 
L 1159 2969 
z
" transform="scale(0.015625)"/>
       <path id="DejaVuSans-69" d="M 603 3500 
L 1178 3500 
L 1178 0 
L 603 0 
L 603 3500 
z
M 603 4863 
L 1178 4863 
L 1178 4134 
L 603 4134 
L 603 4863 
z
" transform="scale(0.015625)"/>
       <path id="DejaVuSans-4e" d="M 628 4666 
L 1478 4666 
L 3547 763 
L 3547 4666 
L 4159 4666 
L 4159 0 
L 3309 0 
L 1241 3903 
L 1241 0 
L 628 0 
L 628 4666 
z
" transform="scale(0.015625)"/>
       <path id="DejaVuSans-75" d="M 544 1381 
L 544 3500 
L 1119 3500 
L 1119 1403 
Q 1119 906 1312 657 
Q 1506 409 1894 409 
Q 2359 409 2629 706 
Q 2900 1003 2900 1516 
L 2900 3500 
L 3475 3500 
L 3475 0 
L 2900 0 
L 2900 538 
Q 2691 219 2414 64 
Q 2138 -91 1772 -91 
Q 1169 -91 856 284 
Q 544 659 544 1381 
z
M 1991 3584 
L 1991 3584 
z
" transform="scale(0.015625)"/>
       <path id="DejaVuSans-6d" d="M 3328 2828 
Q 3544 3216 3844 3400 
Q 4144 3584 4550 3584 
Q 5097 3584 5394 3201 
Q 5691 2819 5691 2113 
L 5691 0 
L 5113 0 
L 5113 2094 
Q 5113 2597 4934 2840 
Q 4756 3084 4391 3084 
Q 3944 3084 3684 2787 
Q 3425 2491 3425 1978 
L 3425 0 
L 2847 0 
L 2847 2094 
Q 2847 2600 2669 2842 
Q 2491 3084 2119 3084 
Q 1678 3084 1418 2786 
Q 1159 2488 1159 1978 
L 1159 0 
L 581 0 
L 581 3500 
L 1159 3500 
L 1159 2956 
Q 1356 3278 1631 3431 
Q 1906 3584 2284 3584 
Q 2666 3584 2933 3390 
Q 3200 3197 3328 2828 
z
" transform="scale(0.015625)"/>
      </defs>
      <use xlink:href="#DejaVuSans-47"/>
      <use xlink:href="#DejaVuSans-65" x="77.490234"/>
      <use xlink:href="#DejaVuSans-6e" x="139.013672"/>
      <use xlink:href="#DejaVuSans-65" x="202.392578"/>
      <use xlink:href="#DejaVuSans-72" x="263.916016"/>
      <use xlink:href="#DejaVuSans-61" x="305.029297"/>
      <use xlink:href="#DejaVuSans-74" x="366.308594"/>
      <use xlink:href="#DejaVuSans-65" x="405.517578"/>
      <use xlink:href="#DejaVuSans-64" x="467.041016"/>
      <use xlink:href="#DejaVuSans-20" x="530.517578"/>
      <use xlink:href="#DejaVuSans-38" x="562.304688"/>
      <use xlink:href="#DejaVuSans-2d" x="625.927734"/>
      <use xlink:href="#DejaVuSans-62" x="662.011719"/>
      <use xlink:href="#DejaVuSans-69" x="725.488281"/>
      <use xlink:href="#DejaVuSans-74" x="753.271484"/>
      <use xlink:href="#DejaVuSans-20" x="792.480469"/>
      <use xlink:href="#DejaVuSans-4e" x="824.267578"/>
      <use xlink:href="#DejaVuSans-75" x="899.072266"/>
      <use xlink:href="#DejaVuSans-6d" x="962.451172"/>
      <use xlink:href="#DejaVuSans-62" x="1059.863281"/>
      <use xlink:href="#DejaVuSans-65" x="1123.339844"/>
      <use xlink:href="#DejaVuSans-72" x="1184.863281"/>
     </g>
    </g>
   </g>
   <g id="matplotlib.axis_2">
    <g id="ytick_1">
     <g id="line2d_7">
      <defs>
       <path id="m6f72feb63d" d="M 0 0 
L -3.5 0 
" style="stroke: #000000; stroke-width: 0.8"/>
      </defs>
      <g>
       <use xlink:href="#m6f72feb63d" x="57.6" y="293.104552" style="stroke: #000000; stroke-width: 0.8"/>
      </g>
     </g>
     <g id="text_8">
      <!-- 0.002 -->
      <g transform="translate(21.971875 296.90377) scale(0.1 -0.1)">
       <defs>
        <path id="DejaVuSans-2e" d="M 684 794 
L 1344 794 
L 1344 0 
L 684 0 
L 684 794 
z
" transform="scale(0.015625)"/>
       </defs>
       <use xlink:href="#DejaVuSans-30"/>
       <use xlink:href="#DejaVuSans-2e" x="63.623047"/>
       <use xlink:href="#DejaVuSans-30" x="95.410156"/>
       <use xlink:href="#DejaVuSans-30" x="159.033203"/>
       <use xlink:href="#DejaVuSans-32" x="222.65625"/>
      </g>
     </g>
    </g>
    <g id="ytick_2">
     <g id="line2d_8">
      <g>
       <use xlink:href="#m6f72feb63d" x="57.6" y="253.380414" style="stroke: #000000; stroke-width: 0.8"/>
      </g>
     </g>
     <g id="text_9">
      <!-- 0.003 -->
      <g transform="translate(21.971875 257.179633) scale(0.1 -0.1)">
       <defs>
        <path id="DejaVuSans-33" d="M 2597 2516 
Q 3050 2419 3304 2112 
Q 3559 1806 3559 1356 
Q 3559 666 3084 287 
Q 2609 -91 1734 -91 
Q 1441 -91 1130 -33 
Q 819 25 488 141 
L 488 750 
Q 750 597 1062 519 
Q 1375 441 1716 441 
Q 2309 441 2620 675 
Q 2931 909 2931 1356 
Q 2931 1769 2642 2001 
Q 2353 2234 1838 2234 
L 1294 2234 
L 1294 2753 
L 1863 2753 
Q 2328 2753 2575 2939 
Q 2822 3125 2822 3475 
Q 2822 3834 2567 4026 
Q 2313 4219 1838 4219 
Q 1578 4219 1281 4162 
Q 984 4106 628 3988 
L 628 4550 
Q 988 4650 1302 4700 
Q 1616 4750 1894 4750 
Q 2613 4750 3031 4423 
Q 3450 4097 3450 3541 
Q 3450 3153 3228 2886 
Q 3006 2619 2597 2516 
z
" transform="scale(0.015625)"/>
       </defs>
       <use xlink:href="#DejaVuSans-30"/>
       <use xlink:href="#DejaVuSans-2e" x="63.623047"/>
       <use xlink:href="#DejaVuSans-30" x="95.410156"/>
       <use xlink:href="#DejaVuSans-30" x="159.033203"/>
       <use xlink:href="#DejaVuSans-33" x="222.65625"/>
      </g>
     </g>
    </g>
    <g id="ytick_3">
     <g id="line2d_9">
      <g>
       <use xlink:href="#m6f72feb63d" x="57.6" y="213.656276" style="stroke: #000000; stroke-width: 0.8"/>
      </g>
     </g>
     <g id="text_10">
      <!-- 0.004 -->
      <g transform="translate(21.971875 217.455495) scale(0.1 -0.1)">
       <defs>
        <path id="DejaVuSans-34" d="M 2419 4116 
L 825 1625 
L 2419 1625 
L 2419 4116 
z
M 2253 4666 
L 3047 4666 
L 3047 1625 
L 3713 1625 
L 3713 1100 
L 3047 1100 
L 3047 0 
L 2419 0 
L 2419 1100 
L 313 1100 
L 313 1709 
L 2253 4666 
z
" transform="scale(0.015625)"/>
       </defs>
       <use xlink:href="#DejaVuSans-30"/>
       <use xlink:href="#DejaVuSans-2e" x="63.623047"/>
       <use xlink:href="#DejaVuSans-30" x="95.410156"/>
       <use xlink:href="#DejaVuSans-30" x="159.033203"/>
       <use xlink:href="#DejaVuSans-34" x="222.65625"/>
      </g>
     </g>
    </g>
    <g id="ytick_4">
     <g id="line2d_10">
      <g>
       <use xlink:href="#m6f72feb63d" x="57.6" y="173.932138" style="stroke: #000000; stroke-width: 0.8"/>
      </g>
     </g>
     <g id="text_11">
      <!-- 0.005 -->
      <g transform="translate(21.971875 177.731357) scale(0.1 -0.1)">
       <use xlink:href="#DejaVuSans-30"/>
       <use xlink:href="#DejaVuSans-2e" x="63.623047"/>
       <use xlink:href="#DejaVuSans-30" x="95.410156"/>
       <use xlink:href="#DejaVuSans-30" x="159.033203"/>
       <use xlink:href="#DejaVuSans-35" x="222.65625"/>
      </g>
     </g>
    </g>
    <g id="ytick_5">
     <g id="line2d_11">
      <g>
       <use xlink:href="#m6f72feb63d" x="57.6" y="134.208" style="stroke: #000000; stroke-width: 0.8"/>
      </g>
     </g>
     <g id="text_12">
      <!-- 0.006 -->
      <g transform="translate(21.971875 138.007219) scale(0.1 -0.1)">
       <defs>
        <path id="DejaVuSans-36" d="M 2113 2584 
Q 1688 2584 1439 2293 
Q 1191 2003 1191 1497 
Q 1191 994 1439 701 
Q 1688 409 2113 409 
Q 2538 409 2786 701 
Q 3034 994 3034 1497 
Q 3034 2003 2786 2293 
Q 2538 2584 2113 2584 
z
M 3366 4563 
L 3366 3988 
Q 3128 4100 2886 4159 
Q 2644 4219 2406 4219 
Q 1781 4219 1451 3797 
Q 1122 3375 1075 2522 
Q 1259 2794 1537 2939 
Q 1816 3084 2150 3084 
Q 2853 3084 3261 2657 
Q 3669 2231 3669 1497 
Q 3669 778 3244 343 
Q 2819 -91 2113 -91 
Q 1303 -91 875 529 
Q 447 1150 447 2328 
Q 447 3434 972 4092 
Q 1497 4750 2381 4750 
Q 2619 4750 2861 4703 
Q 3103 4656 3366 4563 
z
" transform="scale(0.015625)"/>
       </defs>
       <use xlink:href="#DejaVuSans-30"/>
       <use xlink:href="#DejaVuSans-2e" x="63.623047"/>
       <use xlink:href="#DejaVuSans-30" x="95.410156"/>
       <use xlink:href="#DejaVuSans-30" x="159.033203"/>
       <use xlink:href="#DejaVuSans-36" x="222.65625"/>
      </g>
     </g>
    </g>
    <g id="ytick_6">
     <g id="line2d_12">
      <g>
       <use xlink:href="#m6f72feb63d" x="57.6" y="94.483862" style="stroke: #000000; stroke-width: 0.8"/>
      </g>
     </g>
     <g id="text_13">
      <!-- 0.007 -->
      <g transform="translate(21.971875 98.283081) scale(0.1 -0.1)">
       <defs>
        <path id="DejaVuSans-37" d="M 525 4666 
L 3525 4666 
L 3525 4397 
L 1831 0 
L 1172 0 
L 2766 4134 
L 525 4134 
L 525 4666 
z
" transform="scale(0.015625)"/>
       </defs>
       <use xlink:href="#DejaVuSans-30"/>
       <use xlink:href="#DejaVuSans-2e" x="63.623047"/>
       <use xlink:href="#DejaVuSans-30" x="95.410156"/>
       <use xlink:href="#DejaVuSans-30" x="159.033203"/>
       <use xlink:href="#DejaVuSans-37" x="222.65625"/>
      </g>
     </g>
    </g>
    <g id="ytick_7">
     <g id="line2d_13">
      <g>
       <use xlink:href="#m6f72feb63d" x="57.6" y="54.759724" style="stroke: #000000; stroke-width: 0.8"/>
      </g>
     </g>
     <g id="text_14">
      <!-- 0.008 -->
      <g transform="translate(21.971875 58.558943) scale(0.1 -0.1)">
       <use xlink:href="#DejaVuSans-30"/>
       <use xlink:href="#DejaVuSans-2e" x="63.623047"/>
       <use xlink:href="#DejaVuSans-30" x="95.410156"/>
       <use xlink:href="#DejaVuSans-30" x="159.033203"/>
       <use xlink:href="#DejaVuSans-38" x="222.65625"/>
      </g>
     </g>
    </g>
    <g id="text_15">
     <!-- p -->
     <g transform="translate(15.892188 177.702219) rotate(-90) scale(0.1 -0.1)">
      <defs>
       <path id="DejaVuSans-70" d="M 1159 525 
L 1159 -1331 
L 581 -1331 
L 581 3500 
L 1159 3500 
L 1159 2969 
Q 1341 3281 1617 3432 
Q 1894 3584 2278 3584 
Q 2916 3584 3314 3078 
Q 3713 2572 3713 1747 
Q 3713 922 3314 415 
Q 2916 -91 2278 -91 
Q 1894 -91 1617 61 
Q 1341 213 1159 525 
z
M 3116 1747 
Q 3116 2381 2855 2742 
Q 2594 3103 2138 3103 
Q 1681 3103 1420 2742 
Q 1159 2381 1159 1747 
Q 1159 1113 1420 752 
Q 1681 391 2138 391 
Q 2594 391 2855 752 
Q 3116 1113 3116 1747 
z
" transform="scale(0.015625)"/>
      </defs>
      <use xlink:href="#DejaVuSans-70"/>
     </g>
    </g>
   </g>
   <g id="line2d_14">
    <path d="M 57.6 245.832828 
L 59.000471 225.970759 
L 60.400941 218.423172 
L 61.801412 229.14869 
L 63.201882 233.915586 
L 64.602353 226.765241 
L 66.002824 230.737655 
L 67.403294 222.395586 
L 68.803765 226.765241 
L 70.204235 224.779034 
L 71.604706 227.956966 
L 73.005176 207.300414 
L 74.405647 235.504552 
L 75.806118 216.039724 
L 77.206588 212.464552 
L 78.607059 209.286621 
L 80.007529 225.970759 
L 81.408 220.012138 
L 82.808471 233.121103 
L 84.208941 231.134897 
L 85.609412 225.176276 
L 87.009882 225.573517 
L 88.410353 212.861793 
L 89.810824 231.532138 
L 91.211294 230.737655 
L 92.611765 221.601103 
L 95.412706 224.779034 
L 96.813176 218.423172 
L 98.213647 208.889379 
L 99.614118 209.286621 
L 101.014588 204.916966 
L 102.415059 224.381793 
L 103.815529 231.929379 
L 105.216 232.326621 
L 106.616471 220.806621 
L 108.016941 216.834207 
L 109.417412 220.409379 
L 110.817882 221.998345 
L 112.218353 216.039724 
L 113.618824 228.354207 
L 115.019294 216.834207 
L 116.419765 227.162483 
L 117.820235 218.820414 
L 119.220706 224.779034 
L 120.621176 218.025931 
L 122.021647 214.848 
L 123.422118 208.889379 
L 124.822588 233.518345 
L 126.223059 216.436966 
L 127.623529 232.723862 
L 129.024 218.025931 
L 130.424471 220.409379 
L 131.824941 225.176276 
L 133.225412 221.601103 
L 134.625882 215.245241 
L 136.026353 222.395586 
L 137.426824 205.711448 
L 138.827294 220.409379 
L 140.227765 194.191448 
L 141.628235 221.998345 
L 143.028706 214.053517 
L 144.429176 214.450759 
L 145.829647 204.519724 
L 147.230118 233.518345 
L 148.630588 219.614897 
L 151.431529 224.381793 
L 152.832 221.998345 
L 154.232471 215.642483 
L 155.632941 215.245241 
L 157.033412 223.984552 
L 158.433882 222.792828 
L 159.834353 233.915586 
L 161.234824 224.779034 
L 162.635294 214.450759 
L 164.035765 215.245241 
L 165.436235 230.737655 
L 166.836706 225.970759 
L 168.237176 199.355586 
L 169.637647 220.012138 
L 171.038118 227.162483 
L 172.438588 225.970759 
L 173.839059 199.355586 
L 175.239529 223.190069 
L 176.64 202.930759 
L 178.040471 218.423172 
L 179.440941 218.423172 
L 180.841412 227.559724 
L 182.241882 218.820414 
L 183.642353 220.409379 
L 185.042824 212.464552 
L 186.443294 212.464552 
L 187.843765 212.861793 
L 189.244235 211.670069 
L 190.644706 205.314207 
L 192.045176 223.984552 
L 193.445647 222.395586 
L 194.846118 213.259034 
L 196.246588 225.573517 
L 197.647059 221.601103 
L 199.047529 210.081103 
L 200.448 205.314207 
L 201.848471 218.423172 
L 203.248941 223.190069 
L 204.649412 218.820414 
L 206.049882 213.656276 
L 207.450353 211.670069 
L 208.850824 218.423172 
L 210.251294 207.300414 
L 211.651765 211.272828 
L 213.052235 199.752828 
L 214.452706 231.532138 
L 215.853176 216.039724 
L 217.253647 215.642483 
L 218.654118 212.06731 
L 220.054588 220.012138 
L 221.455059 206.903172 
L 222.855529 224.381793 
L 224.256 214.848 
L 227.056941 221.998345 
L 228.457412 197.369379 
L 229.857882 220.012138 
L 231.258353 195.780414 
L 232.658824 217.231448 
L 234.059294 218.025931 
L 235.459765 207.300414 
L 236.860235 241.065931 
L 238.260706 221.998345 
L 239.661176 227.162483 
L 241.061647 211.670069 
L 242.462118 220.806621 
L 243.862588 233.915586 
L 245.263059 234.312828 
L 246.663529 214.053517 
L 248.064 228.751448 
L 249.464471 224.381793 
L 250.864941 214.053517 
L 252.265412 210.081103 
L 253.665882 227.559724 
L 255.066353 209.286621 
L 256.466824 223.984552 
L 257.867294 219.614897 
L 259.267765 225.176276 
L 260.668235 217.231448 
L 262.068706 226.368 
L 263.469176 213.656276 
L 264.869647 228.751448 
L 266.270118 213.656276 
L 267.670588 215.642483 
L 269.071059 226.765241 
L 270.471529 208.492138 
L 271.872 207.697655 
L 273.272471 213.656276 
L 274.672941 208.492138 
L 276.073412 238.285241 
L 277.473882 207.300414 
L 278.874353 199.752828 
L 280.274824 209.286621 
L 281.675294 227.559724 
L 283.075765 233.915586 
L 284.476235 223.58731 
L 285.876706 214.450759 
L 287.277176 226.368 
L 288.677647 206.10869 
L 290.078118 210.875586 
L 291.478588 199.355586 
L 292.879059 224.779034 
L 294.279529 216.039724 
L 295.68 215.245241 
L 297.080471 230.737655 
L 298.480941 209.286621 
L 299.881412 212.464552 
L 301.281882 205.711448 
L 302.682353 205.314207 
L 304.082824 226.765241 
L 305.483294 227.162483 
L 306.883765 216.834207 
L 308.284235 214.053517 
L 309.684706 230.737655 
L 311.085176 212.06731 
L 312.485647 217.62869 
L 313.886118 215.245241 
L 315.286588 218.025931 
L 316.687059 223.984552 
L 318.087529 219.614897 
L 319.488 214.848 
L 320.888471 206.505931 
L 322.288941 217.62869 
L 323.689412 209.683862 
L 325.089882 200.150069 
L 326.490353 232.326621 
L 327.890824 221.203862 
L 329.291294 228.354207 
L 330.691765 224.381793 
L 332.092235 209.683862 
L 333.492706 216.039724 
L 334.893176 220.806621 
L 336.293647 208.492138 
L 337.694118 219.614897 
L 339.094588 212.06731 
L 340.495059 223.984552 
L 341.895529 207.697655 
L 343.296 226.765241 
L 344.696471 223.984552 
L 346.096941 214.450759 
L 347.497412 212.464552 
L 348.897882 213.656276 
L 350.298353 212.06731 
L 351.698824 218.025931 
L 353.099294 214.450759 
L 354.499765 217.62869 
L 355.900235 203.725241 
L 357.300706 206.10869 
L 358.701176 215.642483 
L 360.101647 214.848 
L 361.502118 227.162483 
L 362.902588 210.478345 
L 364.303059 210.875586 
L 365.703529 201.341793 
L 367.104 202.533517 
L 368.504471 209.286621 
L 369.904941 204.519724 
L 371.305412 199.355586 
L 372.705882 219.614897 
L 374.106353 202.930759 
L 375.506824 220.012138 
L 376.907294 220.012138 
L 378.307765 219.614897 
L 379.708235 221.601103 
L 381.108706 223.984552 
L 382.509176 212.464552 
L 383.909647 210.478345 
L 385.310118 214.450759 
L 386.710588 210.081103 
L 388.111059 214.450759 
L 389.511529 199.355586 
L 390.912 220.012138 
L 392.312471 200.150069 
L 393.712941 219.217655 
L 395.113412 208.492138 
L 396.513882 209.286621 
L 397.914353 195.383172 
L 399.314824 216.436966 
L 400.715294 211.272828 
L 402.115765 220.806621 
L 403.516235 216.834207 
L 404.916706 215.642483 
L 406.317176 221.203862 
L 407.717647 187.835586 
L 409.118118 215.642483 
L 410.518588 207.300414 
L 411.919059 204.519724 
L 413.319529 205.711448 
L 414.72 198.163862 
L 414.72 198.163862 
" clip-path="url(#p4d103573d9)" style="fill: none; stroke: #1f77b4; stroke-opacity: 0.5; stroke-width: 1.5; stroke-linecap: square"/>
   </g>
   <g id="line2d_15">
    <path d="M 57.6 96.86731 
L 59.000471 135.399724 
L 60.400941 145.330759 
L 61.801412 162.809379 
L 63.201882 152.481103 
L 64.602353 172.343172 
L 66.002824 176.315586 
L 67.403294 186.643862 
L 68.803765 140.961103 
L 70.204235 165.98731 
L 71.604706 175.521103 
L 73.005176 197.369379 
L 74.405647 177.110069 
L 75.806118 194.58869 
L 77.206588 189.424552 
L 78.607059 214.450759 
L 80.007529 120.304552 
L 81.408 168.370759 
L 82.808471 148.111448 
L 84.208941 191.808 
L 85.609412 179.493517 
L 87.009882 185.452138 
L 88.410353 197.369379 
L 89.810824 231.134897 
L 91.211294 169.165241 
L 92.611765 185.849379 
L 94.012235 199.752828 
L 95.412706 220.806621 
L 96.813176 189.821793 
L 98.213647 223.190069 
L 99.614118 233.915586 
L 101.014588 237.490759 
L 102.415059 134.605241 
L 103.815529 167.576276 
L 105.216 174.726621 
L 106.616471 196.574897 
L 108.016941 176.712828 
L 109.417412 201.739034 
L 110.817882 205.711448 
L 112.218353 210.478345 
L 113.618824 161.617655 
L 115.019294 203.328 
L 116.419765 197.369379 
L 117.820235 211.272828 
L 119.220706 204.519724 
L 120.621176 218.423172 
L 122.021647 236.696276 
L 123.422118 249.805241 
L 124.822588 175.123862 
L 126.223059 195.780414 
L 127.623529 201.739034 
L 129.024 224.381793 
L 130.424471 218.025931 
L 131.824941 209.286621 
L 133.225412 221.998345 
L 134.625882 247.024552 
L 136.026353 185.452138 
L 137.426824 231.929379 
L 138.827294 230.340414 
L 140.227765 233.518345 
L 141.628235 226.368 
L 143.028706 232.326621 
L 144.429176 235.901793 
L 145.829647 260.530759 
L 147.230118 140.563862 
L 148.630588 164.795586 
L 150.031059 172.343172 
L 151.431529 208.094897 
L 152.832 166.384552 
L 154.232471 197.369379 
L 155.632941 198.958345 
L 157.033412 224.381793 
L 158.433882 167.973517 
L 159.834353 212.464552 
L 161.234824 187.438345 
L 162.635294 224.779034 
L 164.035765 193.794207 
L 165.436235 213.656276 
L 168.237176 239.079724 
L 169.637647 168.768 
L 171.038118 200.944552 
L 172.438588 188.232828 
L 173.839059 226.765241 
L 175.239529 197.369379 
L 176.64 223.984552 
L 178.040471 223.984552 
L 179.440941 233.518345 
L 180.841412 185.849379 
L 182.241882 214.848 
L 183.642353 221.601103 
L 185.042824 241.065931 
L 186.443294 220.806621 
L 187.843765 231.929379 
L 189.244235 244.243862 
L 190.644706 259.736276 
L 192.045176 155.261793 
L 193.445647 191.808 
L 194.846118 190.616276 
L 196.246588 225.176276 
L 197.647059 177.110069 
L 199.047529 235.10731 
L 200.448 214.450759 
L 201.848471 245.832828 
L 203.248941 192.602483 
L 204.649412 213.656276 
L 206.049882 211.272828 
L 207.450353 247.421793 
L 208.850824 204.916966 
L 210.251294 234.312828 
L 211.651765 232.723862 
L 213.052235 251.791448 
L 214.452706 206.505931 
L 215.853176 222.395586 
L 217.253647 216.834207 
L 218.654118 239.874207 
L 220.054588 218.820414 
L 221.455059 246.62731 
L 222.855529 250.202483 
L 224.256 255.763862 
L 225.656471 224.381793 
L 227.056941 233.121103 
L 228.457412 239.079724 
L 229.857882 251.394207 
L 231.258353 256.955586 
L 232.658824 253.380414 
L 234.059294 257.352828 
L 235.459765 276.023172 
L 236.860235 127.454897 
L 238.260706 179.890759 
L 239.661176 171.54869 
L 241.061647 210.875586 
L 242.462118 173.932138 
L 243.862588 199.355586 
L 245.263059 192.205241 
L 246.663529 220.806621 
L 248.064 178.301793 
L 249.464471 191.410759 
L 250.864941 191.808 
L 252.265412 229.545931 
L 253.665882 197.369379 
L 255.066353 218.820414 
L 256.466824 211.670069 
L 257.867294 232.723862 
L 259.267765 168.768 
L 260.668235 189.821793 
L 262.068706 194.985931 
L 263.469176 226.368 
L 264.869647 205.314207 
L 266.270118 225.573517 
L 267.670588 216.436966 
L 269.071059 250.996966 
L 270.471529 194.58869 
L 271.872 218.025931 
L 273.272471 213.656276 
L 274.672941 236.696276 
L 276.073412 222.395586 
L 277.473882 245.832828 
L 278.874353 242.257655 
L 280.274824 256.161103 
L 281.675294 170.356966 
L 283.075765 200.54731 
L 284.476235 201.739034 
L 285.876706 233.518345 
L 287.277176 208.094897 
L 288.677647 222.395586 
L 290.078118 220.012138 
L 291.478588 242.654897 
L 292.879059 188.232828 
L 294.279529 224.779034 
L 297.080471 231.929379 
L 298.480941 219.614897 
L 299.881412 237.888 
L 301.281882 232.723862 
L 302.682353 256.955586 
L 304.082824 194.985931 
L 305.483294 227.956966 
L 306.883765 218.820414 
L 308.284235 244.641103 
L 309.684706 212.861793 
L 311.085176 238.285241 
L 312.485647 248.216276 
L 313.886118 265.694897 
L 315.286588 226.765241 
L 316.687059 233.915586 
L 318.087529 244.243862 
L 319.488 250.599724 
L 320.888471 223.58731 
L 322.288941 261.722483 
L 323.689412 245.435586 
L 325.089882 282.776276 
L 326.490353 165.590069 
L 327.890824 206.10869 
L 329.291294 202.533517 
L 330.691765 221.998345 
L 332.092235 188.232828 
L 333.492706 214.848 
L 334.893176 210.875586 
L 336.293647 254.969379 
L 337.694118 187.835586 
L 339.094588 233.915586 
L 340.495059 220.806621 
L 341.895529 252.983172 
L 343.296 226.765241 
L 344.696471 239.079724 
L 346.096941 244.243862 
L 347.497412 257.352828 
L 348.897882 187.438345 
L 350.298353 222.395586 
L 351.698824 227.559724 
L 353.099294 242.257655 
L 354.499765 212.861793 
L 355.900235 239.476966 
L 357.300706 243.449379 
L 358.701176 252.585931 
L 360.101647 213.656276 
L 361.502118 239.476966 
L 362.902588 235.10731 
L 364.303059 259.339034 
L 365.703529 245.832828 
L 367.104 246.62731 
L 368.504471 264.105931 
L 369.904941 272.448 
L 371.305412 200.54731 
L 372.705882 212.06731 
L 374.106353 231.532138 
L 375.506824 249.010759 
L 376.907294 213.259034 
L 378.307765 245.832828 
L 379.708235 249.010759 
L 381.108706 251.394207 
L 382.509176 229.943172 
L 383.909647 239.874207 
L 385.310118 241.860414 
L 386.710588 259.736276 
L 388.111059 243.846621 
L 389.511529 257.750069 
L 390.912 265.297655 
L 392.312471 275.22869 
L 393.712941 240.271448 
L 395.113412 227.559724 
L 396.513882 237.490759 
L 397.914353 264.105931 
L 399.314824 233.121103 
L 400.715294 258.544552 
L 402.115765 249.805241 
L 403.516235 267.283862 
L 404.916706 245.832828 
L 406.317176 254.174897 
L 407.717647 278.803862 
L 409.118118 271.256276 
L 410.518588 255.763862 
L 411.919059 280.790069 
L 413.319529 274.434207 
L 414.72 293.501793 
L 414.72 293.501793 
" clip-path="url(#p4d103573d9)" style="fill: none; stroke: #ff7f0e; stroke-opacity: 0.6; stroke-width: 1.5; stroke-linecap: square"/>
   </g>
   <g id="line2d_16">
    <path d="M 57.6 208.492138 
L 60.400941 225.573517 
L 61.801412 211.670069 
L 63.201882 215.245241 
L 64.602353 211.670069 
L 66.002824 218.423172 
L 67.403294 227.162483 
L 68.803765 216.436966 
L 70.204235 219.614897 
L 71.604706 224.779034 
L 73.005176 230.737655 
L 74.405647 202.533517 
L 75.806118 206.10869 
L 77.206588 219.217655 
L 78.607059 217.62869 
L 80.007529 218.423172 
L 81.408 225.573517 
L 82.808471 217.231448 
L 84.208941 216.834207 
L 85.609412 215.245241 
L 87.009882 221.998345 
L 88.410353 207.300414 
L 89.810824 216.436966 
L 91.211294 208.889379 
L 92.611765 214.053517 
L 94.012235 205.314207 
L 95.412706 221.203862 
L 96.813176 216.436966 
L 98.213647 224.381793 
L 99.614118 223.190069 
L 101.014588 213.259034 
L 102.415059 207.300414 
L 103.815529 214.450759 
L 105.216 206.903172 
L 106.616471 229.943172 
L 108.016941 229.14869 
L 109.417412 224.381793 
L 110.817882 216.834207 
L 112.218353 218.025931 
L 113.618824 214.053517 
L 115.019294 225.573517 
L 116.419765 206.903172 
L 117.820235 221.203862 
L 119.220706 219.217655 
L 120.621176 221.203862 
L 122.021647 206.903172 
L 123.422118 234.710069 
L 124.822588 208.889379 
L 126.223059 217.231448 
L 127.623529 214.053517 
L 129.024 219.217655 
L 130.424471 214.053517 
L 131.824941 233.121103 
L 133.225412 212.464552 
L 134.625882 221.601103 
L 136.026353 210.478345 
L 137.426824 209.683862 
L 138.827294 226.765241 
L 140.227765 235.504552 
L 141.628235 213.656276 
L 143.028706 207.300414 
L 144.429176 216.436966 
L 145.829647 213.656276 
L 147.230118 208.889379 
L 148.630588 230.737655 
L 150.031059 210.478345 
L 151.431529 196.972138 
L 152.832 212.464552 
L 154.232471 212.06731 
L 155.632941 221.998345 
L 157.033412 216.834207 
L 158.433882 222.792828 
L 159.834353 218.025931 
L 161.234824 221.203862 
L 162.635294 211.272828 
L 164.035765 214.053517 
L 165.436235 222.395586 
L 166.836706 212.861793 
L 168.237176 223.190069 
L 169.637647 210.875586 
L 171.038118 206.10869 
L 172.438588 208.889379 
L 173.839059 201.739034 
L 175.239529 209.683862 
L 176.64 205.711448 
L 178.040471 204.519724 
L 179.440941 225.176276 
L 180.841412 208.889379 
L 182.241882 208.889379 
L 183.642353 221.203862 
L 185.042824 214.450759 
L 186.443294 222.395586 
L 187.843765 241.463172 
L 189.244235 219.614897 
L 190.644706 211.670069 
L 192.045176 218.025931 
L 193.445647 218.820414 
L 194.846118 231.929379 
L 196.246588 215.245241 
L 197.647059 212.06731 
L 199.047529 221.601103 
L 200.448 224.779034 
L 201.848471 199.752828 
L 203.248941 220.409379 
L 204.649412 221.601103 
L 206.049882 209.286621 
L 207.450353 226.765241 
L 208.850824 216.834207 
L 210.251294 220.012138 
L 211.651765 199.752828 
L 213.052235 210.875586 
L 214.452706 216.039724 
L 215.853176 237.490759 
L 217.253647 212.06731 
L 218.654118 227.956966 
L 220.054588 217.62869 
L 221.455059 211.272828 
L 222.855529 215.245241 
L 224.256 218.820414 
L 225.656471 226.368 
L 227.056941 216.039724 
L 228.457412 214.848 
L 229.857882 216.436966 
L 231.258353 231.929379 
L 232.658824 223.190069 
L 234.059294 207.300414 
L 235.459765 228.354207 
L 236.860235 204.122483 
L 238.260706 215.642483 
L 239.661176 210.875586 
L 241.061647 213.259034 
L 242.462118 214.848 
L 243.862588 214.053517 
L 245.263059 211.670069 
L 246.663529 216.039724 
L 248.064 230.737655 
L 249.464471 214.053517 
L 250.864941 218.423172 
L 252.265412 221.601103 
L 253.665882 214.848 
L 255.066353 218.423172 
L 256.466824 208.094897 
L 257.867294 232.326621 
L 259.267765 209.683862 
L 260.668235 208.492138 
L 262.068706 202.136276 
L 263.469176 205.711448 
L 264.869647 208.492138 
L 266.270118 222.792828 
L 267.670588 208.492138 
L 269.071059 226.765241 
L 270.471529 200.150069 
L 271.872 204.122483 
L 273.272471 213.656276 
L 274.672941 211.670069 
L 276.073412 219.217655 
L 277.473882 217.62869 
L 278.874353 223.984552 
L 280.274824 216.039724 
L 281.675294 191.410759 
L 283.075765 210.875586 
L 284.476235 210.875586 
L 285.876706 239.079724 
L 287.277176 217.62869 
L 288.677647 208.094897 
L 290.078118 219.614897 
L 291.478588 221.998345 
L 292.879059 221.998345 
L 294.279529 228.751448 
L 295.68 215.245241 
L 297.080471 202.930759 
L 298.480941 218.423172 
L 299.881412 207.697655 
L 301.281882 215.642483 
L 302.682353 215.642483 
L 304.082824 210.081103 
L 305.483294 202.930759 
L 306.883765 218.025931 
L 308.284235 212.861793 
L 309.684706 220.806621 
L 311.085176 223.984552 
L 312.485647 218.820414 
L 313.886118 219.217655 
L 315.286588 216.436966 
L 316.687059 217.62869 
L 318.087529 209.683862 
L 319.488 223.984552 
L 320.888471 215.245241 
L 322.288941 218.820414 
L 323.689412 225.970759 
L 325.089882 227.956966 
L 326.490353 221.998345 
L 327.890824 211.272828 
L 329.291294 221.203862 
L 330.691765 206.505931 
L 332.092235 216.436966 
L 333.492706 214.053517 
L 334.893176 227.956966 
L 336.293647 214.848 
L 337.694118 212.06731 
L 339.094588 215.642483 
L 340.495059 220.806621 
L 341.895529 231.929379 
L 343.296 219.614897 
L 344.696471 228.751448 
L 346.096941 220.409379 
L 347.497412 213.259034 
L 348.897882 220.409379 
L 350.298353 210.875586 
L 351.698824 233.518345 
L 353.099294 215.245241 
L 354.499765 219.614897 
L 355.900235 228.751448 
L 357.300706 215.642483 
L 358.701176 208.492138 
L 360.101647 221.998345 
L 361.502118 215.245241 
L 362.902588 220.012138 
L 364.303059 200.150069 
L 365.703529 221.203862 
L 367.104 227.956966 
L 368.504471 217.231448 
L 369.904941 218.820414 
L 371.305412 225.573517 
L 372.705882 201.739034 
L 374.106353 210.875586 
L 375.506824 224.381793 
L 376.907294 222.792828 
L 378.307765 229.545931 
L 379.708235 221.203862 
L 381.108706 221.601103 
L 382.509176 218.423172 
L 383.909647 220.012138 
L 385.310118 222.792828 
L 386.710588 213.259034 
L 388.111059 218.423172 
L 389.511529 222.395586 
L 390.912 225.573517 
L 392.312471 238.682483 
L 393.712941 220.409379 
L 395.113412 231.929379 
L 396.513882 222.792828 
L 397.914353 207.300414 
L 399.314824 220.409379 
L 400.715294 214.848 
L 402.115765 224.779034 
L 403.516235 223.190069 
L 404.916706 226.765241 
L 406.317176 220.012138 
L 407.717647 228.354207 
L 409.118118 228.354207 
L 410.518588 223.190069 
L 411.919059 223.190069 
L 413.319529 215.245241 
L 414.72 227.559724 
L 414.72 227.559724 
" clip-path="url(#p4d103573d9)" style="fill: none; stroke: #2ca02c; stroke-opacity: 0.8; stroke-width: 1.5; stroke-linecap: square"/>
   </g>
   <g id="line2d_17">
    <path d="M 57.6 295.488 
L 59.000471 294.693517 
L 60.400941 291.515586 
L 61.801412 278.009379 
L 63.201882 292.310069 
L 64.602353 259.339034 
L 66.002824 279.995586 
L 67.403294 246.62731 
L 68.803765 283.173517 
L 70.204235 257.750069 
L 71.604706 276.420414 
L 73.005176 248.613517 
L 74.405647 271.653517 
L 75.806118 256.558345 
L 77.206588 247.024552 
L 78.607059 220.012138 
L 80.007529 287.940414 
L 81.408 271.653517 
L 82.808471 267.681103 
L 84.208941 251.791448 
L 85.609412 268.078345 
L 87.009882 247.421793 
L 88.410353 252.983172 
L 89.810824 235.901793 
L 91.211294 268.078345 
L 92.611765 247.421793 
L 94.012235 237.490759 
L 95.412706 240.66869 
L 96.813176 262.914207 
L 98.213647 216.436966 
L 99.614118 227.559724 
L 101.014588 194.985931 
L 102.415059 286.74869 
L 103.815529 272.845241 
L 105.216 262.516966 
L 106.616471 256.558345 
L 108.016941 277.612138 
L 109.417412 251.394207 
L 110.817882 254.174897 
L 112.218353 216.834207 
L 113.618824 265.297655 
L 115.019294 249.805241 
L 116.419765 256.558345 
L 117.820235 229.545931 
L 119.220706 245.435586 
L 120.621176 210.478345 
L 122.021647 221.203862 
L 123.422118 186.643862 
L 124.822588 276.023172 
L 126.223059 240.66869 
L 127.623529 237.888 
L 129.024 226.368 
L 130.424471 261.325241 
L 131.824941 219.217655 
L 133.225412 231.532138 
L 134.625882 194.58869 
L 136.026353 241.860414 
L 137.426824 222.792828 
L 138.827294 224.381793 
L 140.227765 181.479724 
L 141.628235 221.998345 
L 143.028706 183.863172 
L 144.429176 183.465931 
L 145.829647 165.98731 
L 147.230118 279.201103 
L 148.630588 273.242483 
L 150.031059 264.105931 
L 151.431529 250.996966 
L 152.832 270.064552 
L 154.232471 235.504552 
L 155.632941 256.558345 
L 157.033412 225.970759 
L 158.433882 278.009379 
L 159.834353 256.161103 
L 161.234824 251.394207 
L 162.635294 210.478345 
L 164.035765 242.654897 
L 165.436235 227.559724 
L 166.836706 234.710069 
L 168.237176 196.177655 
L 169.637647 260.530759 
L 171.038118 255.763862 
L 172.438588 254.174897 
L 173.839059 216.834207 
L 175.239529 261.722483 
L 176.64 220.806621 
L 178.040471 212.06731 
L 179.440941 187.041103 
L 180.841412 247.819034 
L 182.241882 231.532138 
L 183.642353 234.710069 
L 185.042824 168.768 
L 186.443294 227.559724 
L 187.843765 200.54731 
L 189.244235 183.06869 
L 190.644706 152.481103 
L 192.045176 261.325241 
L 193.445647 254.174897 
L 194.846118 240.66869 
L 196.246588 216.834207 
L 197.647059 249.805241 
L 199.047529 218.820414 
L 200.448 223.58731 
L 201.848471 196.574897 
L 203.248941 245.832828 
L 204.649412 219.614897 
L 206.049882 211.272828 
L 207.450353 195.383172 
L 208.850824 218.820414 
L 210.251294 182.671448 
L 211.651765 194.191448 
L 213.052235 144.933517 
L 214.452706 264.900414 
L 215.853176 229.545931 
L 217.253647 231.134897 
L 218.654118 186.643862 
L 220.054588 228.751448 
L 221.455059 203.328 
L 222.855529 203.328 
L 224.256 162.412138 
L 225.656471 216.039724 
L 227.056941 176.315586 
L 228.457412 192.602483 
L 229.857882 175.918345 
L 231.258353 194.985931 
L 232.658824 139.769379 
L 234.059294 155.659034 
L 235.459765 106.401103 
L 236.860235 285.159724 
L 238.260706 269.66731 
L 239.661176 277.612138 
L 241.061647 258.14731 
L 242.462118 271.653517 
L 243.862588 246.62731 
L 245.263059 249.805241 
L 246.663529 221.203862 
L 248.064 275.625931 
L 249.464471 247.024552 
L 250.864941 240.271448 
L 252.265412 223.58731 
L 253.665882 247.421793 
L 255.066353 227.559724 
L 256.466824 226.368 
L 257.867294 181.876966 
L 259.267765 268.078345 
L 260.668235 246.230069 
L 262.068706 242.654897 
L 263.469176 206.10869 
L 264.869647 263.311448 
L 266.270118 221.203862 
L 267.670588 229.14869 
L 269.071059 197.766621 
L 270.471529 241.860414 
L 271.872 212.06731 
L 273.272471 231.532138 
L 274.672941 175.521103 
L 276.073412 225.970759 
L 277.473882 184.657655 
L 278.874353 195.780414 
L 280.274824 154.070069 
L 281.675294 264.900414 
L 283.075765 245.038345 
L 284.476235 250.599724 
L 285.876706 229.14869 
L 287.277176 248.216276 
L 288.677647 233.121103 
L 290.078118 237.093517 
L 291.478588 185.452138 
L 292.879059 238.682483 
L 294.279529 213.656276 
L 295.68 222.395586 
L 297.080471 202.533517 
L 298.480941 219.614897 
L 299.881412 205.711448 
L 301.281882 218.025931 
L 302.682353 156.453517 
L 304.082824 260.530759 
L 305.483294 229.943172 
L 306.883765 221.998345 
L 308.284235 193.794207 
L 309.684706 224.779034 
L 311.085176 180.685241 
L 312.485647 176.712828 
L 313.886118 139.372138 
L 315.286588 221.203862 
L 316.687059 185.054897 
L 318.087529 198.561103 
L 319.488 124.674207 
L 320.888471 185.054897 
L 322.288941 164.001103 
L 323.689412 158.439724 
L 325.089882 116.332138 
L 326.490353 266.886621 
L 327.890824 245.038345 
L 329.291294 250.599724 
L 330.691765 215.245241 
L 332.092235 245.435586 
L 333.492706 216.039724 
L 334.893176 230.340414 
L 336.293647 204.122483 
L 337.694118 247.421793 
L 339.094588 221.203862 
L 340.495059 225.176276 
L 341.895529 190.616276 
L 343.296 231.929379 
L 344.696471 189.821793 
L 346.096941 186.643862 
L 347.497412 166.384552 
L 348.897882 249.408 
L 350.298353 225.970759 
L 351.698824 221.998345 
L 353.099294 181.479724 
L 354.499765 227.559724 
L 355.900235 188.630069 
L 357.300706 194.191448 
L 358.701176 133.810759 
L 360.101647 209.683862 
L 361.502118 184.260414 
L 362.902588 197.369379 
L 364.303059 163.206621 
L 365.703529 202.533517 
L 367.104 137.783172 
L 368.504471 141.358345 
L 369.904941 92.894897 
L 371.305412 251.791448 
L 372.705882 221.601103 
L 374.106353 214.450759 
L 375.506824 182.671448 
L 376.907294 224.381793 
L 378.307765 190.616276 
L 379.708235 204.916966 
L 381.108706 154.864552 
L 382.509176 228.751448 
L 383.909647 199.752828 
L 385.310118 197.766621 
L 386.710588 144.536276 
L 388.111059 194.985931 
L 389.511529 155.659034 
L 390.912 156.850759 
L 392.312471 113.551448 
L 393.712941 232.723862 
L 395.113412 204.519724 
L 396.513882 178.699034 
L 397.914353 144.536276 
L 399.314824 196.574897 
L 400.715294 148.111448 
L 402.115765 165.192828 
L 403.516235 114.345931 
L 404.916706 193.794207 
L 406.317176 156.850759 
L 407.717647 148.111448 
L 409.118118 101.236966 
L 410.518588 144.536276 
L 411.919059 113.154207 
L 413.319529 88.128 
L 414.72 53.568 
L 414.72 53.568 
" clip-path="url(#p4d103573d9)" style="fill: none; stroke: #d62728; stroke-opacity: 0.6; stroke-width: 1.5; stroke-linecap: square"/>
   </g>
   <g id="line2d_18">
    <path d="M 57.6 214.053517 
L 59.000471 186.643862 
L 60.400941 201.341793 
L 61.801412 214.848 
L 63.201882 221.203862 
L 64.602353 194.191448 
L 66.002824 212.861793 
L 67.403294 219.217655 
L 68.803765 204.916966 
L 70.204235 214.450759 
L 71.604706 202.533517 
L 73.005176 229.14869 
L 74.405647 201.739034 
L 75.806118 210.478345 
L 77.206588 215.245241 
L 78.607059 217.231448 
L 80.007529 201.739034 
L 81.408 216.039724 
L 82.808471 196.972138 
L 84.208941 218.025931 
L 85.609412 212.861793 
L 87.009882 216.834207 
L 88.410353 223.984552 
L 89.810824 238.285241 
L 91.211294 216.436966 
L 92.611765 216.039724 
L 94.012235 218.423172 
L 95.412706 212.06731 
L 96.813176 213.259034 
L 98.213647 211.670069 
L 99.614118 229.14869 
L 101.014588 206.505931 
L 102.415059 211.272828 
L 103.815529 215.245241 
L 105.216 190.616276 
L 106.616471 222.792828 
L 108.016941 215.245241 
L 109.417412 217.62869 
L 110.817882 208.094897 
L 112.218353 225.970759 
L 113.618824 206.505931 
L 115.019294 213.656276 
L 116.419765 215.642483 
L 117.820235 201.739034 
L 119.220706 232.723862 
L 120.621176 219.614897 
L 122.021647 220.409379 
L 123.422118 225.970759 
L 124.822588 209.683862 
L 126.223059 221.203862 
L 127.623529 214.848 
L 129.024 222.792828 
L 130.424471 206.505931 
L 131.824941 234.710069 
L 133.225412 228.354207 
L 134.625882 203.328 
L 136.026353 213.259034 
L 137.426824 207.697655 
L 138.827294 217.231448 
L 140.227765 219.217655 
L 141.628235 218.820414 
L 143.028706 228.354207 
L 144.429176 220.012138 
L 145.829647 221.998345 
L 147.230118 199.752828 
L 148.630588 214.053517 
L 150.031059 206.903172 
L 151.431529 216.039724 
L 152.832 191.013517 
L 154.232471 218.820414 
L 155.632941 220.806621 
L 157.033412 210.478345 
L 158.433882 204.916966 
L 159.834353 225.176276 
L 161.234824 208.094897 
L 162.635294 222.792828 
L 164.035765 221.203862 
L 165.436235 207.697655 
L 166.836706 224.779034 
L 168.237176 215.642483 
L 169.637647 203.725241 
L 171.038118 218.820414 
L 172.438588 202.136276 
L 173.839059 218.025931 
L 175.239529 220.409379 
L 176.64 210.478345 
L 178.040471 210.875586 
L 179.440941 213.259034 
L 180.841412 207.697655 
L 182.241882 225.573517 
L 183.642353 225.573517 
L 185.042824 222.395586 
L 186.443294 209.286621 
L 187.843765 219.614897 
L 189.244235 222.792828 
L 190.644706 227.956966 
L 192.045176 210.478345 
L 193.445647 215.245241 
L 194.846118 224.779034 
L 196.246588 217.62869 
L 197.647059 223.190069 
L 199.047529 215.642483 
L 200.448 208.889379 
L 201.848471 220.012138 
L 203.248941 234.710069 
L 204.649412 216.834207 
L 206.049882 219.614897 
L 207.450353 215.245241 
L 208.850824 205.314207 
L 210.251294 221.203862 
L 211.651765 210.875586 
L 213.052235 216.436966 
L 214.452706 216.039724 
L 215.853176 213.259034 
L 217.253647 218.025931 
L 218.654118 211.670069 
L 220.054588 227.956966 
L 221.455059 213.259034 
L 222.855529 228.354207 
L 224.256 228.354207 
L 225.656471 217.231448 
L 227.056941 233.121103 
L 228.457412 208.492138 
L 229.857882 236.299034 
L 231.258353 213.656276 
L 232.658824 225.176276 
L 234.059294 207.697655 
L 235.459765 220.806621 
L 236.860235 203.725241 
L 238.260706 213.259034 
L 239.661176 192.999724 
L 241.061647 215.642483 
L 242.462118 216.039724 
L 243.862588 204.519724 
L 245.263059 229.14869 
L 246.663529 226.765241 
L 248.064 206.903172 
L 249.464471 229.545931 
L 250.864941 230.340414 
L 252.265412 212.464552 
L 253.665882 208.889379 
L 255.066353 218.423172 
L 256.466824 215.245241 
L 257.867294 217.62869 
L 259.267765 201.341793 
L 260.668235 216.834207 
L 262.068706 208.094897 
L 263.469176 212.06731 
L 264.869647 208.889379 
L 266.270118 221.601103 
L 267.670588 216.039724 
L 269.071059 219.217655 
L 270.471529 212.464552 
L 271.872 224.381793 
L 273.272471 217.231448 
L 274.672941 233.121103 
L 276.073412 208.889379 
L 277.473882 226.765241 
L 278.874353 213.259034 
L 280.274824 228.354207 
L 281.675294 206.10869 
L 283.075765 229.943172 
L 284.476235 214.053517 
L 285.876706 221.998345 
L 287.277176 217.231448 
L 288.677647 226.765241 
L 290.078118 213.259034 
L 291.478588 214.848 
L 292.879059 211.670069 
L 294.279529 201.739034 
L 295.68 222.395586 
L 297.080471 216.039724 
L 298.480941 217.231448 
L 299.881412 237.093517 
L 301.281882 221.998345 
L 302.682353 218.820414 
L 304.082824 220.806621 
L 305.483294 228.354207 
L 306.883765 211.670069 
L 308.284235 225.970759 
L 309.684706 218.423172 
L 311.085176 231.134897 
L 312.485647 213.656276 
L 313.886118 218.820414 
L 315.286588 209.683862 
L 316.687059 216.834207 
L 318.087529 217.62869 
L 319.488 230.340414 
L 320.888471 212.861793 
L 322.288941 231.532138 
L 323.689412 220.012138 
L 325.089882 226.765241 
L 326.490353 208.889379 
L 327.890824 217.62869 
L 329.291294 221.998345 
L 330.691765 227.162483 
L 332.092235 208.889379 
L 333.492706 200.150069 
L 334.893176 212.861793 
L 336.293647 235.504552 
L 337.694118 213.259034 
L 339.094588 204.519724 
L 341.895529 227.162483 
L 343.296 221.203862 
L 344.696471 222.792828 
L 346.096941 226.368 
L 347.497412 232.723862 
L 348.897882 217.231448 
L 350.298353 211.272828 
L 351.698824 225.176276 
L 353.099294 227.956966 
L 354.499765 217.62869 
L 355.900235 214.848 
L 357.300706 204.122483 
L 358.701176 219.217655 
L 360.101647 212.464552 
L 361.502118 224.381793 
L 362.902588 222.395586 
L 364.303059 228.354207 
L 365.703529 224.381793 
L 367.104 234.312828 
L 368.504471 230.340414 
L 369.904941 224.381793 
L 371.305412 215.642483 
L 372.705882 203.328 
L 374.106353 228.354207 
L 375.506824 216.436966 
L 376.907294 216.039724 
L 378.307765 231.532138 
L 379.708235 220.806621 
L 381.108706 223.58731 
L 382.509176 222.792828 
L 383.909647 220.806621 
L 385.310118 216.834207 
L 386.710588 216.834207 
L 388.111059 216.039724 
L 389.511529 225.573517 
L 390.912 231.532138 
L 392.312471 231.134897 
L 393.712941 228.354207 
L 395.113412 210.478345 
L 396.513882 223.58731 
L 397.914353 224.779034 
L 399.314824 212.464552 
L 400.715294 230.737655 
L 402.115765 219.217655 
L 403.516235 216.039724 
L 404.916706 218.025931 
L 406.317176 216.436966 
L 407.717647 221.601103 
L 409.118118 224.779034 
L 410.518588 217.62869 
L 411.919059 224.381793 
L 413.319529 225.573517 
L 414.72 225.176276 
L 414.72 225.176276 
" clip-path="url(#p4d103573d9)" style="fill: none; stroke: #9467bd; stroke-opacity: 0.8; stroke-width: 1.5; stroke-linecap: square"/>
   </g>
   <g id="patch_3">
    <path d="M 57.6 307.584 
L 57.6 41.472 
" style="fill: none; stroke: #000000; stroke-width: 0.8; stroke-linejoin: miter; stroke-linecap: square"/>
   </g>
   <g id="patch_4">
    <path d="M 414.72 307.584 
L 414.72 41.472 
" style="fill: none; stroke: #000000; stroke-width: 0.8; stroke-linejoin: miter; stroke-linecap: square"/>
   </g>
   <g id="patch_5">
    <path d="M 57.6 307.584 
L 414.72 307.584 
" style="fill: none; stroke: #000000; stroke-width: 0.8; stroke-linejoin: miter; stroke-linecap: square"/>
   </g>
   <g id="patch_6">
    <path d="M 57.6 41.472 
L 414.72 41.472 
" style="fill: none; stroke: #000000; stroke-width: 0.8; stroke-linejoin: miter; stroke-linecap: square"/>
   </g>
   <g id="legend_1">
    <g id="patch_7">
     <path d="M 64.6 122.862625 
L 195.0625 122.862625 
Q 197.0625 122.862625 197.0625 120.862625 
L 197.0625 48.472 
Q 197.0625 46.472 195.0625 46.472 
L 64.6 46.472 
Q 62.6 46.472 62.6 48.472 
L 62.6 120.862625 
Q 62.6 122.862625 64.6 122.862625 
z
" style="fill: #ffffff; opacity: 0.8; stroke: #cccccc; stroke-linejoin: miter"/>
    </g>
    <g id="line2d_19">
     <path d="M 66.6 54.570438 
L 76.6 54.570438 
L 86.6 54.570438 
" style="fill: none; stroke: #1f77b4; stroke-opacity: 0.5; stroke-width: 1.5; stroke-linecap: square"/>
    </g>
    <g id="text_16">
     <!-- baseline 189.09 -->
     <g transform="translate(94.6 58.070438) scale(0.1 -0.1)">
      <defs>
       <path id="DejaVuSans-73" d="M 2834 3397 
L 2834 2853 
Q 2591 2978 2328 3040 
Q 2066 3103 1784 3103 
Q 1356 3103 1142 2972 
Q 928 2841 928 2578 
Q 928 2378 1081 2264 
Q 1234 2150 1697 2047 
L 1894 2003 
Q 2506 1872 2764 1633 
Q 3022 1394 3022 966 
Q 3022 478 2636 193 
Q 2250 -91 1575 -91 
Q 1294 -91 989 -36 
Q 684 19 347 128 
L 347 722 
Q 666 556 975 473 
Q 1284 391 1588 391 
Q 1994 391 2212 530 
Q 2431 669 2431 922 
Q 2431 1156 2273 1281 
Q 2116 1406 1581 1522 
L 1381 1569 
Q 847 1681 609 1914 
Q 372 2147 372 2553 
Q 372 3047 722 3315 
Q 1072 3584 1716 3584 
Q 2034 3584 2315 3537 
Q 2597 3491 2834 3397 
z
" transform="scale(0.015625)"/>
       <path id="DejaVuSans-6c" d="M 603 4863 
L 1178 4863 
L 1178 0 
L 603 0 
L 603 4863 
z
" transform="scale(0.015625)"/>
       <path id="DejaVuSans-39" d="M 703 97 
L 703 672 
Q 941 559 1184 500 
Q 1428 441 1663 441 
Q 2288 441 2617 861 
Q 2947 1281 2994 2138 
Q 2813 1869 2534 1725 
Q 2256 1581 1919 1581 
Q 1219 1581 811 2004 
Q 403 2428 403 3163 
Q 403 3881 828 4315 
Q 1253 4750 1959 4750 
Q 2769 4750 3195 4129 
Q 3622 3509 3622 2328 
Q 3622 1225 3098 567 
Q 2575 -91 1691 -91 
Q 1453 -91 1209 -44 
Q 966 3 703 97 
z
M 1959 2075 
Q 2384 2075 2632 2365 
Q 2881 2656 2881 3163 
Q 2881 3666 2632 3958 
Q 2384 4250 1959 4250 
Q 1534 4250 1286 3958 
Q 1038 3666 1038 3163 
Q 1038 2656 1286 2365 
Q 1534 2075 1959 2075 
z
" transform="scale(0.015625)"/>
      </defs>
      <use xlink:href="#DejaVuSans-62"/>
      <use xlink:href="#DejaVuSans-61" x="63.476562"/>
      <use xlink:href="#DejaVuSans-73" x="124.755859"/>
      <use xlink:href="#DejaVuSans-65" x="176.855469"/>
      <use xlink:href="#DejaVuSans-6c" x="238.378906"/>
      <use xlink:href="#DejaVuSans-69" x="266.162109"/>
      <use xlink:href="#DejaVuSans-6e" x="293.945312"/>
      <use xlink:href="#DejaVuSans-65" x="357.324219"/>
      <use xlink:href="#DejaVuSans-20" x="418.847656"/>
      <use xlink:href="#DejaVuSans-31" x="450.634766"/>
      <use xlink:href="#DejaVuSans-38" x="514.257812"/>
      <use xlink:href="#DejaVuSans-39" x="577.880859"/>
      <use xlink:href="#DejaVuSans-2e" x="641.503906"/>
      <use xlink:href="#DejaVuSans-30" x="673.291016"/>
      <use xlink:href="#DejaVuSans-39" x="736.914062"/>
     </g>
    </g>
    <g id="line2d_20">
     <path d="M 66.6 69.248563 
L 76.6 69.248563 
L 86.6 69.248563 
" style="fill: none; stroke: #ff7f0e; stroke-opacity: 0.6; stroke-width: 1.5; stroke-linecap: square"/>
    </g>
    <g id="text_17">
     <!-- 290K no xor 203.89 -->
     <g transform="translate(94.6 72.748563) scale(0.1 -0.1)">
      <defs>
       <path id="DejaVuSans-4b" d="M 628 4666 
L 1259 4666 
L 1259 2694 
L 3353 4666 
L 4166 4666 
L 1850 2491 
L 4331 0 
L 3500 0 
L 1259 2247 
L 1259 0 
L 628 0 
L 628 4666 
z
" transform="scale(0.015625)"/>
       <path id="DejaVuSans-6f" d="M 1959 3097 
Q 1497 3097 1228 2736 
Q 959 2375 959 1747 
Q 959 1119 1226 758 
Q 1494 397 1959 397 
Q 2419 397 2687 759 
Q 2956 1122 2956 1747 
Q 2956 2369 2687 2733 
Q 2419 3097 1959 3097 
z
M 1959 3584 
Q 2709 3584 3137 3096 
Q 3566 2609 3566 1747 
Q 3566 888 3137 398 
Q 2709 -91 1959 -91 
Q 1206 -91 779 398 
Q 353 888 353 1747 
Q 353 2609 779 3096 
Q 1206 3584 1959 3584 
z
" transform="scale(0.015625)"/>
       <path id="DejaVuSans-78" d="M 3513 3500 
L 2247 1797 
L 3578 0 
L 2900 0 
L 1881 1375 
L 863 0 
L 184 0 
L 1544 1831 
L 300 3500 
L 978 3500 
L 1906 2253 
L 2834 3500 
L 3513 3500 
z
" transform="scale(0.015625)"/>
      </defs>
      <use xlink:href="#DejaVuSans-32"/>
      <use xlink:href="#DejaVuSans-39" x="63.623047"/>
      <use xlink:href="#DejaVuSans-30" x="127.246094"/>
      <use xlink:href="#DejaVuSans-4b" x="190.869141"/>
      <use xlink:href="#DejaVuSans-20" x="256.445312"/>
      <use xlink:href="#DejaVuSans-6e" x="288.232422"/>
      <use xlink:href="#DejaVuSans-6f" x="351.611328"/>
      <use xlink:href="#DejaVuSans-20" x="412.792969"/>
      <use xlink:href="#DejaVuSans-78" x="444.580078"/>
      <use xlink:href="#DejaVuSans-6f" x="500.634766"/>
      <use xlink:href="#DejaVuSans-72" x="561.816406"/>
      <use xlink:href="#DejaVuSans-20" x="602.929688"/>
      <use xlink:href="#DejaVuSans-32" x="634.716797"/>
      <use xlink:href="#DejaVuSans-30" x="698.339844"/>
      <use xlink:href="#DejaVuSans-33" x="761.962891"/>
      <use xlink:href="#DejaVuSans-2e" x="825.585938"/>
      <use xlink:href="#DejaVuSans-38" x="857.373047"/>
      <use xlink:href="#DejaVuSans-39" x="920.996094"/>
     </g>
    </g>
    <g id="line2d_21">
     <path d="M 66.6 83.926688 
L 76.6 83.926688 
L 86.6 83.926688 
" style="fill: none; stroke: #2ca02c; stroke-opacity: 0.8; stroke-width: 1.5; stroke-linecap: square"/>
    </g>
    <g id="text_18">
     <!-- 290K 1 xor 191.83 -->
     <g transform="translate(94.6 87.426688) scale(0.1 -0.1)">
      <use xlink:href="#DejaVuSans-32"/>
      <use xlink:href="#DejaVuSans-39" x="63.623047"/>
      <use xlink:href="#DejaVuSans-30" x="127.246094"/>
      <use xlink:href="#DejaVuSans-4b" x="190.869141"/>
      <use xlink:href="#DejaVuSans-20" x="256.445312"/>
      <use xlink:href="#DejaVuSans-31" x="288.232422"/>
      <use xlink:href="#DejaVuSans-20" x="351.855469"/>
      <use xlink:href="#DejaVuSans-78" x="383.642578"/>
      <use xlink:href="#DejaVuSans-6f" x="439.697266"/>
      <use xlink:href="#DejaVuSans-72" x="500.878906"/>
      <use xlink:href="#DejaVuSans-20" x="541.992188"/>
      <use xlink:href="#DejaVuSans-31" x="573.779297"/>
      <use xlink:href="#DejaVuSans-39" x="637.402344"/>
      <use xlink:href="#DejaVuSans-31" x="701.025391"/>
      <use xlink:href="#DejaVuSans-2e" x="764.648438"/>
      <use xlink:href="#DejaVuSans-38" x="796.435547"/>
      <use xlink:href="#DejaVuSans-33" x="860.058594"/>
     </g>
    </g>
    <g id="line2d_22">
     <path d="M 66.6 98.604813 
L 76.6 98.604813 
L 86.6 98.604813 
" style="fill: none; stroke: #d62728; stroke-opacity: 0.6; stroke-width: 1.5; stroke-linecap: square"/>
    </g>
    <g id="text_19">
     <!-- 310K no xor 174.96 -->
     <g transform="translate(94.6 102.104813) scale(0.1 -0.1)">
      <use xlink:href="#DejaVuSans-33"/>
      <use xlink:href="#DejaVuSans-31" x="63.623047"/>
      <use xlink:href="#DejaVuSans-30" x="127.246094"/>
      <use xlink:href="#DejaVuSans-4b" x="190.869141"/>
      <use xlink:href="#DejaVuSans-20" x="256.445312"/>
      <use xlink:href="#DejaVuSans-6e" x="288.232422"/>
      <use xlink:href="#DejaVuSans-6f" x="351.611328"/>
      <use xlink:href="#DejaVuSans-20" x="412.792969"/>
      <use xlink:href="#DejaVuSans-78" x="444.580078"/>
      <use xlink:href="#DejaVuSans-6f" x="500.634766"/>
      <use xlink:href="#DejaVuSans-72" x="561.816406"/>
      <use xlink:href="#DejaVuSans-20" x="602.929688"/>
      <use xlink:href="#DejaVuSans-31" x="634.716797"/>
      <use xlink:href="#DejaVuSans-37" x="698.339844"/>
      <use xlink:href="#DejaVuSans-34" x="761.962891"/>
      <use xlink:href="#DejaVuSans-2e" x="825.585938"/>
      <use xlink:href="#DejaVuSans-39" x="857.373047"/>
      <use xlink:href="#DejaVuSans-36" x="920.996094"/>
     </g>
    </g>
    <g id="line2d_23">
     <path d="M 66.6 113.282938 
L 76.6 113.282938 
L 86.6 113.282938 
" style="fill: none; stroke: #9467bd; stroke-opacity: 0.8; stroke-width: 1.5; stroke-linecap: square"/>
    </g>
    <g id="text_20">
     <!-- 310K 1 xor 192.95 -->
     <g transform="translate(94.6 116.782938) scale(0.1 -0.1)">
      <use xlink:href="#DejaVuSans-33"/>
      <use xlink:href="#DejaVuSans-31" x="63.623047"/>
      <use xlink:href="#DejaVuSans-30" x="127.246094"/>
      <use xlink:href="#DejaVuSans-4b" x="190.869141"/>
      <use xlink:href="#DejaVuSans-20" x="256.445312"/>
      <use xlink:href="#DejaVuSans-31" x="288.232422"/>
      <use xlink:href="#DejaVuSans-20" x="351.855469"/>
      <use xlink:href="#DejaVuSans-78" x="383.642578"/>
      <use xlink:href="#DejaVuSans-6f" x="439.697266"/>
      <use xlink:href="#DejaVuSans-72" x="500.878906"/>
      <use xlink:href="#DejaVuSans-20" x="541.992188"/>
      <use xlink:href="#DejaVuSans-31" x="573.779297"/>
      <use xlink:href="#DejaVuSans-39" x="637.402344"/>
      <use xlink:href="#DejaVuSans-32" x="701.025391"/>
      <use xlink:href="#DejaVuSans-2e" x="764.648438"/>
      <use xlink:href="#DejaVuSans-39" x="796.435547"/>
      <use xlink:href="#DejaVuSans-35" x="860.058594"/>
     </g>
    </g>
   </g>
  </g>
 </g>
 <defs>
  <clipPath id="p4d103573d9">
   <rect x="57.6" y="41.472" width="357.12" height="266.112"/>
  </clipPath>
 </defs>
</svg>
