<?xml version="1.0" encoding="utf-8" standalone="no"?>
<!DOCTYPE svg PUBLIC "-//W3C//DTD SVG 1.1//EN"
  "http://www.w3.org/Graphics/SVG/1.1/DTD/svg11.dtd">
<svg xmlns:xlink="http://www.w3.org/1999/xlink" width="518.4pt" height="583.92pt" viewBox="0 0 518.4 583.92" xmlns="http://www.w3.org/2000/svg" version="1.1">
 <metadata>
  <rdf:RDF xmlns:dc="http://purl.org/dc/elements/1.1/" xmlns:cc="http://creativecommons.org/ns#" xmlns:rdf="http://www.w3.org/1999/02/22-rdf-syntax-ns#">
   <cc:Work>
    <dc:type rdf:resource="http://purl.org/dc/dcmitype/StillImage"/>
    <dc:date>2024-01-29T14:56:26.790324</dc:date>
    <dc:format>image/svg+xml</dc:format>
    <dc:creator>
     <cc:Agent>
      <dc:title>Matplotlib v3.7.2, https://matplotlib.org/</dc:title>
     </cc:Agent>
    </dc:creator>
   </cc:Work>
  </rdf:RDF>
 </metadata>
 <defs>
  <style type="text/css">*{stroke-linejoin: round; stroke-linecap: butt}</style>
 </defs>
 <g id="figure_1">
  <g id="patch_1">
   <path d="M 0 583.92 
L 518.4 583.92 
L 518.4 0 
L 0 0 
z
" style="fill: #ffffff"/>
  </g>
  <g id="axes_1">
   <g id="patch_2">
    <path d="M 64.8 519.6888 
L 466.56 519.6888 
L 466.56 70.0704 
L 64.8 70.0704 
z
" style="fill: #ffffff"/>
   </g>
   <g id="matplotlib.axis_1">
    <g id="xtick_1">
     <g id="line2d_1">
      <defs>
       <path id="mf2f113d956" d="M 0 0 
L 0 3.5 
" style="stroke: #000000; stroke-width: 0.8"/>
      </defs>
      <g>
       <use xlink:href="#mf2f113d956" x="64.8" y="519.6888" style="stroke: #000000; stroke-width: 0.8"/>
      </g>
     </g>
     <g id="text_1">
      <!-- 0 -->
      <g transform="translate(61.61875 534.287237) scale(0.1 -0.1)">
       <defs>
        <path id="DejaVuSans-30" d="M 2034 4250 
Q 1547 4250 1301 3770 
Q 1056 3291 1056 2328 
Q 1056 1369 1301 889 
Q 1547 409 2034 409 
Q 2525 409 2770 889 
Q 3016 1369 3016 2328 
Q 3016 3291 2770 3770 
Q 2525 4250 2034 4250 
z
M 2034 4750 
Q 2819 4750 3233 4129 
Q 3647 3509 3647 2328 
Q 3647 1150 3233 529 
Q 2819 -91 2034 -91 
Q 1250 -91 836 529 
Q 422 1150 422 2328 
Q 422 3509 836 4129 
Q 1250 4750 2034 4750 
z
" transform="scale(0.015625)"/>
       </defs>
       <use xlink:href="#DejaVuSans-30"/>
      </g>
     </g>
    </g>
    <g id="xtick_2">
     <g id="line2d_2">
      <g>
       <use xlink:href="#mf2f113d956" x="143.576471" y="519.6888" style="stroke: #000000; stroke-width: 0.8"/>
      </g>
     </g>
     <g id="text_2">
      <!-- 50 -->
      <g transform="translate(137.213971 534.287237) scale(0.1 -0.1)">
       <defs>
        <path id="DejaVuSans-35" d="M 691 4666 
L 3169 4666 
L 3169 4134 
L 1269 4134 
L 1269 2991 
Q 1406 3038 1543 3061 
Q 1681 3084 1819 3084 
Q 2600 3084 3056 2656 
Q 3513 2228 3513 1497 
Q 3513 744 3044 326 
Q 2575 -91 1722 -91 
Q 1428 -91 1123 -41 
Q 819 9 494 109 
L 494 744 
Q 775 591 1075 516 
Q 1375 441 1709 441 
Q 2250 441 2565 725 
Q 2881 1009 2881 1497 
Q 2881 1984 2565 2268 
Q 2250 2553 1709 2553 
Q 1456 2553 1204 2497 
Q 953 2441 691 2322 
L 691 4666 
z
" transform="scale(0.015625)"/>
       </defs>
       <use xlink:href="#DejaVuSans-35"/>
       <use xlink:href="#DejaVuSans-30" x="63.623047"/>
      </g>
     </g>
    </g>
    <g id="xtick_3">
     <g id="line2d_3">
      <g>
       <use xlink:href="#mf2f113d956" x="222.352941" y="519.6888" style="stroke: #000000; stroke-width: 0.8"/>
      </g>
     </g>
     <g id="text_3">
      <!-- 100 -->
      <g transform="translate(212.809191 534.287237) scale(0.1 -0.1)">
       <defs>
        <path id="DejaVuSans-31" d="M 794 531 
L 1825 531 
L 1825 4091 
L 703 3866 
L 703 4441 
L 1819 4666 
L 2450 4666 
L 2450 531 
L 3481 531 
L 3481 0 
L 794 0 
L 794 531 
z
" transform="scale(0.015625)"/>
       </defs>
       <use xlink:href="#DejaVuSans-31"/>
       <use xlink:href="#DejaVuSans-30" x="63.623047"/>
       <use xlink:href="#DejaVuSans-30" x="127.246094"/>
      </g>
     </g>
    </g>
    <g id="xtick_4">
     <g id="line2d_4">
      <g>
       <use xlink:href="#mf2f113d956" x="301.129412" y="519.6888" style="stroke: #000000; stroke-width: 0.8"/>
      </g>
     </g>
     <g id="text_4">
      <!-- 150 -->
      <g transform="translate(291.585662 534.287237) scale(0.1 -0.1)">
       <use xlink:href="#DejaVuSans-31"/>
       <use xlink:href="#DejaVuSans-35" x="63.623047"/>
       <use xlink:href="#DejaVuSans-30" x="127.246094"/>
      </g>
     </g>
    </g>
    <g id="xtick_5">
     <g id="line2d_5">
      <g>
       <use xlink:href="#mf2f113d956" x="379.905882" y="519.6888" style="stroke: #000000; stroke-width: 0.8"/>
      </g>
     </g>
     <g id="text_5">
      <!-- 200 -->
      <g transform="translate(370.362132 534.287237) scale(0.1 -0.1)">
       <defs>
        <path id="DejaVuSans-32" d="M 1228 531 
L 3431 531 
L 3431 0 
L 469 0 
L 469 531 
Q 828 903 1448 1529 
Q 2069 2156 2228 2338 
Q 2531 2678 2651 2914 
Q 2772 3150 2772 3378 
Q 2772 3750 2511 3984 
Q 2250 4219 1831 4219 
Q 1534 4219 1204 4116 
Q 875 4013 500 3803 
L 500 4441 
Q 881 4594 1212 4672 
Q 1544 4750 1819 4750 
Q 2544 4750 2975 4387 
Q 3406 4025 3406 3419 
Q 3406 3131 3298 2873 
Q 3191 2616 2906 2266 
Q 2828 2175 2409 1742 
Q 1991 1309 1228 531 
z
" transform="scale(0.015625)"/>
       </defs>
       <use xlink:href="#DejaVuSans-32"/>
       <use xlink:href="#DejaVuSans-30" x="63.623047"/>
       <use xlink:href="#DejaVuSans-30" x="127.246094"/>
      </g>
     </g>
    </g>
    <g id="xtick_6">
     <g id="line2d_6">
      <g>
       <use xlink:href="#mf2f113d956" x="458.682353" y="519.6888" style="stroke: #000000; stroke-width: 0.8"/>
      </g>
     </g>
     <g id="text_6">
      <!-- 250 -->
      <g transform="translate(449.138603 534.287237) scale(0.1 -0.1)">
       <use xlink:href="#DejaVuSans-32"/>
       <use xlink:href="#DejaVuSans-35" x="63.623047"/>
       <use xlink:href="#DejaVuSans-30" x="127.246094"/>
      </g>
     </g>
    </g>
    <g id="text_7">
     <!-- Generated 8-bit Number -->
     <g transform="translate(204.380781 547.965362) scale(0.1 -0.1)">
      <defs>
       <path id="DejaVuSans-47" d="M 3809 666 
L 3809 1919 
L 2778 1919 
L 2778 2438 
L 4434 2438 
L 4434 434 
Q 4069 175 3628 42 
Q 3188 -91 2688 -91 
Q 1594 -91 976 548 
Q 359 1188 359 2328 
Q 359 3472 976 4111 
Q 1594 4750 2688 4750 
Q 3144 4750 3555 4637 
Q 3966 4525 4313 4306 
L 4313 3634 
Q 3963 3931 3569 4081 
Q 3175 4231 2741 4231 
Q 1884 4231 1454 3753 
Q 1025 3275 1025 2328 
Q 1025 1384 1454 906 
Q 1884 428 2741 428 
Q 3075 428 3337 486 
Q 3600 544 3809 666 
z
" transform="scale(0.015625)"/>
       <path id="DejaVuSans-65" d="M 3597 1894 
L 3597 1613 
L 953 1613 
Q 991 1019 1311 708 
Q 1631 397 2203 397 
Q 2534 397 2845 478 
Q 3156 559 3463 722 
L 3463 178 
Q 3153 47 2828 -22 
Q 2503 -91 2169 -91 
Q 1331 -91 842 396 
Q 353 884 353 1716 
Q 353 2575 817 3079 
Q 1281 3584 2069 3584 
Q 2775 3584 3186 3129 
Q 3597 2675 3597 1894 
z
M 3022 2063 
Q 3016 2534 2758 2815 
Q 2500 3097 2075 3097 
Q 1594 3097 1305 2825 
Q 1016 2553 972 2059 
L 3022 2063 
z
" transform="scale(0.015625)"/>
       <path id="DejaVuSans-6e" d="M 3513 2113 
L 3513 0 
L 2938 0 
L 2938 2094 
Q 2938 2591 2744 2837 
Q 2550 3084 2163 3084 
Q 1697 3084 1428 2787 
Q 1159 2491 1159 1978 
L 1159 0 
L 581 0 
L 581 3500 
L 1159 3500 
L 1159 2956 
Q 1366 3272 1645 3428 
Q 1925 3584 2291 3584 
Q 2894 3584 3203 3211 
Q 3513 2838 3513 2113 
z
" transform="scale(0.015625)"/>
       <path id="DejaVuSans-72" d="M 2631 2963 
Q 2534 3019 2420 3045 
Q 2306 3072 2169 3072 
Q 1681 3072 1420 2755 
Q 1159 2438 1159 1844 
L 1159 0 
L 581 0 
L 581 3500 
L 1159 3500 
L 1159 2956 
Q 1341 3275 1631 3429 
Q 1922 3584 2338 3584 
Q 2397 3584 2469 3576 
Q 2541 3569 2628 3553 
L 2631 2963 
z
" transform="scale(0.015625)"/>
       <path id="DejaVuSans-61" d="M 2194 1759 
Q 1497 1759 1228 1600 
Q 959 1441 959 1056 
Q 959 750 1161 570 
Q 1363 391 1709 391 
Q 2188 391 2477 730 
Q 2766 1069 2766 1631 
L 2766 1759 
L 2194 1759 
z
M 3341 1997 
L 3341 0 
L 2766 0 
L 2766 531 
Q 2569 213 2275 61 
Q 1981 -91 1556 -91 
Q 1019 -91 701 211 
Q 384 513 384 1019 
Q 384 1609 779 1909 
Q 1175 2209 1959 2209 
L 2766 2209 
L 2766 2266 
Q 2766 2663 2505 2880 
Q 2244 3097 1772 3097 
Q 1472 3097 1187 3025 
Q 903 2953 641 2809 
L 641 3341 
Q 956 3463 1253 3523 
Q 1550 3584 1831 3584 
Q 2591 3584 2966 3190 
Q 3341 2797 3341 1997 
z
" transform="scale(0.015625)"/>
       <path id="DejaVuSans-74" d="M 1172 4494 
L 1172 3500 
L 2356 3500 
L 2356 3053 
L 1172 3053 
L 1172 1153 
Q 1172 725 1289 603 
Q 1406 481 1766 481 
L 2356 481 
L 2356 0 
L 1766 0 
Q 1100 0 847 248 
Q 594 497 594 1153 
L 594 3053 
L 172 3053 
L 172 3500 
L 594 3500 
L 594 4494 
L 1172 4494 
z
" transform="scale(0.015625)"/>
       <path id="DejaVuSans-64" d="M 2906 2969 
L 2906 4863 
L 3481 4863 
L 3481 0 
L 2906 0 
L 2906 525 
Q 2725 213 2448 61 
Q 2172 -91 1784 -91 
Q 1150 -91 751 415 
Q 353 922 353 1747 
Q 353 2572 751 3078 
Q 1150 3584 1784 3584 
Q 2172 3584 2448 3432 
Q 2725 3281 2906 2969 
z
M 947 1747 
Q 947 1113 1208 752 
Q 1469 391 1925 391 
Q 2381 391 2643 752 
Q 2906 1113 2906 1747 
Q 2906 2381 2643 2742 
Q 2381 3103 1925 3103 
Q 1469 3103 1208 2742 
Q 947 2381 947 1747 
z
" transform="scale(0.015625)"/>
       <path id="DejaVuSans-20" transform="scale(0.015625)"/>
       <path id="DejaVuSans-38" d="M 2034 2216 
Q 1584 2216 1326 1975 
Q 1069 1734 1069 1313 
Q 1069 891 1326 650 
Q 1584 409 2034 409 
Q 2484 409 2743 651 
Q 3003 894 3003 1313 
Q 3003 1734 2745 1975 
Q 2488 2216 2034 2216 
z
M 1403 2484 
Q 997 2584 770 2862 
Q 544 3141 544 3541 
Q 544 4100 942 4425 
Q 1341 4750 2034 4750 
Q 2731 4750 3128 4425 
Q 3525 4100 3525 3541 
Q 3525 3141 3298 2862 
Q 3072 2584 2669 2484 
Q 3125 2378 3379 2068 
Q 3634 1759 3634 1313 
Q 3634 634 3220 271 
Q 2806 -91 2034 -91 
Q 1263 -91 848 271 
Q 434 634 434 1313 
Q 434 1759 690 2068 
Q 947 2378 1403 2484 
z
M 1172 3481 
Q 1172 3119 1398 2916 
Q 1625 2713 2034 2713 
Q 2441 2713 2670 2916 
Q 2900 3119 2900 3481 
Q 2900 3844 2670 4047 
Q 2441 4250 2034 4250 
Q 1625 4250 1398 4047 
Q 1172 3844 1172 3481 
z
" transform="scale(0.015625)"/>
       <path id="DejaVuSans-2d" d="M 313 2009 
L 1997 2009 
L 1997 1497 
L 313 1497 
L 313 2009 
z
" transform="scale(0.015625)"/>
       <path id="DejaVuSans-62" d="M 3116 1747 
Q 3116 2381 2855 2742 
Q 2594 3103 2138 3103 
Q 1681 3103 1420 2742 
Q 1159 2381 1159 1747 
Q 1159 1113 1420 752 
Q 1681 391 2138 391 
Q 2594 391 2855 752 
Q 3116 1113 3116 1747 
z
M 1159 2969 
Q 1341 3281 1617 3432 
Q 1894 3584 2278 3584 
Q 2916 3584 3314 3078 
Q 3713 2572 3713 1747 
Q 3713 922 3314 415 
Q 2916 -91 2278 -91 
Q 1894 -91 1617 61 
Q 1341 213 1159 525 
L 1159 0 
L 581 0 
L 581 4863 
L 1159 4863 
L 1159 2969 
z
" transform="scale(0.015625)"/>
       <path id="DejaVuSans-69" d="M 603 3500 
L 1178 3500 
L 1178 0 
L 603 0 
L 603 3500 
z
M 603 4863 
L 1178 4863 
L 1178 4134 
L 603 4134 
L 603 4863 
z
" transform="scale(0.015625)"/>
       <path id="DejaVuSans-4e" d="M 628 4666 
L 1478 4666 
L 3547 763 
L 3547 4666 
L 4159 4666 
L 4159 0 
L 3309 0 
L 1241 3903 
L 1241 0 
L 628 0 
L 628 4666 
z
" transform="scale(0.015625)"/>
       <path id="DejaVuSans-75" d="M 544 1381 
L 544 3500 
L 1119 3500 
L 1119 1403 
Q 1119 906 1312 657 
Q 1506 409 1894 409 
Q 2359 409 2629 706 
Q 2900 1003 2900 1516 
L 2900 3500 
L 3475 3500 
L 3475 0 
L 2900 0 
L 2900 538 
Q 2691 219 2414 64 
Q 2138 -91 1772 -91 
Q 1169 -91 856 284 
Q 544 659 544 1381 
z
M 1991 3584 
L 1991 3584 
z
" transform="scale(0.015625)"/>
       <path id="DejaVuSans-6d" d="M 3328 2828 
Q 3544 3216 3844 3400 
Q 4144 3584 4550 3584 
Q 5097 3584 5394 3201 
Q 5691 2819 5691 2113 
L 5691 0 
L 5113 0 
L 5113 2094 
Q 5113 2597 4934 2840 
Q 4756 3084 4391 3084 
Q 3944 3084 3684 2787 
Q 3425 2491 3425 1978 
L 3425 0 
L 2847 0 
L 2847 2094 
Q 2847 2600 2669 2842 
Q 2491 3084 2119 3084 
Q 1678 3084 1418 2786 
Q 1159 2488 1159 1978 
L 1159 0 
L 581 0 
L 581 3500 
L 1159 3500 
L 1159 2956 
Q 1356 3278 1631 3431 
Q 1906 3584 2284 3584 
Q 2666 3584 2933 3390 
Q 3200 3197 3328 2828 
z
" transform="scale(0.015625)"/>
      </defs>
      <use xlink:href="#DejaVuSans-47"/>
      <use xlink:href="#DejaVuSans-65" x="77.490234"/>
      <use xlink:href="#DejaVuSans-6e" x="139.013672"/>
      <use xlink:href="#DejaVuSans-65" x="202.392578"/>
      <use xlink:href="#DejaVuSans-72" x="263.916016"/>
      <use xlink:href="#DejaVuSans-61" x="305.029297"/>
      <use xlink:href="#DejaVuSans-74" x="366.308594"/>
      <use xlink:href="#DejaVuSans-65" x="405.517578"/>
      <use xlink:href="#DejaVuSans-64" x="467.041016"/>
      <use xlink:href="#DejaVuSans-20" x="530.517578"/>
      <use xlink:href="#DejaVuSans-38" x="562.304688"/>
      <use xlink:href="#DejaVuSans-2d" x="625.927734"/>
      <use xlink:href="#DejaVuSans-62" x="662.011719"/>
      <use xlink:href="#DejaVuSans-69" x="725.488281"/>
      <use xlink:href="#DejaVuSans-74" x="753.271484"/>
      <use xlink:href="#DejaVuSans-20" x="792.480469"/>
      <use xlink:href="#DejaVuSans-4e" x="824.267578"/>
      <use xlink:href="#DejaVuSans-75" x="899.072266"/>
      <use xlink:href="#DejaVuSans-6d" x="962.451172"/>
      <use xlink:href="#DejaVuSans-62" x="1059.863281"/>
      <use xlink:href="#DejaVuSans-65" x="1123.339844"/>
      <use xlink:href="#DejaVuSans-72" x="1184.863281"/>
     </g>
    </g>
   </g>
   <g id="matplotlib.axis_2">
    <g id="ytick_1">
     <g id="line2d_7">
      <defs>
       <path id="me0c9691eb5" d="M 0 0 
L -3.5 0 
" style="stroke: #000000; stroke-width: 0.8"/>
      </defs>
      <g>
       <use xlink:href="#me0c9691eb5" x="64.8" y="519.6888" style="stroke: #000000; stroke-width: 0.8"/>
      </g>
     </g>
     <g id="text_8">
      <!-- 0.001 -->
      <g transform="translate(29.171875 523.488019) scale(0.1 -0.1)">
       <defs>
        <path id="DejaVuSans-2e" d="M 684 794 
L 1344 794 
L 1344 0 
L 684 0 
L 684 794 
z
" transform="scale(0.015625)"/>
       </defs>
       <use xlink:href="#DejaVuSans-30"/>
       <use xlink:href="#DejaVuSans-2e" x="63.623047"/>
       <use xlink:href="#DejaVuSans-30" x="95.410156"/>
       <use xlink:href="#DejaVuSans-30" x="159.033203"/>
       <use xlink:href="#DejaVuSans-31" x="222.65625"/>
      </g>
     </g>
    </g>
    <g id="ytick_2">
     <g id="line2d_8">
      <g>
       <use xlink:href="#me0c9691eb5" x="64.8" y="463.4865" style="stroke: #000000; stroke-width: 0.8"/>
      </g>
     </g>
     <g id="text_9">
      <!-- 0.002 -->
      <g transform="translate(29.171875 467.285719) scale(0.1 -0.1)">
       <use xlink:href="#DejaVuSans-30"/>
       <use xlink:href="#DejaVuSans-2e" x="63.623047"/>
       <use xlink:href="#DejaVuSans-30" x="95.410156"/>
       <use xlink:href="#DejaVuSans-30" x="159.033203"/>
       <use xlink:href="#DejaVuSans-32" x="222.65625"/>
      </g>
     </g>
    </g>
    <g id="ytick_3">
     <g id="line2d_9">
      <g>
       <use xlink:href="#me0c9691eb5" x="64.8" y="407.2842" style="stroke: #000000; stroke-width: 0.8"/>
      </g>
     </g>
     <g id="text_10">
      <!-- 0.003 -->
      <g transform="translate(29.171875 411.083419) scale(0.1 -0.1)">
       <defs>
        <path id="DejaVuSans-33" d="M 2597 2516 
Q 3050 2419 3304 2112 
Q 3559 1806 3559 1356 
Q 3559 666 3084 287 
Q 2609 -91 1734 -91 
Q 1441 -91 1130 -33 
Q 819 25 488 141 
L 488 750 
Q 750 597 1062 519 
Q 1375 441 1716 441 
Q 2309 441 2620 675 
Q 2931 909 2931 1356 
Q 2931 1769 2642 2001 
Q 2353 2234 1838 2234 
L 1294 2234 
L 1294 2753 
L 1863 2753 
Q 2328 2753 2575 2939 
Q 2822 3125 2822 3475 
Q 2822 3834 2567 4026 
Q 2313 4219 1838 4219 
Q 1578 4219 1281 4162 
Q 984 4106 628 3988 
L 628 4550 
Q 988 4650 1302 4700 
Q 1616 4750 1894 4750 
Q 2613 4750 3031 4423 
Q 3450 4097 3450 3541 
Q 3450 3153 3228 2886 
Q 3006 2619 2597 2516 
z
" transform="scale(0.015625)"/>
       </defs>
       <use xlink:href="#DejaVuSans-30"/>
       <use xlink:href="#DejaVuSans-2e" x="63.623047"/>
       <use xlink:href="#DejaVuSans-30" x="95.410156"/>
       <use xlink:href="#DejaVuSans-30" x="159.033203"/>
       <use xlink:href="#DejaVuSans-33" x="222.65625"/>
      </g>
     </g>
    </g>
    <g id="ytick_4">
     <g id="line2d_10">
      <g>
       <use xlink:href="#me0c9691eb5" x="64.8" y="351.0819" style="stroke: #000000; stroke-width: 0.8"/>
      </g>
     </g>
     <g id="text_11">
      <!-- 0.004 -->
      <g transform="translate(29.171875 354.881119) scale(0.1 -0.1)">
       <defs>
        <path id="DejaVuSans-34" d="M 2419 4116 
L 825 1625 
L 2419 1625 
L 2419 4116 
z
M 2253 4666 
L 3047 4666 
L 3047 1625 
L 3713 1625 
L 3713 1100 
L 3047 1100 
L 3047 0 
L 2419 0 
L 2419 1100 
L 313 1100 
L 313 1709 
L 2253 4666 
z
" transform="scale(0.015625)"/>
       </defs>
       <use xlink:href="#DejaVuSans-30"/>
       <use xlink:href="#DejaVuSans-2e" x="63.623047"/>
       <use xlink:href="#DejaVuSans-30" x="95.410156"/>
       <use xlink:href="#DejaVuSans-30" x="159.033203"/>
       <use xlink:href="#DejaVuSans-34" x="222.65625"/>
      </g>
     </g>
    </g>
    <g id="ytick_5">
     <g id="line2d_11">
      <g>
       <use xlink:href="#me0c9691eb5" x="64.8" y="294.8796" style="stroke: #000000; stroke-width: 0.8"/>
      </g>
     </g>
     <g id="text_12">
      <!-- 0.005 -->
      <g transform="translate(29.171875 298.678819) scale(0.1 -0.1)">
       <use xlink:href="#DejaVuSans-30"/>
       <use xlink:href="#DejaVuSans-2e" x="63.623047"/>
       <use xlink:href="#DejaVuSans-30" x="95.410156"/>
       <use xlink:href="#DejaVuSans-30" x="159.033203"/>
       <use xlink:href="#DejaVuSans-35" x="222.65625"/>
      </g>
     </g>
    </g>
    <g id="ytick_6">
     <g id="line2d_12">
      <g>
       <use xlink:href="#me0c9691eb5" x="64.8" y="238.6773" style="stroke: #000000; stroke-width: 0.8"/>
      </g>
     </g>
     <g id="text_13">
      <!-- 0.006 -->
      <g transform="translate(29.171875 242.476519) scale(0.1 -0.1)">
       <defs>
        <path id="DejaVuSans-36" d="M 2113 2584 
Q 1688 2584 1439 2293 
Q 1191 2003 1191 1497 
Q 1191 994 1439 701 
Q 1688 409 2113 409 
Q 2538 409 2786 701 
Q 3034 994 3034 1497 
Q 3034 2003 2786 2293 
Q 2538 2584 2113 2584 
z
M 3366 4563 
L 3366 3988 
Q 3128 4100 2886 4159 
Q 2644 4219 2406 4219 
Q 1781 4219 1451 3797 
Q 1122 3375 1075 2522 
Q 1259 2794 1537 2939 
Q 1816 3084 2150 3084 
Q 2853 3084 3261 2657 
Q 3669 2231 3669 1497 
Q 3669 778 3244 343 
Q 2819 -91 2113 -91 
Q 1303 -91 875 529 
Q 447 1150 447 2328 
Q 447 3434 972 4092 
Q 1497 4750 2381 4750 
Q 2619 4750 2861 4703 
Q 3103 4656 3366 4563 
z
" transform="scale(0.015625)"/>
       </defs>
       <use xlink:href="#DejaVuSans-30"/>
       <use xlink:href="#DejaVuSans-2e" x="63.623047"/>
       <use xlink:href="#DejaVuSans-30" x="95.410156"/>
       <use xlink:href="#DejaVuSans-30" x="159.033203"/>
       <use xlink:href="#DejaVuSans-36" x="222.65625"/>
      </g>
     </g>
    </g>
    <g id="ytick_7">
     <g id="line2d_13">
      <g>
       <use xlink:href="#me0c9691eb5" x="64.8" y="182.475" style="stroke: #000000; stroke-width: 0.8"/>
      </g>
     </g>
     <g id="text_14">
      <!-- 0.007 -->
      <g transform="translate(29.171875 186.274219) scale(0.1 -0.1)">
       <defs>
        <path id="DejaVuSans-37" d="M 525 4666 
L 3525 4666 
L 3525 4397 
L 1831 0 
L 1172 0 
L 2766 4134 
L 525 4134 
L 525 4666 
z
" transform="scale(0.015625)"/>
       </defs>
       <use xlink:href="#DejaVuSans-30"/>
       <use xlink:href="#DejaVuSans-2e" x="63.623047"/>
       <use xlink:href="#DejaVuSans-30" x="95.410156"/>
       <use xlink:href="#DejaVuSans-30" x="159.033203"/>
       <use xlink:href="#DejaVuSans-37" x="222.65625"/>
      </g>
     </g>
    </g>
    <g id="ytick_8">
     <g id="line2d_14">
      <g>
       <use xlink:href="#me0c9691eb5" x="64.8" y="126.2727" style="stroke: #000000; stroke-width: 0.8"/>
      </g>
     </g>
     <g id="text_15">
      <!-- 0.008 -->
      <g transform="translate(29.171875 130.071919) scale(0.1 -0.1)">
       <use xlink:href="#DejaVuSans-30"/>
       <use xlink:href="#DejaVuSans-2e" x="63.623047"/>
       <use xlink:href="#DejaVuSans-30" x="95.410156"/>
       <use xlink:href="#DejaVuSans-30" x="159.033203"/>
       <use xlink:href="#DejaVuSans-38" x="222.65625"/>
      </g>
     </g>
    </g>
    <g id="ytick_9">
     <g id="line2d_15">
      <g>
       <use xlink:href="#me0c9691eb5" x="64.8" y="70.0704" style="stroke: #000000; stroke-width: 0.8"/>
      </g>
     </g>
     <g id="text_16">
      <!-- 0.009 -->
      <g transform="translate(29.171875 73.869619) scale(0.1 -0.1)">
       <defs>
        <path id="DejaVuSans-39" d="M 703 97 
L 703 672 
Q 941 559 1184 500 
Q 1428 441 1663 441 
Q 2288 441 2617 861 
Q 2947 1281 2994 2138 
Q 2813 1869 2534 1725 
Q 2256 1581 1919 1581 
Q 1219 1581 811 2004 
Q 403 2428 403 3163 
Q 403 3881 828 4315 
Q 1253 4750 1959 4750 
Q 2769 4750 3195 4129 
Q 3622 3509 3622 2328 
Q 3622 1225 3098 567 
Q 2575 -91 1691 -91 
Q 1453 -91 1209 -44 
Q 966 3 703 97 
z
M 1959 2075 
Q 2384 2075 2632 2365 
Q 2881 2656 2881 3163 
Q 2881 3666 2632 3958 
Q 2384 4250 1959 4250 
Q 1534 4250 1286 3958 
Q 1038 3666 1038 3163 
Q 1038 2656 1286 2365 
Q 1534 2075 1959 2075 
z
" transform="scale(0.015625)"/>
       </defs>
       <use xlink:href="#DejaVuSans-30"/>
       <use xlink:href="#DejaVuSans-2e" x="63.623047"/>
       <use xlink:href="#DejaVuSans-30" x="95.410156"/>
       <use xlink:href="#DejaVuSans-30" x="159.033203"/>
       <use xlink:href="#DejaVuSans-39" x="222.65625"/>
      </g>
     </g>
    </g>
    <g id="text_17">
     <!-- p -->
     <g transform="translate(23.092187 298.053819) rotate(-90) scale(0.1 -0.1)">
      <defs>
       <path id="DejaVuSans-70" d="M 1159 525 
L 1159 -1331 
L 581 -1331 
L 581 3500 
L 1159 3500 
L 1159 2969 
Q 1341 3281 1617 3432 
Q 1894 3584 2278 3584 
Q 2916 3584 3314 3078 
Q 3713 2572 3713 1747 
Q 3713 922 3314 415 
Q 2916 -91 2278 -91 
Q 1894 -91 1617 61 
Q 1341 213 1159 525 
z
M 3116 1747 
Q 3116 2381 2855 2742 
Q 2594 3103 2138 3103 
Q 1681 3103 1420 2742 
Q 1159 2381 1159 1747 
Q 1159 1113 1420 752 
Q 1681 391 2138 391 
Q 2594 391 2855 752 
Q 3116 1113 3116 1747 
z
" transform="scale(0.015625)"/>
      </defs>
      <use xlink:href="#DejaVuSans-70"/>
     </g>
    </g>
   </g>
   <g id="line2d_16">
    <path d="M 64.8 396.605763 
L 66.375529 368.504613 
L 67.951059 357.826176 
L 69.526588 373.000797 
L 71.102118 379.745073 
L 72.677647 369.628659 
L 74.253176 375.248889 
L 75.828706 363.446406 
L 77.404235 369.628659 
L 78.979765 366.818544 
L 80.555294 371.314728 
L 82.130824 342.089532 
L 83.706353 381.993165 
L 85.281882 354.454038 
L 86.857412 349.395831 
L 88.432941 344.899647 
L 90.008471 368.504613 
L 91.584 360.074268 
L 93.159529 378.621027 
L 94.735059 375.810912 
L 96.310588 367.380567 
L 97.886118 367.94259 
L 99.461647 349.957854 
L 101.037176 376.372935 
L 102.612706 375.248889 
L 104.188235 362.32236 
L 107.339294 366.818544 
L 108.914824 357.826176 
L 110.490353 344.337624 
L 112.065882 344.899647 
L 113.641412 338.717394 
L 115.216941 366.256521 
L 116.792471 376.934958 
L 118.368 377.496981 
L 119.943529 361.198314 
L 121.519059 355.578084 
L 123.094588 360.636291 
L 124.670118 362.884383 
L 126.245647 354.454038 
L 127.821176 371.876751 
L 129.396706 355.578084 
L 130.972235 370.190682 
L 132.547765 358.388199 
L 134.123294 366.818544 
L 135.698824 357.264153 
L 137.274353 352.767969 
L 138.849882 344.337624 
L 140.425412 379.18305 
L 142.000941 355.016061 
L 143.576471 378.059004 
L 145.152 357.264153 
L 146.727529 360.636291 
L 148.303059 367.380567 
L 149.878588 362.32236 
L 151.454118 353.329992 
L 153.029647 363.446406 
L 154.605176 339.84144 
L 156.180706 360.636291 
L 157.756235 323.542773 
L 159.331765 362.884383 
L 160.907294 351.643923 
L 162.482824 352.205946 
L 164.058353 338.155371 
L 165.633882 379.18305 
L 167.209412 359.512245 
L 170.360471 366.256521 
L 171.936 362.884383 
L 173.511529 353.892015 
L 175.087059 353.329992 
L 176.662588 365.694498 
L 178.238118 364.008429 
L 179.813647 379.745073 
L 181.389176 366.818544 
L 182.964706 352.205946 
L 184.540235 353.329992 
L 186.115765 375.248889 
L 187.691294 368.504613 
L 189.266824 330.849072 
L 190.842353 360.074268 
L 192.417882 370.190682 
L 193.993412 368.504613 
L 195.568941 330.849072 
L 197.144471 364.570452 
L 198.72 335.907279 
L 200.295529 357.826176 
L 201.871059 357.826176 
L 203.446588 370.752705 
L 205.022118 358.388199 
L 206.597647 360.636291 
L 208.173176 349.395831 
L 209.748706 349.395831 
L 211.324235 349.957854 
L 212.899765 348.271785 
L 214.475294 339.279417 
L 216.050824 365.694498 
L 217.626353 363.446406 
L 219.201882 350.519877 
L 220.777412 367.94259 
L 222.352941 362.32236 
L 223.928471 346.023693 
L 225.504 339.279417 
L 227.079529 357.826176 
L 228.655059 364.570452 
L 230.230588 358.388199 
L 231.806118 351.0819 
L 233.381647 348.271785 
L 234.957176 357.826176 
L 236.532706 342.089532 
L 238.108235 347.709762 
L 239.683765 331.411095 
L 241.259294 376.372935 
L 242.834824 354.454038 
L 244.410353 353.892015 
L 245.985882 348.833808 
L 247.561412 360.074268 
L 249.136941 341.527509 
L 250.712471 366.256521 
L 252.288 352.767969 
L 255.439059 362.884383 
L 257.014588 328.038957 
L 258.590118 360.074268 
L 260.165647 325.790865 
L 261.741176 356.140107 
L 263.316706 357.264153 
L 264.892235 342.089532 
L 266.467765 389.861487 
L 268.043294 362.884383 
L 269.618824 370.190682 
L 271.194353 348.271785 
L 272.769882 361.198314 
L 274.345412 379.745073 
L 275.920941 380.307096 
L 277.496471 351.643923 
L 279.072 372.438774 
L 280.647529 366.256521 
L 282.223059 351.643923 
L 283.798588 346.023693 
L 285.374118 370.752705 
L 286.949647 344.899647 
L 288.525176 365.694498 
L 290.100706 359.512245 
L 291.676235 367.380567 
L 293.251765 356.140107 
L 294.827294 369.066636 
L 296.402824 351.0819 
L 297.978353 372.438774 
L 299.553882 351.0819 
L 301.129412 353.892015 
L 302.704941 369.628659 
L 304.280471 343.775601 
L 305.856 342.651555 
L 307.431529 351.0819 
L 309.007059 343.775601 
L 310.582588 385.927326 
L 312.158118 342.089532 
L 313.733647 331.411095 
L 315.309176 344.899647 
L 316.884706 370.752705 
L 318.460235 379.745073 
L 320.035765 365.132475 
L 321.611294 352.205946 
L 323.186824 369.066636 
L 324.762353 340.403463 
L 326.337882 347.147739 
L 327.913412 330.849072 
L 329.488941 366.818544 
L 331.064471 354.454038 
L 332.64 353.329992 
L 334.215529 375.248889 
L 335.791059 344.899647 
L 337.366588 349.395831 
L 338.942118 339.84144 
L 340.517647 339.279417 
L 342.093176 369.628659 
L 343.668706 370.190682 
L 345.244235 355.578084 
L 346.819765 351.643923 
L 348.395294 375.248889 
L 349.970824 348.833808 
L 351.546353 356.70213 
L 353.121882 353.329992 
L 354.697412 357.264153 
L 356.272941 365.694498 
L 357.848471 359.512245 
L 359.424 352.767969 
L 360.999529 340.965486 
L 362.575059 356.70213 
L 364.150588 345.46167 
L 365.726118 331.973118 
L 367.301647 377.496981 
L 368.877176 361.760337 
L 370.452706 371.876751 
L 372.028235 366.256521 
L 373.603765 345.46167 
L 375.179294 354.454038 
L 376.754824 361.198314 
L 378.330353 343.775601 
L 379.905882 359.512245 
L 381.481412 348.833808 
L 383.056941 365.694498 
L 384.632471 342.651555 
L 386.208 369.628659 
L 387.783529 365.694498 
L 389.359059 352.205946 
L 390.934588 349.395831 
L 392.510118 351.0819 
L 394.085647 348.833808 
L 395.661176 357.264153 
L 397.236706 352.205946 
L 398.812235 356.70213 
L 400.387765 337.031325 
L 401.963294 340.403463 
L 403.538824 353.892015 
L 405.114353 352.767969 
L 406.689882 370.190682 
L 408.265412 346.585716 
L 409.840941 347.147739 
L 411.416471 333.659187 
L 412.992 335.345256 
L 414.567529 344.899647 
L 416.143059 338.155371 
L 417.718588 330.849072 
L 419.294118 359.512245 
L 420.869647 335.907279 
L 422.445176 360.074268 
L 424.020706 360.074268 
L 425.596235 359.512245 
L 427.171765 362.32236 
L 428.747294 365.694498 
L 430.322824 349.395831 
L 431.898353 346.585716 
L 433.473882 352.205946 
L 435.049412 346.023693 
L 436.624941 352.205946 
L 438.200471 330.849072 
L 439.776 360.074268 
L 441.351529 331.973118 
L 442.927059 358.950222 
L 444.502588 343.775601 
L 446.078118 344.899647 
L 447.653647 325.228842 
L 449.229176 355.016061 
L 450.804706 347.709762 
L 452.380235 361.198314 
L 453.955765 355.578084 
L 455.531294 353.892015 
L 457.106824 361.760337 
L 458.682353 314.550405 
L 460.257882 353.892015 
L 461.833412 342.089532 
L 463.408941 338.155371 
L 464.984471 339.84144 
L 466.56 329.163003 
L 466.56 329.163003 
" clip-path="url(#p935e05381c)" style="fill: none; stroke: #000000; stroke-opacity: 0.9; stroke-width: 1.5; stroke-linecap: square"/>
   </g>
   <g id="line2d_17">
    <path d="M 64.8 185.847138 
L 66.375529 240.363369 
L 67.951059 254.413944 
L 69.526588 279.142956 
L 71.102118 264.530358 
L 72.677647 292.631508 
L 74.253176 298.251738 
L 75.828706 312.864336 
L 77.404235 248.231691 
L 78.979765 283.63914 
L 80.555294 297.127692 
L 82.130824 328.038957 
L 83.706353 299.375784 
L 85.281882 324.104796 
L 86.857412 316.798497 
L 88.432941 352.205946 
L 90.008471 219.006495 
L 91.584 287.011278 
L 93.159529 258.348105 
L 94.735059 320.170635 
L 96.310588 302.747922 
L 97.886118 311.178267 
L 99.461647 328.038957 
L 101.037176 375.810912 
L 102.612706 288.135324 
L 104.188235 311.74029 
L 105.763765 331.411095 
L 107.339294 361.198314 
L 108.914824 317.36052 
L 110.490353 364.570452 
L 112.065882 379.745073 
L 113.641412 384.80328 
L 115.216941 239.239323 
L 116.792471 285.887232 
L 118.368 296.003646 
L 119.943529 326.914911 
L 121.519059 298.813761 
L 123.094588 334.22121 
L 124.670118 339.84144 
L 126.245647 346.585716 
L 127.821176 277.456887 
L 129.396706 336.469302 
L 130.972235 328.038957 
L 132.547765 347.709762 
L 134.123294 338.155371 
L 135.698824 357.826176 
L 137.274353 383.679234 
L 138.849882 402.225993 
L 140.425412 296.565669 
L 142.000941 325.790865 
L 143.576471 334.22121 
L 145.152 366.256521 
L 146.727529 357.264153 
L 148.303059 344.899647 
L 149.878588 362.884383 
L 151.454118 398.291832 
L 153.029647 311.178267 
L 154.605176 376.934958 
L 156.180706 374.686866 
L 157.756235 379.18305 
L 159.331765 369.066636 
L 160.907294 377.496981 
L 162.482824 382.555188 
L 164.058353 417.400614 
L 165.633882 247.669668 
L 167.209412 281.953071 
L 168.784941 292.631508 
L 170.360471 343.213578 
L 171.936 284.201163 
L 173.511529 328.038957 
L 175.087059 330.287049 
L 176.662588 366.256521 
L 178.238118 286.449255 
L 179.813647 349.395831 
L 181.389176 313.988382 
L 182.964706 366.818544 
L 184.540235 322.98075 
L 186.115765 351.0819 
L 189.266824 387.051372 
L 190.842353 287.573301 
L 192.417882 333.097164 
L 193.993412 315.112428 
L 195.568941 369.628659 
L 197.144471 328.038957 
L 198.72 365.694498 
L 200.295529 365.694498 
L 201.871059 379.18305 
L 203.446588 311.74029 
L 205.022118 352.767969 
L 206.597647 362.32236 
L 208.173176 389.861487 
L 209.748706 361.198314 
L 211.324235 376.934958 
L 212.899765 394.357671 
L 214.475294 416.276568 
L 216.050824 268.464519 
L 217.626353 320.170635 
L 219.201882 318.484566 
L 220.777412 367.380567 
L 222.352941 299.375784 
L 223.928471 381.431142 
L 225.504 352.205946 
L 227.079529 396.605763 
L 228.655059 321.294681 
L 230.230588 351.0819 
L 231.806118 347.709762 
L 233.381647 398.853855 
L 234.957176 338.717394 
L 236.532706 380.307096 
L 238.108235 378.059004 
L 239.683765 405.036108 
L 241.259294 340.965486 
L 242.834824 363.446406 
L 244.410353 355.578084 
L 245.985882 388.175418 
L 247.561412 358.388199 
L 249.136941 397.729809 
L 250.712471 402.788016 
L 252.288 410.656338 
L 253.863529 366.256521 
L 255.439059 378.621027 
L 257.014588 387.051372 
L 258.590118 404.474085 
L 260.165647 412.342407 
L 261.741176 407.2842 
L 263.316706 412.90443 
L 264.892235 439.319511 
L 266.467765 229.122909 
L 268.043294 303.309945 
L 269.618824 291.507462 
L 271.194353 347.147739 
L 272.769882 294.8796 
L 274.345412 330.849072 
L 275.920941 320.732658 
L 277.496471 361.198314 
L 279.072 301.061853 
L 280.647529 319.608612 
L 282.223059 320.170635 
L 283.798588 373.56282 
L 285.374118 328.038957 
L 286.949647 358.388199 
L 288.525176 348.271785 
L 290.100706 378.059004 
L 291.676235 287.573301 
L 293.251765 317.36052 
L 294.827294 324.666819 
L 296.402824 369.066636 
L 297.978353 339.279417 
L 299.553882 367.94259 
L 301.129412 355.016061 
L 302.704941 403.912062 
L 304.280471 324.104796 
L 305.856 357.264153 
L 307.431529 351.0819 
L 309.007059 383.679234 
L 310.582588 363.446406 
L 312.158118 396.605763 
L 313.733647 391.547556 
L 315.309176 411.218361 
L 316.884706 289.821393 
L 318.460235 332.535141 
L 320.035765 334.22121 
L 321.611294 379.18305 
L 323.186824 343.213578 
L 324.762353 363.446406 
L 326.337882 360.074268 
L 327.913412 392.109579 
L 329.488941 315.112428 
L 331.064471 366.818544 
L 334.215529 376.934958 
L 335.791059 359.512245 
L 337.366588 385.365303 
L 338.942118 378.059004 
L 340.517647 412.342407 
L 342.093176 324.666819 
L 343.668706 371.314728 
L 345.244235 358.388199 
L 346.819765 394.919694 
L 348.395294 349.957854 
L 349.970824 385.927326 
L 351.546353 399.977901 
L 353.121882 424.706913 
L 354.697412 369.628659 
L 356.272941 379.745073 
L 357.848471 394.357671 
L 359.424 403.350039 
L 360.999529 365.132475 
L 362.575059 419.086683 
L 364.150588 396.04374 
L 365.726118 448.873902 
L 367.301647 283.077117 
L 368.877176 340.403463 
L 370.452706 335.345256 
L 372.028235 362.884383 
L 373.603765 315.112428 
L 375.179294 352.767969 
L 376.754824 347.147739 
L 378.330353 409.532292 
L 379.905882 314.550405 
L 381.481412 379.745073 
L 383.056941 361.198314 
L 384.632471 406.722177 
L 386.208 369.628659 
L 387.783529 387.051372 
L 389.359059 394.357671 
L 390.934588 412.90443 
L 392.510118 313.988382 
L 394.085647 363.446406 
L 395.661176 370.752705 
L 397.236706 391.547556 
L 398.812235 349.957854 
L 400.387765 387.613395 
L 401.963294 393.233625 
L 403.538824 406.160154 
L 405.114353 351.0819 
L 406.689882 387.613395 
L 408.265412 381.431142 
L 409.840941 415.714545 
L 411.416471 396.605763 
L 412.992 397.729809 
L 414.567529 422.458821 
L 416.143059 434.261304 
L 417.718588 332.535141 
L 419.294118 348.833808 
L 420.869647 376.372935 
L 422.445176 401.101947 
L 424.020706 350.519877 
L 425.596235 396.605763 
L 427.171765 401.101947 
L 428.747294 404.474085 
L 430.322824 374.124843 
L 431.898353 388.175418 
L 433.473882 390.985533 
L 435.049412 416.276568 
L 436.624941 393.795648 
L 438.200471 413.466453 
L 439.776 424.14489 
L 441.351529 438.195465 
L 442.927059 388.737441 
L 444.502588 370.752705 
L 446.078118 384.80328 
L 447.653647 422.458821 
L 449.229176 378.621027 
L 450.804706 414.590499 
L 452.380235 402.225993 
L 453.955765 426.955005 
L 455.531294 396.605763 
L 457.106824 408.408246 
L 458.682353 443.253672 
L 460.257882 432.575235 
L 461.833412 410.656338 
L 463.408941 446.063787 
L 464.984471 437.071419 
L 466.56 464.048523 
L 466.56 464.048523 
" clip-path="url(#p935e05381c)" style="fill: none; stroke: #808080; stroke-opacity: 0.5; stroke-width: 1.5; stroke-linecap: square"/>
   </g>
   <g id="line2d_18">
    <path d="M 64.8 466.858638 
L 66.375529 465.734592 
L 67.951059 461.238408 
L 69.526588 442.129626 
L 71.102118 462.362454 
L 72.677647 415.714545 
L 74.253176 444.939741 
L 75.828706 397.729809 
L 77.404235 449.435925 
L 78.979765 413.466453 
L 80.555294 439.881534 
L 82.130824 400.539924 
L 83.706353 433.137258 
L 85.281882 411.780384 
L 86.857412 398.291832 
L 88.432941 360.074268 
L 90.008471 456.180201 
L 91.584 433.137258 
L 93.159529 427.517028 
L 94.735059 405.036108 
L 96.310588 428.079051 
L 97.886118 398.853855 
L 99.461647 406.722177 
L 101.037176 382.555188 
L 102.612706 428.079051 
L 104.188235 398.853855 
L 105.763765 384.80328 
L 107.339294 389.299464 
L 108.914824 420.772752 
L 110.490353 355.016061 
L 112.065882 370.752705 
L 113.641412 324.666819 
L 115.216941 454.494132 
L 116.792471 434.823327 
L 118.368 420.210729 
L 119.943529 411.780384 
L 121.519059 441.567603 
L 123.094588 404.474085 
L 124.670118 408.408246 
L 126.245647 355.578084 
L 127.821176 424.14489 
L 129.396706 402.225993 
L 130.972235 411.780384 
L 132.547765 373.56282 
L 134.123294 396.04374 
L 135.698824 346.585716 
L 137.274353 361.760337 
L 138.849882 312.864336 
L 140.425412 439.319511 
L 142.000941 389.299464 
L 143.576471 385.365303 
L 145.152 369.066636 
L 146.727529 418.52466 
L 148.303059 358.950222 
L 149.878588 376.372935 
L 151.454118 324.104796 
L 153.029647 390.985533 
L 154.605176 364.008429 
L 156.180706 366.256521 
L 157.756235 305.558037 
L 159.331765 362.884383 
L 160.907294 308.930175 
L 162.482824 308.368152 
L 164.058353 283.63914 
L 165.633882 443.815695 
L 167.209412 435.38535 
L 168.784941 422.458821 
L 170.360471 403.912062 
L 171.936 430.889166 
L 173.511529 381.993165 
L 175.087059 411.780384 
L 176.662588 368.504613 
L 178.238118 442.129626 
L 179.813647 411.218361 
L 181.389176 404.474085 
L 182.964706 346.585716 
L 184.540235 392.109579 
L 186.115765 370.752705 
L 187.691294 380.869119 
L 189.266824 326.352888 
L 190.842353 417.400614 
L 192.417882 410.656338 
L 193.993412 408.408246 
L 195.568941 355.578084 
L 197.144471 419.086683 
L 198.72 361.198314 
L 200.295529 348.833808 
L 201.871059 313.426359 
L 203.446588 399.415878 
L 205.022118 376.372935 
L 206.597647 380.869119 
L 208.173176 287.573301 
L 209.748706 370.752705 
L 211.324235 332.535141 
L 212.899765 307.806129 
L 214.475294 264.530358 
L 216.050824 418.52466 
L 217.626353 408.408246 
L 219.201882 389.299464 
L 220.777412 355.578084 
L 222.352941 402.225993 
L 223.928471 358.388199 
L 225.504 365.132475 
L 227.079529 326.914911 
L 228.655059 396.605763 
L 230.230588 359.512245 
L 231.806118 347.709762 
L 233.381647 325.228842 
L 234.957176 358.388199 
L 236.532706 307.244106 
L 238.108235 323.542773 
L 239.683765 253.851921 
L 241.259294 423.582867 
L 242.834824 373.56282 
L 244.410353 375.810912 
L 245.985882 312.864336 
L 247.561412 372.438774 
L 249.136941 336.469302 
L 250.712471 336.469302 
L 252.288 278.580933 
L 253.863529 354.454038 
L 255.439059 298.251738 
L 257.014588 321.294681 
L 258.590118 297.689715 
L 260.165647 324.666819 
L 261.741176 246.545622 
L 263.316706 269.026542 
L 264.892235 199.33569 
L 266.467765 452.24604 
L 268.043294 430.327143 
L 269.618824 441.567603 
L 271.194353 414.028476 
L 272.769882 433.137258 
L 274.345412 397.729809 
L 275.920941 402.225993 
L 277.496471 361.760337 
L 279.072 438.757488 
L 280.647529 398.291832 
L 282.223059 388.737441 
L 283.798588 365.132475 
L 285.374118 398.853855 
L 286.949647 370.752705 
L 288.525176 369.066636 
L 290.100706 306.12006 
L 291.676235 428.079051 
L 293.251765 397.167786 
L 294.827294 392.109579 
L 296.402824 340.403463 
L 297.978353 421.334775 
L 299.553882 361.760337 
L 301.129412 373.000797 
L 302.704941 328.60098 
L 304.280471 390.985533 
L 305.856 348.833808 
L 307.431529 376.372935 
L 309.007059 297.127692 
L 310.582588 368.504613 
L 312.158118 310.054221 
L 313.733647 325.790865 
L 315.309176 266.77845 
L 316.884706 423.582867 
L 318.460235 395.481717 
L 320.035765 403.350039 
L 321.611294 373.000797 
L 323.186824 399.977901 
L 324.762353 378.621027 
L 326.337882 384.241257 
L 327.913412 311.178267 
L 329.488941 386.489349 
L 331.064471 351.0819 
L 332.64 363.446406 
L 334.215529 335.345256 
L 335.791059 359.512245 
L 337.366588 339.84144 
L 338.942118 357.264153 
L 340.517647 270.150588 
L 342.093176 417.400614 
L 343.668706 374.124843 
L 345.244235 362.884383 
L 346.819765 322.98075 
L 348.395294 366.818544 
L 349.970824 304.433991 
L 351.546353 298.813761 
L 353.121882 245.983599 
L 354.697412 361.760337 
L 356.272941 310.616244 
L 357.848471 329.725026 
L 359.424 225.188748 
L 360.999529 310.616244 
L 362.575059 280.829025 
L 364.150588 272.960703 
L 365.726118 213.386265 
L 367.301647 426.392982 
L 368.877176 395.481717 
L 370.452706 403.350039 
L 372.028235 353.329992 
L 373.603765 396.04374 
L 375.179294 354.454038 
L 376.754824 374.686866 
L 378.330353 337.593348 
L 379.905882 398.853855 
L 381.481412 361.760337 
L 383.056941 367.380567 
L 384.632471 318.484566 
L 386.208 376.934958 
L 387.783529 317.36052 
L 389.359059 312.864336 
L 390.934588 284.201163 
L 392.510118 401.66397 
L 394.085647 368.504613 
L 395.661176 362.884383 
L 397.236706 305.558037 
L 398.812235 370.752705 
L 400.387765 315.674451 
L 401.963294 323.542773 
L 403.538824 238.115277 
L 405.114353 345.46167 
L 406.689882 309.492198 
L 408.265412 328.038957 
L 409.840941 279.704979 
L 411.416471 335.345256 
L 412.992 243.735507 
L 414.567529 248.793714 
L 416.143059 180.226908 
L 417.718588 405.036108 
L 419.294118 362.32236 
L 420.869647 352.205946 
L 422.445176 307.244106 
L 424.020706 366.256521 
L 425.596235 318.484566 
L 427.171765 338.717394 
L 428.747294 267.902496 
L 430.322824 372.438774 
L 431.898353 331.411095 
L 433.473882 328.60098 
L 435.049412 253.289898 
L 436.624941 324.666819 
L 438.200471 269.026542 
L 439.776 270.712611 
L 441.351529 209.452104 
L 442.927059 378.059004 
L 444.502588 338.155371 
L 446.078118 301.623876 
L 447.653647 253.289898 
L 449.229176 326.914911 
L 450.804706 258.348105 
L 452.380235 282.515094 
L 453.955765 210.57615 
L 455.531294 322.98075 
L 457.106824 270.712611 
L 458.682353 258.348105 
L 460.257882 192.029391 
L 461.833412 253.289898 
L 463.408941 208.890081 
L 464.984471 173.482632 
L 466.56 124.586631 
L 466.56 124.586631 
" clip-path="url(#p935e05381c)" style="fill: none; stroke: #008000; stroke-opacity: 0.5; stroke-width: 1.5; stroke-linecap: square"/>
   </g>
   <g id="line2d_19">
    <path d="M 64.8 343.775601 
L 67.951059 367.94259 
L 69.526588 348.271785 
L 71.102118 353.329992 
L 72.677647 348.271785 
L 74.253176 357.826176 
L 75.828706 370.190682 
L 77.404235 355.016061 
L 78.979765 359.512245 
L 80.555294 366.818544 
L 82.130824 375.248889 
L 83.706353 335.345256 
L 85.281882 340.403463 
L 86.857412 358.950222 
L 88.432941 356.70213 
L 90.008471 357.826176 
L 91.584 367.94259 
L 93.159529 356.140107 
L 94.735059 355.578084 
L 96.310588 353.329992 
L 97.886118 362.884383 
L 99.461647 342.089532 
L 101.037176 355.016061 
L 102.612706 344.337624 
L 104.188235 351.643923 
L 105.763765 339.279417 
L 107.339294 361.760337 
L 108.914824 355.016061 
L 110.490353 366.256521 
L 112.065882 364.570452 
L 113.641412 350.519877 
L 115.216941 342.089532 
L 116.792471 352.205946 
L 118.368 341.527509 
L 119.943529 374.124843 
L 121.519059 373.000797 
L 123.094588 366.256521 
L 124.670118 355.578084 
L 126.245647 357.264153 
L 127.821176 351.643923 
L 129.396706 367.94259 
L 130.972235 341.527509 
L 132.547765 361.760337 
L 134.123294 358.950222 
L 135.698824 361.760337 
L 137.274353 341.527509 
L 138.849882 380.869119 
L 140.425412 344.337624 
L 142.000941 356.140107 
L 143.576471 351.643923 
L 145.152 358.950222 
L 146.727529 351.643923 
L 148.303059 378.621027 
L 149.878588 349.395831 
L 151.454118 362.32236 
L 153.029647 346.585716 
L 154.605176 345.46167 
L 156.180706 369.628659 
L 157.756235 381.993165 
L 159.331765 351.0819 
L 160.907294 342.089532 
L 162.482824 355.016061 
L 164.058353 351.0819 
L 165.633882 344.337624 
L 167.209412 375.248889 
L 168.784941 346.585716 
L 170.360471 327.476934 
L 171.936 349.395831 
L 173.511529 348.833808 
L 175.087059 362.884383 
L 176.662588 355.578084 
L 178.238118 364.008429 
L 179.813647 357.264153 
L 181.389176 361.760337 
L 182.964706 347.709762 
L 184.540235 351.643923 
L 186.115765 363.446406 
L 187.691294 349.957854 
L 189.266824 364.570452 
L 190.842353 347.147739 
L 192.417882 340.403463 
L 193.993412 344.337624 
L 195.568941 334.22121 
L 197.144471 345.46167 
L 198.72 339.84144 
L 200.295529 338.155371 
L 201.871059 367.380567 
L 203.446588 344.337624 
L 205.022118 344.337624 
L 206.597647 361.760337 
L 208.173176 352.205946 
L 209.748706 363.446406 
L 211.324235 390.42351 
L 212.899765 359.512245 
L 214.475294 348.271785 
L 216.050824 357.264153 
L 217.626353 358.388199 
L 219.201882 376.934958 
L 220.777412 353.329992 
L 222.352941 348.833808 
L 223.928471 362.32236 
L 225.504 366.818544 
L 227.079529 331.411095 
L 228.655059 360.636291 
L 230.230588 362.32236 
L 231.806118 344.899647 
L 233.381647 369.628659 
L 234.957176 355.578084 
L 236.532706 360.074268 
L 238.108235 331.411095 
L 239.683765 347.147739 
L 241.259294 354.454038 
L 242.834824 384.80328 
L 244.410353 348.833808 
L 245.985882 371.314728 
L 247.561412 356.70213 
L 249.136941 347.709762 
L 250.712471 353.329992 
L 252.288 358.388199 
L 253.863529 369.066636 
L 255.439059 354.454038 
L 257.014588 352.767969 
L 258.590118 355.016061 
L 260.165647 376.934958 
L 261.741176 364.570452 
L 263.316706 342.089532 
L 264.892235 371.876751 
L 266.467765 337.593348 
L 268.043294 353.892015 
L 269.618824 347.147739 
L 271.194353 350.519877 
L 272.769882 352.767969 
L 274.345412 351.643923 
L 275.920941 348.271785 
L 277.496471 354.454038 
L 279.072 375.248889 
L 280.647529 351.643923 
L 282.223059 357.826176 
L 283.798588 362.32236 
L 285.374118 352.767969 
L 286.949647 357.826176 
L 288.525176 343.213578 
L 290.100706 377.496981 
L 291.676235 345.46167 
L 293.251765 343.775601 
L 294.827294 334.783233 
L 296.402824 339.84144 
L 297.978353 343.775601 
L 299.553882 364.008429 
L 301.129412 343.775601 
L 302.704941 369.628659 
L 304.280471 331.973118 
L 305.856 337.593348 
L 307.431529 351.0819 
L 309.007059 348.271785 
L 310.582588 358.950222 
L 312.158118 356.70213 
L 313.733647 365.694498 
L 315.309176 354.454038 
L 316.884706 319.608612 
L 318.460235 347.147739 
L 320.035765 347.147739 
L 321.611294 387.051372 
L 323.186824 356.70213 
L 324.762353 343.213578 
L 326.337882 359.512245 
L 327.913412 362.884383 
L 329.488941 362.884383 
L 331.064471 372.438774 
L 332.64 353.329992 
L 334.215529 335.907279 
L 335.791059 357.826176 
L 337.366588 342.651555 
L 338.942118 353.892015 
L 340.517647 353.892015 
L 342.093176 346.023693 
L 343.668706 335.907279 
L 345.244235 357.264153 
L 346.819765 349.957854 
L 348.395294 361.198314 
L 349.970824 365.694498 
L 351.546353 358.388199 
L 353.121882 358.950222 
L 354.697412 355.016061 
L 356.272941 356.70213 
L 357.848471 345.46167 
L 359.424 365.694498 
L 360.999529 353.329992 
L 362.575059 358.388199 
L 364.150588 368.504613 
L 365.726118 371.314728 
L 367.301647 362.884383 
L 368.877176 347.709762 
L 370.452706 361.760337 
L 372.028235 340.965486 
L 373.603765 355.016061 
L 375.179294 351.643923 
L 376.754824 371.314728 
L 378.330353 352.767969 
L 379.905882 348.833808 
L 381.481412 353.892015 
L 383.056941 361.198314 
L 384.632471 376.934958 
L 386.208 359.512245 
L 387.783529 372.438774 
L 389.359059 360.636291 
L 390.934588 350.519877 
L 392.510118 360.636291 
L 394.085647 347.147739 
L 395.661176 379.18305 
L 397.236706 353.329992 
L 398.812235 359.512245 
L 400.387765 372.438774 
L 401.963294 353.892015 
L 403.538824 343.775601 
L 405.114353 362.884383 
L 406.689882 353.329992 
L 408.265412 360.074268 
L 409.840941 331.973118 
L 411.416471 361.760337 
L 412.992 371.314728 
L 414.567529 356.140107 
L 416.143059 358.388199 
L 417.718588 367.94259 
L 419.294118 334.22121 
L 420.869647 347.147739 
L 422.445176 366.256521 
L 424.020706 364.008429 
L 425.596235 373.56282 
L 427.171765 361.760337 
L 428.747294 362.32236 
L 430.322824 357.826176 
L 431.898353 360.074268 
L 433.473882 364.008429 
L 435.049412 350.519877 
L 436.624941 357.826176 
L 438.200471 363.446406 
L 439.776 367.94259 
L 441.351529 386.489349 
L 442.927059 360.636291 
L 444.502588 376.934958 
L 446.078118 364.008429 
L 447.653647 342.089532 
L 449.229176 360.636291 
L 450.804706 352.767969 
L 452.380235 366.818544 
L 453.955765 364.570452 
L 455.531294 369.628659 
L 457.106824 360.074268 
L 458.682353 371.876751 
L 460.257882 371.876751 
L 461.833412 364.570452 
L 463.408941 364.570452 
L 464.984471 353.329992 
L 466.56 370.752705 
L 466.56 370.752705 
" clip-path="url(#p935e05381c)" style="fill: none; stroke: #ff0000; stroke-opacity: 0.7; stroke-width: 1.5; stroke-linecap: square"/>
   </g>
   <g id="line2d_20">
    <path d="M 64.8 351.643923 
L 66.375529 312.864336 
L 67.951059 333.659187 
L 69.526588 352.767969 
L 71.102118 361.760337 
L 72.677647 323.542773 
L 74.253176 349.957854 
L 75.828706 358.950222 
L 77.404235 338.717394 
L 78.979765 352.205946 
L 80.555294 335.345256 
L 82.130824 373.000797 
L 83.706353 334.22121 
L 85.281882 346.585716 
L 86.857412 353.329992 
L 88.432941 356.140107 
L 90.008471 334.22121 
L 91.584 354.454038 
L 93.159529 327.476934 
L 94.735059 357.264153 
L 96.310588 349.957854 
L 97.886118 355.578084 
L 99.461647 365.694498 
L 101.037176 385.927326 
L 102.612706 355.016061 
L 104.188235 354.454038 
L 105.763765 357.826176 
L 107.339294 348.833808 
L 108.914824 350.519877 
L 110.490353 348.271785 
L 112.065882 373.000797 
L 113.641412 340.965486 
L 115.216941 347.709762 
L 116.792471 353.329992 
L 118.368 318.484566 
L 119.943529 364.008429 
L 121.519059 353.329992 
L 123.094588 356.70213 
L 124.670118 343.213578 
L 126.245647 368.504613 
L 127.821176 340.965486 
L 129.396706 351.0819 
L 130.972235 353.892015 
L 132.547765 334.22121 
L 134.123294 378.059004 
L 135.698824 359.512245 
L 137.274353 360.636291 
L 138.849882 368.504613 
L 140.425412 345.46167 
L 142.000941 361.760337 
L 143.576471 352.767969 
L 145.152 364.008429 
L 146.727529 340.965486 
L 148.303059 380.869119 
L 149.878588 371.876751 
L 151.454118 336.469302 
L 153.029647 350.519877 
L 154.605176 342.651555 
L 156.180706 356.140107 
L 157.756235 358.950222 
L 159.331765 358.388199 
L 160.907294 371.876751 
L 162.482824 360.074268 
L 164.058353 362.884383 
L 165.633882 331.411095 
L 167.209412 351.643923 
L 168.784941 341.527509 
L 170.360471 354.454038 
L 171.936 319.046589 
L 173.511529 358.388199 
L 175.087059 361.198314 
L 176.662588 346.585716 
L 178.238118 338.717394 
L 179.813647 367.380567 
L 181.389176 343.213578 
L 182.964706 364.008429 
L 184.540235 361.760337 
L 186.115765 342.651555 
L 187.691294 366.818544 
L 189.266824 353.892015 
L 190.842353 337.031325 
L 192.417882 358.388199 
L 193.993412 334.783233 
L 195.568941 357.264153 
L 197.144471 360.636291 
L 198.72 346.585716 
L 200.295529 347.147739 
L 201.871059 350.519877 
L 203.446588 342.651555 
L 205.022118 367.94259 
L 206.597647 367.94259 
L 208.173176 363.446406 
L 209.748706 344.899647 
L 211.324235 359.512245 
L 212.899765 364.008429 
L 214.475294 371.314728 
L 216.050824 346.585716 
L 217.626353 353.329992 
L 219.201882 366.818544 
L 220.777412 356.70213 
L 222.352941 364.570452 
L 223.928471 353.892015 
L 225.504 344.337624 
L 227.079529 360.074268 
L 228.655059 380.869119 
L 230.230588 355.578084 
L 231.806118 359.512245 
L 233.381647 353.329992 
L 234.957176 339.279417 
L 236.532706 361.760337 
L 238.108235 347.147739 
L 239.683765 355.016061 
L 241.259294 354.454038 
L 242.834824 350.519877 
L 244.410353 357.264153 
L 245.985882 348.271785 
L 247.561412 371.314728 
L 249.136941 350.519877 
L 250.712471 371.876751 
L 252.288 371.876751 
L 253.863529 356.140107 
L 255.439059 378.621027 
L 257.014588 343.775601 
L 258.590118 383.117211 
L 260.165647 351.0819 
L 261.741176 367.380567 
L 263.316706 342.651555 
L 264.892235 361.198314 
L 266.467765 337.031325 
L 268.043294 350.519877 
L 269.618824 321.856704 
L 271.194353 353.892015 
L 272.769882 354.454038 
L 274.345412 338.155371 
L 275.920941 373.000797 
L 277.496471 369.628659 
L 279.072 341.527509 
L 280.647529 373.56282 
L 282.223059 374.686866 
L 283.798588 349.395831 
L 285.374118 344.337624 
L 286.949647 357.826176 
L 288.525176 353.329992 
L 290.100706 356.70213 
L 291.676235 333.659187 
L 293.251765 355.578084 
L 294.827294 343.213578 
L 296.402824 348.833808 
L 297.978353 344.337624 
L 299.553882 362.32236 
L 301.129412 354.454038 
L 302.704941 358.950222 
L 304.280471 349.395831 
L 305.856 366.256521 
L 307.431529 356.140107 
L 309.007059 378.621027 
L 310.582588 344.337624 
L 312.158118 369.628659 
L 313.733647 350.519877 
L 315.309176 371.876751 
L 316.884706 340.403463 
L 318.460235 374.124843 
L 320.035765 351.643923 
L 321.611294 362.884383 
L 323.186824 356.140107 
L 324.762353 369.628659 
L 326.337882 350.519877 
L 327.913412 352.767969 
L 329.488941 348.271785 
L 331.064471 334.22121 
L 332.64 363.446406 
L 334.215529 354.454038 
L 335.791059 356.140107 
L 337.366588 384.241257 
L 338.942118 362.884383 
L 340.517647 358.388199 
L 342.093176 361.198314 
L 343.668706 371.876751 
L 345.244235 348.271785 
L 346.819765 368.504613 
L 348.395294 357.826176 
L 349.970824 375.810912 
L 351.546353 351.0819 
L 353.121882 358.388199 
L 354.697412 345.46167 
L 356.272941 355.578084 
L 357.848471 356.70213 
L 359.424 374.686866 
L 360.999529 349.957854 
L 362.575059 376.372935 
L 364.150588 360.074268 
L 365.726118 369.628659 
L 367.301647 344.337624 
L 368.877176 356.70213 
L 370.452706 362.884383 
L 372.028235 370.190682 
L 373.603765 344.337624 
L 375.179294 331.973118 
L 376.754824 349.957854 
L 378.330353 381.993165 
L 379.905882 350.519877 
L 381.481412 338.155371 
L 384.632471 370.190682 
L 386.208 361.760337 
L 387.783529 364.008429 
L 389.359059 369.066636 
L 390.934588 378.059004 
L 392.510118 356.140107 
L 394.085647 347.709762 
L 395.661176 367.380567 
L 397.236706 371.314728 
L 398.812235 356.70213 
L 400.387765 352.767969 
L 401.963294 337.593348 
L 403.538824 358.950222 
L 405.114353 349.395831 
L 406.689882 366.256521 
L 408.265412 363.446406 
L 409.840941 371.876751 
L 411.416471 366.256521 
L 412.992 380.307096 
L 414.567529 374.686866 
L 416.143059 366.256521 
L 417.718588 353.892015 
L 419.294118 336.469302 
L 420.869647 371.876751 
L 422.445176 355.016061 
L 424.020706 354.454038 
L 425.596235 376.372935 
L 427.171765 361.198314 
L 428.747294 365.132475 
L 430.322824 364.008429 
L 431.898353 361.198314 
L 433.473882 355.578084 
L 435.049412 355.578084 
L 436.624941 354.454038 
L 438.200471 367.94259 
L 439.776 376.372935 
L 441.351529 375.810912 
L 442.927059 371.876751 
L 444.502588 346.585716 
L 446.078118 365.132475 
L 447.653647 366.818544 
L 449.229176 349.395831 
L 450.804706 375.248889 
L 452.380235 358.950222 
L 453.955765 354.454038 
L 455.531294 357.264153 
L 457.106824 355.016061 
L 458.682353 362.32236 
L 460.257882 366.818544 
L 461.833412 356.70213 
L 463.408941 366.256521 
L 464.984471 367.94259 
L 466.56 367.380567 
L 466.56 367.380567 
" clip-path="url(#p935e05381c)" style="fill: none; stroke: #0000ff; stroke-opacity: 0.7; stroke-width: 1.5; stroke-linecap: square"/>
   </g>
   <g id="patch_3">
    <path d="M 64.8 519.6888 
L 64.8 70.0704 
" style="fill: none; stroke: #000000; stroke-width: 0.8; stroke-linejoin: miter; stroke-linecap: square"/>
   </g>
   <g id="patch_4">
    <path d="M 466.56 519.6888 
L 466.56 70.0704 
" style="fill: none; stroke: #000000; stroke-width: 0.8; stroke-linejoin: miter; stroke-linecap: square"/>
   </g>
   <g id="patch_5">
    <path d="M 64.8 519.6888 
L 466.56 519.6888 
" style="fill: none; stroke: #000000; stroke-width: 0.8; stroke-linejoin: miter; stroke-linecap: square"/>
   </g>
   <g id="patch_6">
    <path d="M 64.8 70.0704 
L 466.56 70.0704 
" style="fill: none; stroke: #000000; stroke-width: 0.8; stroke-linejoin: miter; stroke-linecap: square"/>
   </g>
   <g id="text_18">
    <!-- Temperature whitening, 1 XOR -->
    <g transform="translate(174.110625 64.0704) scale(0.12 -0.12)">
     <defs>
      <path id="DejaVuSans-54" d="M -19 4666 
L 3928 4666 
L 3928 4134 
L 2272 4134 
L 2272 0 
L 1638 0 
L 1638 4134 
L -19 4134 
L -19 4666 
z
" transform="scale(0.015625)"/>
      <path id="DejaVuSans-77" d="M 269 3500 
L 844 3500 
L 1563 769 
L 2278 3500 
L 2956 3500 
L 3675 769 
L 4391 3500 
L 4966 3500 
L 4050 0 
L 3372 0 
L 2619 2869 
L 1863 0 
L 1184 0 
L 269 3500 
z
" transform="scale(0.015625)"/>
      <path id="DejaVuSans-68" d="M 3513 2113 
L 3513 0 
L 2938 0 
L 2938 2094 
Q 2938 2591 2744 2837 
Q 2550 3084 2163 3084 
Q 1697 3084 1428 2787 
Q 1159 2491 1159 1978 
L 1159 0 
L 581 0 
L 581 4863 
L 1159 4863 
L 1159 2956 
Q 1366 3272 1645 3428 
Q 1925 3584 2291 3584 
Q 2894 3584 3203 3211 
Q 3513 2838 3513 2113 
z
" transform="scale(0.015625)"/>
      <path id="DejaVuSans-67" d="M 2906 1791 
Q 2906 2416 2648 2759 
Q 2391 3103 1925 3103 
Q 1463 3103 1205 2759 
Q 947 2416 947 1791 
Q 947 1169 1205 825 
Q 1463 481 1925 481 
Q 2391 481 2648 825 
Q 2906 1169 2906 1791 
z
M 3481 434 
Q 3481 -459 3084 -895 
Q 2688 -1331 1869 -1331 
Q 1566 -1331 1297 -1286 
Q 1028 -1241 775 -1147 
L 775 -588 
Q 1028 -725 1275 -790 
Q 1522 -856 1778 -856 
Q 2344 -856 2625 -561 
Q 2906 -266 2906 331 
L 2906 616 
Q 2728 306 2450 153 
Q 2172 0 1784 0 
Q 1141 0 747 490 
Q 353 981 353 1791 
Q 353 2603 747 3093 
Q 1141 3584 1784 3584 
Q 2172 3584 2450 3431 
Q 2728 3278 2906 2969 
L 2906 3500 
L 3481 3500 
L 3481 434 
z
" transform="scale(0.015625)"/>
      <path id="DejaVuSans-2c" d="M 750 794 
L 1409 794 
L 1409 256 
L 897 -744 
L 494 -744 
L 750 256 
L 750 794 
z
" transform="scale(0.015625)"/>
      <path id="DejaVuSans-58" d="M 403 4666 
L 1081 4666 
L 2241 2931 
L 3406 4666 
L 4084 4666 
L 2584 2425 
L 4184 0 
L 3506 0 
L 2194 1984 
L 872 0 
L 191 0 
L 1856 2491 
L 403 4666 
z
" transform="scale(0.015625)"/>
      <path id="DejaVuSans-4f" d="M 2522 4238 
Q 1834 4238 1429 3725 
Q 1025 3213 1025 2328 
Q 1025 1447 1429 934 
Q 1834 422 2522 422 
Q 3209 422 3611 934 
Q 4013 1447 4013 2328 
Q 4013 3213 3611 3725 
Q 3209 4238 2522 4238 
z
M 2522 4750 
Q 3503 4750 4090 4092 
Q 4678 3434 4678 2328 
Q 4678 1225 4090 567 
Q 3503 -91 2522 -91 
Q 1538 -91 948 565 
Q 359 1222 359 2328 
Q 359 3434 948 4092 
Q 1538 4750 2522 4750 
z
" transform="scale(0.015625)"/>
      <path id="DejaVuSans-52" d="M 2841 2188 
Q 3044 2119 3236 1894 
Q 3428 1669 3622 1275 
L 4263 0 
L 3584 0 
L 2988 1197 
Q 2756 1666 2539 1819 
Q 2322 1972 1947 1972 
L 1259 1972 
L 1259 0 
L 628 0 
L 628 4666 
L 2053 4666 
Q 2853 4666 3247 4331 
Q 3641 3997 3641 3322 
Q 3641 2881 3436 2590 
Q 3231 2300 2841 2188 
z
M 1259 4147 
L 1259 2491 
L 2053 2491 
Q 2509 2491 2742 2702 
Q 2975 2913 2975 3322 
Q 2975 3731 2742 3939 
Q 2509 4147 2053 4147 
L 1259 4147 
z
" transform="scale(0.015625)"/>
     </defs>
     <use xlink:href="#DejaVuSans-54"/>
     <use xlink:href="#DejaVuSans-65" x="44.083984"/>
     <use xlink:href="#DejaVuSans-6d" x="105.607422"/>
     <use xlink:href="#DejaVuSans-70" x="203.019531"/>
     <use xlink:href="#DejaVuSans-65" x="266.496094"/>
     <use xlink:href="#DejaVuSans-72" x="328.019531"/>
     <use xlink:href="#DejaVuSans-61" x="369.132812"/>
     <use xlink:href="#DejaVuSans-74" x="430.412109"/>
     <use xlink:href="#DejaVuSans-75" x="469.621094"/>
     <use xlink:href="#DejaVuSans-72" x="533"/>
     <use xlink:href="#DejaVuSans-65" x="571.863281"/>
     <use xlink:href="#DejaVuSans-20" x="633.386719"/>
     <use xlink:href="#DejaVuSans-77" x="665.173828"/>
     <use xlink:href="#DejaVuSans-68" x="746.960938"/>
     <use xlink:href="#DejaVuSans-69" x="810.339844"/>
     <use xlink:href="#DejaVuSans-74" x="838.123047"/>
     <use xlink:href="#DejaVuSans-65" x="877.332031"/>
     <use xlink:href="#DejaVuSans-6e" x="938.855469"/>
     <use xlink:href="#DejaVuSans-69" x="1002.234375"/>
     <use xlink:href="#DejaVuSans-6e" x="1030.017578"/>
     <use xlink:href="#DejaVuSans-67" x="1093.396484"/>
     <use xlink:href="#DejaVuSans-2c" x="1156.873047"/>
     <use xlink:href="#DejaVuSans-20" x="1188.660156"/>
     <use xlink:href="#DejaVuSans-31" x="1220.447266"/>
     <use xlink:href="#DejaVuSans-20" x="1284.070312"/>
     <use xlink:href="#DejaVuSans-58" x="1315.857422"/>
     <use xlink:href="#DejaVuSans-4f" x="1377.988281"/>
     <use xlink:href="#DejaVuSans-52" x="1456.699219"/>
    </g>
   </g>
   <g id="legend_1">
    <g id="patch_7">
     <path d="M 350.985 151.461025 
L 459.56 151.461025 
Q 461.56 151.461025 461.56 149.461025 
L 461.56 77.0704 
Q 461.56 75.0704 459.56 75.0704 
L 350.985 75.0704 
Q 348.985 75.0704 348.985 77.0704 
L 348.985 149.461025 
Q 348.985 151.461025 350.985 151.461025 
z
" style="fill: #ffffff; opacity: 0.8; stroke: #cccccc; stroke-linejoin: miter"/>
    </g>
    <g id="line2d_21">
     <path d="M 352.985 83.168837 
L 362.985 83.168837 
L 372.985 83.168837 
" style="fill: none; stroke: #000000; stroke-opacity: 0.9; stroke-width: 1.5; stroke-linecap: square"/>
    </g>
    <g id="text_19">
     <!-- base -->
     <g transform="translate(380.985 86.668837) scale(0.1 -0.1)">
      <defs>
       <path id="DejaVuSans-73" d="M 2834 3397 
L 2834 2853 
Q 2591 2978 2328 3040 
Q 2066 3103 1784 3103 
Q 1356 3103 1142 2972 
Q 928 2841 928 2578 
Q 928 2378 1081 2264 
Q 1234 2150 1697 2047 
L 1894 2003 
Q 2506 1872 2764 1633 
Q 3022 1394 3022 966 
Q 3022 478 2636 193 
Q 2250 -91 1575 -91 
Q 1294 -91 989 -36 
Q 684 19 347 128 
L 347 722 
Q 666 556 975 473 
Q 1284 391 1588 391 
Q 1994 391 2212 530 
Q 2431 669 2431 922 
Q 2431 1156 2273 1281 
Q 2116 1406 1581 1522 
L 1381 1569 
Q 847 1681 609 1914 
Q 372 2147 372 2553 
Q 372 3047 722 3315 
Q 1072 3584 1716 3584 
Q 2034 3584 2315 3537 
Q 2597 3491 2834 3397 
z
" transform="scale(0.015625)"/>
      </defs>
      <use xlink:href="#DejaVuSans-62"/>
      <use xlink:href="#DejaVuSans-61" x="63.476562"/>
      <use xlink:href="#DejaVuSans-73" x="124.755859"/>
      <use xlink:href="#DejaVuSans-65" x="176.855469"/>
     </g>
    </g>
    <g id="line2d_22">
     <path d="M 352.985 97.846962 
L 362.985 97.846962 
L 372.985 97.846962 
" style="fill: none; stroke: #808080; stroke-opacity: 0.5; stroke-width: 1.5; stroke-linecap: square"/>
    </g>
    <g id="text_20">
     <!-- 290K, No XOR -->
     <g transform="translate(380.985 101.346962) scale(0.1 -0.1)">
      <defs>
       <path id="DejaVuSans-4b" d="M 628 4666 
L 1259 4666 
L 1259 2694 
L 3353 4666 
L 4166 4666 
L 1850 2491 
L 4331 0 
L 3500 0 
L 1259 2247 
L 1259 0 
L 628 0 
L 628 4666 
z
" transform="scale(0.015625)"/>
       <path id="DejaVuSans-6f" d="M 1959 3097 
Q 1497 3097 1228 2736 
Q 959 2375 959 1747 
Q 959 1119 1226 758 
Q 1494 397 1959 397 
Q 2419 397 2687 759 
Q 2956 1122 2956 1747 
Q 2956 2369 2687 2733 
Q 2419 3097 1959 3097 
z
M 1959 3584 
Q 2709 3584 3137 3096 
Q 3566 2609 3566 1747 
Q 3566 888 3137 398 
Q 2709 -91 1959 -91 
Q 1206 -91 779 398 
Q 353 888 353 1747 
Q 353 2609 779 3096 
Q 1206 3584 1959 3584 
z
" transform="scale(0.015625)"/>
      </defs>
      <use xlink:href="#DejaVuSans-32"/>
      <use xlink:href="#DejaVuSans-39" x="63.623047"/>
      <use xlink:href="#DejaVuSans-30" x="127.246094"/>
      <use xlink:href="#DejaVuSans-4b" x="190.869141"/>
      <use xlink:href="#DejaVuSans-2c" x="256.445312"/>
      <use xlink:href="#DejaVuSans-20" x="288.232422"/>
      <use xlink:href="#DejaVuSans-4e" x="320.019531"/>
      <use xlink:href="#DejaVuSans-6f" x="394.824219"/>
      <use xlink:href="#DejaVuSans-20" x="456.005859"/>
      <use xlink:href="#DejaVuSans-58" x="487.792969"/>
      <use xlink:href="#DejaVuSans-4f" x="549.923828"/>
      <use xlink:href="#DejaVuSans-52" x="628.634766"/>
     </g>
    </g>
    <g id="line2d_23">
     <path d="M 352.985 112.525087 
L 362.985 112.525087 
L 372.985 112.525087 
" style="fill: none; stroke: #008000; stroke-opacity: 0.5; stroke-width: 1.5; stroke-linecap: square"/>
    </g>
    <g id="text_21">
     <!-- 310K, No XOR -->
     <g transform="translate(380.985 116.025087) scale(0.1 -0.1)">
      <use xlink:href="#DejaVuSans-33"/>
      <use xlink:href="#DejaVuSans-31" x="63.623047"/>
      <use xlink:href="#DejaVuSans-30" x="127.246094"/>
      <use xlink:href="#DejaVuSans-4b" x="190.869141"/>
      <use xlink:href="#DejaVuSans-2c" x="256.445312"/>
      <use xlink:href="#DejaVuSans-20" x="288.232422"/>
      <use xlink:href="#DejaVuSans-4e" x="320.019531"/>
      <use xlink:href="#DejaVuSans-6f" x="394.824219"/>
      <use xlink:href="#DejaVuSans-20" x="456.005859"/>
      <use xlink:href="#DejaVuSans-58" x="487.792969"/>
      <use xlink:href="#DejaVuSans-4f" x="549.923828"/>
      <use xlink:href="#DejaVuSans-52" x="628.634766"/>
     </g>
    </g>
    <g id="line2d_24">
     <path d="M 352.985 127.203212 
L 362.985 127.203212 
L 372.985 127.203212 
" style="fill: none; stroke: #ff0000; stroke-opacity: 0.7; stroke-width: 1.5; stroke-linecap: square"/>
    </g>
    <g id="text_22">
     <!-- 290K, One XOR -->
     <g transform="translate(380.985 130.703212) scale(0.1 -0.1)">
      <use xlink:href="#DejaVuSans-32"/>
      <use xlink:href="#DejaVuSans-39" x="63.623047"/>
      <use xlink:href="#DejaVuSans-30" x="127.246094"/>
      <use xlink:href="#DejaVuSans-4b" x="190.869141"/>
      <use xlink:href="#DejaVuSans-2c" x="256.445312"/>
      <use xlink:href="#DejaVuSans-20" x="288.232422"/>
      <use xlink:href="#DejaVuSans-4f" x="320.019531"/>
      <use xlink:href="#DejaVuSans-6e" x="398.730469"/>
      <use xlink:href="#DejaVuSans-65" x="462.109375"/>
      <use xlink:href="#DejaVuSans-20" x="523.632812"/>
      <use xlink:href="#DejaVuSans-58" x="555.419922"/>
      <use xlink:href="#DejaVuSans-4f" x="617.550781"/>
      <use xlink:href="#DejaVuSans-52" x="696.261719"/>
     </g>
    </g>
    <g id="line2d_25">
     <path d="M 352.985 141.881337 
L 362.985 141.881337 
L 372.985 141.881337 
" style="fill: none; stroke: #0000ff; stroke-opacity: 0.7; stroke-width: 1.5; stroke-linecap: square"/>
    </g>
    <g id="text_23">
     <!-- 310K, One XOR -->
     <g transform="translate(380.985 145.381337) scale(0.1 -0.1)">
      <use xlink:href="#DejaVuSans-33"/>
      <use xlink:href="#DejaVuSans-31" x="63.623047"/>
      <use xlink:href="#DejaVuSans-30" x="127.246094"/>
      <use xlink:href="#DejaVuSans-4b" x="190.869141"/>
      <use xlink:href="#DejaVuSans-2c" x="256.445312"/>
      <use xlink:href="#DejaVuSans-20" x="288.232422"/>
      <use xlink:href="#DejaVuSans-4f" x="320.019531"/>
      <use xlink:href="#DejaVuSans-6e" x="398.730469"/>
      <use xlink:href="#DejaVuSans-65" x="462.109375"/>
      <use xlink:href="#DejaVuSans-20" x="523.632812"/>
      <use xlink:href="#DejaVuSans-58" x="555.419922"/>
      <use xlink:href="#DejaVuSans-4f" x="617.550781"/>
      <use xlink:href="#DejaVuSans-52" x="696.261719"/>
     </g>
    </g>
   </g>
   <g id="legend_2">
    <g id="patch_8">
     <path d="M 347.85375 514.6888 
L 459.56 514.6888 
Q 461.56 514.6888 461.56 512.6888 
L 461.56 438.6888 
Q 461.56 436.6888 459.56 436.6888 
L 347.85375 436.6888 
Q 345.85375 436.6888 345.85375 438.6888 
L 345.85375 512.6888 
Q 345.85375 514.6888 347.85375 514.6888 
z
" style="fill: #ffffff; opacity: 0.8; stroke: #cccccc; stroke-linejoin: miter"/>
    </g>
    <g id="line2d_26">
     <path d="M 349.85375 444.830987 
L 359.85375 444.830987 
L 369.85375 444.830987 
" style="fill: none; stroke: #000000; stroke-opacity: 0.9; stroke-width: 1.5; stroke-linecap: square"/>
    </g>
    <g id="text_24">
     <!-- 368.85 | 0.000 -->
     <g transform="translate(377.85375 448.330987) scale(0.1 -0.1)">
      <defs>
       <path id="DejaVuSans-7c" d="M 1344 4891 
L 1344 -1509 
L 813 -1509 
L 813 4891 
L 1344 4891 
z
" transform="scale(0.015625)"/>
      </defs>
      <use xlink:href="#DejaVuSans-33"/>
      <use xlink:href="#DejaVuSans-36" x="63.623047"/>
      <use xlink:href="#DejaVuSans-38" x="127.246094"/>
      <use xlink:href="#DejaVuSans-2e" x="190.869141"/>
      <use xlink:href="#DejaVuSans-38" x="222.65625"/>
      <use xlink:href="#DejaVuSans-35" x="286.279297"/>
      <use xlink:href="#DejaVuSans-20" x="349.902344"/>
      <use xlink:href="#DejaVuSans-7c" x="381.689453"/>
      <use xlink:href="#DejaVuSans-20" x="415.380859"/>
      <use xlink:href="#DejaVuSans-30" x="447.167969"/>
      <use xlink:href="#DejaVuSans-2e" x="510.791016"/>
      <use xlink:href="#DejaVuSans-30" x="542.578125"/>
      <use xlink:href="#DejaVuSans-30" x="606.201172"/>
      <use xlink:href="#DejaVuSans-30" x="669.824219"/>
     </g>
    </g>
    <g id="line2d_27">
     <path d="M 349.85375 459.830987 
L 359.85375 459.830987 
L 369.85375 459.830987 
" style="fill: none; stroke: #808080; stroke-opacity: 0.5; stroke-width: 1.5; stroke-linecap: square"/>
    </g>
    <g id="text_25">
     <!-- 4495.96 | 0.000 -->
     <g transform="translate(377.85375 463.330987) scale(0.1 -0.1)">
      <use xlink:href="#DejaVuSans-34"/>
      <use xlink:href="#DejaVuSans-34" x="63.623047"/>
      <use xlink:href="#DejaVuSans-39" x="127.246094"/>
      <use xlink:href="#DejaVuSans-35" x="190.869141"/>
      <use xlink:href="#DejaVuSans-2e" x="254.492188"/>
      <use xlink:href="#DejaVuSans-39" x="286.279297"/>
      <use xlink:href="#DejaVuSans-36" x="349.902344"/>
      <use xlink:href="#DejaVuSans-20" x="413.525391"/>
      <use xlink:href="#DejaVuSans-7c" x="445.3125"/>
      <use xlink:href="#DejaVuSans-20" x="479.003906"/>
      <use xlink:href="#DejaVuSans-30" x="510.791016"/>
      <use xlink:href="#DejaVuSans-2e" x="574.414062"/>
      <use xlink:href="#DejaVuSans-30" x="606.201172"/>
      <use xlink:href="#DejaVuSans-30" x="669.824219"/>
      <use xlink:href="#DejaVuSans-30" x="733.447266"/>
     </g>
    </g>
    <g id="line2d_28">
     <path d="M 349.85375 474.830987 
L 359.85375 474.830987 
L 369.85375 474.830987 
" style="fill: none; stroke: #008000; stroke-opacity: 0.5; stroke-width: 1.5; stroke-linecap: square"/>
    </g>
    <g id="text_26">
     <!-- 7857.73 | 0.000 -->
     <g transform="translate(377.85375 478.330987) scale(0.1 -0.1)">
      <use xlink:href="#DejaVuSans-37"/>
      <use xlink:href="#DejaVuSans-38" x="63.623047"/>
      <use xlink:href="#DejaVuSans-35" x="127.246094"/>
      <use xlink:href="#DejaVuSans-37" x="190.869141"/>
      <use xlink:href="#DejaVuSans-2e" x="254.492188"/>
      <use xlink:href="#DejaVuSans-37" x="286.279297"/>
      <use xlink:href="#DejaVuSans-33" x="349.902344"/>
      <use xlink:href="#DejaVuSans-20" x="413.525391"/>
      <use xlink:href="#DejaVuSans-7c" x="445.3125"/>
      <use xlink:href="#DejaVuSans-20" x="479.003906"/>
      <use xlink:href="#DejaVuSans-30" x="510.791016"/>
      <use xlink:href="#DejaVuSans-2e" x="574.414062"/>
      <use xlink:href="#DejaVuSans-30" x="606.201172"/>
      <use xlink:href="#DejaVuSans-30" x="669.824219"/>
      <use xlink:href="#DejaVuSans-30" x="733.447266"/>
     </g>
    </g>
    <g id="line2d_29">
     <path d="M 349.85375 489.830987 
L 359.85375 489.830987 
L 369.85375 489.830987 
" style="fill: none; stroke: #ff0000; stroke-opacity: 0.7; stroke-width: 1.5; stroke-linecap: square"/>
    </g>
    <g id="text_27">
     <!-- 279.05 | 0.154 -->
     <g transform="translate(377.85375 493.330987) scale(0.1 -0.1)">
      <use xlink:href="#DejaVuSans-32"/>
      <use xlink:href="#DejaVuSans-37" x="63.623047"/>
      <use xlink:href="#DejaVuSans-39" x="127.246094"/>
      <use xlink:href="#DejaVuSans-2e" x="190.869141"/>
      <use xlink:href="#DejaVuSans-30" x="222.65625"/>
      <use xlink:href="#DejaVuSans-35" x="286.279297"/>
      <use xlink:href="#DejaVuSans-20" x="349.902344"/>
      <use xlink:href="#DejaVuSans-7c" x="381.689453"/>
      <use xlink:href="#DejaVuSans-20" x="415.380859"/>
      <use xlink:href="#DejaVuSans-30" x="447.167969"/>
      <use xlink:href="#DejaVuSans-2e" x="510.791016"/>
      <use xlink:href="#DejaVuSans-31" x="542.578125"/>
      <use xlink:href="#DejaVuSans-35" x="606.201172"/>
      <use xlink:href="#DejaVuSans-34" x="669.824219"/>
     </g>
    </g>
    <g id="line2d_30">
     <path d="M 349.85375 504.830987 
L 359.85375 504.830987 
L 369.85375 504.830987 
" style="fill: none; stroke: #0000ff; stroke-opacity: 0.7; stroke-width: 1.5; stroke-linecap: square"/>
    </g>
    <g id="text_28">
     <!-- 341.46 | 0.000 -->
     <g transform="translate(377.85375 508.330987) scale(0.1 -0.1)">
      <use xlink:href="#DejaVuSans-33"/>
      <use xlink:href="#DejaVuSans-34" x="63.623047"/>
      <use xlink:href="#DejaVuSans-31" x="127.246094"/>
      <use xlink:href="#DejaVuSans-2e" x="190.869141"/>
      <use xlink:href="#DejaVuSans-34" x="222.65625"/>
      <use xlink:href="#DejaVuSans-36" x="286.279297"/>
      <use xlink:href="#DejaVuSans-20" x="349.902344"/>
      <use xlink:href="#DejaVuSans-7c" x="381.689453"/>
      <use xlink:href="#DejaVuSans-20" x="415.380859"/>
      <use xlink:href="#DejaVuSans-30" x="447.167969"/>
      <use xlink:href="#DejaVuSans-2e" x="510.791016"/>
      <use xlink:href="#DejaVuSans-30" x="542.578125"/>
      <use xlink:href="#DejaVuSans-30" x="606.201172"/>
      <use xlink:href="#DejaVuSans-30" x="669.824219"/>
     </g>
    </g>
   </g>
  </g>
 </g>
 <defs>
  <clipPath id="p935e05381c">
   <rect x="64.8" y="70.0704" width="401.76" height="449.6184"/>
  </clipPath>
 </defs>
</svg>
