<?xml version="1.0" encoding="utf-8" standalone="no"?>
<!DOCTYPE svg PUBLIC "-//W3C//DTD SVG 1.1//EN"
  "http://www.w3.org/Graphics/SVG/1.1/DTD/svg11.dtd">
<svg xmlns:xlink="http://www.w3.org/1999/xlink" width="460.8pt" height="345.6pt" viewBox="0 0 460.8 345.6" xmlns="http://www.w3.org/2000/svg" version="1.1">
 <metadata>
  <rdf:RDF xmlns:dc="http://purl.org/dc/elements/1.1/" xmlns:cc="http://creativecommons.org/ns#" xmlns:rdf="http://www.w3.org/1999/02/22-rdf-syntax-ns#">
   <cc:Work>
    <dc:type rdf:resource="http://purl.org/dc/dcmitype/StillImage"/>
    <dc:date>2024-01-26T18:10:50.295903</dc:date>
    <dc:format>image/svg+xml</dc:format>
    <dc:creator>
     <cc:Agent>
      <dc:title>Matplotlib v3.7.2, https://matplotlib.org/</dc:title>
     </cc:Agent>
    </dc:creator>
   </cc:Work>
  </rdf:RDF>
 </metadata>
 <defs>
  <style type="text/css">*{stroke-linejoin: round; stroke-linecap: butt}</style>
 </defs>
 <g id="figure_1">
  <g id="patch_1">
   <path d="M 0 345.6 
L 460.8 345.6 
L 460.8 0 
L 0 0 
z
" style="fill: #ffffff"/>
  </g>
  <g id="axes_1">
   <g id="patch_2">
    <path d="M 57.6 307.584 
L 414.72 307.584 
L 414.72 41.472 
L 57.6 41.472 
z
" style="fill: #ffffff"/>
   </g>
   <g id="matplotlib.axis_1">
    <g id="xtick_1">
     <g id="line2d_1">
      <defs>
       <path id="me135f556b9" d="M 0 0 
L 0 3.5 
" style="stroke: #000000; stroke-width: 0.8"/>
      </defs>
      <g>
       <use xlink:href="#me135f556b9" x="57.6" y="307.584" style="stroke: #000000; stroke-width: 0.8"/>
      </g>
     </g>
     <g id="text_1">
      <!-- 0 -->
      <g transform="translate(54.41875 322.182437) scale(0.1 -0.1)">
       <defs>
        <path id="DejaVuSans-30" d="M 2034 4250 
Q 1547 4250 1301 3770 
Q 1056 3291 1056 2328 
Q 1056 1369 1301 889 
Q 1547 409 2034 409 
Q 2525 409 2770 889 
Q 3016 1369 3016 2328 
Q 3016 3291 2770 3770 
Q 2525 4250 2034 4250 
z
M 2034 4750 
Q 2819 4750 3233 4129 
Q 3647 3509 3647 2328 
Q 3647 1150 3233 529 
Q 2819 -91 2034 -91 
Q 1250 -91 836 529 
Q 422 1150 422 2328 
Q 422 3509 836 4129 
Q 1250 4750 2034 4750 
z
" transform="scale(0.015625)"/>
       </defs>
       <use xlink:href="#DejaVuSans-30"/>
      </g>
     </g>
    </g>
    <g id="xtick_2">
     <g id="line2d_2">
      <g>
       <use xlink:href="#me135f556b9" x="127.623529" y="307.584" style="stroke: #000000; stroke-width: 0.8"/>
      </g>
     </g>
     <g id="text_2">
      <!-- 50 -->
      <g transform="translate(121.261029 322.182437) scale(0.1 -0.1)">
       <defs>
        <path id="DejaVuSans-35" d="M 691 4666 
L 3169 4666 
L 3169 4134 
L 1269 4134 
L 1269 2991 
Q 1406 3038 1543 3061 
Q 1681 3084 1819 3084 
Q 2600 3084 3056 2656 
Q 3513 2228 3513 1497 
Q 3513 744 3044 326 
Q 2575 -91 1722 -91 
Q 1428 -91 1123 -41 
Q 819 9 494 109 
L 494 744 
Q 775 591 1075 516 
Q 1375 441 1709 441 
Q 2250 441 2565 725 
Q 2881 1009 2881 1497 
Q 2881 1984 2565 2268 
Q 2250 2553 1709 2553 
Q 1456 2553 1204 2497 
Q 953 2441 691 2322 
L 691 4666 
z
" transform="scale(0.015625)"/>
       </defs>
       <use xlink:href="#DejaVuSans-35"/>
       <use xlink:href="#DejaVuSans-30" x="63.623047"/>
      </g>
     </g>
    </g>
    <g id="xtick_3">
     <g id="line2d_3">
      <g>
       <use xlink:href="#me135f556b9" x="197.647059" y="307.584" style="stroke: #000000; stroke-width: 0.8"/>
      </g>
     </g>
     <g id="text_3">
      <!-- 100 -->
      <g transform="translate(188.103309 322.182437) scale(0.1 -0.1)">
       <defs>
        <path id="DejaVuSans-31" d="M 794 531 
L 1825 531 
L 1825 4091 
L 703 3866 
L 703 4441 
L 1819 4666 
L 2450 4666 
L 2450 531 
L 3481 531 
L 3481 0 
L 794 0 
L 794 531 
z
" transform="scale(0.015625)"/>
       </defs>
       <use xlink:href="#DejaVuSans-31"/>
       <use xlink:href="#DejaVuSans-30" x="63.623047"/>
       <use xlink:href="#DejaVuSans-30" x="127.246094"/>
      </g>
     </g>
    </g>
    <g id="xtick_4">
     <g id="line2d_4">
      <g>
       <use xlink:href="#me135f556b9" x="267.670588" y="307.584" style="stroke: #000000; stroke-width: 0.8"/>
      </g>
     </g>
     <g id="text_4">
      <!-- 150 -->
      <g transform="translate(258.126838 322.182437) scale(0.1 -0.1)">
       <use xlink:href="#DejaVuSans-31"/>
       <use xlink:href="#DejaVuSans-35" x="63.623047"/>
       <use xlink:href="#DejaVuSans-30" x="127.246094"/>
      </g>
     </g>
    </g>
    <g id="xtick_5">
     <g id="line2d_5">
      <g>
       <use xlink:href="#me135f556b9" x="337.694118" y="307.584" style="stroke: #000000; stroke-width: 0.8"/>
      </g>
     </g>
     <g id="text_5">
      <!-- 200 -->
      <g transform="translate(328.150368 322.182437) scale(0.1 -0.1)">
       <defs>
        <path id="DejaVuSans-32" d="M 1228 531 
L 3431 531 
L 3431 0 
L 469 0 
L 469 531 
Q 828 903 1448 1529 
Q 2069 2156 2228 2338 
Q 2531 2678 2651 2914 
Q 2772 3150 2772 3378 
Q 2772 3750 2511 3984 
Q 2250 4219 1831 4219 
Q 1534 4219 1204 4116 
Q 875 4013 500 3803 
L 500 4441 
Q 881 4594 1212 4672 
Q 1544 4750 1819 4750 
Q 2544 4750 2975 4387 
Q 3406 4025 3406 3419 
Q 3406 3131 3298 2873 
Q 3191 2616 2906 2266 
Q 2828 2175 2409 1742 
Q 1991 1309 1228 531 
z
" transform="scale(0.015625)"/>
       </defs>
       <use xlink:href="#DejaVuSans-32"/>
       <use xlink:href="#DejaVuSans-30" x="63.623047"/>
       <use xlink:href="#DejaVuSans-30" x="127.246094"/>
      </g>
     </g>
    </g>
    <g id="xtick_6">
     <g id="line2d_6">
      <g>
       <use xlink:href="#me135f556b9" x="407.717647" y="307.584" style="stroke: #000000; stroke-width: 0.8"/>
      </g>
     </g>
     <g id="text_6">
      <!-- 250 -->
      <g transform="translate(398.173897 322.182437) scale(0.1 -0.1)">
       <use xlink:href="#DejaVuSans-32"/>
       <use xlink:href="#DejaVuSans-35" x="63.623047"/>
       <use xlink:href="#DejaVuSans-30" x="127.246094"/>
      </g>
     </g>
    </g>
    <g id="text_7">
     <!-- Generated 8-bit Number -->
     <g transform="translate(174.860781 335.860562) scale(0.1 -0.1)">
      <defs>
       <path id="DejaVuSans-47" d="M 3809 666 
L 3809 1919 
L 2778 1919 
L 2778 2438 
L 4434 2438 
L 4434 434 
Q 4069 175 3628 42 
Q 3188 -91 2688 -91 
Q 1594 -91 976 548 
Q 359 1188 359 2328 
Q 359 3472 976 4111 
Q 1594 4750 2688 4750 
Q 3144 4750 3555 4637 
Q 3966 4525 4313 4306 
L 4313 3634 
Q 3963 3931 3569 4081 
Q 3175 4231 2741 4231 
Q 1884 4231 1454 3753 
Q 1025 3275 1025 2328 
Q 1025 1384 1454 906 
Q 1884 428 2741 428 
Q 3075 428 3337 486 
Q 3600 544 3809 666 
z
" transform="scale(0.015625)"/>
       <path id="DejaVuSans-65" d="M 3597 1894 
L 3597 1613 
L 953 1613 
Q 991 1019 1311 708 
Q 1631 397 2203 397 
Q 2534 397 2845 478 
Q 3156 559 3463 722 
L 3463 178 
Q 3153 47 2828 -22 
Q 2503 -91 2169 -91 
Q 1331 -91 842 396 
Q 353 884 353 1716 
Q 353 2575 817 3079 
Q 1281 3584 2069 3584 
Q 2775 3584 3186 3129 
Q 3597 2675 3597 1894 
z
M 3022 2063 
Q 3016 2534 2758 2815 
Q 2500 3097 2075 3097 
Q 1594 3097 1305 2825 
Q 1016 2553 972 2059 
L 3022 2063 
z
" transform="scale(0.015625)"/>
       <path id="DejaVuSans-6e" d="M 3513 2113 
L 3513 0 
L 2938 0 
L 2938 2094 
Q 2938 2591 2744 2837 
Q 2550 3084 2163 3084 
Q 1697 3084 1428 2787 
Q 1159 2491 1159 1978 
L 1159 0 
L 581 0 
L 581 3500 
L 1159 3500 
L 1159 2956 
Q 1366 3272 1645 3428 
Q 1925 3584 2291 3584 
Q 2894 3584 3203 3211 
Q 3513 2838 3513 2113 
z
" transform="scale(0.015625)"/>
       <path id="DejaVuSans-72" d="M 2631 2963 
Q 2534 3019 2420 3045 
Q 2306 3072 2169 3072 
Q 1681 3072 1420 2755 
Q 1159 2438 1159 1844 
L 1159 0 
L 581 0 
L 581 3500 
L 1159 3500 
L 1159 2956 
Q 1341 3275 1631 3429 
Q 1922 3584 2338 3584 
Q 2397 3584 2469 3576 
Q 2541 3569 2628 3553 
L 2631 2963 
z
" transform="scale(0.015625)"/>
       <path id="DejaVuSans-61" d="M 2194 1759 
Q 1497 1759 1228 1600 
Q 959 1441 959 1056 
Q 959 750 1161 570 
Q 1363 391 1709 391 
Q 2188 391 2477 730 
Q 2766 1069 2766 1631 
L 2766 1759 
L 2194 1759 
z
M 3341 1997 
L 3341 0 
L 2766 0 
L 2766 531 
Q 2569 213 2275 61 
Q 1981 -91 1556 -91 
Q 1019 -91 701 211 
Q 384 513 384 1019 
Q 384 1609 779 1909 
Q 1175 2209 1959 2209 
L 2766 2209 
L 2766 2266 
Q 2766 2663 2505 2880 
Q 2244 3097 1772 3097 
Q 1472 3097 1187 3025 
Q 903 2953 641 2809 
L 641 3341 
Q 956 3463 1253 3523 
Q 1550 3584 1831 3584 
Q 2591 3584 2966 3190 
Q 3341 2797 3341 1997 
z
" transform="scale(0.015625)"/>
       <path id="DejaVuSans-74" d="M 1172 4494 
L 1172 3500 
L 2356 3500 
L 2356 3053 
L 1172 3053 
L 1172 1153 
Q 1172 725 1289 603 
Q 1406 481 1766 481 
L 2356 481 
L 2356 0 
L 1766 0 
Q 1100 0 847 248 
Q 594 497 594 1153 
L 594 3053 
L 172 3053 
L 172 3500 
L 594 3500 
L 594 4494 
L 1172 4494 
z
" transform="scale(0.015625)"/>
       <path id="DejaVuSans-64" d="M 2906 2969 
L 2906 4863 
L 3481 4863 
L 3481 0 
L 2906 0 
L 2906 525 
Q 2725 213 2448 61 
Q 2172 -91 1784 -91 
Q 1150 -91 751 415 
Q 353 922 353 1747 
Q 353 2572 751 3078 
Q 1150 3584 1784 3584 
Q 2172 3584 2448 3432 
Q 2725 3281 2906 2969 
z
M 947 1747 
Q 947 1113 1208 752 
Q 1469 391 1925 391 
Q 2381 391 2643 752 
Q 2906 1113 2906 1747 
Q 2906 2381 2643 2742 
Q 2381 3103 1925 3103 
Q 1469 3103 1208 2742 
Q 947 2381 947 1747 
z
" transform="scale(0.015625)"/>
       <path id="DejaVuSans-20" transform="scale(0.015625)"/>
       <path id="DejaVuSans-38" d="M 2034 2216 
Q 1584 2216 1326 1975 
Q 1069 1734 1069 1313 
Q 1069 891 1326 650 
Q 1584 409 2034 409 
Q 2484 409 2743 651 
Q 3003 894 3003 1313 
Q 3003 1734 2745 1975 
Q 2488 2216 2034 2216 
z
M 1403 2484 
Q 997 2584 770 2862 
Q 544 3141 544 3541 
Q 544 4100 942 4425 
Q 1341 4750 2034 4750 
Q 2731 4750 3128 4425 
Q 3525 4100 3525 3541 
Q 3525 3141 3298 2862 
Q 3072 2584 2669 2484 
Q 3125 2378 3379 2068 
Q 3634 1759 3634 1313 
Q 3634 634 3220 271 
Q 2806 -91 2034 -91 
Q 1263 -91 848 271 
Q 434 634 434 1313 
Q 434 1759 690 2068 
Q 947 2378 1403 2484 
z
M 1172 3481 
Q 1172 3119 1398 2916 
Q 1625 2713 2034 2713 
Q 2441 2713 2670 2916 
Q 2900 3119 2900 3481 
Q 2900 3844 2670 4047 
Q 2441 4250 2034 4250 
Q 1625 4250 1398 4047 
Q 1172 3844 1172 3481 
z
" transform="scale(0.015625)"/>
       <path id="DejaVuSans-2d" d="M 313 2009 
L 1997 2009 
L 1997 1497 
L 313 1497 
L 313 2009 
z
" transform="scale(0.015625)"/>
       <path id="DejaVuSans-62" d="M 3116 1747 
Q 3116 2381 2855 2742 
Q 2594 3103 2138 3103 
Q 1681 3103 1420 2742 
Q 1159 2381 1159 1747 
Q 1159 1113 1420 752 
Q 1681 391 2138 391 
Q 2594 391 2855 752 
Q 3116 1113 3116 1747 
z
M 1159 2969 
Q 1341 3281 1617 3432 
Q 1894 3584 2278 3584 
Q 2916 3584 3314 3078 
Q 3713 2572 3713 1747 
Q 3713 922 3314 415 
Q 2916 -91 2278 -91 
Q 1894 -91 1617 61 
Q 1341 213 1159 525 
L 1159 0 
L 581 0 
L 581 4863 
L 1159 4863 
L 1159 2969 
z
" transform="scale(0.015625)"/>
       <path id="DejaVuSans-69" d="M 603 3500 
L 1178 3500 
L 1178 0 
L 603 0 
L 603 3500 
z
M 603 4863 
L 1178 4863 
L 1178 4134 
L 603 4134 
L 603 4863 
z
" transform="scale(0.015625)"/>
       <path id="DejaVuSans-4e" d="M 628 4666 
L 1478 4666 
L 3547 763 
L 3547 4666 
L 4159 4666 
L 4159 0 
L 3309 0 
L 1241 3903 
L 1241 0 
L 628 0 
L 628 4666 
z
" transform="scale(0.015625)"/>
       <path id="DejaVuSans-75" d="M 544 1381 
L 544 3500 
L 1119 3500 
L 1119 1403 
Q 1119 906 1312 657 
Q 1506 409 1894 409 
Q 2359 409 2629 706 
Q 2900 1003 2900 1516 
L 2900 3500 
L 3475 3500 
L 3475 0 
L 2900 0 
L 2900 538 
Q 2691 219 2414 64 
Q 2138 -91 1772 -91 
Q 1169 -91 856 284 
Q 544 659 544 1381 
z
M 1991 3584 
L 1991 3584 
z
" transform="scale(0.015625)"/>
       <path id="DejaVuSans-6d" d="M 3328 2828 
Q 3544 3216 3844 3400 
Q 4144 3584 4550 3584 
Q 5097 3584 5394 3201 
Q 5691 2819 5691 2113 
L 5691 0 
L 5113 0 
L 5113 2094 
Q 5113 2597 4934 2840 
Q 4756 3084 4391 3084 
Q 3944 3084 3684 2787 
Q 3425 2491 3425 1978 
L 3425 0 
L 2847 0 
L 2847 2094 
Q 2847 2600 2669 2842 
Q 2491 3084 2119 3084 
Q 1678 3084 1418 2786 
Q 1159 2488 1159 1978 
L 1159 0 
L 581 0 
L 581 3500 
L 1159 3500 
L 1159 2956 
Q 1356 3278 1631 3431 
Q 1906 3584 2284 3584 
Q 2666 3584 2933 3390 
Q 3200 3197 3328 2828 
z
" transform="scale(0.015625)"/>
      </defs>
      <use xlink:href="#DejaVuSans-47"/>
      <use xlink:href="#DejaVuSans-65" x="77.490234"/>
      <use xlink:href="#DejaVuSans-6e" x="139.013672"/>
      <use xlink:href="#DejaVuSans-65" x="202.392578"/>
      <use xlink:href="#DejaVuSans-72" x="263.916016"/>
      <use xlink:href="#DejaVuSans-61" x="305.029297"/>
      <use xlink:href="#DejaVuSans-74" x="366.308594"/>
      <use xlink:href="#DejaVuSans-65" x="405.517578"/>
      <use xlink:href="#DejaVuSans-64" x="467.041016"/>
      <use xlink:href="#DejaVuSans-20" x="530.517578"/>
      <use xlink:href="#DejaVuSans-38" x="562.304688"/>
      <use xlink:href="#DejaVuSans-2d" x="625.927734"/>
      <use xlink:href="#DejaVuSans-62" x="662.011719"/>
      <use xlink:href="#DejaVuSans-69" x="725.488281"/>
      <use xlink:href="#DejaVuSans-74" x="753.271484"/>
      <use xlink:href="#DejaVuSans-20" x="792.480469"/>
      <use xlink:href="#DejaVuSans-4e" x="824.267578"/>
      <use xlink:href="#DejaVuSans-75" x="899.072266"/>
      <use xlink:href="#DejaVuSans-6d" x="962.451172"/>
      <use xlink:href="#DejaVuSans-62" x="1059.863281"/>
      <use xlink:href="#DejaVuSans-65" x="1123.339844"/>
      <use xlink:href="#DejaVuSans-72" x="1184.863281"/>
     </g>
    </g>
   </g>
   <g id="matplotlib.axis_2">
    <g id="ytick_1">
     <g id="line2d_7">
      <defs>
       <path id="mb104404e15" d="M 0 0 
L -3.5 0 
" style="stroke: #000000; stroke-width: 0.8"/>
      </defs>
      <g>
       <use xlink:href="#mb104404e15" x="57.6" y="290.212486" style="stroke: #000000; stroke-width: 0.8"/>
      </g>
     </g>
     <g id="text_8">
      <!-- 200 -->
      <g transform="translate(31.5125 294.011705) scale(0.1 -0.1)">
       <use xlink:href="#DejaVuSans-32"/>
       <use xlink:href="#DejaVuSans-30" x="63.623047"/>
       <use xlink:href="#DejaVuSans-30" x="127.246094"/>
      </g>
     </g>
    </g>
    <g id="ytick_2">
     <g id="line2d_8">
      <g>
       <use xlink:href="#mb104404e15" x="57.6" y="252.530243" style="stroke: #000000; stroke-width: 0.8"/>
      </g>
     </g>
     <g id="text_9">
      <!-- 300 -->
      <g transform="translate(31.5125 256.329462) scale(0.1 -0.1)">
       <defs>
        <path id="DejaVuSans-33" d="M 2597 2516 
Q 3050 2419 3304 2112 
Q 3559 1806 3559 1356 
Q 3559 666 3084 287 
Q 2609 -91 1734 -91 
Q 1441 -91 1130 -33 
Q 819 25 488 141 
L 488 750 
Q 750 597 1062 519 
Q 1375 441 1716 441 
Q 2309 441 2620 675 
Q 2931 909 2931 1356 
Q 2931 1769 2642 2001 
Q 2353 2234 1838 2234 
L 1294 2234 
L 1294 2753 
L 1863 2753 
Q 2328 2753 2575 2939 
Q 2822 3125 2822 3475 
Q 2822 3834 2567 4026 
Q 2313 4219 1838 4219 
Q 1578 4219 1281 4162 
Q 984 4106 628 3988 
L 628 4550 
Q 988 4650 1302 4700 
Q 1616 4750 1894 4750 
Q 2613 4750 3031 4423 
Q 3450 4097 3450 3541 
Q 3450 3153 3228 2886 
Q 3006 2619 2597 2516 
z
" transform="scale(0.015625)"/>
       </defs>
       <use xlink:href="#DejaVuSans-33"/>
       <use xlink:href="#DejaVuSans-30" x="63.623047"/>
       <use xlink:href="#DejaVuSans-30" x="127.246094"/>
      </g>
     </g>
    </g>
    <g id="ytick_3">
     <g id="line2d_9">
      <g>
       <use xlink:href="#mb104404e15" x="57.6" y="214.848" style="stroke: #000000; stroke-width: 0.8"/>
      </g>
     </g>
     <g id="text_10">
      <!-- 400 -->
      <g transform="translate(31.5125 218.647219) scale(0.1 -0.1)">
       <defs>
        <path id="DejaVuSans-34" d="M 2419 4116 
L 825 1625 
L 2419 1625 
L 2419 4116 
z
M 2253 4666 
L 3047 4666 
L 3047 1625 
L 3713 1625 
L 3713 1100 
L 3047 1100 
L 3047 0 
L 2419 0 
L 2419 1100 
L 313 1100 
L 313 1709 
L 2253 4666 
z
" transform="scale(0.015625)"/>
       </defs>
       <use xlink:href="#DejaVuSans-34"/>
       <use xlink:href="#DejaVuSans-30" x="63.623047"/>
       <use xlink:href="#DejaVuSans-30" x="127.246094"/>
      </g>
     </g>
    </g>
    <g id="ytick_4">
     <g id="line2d_10">
      <g>
       <use xlink:href="#mb104404e15" x="57.6" y="177.165757" style="stroke: #000000; stroke-width: 0.8"/>
      </g>
     </g>
     <g id="text_11">
      <!-- 500 -->
      <g transform="translate(31.5125 180.964976) scale(0.1 -0.1)">
       <use xlink:href="#DejaVuSans-35"/>
       <use xlink:href="#DejaVuSans-30" x="63.623047"/>
       <use xlink:href="#DejaVuSans-30" x="127.246094"/>
      </g>
     </g>
    </g>
    <g id="ytick_5">
     <g id="line2d_11">
      <g>
       <use xlink:href="#mb104404e15" x="57.6" y="139.483514" style="stroke: #000000; stroke-width: 0.8"/>
      </g>
     </g>
     <g id="text_12">
      <!-- 600 -->
      <g transform="translate(31.5125 143.282733) scale(0.1 -0.1)">
       <defs>
        <path id="DejaVuSans-36" d="M 2113 2584 
Q 1688 2584 1439 2293 
Q 1191 2003 1191 1497 
Q 1191 994 1439 701 
Q 1688 409 2113 409 
Q 2538 409 2786 701 
Q 3034 994 3034 1497 
Q 3034 2003 2786 2293 
Q 2538 2584 2113 2584 
z
M 3366 4563 
L 3366 3988 
Q 3128 4100 2886 4159 
Q 2644 4219 2406 4219 
Q 1781 4219 1451 3797 
Q 1122 3375 1075 2522 
Q 1259 2794 1537 2939 
Q 1816 3084 2150 3084 
Q 2853 3084 3261 2657 
Q 3669 2231 3669 1497 
Q 3669 778 3244 343 
Q 2819 -91 2113 -91 
Q 1303 -91 875 529 
Q 447 1150 447 2328 
Q 447 3434 972 4092 
Q 1497 4750 2381 4750 
Q 2619 4750 2861 4703 
Q 3103 4656 3366 4563 
z
" transform="scale(0.015625)"/>
       </defs>
       <use xlink:href="#DejaVuSans-36"/>
       <use xlink:href="#DejaVuSans-30" x="63.623047"/>
       <use xlink:href="#DejaVuSans-30" x="127.246094"/>
      </g>
     </g>
    </g>
    <g id="ytick_6">
     <g id="line2d_12">
      <g>
       <use xlink:href="#mb104404e15" x="57.6" y="101.801271" style="stroke: #000000; stroke-width: 0.8"/>
      </g>
     </g>
     <g id="text_13">
      <!-- 700 -->
      <g transform="translate(31.5125 105.60049) scale(0.1 -0.1)">
       <defs>
        <path id="DejaVuSans-37" d="M 525 4666 
L 3525 4666 
L 3525 4397 
L 1831 0 
L 1172 0 
L 2766 4134 
L 525 4134 
L 525 4666 
z
" transform="scale(0.015625)"/>
       </defs>
       <use xlink:href="#DejaVuSans-37"/>
       <use xlink:href="#DejaVuSans-30" x="63.623047"/>
       <use xlink:href="#DejaVuSans-30" x="127.246094"/>
      </g>
     </g>
    </g>
    <g id="ytick_7">
     <g id="line2d_13">
      <g>
       <use xlink:href="#mb104404e15" x="57.6" y="64.119028" style="stroke: #000000; stroke-width: 0.8"/>
      </g>
     </g>
     <g id="text_14">
      <!-- 800 -->
      <g transform="translate(31.5125 67.918247) scale(0.1 -0.1)">
       <use xlink:href="#DejaVuSans-38"/>
       <use xlink:href="#DejaVuSans-30" x="63.623047"/>
       <use xlink:href="#DejaVuSans-30" x="127.246094"/>
      </g>
     </g>
    </g>
    <g id="text_15">
     <!-- p -->
     <g transform="translate(25.432812 177.702219) rotate(-90) scale(0.1 -0.1)">
      <defs>
       <path id="DejaVuSans-70" d="M 1159 525 
L 1159 -1331 
L 581 -1331 
L 581 3500 
L 1159 3500 
L 1159 2969 
Q 1341 3281 1617 3432 
Q 1894 3584 2278 3584 
Q 2916 3584 3314 3078 
Q 3713 2572 3713 1747 
Q 3713 922 3314 415 
Q 2916 -91 2278 -91 
Q 1894 -91 1617 61 
Q 1341 213 1159 525 
z
M 3116 1747 
Q 3116 2381 2855 2742 
Q 2594 3103 2138 3103 
Q 1681 3103 1420 2742 
Q 1159 2381 1159 1747 
Q 1159 1113 1420 752 
Q 1681 391 2138 391 
Q 2594 391 2855 752 
Q 3116 1113 3116 1747 
z
" transform="scale(0.015625)"/>
      </defs>
      <use xlink:href="#DejaVuSans-70"/>
     </g>
    </g>
   </g>
   <g id="line2d_14">
    <path d="M 57.6 245.370617 
L 59.000471 226.529495 
L 60.400941 219.369869 
L 61.801412 229.544075 
L 63.201882 234.065944 
L 64.602353 227.28314 
L 66.002824 231.051364 
L 67.403294 223.138093 
L 68.803765 227.28314 
L 70.204235 225.399028 
L 71.604706 228.413607 
L 73.005176 208.818841 
L 74.405647 235.573234 
L 75.806118 217.108935 
L 77.206588 213.717533 
L 78.607059 210.702953 
L 80.007529 226.529495 
L 81.408 220.877159 
L 82.808471 233.312299 
L 84.208941 231.428187 
L 85.609412 225.77585 
L 87.009882 226.152673 
L 88.410353 214.094355 
L 89.810824 231.805009 
L 91.211294 231.051364 
L 92.611765 222.384449 
L 95.412706 225.399028 
L 96.813176 219.369869 
L 98.213647 210.326131 
L 99.614118 210.702953 
L 101.014588 206.557907 
L 102.415059 225.022206 
L 103.815529 232.181832 
L 105.216 232.558654 
L 106.616471 221.630804 
L 108.016941 217.862579 
L 109.417412 221.253981 
L 110.817882 222.761271 
L 112.218353 217.108935 
L 113.618824 228.79043 
L 115.019294 217.862579 
L 116.419765 227.659963 
L 117.820235 219.746692 
L 119.220706 225.399028 
L 120.621176 218.993047 
L 122.021647 215.978467 
L 123.422118 210.326131 
L 124.822588 233.689121 
L 126.223059 217.485757 
L 127.623529 232.935477 
L 129.024 218.993047 
L 130.424471 221.253981 
L 131.824941 225.77585 
L 133.225412 222.384449 
L 134.625882 216.35529 
L 136.026353 223.138093 
L 137.426824 207.311551 
L 138.827294 221.253981 
L 140.227765 196.383701 
L 141.628235 222.761271 
L 143.028706 215.224822 
L 144.429176 215.601645 
L 145.829647 206.181084 
L 147.230118 233.689121 
L 148.630588 220.500336 
L 151.431529 225.022206 
L 152.832 222.761271 
L 154.232471 216.732112 
L 155.632941 216.35529 
L 157.033412 224.645383 
L 158.433882 223.514916 
L 159.834353 234.065944 
L 161.234824 225.399028 
L 162.635294 215.601645 
L 164.035765 216.35529 
L 165.436235 231.051364 
L 166.836706 226.529495 
L 168.237176 201.282393 
L 169.637647 220.877159 
L 171.038118 227.659963 
L 172.438588 226.529495 
L 173.839059 201.282393 
L 175.239529 223.891738 
L 176.64 204.673794 
L 178.040471 219.369869 
L 179.440941 219.369869 
L 180.841412 228.036785 
L 182.241882 219.746692 
L 183.642353 221.253981 
L 185.042824 213.717533 
L 186.443294 213.717533 
L 187.843765 214.094355 
L 189.244235 212.963888 
L 190.644706 206.934729 
L 192.045176 224.645383 
L 193.445647 223.138093 
L 194.846118 214.471178 
L 196.246588 226.152673 
L 197.647059 222.384449 
L 199.047529 211.456598 
L 200.448 206.934729 
L 201.848471 219.369869 
L 203.248941 223.891738 
L 204.649412 219.746692 
L 206.049882 214.848 
L 207.450353 212.963888 
L 208.850824 219.369869 
L 210.251294 208.818841 
L 211.651765 212.587065 
L 213.052235 201.659215 
L 214.452706 231.805009 
L 215.853176 217.108935 
L 217.253647 216.732112 
L 218.654118 213.34071 
L 220.054588 220.877159 
L 221.455059 208.442019 
L 222.855529 225.022206 
L 224.256 215.978467 
L 227.056941 222.761271 
L 228.457412 199.39828 
L 229.857882 220.877159 
L 231.258353 197.890991 
L 232.658824 218.239402 
L 234.059294 218.993047 
L 235.459765 208.818841 
L 236.860235 240.848748 
L 238.260706 222.761271 
L 239.661176 227.659963 
L 241.061647 212.963888 
L 242.462118 221.630804 
L 243.862588 234.065944 
L 245.263059 234.442766 
L 246.663529 215.224822 
L 248.064 229.167252 
L 249.464471 225.022206 
L 250.864941 215.224822 
L 252.265412 211.456598 
L 253.665882 228.036785 
L 255.066353 210.702953 
L 256.466824 224.645383 
L 257.867294 220.500336 
L 259.267765 225.77585 
L 260.668235 218.239402 
L 262.068706 226.906318 
L 263.469176 214.848 
L 264.869647 229.167252 
L 266.270118 214.848 
L 267.670588 216.732112 
L 269.071059 227.28314 
L 270.471529 209.949308 
L 271.872 209.195664 
L 273.272471 214.848 
L 274.672941 209.949308 
L 276.073412 238.210991 
L 277.473882 208.818841 
L 278.874353 201.659215 
L 280.274824 210.702953 
L 281.675294 228.036785 
L 283.075765 234.065944 
L 284.476235 224.268561 
L 285.876706 215.601645 
L 287.277176 226.906318 
L 288.677647 207.688374 
L 290.078118 212.210243 
L 291.478588 201.282393 
L 292.879059 225.399028 
L 294.279529 217.108935 
L 295.68 216.35529 
L 297.080471 231.051364 
L 298.480941 210.702953 
L 299.881412 213.717533 
L 301.281882 207.311551 
L 302.682353 206.934729 
L 304.082824 227.28314 
L 305.483294 227.659963 
L 306.883765 217.862579 
L 308.284235 215.224822 
L 309.684706 231.051364 
L 311.085176 213.34071 
L 312.485647 218.616224 
L 313.886118 216.35529 
L 315.286588 218.993047 
L 316.687059 224.645383 
L 318.087529 220.500336 
L 319.488 215.978467 
L 320.888471 208.065196 
L 322.288941 218.616224 
L 323.689412 211.079776 
L 325.089882 202.036037 
L 326.490353 232.558654 
L 327.890824 222.007626 
L 329.291294 228.79043 
L 330.691765 225.022206 
L 332.092235 211.079776 
L 333.492706 217.108935 
L 334.893176 221.630804 
L 336.293647 209.949308 
L 337.694118 220.500336 
L 339.094588 213.34071 
L 340.495059 224.645383 
L 341.895529 209.195664 
L 343.296 227.28314 
L 344.696471 224.645383 
L 346.096941 215.601645 
L 347.497412 213.717533 
L 348.897882 214.848 
L 350.298353 213.34071 
L 351.698824 218.993047 
L 353.099294 215.601645 
L 354.499765 218.616224 
L 355.900235 205.427439 
L 357.300706 207.688374 
L 358.701176 216.732112 
L 360.101647 215.978467 
L 361.502118 227.659963 
L 362.902588 211.833421 
L 364.303059 212.210243 
L 365.703529 203.166505 
L 367.104 204.296972 
L 368.504471 210.702953 
L 369.904941 206.181084 
L 371.305412 201.282393 
L 372.705882 220.500336 
L 374.106353 204.673794 
L 375.506824 220.877159 
L 376.907294 220.877159 
L 378.307765 220.500336 
L 379.708235 222.384449 
L 381.108706 224.645383 
L 382.509176 213.717533 
L 383.909647 211.833421 
L 385.310118 215.601645 
L 386.710588 211.456598 
L 388.111059 215.601645 
L 389.511529 201.282393 
L 390.912 220.877159 
L 392.312471 202.036037 
L 393.712941 220.123514 
L 395.113412 209.949308 
L 396.513882 210.702953 
L 397.914353 197.514168 
L 399.314824 217.485757 
L 400.715294 212.587065 
L 402.115765 221.630804 
L 403.516235 217.862579 
L 404.916706 216.732112 
L 406.317176 222.007626 
L 407.717647 190.354542 
L 409.118118 216.732112 
L 410.518588 208.818841 
L 411.919059 206.181084 
L 413.319529 207.311551 
L 414.72 200.151925 
L 414.72 200.151925 
" clip-path="url(#pa2fe4305b9)" style="fill: none; stroke: #1f77b4; stroke-opacity: 0.5; stroke-width: 1.5; stroke-linecap: square"/>
   </g>
   <g id="line2d_15">
    <path d="M 57.6 129.309308 
L 59.000471 146.64314 
L 60.400941 137.976224 
L 61.801412 175.281645 
L 63.201882 147.019963 
L 64.602353 172.267065 
L 66.002824 187.339963 
L 67.403294 191.485009 
L 68.803765 136.468935 
L 70.204235 173.774355 
L 71.604706 174.904822 
L 73.005176 195.253234 
L 74.405647 183.194916 
L 75.806118 206.181084 
L 77.206588 201.282393 
L 78.607059 222.761271 
L 80.007529 136.845757 
L 81.408 166.991551 
L 82.808471 161.339215 
L 84.208941 188.847252 
L 85.609412 182.441271 
L 87.009882 191.485009 
L 88.410353 191.108187 
L 89.810824 225.022206 
L 91.211294 165.861084 
L 92.611765 203.92015 
L 94.012235 191.861832 
L 95.412706 216.732112 
L 96.813176 192.238654 
L 98.213647 224.645383 
L 99.614118 211.456598 
L 101.014588 236.703701 
L 102.415059 141.367626 
L 103.815529 164.353794 
L 105.216 191.108187 
L 106.616471 206.557907 
L 108.016941 188.093607 
L 109.417412 190.354542 
L 110.817882 194.876411 
L 112.218353 220.877159 
L 113.618824 162.469682 
L 115.019294 187.339963 
L 116.419765 197.514168 
L 117.820235 227.28314 
L 119.220706 197.137346 
L 120.621176 213.717533 
L 122.021647 216.35529 
L 123.422118 241.602393 
L 124.822588 177.919402 
L 126.223059 209.195664 
L 127.623529 206.557907 
L 129.024 220.877159 
L 130.424471 200.90557 
L 131.824941 228.413607 
L 133.225412 225.399028 
L 134.625882 242.73286 
L 136.026353 203.166505 
L 137.426824 224.645383 
L 138.827294 218.239402 
L 140.227765 246.124262 
L 141.628235 212.587065 
L 143.028706 247.254729 
L 144.429176 243.109682 
L 145.829647 254.791178 
L 147.230118 129.309308 
L 148.630588 168.122019 
L 150.031059 165.861084 
L 151.431529 203.166505 
L 152.832 161.339215 
L 154.232471 185.45585 
L 155.632941 203.166505 
L 157.033412 214.848 
L 158.433882 167.368374 
L 161.234824 206.557907 
L 162.635294 220.877159 
L 164.035765 206.557907 
L 165.436235 218.239402 
L 166.836706 222.761271 
L 168.237176 235.573234 
L 169.637647 165.861084 
L 171.038118 195.253234 
L 172.438588 216.35529 
L 173.839059 209.572486 
L 175.239529 200.151925 
L 176.64 229.920897 
L 178.040471 214.471178 
L 179.440941 239.341458 
L 180.841412 190.731364 
L 182.241882 226.152673 
L 183.642353 230.674542 
L 185.042824 242.73286 
L 186.443294 205.050617 
L 187.843765 252.153421 
L 189.244235 236.326879 
L 190.644706 261.197159 
L 192.045176 176.412112 
L 193.445647 200.90557 
L 194.846118 211.079776 
L 196.246588 225.77585 
L 197.647059 210.326131 
L 199.047529 227.28314 
L 200.448 218.993047 
L 201.848471 243.109682 
L 203.248941 205.804262 
L 206.049882 227.659963 
L 207.450353 251.776598 
L 208.850824 219.746692 
L 210.251294 234.819589 
L 211.651765 241.22557 
L 213.052235 260.820336 
L 214.452706 198.644636 
L 215.853176 223.514916 
L 217.253647 229.544075 
L 218.654118 241.979215 
L 220.054588 225.022206 
L 221.455059 244.993794 
L 222.855529 229.544075 
L 224.256 254.037533 
L 225.656471 223.891738 
L 227.056941 246.501084 
L 228.457412 241.22557 
L 229.857882 256.298467 
L 231.258353 240.848748 
L 232.658824 262.704449 
L 234.059294 249.892486 
L 235.459765 272.878654 
L 236.860235 154.556411 
L 238.260706 200.90557 
L 239.661176 171.890243 
L 241.061647 201.659215 
L 242.462118 178.673047 
L 243.862588 204.296972 
L 245.263059 198.644636 
L 246.663529 228.79043 
L 248.064 176.03529 
L 249.464471 200.151925 
L 250.864941 189.224075 
L 252.265412 231.428187 
L 253.665882 205.804262 
L 255.066353 228.036785 
L 256.466824 218.239402 
L 257.867294 244.616972 
L 259.267765 179.803514 
L 260.668235 199.775103 
L 262.068706 208.065196 
L 263.469176 227.28314 
L 264.869647 187.339963 
L 266.270118 234.819589 
L 267.670588 237.457346 
L 269.071059 247.631551 
L 270.471529 203.166505 
L 271.872 230.674542 
L 273.272471 229.920897 
L 274.672941 236.703701 
L 276.073412 226.529495 
L 277.473882 249.515664 
L 278.874353 240.848748 
L 280.274824 249.515664 
L 281.675294 168.498841 
L 283.075765 208.442019 
L 284.476235 198.267813 
L 285.876706 223.514916 
L 287.277176 202.036037 
L 288.677647 206.934729 
L 290.078118 221.253981 
L 291.478588 238.210991 
L 292.879059 201.659215 
L 294.279529 217.108935 
L 295.68 212.587065 
L 297.080471 237.834168 
L 298.480941 220.877159 
L 299.881412 241.22557 
L 301.281882 247.254729 
L 302.682353 255.544822 
L 304.082824 198.644636 
L 306.883765 216.35529 
L 308.284235 237.457346 
L 309.684706 219.369869 
L 311.085176 244.616972 
L 312.485647 251.776598 
L 313.886118 262.704449 
L 315.286588 231.428187 
L 316.687059 241.979215 
L 318.087529 236.703701 
L 319.488 252.153421 
L 320.888471 246.877907 
L 322.288941 264.588561 
L 323.689412 269.11043 
L 325.089882 278.154168 
L 326.490353 171.890243 
L 327.890824 190.354542 
L 329.291294 198.267813 
L 330.691765 222.384449 
L 332.092235 211.079776 
L 333.492706 214.471178 
L 334.893176 208.065196 
L 336.293647 238.964636 
L 337.694118 192.615477 
L 339.094588 200.151925 
L 340.495059 229.167252 
L 341.895529 247.254729 
L 343.296 228.413607 
L 344.696471 230.29772 
L 346.096941 246.877907 
L 347.497412 254.791178 
L 348.897882 195.630056 
L 350.298353 220.877159 
L 351.698824 225.77585 
L 353.099294 231.428187 
L 354.499765 226.152673 
L 355.900235 232.558654 
L 357.300706 232.558654 
L 358.701176 265.342206 
L 360.101647 214.471178 
L 361.502118 232.181832 
L 362.902588 240.848748 
L 364.303059 245.370617 
L 365.703529 229.920897 
L 367.104 261.950804 
L 368.504471 249.138841 
L 369.904941 270.240897 
L 371.305412 194.876411 
L 372.705882 217.108935 
L 374.106353 223.138093 
L 375.506824 250.269308 
L 376.907294 206.934729 
L 378.307765 242.356037 
L 379.708235 231.805009 
L 381.108706 254.414355 
L 382.509176 211.456598 
L 383.909647 247.254729 
L 385.310118 224.268561 
L 386.710588 266.472673 
L 388.111059 240.848748 
L 389.511529 247.631551 
L 390.912 256.67529 
L 392.312471 269.11043 
L 393.712941 229.544075 
L 395.113412 244.993794 
L 396.513882 236.326879 
L 397.914353 251.776598 
L 399.314824 224.645383 
L 400.715294 258.559402 
L 402.115765 254.414355 
L 403.516235 268.733607 
L 404.916706 239.341458 
L 406.317176 263.081271 
L 407.717647 250.646131 
L 409.118118 266.09585 
L 410.518588 265.719028 
L 411.919059 268.356785 
L 413.319529 277.023701 
L 414.72 282.299215 
L 414.72 282.299215 
" clip-path="url(#pa2fe4305b9)" style="fill: none; stroke: #ff7f0e; stroke-opacity: 0.6; stroke-width: 1.5; stroke-linecap: square"/>
   </g>
   <g id="line2d_16">
    <path d="M 57.6 220.123514 
L 59.000471 219.746692 
L 61.801412 217.485757 
L 63.201882 215.224822 
L 64.602353 223.514916 
L 66.002824 224.268561 
L 67.403294 230.674542 
L 68.803765 219.746692 
L 70.204235 227.659963 
L 71.604706 204.673794 
L 73.005176 212.210243 
L 74.405647 214.848 
L 75.806118 217.108935 
L 77.206588 221.253981 
L 78.607059 219.746692 
L 80.007529 224.268561 
L 81.408 214.471178 
L 82.808471 205.804262 
L 84.208941 223.891738 
L 85.609412 214.094355 
L 87.009882 221.253981 
L 88.410353 212.587065 
L 89.810824 199.775103 
L 91.211294 215.224822 
L 92.611765 220.123514 
L 94.012235 218.616224 
L 95.412706 213.34071 
L 96.813176 212.587065 
L 98.213647 214.848 
L 99.614118 235.196411 
L 101.014588 212.587065 
L 102.415059 211.079776 
L 103.815529 222.761271 
L 105.216 217.862579 
L 106.616471 226.529495 
L 108.016941 222.007626 
L 109.417412 211.833421 
L 110.817882 217.862579 
L 112.218353 217.108935 
L 113.618824 208.818841 
L 115.019294 229.920897 
L 116.419765 213.717533 
L 117.820235 211.079776 
L 119.220706 218.616224 
L 120.621176 232.935477 
L 122.021647 213.34071 
L 123.422118 219.369869 
L 124.822588 220.123514 
L 126.223059 219.746692 
L 127.623529 225.022206 
L 129.024 214.094355 
L 130.424471 219.369869 
L 131.824941 213.34071 
L 133.225412 235.196411 
L 134.625882 222.007626 
L 136.026353 218.239402 
L 137.426824 215.601645 
L 138.827294 232.181832 
L 140.227765 219.746692 
L 141.628235 215.601645 
L 143.028706 212.587065 
L 144.429176 229.167252 
L 145.829647 206.181084 
L 147.230118 221.253981 
L 148.630588 216.35529 
L 150.031059 210.702953 
L 151.431529 222.384449 
L 152.832 219.369869 
L 154.232471 208.065196 
L 155.632941 212.963888 
L 157.033412 224.645383 
L 158.433882 212.587065 
L 159.834353 228.79043 
L 161.234824 219.369869 
L 162.635294 223.514916 
L 164.035765 220.500336 
L 165.436235 215.978467 
L 166.836706 230.674542 
L 168.237176 224.645383 
L 169.637647 225.77585 
L 171.038118 221.253981 
L 172.438588 213.717533 
L 173.839059 204.673794 
L 175.239529 221.253981 
L 176.64 222.384449 
L 178.040471 209.572486 
L 179.440941 218.616224 
L 180.841412 226.906318 
L 182.241882 210.702953 
L 183.642353 218.993047 
L 185.042824 226.529495 
L 186.443294 225.022206 
L 187.843765 223.891738 
L 189.244235 227.28314 
L 190.644706 217.862579 
L 192.045176 220.877159 
L 193.445647 231.428187 
L 194.846118 213.717533 
L 196.246588 202.036037 
L 197.647059 218.616224 
L 199.047529 206.181084 
L 200.448 220.500336 
L 201.848471 209.572486 
L 203.248941 229.167252 
L 204.649412 218.616224 
L 206.049882 215.224822 
L 207.450353 225.022206 
L 208.850824 226.529495 
L 210.251294 215.978467 
L 211.651765 216.35529 
L 213.052235 218.993047 
L 214.452706 215.978467 
L 215.853176 219.369869 
L 217.253647 218.993047 
L 218.654118 220.500336 
L 220.054588 208.442019 
L 221.455059 215.601645 
L 222.855529 212.963888 
L 224.256 222.384449 
L 225.656471 225.77585 
L 227.056941 213.34071 
L 228.457412 215.224822 
L 229.857882 205.804262 
L 231.258353 229.544075 
L 232.658824 227.659963 
L 234.059294 217.862579 
L 235.459765 223.138093 
L 236.860235 206.557907 
L 238.260706 226.529495 
L 239.661176 217.108935 
L 241.061647 209.195664 
L 242.462118 211.833421 
L 243.862588 215.601645 
L 245.263059 227.28314 
L 246.663529 219.746692 
L 248.064 218.239402 
L 249.464471 212.210243 
L 250.864941 215.601645 
L 252.265412 232.558654 
L 253.665882 218.993047 
L 255.066353 224.645383 
L 256.466824 217.485757 
L 257.867294 223.514916 
L 259.267765 215.224822 
L 260.668235 225.77585 
L 262.068706 222.761271 
L 263.469176 216.35529 
L 264.869647 218.616224 
L 266.270118 214.471178 
L 267.670588 206.181084 
L 269.071059 209.949308 
L 270.471529 223.891738 
L 271.872 212.587065 
L 273.272471 225.77585 
L 274.672941 224.268561 
L 276.073412 210.326131 
L 277.473882 227.659963 
L 278.874353 220.877159 
L 280.274824 204.673794 
L 281.675294 208.442019 
L 283.075765 219.369869 
L 284.476235 215.978467 
L 285.876706 211.456598 
L 287.277176 217.862579 
L 288.677647 222.761271 
L 290.078118 232.558654 
L 291.478588 214.848 
L 292.879059 217.862579 
L 294.279529 213.717533 
L 295.68 218.239402 
L 297.080471 218.616224 
L 298.480941 215.224822 
L 299.881412 212.963888 
L 301.281882 204.673794 
L 302.682353 209.949308 
L 304.082824 205.804262 
L 305.483294 208.818841 
L 306.883765 205.804262 
L 308.284235 216.732112 
L 309.684706 229.544075 
L 311.085176 212.587065 
L 312.485647 209.572486 
L 313.886118 221.253981 
L 315.286588 218.239402 
L 316.687059 204.296972 
L 318.087529 226.906318 
L 319.488 220.877159 
L 320.888471 220.877159 
L 322.288941 231.428187 
L 323.689412 205.050617 
L 325.089882 218.993047 
L 326.490353 219.746692 
L 327.890824 221.630804 
L 329.291294 208.818841 
L 330.691765 232.558654 
L 332.092235 215.224822 
L 333.492706 214.471178 
L 334.893176 212.963888 
L 336.293647 224.268561 
L 337.694118 220.123514 
L 339.094588 218.616224 
L 340.495059 214.094355 
L 341.895529 215.978467 
L 343.296 212.963888 
L 344.696471 228.413607 
L 346.096941 223.138093 
L 348.897882 218.616224 
L 350.298353 218.616224 
L 351.698824 235.196411 
L 353.099294 217.485757 
L 354.499765 213.34071 
L 355.900235 210.702953 
L 357.300706 212.210243 
L 358.701176 218.616224 
L 360.101647 221.253981 
L 361.502118 222.761271 
L 362.902588 215.601645 
L 364.303059 221.630804 
L 365.703529 222.761271 
L 367.104 217.108935 
L 368.504471 222.384449 
L 369.904941 216.35529 
L 371.305412 209.195664 
L 372.705882 219.369869 
L 374.106353 214.471178 
L 375.506824 229.920897 
L 376.907294 222.007626 
L 378.307765 211.833421 
L 379.708235 225.399028 
L 381.108706 217.485757 
L 382.509176 231.428187 
L 383.909647 214.848 
L 385.310118 220.877159 
L 386.710588 222.007626 
L 388.111059 206.181084 
L 389.511529 229.544075 
L 390.912 211.456598 
L 392.312471 225.77585 
L 393.712941 215.601645 
L 395.113412 222.007626 
L 396.513882 231.051364 
L 397.914353 211.833421 
L 399.314824 218.993047 
L 400.715294 218.616224 
L 402.115765 222.761271 
L 403.516235 217.862579 
L 404.916706 213.717533 
L 406.317176 225.022206 
L 407.717647 217.862579 
L 409.118118 223.514916 
L 410.518588 228.413607 
L 411.919059 206.934729 
L 413.319529 223.891738 
L 414.72 212.963888 
L 414.72 212.963888 
" clip-path="url(#pa2fe4305b9)" style="fill: none; stroke: #2ca02c; stroke-opacity: 0.8; stroke-width: 1.5; stroke-linecap: square"/>
   </g>
   <g id="line2d_17">
    <path d="M 57.6 293.227065 
L 59.000471 288.328374 
L 60.400941 278.907813 
L 61.801412 265.342206 
L 63.201882 280.03828 
L 64.602353 274.762766 
L 66.002824 276.646879 
L 67.403294 245.370617 
L 68.803765 278.907813 
L 70.204235 266.472673 
L 71.604706 261.197159 
L 73.005176 259.689869 
L 74.405647 268.356785 
L 75.806118 245.370617 
L 77.206588 257.052112 
L 78.607059 216.35529 
L 80.007529 288.328374 
L 81.408 273.632299 
L 82.808471 269.487252 
L 84.208941 245.747439 
L 85.609412 269.487252 
L 87.009882 245.747439 
L 88.410353 241.22557 
L 89.810824 225.77585 
L 91.211294 260.820336 
L 92.611765 242.73286 
L 94.012235 250.646131 
L 95.412706 229.167252 
L 96.813176 241.979215 
L 98.213647 219.369869 
L 99.614118 229.920897 
L 101.014588 203.166505 
L 102.415059 295.488 
L 103.815529 270.240897 
L 105.216 280.791925 
L 106.616471 254.037533 
L 108.016941 258.182579 
L 109.417412 252.153421 
L 110.817882 244.24015 
L 112.218353 211.456598 
L 113.618824 264.211738 
L 115.019294 261.197159 
L 116.419765 233.689121 
L 117.820235 220.123514 
L 119.220706 257.805757 
L 120.621176 228.79043 
L 122.021647 219.746692 
L 123.422118 194.499589 
L 124.822588 269.11043 
L 126.223059 254.037533 
L 127.623529 245.747439 
L 129.024 219.746692 
L 130.424471 243.109682 
L 131.824941 218.239402 
L 133.225412 224.268561 
L 134.625882 198.267813 
L 136.026353 242.73286 
L 137.426824 223.138093 
L 138.827294 212.587065 
L 140.227765 186.96314 
L 141.628235 229.544075 
L 143.028706 184.702206 
L 144.429176 199.021458 
L 145.829647 153.802766 
L 147.230118 286.444262 
L 148.630588 273.255477 
L 150.031059 265.719028 
L 151.431529 238.964636 
L 152.832 263.834916 
L 154.232471 245.747439 
L 155.632941 250.269308 
L 157.033412 216.732112 
L 158.433882 269.11043 
L 159.834353 248.762019 
L 161.234824 246.501084 
L 162.635294 219.369869 
L 164.035765 259.689869 
L 165.436235 231.051364 
L 166.836706 211.079776 
L 168.237176 194.499589 
L 169.637647 273.632299 
L 171.038118 245.747439 
L 172.438588 255.544822 
L 173.839059 218.239402 
L 175.239529 258.182579 
L 176.64 231.428187 
L 178.040471 217.862579 
L 179.440941 181.310804 
L 180.841412 256.298467 
L 182.241882 230.674542 
L 183.642353 229.544075 
L 185.042824 208.442019 
L 186.443294 226.152673 
L 187.843765 177.165757 
L 189.244235 203.166505 
L 190.644706 153.049121 
L 192.045176 276.270056 
L 193.445647 256.298467 
L 194.846118 257.428935 
L 196.246588 226.906318 
L 197.647059 247.631551 
L 199.047529 229.167252 
L 200.448 223.138093 
L 201.848471 189.600897 
L 203.248941 254.791178 
L 204.649412 227.659963 
L 206.049882 224.645383 
L 207.450353 191.108187 
L 208.850824 231.428187 
L 210.251294 193.369121 
L 211.651765 190.354542 
L 213.052235 156.817346 
L 214.452706 249.138841 
L 215.853176 213.717533 
L 217.253647 232.558654 
L 218.654118 200.151925 
L 220.054588 220.877159 
L 221.455059 188.847252 
L 222.855529 181.687626 
L 224.256 147.019963 
L 225.656471 215.978467 
L 227.056941 196.006879 
L 228.457412 191.861832 
L 229.857882 163.60015 
L 231.258353 201.659215 
L 232.658824 160.962393 
L 234.059294 160.208748 
L 235.459765 112.352299 
L 236.860235 283.806505 
L 238.260706 266.09585 
L 239.661176 268.733607 
L 241.061647 241.22557 
L 242.462118 257.428935 
L 243.862588 242.356037 
L 245.263059 245.370617 
L 246.663529 233.312299 
L 248.064 257.805757 
L 249.464471 246.501084 
L 250.864941 244.24015 
L 252.265412 237.080523 
L 253.665882 243.486505 
L 255.066353 217.862579 
L 256.466824 223.514916 
L 257.867294 184.325383 
L 259.267765 254.037533 
L 260.668235 237.457346 
L 262.068706 253.66071 
L 263.469176 229.920897 
L 264.869647 261.950804 
L 266.270118 227.28314 
L 267.670588 217.108935 
L 269.071059 191.485009 
L 270.471529 238.964636 
L 271.872 222.384449 
L 273.272471 219.746692 
L 274.672941 185.45585 
L 276.073412 200.90557 
L 277.473882 184.325383 
L 278.874353 209.949308 
L 280.274824 157.570991 
L 281.675294 267.60314 
L 283.075765 248.762019 
L 284.476235 250.269308 
L 285.876706 236.703701 
L 287.277176 259.689869 
L 288.677647 222.761271 
L 290.078118 221.630804 
L 291.478588 180.180336 
L 292.879059 243.109682 
L 294.279529 218.993047 
L 295.68 223.138093 
L 297.080471 194.876411 
L 298.480941 217.485757 
L 299.881412 194.876411 
L 301.281882 194.122766 
L 302.682353 150.411364 
L 304.082824 243.109682 
L 305.483294 220.877159 
L 306.883765 223.891738 
L 308.284235 204.296972 
L 309.684706 225.022206 
L 311.085176 199.39828 
L 312.485647 196.006879 
L 313.886118 154.556411 
L 315.286588 211.456598 
L 316.687059 199.021458 
L 318.087529 201.282393 
L 319.488 173.02071 
L 320.888471 198.267813 
L 323.689412 148.15043 
L 325.089882 112.729121 
L 326.490353 265.342206 
L 327.890824 244.993794 
L 329.291294 254.791178 
L 330.691765 228.79043 
L 332.092235 244.993794 
L 333.492706 226.152673 
L 334.893176 217.108935 
L 336.293647 200.90557 
L 337.694118 249.138841 
L 339.094588 224.268561 
L 340.495059 226.906318 
L 341.895529 183.194916 
L 343.296 220.877159 
L 344.696471 191.108187 
L 346.096941 195.253234 
L 347.497412 145.889495 
L 348.897882 258.559402 
L 350.298353 233.312299 
L 351.698824 234.065944 
L 353.099294 205.050617 
L 354.499765 234.819589 
L 355.900235 190.354542 
L 357.300706 196.760523 
L 358.701176 153.425944 
L 360.101647 222.007626 
L 361.502118 183.948561 
L 362.902588 201.659215 
L 364.303059 152.672299 
L 365.703529 196.383701 
L 367.104 159.455103 
L 368.504471 156.817346 
L 369.904941 105.946318 
L 371.305412 248.008374 
L 372.705882 229.544075 
L 374.106353 237.080523 
L 375.506824 187.716785 
L 376.907294 212.210243 
L 378.307765 198.644636 
L 379.708235 200.528748 
L 381.108706 167.368374 
L 382.509176 221.630804 
L 383.909647 191.108187 
L 385.310118 187.716785 
L 386.710588 158.324636 
L 388.111059 202.41286 
L 389.511529 141.744449 
L 390.912 168.122019 
L 392.312471 110.845009 
L 393.712941 231.805009 
L 395.113412 190.354542 
L 396.513882 209.195664 
L 397.914353 157.947813 
L 399.314824 186.209495 
L 400.715294 160.962393 
L 402.115765 168.875664 
L 403.516235 113.482766 
L 404.916706 196.006879 
L 406.317176 164.353794 
L 407.717647 152.672299 
L 409.118118 124.787439 
L 410.518588 148.15043 
L 411.919059 115.366879 
L 413.319529 123.656972 
L 414.72 53.568 
L 414.72 53.568 
" clip-path="url(#pa2fe4305b9)" style="fill: none; stroke: #d62728; stroke-opacity: 0.6; stroke-width: 1.5; stroke-linecap: square"/>
   </g>
   <g id="line2d_18">
    <path d="M 57.6 202.036037 
L 59.000471 213.717533 
L 60.400941 210.326131 
L 61.801412 236.703701 
L 63.201882 221.630804 
L 64.602353 219.369869 
L 66.002824 216.35529 
L 67.403294 221.630804 
L 68.803765 222.007626 
L 70.204235 220.877159 
L 71.604706 229.544075 
L 73.005176 233.689121 
L 74.405647 223.514916 
L 75.806118 209.572486 
L 77.206588 203.92015 
L 78.607059 222.384449 
L 80.007529 222.761271 
L 81.408 218.993047 
L 82.808471 218.993047 
L 84.208941 215.224822 
L 85.609412 224.268561 
L 87.009882 226.152673 
L 88.410353 216.35529 
L 89.810824 215.601645 
L 91.211294 203.166505 
L 92.611765 212.963888 
L 94.012235 220.877159 
L 95.412706 223.891738 
L 96.813176 232.181832 
L 98.213647 227.28314 
L 99.614118 227.28314 
L 101.014588 225.399028 
L 102.415059 212.963888 
L 103.815529 214.471178 
L 105.216 219.369869 
L 106.616471 218.993047 
L 108.016941 211.456598 
L 109.417412 213.717533 
L 110.817882 217.862579 
L 112.218353 206.934729 
L 113.618824 213.34071 
L 115.019294 230.29772 
L 116.419765 215.601645 
L 117.820235 222.384449 
L 119.220706 208.065196 
L 120.621176 236.326879 
L 122.021647 220.877159 
L 123.422118 196.760523 
L 124.822588 223.514916 
L 126.223059 219.746692 
L 127.623529 211.079776 
L 129.024 206.934729 
L 130.424471 217.485757 
L 131.824941 222.384449 
L 133.225412 206.934729 
L 134.625882 219.746692 
L 136.026353 230.674542 
L 137.426824 217.485757 
L 138.827294 226.152673 
L 140.227765 217.108935 
L 141.628235 231.428187 
L 143.028706 220.500336 
L 144.429176 227.659963 
L 145.829647 223.891738 
L 147.230118 215.224822 
L 148.630588 220.500336 
L 150.031059 213.717533 
L 151.431529 208.442019 
L 152.832 212.587065 
L 154.232471 212.587065 
L 155.632941 207.688374 
L 158.433882 223.514916 
L 161.234824 209.195664 
L 162.635294 228.036785 
L 164.035765 212.587065 
L 165.436235 226.529495 
L 166.836706 215.601645 
L 168.237176 228.036785 
L 169.637647 219.369869 
L 171.038118 209.949308 
L 172.438588 219.746692 
L 173.839059 227.28314 
L 175.239529 220.500336 
L 176.64 220.877159 
L 179.440941 209.949308 
L 180.841412 218.993047 
L 182.241882 235.950056 
L 183.642353 214.848 
L 185.042824 226.906318 
L 186.443294 219.369869 
L 187.843765 220.500336 
L 189.244235 220.123514 
L 190.644706 209.949308 
L 192.045176 218.239402 
L 193.445647 234.442766 
L 194.846118 213.34071 
L 196.246588 215.601645 
L 197.647059 227.28314 
L 199.047529 218.616224 
L 200.448 223.891738 
L 201.848471 224.645383 
L 203.248941 224.268561 
L 204.649412 213.34071 
L 206.049882 213.34071 
L 207.450353 211.833421 
L 208.850824 219.746692 
L 210.251294 204.673794 
L 211.651765 217.862579 
L 213.052235 220.500336 
L 214.452706 230.29772 
L 215.853176 209.195664 
L 217.253647 227.659963 
L 218.654118 228.79043 
L 220.054588 225.399028 
L 221.455059 208.442019 
L 222.855529 203.92015 
L 224.256 233.312299 
L 225.656471 214.848 
L 227.056941 228.036785 
L 228.457412 224.645383 
L 229.857882 217.862579 
L 231.258353 209.572486 
L 232.658824 230.674542 
L 234.059294 215.978467 
L 235.459765 222.007626 
L 236.860235 225.022206 
L 238.260706 224.268561 
L 239.661176 216.35529 
L 241.061647 234.819589 
L 242.462118 210.326131 
L 243.862588 224.645383 
L 245.263059 204.673794 
L 246.663529 206.181084 
L 248.064 220.123514 
L 249.464471 218.993047 
L 250.864941 210.702953 
L 252.265412 220.877159 
L 253.665882 223.138093 
L 255.066353 216.35529 
L 256.466824 229.544075 
L 257.867294 230.29772 
L 259.267765 222.007626 
L 260.668235 211.456598 
L 262.068706 223.891738 
L 263.469176 220.500336 
L 264.869647 214.471178 
L 266.270118 218.616224 
L 267.670588 222.007626 
L 269.071059 214.848 
L 270.471529 216.732112 
L 271.872 218.239402 
L 273.272471 215.601645 
L 274.672941 233.689121 
L 276.073412 217.862579 
L 277.473882 218.993047 
L 278.874353 208.818841 
L 280.274824 211.833421 
L 281.675294 212.210243 
L 283.075765 215.978467 
L 285.876706 212.210243 
L 287.277176 215.601645 
L 288.677647 220.123514 
L 290.078118 199.39828 
L 291.478588 218.993047 
L 292.879059 207.311551 
L 294.279529 212.587065 
L 295.68 222.384449 
L 298.480941 206.181084 
L 299.881412 199.775103 
L 301.281882 220.500336 
L 302.682353 225.77585 
L 304.082824 203.92015 
L 305.483294 228.79043 
L 306.883765 224.268561 
L 308.284235 214.848 
L 309.684706 222.007626 
L 311.085176 221.630804 
L 312.485647 221.630804 
L 313.886118 221.253981 
L 315.286588 205.804262 
L 316.687059 211.456598 
L 318.087529 226.529495 
L 319.488 213.717533 
L 320.888471 230.674542 
L 322.288941 223.138093 
L 323.689412 218.239402 
L 325.089882 212.210243 
L 326.490353 200.90557 
L 327.890824 215.224822 
L 329.291294 221.630804 
L 330.691765 213.717533 
L 332.092235 202.789682 
L 333.492706 219.746692 
L 334.893176 218.993047 
L 336.293647 227.28314 
L 337.694118 194.876411 
L 339.094588 206.557907 
L 340.495059 215.601645 
L 341.895529 217.485757 
L 343.296 214.471178 
L 344.696471 212.587065 
L 346.096941 211.456598 
L 347.497412 216.732112 
L 348.897882 203.543327 
L 350.298353 222.761271 
L 351.698824 217.485757 
L 353.099294 227.28314 
L 354.499765 218.239402 
L 355.900235 220.877159 
L 357.300706 212.963888 
L 358.701176 215.601645 
L 360.101647 217.862579 
L 361.502118 225.399028 
L 362.902588 223.514916 
L 364.303059 224.645383 
L 365.703529 220.123514 
L 367.104 217.108935 
L 368.504471 220.123514 
L 369.904941 207.688374 
L 371.305412 231.428187 
L 372.705882 223.891738 
L 374.106353 220.123514 
L 375.506824 222.007626 
L 376.907294 217.485757 
L 378.307765 218.239402 
L 379.708235 229.920897 
L 381.108706 209.949308 
L 382.509176 212.587065 
L 383.909647 221.253981 
L 385.310118 217.108935 
L 386.710588 219.746692 
L 389.511529 230.674542 
L 390.912 226.529495 
L 392.312471 205.804262 
L 393.712941 215.224822 
L 395.113412 217.108935 
L 396.513882 208.818841 
L 397.914353 210.326131 
L 400.715294 235.573234 
L 402.115765 208.818841 
L 403.516235 219.369869 
L 404.916706 234.065944 
L 406.317176 214.471178 
L 407.717647 215.224822 
L 409.118118 232.181832 
L 410.518588 214.094355 
L 411.919059 206.934729 
L 413.319529 226.529495 
L 414.72 234.065944 
L 414.72 234.065944 
" clip-path="url(#pa2fe4305b9)" style="fill: none; stroke: #9467bd; stroke-opacity: 0.8; stroke-width: 1.5; stroke-linecap: square"/>
   </g>
   <g id="patch_3">
    <path d="M 57.6 307.584 
L 57.6 41.472 
" style="fill: none; stroke: #000000; stroke-width: 0.8; stroke-linejoin: miter; stroke-linecap: square"/>
   </g>
   <g id="patch_4">
    <path d="M 414.72 307.584 
L 414.72 41.472 
" style="fill: none; stroke: #000000; stroke-width: 0.8; stroke-linejoin: miter; stroke-linecap: square"/>
   </g>
   <g id="patch_5">
    <path d="M 57.6 307.584 
L 414.72 307.584 
" style="fill: none; stroke: #000000; stroke-width: 0.8; stroke-linejoin: miter; stroke-linecap: square"/>
   </g>
   <g id="patch_6">
    <path d="M 57.6 41.472 
L 414.72 41.472 
" style="fill: none; stroke: #000000; stroke-width: 0.8; stroke-linejoin: miter; stroke-linecap: square"/>
   </g>
   <g id="legend_1">
    <g id="patch_7">
     <path d="M 64.6 122.862625 
L 252.325 122.862625 
Q 254.325 122.862625 254.325 120.862625 
L 254.325 48.472 
Q 254.325 46.472 252.325 46.472 
L 64.6 46.472 
Q 62.6 46.472 62.6 48.472 
L 62.6 120.862625 
Q 62.6 122.862625 64.6 122.862625 
z
" style="fill: #ffffff; opacity: 0.8; stroke: #cccccc; stroke-linejoin: miter"/>
    </g>
    <g id="line2d_19">
     <path d="M 66.6 54.570438 
L 76.6 54.570438 
L 86.6 54.570438 
" style="fill: none; stroke: #1f77b4; stroke-opacity: 0.5; stroke-width: 1.5; stroke-linecap: square"/>
    </g>
    <g id="text_16">
     <!-- baseline 566273245414.62 -->
     <g transform="translate(94.6 58.070438) scale(0.1 -0.1)">
      <defs>
       <path id="DejaVuSans-73" d="M 2834 3397 
L 2834 2853 
Q 2591 2978 2328 3040 
Q 2066 3103 1784 3103 
Q 1356 3103 1142 2972 
Q 928 2841 928 2578 
Q 928 2378 1081 2264 
Q 1234 2150 1697 2047 
L 1894 2003 
Q 2506 1872 2764 1633 
Q 3022 1394 3022 966 
Q 3022 478 2636 193 
Q 2250 -91 1575 -91 
Q 1294 -91 989 -36 
Q 684 19 347 128 
L 347 722 
Q 666 556 975 473 
Q 1284 391 1588 391 
Q 1994 391 2212 530 
Q 2431 669 2431 922 
Q 2431 1156 2273 1281 
Q 2116 1406 1581 1522 
L 1381 1569 
Q 847 1681 609 1914 
Q 372 2147 372 2553 
Q 372 3047 722 3315 
Q 1072 3584 1716 3584 
Q 2034 3584 2315 3537 
Q 2597 3491 2834 3397 
z
" transform="scale(0.015625)"/>
       <path id="DejaVuSans-6c" d="M 603 4863 
L 1178 4863 
L 1178 0 
L 603 0 
L 603 4863 
z
" transform="scale(0.015625)"/>
       <path id="DejaVuSans-2e" d="M 684 794 
L 1344 794 
L 1344 0 
L 684 0 
L 684 794 
z
" transform="scale(0.015625)"/>
      </defs>
      <use xlink:href="#DejaVuSans-62"/>
      <use xlink:href="#DejaVuSans-61" x="63.476562"/>
      <use xlink:href="#DejaVuSans-73" x="124.755859"/>
      <use xlink:href="#DejaVuSans-65" x="176.855469"/>
      <use xlink:href="#DejaVuSans-6c" x="238.378906"/>
      <use xlink:href="#DejaVuSans-69" x="266.162109"/>
      <use xlink:href="#DejaVuSans-6e" x="293.945312"/>
      <use xlink:href="#DejaVuSans-65" x="357.324219"/>
      <use xlink:href="#DejaVuSans-20" x="418.847656"/>
      <use xlink:href="#DejaVuSans-35" x="450.634766"/>
      <use xlink:href="#DejaVuSans-36" x="514.257812"/>
      <use xlink:href="#DejaVuSans-36" x="577.880859"/>
      <use xlink:href="#DejaVuSans-32" x="641.503906"/>
      <use xlink:href="#DejaVuSans-37" x="705.126953"/>
      <use xlink:href="#DejaVuSans-33" x="768.75"/>
      <use xlink:href="#DejaVuSans-32" x="832.373047"/>
      <use xlink:href="#DejaVuSans-34" x="895.996094"/>
      <use xlink:href="#DejaVuSans-35" x="959.619141"/>
      <use xlink:href="#DejaVuSans-34" x="1023.242188"/>
      <use xlink:href="#DejaVuSans-31" x="1086.865234"/>
      <use xlink:href="#DejaVuSans-34" x="1150.488281"/>
      <use xlink:href="#DejaVuSans-2e" x="1214.111328"/>
      <use xlink:href="#DejaVuSans-36" x="1245.898438"/>
      <use xlink:href="#DejaVuSans-32" x="1309.521484"/>
     </g>
    </g>
    <g id="line2d_20">
     <path d="M 66.6 69.248563 
L 76.6 69.248563 
L 86.6 69.248563 
" style="fill: none; stroke: #ff7f0e; stroke-opacity: 0.6; stroke-width: 1.5; stroke-linecap: square"/>
    </g>
    <g id="text_17">
     <!-- 290K no xor 500088318508.62 -->
     <g transform="translate(94.6 72.748563) scale(0.1 -0.1)">
      <defs>
       <path id="DejaVuSans-39" d="M 703 97 
L 703 672 
Q 941 559 1184 500 
Q 1428 441 1663 441 
Q 2288 441 2617 861 
Q 2947 1281 2994 2138 
Q 2813 1869 2534 1725 
Q 2256 1581 1919 1581 
Q 1219 1581 811 2004 
Q 403 2428 403 3163 
Q 403 3881 828 4315 
Q 1253 4750 1959 4750 
Q 2769 4750 3195 4129 
Q 3622 3509 3622 2328 
Q 3622 1225 3098 567 
Q 2575 -91 1691 -91 
Q 1453 -91 1209 -44 
Q 966 3 703 97 
z
M 1959 2075 
Q 2384 2075 2632 2365 
Q 2881 2656 2881 3163 
Q 2881 3666 2632 3958 
Q 2384 4250 1959 4250 
Q 1534 4250 1286 3958 
Q 1038 3666 1038 3163 
Q 1038 2656 1286 2365 
Q 1534 2075 1959 2075 
z
" transform="scale(0.015625)"/>
       <path id="DejaVuSans-4b" d="M 628 4666 
L 1259 4666 
L 1259 2694 
L 3353 4666 
L 4166 4666 
L 1850 2491 
L 4331 0 
L 3500 0 
L 1259 2247 
L 1259 0 
L 628 0 
L 628 4666 
z
" transform="scale(0.015625)"/>
       <path id="DejaVuSans-6f" d="M 1959 3097 
Q 1497 3097 1228 2736 
Q 959 2375 959 1747 
Q 959 1119 1226 758 
Q 1494 397 1959 397 
Q 2419 397 2687 759 
Q 2956 1122 2956 1747 
Q 2956 2369 2687 2733 
Q 2419 3097 1959 3097 
z
M 1959 3584 
Q 2709 3584 3137 3096 
Q 3566 2609 3566 1747 
Q 3566 888 3137 398 
Q 2709 -91 1959 -91 
Q 1206 -91 779 398 
Q 353 888 353 1747 
Q 353 2609 779 3096 
Q 1206 3584 1959 3584 
z
" transform="scale(0.015625)"/>
       <path id="DejaVuSans-78" d="M 3513 3500 
L 2247 1797 
L 3578 0 
L 2900 0 
L 1881 1375 
L 863 0 
L 184 0 
L 1544 1831 
L 300 3500 
L 978 3500 
L 1906 2253 
L 2834 3500 
L 3513 3500 
z
" transform="scale(0.015625)"/>
      </defs>
      <use xlink:href="#DejaVuSans-32"/>
      <use xlink:href="#DejaVuSans-39" x="63.623047"/>
      <use xlink:href="#DejaVuSans-30" x="127.246094"/>
      <use xlink:href="#DejaVuSans-4b" x="190.869141"/>
      <use xlink:href="#DejaVuSans-20" x="256.445312"/>
      <use xlink:href="#DejaVuSans-6e" x="288.232422"/>
      <use xlink:href="#DejaVuSans-6f" x="351.611328"/>
      <use xlink:href="#DejaVuSans-20" x="412.792969"/>
      <use xlink:href="#DejaVuSans-78" x="444.580078"/>
      <use xlink:href="#DejaVuSans-6f" x="500.634766"/>
      <use xlink:href="#DejaVuSans-72" x="561.816406"/>
      <use xlink:href="#DejaVuSans-20" x="602.929688"/>
      <use xlink:href="#DejaVuSans-35" x="634.716797"/>
      <use xlink:href="#DejaVuSans-30" x="698.339844"/>
      <use xlink:href="#DejaVuSans-30" x="761.962891"/>
      <use xlink:href="#DejaVuSans-30" x="825.585938"/>
      <use xlink:href="#DejaVuSans-38" x="889.208984"/>
      <use xlink:href="#DejaVuSans-38" x="952.832031"/>
      <use xlink:href="#DejaVuSans-33" x="1016.455078"/>
      <use xlink:href="#DejaVuSans-31" x="1080.078125"/>
      <use xlink:href="#DejaVuSans-38" x="1143.701172"/>
      <use xlink:href="#DejaVuSans-35" x="1207.324219"/>
      <use xlink:href="#DejaVuSans-30" x="1270.947266"/>
      <use xlink:href="#DejaVuSans-38" x="1334.570312"/>
      <use xlink:href="#DejaVuSans-2e" x="1398.193359"/>
      <use xlink:href="#DejaVuSans-36" x="1429.980469"/>
      <use xlink:href="#DejaVuSans-32" x="1493.603516"/>
     </g>
    </g>
    <g id="line2d_21">
     <path d="M 66.6 83.926688 
L 76.6 83.926688 
L 86.6 83.926688 
" style="fill: none; stroke: #2ca02c; stroke-opacity: 0.8; stroke-width: 1.5; stroke-linecap: square"/>
    </g>
    <g id="text_18">
     <!-- 290K 2 xor 555508780034.62 -->
     <g transform="translate(94.6 87.426688) scale(0.1 -0.1)">
      <use xlink:href="#DejaVuSans-32"/>
      <use xlink:href="#DejaVuSans-39" x="63.623047"/>
      <use xlink:href="#DejaVuSans-30" x="127.246094"/>
      <use xlink:href="#DejaVuSans-4b" x="190.869141"/>
      <use xlink:href="#DejaVuSans-20" x="256.445312"/>
      <use xlink:href="#DejaVuSans-32" x="288.232422"/>
      <use xlink:href="#DejaVuSans-20" x="351.855469"/>
      <use xlink:href="#DejaVuSans-78" x="383.642578"/>
      <use xlink:href="#DejaVuSans-6f" x="439.697266"/>
      <use xlink:href="#DejaVuSans-72" x="500.878906"/>
      <use xlink:href="#DejaVuSans-20" x="541.992188"/>
      <use xlink:href="#DejaVuSans-35" x="573.779297"/>
      <use xlink:href="#DejaVuSans-35" x="637.402344"/>
      <use xlink:href="#DejaVuSans-35" x="701.025391"/>
      <use xlink:href="#DejaVuSans-35" x="764.648438"/>
      <use xlink:href="#DejaVuSans-30" x="828.271484"/>
      <use xlink:href="#DejaVuSans-38" x="891.894531"/>
      <use xlink:href="#DejaVuSans-37" x="955.517578"/>
      <use xlink:href="#DejaVuSans-38" x="1019.140625"/>
      <use xlink:href="#DejaVuSans-30" x="1082.763672"/>
      <use xlink:href="#DejaVuSans-30" x="1146.386719"/>
      <use xlink:href="#DejaVuSans-33" x="1210.009766"/>
      <use xlink:href="#DejaVuSans-34" x="1273.632812"/>
      <use xlink:href="#DejaVuSans-2e" x="1337.255859"/>
      <use xlink:href="#DejaVuSans-36" x="1369.042969"/>
      <use xlink:href="#DejaVuSans-32" x="1432.666016"/>
     </g>
    </g>
    <g id="line2d_22">
     <path d="M 66.6 98.604813 
L 76.6 98.604813 
L 86.6 98.604813 
" style="fill: none; stroke: #d62728; stroke-opacity: 0.6; stroke-width: 1.5; stroke-linecap: square"/>
    </g>
    <g id="text_19">
     <!-- 310K no xor 635759225132.62 -->
     <g transform="translate(94.6 102.104813) scale(0.1 -0.1)">
      <use xlink:href="#DejaVuSans-33"/>
      <use xlink:href="#DejaVuSans-31" x="63.623047"/>
      <use xlink:href="#DejaVuSans-30" x="127.246094"/>
      <use xlink:href="#DejaVuSans-4b" x="190.869141"/>
      <use xlink:href="#DejaVuSans-20" x="256.445312"/>
      <use xlink:href="#DejaVuSans-6e" x="288.232422"/>
      <use xlink:href="#DejaVuSans-6f" x="351.611328"/>
      <use xlink:href="#DejaVuSans-20" x="412.792969"/>
      <use xlink:href="#DejaVuSans-78" x="444.580078"/>
      <use xlink:href="#DejaVuSans-6f" x="500.634766"/>
      <use xlink:href="#DejaVuSans-72" x="561.816406"/>
      <use xlink:href="#DejaVuSans-20" x="602.929688"/>
      <use xlink:href="#DejaVuSans-36" x="634.716797"/>
      <use xlink:href="#DejaVuSans-33" x="698.339844"/>
      <use xlink:href="#DejaVuSans-35" x="761.962891"/>
      <use xlink:href="#DejaVuSans-37" x="825.585938"/>
      <use xlink:href="#DejaVuSans-35" x="889.208984"/>
      <use xlink:href="#DejaVuSans-39" x="952.832031"/>
      <use xlink:href="#DejaVuSans-32" x="1016.455078"/>
      <use xlink:href="#DejaVuSans-32" x="1080.078125"/>
      <use xlink:href="#DejaVuSans-35" x="1143.701172"/>
      <use xlink:href="#DejaVuSans-31" x="1207.324219"/>
      <use xlink:href="#DejaVuSans-33" x="1270.947266"/>
      <use xlink:href="#DejaVuSans-32" x="1334.570312"/>
      <use xlink:href="#DejaVuSans-2e" x="1398.193359"/>
      <use xlink:href="#DejaVuSans-36" x="1429.980469"/>
      <use xlink:href="#DejaVuSans-32" x="1493.603516"/>
     </g>
    </g>
    <g id="line2d_23">
     <path d="M 66.6 113.282938 
L 76.6 113.282938 
L 86.6 113.282938 
" style="fill: none; stroke: #9467bd; stroke-opacity: 0.8; stroke-width: 1.5; stroke-linecap: square"/>
    </g>
    <g id="text_20">
     <!-- 310K 2 xor 556508174046.62 -->
     <g transform="translate(94.6 116.782938) scale(0.1 -0.1)">
      <use xlink:href="#DejaVuSans-33"/>
      <use xlink:href="#DejaVuSans-31" x="63.623047"/>
      <use xlink:href="#DejaVuSans-30" x="127.246094"/>
      <use xlink:href="#DejaVuSans-4b" x="190.869141"/>
      <use xlink:href="#DejaVuSans-20" x="256.445312"/>
      <use xlink:href="#DejaVuSans-32" x="288.232422"/>
      <use xlink:href="#DejaVuSans-20" x="351.855469"/>
      <use xlink:href="#DejaVuSans-78" x="383.642578"/>
      <use xlink:href="#DejaVuSans-6f" x="439.697266"/>
      <use xlink:href="#DejaVuSans-72" x="500.878906"/>
      <use xlink:href="#DejaVuSans-20" x="541.992188"/>
      <use xlink:href="#DejaVuSans-35" x="573.779297"/>
      <use xlink:href="#DejaVuSans-35" x="637.402344"/>
      <use xlink:href="#DejaVuSans-36" x="701.025391"/>
      <use xlink:href="#DejaVuSans-35" x="764.648438"/>
      <use xlink:href="#DejaVuSans-30" x="828.271484"/>
      <use xlink:href="#DejaVuSans-38" x="891.894531"/>
      <use xlink:href="#DejaVuSans-31" x="955.517578"/>
      <use xlink:href="#DejaVuSans-37" x="1019.140625"/>
      <use xlink:href="#DejaVuSans-34" x="1082.763672"/>
      <use xlink:href="#DejaVuSans-30" x="1146.386719"/>
      <use xlink:href="#DejaVuSans-34" x="1210.009766"/>
      <use xlink:href="#DejaVuSans-36" x="1273.632812"/>
      <use xlink:href="#DejaVuSans-2e" x="1337.255859"/>
      <use xlink:href="#DejaVuSans-36" x="1369.042969"/>
      <use xlink:href="#DejaVuSans-32" x="1432.666016"/>
     </g>
    </g>
   </g>
  </g>
 </g>
 <defs>
  <clipPath id="pa2fe4305b9">
   <rect x="57.6" y="41.472" width="357.12" height="266.112"/>
  </clipPath>
 </defs>
</svg>
