<?xml version="1.0" encoding="utf-8" standalone="no"?>
<!DOCTYPE svg PUBLIC "-//W3C//DTD SVG 1.1//EN"
  "http://www.w3.org/Graphics/SVG/1.1/DTD/svg11.dtd">
<svg xmlns:xlink="http://www.w3.org/1999/xlink" width="460.8pt" height="345.6pt" viewBox="0 0 460.8 345.6" xmlns="http://www.w3.org/2000/svg" version="1.1">
 <metadata>
  <rdf:RDF xmlns:dc="http://purl.org/dc/elements/1.1/" xmlns:cc="http://creativecommons.org/ns#" xmlns:rdf="http://www.w3.org/1999/02/22-rdf-syntax-ns#">
   <cc:Work>
    <dc:type rdf:resource="http://purl.org/dc/dcmitype/StillImage"/>
    <dc:date>2024-01-26T16:21:03.280719</dc:date>
    <dc:format>image/svg+xml</dc:format>
    <dc:creator>
     <cc:Agent>
      <dc:title>Matplotlib v3.7.2, https://matplotlib.org/</dc:title>
     </cc:Agent>
    </dc:creator>
   </cc:Work>
  </rdf:RDF>
 </metadata>
 <defs>
  <style type="text/css">*{stroke-linejoin: round; stroke-linecap: butt}</style>
 </defs>
 <g id="figure_1">
  <g id="patch_1">
   <path d="M 0 345.6 
L 460.8 345.6 
L 460.8 0 
L 0 0 
z
" style="fill: #ffffff"/>
  </g>
  <g id="axes_1">
   <g id="patch_2">
    <path d="M 57.6 307.584 
L 414.72 307.584 
L 414.72 41.472 
L 57.6 41.472 
z
" style="fill: #ffffff"/>
   </g>
   <g id="matplotlib.axis_1">
    <g id="xtick_1">
     <g id="line2d_1">
      <defs>
       <path id="mf3f5f22235" d="M 0 0 
L 0 3.5 
" style="stroke: #000000; stroke-width: 0.8"/>
      </defs>
      <g>
       <use xlink:href="#mf3f5f22235" x="57.6" y="307.584" style="stroke: #000000; stroke-width: 0.8"/>
      </g>
     </g>
     <g id="text_1">
      <!-- 0 -->
      <g transform="translate(54.41875 322.182437) scale(0.1 -0.1)">
       <defs>
        <path id="DejaVuSans-30" d="M 2034 4250 
Q 1547 4250 1301 3770 
Q 1056 3291 1056 2328 
Q 1056 1369 1301 889 
Q 1547 409 2034 409 
Q 2525 409 2770 889 
Q 3016 1369 3016 2328 
Q 3016 3291 2770 3770 
Q 2525 4250 2034 4250 
z
M 2034 4750 
Q 2819 4750 3233 4129 
Q 3647 3509 3647 2328 
Q 3647 1150 3233 529 
Q 2819 -91 2034 -91 
Q 1250 -91 836 529 
Q 422 1150 422 2328 
Q 422 3509 836 4129 
Q 1250 4750 2034 4750 
z
" transform="scale(0.015625)"/>
       </defs>
       <use xlink:href="#DejaVuSans-30"/>
      </g>
     </g>
    </g>
    <g id="xtick_2">
     <g id="line2d_2">
      <g>
       <use xlink:href="#mf3f5f22235" x="127.623529" y="307.584" style="stroke: #000000; stroke-width: 0.8"/>
      </g>
     </g>
     <g id="text_2">
      <!-- 50 -->
      <g transform="translate(121.261029 322.182437) scale(0.1 -0.1)">
       <defs>
        <path id="DejaVuSans-35" d="M 691 4666 
L 3169 4666 
L 3169 4134 
L 1269 4134 
L 1269 2991 
Q 1406 3038 1543 3061 
Q 1681 3084 1819 3084 
Q 2600 3084 3056 2656 
Q 3513 2228 3513 1497 
Q 3513 744 3044 326 
Q 2575 -91 1722 -91 
Q 1428 -91 1123 -41 
Q 819 9 494 109 
L 494 744 
Q 775 591 1075 516 
Q 1375 441 1709 441 
Q 2250 441 2565 725 
Q 2881 1009 2881 1497 
Q 2881 1984 2565 2268 
Q 2250 2553 1709 2553 
Q 1456 2553 1204 2497 
Q 953 2441 691 2322 
L 691 4666 
z
" transform="scale(0.015625)"/>
       </defs>
       <use xlink:href="#DejaVuSans-35"/>
       <use xlink:href="#DejaVuSans-30" x="63.623047"/>
      </g>
     </g>
    </g>
    <g id="xtick_3">
     <g id="line2d_3">
      <g>
       <use xlink:href="#mf3f5f22235" x="197.647059" y="307.584" style="stroke: #000000; stroke-width: 0.8"/>
      </g>
     </g>
     <g id="text_3">
      <!-- 100 -->
      <g transform="translate(188.103309 322.182437) scale(0.1 -0.1)">
       <defs>
        <path id="DejaVuSans-31" d="M 794 531 
L 1825 531 
L 1825 4091 
L 703 3866 
L 703 4441 
L 1819 4666 
L 2450 4666 
L 2450 531 
L 3481 531 
L 3481 0 
L 794 0 
L 794 531 
z
" transform="scale(0.015625)"/>
       </defs>
       <use xlink:href="#DejaVuSans-31"/>
       <use xlink:href="#DejaVuSans-30" x="63.623047"/>
       <use xlink:href="#DejaVuSans-30" x="127.246094"/>
      </g>
     </g>
    </g>
    <g id="xtick_4">
     <g id="line2d_4">
      <g>
       <use xlink:href="#mf3f5f22235" x="267.670588" y="307.584" style="stroke: #000000; stroke-width: 0.8"/>
      </g>
     </g>
     <g id="text_4">
      <!-- 150 -->
      <g transform="translate(258.126838 322.182437) scale(0.1 -0.1)">
       <use xlink:href="#DejaVuSans-31"/>
       <use xlink:href="#DejaVuSans-35" x="63.623047"/>
       <use xlink:href="#DejaVuSans-30" x="127.246094"/>
      </g>
     </g>
    </g>
    <g id="xtick_5">
     <g id="line2d_5">
      <g>
       <use xlink:href="#mf3f5f22235" x="337.694118" y="307.584" style="stroke: #000000; stroke-width: 0.8"/>
      </g>
     </g>
     <g id="text_5">
      <!-- 200 -->
      <g transform="translate(328.150368 322.182437) scale(0.1 -0.1)">
       <defs>
        <path id="DejaVuSans-32" d="M 1228 531 
L 3431 531 
L 3431 0 
L 469 0 
L 469 531 
Q 828 903 1448 1529 
Q 2069 2156 2228 2338 
Q 2531 2678 2651 2914 
Q 2772 3150 2772 3378 
Q 2772 3750 2511 3984 
Q 2250 4219 1831 4219 
Q 1534 4219 1204 4116 
Q 875 4013 500 3803 
L 500 4441 
Q 881 4594 1212 4672 
Q 1544 4750 1819 4750 
Q 2544 4750 2975 4387 
Q 3406 4025 3406 3419 
Q 3406 3131 3298 2873 
Q 3191 2616 2906 2266 
Q 2828 2175 2409 1742 
Q 1991 1309 1228 531 
z
" transform="scale(0.015625)"/>
       </defs>
       <use xlink:href="#DejaVuSans-32"/>
       <use xlink:href="#DejaVuSans-30" x="63.623047"/>
       <use xlink:href="#DejaVuSans-30" x="127.246094"/>
      </g>
     </g>
    </g>
    <g id="xtick_6">
     <g id="line2d_6">
      <g>
       <use xlink:href="#mf3f5f22235" x="407.717647" y="307.584" style="stroke: #000000; stroke-width: 0.8"/>
      </g>
     </g>
     <g id="text_6">
      <!-- 250 -->
      <g transform="translate(398.173897 322.182437) scale(0.1 -0.1)">
       <use xlink:href="#DejaVuSans-32"/>
       <use xlink:href="#DejaVuSans-35" x="63.623047"/>
       <use xlink:href="#DejaVuSans-30" x="127.246094"/>
      </g>
     </g>
    </g>
   </g>
   <g id="matplotlib.axis_2">
    <g id="ytick_1">
     <g id="line2d_7">
      <defs>
       <path id="mb890f878f2" d="M 0 0 
L -3.5 0 
" style="stroke: #000000; stroke-width: 0.8"/>
      </defs>
      <g>
       <use xlink:href="#mb890f878f2" x="57.6" y="307.584" style="stroke: #000000; stroke-width: 0.8"/>
      </g>
     </g>
     <g id="text_7">
      <!-- 0.000 -->
      <g transform="translate(21.971875 311.383219) scale(0.1 -0.1)">
       <defs>
        <path id="DejaVuSans-2e" d="M 684 794 
L 1344 794 
L 1344 0 
L 684 0 
L 684 794 
z
" transform="scale(0.015625)"/>
       </defs>
       <use xlink:href="#DejaVuSans-30"/>
       <use xlink:href="#DejaVuSans-2e" x="63.623047"/>
       <use xlink:href="#DejaVuSans-30" x="95.410156"/>
       <use xlink:href="#DejaVuSans-30" x="159.033203"/>
       <use xlink:href="#DejaVuSans-30" x="222.65625"/>
      </g>
     </g>
    </g>
    <g id="ytick_2">
     <g id="line2d_8">
      <g>
       <use xlink:href="#mb890f878f2" x="57.6" y="273.521664" style="stroke: #000000; stroke-width: 0.8"/>
      </g>
     </g>
     <g id="text_8">
      <!-- 0.001 -->
      <g transform="translate(21.971875 277.320883) scale(0.1 -0.1)">
       <use xlink:href="#DejaVuSans-30"/>
       <use xlink:href="#DejaVuSans-2e" x="63.623047"/>
       <use xlink:href="#DejaVuSans-30" x="95.410156"/>
       <use xlink:href="#DejaVuSans-30" x="159.033203"/>
       <use xlink:href="#DejaVuSans-31" x="222.65625"/>
      </g>
     </g>
    </g>
    <g id="ytick_3">
     <g id="line2d_9">
      <g>
       <use xlink:href="#mb890f878f2" x="57.6" y="239.459328" style="stroke: #000000; stroke-width: 0.8"/>
      </g>
     </g>
     <g id="text_9">
      <!-- 0.002 -->
      <g transform="translate(21.971875 243.258547) scale(0.1 -0.1)">
       <use xlink:href="#DejaVuSans-30"/>
       <use xlink:href="#DejaVuSans-2e" x="63.623047"/>
       <use xlink:href="#DejaVuSans-30" x="95.410156"/>
       <use xlink:href="#DejaVuSans-30" x="159.033203"/>
       <use xlink:href="#DejaVuSans-32" x="222.65625"/>
      </g>
     </g>
    </g>
    <g id="ytick_4">
     <g id="line2d_10">
      <g>
       <use xlink:href="#mb890f878f2" x="57.6" y="205.396992" style="stroke: #000000; stroke-width: 0.8"/>
      </g>
     </g>
     <g id="text_10">
      <!-- 0.003 -->
      <g transform="translate(21.971875 209.196211) scale(0.1 -0.1)">
       <defs>
        <path id="DejaVuSans-33" d="M 2597 2516 
Q 3050 2419 3304 2112 
Q 3559 1806 3559 1356 
Q 3559 666 3084 287 
Q 2609 -91 1734 -91 
Q 1441 -91 1130 -33 
Q 819 25 488 141 
L 488 750 
Q 750 597 1062 519 
Q 1375 441 1716 441 
Q 2309 441 2620 675 
Q 2931 909 2931 1356 
Q 2931 1769 2642 2001 
Q 2353 2234 1838 2234 
L 1294 2234 
L 1294 2753 
L 1863 2753 
Q 2328 2753 2575 2939 
Q 2822 3125 2822 3475 
Q 2822 3834 2567 4026 
Q 2313 4219 1838 4219 
Q 1578 4219 1281 4162 
Q 984 4106 628 3988 
L 628 4550 
Q 988 4650 1302 4700 
Q 1616 4750 1894 4750 
Q 2613 4750 3031 4423 
Q 3450 4097 3450 3541 
Q 3450 3153 3228 2886 
Q 3006 2619 2597 2516 
z
" transform="scale(0.015625)"/>
       </defs>
       <use xlink:href="#DejaVuSans-30"/>
       <use xlink:href="#DejaVuSans-2e" x="63.623047"/>
       <use xlink:href="#DejaVuSans-30" x="95.410156"/>
       <use xlink:href="#DejaVuSans-30" x="159.033203"/>
       <use xlink:href="#DejaVuSans-33" x="222.65625"/>
      </g>
     </g>
    </g>
    <g id="ytick_5">
     <g id="line2d_11">
      <g>
       <use xlink:href="#mb890f878f2" x="57.6" y="171.334656" style="stroke: #000000; stroke-width: 0.8"/>
      </g>
     </g>
     <g id="text_11">
      <!-- 0.004 -->
      <g transform="translate(21.971875 175.133875) scale(0.1 -0.1)">
       <defs>
        <path id="DejaVuSans-34" d="M 2419 4116 
L 825 1625 
L 2419 1625 
L 2419 4116 
z
M 2253 4666 
L 3047 4666 
L 3047 1625 
L 3713 1625 
L 3713 1100 
L 3047 1100 
L 3047 0 
L 2419 0 
L 2419 1100 
L 313 1100 
L 313 1709 
L 2253 4666 
z
" transform="scale(0.015625)"/>
       </defs>
       <use xlink:href="#DejaVuSans-30"/>
       <use xlink:href="#DejaVuSans-2e" x="63.623047"/>
       <use xlink:href="#DejaVuSans-30" x="95.410156"/>
       <use xlink:href="#DejaVuSans-30" x="159.033203"/>
       <use xlink:href="#DejaVuSans-34" x="222.65625"/>
      </g>
     </g>
    </g>
    <g id="ytick_6">
     <g id="line2d_12">
      <g>
       <use xlink:href="#mb890f878f2" x="57.6" y="137.27232" style="stroke: #000000; stroke-width: 0.8"/>
      </g>
     </g>
     <g id="text_12">
      <!-- 0.005 -->
      <g transform="translate(21.971875 141.071539) scale(0.1 -0.1)">
       <use xlink:href="#DejaVuSans-30"/>
       <use xlink:href="#DejaVuSans-2e" x="63.623047"/>
       <use xlink:href="#DejaVuSans-30" x="95.410156"/>
       <use xlink:href="#DejaVuSans-30" x="159.033203"/>
       <use xlink:href="#DejaVuSans-35" x="222.65625"/>
      </g>
     </g>
    </g>
    <g id="ytick_7">
     <g id="line2d_13">
      <g>
       <use xlink:href="#mb890f878f2" x="57.6" y="103.209984" style="stroke: #000000; stroke-width: 0.8"/>
      </g>
     </g>
     <g id="text_13">
      <!-- 0.006 -->
      <g transform="translate(21.971875 107.009203) scale(0.1 -0.1)">
       <defs>
        <path id="DejaVuSans-36" d="M 2113 2584 
Q 1688 2584 1439 2293 
Q 1191 2003 1191 1497 
Q 1191 994 1439 701 
Q 1688 409 2113 409 
Q 2538 409 2786 701 
Q 3034 994 3034 1497 
Q 3034 2003 2786 2293 
Q 2538 2584 2113 2584 
z
M 3366 4563 
L 3366 3988 
Q 3128 4100 2886 4159 
Q 2644 4219 2406 4219 
Q 1781 4219 1451 3797 
Q 1122 3375 1075 2522 
Q 1259 2794 1537 2939 
Q 1816 3084 2150 3084 
Q 2853 3084 3261 2657 
Q 3669 2231 3669 1497 
Q 3669 778 3244 343 
Q 2819 -91 2113 -91 
Q 1303 -91 875 529 
Q 447 1150 447 2328 
Q 447 3434 972 4092 
Q 1497 4750 2381 4750 
Q 2619 4750 2861 4703 
Q 3103 4656 3366 4563 
z
" transform="scale(0.015625)"/>
       </defs>
       <use xlink:href="#DejaVuSans-30"/>
       <use xlink:href="#DejaVuSans-2e" x="63.623047"/>
       <use xlink:href="#DejaVuSans-30" x="95.410156"/>
       <use xlink:href="#DejaVuSans-30" x="159.033203"/>
       <use xlink:href="#DejaVuSans-36" x="222.65625"/>
      </g>
     </g>
    </g>
    <g id="ytick_8">
     <g id="line2d_14">
      <g>
       <use xlink:href="#mb890f878f2" x="57.6" y="69.147648" style="stroke: #000000; stroke-width: 0.8"/>
      </g>
     </g>
     <g id="text_14">
      <!-- 0.007 -->
      <g transform="translate(21.971875 72.946867) scale(0.1 -0.1)">
       <defs>
        <path id="DejaVuSans-37" d="M 525 4666 
L 3525 4666 
L 3525 4397 
L 1831 0 
L 1172 0 
L 2766 4134 
L 525 4134 
L 525 4666 
z
" transform="scale(0.015625)"/>
       </defs>
       <use xlink:href="#DejaVuSans-30"/>
       <use xlink:href="#DejaVuSans-2e" x="63.623047"/>
       <use xlink:href="#DejaVuSans-30" x="95.410156"/>
       <use xlink:href="#DejaVuSans-30" x="159.033203"/>
       <use xlink:href="#DejaVuSans-37" x="222.65625"/>
      </g>
     </g>
    </g>
   </g>
   <g id="line2d_15">
    <path d="M 57.6 215.615693 
L 59.000471 171.334656 
L 60.400941 191.772058 
L 61.801412 184.95959 
L 63.201882 184.95959 
L 64.602353 154.303488 
L 66.002824 181.553357 
L 67.403294 167.928422 
L 68.803765 215.615693 
L 70.204235 191.772058 
L 71.604706 174.74089 
L 73.005176 174.74089 
L 74.405647 205.396992 
L 75.806118 157.709722 
L 78.607059 164.522189 
L 80.007529 188.365824 
L 81.408 195.178291 
L 82.808471 127.053619 
L 84.208941 178.147123 
L 85.609412 161.115955 
L 87.009882 154.303488 
L 88.410353 208.803226 
L 91.211294 161.115955 
L 92.611765 191.772058 
L 94.012235 174.74089 
L 95.412706 201.990758 
L 96.813176 171.334656 
L 98.213647 191.772058 
L 99.614118 154.303488 
L 101.014588 164.522189 
L 102.415059 164.522189 
L 103.815529 181.553357 
L 105.216 157.709722 
L 106.616471 195.178291 
L 108.016941 154.303488 
L 109.417412 198.584525 
L 110.817882 174.74089 
L 112.218353 208.803226 
L 113.618824 188.365824 
L 115.019294 144.084787 
L 116.419765 171.334656 
L 117.820235 140.678554 
L 119.220706 171.334656 
L 120.621176 181.553357 
L 122.021647 171.334656 
L 123.422118 167.928422 
L 124.822588 181.553357 
L 126.223059 171.334656 
L 127.623529 181.553357 
L 129.024 184.95959 
L 130.424471 195.178291 
L 131.824941 191.772058 
L 133.225412 201.990758 
L 134.625882 181.553357 
L 136.026353 171.334656 
L 137.426824 171.334656 
L 138.827294 140.678554 
L 140.227765 198.584525 
L 141.628235 174.74089 
L 143.028706 171.334656 
L 144.429176 154.303488 
L 145.829647 167.928422 
L 147.230118 171.334656 
L 148.630588 232.646861 
L 150.031059 208.803226 
L 151.431529 171.334656 
L 152.832 171.334656 
L 154.232471 188.365824 
L 155.632941 174.74089 
L 157.033412 167.928422 
L 158.433882 154.303488 
L 159.834353 188.365824 
L 161.234824 147.491021 
L 162.635294 167.928422 
L 164.035765 181.553357 
L 165.436235 147.491021 
L 166.836706 195.178291 
L 168.237176 198.584525 
L 169.637647 208.803226 
L 171.038118 205.396992 
L 172.438588 154.303488 
L 173.839059 178.147123 
L 175.239529 178.147123 
L 176.64 174.74089 
L 178.040471 130.459853 
L 179.440941 171.334656 
L 180.841412 157.709722 
L 182.241882 157.709722 
L 183.642353 137.27232 
L 185.042824 130.459853 
L 186.443294 178.147123 
L 187.843765 154.303488 
L 189.244235 208.803226 
L 190.644706 144.084787 
L 192.045176 198.584525 
L 193.445647 178.147123 
L 194.846118 154.303488 
L 196.246588 188.365824 
L 197.647059 174.74089 
L 199.047529 191.772058 
L 200.448 205.396992 
L 201.848471 140.678554 
L 203.248941 157.709722 
L 204.649412 140.678554 
L 206.049882 171.334656 
L 207.450353 198.584525 
L 208.850824 198.584525 
L 210.251294 157.709722 
L 211.651765 164.522189 
L 213.052235 167.928422 
L 214.452706 178.147123 
L 215.853176 174.74089 
L 217.253647 205.396992 
L 218.654118 174.74089 
L 220.054588 195.178291 
L 221.455059 167.928422 
L 222.855529 198.584525 
L 224.256 171.334656 
L 225.656471 184.95959 
L 227.056941 113.428685 
L 228.457412 154.303488 
L 229.857882 164.522189 
L 231.258353 161.115955 
L 232.658824 150.897254 
L 234.059294 130.459853 
L 235.459765 184.95959 
L 236.860235 174.74089 
L 238.260706 178.147123 
L 239.661176 164.522189 
L 241.061647 205.396992 
L 242.462118 195.178291 
L 243.862588 205.396992 
L 245.263059 167.928422 
L 246.663529 195.178291 
L 248.064 171.334656 
L 249.464471 215.615693 
L 250.864941 174.74089 
L 252.265412 174.74089 
L 253.665882 195.178291 
L 255.066353 205.396992 
L 256.466824 167.928422 
L 257.867294 212.209459 
L 259.267765 198.584525 
L 260.668235 174.74089 
L 262.068706 174.74089 
L 263.469176 171.334656 
L 264.869647 181.553357 
L 266.270118 195.178291 
L 267.670588 191.772058 
L 269.071059 127.053619 
L 270.471529 167.928422 
L 271.872 154.303488 
L 273.272471 167.928422 
L 274.672941 178.147123 
L 276.073412 181.553357 
L 277.473882 188.365824 
L 278.874353 188.365824 
L 280.274824 171.334656 
L 281.675294 191.772058 
L 283.075765 167.928422 
L 284.476235 201.990758 
L 285.876706 195.178291 
L 287.277176 154.303488 
L 288.677647 174.74089 
L 290.078118 191.772058 
L 291.478588 181.553357 
L 292.879059 215.615693 
L 294.279529 161.115955 
L 295.68 164.522189 
L 297.080471 150.897254 
L 298.480941 205.396992 
L 299.881412 191.772058 
L 301.281882 150.897254 
L 302.682353 191.772058 
L 304.082824 184.95959 
L 305.483294 184.95959 
L 306.883765 198.584525 
L 308.284235 161.115955 
L 309.684706 222.42816 
L 311.085176 164.522189 
L 312.485647 178.147123 
L 313.886118 127.053619 
L 315.286588 174.74089 
L 316.687059 140.678554 
L 319.488 188.365824 
L 320.888471 229.240627 
L 322.288941 167.928422 
L 323.689412 191.772058 
L 325.089882 147.491021 
L 326.490353 150.897254 
L 327.890824 191.772058 
L 329.291294 167.928422 
L 330.691765 150.897254 
L 332.092235 195.178291 
L 333.492706 147.491021 
L 334.893176 181.553357 
L 336.293647 171.334656 
L 337.694118 195.178291 
L 339.094588 198.584525 
L 340.495059 127.053619 
L 341.895529 181.553357 
L 343.296 157.709722 
L 344.696471 171.334656 
L 346.096941 157.709722 
L 347.497412 191.772058 
L 348.897882 178.147123 
L 350.298353 181.553357 
L 351.698824 164.522189 
L 353.099294 181.553357 
L 354.499765 195.178291 
L 355.900235 178.147123 
L 357.300706 174.74089 
L 358.701176 164.522189 
L 360.101647 188.365824 
L 361.502118 184.95959 
L 362.902588 184.95959 
L 364.303059 150.897254 
L 365.703529 171.334656 
L 367.104 188.365824 
L 368.504471 167.928422 
L 369.904941 161.115955 
L 371.305412 161.115955 
L 372.705882 174.74089 
L 374.106353 201.990758 
L 375.506824 150.897254 
L 376.907294 181.553357 
L 378.307765 161.115955 
L 379.708235 133.866086 
L 381.108706 150.897254 
L 382.509176 147.491021 
L 383.909647 154.303488 
L 385.310118 167.928422 
L 386.710588 178.147123 
L 388.111059 154.303488 
L 389.511529 147.491021 
L 390.912 188.365824 
L 392.312471 147.491021 
L 393.712941 161.115955 
L 395.113412 178.147123 
L 396.513882 133.866086 
L 397.914353 195.178291 
L 399.314824 161.115955 
L 400.715294 188.365824 
L 402.115765 184.95959 
L 403.516235 150.897254 
L 404.916706 178.147123 
L 406.317176 198.584525 
L 407.717647 161.115955 
L 409.118118 147.491021 
L 410.518588 181.553357 
L 411.919059 89.58505 
L 413.319529 167.928422 
L 414.72 154.303488 
L 414.72 154.303488 
" clip-path="url(#p0f2ab6e283)" style="fill: none; stroke: #1f77b4; stroke-opacity: 0.8; stroke-width: 1.5; stroke-linecap: square"/>
   </g>
   <g id="line2d_16">
    <path d="M 57.6 290.552832 
L 59.000471 259.89673 
L 60.400941 263.302963 
L 61.801412 256.490496 
L 63.201882 280.334131 
L 64.602353 280.334131 
L 66.002824 266.709197 
L 67.403294 229.240627 
L 68.803765 273.521664 
L 70.204235 266.709197 
L 71.604706 276.927898 
L 73.005176 232.646861 
L 74.405647 246.271795 
L 75.806118 246.271795 
L 77.206588 232.646861 
L 78.607059 195.178291 
L 80.007529 270.11543 
L 81.408 259.89673 
L 82.808471 270.11543 
L 84.208941 219.021926 
L 85.609412 283.740365 
L 87.009882 215.615693 
L 88.410353 219.021926 
L 89.810824 184.95959 
L 91.211294 263.302963 
L 92.611765 242.865562 
L 95.412706 229.240627 
L 96.813176 215.615693 
L 98.213647 198.584525 
L 99.614118 215.615693 
L 101.014588 140.678554 
L 102.415059 293.959066 
L 103.815529 256.490496 
L 105.216 263.302963 
L 106.616471 222.42816 
L 108.016941 246.271795 
L 109.417412 208.803226 
L 110.817882 242.865562 
L 112.218353 184.95959 
L 113.618824 259.89673 
L 115.019294 249.678029 
L 116.419765 225.834394 
L 117.820235 225.834394 
L 119.220706 242.865562 
L 120.621176 208.803226 
L 122.021647 229.240627 
L 123.422118 154.303488 
L 124.822588 256.490496 
L 126.223059 236.053094 
L 127.623529 236.053094 
L 129.024 198.584525 
L 130.424471 266.709197 
L 131.824941 219.021926 
L 133.225412 198.584525 
L 134.625882 144.084787 
L 136.026353 239.459328 
L 137.426824 171.334656 
L 138.827294 174.74089 
L 140.227765 127.053619 
L 141.628235 215.615693 
L 143.028706 116.834918 
L 144.429176 161.115955 
L 145.829647 58.928947 
L 147.230118 280.334131 
L 148.630588 276.927898 
L 150.031059 236.053094 
L 151.431529 256.490496 
L 152.832 270.11543 
L 154.232471 225.834394 
L 155.632941 256.490496 
L 157.033412 198.584525 
L 158.433882 280.334131 
L 159.834353 236.053094 
L 161.234824 253.084262 
L 162.635294 195.178291 
L 164.035765 246.271795 
L 165.436235 215.615693 
L 166.836706 201.990758 
L 168.237176 99.80375 
L 169.637647 263.302963 
L 171.038118 246.271795 
L 172.438588 246.271795 
L 173.839059 167.928422 
L 175.239529 266.709197 
L 176.64 164.522189 
L 178.040471 201.990758 
L 179.440941 137.27232 
L 180.841412 229.240627 
L 182.241882 208.803226 
L 183.642353 191.772058 
L 185.042824 133.866086 
L 186.443294 191.772058 
L 187.843765 154.303488 
L 189.244235 154.303488 
L 190.644706 86.178816 
L 192.045176 249.678029 
L 193.445647 253.084262 
L 194.846118 239.459328 
L 196.246588 229.240627 
L 197.647059 229.240627 
L 199.047529 164.522189 
L 200.448 229.240627 
L 201.848471 110.022451 
L 203.248941 229.240627 
L 204.649412 225.834394 
L 206.049882 208.803226 
L 207.450353 154.303488 
L 208.850824 178.147123 
L 210.251294 133.866086 
L 211.651765 137.27232 
L 213.052235 14.64791 
L 214.452706 229.240627 
L 215.853176 215.615693 
L 217.253647 219.021926 
L 218.654118 133.866086 
L 220.054588 195.178291 
L 221.455059 120.241152 
L 222.855529 133.866086 
L 224.256 86.178816 
L 225.656471 171.334656 
L 227.056941 178.147123 
L 228.457412 140.678554 
L 229.857882 55.522714 
L 231.258353 120.241152 
L 232.658824 18.054144 
L 234.059294 4.42921 
L 234.190601 -1 
M 235.675523 -1 
L 236.860235 287.146598 
L 238.260706 263.302963 
L 239.661176 280.334131 
L 241.061647 246.271795 
L 242.462118 270.11543 
L 243.862588 239.459328 
L 245.263059 201.990758 
L 246.663529 198.584525 
L 248.064 273.521664 
L 249.464471 222.42816 
L 250.864941 222.42816 
L 252.265412 215.615693 
L 253.665882 253.084262 
L 255.066353 191.772058 
L 256.466824 188.365824 
L 257.867294 150.897254 
L 259.267765 259.89673 
L 260.668235 236.053094 
L 262.068706 253.084262 
L 263.469176 208.803226 
L 264.869647 236.053094 
L 266.270118 205.396992 
L 267.670588 188.365824 
L 269.071059 133.866086 
L 270.471529 232.646861 
L 271.872 178.147123 
L 273.272471 181.553357 
L 274.672941 144.084787 
L 276.073412 171.334656 
L 277.473882 161.115955 
L 278.874353 120.241152 
L 280.274824 18.054144 
L 281.675294 263.302963 
L 283.075765 246.271795 
L 284.476235 276.927898 
L 285.876706 178.147123 
L 287.277176 212.209459 
L 288.677647 198.584525 
L 290.078118 188.365824 
L 291.478588 82.772582 
L 292.879059 256.490496 
L 294.279529 205.396992 
L 295.68 229.240627 
L 297.080471 144.084787 
L 298.480941 167.928422 
L 299.881412 123.647386 
L 301.281882 92.991283 
L 302.682353 21.460378 
L 304.082824 225.834394 
L 305.483294 161.115955 
L 306.883765 201.990758 
L 308.284235 140.678554 
L 309.684706 229.240627 
L 311.085176 164.522189 
L 312.485647 116.834918 
L 313.886118 82.772582 
L 315.286588 164.522189 
L 316.687059 110.022451 
L 318.087529 116.834918 
L 319.488 28.272845 
L 320.888471 147.491021 
L 322.288941 31.679078 
L 323.689412 35.085312 
L 325.089882 18.054144 
L 326.490353 283.740365 
L 327.890824 219.021926 
L 329.291294 208.803226 
L 330.691765 236.053094 
L 333.492706 215.615693 
L 334.893176 188.365824 
L 336.293647 140.678554 
L 337.694118 236.053094 
L 339.094588 201.990758 
L 340.495059 225.834394 
L 341.895529 140.678554 
L 343.296 208.803226 
L 344.696471 171.334656 
L 347.497412 86.178816 
L 348.897882 222.42816 
L 351.698824 167.928422 
L 353.099294 130.459853 
L 354.499765 195.178291 
L 355.900235 150.897254 
L 357.300706 144.084787 
L 358.701176 62.335181 
L 360.101647 184.95959 
L 361.502118 106.616218 
L 362.902588 110.022451 
L 364.303059 65.741414 
L 365.703529 150.897254 
L 367.104 41.897779 
L 368.504471 48.710246 
L 368.839525 -1 
M 370.424864 -1 
L 371.305412 266.709197 
L 372.705882 191.772058 
L 374.106353 195.178291 
L 375.506824 130.459853 
L 376.907294 219.021926 
L 378.307765 130.459853 
L 379.708235 140.678554 
L 381.108706 99.80375 
L 382.509176 208.803226 
L 383.909647 127.053619 
L 385.310118 154.303488 
L 386.698225 -1 
M 386.728934 -1 
L 388.111059 103.209984 
L 389.511529 72.553882 
L 390.912 55.522714 
L 391.326987 -1 
M 392.954181 -1 
L 393.712941 157.709722 
L 395.113412 161.115955 
L 397.835585 -1 
M 397.957162 -1 
L 399.314824 150.897254 
L 400.715294 52.11648 
L 401.807234 -1 
M 404.332998 -1 
L 404.916706 116.834918 
L 407.717647 35.085312 
L 408.098069 -1 
L 408.098069 -1 
" clip-path="url(#p0f2ab6e283)" style="fill: none; stroke: #ff7f0e; stroke-opacity: 0.8; stroke-width: 1.5; stroke-linecap: square"/>
   </g>
   <g id="line2d_17">
    <path d="M 57.6 92.991283 
L 59.000471 140.678554 
L 60.400941 106.616218 
L 61.801412 164.522189 
L 63.201882 137.27232 
L 66.002824 191.772058 
L 67.403294 127.053619 
L 68.803765 116.834918 
L 70.204235 184.95959 
L 71.604706 181.553357 
L 73.005176 113.428685 
L 74.405647 167.928422 
L 75.806118 140.678554 
L 78.607059 188.365824 
L 80.007529 161.115955 
L 81.408 92.991283 
L 82.808471 164.522189 
L 84.208941 150.897254 
L 85.609412 150.897254 
L 87.009882 171.334656 
L 88.410353 174.74089 
L 89.810824 195.178291 
L 91.211294 144.084787 
L 92.611765 161.115955 
L 94.012235 157.709722 
L 95.412706 167.928422 
L 96.813176 157.709722 
L 98.213647 184.95959 
L 99.614118 150.897254 
L 101.014588 198.584525 
L 102.415059 150.897254 
L 103.815529 171.334656 
L 105.216 167.928422 
L 106.616471 191.772058 
L 108.016941 154.303488 
L 109.417412 195.178291 
L 110.817882 133.866086 
L 112.218353 208.803226 
L 113.618824 110.022451 
L 115.019294 174.74089 
L 116.419765 161.115955 
L 117.820235 157.709722 
L 119.220706 208.803226 
L 120.621176 222.42816 
L 122.021647 188.365824 
L 123.422118 219.021926 
L 124.822588 150.897254 
L 126.223059 171.334656 
L 127.623529 167.928422 
L 129.024 161.115955 
L 130.424471 184.95959 
L 131.824941 157.709722 
L 133.225412 174.74089 
L 136.026353 201.990758 
L 137.426824 157.709722 
L 138.827294 164.522189 
L 140.227765 161.115955 
L 141.628235 171.334656 
L 143.028706 164.522189 
L 144.429176 212.209459 
L 145.829647 232.646861 
L 147.230118 157.709722 
L 148.630588 195.178291 
L 150.031059 167.928422 
L 151.431529 127.053619 
L 152.832 137.27232 
L 154.232471 154.303488 
L 155.632941 110.022451 
L 157.033412 157.709722 
L 158.433882 147.491021 
L 159.834353 161.115955 
L 161.234824 123.647386 
L 162.635294 174.74089 
L 164.035765 154.303488 
L 165.436235 150.897254 
L 166.836706 167.928422 
L 168.237176 174.74089 
L 169.637647 123.647386 
L 171.038118 157.709722 
L 172.438588 164.522189 
L 173.839059 188.365824 
L 176.64 127.053619 
L 178.040471 137.27232 
L 179.440941 174.74089 
L 180.841412 130.459853 
L 182.241882 184.95959 
L 183.642353 174.74089 
L 185.042824 212.209459 
L 187.843765 157.709722 
L 189.244235 205.396992 
L 190.644706 201.990758 
L 192.045176 150.897254 
L 193.445647 161.115955 
L 194.846118 174.74089 
L 196.246588 167.928422 
L 197.647059 127.053619 
L 199.047529 174.74089 
L 201.848471 174.74089 
L 203.248941 150.897254 
L 204.649412 140.678554 
L 206.049882 184.95959 
L 208.850824 164.522189 
L 210.251294 188.365824 
L 211.651765 167.928422 
L 213.052235 184.95959 
L 214.452706 181.553357 
L 215.853176 191.772058 
L 217.253647 154.303488 
L 218.654118 181.553357 
L 220.054588 178.147123 
L 221.455059 167.928422 
L 222.855529 161.115955 
L 224.256 161.115955 
L 225.656471 198.584525 
L 227.056941 198.584525 
L 228.457412 181.553357 
L 229.857882 225.834394 
L 231.258353 184.95959 
L 232.658824 212.209459 
L 234.059294 201.990758 
L 235.459765 201.990758 
L 236.860235 140.678554 
L 238.260706 154.303488 
L 239.661176 154.303488 
L 241.061647 167.928422 
L 242.462118 113.428685 
L 243.862588 164.522189 
L 245.263059 140.678554 
L 246.663529 178.147123 
L 248.064 157.709722 
L 249.464471 171.334656 
L 250.864941 167.928422 
L 252.265412 188.365824 
L 253.665882 171.334656 
L 255.066353 205.396992 
L 256.466824 161.115955 
L 257.867294 208.803226 
L 259.267765 123.647386 
L 260.668235 181.553357 
L 262.068706 188.365824 
L 263.469176 188.365824 
L 264.869647 116.834918 
L 266.270118 167.928422 
L 267.670588 178.147123 
L 269.071059 212.209459 
L 270.471529 144.084787 
L 271.872 161.115955 
L 273.272471 154.303488 
L 274.672941 205.396992 
L 276.073412 201.990758 
L 277.473882 157.709722 
L 278.874353 174.74089 
L 280.274824 178.147123 
L 281.675294 140.678554 
L 283.075765 157.709722 
L 284.476235 184.95959 
L 285.876706 191.772058 
L 287.277176 171.334656 
L 290.078118 150.897254 
L 291.478588 164.522189 
L 292.879059 140.678554 
L 294.279529 184.95959 
L 295.68 181.553357 
L 297.080471 150.897254 
L 298.480941 174.74089 
L 299.881412 188.365824 
L 301.281882 205.396992 
L 302.682353 157.709722 
L 304.082824 167.928422 
L 305.483294 184.95959 
L 306.883765 198.584525 
L 308.284235 184.95959 
L 309.684706 164.522189 
L 311.085176 198.584525 
L 312.485647 184.95959 
L 313.886118 205.396992 
L 315.286588 133.866086 
L 316.687059 181.553357 
L 318.087529 212.209459 
L 319.488 205.396992 
L 320.888471 208.803226 
L 322.288941 195.178291 
L 323.689412 205.396992 
L 325.089882 191.772058 
L 326.490353 184.95959 
L 327.890824 184.95959 
L 329.291294 201.990758 
L 330.691765 174.74089 
L 332.092235 188.365824 
L 333.492706 167.928422 
L 334.893176 184.95959 
L 336.293647 178.147123 
L 337.694118 161.115955 
L 339.094588 164.522189 
L 340.495059 181.553357 
L 341.895529 208.803226 
L 343.296 130.459853 
L 344.696471 174.74089 
L 346.096941 195.178291 
L 347.497412 205.396992 
L 348.897882 140.678554 
L 350.298353 174.74089 
L 351.698824 167.928422 
L 353.099294 191.772058 
L 354.499765 181.553357 
L 355.900235 188.365824 
L 357.300706 201.990758 
L 358.701176 195.178291 
L 360.101647 191.772058 
L 361.502118 201.990758 
L 362.902588 198.584525 
L 364.303059 212.209459 
L 365.703529 205.396992 
L 367.104 212.209459 
L 368.504471 191.772058 
L 369.904941 191.772058 
L 371.305412 167.928422 
L 372.705882 181.553357 
L 374.106353 167.928422 
L 375.506824 229.240627 
L 376.907294 157.709722 
L 378.307765 201.990758 
L 379.708235 208.803226 
L 381.108706 184.95959 
L 382.509176 167.928422 
L 383.909647 178.147123 
L 385.310118 167.928422 
L 386.710588 201.990758 
L 388.111059 195.178291 
L 389.511529 181.553357 
L 390.912 242.865562 
L 392.312471 208.803226 
L 393.712941 161.115955 
L 395.113412 181.553357 
L 396.513882 222.42816 
L 397.914353 184.95959 
L 399.314824 188.365824 
L 400.715294 215.615693 
L 402.115765 208.803226 
L 403.516235 191.772058 
L 404.916706 140.678554 
L 406.317176 232.646861 
L 407.717647 198.584525 
L 409.118118 181.553357 
L 410.518588 198.584525 
L 411.919059 229.240627 
L 413.319529 232.646861 
L 414.72 219.021926 
L 414.72 219.021926 
" clip-path="url(#p0f2ab6e283)" style="fill: none; stroke: #2ca02c; stroke-opacity: 0.8; stroke-width: 1.5; stroke-linecap: square"/>
   </g>
   <g id="patch_3">
    <path d="M 57.6 307.584 
L 57.6 41.472 
" style="fill: none; stroke: #000000; stroke-width: 0.8; stroke-linejoin: miter; stroke-linecap: square"/>
   </g>
   <g id="patch_4">
    <path d="M 414.72 307.584 
L 414.72 41.472 
" style="fill: none; stroke: #000000; stroke-width: 0.8; stroke-linejoin: miter; stroke-linecap: square"/>
   </g>
   <g id="patch_5">
    <path d="M 57.6 307.584 
L 414.72 307.584 
" style="fill: none; stroke: #000000; stroke-width: 0.8; stroke-linejoin: miter; stroke-linecap: square"/>
   </g>
   <g id="patch_6">
    <path d="M 57.6 41.472 
L 414.72 41.472 
" style="fill: none; stroke: #000000; stroke-width: 0.8; stroke-linejoin: miter; stroke-linecap: square"/>
   </g>
   <g id="legend_1">
    <g id="patch_7">
     <path d="M 64.6 93.506375 
L 115.6875 93.506375 
Q 117.6875 93.506375 117.6875 91.506375 
L 117.6875 48.472 
Q 117.6875 46.472 115.6875 46.472 
L 64.6 46.472 
Q 62.6 46.472 62.6 48.472 
L 62.6 91.506375 
Q 62.6 93.506375 64.6 93.506375 
z
" style="fill: #ffffff; opacity: 0.8; stroke: #cccccc; stroke-linejoin: miter"/>
    </g>
    <g id="line2d_18">
     <path d="M 66.6 54.570438 
L 76.6 54.570438 
L 86.6 54.570438 
" style="fill: none; stroke: #1f77b4; stroke-opacity: 0.8; stroke-width: 1.5; stroke-linecap: square"/>
    </g>
    <g id="text_15">
     <!-- 300 -->
     <g transform="translate(94.6 58.070438) scale(0.1 -0.1)">
      <use xlink:href="#DejaVuSans-33"/>
      <use xlink:href="#DejaVuSans-30" x="63.623047"/>
      <use xlink:href="#DejaVuSans-30" x="127.246094"/>
     </g>
    </g>
    <g id="line2d_19">
     <path d="M 66.6 69.248563 
L 76.6 69.248563 
L 86.6 69.248563 
" style="fill: none; stroke: #ff7f0e; stroke-opacity: 0.8; stroke-width: 1.5; stroke-linecap: square"/>
    </g>
    <g id="text_16">
     <!-- T -->
     <g transform="translate(94.6 72.748563) scale(0.1 -0.1)">
      <defs>
       <path id="DejaVuSans-54" d="M -19 4666 
L 3928 4666 
L 3928 4134 
L 2272 4134 
L 2272 0 
L 1638 0 
L 1638 4134 
L -19 4134 
L -19 4666 
z
" transform="scale(0.015625)"/>
      </defs>
      <use xlink:href="#DejaVuSans-54"/>
     </g>
    </g>
    <g id="line2d_20">
     <path d="M 66.6 83.926688 
L 76.6 83.926688 
L 86.6 83.926688 
" style="fill: none; stroke: #2ca02c; stroke-opacity: 0.8; stroke-width: 1.5; stroke-linecap: square"/>
    </g>
    <g id="text_17">
     <!-- TX -->
     <g transform="translate(94.6 87.426688) scale(0.1 -0.1)">
      <defs>
       <path id="DejaVuSans-58" d="M 403 4666 
L 1081 4666 
L 2241 2931 
L 3406 4666 
L 4084 4666 
L 2584 2425 
L 4184 0 
L 3506 0 
L 2194 1984 
L 872 0 
L 191 0 
L 1856 2491 
L 403 4666 
z
" transform="scale(0.015625)"/>
      </defs>
      <use xlink:href="#DejaVuSans-54"/>
      <use xlink:href="#DejaVuSans-58" x="61.083984"/>
     </g>
    </g>
   </g>
  </g>
 </g>
 <defs>
  <clipPath id="p0f2ab6e283">
   <rect x="57.6" y="41.472" width="357.12" height="266.112"/>
  </clipPath>
 </defs>
</svg>
