<?xml version="1.0" encoding="utf-8" standalone="no"?>
<!DOCTYPE svg PUBLIC "-//W3C//DTD SVG 1.1//EN"
  "http://www.w3.org/Graphics/SVG/1.1/DTD/svg11.dtd">
<svg xmlns:xlink="http://www.w3.org/1999/xlink" width="438.045756pt" height="497.438897pt" viewBox="0 0 438.045756 497.438897" xmlns="http://www.w3.org/2000/svg" version="1.1">
 <metadata>
  <rdf:RDF xmlns:dc="http://purl.org/dc/elements/1.1/" xmlns:cc="http://creativecommons.org/ns#" xmlns:rdf="http://www.w3.org/1999/02/22-rdf-syntax-ns#">
   <cc:Work>
    <dc:type rdf:resource="http://purl.org/dc/dcmitype/StillImage"/>
    <dc:date>2024-01-01T13:10:50.800176</dc:date>
    <dc:format>image/svg+xml</dc:format>
    <dc:creator>
     <cc:Agent>
      <dc:title>Matplotlib v3.7.2, https://matplotlib.org/</dc:title>
     </cc:Agent>
    </dc:creator>
   </cc:Work>
  </rdf:RDF>
 </metadata>
 <defs>
  <style type="text/css">*{stroke-linejoin: round; stroke-linecap: butt}</style>
 </defs>
 <g id="figure_1">
  <g id="patch_1">
   <path d="M 0 497.438897 
L 438.045756 497.438897 
L 438.045756 0 
L 0 0 
z
" style="fill: #ffffff"/>
  </g>
  <g id="axes_1">
   <g id="patch_2">
    <path d="M 32.685756 467.52058 
L 434.445756 467.52058 
L 434.445756 17.90218 
L 32.685756 17.90218 
z
" style="fill: #ffffff"/>
   </g>
   <g id="matplotlib.axis_1">
    <g id="xtick_1">
     <g id="line2d_1">
      <defs>
       <path id="m284331e004" d="M 0 0 
L 0 -3 
" style="stroke: #000000; stroke-width: 0.5"/>
      </defs>
      <g>
       <use xlink:href="#m284331e004" x="91.529392" y="467.52058" style="stroke: #000000; stroke-width: 0.5"/>
      </g>
     </g>
     <g id="line2d_2">
      <defs>
       <path id="m472bec60bf" d="M 0 0 
L 0 3 
" style="stroke: #000000; stroke-width: 0.5"/>
      </defs>
      <g>
       <use xlink:href="#m472bec60bf" x="91.529392" y="17.90218" style="stroke: #000000; stroke-width: 0.5"/>
      </g>
     </g>
     <g id="text_1">
      <!-- $\mathdefault{−0.8}$ -->
      <g transform="translate(81.289981 477.939078) scale(0.1 -0.1)">
       <defs>
        <path id="CMSY10-0" d="M 4218 1472 
C 4326 1472 4442 1472 4442 1600 
C 4442 1728 4326 1728 4218 1728 
L 755 1728 
C 646 1728 531 1728 531 1600 
C 531 1472 646 1472 755 1472 
L 4218 1472 
z
" transform="scale(0.015625)"/>
        <path id="CMR17-30" d="M 2688 2025 
C 2688 2416 2682 3080 2413 3591 
C 2176 4039 1798 4198 1466 4198 
C 1158 4198 768 4058 525 3597 
C 269 3118 243 2524 243 2025 
C 243 1661 250 1106 448 619 
C 723 -39 1216 -128 1466 -128 
C 1760 -128 2208 -7 2470 600 
C 2662 1042 2688 1559 2688 2025 
z
M 1466 -26 
C 1056 -26 813 325 723 812 
C 653 1188 653 1738 653 2096 
C 653 2588 653 2997 736 3387 
C 858 3929 1216 4096 1466 4096 
C 1728 4096 2067 3923 2189 3400 
C 2272 3036 2278 2607 2278 2096 
C 2278 1680 2278 1169 2202 792 
C 2067 95 1690 -26 1466 -26 
z
" transform="scale(0.015625)"/>
        <path id="CMMI12-3a" d="M 1178 307 
C 1178 492 1024 619 870 619 
C 685 619 557 466 557 313 
C 557 128 710 0 864 0 
C 1050 0 1178 153 1178 307 
z
" transform="scale(0.015625)"/>
        <path id="CMR17-38" d="M 1741 2264 
C 2144 2467 2554 2773 2554 3263 
C 2554 3841 1990 4179 1472 4179 
C 890 4179 378 3759 378 3180 
C 378 3021 416 2747 666 2505 
C 730 2442 998 2251 1171 2130 
C 883 1983 211 1634 211 934 
C 211 279 838 -128 1459 -128 
C 2144 -128 2720 362 2720 1010 
C 2720 1590 2330 1857 2074 2029 
L 1741 2264 
z
M 902 2822 
C 851 2854 595 3051 595 3351 
C 595 3739 998 4032 1459 4032 
C 1965 4032 2336 3676 2336 3262 
C 2336 2669 1670 2331 1638 2331 
C 1632 2331 1626 2331 1574 2370 
L 902 2822 
z
M 2080 1519 
C 2176 1449 2483 1240 2483 851 
C 2483 381 2010 25 1472 25 
C 890 25 448 438 448 940 
C 448 1443 838 1862 1280 2060 
L 2080 1519 
z
" transform="scale(0.015625)"/>
       </defs>
       <use xlink:href="#CMSY10-0" transform="scale(0.996264)"/>
       <use xlink:href="#CMR17-30" transform="translate(77.487468 0) scale(0.996264)"/>
       <use xlink:href="#CMMI12-3a" transform="translate(123.177945 0) scale(0.996264)"/>
       <use xlink:href="#CMR17-38" transform="translate(150.275122 0) scale(0.996264)"/>
      </g>
     </g>
    </g>
    <g id="xtick_2">
     <g id="line2d_3">
      <g>
       <use xlink:href="#m284331e004" x="172.693028" y="467.52058" style="stroke: #000000; stroke-width: 0.5"/>
      </g>
     </g>
     <g id="line2d_4">
      <g>
       <use xlink:href="#m472bec60bf" x="172.693028" y="17.90218" style="stroke: #000000; stroke-width: 0.5"/>
      </g>
     </g>
     <g id="text_2">
      <!-- $\mathdefault{−0.6}$ -->
      <g transform="translate(162.453617 477.939078) scale(0.1 -0.1)">
       <defs>
        <path id="CMR17-36" d="M 678 2176 
C 678 3690 1395 4032 1811 4032 
C 1946 4032 2272 4009 2400 3776 
C 2298 3776 2106 3776 2106 3553 
C 2106 3381 2246 3323 2336 3323 
C 2394 3323 2566 3348 2566 3560 
C 2566 3954 2246 4179 1805 4179 
C 1043 4179 243 3390 243 1984 
C 243 253 966 -128 1478 -128 
C 2099 -128 2688 427 2688 1283 
C 2688 2081 2170 2662 1517 2662 
C 1126 2662 838 2407 678 1960 
L 678 2176 
z
M 1478 25 
C 691 25 691 1200 691 1436 
C 691 1896 909 2560 1504 2560 
C 1613 2560 1926 2560 2138 2120 
C 2253 1870 2253 1609 2253 1289 
C 2253 944 2253 690 2118 434 
C 1978 171 1773 25 1478 25 
z
" transform="scale(0.015625)"/>
       </defs>
       <use xlink:href="#CMSY10-0" transform="scale(0.996264)"/>
       <use xlink:href="#CMR17-30" transform="translate(77.487468 0) scale(0.996264)"/>
       <use xlink:href="#CMMI12-3a" transform="translate(123.177945 0) scale(0.996264)"/>
       <use xlink:href="#CMR17-36" transform="translate(150.275122 0) scale(0.996264)"/>
      </g>
     </g>
    </g>
    <g id="xtick_3">
     <g id="line2d_5">
      <g>
       <use xlink:href="#m284331e004" x="253.856665" y="467.52058" style="stroke: #000000; stroke-width: 0.5"/>
      </g>
     </g>
     <g id="line2d_6">
      <g>
       <use xlink:href="#m472bec60bf" x="253.856665" y="17.90218" style="stroke: #000000; stroke-width: 0.5"/>
      </g>
     </g>
     <g id="text_3">
      <!-- $\mathdefault{−0.4}$ -->
      <g transform="translate(243.617253 477.939078) scale(0.1 -0.1)">
       <defs>
        <path id="CMR17-34" d="M 2150 4122 
C 2150 4256 2144 4256 2029 4256 
L 128 1254 
L 128 1088 
L 1779 1088 
L 1779 457 
C 1779 224 1766 160 1318 160 
L 1197 160 
L 1197 0 
C 1402 0 1747 0 1965 0 
C 2182 0 2528 0 2733 0 
L 2733 160 
L 2611 160 
C 2163 160 2150 224 2150 457 
L 2150 1088 
L 2803 1088 
L 2803 1254 
L 2150 1254 
L 2150 4122 
z
M 1798 3703 
L 1798 1254 
L 256 1254 
L 1798 3703 
z
" transform="scale(0.015625)"/>
       </defs>
       <use xlink:href="#CMSY10-0" transform="scale(0.996264)"/>
       <use xlink:href="#CMR17-30" transform="translate(77.487468 0) scale(0.996264)"/>
       <use xlink:href="#CMMI12-3a" transform="translate(123.177945 0) scale(0.996264)"/>
       <use xlink:href="#CMR17-34" transform="translate(150.275122 0) scale(0.996264)"/>
      </g>
     </g>
    </g>
    <g id="xtick_4">
     <g id="line2d_7">
      <g>
       <use xlink:href="#m284331e004" x="335.020301" y="467.52058" style="stroke: #000000; stroke-width: 0.5"/>
      </g>
     </g>
     <g id="line2d_8">
      <g>
       <use xlink:href="#m472bec60bf" x="335.020301" y="17.90218" style="stroke: #000000; stroke-width: 0.5"/>
      </g>
     </g>
     <g id="text_4">
      <!-- $\mathdefault{−0.2}$ -->
      <g transform="translate(324.78089 477.939078) scale(0.1 -0.1)">
       <defs>
        <path id="CMR17-32" d="M 2669 989 
L 2554 989 
C 2490 536 2438 459 2413 420 
C 2381 369 1920 369 1830 369 
L 602 369 
C 832 619 1280 1072 1824 1597 
C 2214 1967 2669 2402 2669 3035 
C 2669 3790 2067 4224 1395 4224 
C 691 4224 262 3604 262 3030 
C 262 2780 448 2748 525 2748 
C 589 2748 781 2787 781 3010 
C 781 3207 614 3264 525 3264 
C 486 3264 448 3258 422 3245 
C 544 3790 915 4058 1306 4058 
C 1862 4058 2227 3617 2227 3035 
C 2227 2479 1901 2000 1536 1584 
L 262 146 
L 262 0 
L 2515 0 
L 2669 989 
z
" transform="scale(0.015625)"/>
       </defs>
       <use xlink:href="#CMSY10-0" transform="scale(0.996264)"/>
       <use xlink:href="#CMR17-30" transform="translate(77.487468 0) scale(0.996264)"/>
       <use xlink:href="#CMMI12-3a" transform="translate(123.177945 0) scale(0.996264)"/>
       <use xlink:href="#CMR17-32" transform="translate(150.275122 0) scale(0.996264)"/>
      </g>
     </g>
    </g>
    <g id="xtick_5">
     <g id="line2d_9">
      <g>
       <use xlink:href="#m284331e004" x="416.183938" y="467.52058" style="stroke: #000000; stroke-width: 0.5"/>
      </g>
     </g>
     <g id="line2d_10">
      <g>
       <use xlink:href="#m472bec60bf" x="416.183938" y="17.90218" style="stroke: #000000; stroke-width: 0.5"/>
      </g>
     </g>
     <g id="text_5">
      <!-- $\mathdefault{0.0}$ -->
      <g transform="translate(409.818898 477.939078) scale(0.1 -0.1)">
       <use xlink:href="#CMR17-30" transform="scale(0.996264)"/>
       <use xlink:href="#CMMI12-3a" transform="translate(45.690477 0) scale(0.996264)"/>
       <use xlink:href="#CMR17-30" transform="translate(72.787654 0) scale(0.996264)"/>
      </g>
     </g>
    </g>
    <g id="xtick_6">
     <g id="line2d_11">
      <defs>
       <path id="m5a85035f0e" d="M 0 0 
L 0 -1.5 
" style="stroke: #000000; stroke-width: 0.5"/>
      </defs>
      <g>
       <use xlink:href="#m5a85035f0e" x="50.947574" y="467.52058" style="stroke: #000000; stroke-width: 0.5"/>
      </g>
     </g>
     <g id="line2d_12">
      <defs>
       <path id="mf0915a55c0" d="M 0 0 
L 0 1.5 
" style="stroke: #000000; stroke-width: 0.5"/>
      </defs>
      <g>
       <use xlink:href="#mf0915a55c0" x="50.947574" y="17.90218" style="stroke: #000000; stroke-width: 0.5"/>
      </g>
     </g>
    </g>
    <g id="xtick_7">
     <g id="line2d_13">
      <g>
       <use xlink:href="#m5a85035f0e" x="71.238483" y="467.52058" style="stroke: #000000; stroke-width: 0.5"/>
      </g>
     </g>
     <g id="line2d_14">
      <g>
       <use xlink:href="#mf0915a55c0" x="71.238483" y="17.90218" style="stroke: #000000; stroke-width: 0.5"/>
      </g>
     </g>
    </g>
    <g id="xtick_8">
     <g id="line2d_15">
      <g>
       <use xlink:href="#m5a85035f0e" x="111.820301" y="467.52058" style="stroke: #000000; stroke-width: 0.5"/>
      </g>
     </g>
     <g id="line2d_16">
      <g>
       <use xlink:href="#mf0915a55c0" x="111.820301" y="17.90218" style="stroke: #000000; stroke-width: 0.5"/>
      </g>
     </g>
    </g>
    <g id="xtick_9">
     <g id="line2d_17">
      <g>
       <use xlink:href="#m5a85035f0e" x="132.11121" y="467.52058" style="stroke: #000000; stroke-width: 0.5"/>
      </g>
     </g>
     <g id="line2d_18">
      <g>
       <use xlink:href="#mf0915a55c0" x="132.11121" y="17.90218" style="stroke: #000000; stroke-width: 0.5"/>
      </g>
     </g>
    </g>
    <g id="xtick_10">
     <g id="line2d_19">
      <g>
       <use xlink:href="#m5a85035f0e" x="152.402119" y="467.52058" style="stroke: #000000; stroke-width: 0.5"/>
      </g>
     </g>
     <g id="line2d_20">
      <g>
       <use xlink:href="#mf0915a55c0" x="152.402119" y="17.90218" style="stroke: #000000; stroke-width: 0.5"/>
      </g>
     </g>
    </g>
    <g id="xtick_11">
     <g id="line2d_21">
      <g>
       <use xlink:href="#m5a85035f0e" x="192.983938" y="467.52058" style="stroke: #000000; stroke-width: 0.5"/>
      </g>
     </g>
     <g id="line2d_22">
      <g>
       <use xlink:href="#mf0915a55c0" x="192.983938" y="17.90218" style="stroke: #000000; stroke-width: 0.5"/>
      </g>
     </g>
    </g>
    <g id="xtick_12">
     <g id="line2d_23">
      <g>
       <use xlink:href="#m5a85035f0e" x="213.274847" y="467.52058" style="stroke: #000000; stroke-width: 0.5"/>
      </g>
     </g>
     <g id="line2d_24">
      <g>
       <use xlink:href="#mf0915a55c0" x="213.274847" y="17.90218" style="stroke: #000000; stroke-width: 0.5"/>
      </g>
     </g>
    </g>
    <g id="xtick_13">
     <g id="line2d_25">
      <g>
       <use xlink:href="#m5a85035f0e" x="233.565756" y="467.52058" style="stroke: #000000; stroke-width: 0.5"/>
      </g>
     </g>
     <g id="line2d_26">
      <g>
       <use xlink:href="#mf0915a55c0" x="233.565756" y="17.90218" style="stroke: #000000; stroke-width: 0.5"/>
      </g>
     </g>
    </g>
    <g id="xtick_14">
     <g id="line2d_27">
      <g>
       <use xlink:href="#m5a85035f0e" x="274.147574" y="467.52058" style="stroke: #000000; stroke-width: 0.5"/>
      </g>
     </g>
     <g id="line2d_28">
      <g>
       <use xlink:href="#mf0915a55c0" x="274.147574" y="17.90218" style="stroke: #000000; stroke-width: 0.5"/>
      </g>
     </g>
    </g>
    <g id="xtick_15">
     <g id="line2d_29">
      <g>
       <use xlink:href="#m5a85035f0e" x="294.438483" y="467.52058" style="stroke: #000000; stroke-width: 0.5"/>
      </g>
     </g>
     <g id="line2d_30">
      <g>
       <use xlink:href="#mf0915a55c0" x="294.438483" y="17.90218" style="stroke: #000000; stroke-width: 0.5"/>
      </g>
     </g>
    </g>
    <g id="xtick_16">
     <g id="line2d_31">
      <g>
       <use xlink:href="#m5a85035f0e" x="314.729392" y="467.52058" style="stroke: #000000; stroke-width: 0.5"/>
      </g>
     </g>
     <g id="line2d_32">
      <g>
       <use xlink:href="#mf0915a55c0" x="314.729392" y="17.90218" style="stroke: #000000; stroke-width: 0.5"/>
      </g>
     </g>
    </g>
    <g id="xtick_17">
     <g id="line2d_33">
      <g>
       <use xlink:href="#m5a85035f0e" x="355.31121" y="467.52058" style="stroke: #000000; stroke-width: 0.5"/>
      </g>
     </g>
     <g id="line2d_34">
      <g>
       <use xlink:href="#mf0915a55c0" x="355.31121" y="17.90218" style="stroke: #000000; stroke-width: 0.5"/>
      </g>
     </g>
    </g>
    <g id="xtick_18">
     <g id="line2d_35">
      <g>
       <use xlink:href="#m5a85035f0e" x="375.602119" y="467.52058" style="stroke: #000000; stroke-width: 0.5"/>
      </g>
     </g>
     <g id="line2d_36">
      <g>
       <use xlink:href="#mf0915a55c0" x="375.602119" y="17.90218" style="stroke: #000000; stroke-width: 0.5"/>
      </g>
     </g>
    </g>
    <g id="xtick_19">
     <g id="line2d_37">
      <g>
       <use xlink:href="#m5a85035f0e" x="395.893028" y="467.52058" style="stroke: #000000; stroke-width: 0.5"/>
      </g>
     </g>
     <g id="line2d_38">
      <g>
       <use xlink:href="#mf0915a55c0" x="395.893028" y="17.90218" style="stroke: #000000; stroke-width: 0.5"/>
      </g>
     </g>
    </g>
    <g id="text_6">
     <!-- Voltage [v] -->
     <g transform="translate(210.181173 491.348237) scale(0.1 -0.1)">
      <defs>
       <path id="CMR17-56" d="M 3776 3745 
C 3834 3886 3936 4160 4365 4160 
L 4365 4332 
C 4218 4319 4051 4319 3891 4319 
C 3738 4319 3475 4319 3328 4332 
L 3328 4160 
C 3648 4160 3661 3936 3661 3898 
C 3661 3827 3642 3783 3622 3732 
L 2362 446 
L 1043 3886 
C 1024 3931 1011 3963 1011 3994 
C 1011 4160 1267 4160 1402 4160 
L 1402 4319 
C 1197 4319 896 4319 685 4319 
C 518 4319 218 4319 64 4332 
L 64 4160 
C 435 4160 506 4135 582 3931 
L 2106 -26 
C 2138 -115 2144 -128 2214 -128 
C 2285 -128 2291 -115 2323 -26 
L 3776 3745 
z
" transform="scale(0.015625)"/>
       <path id="CMR17-6f" d="M 2758 1356 
C 2758 2176 2163 2816 1466 2816 
C 768 2816 173 2176 173 1356 
C 173 551 768 -64 1466 -64 
C 2163 -64 2758 551 2758 1356 
z
M 1466 51 
C 1165 51 909 230 762 480 
C 602 767 582 1126 582 1408 
C 582 1677 595 2010 762 2298 
C 890 2509 1139 2714 1466 2714 
C 1754 2714 1997 2554 2150 2330 
C 2349 2029 2349 1607 2349 1408 
C 2349 1158 2336 775 2163 467 
C 1984 173 1709 51 1466 51 
z
" transform="scale(0.015625)"/>
       <path id="CMR17-6c" d="M 979 4396 
L 218 4326 
L 218 4160 
C 595 4160 653 4122 653 3817 
L 653 426 
C 653 184 627 153 218 153 
L 218 -13 
C 371 0 653 0 813 0 
C 979 0 1261 0 1414 -13 
L 1414 153 
C 1005 153 979 178 979 426 
L 979 4396 
z
" transform="scale(0.015625)"/>
       <path id="CMR17-74" d="M 966 2560 
L 1862 2560 
L 1862 2725 
L 966 2725 
L 966 3904 
L 851 3904 
C 838 3245 614 2668 70 2668 
L 70 2560 
L 627 2560 
L 627 771 
C 627 650 627 -64 1370 -64 
C 1747 -64 1965 306 1965 777 
L 1965 1140 
L 1850 1140 
L 1850 783 
C 1850 344 1677 51 1408 51 
C 1222 51 966 178 966 758 
L 966 2560 
z
" transform="scale(0.015625)"/>
       <path id="CMR17-61" d="M 2304 1653 
C 2304 2072 2304 2294 2035 2543 
C 1798 2752 1523 2816 1306 2816 
C 800 2816 435 2407 435 1971 
C 435 1728 627 1728 666 1728 
C 749 1728 896 1778 896 1954 
C 896 2112 774 2181 666 2181 
C 640 2181 608 2174 589 2168 
C 723 2592 1069 2714 1293 2714 
C 1613 2714 1965 2429 1965 1885 
L 1965 1600 
C 1587 1600 1133 1549 774 1357 
C 371 1133 256 813 256 570 
C 256 77 832 -64 1171 -64 
C 1523 -64 1850 139 1990 511 
C 2003 233 2182 -18 2464 -18 
C 2598 -18 2938 70 2938 567 
L 2938 920 
L 2822 920 
L 2822 562 
C 2822 178 2650 128 2566 128 
C 2304 128 2304 458 2304 738 
L 2304 1653 
z
M 1965 870 
C 1965 317 1568 38 1216 38 
C 896 38 646 275 646 570 
C 646 761 730 1100 1101 1305 
C 1408 1478 1760 1504 1965 1504 
L 1965 870 
z
" transform="scale(0.015625)"/>
       <path id="CMR17-67" d="M 710 1164 
C 832 1068 1043 960 1299 960 
C 1805 960 2240 1357 2240 1888 
C 2240 2054 2189 2310 1997 2509 
C 2176 2692 2438 2752 2586 2752 
C 2611 2752 2650 2752 2682 2734 
C 2656 2728 2598 2703 2598 2605 
C 2598 2527 2656 2471 2739 2471 
C 2835 2471 2886 2533 2886 2614 
C 2886 2731 2790 2854 2586 2854 
C 2330 2854 2106 2738 1926 2580 
C 1734 2753 1504 2816 1299 2816 
C 794 2816 358 2419 358 1888 
C 358 1522 570 1292 634 1228 
C 442 1004 442 743 442 711 
C 442 545 506 302 723 168 
C 390 85 128 -169 128 -486 
C 128 -943 736 -1280 1466 -1280 
C 2170 -1280 2803 -956 2803 -479 
C 2803 384 1856 384 1363 384 
C 1216 384 954 384 922 391 
C 723 423 589 602 589 826 
C 589 883 589 1024 710 1164 
z
M 1299 1068 
C 736 1068 736 1760 736 1889 
C 736 2016 736 2708 1299 2708 
C 1862 2708 1862 2016 1862 1889 
C 1862 1760 1862 1068 1299 1068 
z
M 1466 -1171 
C 826 -1171 384 -835 384 -486 
C 384 -289 493 -105 634 -4 
C 794 104 858 104 1293 104 
C 1818 104 2547 104 2547 -486 
C 2547 -835 2106 -1171 1466 -1171 
z
" transform="scale(0.015625)"/>
       <path id="CMR17-65" d="M 2438 1472 
C 2464 1498 2464 1511 2464 1576 
C 2464 2238 2118 2816 1389 2816 
C 710 2816 173 2169 173 1383 
C 173 551 781 -64 1459 -64 
C 2176 -64 2458 607 2458 740 
C 2458 784 2419 784 2406 784 
C 2362 784 2355 771 2330 696 
C 2189 265 1837 51 1504 51 
C 1229 51 954 203 781 480 
C 582 803 582 1176 582 1472 
L 2438 1472 
z
M 589 1568 
C 634 2505 1126 2714 1382 2714 
C 1818 2714 2112 2297 2118 1568 
L 589 1568 
z
" transform="scale(0.015625)"/>
       <path id="CMR17-5b" d="M 1504 -1600 
L 1504 -1377 
L 902 -1377 
L 902 4544 
L 1504 4544 
L 1504 4767 
L 678 4767 
L 678 -1600 
L 1504 -1600 
z
" transform="scale(0.015625)"/>
       <path id="CMR17-76" d="M 2502 2163 
C 2560 2304 2662 2560 3034 2560 
L 3034 2726 
C 2912 2726 2752 2726 2630 2726 
C 2496 2726 2285 2726 2157 2732 
L 2157 2566 
C 2317 2553 2406 2477 2406 2311 
C 2406 2253 2406 2240 2368 2151 
L 1664 377 
L 902 2286 
C 864 2369 864 2381 864 2407 
C 864 2560 1075 2560 1171 2560 
L 1171 2732 
C 1018 2726 736 2726 576 2726 
C 403 2726 205 2726 64 2732 
L 64 2560 
C 307 2560 442 2560 518 2362 
L 1446 44 
C 1485 -51 1491 -64 1549 -64 
C 1606 -64 1613 -51 1651 44 
L 2502 2163 
z
" transform="scale(0.015625)"/>
       <path id="CMR17-5d" d="M 915 4767 
L 90 4767 
L 90 4544 
L 691 4544 
L 691 -1377 
L 90 -1377 
L 90 -1600 
L 915 -1600 
L 915 4767 
z
" transform="scale(0.015625)"/>
      </defs>
      <use xlink:href="#CMR17-56" transform="scale(0.996264)"/>
      <use xlink:href="#CMR17-6f" transform="translate(61.265174 0) scale(0.996264)"/>
      <use xlink:href="#CMR17-6c" transform="translate(106.955652 0) scale(0.996264)"/>
      <use xlink:href="#CMR17-74" transform="translate(131.82671 0) scale(0.996264)"/>
      <use xlink:href="#CMR17-61" transform="translate(167.107478 0) scale(0.996264)"/>
      <use xlink:href="#CMR17-67" transform="translate(212.797955 0) scale(0.996264)"/>
      <use xlink:href="#CMR17-65" transform="translate(258.488432 0) scale(0.996264)"/>
      <use xlink:href="#CMR17-5b" transform="translate(329.050059 0) scale(0.996264)"/>
      <use xlink:href="#CMR17-76" transform="translate(353.921117 0) scale(0.996264)"/>
      <use xlink:href="#CMR17-5d" transform="translate(402.214033 0) scale(0.996264)"/>
     </g>
    </g>
   </g>
   <g id="matplotlib.axis_2">
    <g id="ytick_1">
     <g id="line2d_39">
      <defs>
       <path id="m851d0b24b8" d="M 0 0 
L 3 0 
" style="stroke: #000000; stroke-width: 0.5"/>
      </defs>
      <g>
       <use xlink:href="#m851d0b24b8" x="32.685756" y="447.08338" style="stroke: #000000; stroke-width: 0.5"/>
      </g>
     </g>
     <g id="line2d_40">
      <defs>
       <path id="m8d2cb8d05e" d="M 0 0 
L -3 0 
" style="stroke: #000000; stroke-width: 0.5"/>
      </defs>
      <g>
       <use xlink:href="#m8d2cb8d05e" x="434.445756" y="447.08338" style="stroke: #000000; stroke-width: 0.5"/>
      </g>
     </g>
     <g id="text_7">
      <!-- $\mathdefault{0.0}$ -->
      <g transform="translate(16.455677 450.542629) scale(0.1 -0.1)">
       <use xlink:href="#CMR17-30" transform="scale(0.996264)"/>
       <use xlink:href="#CMMI12-3a" transform="translate(45.690477 0) scale(0.996264)"/>
       <use xlink:href="#CMR17-30" transform="translate(72.787654 0) scale(0.996264)"/>
      </g>
     </g>
    </g>
    <g id="ytick_2">
     <g id="line2d_41">
      <g>
       <use xlink:href="#m851d0b24b8" x="32.685756" y="363.867907" style="stroke: #000000; stroke-width: 0.5"/>
      </g>
     </g>
     <g id="line2d_42">
      <g>
       <use xlink:href="#m8d2cb8d05e" x="434.445756" y="363.867907" style="stroke: #000000; stroke-width: 0.5"/>
      </g>
     </g>
     <g id="text_8">
      <!-- $\mathdefault{0.2}$ -->
      <g transform="translate(16.455677 367.327156) scale(0.1 -0.1)">
       <use xlink:href="#CMR17-30" transform="scale(0.996264)"/>
       <use xlink:href="#CMMI12-3a" transform="translate(45.690477 0) scale(0.996264)"/>
       <use xlink:href="#CMR17-32" transform="translate(72.787654 0) scale(0.996264)"/>
      </g>
     </g>
    </g>
    <g id="ytick_3">
     <g id="line2d_43">
      <g>
       <use xlink:href="#m851d0b24b8" x="32.685756" y="280.652434" style="stroke: #000000; stroke-width: 0.5"/>
      </g>
     </g>
     <g id="line2d_44">
      <g>
       <use xlink:href="#m8d2cb8d05e" x="434.445756" y="280.652434" style="stroke: #000000; stroke-width: 0.5"/>
      </g>
     </g>
     <g id="text_9">
      <!-- $\mathdefault{0.4}$ -->
      <g transform="translate(16.455677 284.111684) scale(0.1 -0.1)">
       <use xlink:href="#CMR17-30" transform="scale(0.996264)"/>
       <use xlink:href="#CMMI12-3a" transform="translate(45.690477 0) scale(0.996264)"/>
       <use xlink:href="#CMR17-34" transform="translate(72.787654 0) scale(0.996264)"/>
      </g>
     </g>
    </g>
    <g id="ytick_4">
     <g id="line2d_45">
      <g>
       <use xlink:href="#m851d0b24b8" x="32.685756" y="197.436962" style="stroke: #000000; stroke-width: 0.5"/>
      </g>
     </g>
     <g id="line2d_46">
      <g>
       <use xlink:href="#m8d2cb8d05e" x="434.445756" y="197.436962" style="stroke: #000000; stroke-width: 0.5"/>
      </g>
     </g>
     <g id="text_10">
      <!-- $\mathdefault{0.6}$ -->
      <g transform="translate(16.455677 200.896211) scale(0.1 -0.1)">
       <use xlink:href="#CMR17-30" transform="scale(0.996264)"/>
       <use xlink:href="#CMMI12-3a" transform="translate(45.690477 0) scale(0.996264)"/>
       <use xlink:href="#CMR17-36" transform="translate(72.787654 0) scale(0.996264)"/>
      </g>
     </g>
    </g>
    <g id="ytick_5">
     <g id="line2d_47">
      <g>
       <use xlink:href="#m851d0b24b8" x="32.685756" y="114.221489" style="stroke: #000000; stroke-width: 0.5"/>
      </g>
     </g>
     <g id="line2d_48">
      <g>
       <use xlink:href="#m8d2cb8d05e" x="434.445756" y="114.221489" style="stroke: #000000; stroke-width: 0.5"/>
      </g>
     </g>
     <g id="text_11">
      <!-- $\mathdefault{0.8}$ -->
      <g transform="translate(16.455677 117.680738) scale(0.1 -0.1)">
       <use xlink:href="#CMR17-30" transform="scale(0.996264)"/>
       <use xlink:href="#CMMI12-3a" transform="translate(45.690477 0) scale(0.996264)"/>
       <use xlink:href="#CMR17-38" transform="translate(72.787654 0) scale(0.996264)"/>
      </g>
     </g>
    </g>
    <g id="ytick_6">
     <g id="line2d_49">
      <g>
       <use xlink:href="#m851d0b24b8" x="32.685756" y="31.006016" style="stroke: #000000; stroke-width: 0.5"/>
      </g>
     </g>
     <g id="line2d_50">
      <g>
       <use xlink:href="#m8d2cb8d05e" x="434.445756" y="31.006016" style="stroke: #000000; stroke-width: 0.5"/>
      </g>
     </g>
     <g id="text_12">
      <!-- $\mathdefault{1.0}$ -->
      <g transform="translate(16.455677 34.465265) scale(0.1 -0.1)">
       <defs>
        <path id="CMR17-31" d="M 1702 4058 
C 1702 4192 1696 4192 1606 4192 
C 1357 3916 979 3827 621 3827 
C 602 3827 570 3827 563 3808 
C 557 3795 557 3782 557 3648 
C 755 3648 1088 3686 1344 3839 
L 1344 461 
C 1344 236 1331 160 781 160 
L 589 160 
L 589 0 
C 896 0 1216 0 1523 0 
C 1830 0 2150 0 2458 0 
L 2458 160 
L 2266 160 
C 1715 160 1702 230 1702 458 
L 1702 4058 
z
" transform="scale(0.015625)"/>
       </defs>
       <use xlink:href="#CMR17-31" transform="scale(0.996264)"/>
       <use xlink:href="#CMMI12-3a" transform="translate(45.690477 0) scale(0.996264)"/>
       <use xlink:href="#CMR17-30" transform="translate(72.787654 0) scale(0.996264)"/>
      </g>
     </g>
    </g>
    <g id="ytick_7">
     <g id="line2d_51">
      <defs>
       <path id="me5064027f0" d="M 0 0 
L 1.5 0 
" style="stroke: #000000; stroke-width: 0.5"/>
      </defs>
      <g>
       <use xlink:href="#me5064027f0" x="32.685756" y="426.279512" style="stroke: #000000; stroke-width: 0.5"/>
      </g>
     </g>
     <g id="line2d_52">
      <defs>
       <path id="m870b8e773d" d="M 0 0 
L -1.5 0 
" style="stroke: #000000; stroke-width: 0.5"/>
      </defs>
      <g>
       <use xlink:href="#m870b8e773d" x="434.445756" y="426.279512" style="stroke: #000000; stroke-width: 0.5"/>
      </g>
     </g>
    </g>
    <g id="ytick_8">
     <g id="line2d_53">
      <g>
       <use xlink:href="#me5064027f0" x="32.685756" y="405.475643" style="stroke: #000000; stroke-width: 0.5"/>
      </g>
     </g>
     <g id="line2d_54">
      <g>
       <use xlink:href="#m870b8e773d" x="434.445756" y="405.475643" style="stroke: #000000; stroke-width: 0.5"/>
      </g>
     </g>
    </g>
    <g id="ytick_9">
     <g id="line2d_55">
      <g>
       <use xlink:href="#me5064027f0" x="32.685756" y="384.671775" style="stroke: #000000; stroke-width: 0.5"/>
      </g>
     </g>
     <g id="line2d_56">
      <g>
       <use xlink:href="#m870b8e773d" x="434.445756" y="384.671775" style="stroke: #000000; stroke-width: 0.5"/>
      </g>
     </g>
    </g>
    <g id="ytick_10">
     <g id="line2d_57">
      <g>
       <use xlink:href="#me5064027f0" x="32.685756" y="343.064039" style="stroke: #000000; stroke-width: 0.5"/>
      </g>
     </g>
     <g id="line2d_58">
      <g>
       <use xlink:href="#m870b8e773d" x="434.445756" y="343.064039" style="stroke: #000000; stroke-width: 0.5"/>
      </g>
     </g>
    </g>
    <g id="ytick_11">
     <g id="line2d_59">
      <g>
       <use xlink:href="#me5064027f0" x="32.685756" y="322.260171" style="stroke: #000000; stroke-width: 0.5"/>
      </g>
     </g>
     <g id="line2d_60">
      <g>
       <use xlink:href="#m870b8e773d" x="434.445756" y="322.260171" style="stroke: #000000; stroke-width: 0.5"/>
      </g>
     </g>
    </g>
    <g id="ytick_12">
     <g id="line2d_61">
      <g>
       <use xlink:href="#me5064027f0" x="32.685756" y="301.456303" style="stroke: #000000; stroke-width: 0.5"/>
      </g>
     </g>
     <g id="line2d_62">
      <g>
       <use xlink:href="#m870b8e773d" x="434.445756" y="301.456303" style="stroke: #000000; stroke-width: 0.5"/>
      </g>
     </g>
    </g>
    <g id="ytick_13">
     <g id="line2d_63">
      <g>
       <use xlink:href="#me5064027f0" x="32.685756" y="259.848566" style="stroke: #000000; stroke-width: 0.5"/>
      </g>
     </g>
     <g id="line2d_64">
      <g>
       <use xlink:href="#m870b8e773d" x="434.445756" y="259.848566" style="stroke: #000000; stroke-width: 0.5"/>
      </g>
     </g>
    </g>
    <g id="ytick_14">
     <g id="line2d_65">
      <g>
       <use xlink:href="#me5064027f0" x="32.685756" y="239.044698" style="stroke: #000000; stroke-width: 0.5"/>
      </g>
     </g>
     <g id="line2d_66">
      <g>
       <use xlink:href="#m870b8e773d" x="434.445756" y="239.044698" style="stroke: #000000; stroke-width: 0.5"/>
      </g>
     </g>
    </g>
    <g id="ytick_15">
     <g id="line2d_67">
      <g>
       <use xlink:href="#me5064027f0" x="32.685756" y="218.24083" style="stroke: #000000; stroke-width: 0.5"/>
      </g>
     </g>
     <g id="line2d_68">
      <g>
       <use xlink:href="#m870b8e773d" x="434.445756" y="218.24083" style="stroke: #000000; stroke-width: 0.5"/>
      </g>
     </g>
    </g>
    <g id="ytick_16">
     <g id="line2d_69">
      <g>
       <use xlink:href="#me5064027f0" x="32.685756" y="176.633094" style="stroke: #000000; stroke-width: 0.5"/>
      </g>
     </g>
     <g id="line2d_70">
      <g>
       <use xlink:href="#m870b8e773d" x="434.445756" y="176.633094" style="stroke: #000000; stroke-width: 0.5"/>
      </g>
     </g>
    </g>
    <g id="ytick_17">
     <g id="line2d_71">
      <g>
       <use xlink:href="#me5064027f0" x="32.685756" y="155.829225" style="stroke: #000000; stroke-width: 0.5"/>
      </g>
     </g>
     <g id="line2d_72">
      <g>
       <use xlink:href="#m870b8e773d" x="434.445756" y="155.829225" style="stroke: #000000; stroke-width: 0.5"/>
      </g>
     </g>
    </g>
    <g id="ytick_18">
     <g id="line2d_73">
      <g>
       <use xlink:href="#me5064027f0" x="32.685756" y="135.025357" style="stroke: #000000; stroke-width: 0.5"/>
      </g>
     </g>
     <g id="line2d_74">
      <g>
       <use xlink:href="#m870b8e773d" x="434.445756" y="135.025357" style="stroke: #000000; stroke-width: 0.5"/>
      </g>
     </g>
    </g>
    <g id="ytick_19">
     <g id="line2d_75">
      <g>
       <use xlink:href="#me5064027f0" x="32.685756" y="93.417621" style="stroke: #000000; stroke-width: 0.5"/>
      </g>
     </g>
     <g id="line2d_76">
      <g>
       <use xlink:href="#m870b8e773d" x="434.445756" y="93.417621" style="stroke: #000000; stroke-width: 0.5"/>
      </g>
     </g>
    </g>
    <g id="ytick_20">
     <g id="line2d_77">
      <g>
       <use xlink:href="#me5064027f0" x="32.685756" y="72.613753" style="stroke: #000000; stroke-width: 0.5"/>
      </g>
     </g>
     <g id="line2d_78">
      <g>
       <use xlink:href="#m870b8e773d" x="434.445756" y="72.613753" style="stroke: #000000; stroke-width: 0.5"/>
      </g>
     </g>
    </g>
    <g id="ytick_21">
     <g id="line2d_79">
      <g>
       <use xlink:href="#me5064027f0" x="32.685756" y="51.809884" style="stroke: #000000; stroke-width: 0.5"/>
      </g>
     </g>
     <g id="line2d_80">
      <g>
       <use xlink:href="#m870b8e773d" x="434.445756" y="51.809884" style="stroke: #000000; stroke-width: 0.5"/>
      </g>
     </g>
    </g>
    <g id="text_13">
     <!-- Weight -->
     <g transform="translate(10.518498 258.070478) rotate(-90) scale(0.1 -0.1)">
      <defs>
       <path id="CMR17-57" d="M 5523 3764 
C 5581 3936 5677 4160 6048 4160 
L 6048 4326 
C 5939 4326 5715 4326 5600 4326 
C 5440 4326 5158 4326 5005 4332 
L 5005 4160 
C 5293 4160 5414 4000 5414 3847 
C 5414 3802 5408 3777 5382 3707 
L 4390 555 
L 3347 3873 
C 3328 3937 3322 3963 3322 3988 
C 3322 4160 3603 4160 3725 4160 
L 3725 4326 
C 3539 4326 3219 4326 3021 4326 
C 2861 4326 2573 4326 2426 4332 
L 2426 4160 
C 2720 4160 2797 4141 2861 4027 
C 2886 3969 2989 3638 2989 3619 
C 2989 3593 2976 3555 2970 3536 
L 2029 561 
L 986 3867 
C 954 3957 954 3969 954 3982 
C 954 4160 1235 4160 1363 4160 
L 1363 4326 
C 1178 4326 858 4326 659 4326 
C 493 4326 211 4326 58 4332 
L 58 4160 
C 442 4160 467 4122 531 3918 
L 1779 -20 
C 1811 -115 1811 -128 1869 -128 
C 1920 -128 1939 -115 1965 -26 
L 3053 3433 
L 4141 -26 
C 4166 -115 4186 -128 4237 -128 
C 4294 -128 4294 -115 4326 -20 
L 5523 3764 
z
" transform="scale(0.015625)"/>
       <path id="CMR17-69" d="M 992 3909 
C 992 4049 877 4170 730 4170 
C 589 4170 467 4056 467 3909 
C 467 3769 582 3648 730 3648 
C 870 3648 992 3763 992 3909 
z
M 243 2706 
L 243 2541 
C 602 2541 653 2502 653 2197 
L 653 427 
C 653 184 627 153 218 153 
L 218 -13 
C 371 0 646 0 806 0 
C 960 0 1222 0 1370 -13 
L 1370 153 
C 992 153 979 191 979 420 
L 979 2776 
L 243 2706 
z
" transform="scale(0.015625)"/>
       <path id="CMR17-68" d="M 2656 1933 
C 2656 2259 2592 2790 1837 2790 
C 1312 2790 1056 2368 979 2157 
L 973 2157 
L 973 4396 
L 211 4326 
L 211 4160 
C 589 4160 646 4122 646 3817 
L 646 426 
C 646 184 621 153 211 153 
L 211 -13 
C 365 0 646 0 813 0 
C 979 0 1267 0 1421 -13 
L 1421 153 
C 1011 153 986 178 986 428 
L 986 1658 
C 986 2247 1344 2688 1792 2688 
C 2266 2688 2317 2266 2317 1958 
L 2317 428 
C 2317 184 2291 153 1882 153 
L 1882 -13 
C 2035 0 2317 0 2483 0 
C 2650 0 2938 0 3091 -13 
L 3091 153 
C 2682 153 2656 178 2656 428 
L 2656 1933 
z
" transform="scale(0.015625)"/>
      </defs>
      <use xlink:href="#CMR17-57" transform="scale(0.996264)"/>
      <use xlink:href="#CMR17-65" transform="translate(87.289395 0) scale(0.996264)"/>
      <use xlink:href="#CMR17-69" transform="translate(127.775055 0) scale(0.996264)"/>
      <use xlink:href="#CMR17-67" transform="translate(152.646113 0) scale(0.996264)"/>
      <use xlink:href="#CMR17-68" transform="translate(198.336591 0) scale(0.996264)"/>
      <use xlink:href="#CMR17-74" transform="translate(246.629506 0) scale(0.996264)"/>
     </g>
    </g>
   </g>
   <g id="line2d_81">
    <path d="M 50.947574 39.691631 
L 51.67951 38.963496 
L 52.411447 39.743641 
L 53.143384 38.703448 
L 53.87532 39.431583 
L 54.607257 39.691631 
L 55.339193 40.211728 
L 56.07113 40.055699 
L 56.803067 40.835844 
L 57.535003 39.743641 
L 58.26694 39.95168 
L 58.998876 41.40795 
L 60.46275 38.859477 
L 61.194686 39.535602 
L 61.926623 41.51197 
L 62.658559 39.95168 
L 63.390496 40.367757 
L 64.122433 40.939863 
L 64.854369 40.679815 
L 66.318242 42.084076 
L 67.050179 41.615989 
L 67.782116 41.45996 
L 68.514052 42.448144 
L 69.245989 42.552163 
L 69.977925 41.824028 
L 70.709862 41.772018 
L 71.441799 41.563979 
L 72.173735 43.956424 
L 72.905672 41.043883 
L 73.637608 43.07226 
L 74.369545 42.96824 
L 75.101482 42.240105 
L 75.833418 43.592357 
L 76.565355 42.760202 
L 77.297291 43.696376 
L 78.029228 44.008434 
L 78.761165 44.58054 
L 79.493101 44.58054 
L 80.225038 43.956424 
L 80.956974 42.240105 
L 81.688911 44.476521 
L 82.420848 45.516714 
L 83.152784 45.464705 
L 83.884721 44.736569 
L 84.616657 45.672743 
L 85.348594 45.152647 
L 86.080531 46.608917 
L 86.812467 46.348869 
L 87.544404 44.424511 
L 88.27634 46.24485 
L 89.008277 43.956424 
L 89.740214 44.996618 
L 90.47215 47.024995 
L 91.204087 44.63255 
L 91.936023 45.828772 
L 92.66796 47.75313 
L 93.399897 45.672743 
L 94.131833 45.464705 
L 94.86377 47.389062 
L 95.595706 46.816956 
L 96.327643 46.712937 
L 97.05958 48.169208 
L 97.791516 49.105382 
L 98.523453 49.41744 
L 99.255389 50.301604 
L 99.987326 50.093565 
L 100.719263 48.377246 
L 101.451199 49.729498 
L 102.183136 49.31342 
L 102.915073 48.013179 
L 103.647009 49.209401 
L 104.378946 49.105382 
L 105.110882 51.185768 
L 105.842819 51.809884 
L 106.574756 50.353614 
L 107.306692 49.833517 
L 108.038629 50.145575 
L 108.770565 50.92572 
L 109.502502 52.850078 
L 110.234439 52.121942 
L 111.698312 51.185768 
L 112.430248 51.601846 
L 113.162185 50.353614 
L 113.894122 53.110126 
L 114.626058 53.162136 
L 115.357995 51.705865 
L 116.821868 54.254339 
L 117.553805 54.202329 
L 118.285741 55.866639 
L 119.017678 54.202329 
L 119.749614 53.734242 
L 120.481551 55.086494 
L 121.213488 56.126687 
L 121.945424 54.306349 
L 122.677361 56.958842 
L 123.409297 56.802813 
L 124.141234 55.554581 
L 124.873171 54.774436 
L 125.605107 56.542764 
L 126.337044 57.166881 
L 127.06898 57.166881 
L 127.800917 56.282716 
L 128.532854 58.623151 
L 129.26479 59.507316 
L 129.996727 59.351287 
L 130.728663 60.859567 
L 131.4606 59.195258 
L 132.192537 60.183441 
L 132.924473 59.143248 
L 133.65641 60.547509 
L 134.388346 60.39148 
L 135.120283 61.379664 
L 135.85222 59.923393 
L 136.584156 61.483683 
L 137.316093 61.431673 
L 138.048029 63.56407 
L 138.779966 64.500244 
L 139.511903 66.112544 
L 140.243839 63.043973 
L 140.975776 64.864312 
L 141.707712 63.460051 
L 142.439649 65.07235 
L 143.903522 67.308766 
L 144.635459 66.372592 
L 145.367395 66.268573 
L 146.099332 64.292205 
L 146.831269 69.545182 
L 147.563205 67.724844 
L 148.295142 71.313511 
L 149.027078 71.365521 
L 149.759015 69.389153 
L 150.490952 69.85724 
L 151.222888 74.746149 
L 151.954825 69.077095 
L 152.686761 69.545182 
L 153.418698 72.769782 
L 154.150635 75.006197 
L 154.882571 73.653946 
L 156.346444 74.434091 
L 157.078381 75.422275 
L 157.810318 75.994381 
L 158.542254 77.086584 
L 159.274191 78.750894 
L 160.006127 75.162226 
L 160.738064 78.490845 
L 161.470001 77.398642 
L 162.201937 77.502662 
L 162.933874 79.114961 
L 163.66581 80.103145 
L 164.397747 81.611426 
L 165.129684 79.635058 
L 165.86162 81.247358 
L 166.593557 80.155155 
L 167.325493 81.715445 
L 168.05743 85.564161 
L 168.789367 80.831281 
L 169.521303 83.951861 
L 170.25324 86.292296 
L 170.985176 87.592538 
L 171.717113 86.448325 
L 172.44905 86.292296 
L 173.180986 88.008615 
L 173.912923 88.684741 
L 174.644859 90.34905 
L 175.376796 87.28048 
L 176.108733 92.429437 
L 176.840669 93.053553 
L 177.572606 92.221398 
L 178.304542 92.897524 
L 179.768416 91.337234 
L 180.500352 96.486191 
L 181.232289 95.758056 
L 181.964225 93.729679 
L 182.696162 94.925901 
L 183.428099 97.994472 
L 184.160035 99.970839 
L 184.891972 98.150501 
L 185.623908 98.35854 
L 186.355845 101.3751 
L 187.087782 101.167062 
L 187.819718 102.363284 
L 188.551655 103.195439 
L 189.283591 106.576067 
L 190.015528 103.247449 
L 190.747465 105.067787 
L 191.479401 105.639893 
L 192.211338 108.136358 
L 192.943274 106.368029 
L 193.675211 110.008706 
L 195.139084 113.961441 
L 195.871021 112.661199 
L 196.602957 116.509914 
L 197.334894 112.921247 
L 198.066831 110.580812 
L 198.798767 116.873982 
L 199.530704 118.954369 
L 200.26264 119.786524 
L 200.994577 121.866911 
L 201.726514 120.982746 
L 202.45845 120.930736 
L 203.190387 125.09151 
L 203.922323 127.067878 
L 204.65426 126.6518 
L 205.386197 126.495771 
L 206.118133 130.344487 
L 206.85007 127.015868 
L 207.582006 126.75582 
L 208.313943 130.084438 
L 209.04588 131.800758 
L 210.509753 137.521821 
L 211.241689 132.580903 
L 211.973626 138.197947 
L 212.705563 140.95446 
L 213.437499 141.266518 
L 214.169436 144.231069 
L 214.901372 138.353976 
L 215.633309 144.907195 
L 216.365246 145.167243 
L 217.097182 147.039591 
L 217.829119 147.871746 
L 218.561055 149.536055 
L 219.292992 151.564432 
L 220.024929 151.720461 
L 220.756865 149.536055 
L 221.488802 157.857602 
L 222.220738 154.008887 
L 222.952675 158.065641 
L 223.684612 156.401332 
L 224.416548 162.798521 
L 225.148485 161.550289 
L 225.880421 166.17915 
L 226.612358 166.595227 
L 227.344295 167.479392 
L 228.076231 168.103508 
L 228.808168 171.848204 
L 229.540104 178.245393 
L 231.003978 175.54089 
L 231.735914 175.956968 
L 232.467851 181.261954 
L 233.199787 180.221761 
L 233.931724 184.330525 
L 234.663661 180.845877 
L 235.395597 184.590573 
L 236.127534 191.143792 
L 236.85947 191.299821 
L 237.591407 189.73953 
L 238.323344 190.311637 
L 239.787217 197.228923 
L 240.519153 197.645 
L 241.25109 199.829407 
L 241.983027 200.349503 
L 242.714963 201.181658 
L 243.4469 208.619041 
L 244.178836 211.167515 
L 244.910773 210.699428 
L 245.64271 212.051679 
L 246.374646 216.368482 
L 247.106583 215.588337 
L 247.838519 220.945333 
L 248.570456 223.077729 
L 249.302393 222.453613 
L 250.034329 223.649836 
L 250.766266 220.165188 
L 252.230139 232.43947 
L 252.962076 236.444215 
L 253.694012 233.219615 
L 254.425949 236.444215 
L 255.157885 240.656998 
L 255.889822 243.621549 
L 256.621759 241.229104 
L 257.353695 250.278787 
L 258.085632 248.666487 
L 258.817568 251.058932 
L 259.549505 255.635783 
L 260.281442 255.011667 
L 261.013378 255.947841 
L 261.745315 258.756363 
L 262.477251 264.321398 
L 263.209188 265.101543 
L 263.941125 264.06135 
L 264.673061 270.510549 
L 265.404998 273.943187 
L 266.136934 274.463284 
L 266.868871 275.399458 
L 267.600808 281.744637 
L 268.332744 282.368754 
L 269.064681 282.836841 
L 270.528554 288.141827 
L 271.260491 294.591026 
L 271.992427 293.290784 
L 272.724364 295.787248 
L 273.4563 293.446813 
L 274.188237 306.813299 
L 274.920174 303.224631 
L 275.65211 305.513057 
L 276.384047 311.598188 
L 277.115983 313.470536 
L 277.84792 310.557995 
L 278.579857 315.134846 
L 279.311793 320.595861 
L 280.04373 320.8039 
L 280.775666 321.167968 
L 281.507603 328.137264 
L 282.23954 324.496587 
L 282.971476 332.662105 
L 283.703413 334.222395 
L 284.435349 334.846511 
L 285.167286 337.446995 
L 286.631159 344.208252 
L 287.363096 346.288638 
L 288.095032 346.600697 
L 288.826969 351.385586 
L 290.290842 358.61493 
L 291.022779 356.846602 
L 291.754715 363.035752 
L 292.486652 362.619675 
L 293.218589 362.983743 
L 293.950525 371.981416 
L 294.682462 369.276913 
L 296.146335 374.52989 
L 296.878272 376.194199 
L 297.610208 379.574828 
L 298.342145 379.054731 
L 299.074081 383.683592 
L 299.806018 386.024027 
L 300.537955 386.856181 
L 301.269891 391.641071 
L 302.001828 389.300636 
L 302.733764 390.548868 
L 303.465701 396.946058 
L 304.197638 395.957874 
L 304.929574 398.610367 
L 305.661511 398.19429 
L 306.393447 400.378696 
L 307.125384 402.92717 
L 307.857321 406.723876 
L 308.589257 406.775885 
L 309.321194 407.60804 
L 310.05313 410.052494 
L 310.785067 410.72862 
L 311.517004 413.485133 
L 312.24894 414.213268 
L 312.980877 416.865761 
L 313.712813 418.374042 
L 314.44475 418.270022 
L 315.176687 419.726293 
L 315.908623 422.638835 
L 316.64056 421.650651 
L 317.372496 424.875251 
L 318.104433 423.054912 
L 318.83637 426.383531 
L 319.568306 427.423724 
L 320.300243 426.851618 
L 321.764116 430.388276 
L 322.496053 430.024208 
L 323.227989 432.364643 
L 323.959926 431.896556 
L 324.691862 433.872924 
L 325.423799 435.277185 
L 326.155736 434.705078 
L 326.887672 436.889484 
L 327.619609 437.61762 
L 329.083482 436.577426 
L 329.815419 438.293746 
L 330.547355 439.021881 
L 331.279292 439.541978 
L 332.011228 439.698007 
L 332.743165 439.073891 
L 333.475102 440.634181 
L 334.207038 441.050258 
L 334.938975 442.24648 
L 335.670911 442.3505 
L 336.402848 441.362316 
L 337.134785 442.3505 
L 337.866721 442.974616 
L 338.598658 443.91079 
L 339.330594 443.754761 
L 340.062531 444.274858 
L 340.794468 444.170838 
L 341.526404 444.794954 
L 342.258341 444.118829 
L 342.990277 444.430887 
L 343.722214 445.41907 
L 345.186087 445.002993 
L 345.918024 445.939167 
L 346.64996 445.575099 
L 348.113834 445.887157 
L 348.84577 445.887157 
L 349.577707 446.147206 
L 350.309643 446.251225 
L 351.04158 446.511273 
L 351.773517 446.095196 
L 352.505453 446.511273 
L 353.23739 446.667302 
L 354.701263 446.459264 
L 355.4332 446.667302 
L 356.165136 446.615293 
L 357.629009 446.875341 
L 358.360946 446.719312 
L 359.092883 446.927351 
L 360.556756 446.875341 
L 361.288692 446.97936 
L 362.020629 446.875341 
L 364.216439 447.08338 
L 364.948375 446.97936 
L 365.680312 447.08338 
L 367.876122 447.03137 
L 416.183938 447.08338 
L 416.183938 447.08338 
" clip-path="url(#p55c1db8338)" style="fill: none; stroke: #440154; stroke-opacity: 0.7; stroke-linecap: square"/>
   </g>
   <g id="line2d_82">
    <path d="M 50.947574 40.159718 
L 51.67951 39.639622 
L 52.411447 39.95168 
L 53.143384 39.119525 
L 53.87532 39.84766 
L 54.607257 39.89967 
L 55.339193 38.755457 
L 56.07113 39.327564 
L 57.535003 39.223544 
L 58.26694 39.587612 
L 58.998876 40.159718 
L 59.730813 40.315747 
L 60.46275 39.743641 
L 61.194686 40.575796 
L 61.926623 39.587612 
L 62.658559 40.887854 
L 63.390496 40.991873 
L 64.122433 40.783834 
L 64.854369 40.887854 
L 65.586306 42.032066 
L 66.318242 41.876037 
L 67.050179 40.419767 
L 67.782116 40.263738 
L 68.514052 42.292115 
L 69.977925 42.136086 
L 70.709862 42.292115 
L 71.441799 43.07226 
L 72.173735 42.084076 
L 72.905672 42.864221 
L 73.637608 44.112453 
L 74.369545 42.760202 
L 75.101482 42.656182 
L 75.833418 41.928047 
L 76.565355 43.124269 
L 78.029228 41.563979 
L 78.761165 43.436328 
L 79.493101 42.396134 
L 80.225038 43.488337 
L 80.956974 43.696376 
L 81.688911 44.58054 
L 82.420848 44.528531 
L 83.152784 43.176279 
L 83.884721 44.996618 
L 84.616657 45.308676 
L 85.348594 44.736569 
L 86.080531 44.892598 
L 86.812467 45.880782 
L 88.27634 44.788579 
L 89.008277 46.504898 
L 89.740214 46.24485 
L 90.47215 46.972985 
L 91.204087 45.880782 
L 91.936023 46.920975 
L 92.66796 45.984801 
L 93.399897 46.348869 
L 94.131833 45.880782 
L 94.86377 47.441072 
L 95.595706 47.80514 
L 96.327643 47.70112 
L 97.05958 47.285043 
L 97.791516 47.909159 
L 98.523453 49.573469 
L 99.255389 48.117198 
L 99.987326 47.077004 
L 101.451199 49.729498 
L 102.915073 48.533275 
L 103.647009 49.781507 
L 104.378946 48.845333 
L 105.110882 51.445817 
L 105.842819 50.561652 
L 106.574756 50.97773 
L 107.306692 51.705865 
L 108.038629 51.549836 
L 108.770565 50.821701 
L 109.502502 52.434001 
L 110.234439 51.705865 
L 110.966375 52.225962 
L 111.698312 52.381991 
L 112.430248 50.769691 
L 113.162185 52.53802 
L 113.894122 53.474194 
L 114.626058 52.642039 
L 115.357995 54.462378 
L 116.089931 52.069933 
L 116.821868 52.642039 
L 117.553805 54.15032 
L 118.285741 55.346542 
L 119.017678 53.006107 
L 119.749614 54.930465 
L 120.481551 55.138503 
L 121.213488 54.358358 
L 121.945424 54.670416 
L 122.677361 56.854822 
L 123.409297 55.866639 
L 124.141234 55.6586 
L 124.873171 57.166881 
L 125.605107 57.686977 
L 126.337044 55.554581 
L 127.06898 56.178697 
L 127.800917 58.155064 
L 129.26479 57.738987 
L 129.996727 59.351287 
L 130.728663 58.467122 
L 131.4606 58.051045 
L 132.192537 59.715354 
L 132.924473 60.33947 
L 133.65641 60.131432 
L 134.388346 59.195258 
L 135.120283 62.679906 
L 135.85222 60.859567 
L 136.584156 62.731915 
L 137.316093 61.431673 
L 138.048029 65.020341 
L 138.779966 62.939954 
L 140.243839 62.00378 
L 140.975776 66.424602 
L 141.707712 65.852495 
L 142.439649 65.852495 
L 143.171586 66.060534 
L 143.903522 63.51206 
L 144.635459 66.78867 
L 145.367395 67.880873 
L 146.099332 66.476612 
L 146.831269 67.880873 
L 147.563205 68.29695 
L 148.295142 66.164554 
L 149.027078 69.285134 
L 149.759015 68.140921 
L 150.490952 68.609008 
L 151.222888 70.845424 
L 151.954825 68.140921 
L 152.686761 72.197675 
L 153.418698 70.637385 
L 154.150635 71.001453 
L 154.882571 74.59012 
L 155.614508 75.058207 
L 156.346444 72.769782 
L 157.078381 75.838352 
L 157.810318 74.53811 
L 158.542254 75.838352 
L 159.274191 76.046391 
L 160.738064 76.826536 
L 161.470001 75.318255 
L 162.201937 78.230797 
L 162.933874 79.947116 
L 163.66581 77.606681 
L 164.397747 79.479029 
L 165.86162 80.831281 
L 166.593557 81.091329 
L 167.325493 82.391571 
L 168.05743 81.715445 
L 168.789367 81.663435 
L 169.521303 82.027503 
L 170.25324 84.05588 
L 170.985176 82.963677 
L 171.717113 86.448325 
L 172.44905 86.136267 
L 173.180986 89.256847 
L 173.912923 87.17646 
L 174.644859 89.308857 
L 176.108733 89.932973 
L 176.840669 89.464886 
L 177.572606 89.828954 
L 178.304542 90.40106 
L 179.036479 92.221398 
L 179.768416 92.845514 
L 180.500352 91.129195 
L 181.232289 94.873892 
L 181.964225 97.474375 
L 182.696162 97.994472 
L 183.428099 97.578394 
L 184.160035 93.833698 
L 184.891972 97.994472 
L 185.623908 98.514569 
L 186.355845 101.583139 
L 187.087782 100.855004 
L 187.819718 101.947207 
L 188.551655 98.930646 
L 189.283591 104.703719 
L 190.015528 104.027594 
L 190.747465 106.368029 
L 191.479401 106.628077 
L 192.211338 112.609189 
L 192.943274 106.10798 
L 193.675211 109.644638 
L 194.407148 108.500425 
L 195.139084 111.464976 
L 195.871021 110.89287 
L 196.602957 116.821973 
L 197.334894 111.568996 
L 198.066831 116.457905 
L 198.798767 118.434272 
L 199.530704 116.249866 
L 200.26264 116.821973 
L 200.994577 118.694321 
L 201.726514 116.457905 
L 202.45845 120.098582 
L 203.190387 121.762891 
L 203.922323 119.110398 
L 204.65426 123.791268 
L 205.386197 124.259355 
L 206.118133 127.431945 
L 206.85007 125.0395 
L 207.582006 129.460322 
L 208.313943 132.94497 
L 209.04588 129.77238 
L 209.777816 129.200274 
L 210.509753 134.401241 
L 211.241689 133.361048 
L 211.973626 137.885889 
L 212.705563 135.753493 
L 213.437499 139.134121 
L 214.169436 138.822063 
L 214.901372 140.642402 
L 215.633309 141.370537 
L 216.365246 147.039591 
L 217.097182 143.606953 
L 217.829119 150.628258 
L 218.561055 144.02303 
L 219.292992 151.87649 
L 220.024929 148.235813 
L 220.756865 150.576249 
L 221.488802 154.580993 
L 222.220738 151.98051 
L 222.952675 154.841042 
L 223.684612 157.181477 
L 224.416548 158.429709 
L 225.148485 160.198038 
L 225.880421 161.34225 
L 226.612358 167.063314 
L 227.344295 163.682686 
L 228.076231 165.919101 
L 228.808168 170.756001 
L 229.540104 171.640165 
L 230.272041 167.895469 
L 231.003978 173.044426 
L 231.735914 175.280842 
L 232.467851 176.633094 
L 233.199787 179.701664 
L 233.931724 179.077548 
L 234.663661 183.602389 
L 235.395597 183.49837 
L 236.127534 185.00665 
L 236.85947 188.907376 
L 237.591407 187.867182 
L 238.323344 189.011395 
L 239.05528 192.704082 
L 239.787217 191.819917 
L 240.519153 193.068149 
L 241.25109 196.968875 
L 241.983027 199.101271 
L 242.714963 202.42989 
L 243.4469 205.030374 
L 244.178836 203.93817 
L 244.910773 203.99018 
L 245.64271 211.531582 
L 246.374646 211.375553 
L 247.106583 210.647418 
L 247.838519 215.328288 
L 248.570456 217.564704 
L 249.302393 218.396859 
L 250.034329 221.153371 
L 250.766266 221.3094 
L 251.498202 229.058841 
L 252.230139 227.134484 
L 252.962076 230.931189 
L 253.694012 231.555306 
L 254.425949 227.602571 
L 255.157885 235.820098 
L 255.889822 241.333124 
L 256.621759 243.361501 
L 257.353695 240.865037 
L 258.085632 242.945423 
L 258.817568 251.735058 
L 259.549505 247.574284 
L 260.281442 258.548324 
L 261.013378 256.519947 
L 261.745315 259.016411 
L 262.477251 254.231522 
L 263.209188 263.749292 
L 263.941125 269.418346 
L 264.673061 267.650017 
L 265.404998 274.515293 
L 266.136934 267.962075 
L 266.868871 272.382897 
L 267.600808 274.203235 
L 268.332744 280.132338 
L 269.064681 280.808463 
L 269.796617 281.120521 
L 270.528554 285.853401 
L 271.260491 286.685556 
L 272.724364 293.96691 
L 273.4563 295.163132 
L 274.188237 295.891268 
L 274.920174 301.352283 
L 275.65211 302.652525 
L 276.384047 303.172622 
L 277.115983 311.182111 
L 277.84792 309.413782 
L 278.579857 310.089908 
L 279.311793 313.782594 
L 280.04373 319.971745 
L 280.775666 319.399639 
L 281.507603 320.179784 
L 282.23954 326.368935 
L 282.971476 326.316925 
L 283.703413 330.737747 
L 284.435349 333.49426 
L 285.167286 333.49426 
L 285.899223 335.106559 
L 286.631159 341.711787 
L 288.095032 344.52031 
L 288.826969 348.421035 
L 289.558906 350.70946 
L 291.022779 357.10665 
L 291.754715 361.995559 
L 292.486652 362.359627 
L 293.218589 358.926988 
L 293.950525 365.896284 
L 294.682462 368.652797 
L 295.414398 368.236719 
L 296.146335 374.737928 
L 296.878272 372.605532 
L 297.610208 374.47788 
L 298.342145 378.326595 
L 299.074081 380.979089 
L 299.806018 378.014537 
L 301.269891 386.648143 
L 302.001828 388.156423 
L 302.733764 389.300636 
L 303.465701 387.480297 
L 304.197638 394.085526 
L 304.929574 394.91768 
L 305.661511 396.998067 
L 306.393447 398.714386 
L 307.125384 402.979179 
L 307.857321 402.251044 
L 308.589257 403.291237 
L 309.321194 405.94373 
L 310.785067 408.492204 
L 311.517004 410.572591 
L 312.24894 411.976852 
L 312.980877 412.184891 
L 313.712813 415.409491 
L 314.44475 414.577336 
L 315.176687 418.946148 
L 315.908623 418.58208 
L 316.64056 423.31496 
L 317.372496 421.494622 
L 318.83637 424.615202 
L 319.568306 426.747599 
L 320.300243 425.447357 
L 321.032179 426.48755 
L 321.764116 430.856363 
L 322.496053 429.348082 
L 323.227989 430.284256 
L 323.959926 431.948566 
L 324.691862 431.428469 
L 325.423799 433.404836 
L 326.155736 432.936749 
L 326.887672 435.797281 
L 327.619609 433.612875 
L 328.351545 436.889484 
L 329.083482 437.929678 
L 329.815419 437.201542 
L 330.547355 438.449775 
L 331.279292 438.293746 
L 332.011228 437.773649 
L 332.743165 438.813842 
L 333.475102 439.489968 
L 334.207038 440.634181 
L 334.938975 440.998248 
L 335.670911 442.090451 
L 336.402848 441.414326 
L 337.134785 441.518345 
L 337.866721 443.338684 
L 339.330594 442.922606 
L 340.062531 444.066819 
L 340.794468 443.494713 
L 341.526404 443.598732 
L 342.258341 444.586916 
L 342.990277 444.326867 
L 343.722214 444.742945 
L 344.454151 444.690935 
L 345.186087 445.107012 
L 345.918024 445.679119 
L 346.64996 445.263041 
L 347.381897 445.263041 
L 348.113834 445.679119 
L 348.84577 445.939167 
L 349.577707 445.367061 
L 351.04158 446.303235 
L 351.773517 446.355244 
L 352.505453 445.991177 
L 353.23739 446.563283 
L 353.969326 446.563283 
L 354.701263 446.407254 
L 355.4332 446.667302 
L 358.360946 446.771322 
L 359.824819 446.615293 
L 360.556756 446.823331 
L 361.288692 446.875341 
L 362.020629 446.771322 
L 367.144185 447.08338 
L 367.876122 446.927351 
L 368.608058 447.08338 
L 371.535805 446.875341 
L 372.999678 447.08338 
L 416.183938 447.08338 
L 416.183938 447.08338 
" clip-path="url(#p55c1db8338)" style="fill: none; stroke: #3b528b; stroke-opacity: 0.7; stroke-linecap: square"/>
   </g>
   <g id="line2d_83">
    <path d="M 50.947574 39.483593 
L 51.67951 39.795651 
L 52.411447 39.171535 
L 53.143384 39.171535 
L 53.87532 38.33938 
L 54.607257 40.055699 
L 55.339193 40.575796 
L 56.07113 39.639622 
L 56.803067 41.043883 
L 57.535003 40.003689 
L 58.26694 39.639622 
L 58.998876 39.587612 
L 59.730813 40.575796 
L 60.46275 40.263738 
L 61.194686 40.107709 
L 61.926623 39.119525 
L 62.658559 40.367757 
L 63.390496 40.315747 
L 64.122433 42.084076 
L 64.854369 40.159718 
L 65.586306 42.240105 
L 66.318242 41.928047 
L 67.050179 41.772018 
L 67.782116 40.575796 
L 68.514052 42.500153 
L 69.245989 40.783834 
L 69.977925 41.928047 
L 70.709862 41.928047 
L 71.441799 42.396134 
L 72.173735 42.500153 
L 73.637608 41.876037 
L 74.369545 42.864221 
L 75.833418 42.448144 
L 76.565355 41.772018 
L 77.297291 42.812211 
L 78.029228 43.488337 
L 78.761165 43.384318 
L 79.493101 43.956424 
L 80.225038 42.240105 
L 80.956974 43.124269 
L 81.688911 44.68456 
L 82.420848 44.528531 
L 83.152784 44.944608 
L 83.884721 44.840589 
L 84.616657 43.748386 
L 85.348594 43.488337 
L 86.080531 44.112453 
L 87.544404 44.840589 
L 88.27634 45.776763 
L 89.008277 44.58054 
L 89.740214 46.24485 
L 90.47215 46.348869 
L 91.204087 44.528531 
L 91.936023 45.724753 
L 92.66796 45.204656 
L 93.399897 47.337053 
L 94.131833 44.996618 
L 94.86377 47.961169 
L 95.595706 48.533275 
L 96.327643 45.516714 
L 97.05958 48.013179 
L 97.791516 49.209401 
L 98.523453 46.816956 
L 99.255389 49.105382 
L 99.987326 47.181024 
L 100.719263 48.273227 
L 102.183136 47.441072 
L 102.915073 49.781507 
L 104.378946 48.533275 
L 105.110882 50.509643 
L 105.842819 48.481266 
L 106.574756 49.521459 
L 107.306692 48.897343 
L 108.038629 50.821701 
L 108.770565 51.653855 
L 109.502502 50.97773 
L 110.234439 50.561652 
L 110.966375 49.677488 
L 111.698312 51.237778 
L 112.430248 53.942281 
L 113.894122 51.341797 
L 114.626058 52.798068 
L 115.357995 51.653855 
L 116.089931 54.358358 
L 116.821868 52.48601 
L 117.553805 53.474194 
L 118.285741 53.630223 
L 119.017678 51.705865 
L 119.749614 54.15032 
L 120.481551 55.554581 
L 121.213488 54.930465 
L 121.945424 55.034484 
L 122.677361 56.074677 
L 123.409297 55.346542 
L 124.141234 55.554581 
L 124.873171 56.126687 
L 125.605107 55.502571 
L 126.337044 56.178697 
L 127.06898 58.623151 
L 127.800917 57.686977 
L 128.532854 55.450561 
L 129.26479 57.374919 
L 129.996727 60.44349 
L 130.728663 58.103055 
L 131.4606 59.403296 
L 132.192537 57.738987 
L 132.924473 58.207074 
L 133.65641 59.351287 
L 134.388346 58.77918 
L 135.120283 62.575886 
L 135.85222 61.119615 
L 136.584156 62.419857 
L 138.048029 62.107799 
L 138.779966 63.043973 
L 139.511903 60.33947 
L 140.243839 63.51206 
L 141.707712 65.592447 
L 142.439649 61.95177 
L 143.171586 62.367848 
L 143.903522 65.696466 
L 144.635459 67.100728 
L 145.367395 66.112544 
L 146.099332 67.412786 
L 146.831269 65.852495 
L 147.563205 68.452979 
L 148.295142 66.164554 
L 149.027078 66.476612 
L 149.759015 68.713027 
L 150.490952 67.776853 
L 151.222888 68.088911 
L 151.954825 72.145666 
L 152.686761 67.672834 
L 153.418698 71.209492 
L 154.150635 71.625569 
L 154.882571 71.573559 
L 155.614508 71.885617 
L 156.346444 72.821791 
L 157.078381 72.561743 
L 157.810318 73.705956 
L 158.542254 76.878546 
L 159.274191 73.966004 
L 160.006127 76.566488 
L 160.738064 74.174043 
L 161.470001 76.25443 
L 162.201937 76.982565 
L 162.933874 77.086584 
L 163.66581 78.022758 
L 164.397747 77.81472 
L 165.129684 80.259174 
L 165.86162 79.427019 
L 166.593557 79.27099 
L 167.325493 83.691812 
L 168.05743 84.05588 
L 168.789367 82.235542 
L 169.521303 84.159899 
L 170.25324 85.096074 
L 170.985176 83.067696 
L 171.717113 83.587793 
L 172.44905 82.963677 
L 173.180986 83.483774 
L 173.912923 88.060625 
L 174.644859 88.320673 
L 175.376796 89.152828 
L 176.108733 90.661108 
L 176.840669 91.181205 
L 177.572606 88.996799 
L 178.304542 92.793505 
L 179.036479 92.325418 
L 179.768416 92.377427 
L 180.500352 92.169389 
L 181.232289 93.209582 
L 181.964225 92.481447 
L 182.696162 95.550017 
L 183.428099 96.64222 
L 184.160035 95.445998 
L 184.891972 96.538201 
L 185.623908 92.169389 
L 187.087782 100.802994 
L 187.819718 102.9874 
L 188.551655 101.3751 
L 189.283591 102.051226 
L 190.015528 100.646965 
L 190.747465 103.455487 
L 191.479401 104.911758 
L 192.211338 105.639893 
L 192.943274 105.223816 
L 193.675211 108.916503 
L 194.407148 109.852677 
L 195.139084 106.680087 
L 195.871021 108.708464 
L 196.602957 106.732096 
L 197.334894 111.829044 
L 198.066831 114.741586 
L 198.798767 115.833789 
L 199.530704 110.372773 
L 200.26264 113.285315 
L 200.994577 120.514659 
L 201.726514 116.561924 
L 202.45845 120.254611 
L 203.190387 119.994562 
L 203.922323 118.278243 
L 204.65426 120.826717 
L 205.386197 121.450833 
L 206.118133 123.323181 
L 206.85007 123.375191 
L 207.582006 125.663616 
L 209.777816 133.933154 
L 210.509753 133.04899 
L 211.241689 132.580903 
L 211.973626 137.885889 
L 212.705563 135.389425 
L 213.437499 138.405986 
L 214.169436 137.67785 
L 214.901372 139.186131 
L 215.633309 140.382353 
L 216.365246 143.762982 
L 217.097182 143.814991 
L 218.561055 145.58332 
L 219.292992 146.831552 
L 220.024929 147.507678 
L 220.756865 146.727533 
L 222.952675 157.805593 
L 223.684612 151.9285 
L 224.416548 161.810337 
L 225.148485 155.205109 
L 225.880421 161.186221 
L 226.612358 163.474647 
L 227.344295 165.242976 
L 228.076231 160.718134 
L 228.808168 168.987672 
L 229.540104 170.287914 
L 230.272041 170.495952 
L 231.003978 172.056243 
L 231.735914 176.477065 
L 232.467851 174.604716 
L 233.199787 176.997161 
L 233.931724 180.741857 
L 234.663661 178.76549 
L 235.395597 175.124813 
L 236.127534 184.330525 
L 236.85947 184.330525 
L 237.591407 185.370718 
L 238.323344 190.779724 
L 239.05528 192.704082 
L 239.787217 190.415656 
L 240.519153 192.392024 
L 241.25109 191.40384 
L 241.983027 199.517349 
L 242.714963 202.117832 
L 243.4469 200.089455 
L 244.178836 205.758509 
L 244.910773 202.169842 
L 245.64271 205.498461 
L 246.374646 207.578847 
L 247.106583 210.231341 
L 247.838519 214.496134 
L 248.570456 213.143882 
L 249.302393 215.172259 
L 250.034329 215.588337 
L 250.766266 225.366155 
L 251.498202 223.649836 
L 252.230139 219.85313 
L 252.962076 228.122667 
L 253.694012 225.990271 
L 254.425949 230.359083 
L 255.157885 236.080147 
L 255.889822 237.12034 
L 256.621759 235.300002 
L 257.353695 241.749201 
L 258.817568 243.361501 
L 259.549505 244.453704 
L 260.281442 250.694864 
L 261.013378 251.162951 
L 261.745315 255.583773 
L 262.477251 256.10387 
L 263.209188 261.460866 
L 263.941125 259.432489 
L 264.673061 264.997524 
L 265.404998 264.06135 
L 266.136934 265.465611 
L 266.868871 273.007013 
L 267.600808 271.498732 
L 269.064681 278.676067 
L 269.796617 280.444396 
L 270.528554 286.945605 
L 271.260491 290.79432 
L 271.992427 287.153643 
L 272.724364 290.170204 
L 274.188237 295.267152 
L 274.920174 296.567394 
L 275.65211 298.907829 
L 277.115983 307.281386 
L 277.84792 304.94095 
L 278.579857 310.974072 
L 279.311793 310.453976 
L 280.04373 314.614749 
L 280.775666 315.758962 
L 281.507603 319.035571 
L 282.23954 325.744819 
L 282.971476 323.248354 
L 283.703413 326.628983 
L 284.435349 329.177457 
L 285.167286 329.801573 
L 285.899223 335.158569 
L 286.631159 338.851256 
L 287.363096 336.718859 
L 288.095032 343.948203 
L 288.826969 343.636145 
L 290.290842 351.749654 
L 291.022779 353.778031 
L 291.754715 354.974253 
L 292.486652 356.586553 
L 293.218589 360.955366 
L 293.950525 357.418708 
L 294.682462 366.416381 
L 295.414398 365.272168 
L 296.146335 369.120884 
L 296.878272 366.62442 
L 297.610208 374.789938 
L 298.342145 376.558267 
L 299.074081 376.142189 
L 299.806018 377.130373 
L 300.537955 385.243882 
L 301.269891 381.083108 
L 302.001828 384.411727 
L 302.733764 388.67652 
L 303.465701 388.260443 
L 304.197638 392.629255 
L 304.929574 393.825477 
L 305.661511 391.953129 
L 306.393447 397.882232 
L 307.857321 399.598551 
L 308.589257 402.199034 
L 309.321194 401.158841 
L 310.05313 404.903537 
L 310.785067 407.400001 
L 311.517004 406.619856 
L 312.24894 409.376369 
L 312.980877 411.352736 
L 313.712813 412.028862 
L 314.44475 416.033607 
L 315.176687 414.109249 
L 315.908623 419.830313 
L 316.64056 418.374042 
L 317.372496 418.270022 
L 318.104433 422.274767 
L 318.83637 422.170748 
L 319.568306 423.41898 
L 321.032179 426.435541 
L 321.764116 426.851618 
L 322.496053 427.943821 
L 323.227989 427.995831 
L 323.959926 428.723966 
L 324.691862 429.920189 
L 325.423799 432.312633 
L 326.155736 431.428469 
L 326.887672 431.740527 
L 327.619609 433.560865 
L 329.083482 435.329194 
L 330.547355 437.5136 
L 331.279292 437.149533 
L 332.011228 437.409581 
L 332.743165 438.917862 
L 333.475102 439.281929 
L 334.207038 439.1259 
L 334.938975 440.478152 
L 335.670911 441.206287 
L 336.402848 441.362316 
L 337.134785 441.310306 
L 337.866721 441.570355 
L 338.598658 443.442703 
L 339.330594 442.610548 
L 340.062531 442.402509 
L 340.794468 443.286674 
L 342.990277 444.586916 
L 343.722214 444.014809 
L 344.454151 444.794954 
L 345.186087 445.002993 
L 345.918024 445.47108 
L 346.64996 445.002993 
L 347.381897 444.950983 
L 348.84577 446.199215 
L 349.577707 445.783138 
L 350.309643 445.627109 
L 351.04158 446.095196 
L 351.773517 446.303235 
L 352.505453 446.147206 
L 353.23739 446.459264 
L 353.969326 446.303235 
L 354.701263 446.303235 
L 355.4332 446.667302 
L 356.165136 446.511273 
L 356.897073 446.667302 
L 357.629009 446.407254 
L 358.360946 446.719312 
L 360.556756 446.667302 
L 361.288692 446.875341 
L 363.484502 446.97936 
L 364.216439 447.03137 
L 364.948375 446.927351 
L 366.412249 447.03137 
L 367.144185 446.927351 
L 370.071932 447.03137 
L 416.183938 447.08338 
L 416.183938 447.08338 
" clip-path="url(#p55c1db8338)" style="fill: none; stroke: #21918c; stroke-opacity: 0.7; stroke-linecap: square"/>
   </g>
   <g id="patch_3">
    <path d="M 32.685756 467.52058 
L 32.685756 17.90218 
" style="fill: none; stroke: #000000; stroke-width: 0.5; stroke-linejoin: miter; stroke-linecap: square"/>
   </g>
   <g id="patch_4">
    <path d="M 434.445756 467.52058 
L 434.445756 17.90218 
" style="fill: none; stroke: #000000; stroke-width: 0.5; stroke-linejoin: miter; stroke-linecap: square"/>
   </g>
   <g id="patch_5">
    <path d="M 32.685756 467.52058 
L 434.445756 467.52058 
" style="fill: none; stroke: #000000; stroke-width: 0.5; stroke-linejoin: miter; stroke-linecap: square"/>
   </g>
   <g id="patch_6">
    <path d="M 32.685756 17.90218 
L 434.445756 17.90218 
" style="fill: none; stroke: #000000; stroke-width: 0.5; stroke-linejoin: miter; stroke-linecap: square"/>
   </g>
   <g id="text_14">
    <!-- Coin Bias -->
    <g transform="translate(208.577773 11.90218) scale(0.12 -0.12)">
     <defs>
      <path id="CMR17-43" d="M 3974 4289 
C 3974 4403 3968 4410 3930 4410 
C 3904 4410 3898 4403 3853 4327 
L 3571 3792 
C 3258 4187 2874 4416 2381 4416 
C 1286 4416 294 3456 294 2148 
C 294 826 1286 -128 2387 -128 
C 3366 -128 3974 730 3974 1461 
C 3974 1524 3974 1550 3917 1550 
C 3866 1550 3866 1531 3859 1474 
C 3808 585 3168 38 2477 38 
C 1824 38 781 495 781 2147 
C 781 3805 1843 4250 2464 4250 
C 3187 4250 3712 3628 3834 2745 
C 3846 2668 3846 2655 3904 2655 
C 3974 2655 3974 2668 3974 2783 
L 3974 4289 
z
" transform="scale(0.015625)"/>
      <path id="CMR17-6e" d="M 2656 1933 
C 2656 2259 2592 2790 1837 2790 
C 1331 2790 1069 2400 973 2144 
L 966 2144 
L 966 2790 
L 211 2720 
L 211 2554 
C 589 2554 646 2515 646 2208 
L 646 428 
C 646 184 621 153 211 153 
L 211 -13 
C 365 0 646 0 813 0 
C 979 0 1267 0 1421 -13 
L 1421 153 
C 1011 153 986 178 986 428 
L 986 1658 
C 986 2247 1344 2688 1792 2688 
C 2266 2688 2317 2266 2317 1958 
L 2317 428 
C 2317 184 2291 153 1882 153 
L 1882 -13 
C 2035 0 2317 0 2483 0 
C 2650 0 2938 0 3091 -13 
L 3091 153 
C 2682 153 2656 178 2656 428 
L 2656 1933 
z
" transform="scale(0.015625)"/>
      <path id="CMR17-42" d="M 333 4352 
L 333 4186 
C 774 4186 845 4186 845 3900 
L 845 452 
C 845 166 774 166 333 166 
L 333 0 
L 2534 0 
C 3354 0 3885 583 3885 1164 
C 3885 1741 3360 2233 2675 2233 
C 3290 2356 3718 2771 3718 3264 
C 3718 3802 3194 4352 2368 4352 
L 333 4352 
z
M 1248 2304 
L 1248 3937 
C 1248 4155 1261 4186 1517 4186 
L 2336 4186 
C 2970 4186 3251 3674 3251 3277 
C 3251 2791 2861 2304 2170 2304 
L 1248 2304 
z
M 1517 166 
C 1261 166 1248 197 1248 413 
L 1248 2202 
L 2432 2202 
C 3091 2202 3411 1625 3411 1162 
C 3411 699 3046 166 2349 166 
L 1517 166 
z
" transform="scale(0.015625)"/>
      <path id="CMR17-73" d="M 1978 2697 
C 1978 2813 1971 2819 1933 2819 
C 1907 2819 1901 2813 1824 2717 
C 1805 2691 1747 2626 1728 2601 
C 1523 2819 1235 2819 1126 2819 
C 416 2819 160 2447 160 2076 
C 160 1498 813 1365 998 1325 
C 1402 1243 1542 1217 1677 1101 
C 1760 1025 1901 884 1901 654 
C 1901 384 1747 38 1158 38 
C 602 38 403 460 288 1021 
C 269 1110 269 1117 218 1117 
C 166 1117 160 1110 160 983 
L 160 63 
C 160 -51 166 -58 205 -58 
C 237 -58 243 -51 275 0 
C 314 57 410 211 448 276 
C 576 103 800 -64 1158 -64 
C 1792 -64 2131 283 2131 784 
C 2131 1112 1958 1285 1875 1362 
C 1683 1561 1459 1606 1190 1657 
C 838 1735 390 1825 390 2217 
C 390 2383 480 2737 1126 2737 
C 1811 2737 1850 2094 1862 1888 
C 1869 1856 1901 1849 1920 1849 
C 1978 1849 1978 1869 1978 1978 
L 1978 2697 
z
" transform="scale(0.015625)"/>
     </defs>
     <use xlink:href="#CMR17-43" transform="scale(0.996264)"/>
     <use xlink:href="#CMR17-6f" transform="translate(66.509881 0) scale(0.996264)"/>
     <use xlink:href="#CMR17-69" transform="translate(112.200358 0) scale(0.996264)"/>
     <use xlink:href="#CMR17-6e" transform="translate(137.071416 0) scale(0.996264)"/>
     <use xlink:href="#CMR17-42" transform="translate(218.042752 0) scale(0.996264)"/>
     <use xlink:href="#CMR17-69" transform="translate(283.231507 0) scale(0.996264)"/>
     <use xlink:href="#CMR17-61" transform="translate(308.102565 0) scale(0.996264)"/>
     <use xlink:href="#CMR17-73" transform="translate(353.793042 0) scale(0.996264)"/>
    </g>
   </g>
   <g id="legend_1">
    <g id="line2d_84">
     <path d="M 382.50175 30.40218 
L 392.50175 30.40218 
L 402.50175 30.40218 
" style="fill: none; stroke: #440154; stroke-opacity: 0.7; stroke-linecap: square"/>
    </g>
    <g id="text_15">
     <!-- 290 -->
     <g transform="translate(410.50175 33.90218) scale(0.1 -0.1)">
      <defs>
       <path id="CMR17-39" d="M 2253 1864 
C 2253 464 1670 31 1190 31 
C 1043 31 685 31 538 294 
C 704 268 826 357 826 518 
C 826 692 685 749 595 749 
C 538 749 365 723 365 506 
C 365 71 742 -128 1203 -128 
C 1939 -128 2688 674 2688 2073 
C 2688 3817 1971 4179 1485 4179 
C 851 4179 243 3628 243 2778 
C 243 1991 762 1408 1414 1408 
C 1952 1408 2189 1903 2253 2112 
L 2253 1864 
z
M 1427 1510 
C 1254 1510 1011 1542 813 1922 
C 678 2169 678 2461 678 2771 
C 678 3146 678 3405 858 3684 
C 947 3817 1114 4032 1485 4032 
C 2240 4032 2240 2885 2240 2632 
C 2240 2182 2035 1510 1427 1510 
z
" transform="scale(0.015625)"/>
      </defs>
      <use xlink:href="#CMR17-32" transform="scale(0.996264)"/>
      <use xlink:href="#CMR17-39" transform="translate(45.690477 0) scale(0.996264)"/>
      <use xlink:href="#CMR17-30" transform="translate(91.380954 0) scale(0.996264)"/>
     </g>
    </g>
    <g id="line2d_85">
     <path d="M 382.50175 44.339358 
L 392.50175 44.339358 
L 402.50175 44.339358 
" style="fill: none; stroke: #3b528b; stroke-opacity: 0.7; stroke-linecap: square"/>
    </g>
    <g id="text_16">
     <!-- 300 -->
     <g transform="translate(410.50175 47.839358) scale(0.1 -0.1)">
      <defs>
       <path id="CMR17-33" d="M 1414 2157 
C 1984 2157 2234 1662 2234 1090 
C 2234 320 1824 25 1453 25 
C 1114 25 563 194 390 693 
C 422 680 454 680 486 680 
C 640 680 755 782 755 948 
C 755 1133 614 1216 486 1216 
C 378 1216 211 1165 211 926 
C 211 335 787 -128 1466 -128 
C 2176 -128 2720 430 2720 1085 
C 2720 1707 2208 2157 1600 2227 
C 2086 2328 2554 2756 2554 3329 
C 2554 3820 2048 4179 1472 4179 
C 890 4179 378 3829 378 3329 
C 378 3110 544 3072 627 3072 
C 762 3072 877 3155 877 3321 
C 877 3486 762 3569 627 3569 
C 602 3569 570 3569 544 3557 
C 730 3959 1235 4032 1459 4032 
C 1683 4032 2106 3925 2106 3320 
C 2106 3143 2080 2828 1862 2550 
C 1670 2304 1453 2304 1242 2284 
C 1210 2284 1062 2269 1037 2269 
C 992 2263 966 2257 966 2208 
C 966 2163 973 2157 1101 2157 
L 1414 2157 
z
" transform="scale(0.015625)"/>
      </defs>
      <use xlink:href="#CMR17-33" transform="scale(0.996264)"/>
      <use xlink:href="#CMR17-30" transform="translate(45.690477 0) scale(0.996264)"/>
      <use xlink:href="#CMR17-30" transform="translate(91.380954 0) scale(0.996264)"/>
     </g>
    </g>
    <g id="line2d_86">
     <path d="M 382.50175 58.276536 
L 392.50175 58.276536 
L 402.50175 58.276536 
" style="fill: none; stroke: #21918c; stroke-opacity: 0.7; stroke-linecap: square"/>
    </g>
    <g id="text_17">
     <!-- 310 -->
     <g transform="translate(410.50175 61.776536) scale(0.1 -0.1)">
      <use xlink:href="#CMR17-33" transform="scale(0.996264)"/>
      <use xlink:href="#CMR17-31" transform="translate(45.690477 0) scale(0.996264)"/>
      <use xlink:href="#CMR17-30" transform="translate(91.380954 0) scale(0.996264)"/>
     </g>
    </g>
   </g>
  </g>
 </g>
 <defs>
  <clipPath id="p55c1db8338">
   <rect x="32.685756" y="17.90218" width="401.76" height="449.6184"/>
  </clipPath>
 </defs>
</svg>
