<?xml version="1.0" encoding="utf-8" standalone="no"?>
<!DOCTYPE svg PUBLIC "-//W3C//DTD SVG 1.1//EN"
  "http://www.w3.org/Graphics/SVG/1.1/DTD/svg11.dtd">
<svg xmlns:xlink="http://www.w3.org/1999/xlink" width="438.045756pt" height="255.166097pt" viewBox="0 0 438.045756 255.166097" xmlns="http://www.w3.org/2000/svg" version="1.1">
 <metadata>
  <rdf:RDF xmlns:dc="http://purl.org/dc/elements/1.1/" xmlns:cc="http://creativecommons.org/ns#" xmlns:rdf="http://www.w3.org/1999/02/22-rdf-syntax-ns#">
   <cc:Work>
    <dc:type rdf:resource="http://purl.org/dc/dcmitype/StillImage"/>
    <dc:date>2024-01-01T17:17:38.167110</dc:date>
    <dc:format>image/svg+xml</dc:format>
    <dc:creator>
     <cc:Agent>
      <dc:title>Matplotlib v3.7.2, https://matplotlib.org/</dc:title>
     </cc:Agent>
    </dc:creator>
   </cc:Work>
  </rdf:RDF>
 </metadata>
 <defs>
  <style type="text/css">*{stroke-linejoin: round; stroke-linecap: butt}</style>
 </defs>
 <g id="figure_1">
  <g id="patch_1">
   <path d="M 0 255.166097 
L 438.045756 255.166097 
L 438.045756 0 
L 0 0 
z
" style="fill: #ffffff"/>
  </g>
  <g id="axes_1">
   <g id="patch_2">
    <path d="M 32.685756 225.24778 
L 434.445756 225.24778 
L 434.445756 17.90218 
L 32.685756 17.90218 
z
" style="fill: #ffffff"/>
   </g>
   <g id="matplotlib.axis_1">
    <g id="xtick_1">
     <g id="line2d_1">
      <defs>
       <path id="m94365462cd" d="M 0 0 
L 0 -3 
" style="stroke: #000000; stroke-width: 0.5"/>
      </defs>
      <g>
       <use xlink:href="#m94365462cd" x="91.529392" y="225.24778" style="stroke: #000000; stroke-width: 0.5"/>
      </g>
     </g>
     <g id="line2d_2">
      <defs>
       <path id="m552b75849d" d="M 0 0 
L 0 3 
" style="stroke: #000000; stroke-width: 0.5"/>
      </defs>
      <g>
       <use xlink:href="#m552b75849d" x="91.529392" y="17.90218" style="stroke: #000000; stroke-width: 0.5"/>
      </g>
     </g>
     <g id="text_1">
      <!-- $\mathdefault{−0.8}$ -->
      <g transform="translate(81.289981 235.666278) scale(0.1 -0.1)">
       <defs>
        <path id="CMSY10-0" d="M 4218 1472 
C 4326 1472 4442 1472 4442 1600 
C 4442 1728 4326 1728 4218 1728 
L 755 1728 
C 646 1728 531 1728 531 1600 
C 531 1472 646 1472 755 1472 
L 4218 1472 
z
" transform="scale(0.015625)"/>
        <path id="CMR17-30" d="M 2688 2025 
C 2688 2416 2682 3080 2413 3591 
C 2176 4039 1798 4198 1466 4198 
C 1158 4198 768 4058 525 3597 
C 269 3118 243 2524 243 2025 
C 243 1661 250 1106 448 619 
C 723 -39 1216 -128 1466 -128 
C 1760 -128 2208 -7 2470 600 
C 2662 1042 2688 1559 2688 2025 
z
M 1466 -26 
C 1056 -26 813 325 723 812 
C 653 1188 653 1738 653 2096 
C 653 2588 653 2997 736 3387 
C 858 3929 1216 4096 1466 4096 
C 1728 4096 2067 3923 2189 3400 
C 2272 3036 2278 2607 2278 2096 
C 2278 1680 2278 1169 2202 792 
C 2067 95 1690 -26 1466 -26 
z
" transform="scale(0.015625)"/>
        <path id="CMMI12-3a" d="M 1178 307 
C 1178 492 1024 619 870 619 
C 685 619 557 466 557 313 
C 557 128 710 0 864 0 
C 1050 0 1178 153 1178 307 
z
" transform="scale(0.015625)"/>
        <path id="CMR17-38" d="M 1741 2264 
C 2144 2467 2554 2773 2554 3263 
C 2554 3841 1990 4179 1472 4179 
C 890 4179 378 3759 378 3180 
C 378 3021 416 2747 666 2505 
C 730 2442 998 2251 1171 2130 
C 883 1983 211 1634 211 934 
C 211 279 838 -128 1459 -128 
C 2144 -128 2720 362 2720 1010 
C 2720 1590 2330 1857 2074 2029 
L 1741 2264 
z
M 902 2822 
C 851 2854 595 3051 595 3351 
C 595 3739 998 4032 1459 4032 
C 1965 4032 2336 3676 2336 3262 
C 2336 2669 1670 2331 1638 2331 
C 1632 2331 1626 2331 1574 2370 
L 902 2822 
z
M 2080 1519 
C 2176 1449 2483 1240 2483 851 
C 2483 381 2010 25 1472 25 
C 890 25 448 438 448 940 
C 448 1443 838 1862 1280 2060 
L 2080 1519 
z
" transform="scale(0.015625)"/>
       </defs>
       <use xlink:href="#CMSY10-0" transform="scale(0.996264)"/>
       <use xlink:href="#CMR17-30" transform="translate(77.487468 0) scale(0.996264)"/>
       <use xlink:href="#CMMI12-3a" transform="translate(123.177945 0) scale(0.996264)"/>
       <use xlink:href="#CMR17-38" transform="translate(150.275122 0) scale(0.996264)"/>
      </g>
     </g>
    </g>
    <g id="xtick_2">
     <g id="line2d_3">
      <g>
       <use xlink:href="#m94365462cd" x="172.693028" y="225.24778" style="stroke: #000000; stroke-width: 0.5"/>
      </g>
     </g>
     <g id="line2d_4">
      <g>
       <use xlink:href="#m552b75849d" x="172.693028" y="17.90218" style="stroke: #000000; stroke-width: 0.5"/>
      </g>
     </g>
     <g id="text_2">
      <!-- $\mathdefault{−0.6}$ -->
      <g transform="translate(162.453617 235.666278) scale(0.1 -0.1)">
       <defs>
        <path id="CMR17-36" d="M 678 2176 
C 678 3690 1395 4032 1811 4032 
C 1946 4032 2272 4009 2400 3776 
C 2298 3776 2106 3776 2106 3553 
C 2106 3381 2246 3323 2336 3323 
C 2394 3323 2566 3348 2566 3560 
C 2566 3954 2246 4179 1805 4179 
C 1043 4179 243 3390 243 1984 
C 243 253 966 -128 1478 -128 
C 2099 -128 2688 427 2688 1283 
C 2688 2081 2170 2662 1517 2662 
C 1126 2662 838 2407 678 1960 
L 678 2176 
z
M 1478 25 
C 691 25 691 1200 691 1436 
C 691 1896 909 2560 1504 2560 
C 1613 2560 1926 2560 2138 2120 
C 2253 1870 2253 1609 2253 1289 
C 2253 944 2253 690 2118 434 
C 1978 171 1773 25 1478 25 
z
" transform="scale(0.015625)"/>
       </defs>
       <use xlink:href="#CMSY10-0" transform="scale(0.996264)"/>
       <use xlink:href="#CMR17-30" transform="translate(77.487468 0) scale(0.996264)"/>
       <use xlink:href="#CMMI12-3a" transform="translate(123.177945 0) scale(0.996264)"/>
       <use xlink:href="#CMR17-36" transform="translate(150.275122 0) scale(0.996264)"/>
      </g>
     </g>
    </g>
    <g id="xtick_3">
     <g id="line2d_5">
      <g>
       <use xlink:href="#m94365462cd" x="253.856665" y="225.24778" style="stroke: #000000; stroke-width: 0.5"/>
      </g>
     </g>
     <g id="line2d_6">
      <g>
       <use xlink:href="#m552b75849d" x="253.856665" y="17.90218" style="stroke: #000000; stroke-width: 0.5"/>
      </g>
     </g>
     <g id="text_3">
      <!-- $\mathdefault{−0.4}$ -->
      <g transform="translate(243.617253 235.666278) scale(0.1 -0.1)">
       <defs>
        <path id="CMR17-34" d="M 2150 4122 
C 2150 4256 2144 4256 2029 4256 
L 128 1254 
L 128 1088 
L 1779 1088 
L 1779 457 
C 1779 224 1766 160 1318 160 
L 1197 160 
L 1197 0 
C 1402 0 1747 0 1965 0 
C 2182 0 2528 0 2733 0 
L 2733 160 
L 2611 160 
C 2163 160 2150 224 2150 457 
L 2150 1088 
L 2803 1088 
L 2803 1254 
L 2150 1254 
L 2150 4122 
z
M 1798 3703 
L 1798 1254 
L 256 1254 
L 1798 3703 
z
" transform="scale(0.015625)"/>
       </defs>
       <use xlink:href="#CMSY10-0" transform="scale(0.996264)"/>
       <use xlink:href="#CMR17-30" transform="translate(77.487468 0) scale(0.996264)"/>
       <use xlink:href="#CMMI12-3a" transform="translate(123.177945 0) scale(0.996264)"/>
       <use xlink:href="#CMR17-34" transform="translate(150.275122 0) scale(0.996264)"/>
      </g>
     </g>
    </g>
    <g id="xtick_4">
     <g id="line2d_7">
      <g>
       <use xlink:href="#m94365462cd" x="335.020301" y="225.24778" style="stroke: #000000; stroke-width: 0.5"/>
      </g>
     </g>
     <g id="line2d_8">
      <g>
       <use xlink:href="#m552b75849d" x="335.020301" y="17.90218" style="stroke: #000000; stroke-width: 0.5"/>
      </g>
     </g>
     <g id="text_4">
      <!-- $\mathdefault{−0.2}$ -->
      <g transform="translate(324.78089 235.666278) scale(0.1 -0.1)">
       <defs>
        <path id="CMR17-32" d="M 2669 989 
L 2554 989 
C 2490 536 2438 459 2413 420 
C 2381 369 1920 369 1830 369 
L 602 369 
C 832 619 1280 1072 1824 1597 
C 2214 1967 2669 2402 2669 3035 
C 2669 3790 2067 4224 1395 4224 
C 691 4224 262 3604 262 3030 
C 262 2780 448 2748 525 2748 
C 589 2748 781 2787 781 3010 
C 781 3207 614 3264 525 3264 
C 486 3264 448 3258 422 3245 
C 544 3790 915 4058 1306 4058 
C 1862 4058 2227 3617 2227 3035 
C 2227 2479 1901 2000 1536 1584 
L 262 146 
L 262 0 
L 2515 0 
L 2669 989 
z
" transform="scale(0.015625)"/>
       </defs>
       <use xlink:href="#CMSY10-0" transform="scale(0.996264)"/>
       <use xlink:href="#CMR17-30" transform="translate(77.487468 0) scale(0.996264)"/>
       <use xlink:href="#CMMI12-3a" transform="translate(123.177945 0) scale(0.996264)"/>
       <use xlink:href="#CMR17-32" transform="translate(150.275122 0) scale(0.996264)"/>
      </g>
     </g>
    </g>
    <g id="xtick_5">
     <g id="line2d_9">
      <g>
       <use xlink:href="#m94365462cd" x="416.183938" y="225.24778" style="stroke: #000000; stroke-width: 0.5"/>
      </g>
     </g>
     <g id="line2d_10">
      <g>
       <use xlink:href="#m552b75849d" x="416.183938" y="17.90218" style="stroke: #000000; stroke-width: 0.5"/>
      </g>
     </g>
     <g id="text_5">
      <!-- $\mathdefault{0.0}$ -->
      <g transform="translate(409.818898 235.666278) scale(0.1 -0.1)">
       <use xlink:href="#CMR17-30" transform="scale(0.996264)"/>
       <use xlink:href="#CMMI12-3a" transform="translate(45.690477 0) scale(0.996264)"/>
       <use xlink:href="#CMR17-30" transform="translate(72.787654 0) scale(0.996264)"/>
      </g>
     </g>
    </g>
    <g id="xtick_6">
     <g id="line2d_11">
      <defs>
       <path id="mc6c3b50752" d="M 0 0 
L 0 -1.5 
" style="stroke: #000000; stroke-width: 0.5"/>
      </defs>
      <g>
       <use xlink:href="#mc6c3b50752" x="50.947574" y="225.24778" style="stroke: #000000; stroke-width: 0.5"/>
      </g>
     </g>
     <g id="line2d_12">
      <defs>
       <path id="mea7e3cfa50" d="M 0 0 
L 0 1.5 
" style="stroke: #000000; stroke-width: 0.5"/>
      </defs>
      <g>
       <use xlink:href="#mea7e3cfa50" x="50.947574" y="17.90218" style="stroke: #000000; stroke-width: 0.5"/>
      </g>
     </g>
    </g>
    <g id="xtick_7">
     <g id="line2d_13">
      <g>
       <use xlink:href="#mc6c3b50752" x="71.238483" y="225.24778" style="stroke: #000000; stroke-width: 0.5"/>
      </g>
     </g>
     <g id="line2d_14">
      <g>
       <use xlink:href="#mea7e3cfa50" x="71.238483" y="17.90218" style="stroke: #000000; stroke-width: 0.5"/>
      </g>
     </g>
    </g>
    <g id="xtick_8">
     <g id="line2d_15">
      <g>
       <use xlink:href="#mc6c3b50752" x="111.820301" y="225.24778" style="stroke: #000000; stroke-width: 0.5"/>
      </g>
     </g>
     <g id="line2d_16">
      <g>
       <use xlink:href="#mea7e3cfa50" x="111.820301" y="17.90218" style="stroke: #000000; stroke-width: 0.5"/>
      </g>
     </g>
    </g>
    <g id="xtick_9">
     <g id="line2d_17">
      <g>
       <use xlink:href="#mc6c3b50752" x="132.11121" y="225.24778" style="stroke: #000000; stroke-width: 0.5"/>
      </g>
     </g>
     <g id="line2d_18">
      <g>
       <use xlink:href="#mea7e3cfa50" x="132.11121" y="17.90218" style="stroke: #000000; stroke-width: 0.5"/>
      </g>
     </g>
    </g>
    <g id="xtick_10">
     <g id="line2d_19">
      <g>
       <use xlink:href="#mc6c3b50752" x="152.402119" y="225.24778" style="stroke: #000000; stroke-width: 0.5"/>
      </g>
     </g>
     <g id="line2d_20">
      <g>
       <use xlink:href="#mea7e3cfa50" x="152.402119" y="17.90218" style="stroke: #000000; stroke-width: 0.5"/>
      </g>
     </g>
    </g>
    <g id="xtick_11">
     <g id="line2d_21">
      <g>
       <use xlink:href="#mc6c3b50752" x="192.983938" y="225.24778" style="stroke: #000000; stroke-width: 0.5"/>
      </g>
     </g>
     <g id="line2d_22">
      <g>
       <use xlink:href="#mea7e3cfa50" x="192.983938" y="17.90218" style="stroke: #000000; stroke-width: 0.5"/>
      </g>
     </g>
    </g>
    <g id="xtick_12">
     <g id="line2d_23">
      <g>
       <use xlink:href="#mc6c3b50752" x="213.274847" y="225.24778" style="stroke: #000000; stroke-width: 0.5"/>
      </g>
     </g>
     <g id="line2d_24">
      <g>
       <use xlink:href="#mea7e3cfa50" x="213.274847" y="17.90218" style="stroke: #000000; stroke-width: 0.5"/>
      </g>
     </g>
    </g>
    <g id="xtick_13">
     <g id="line2d_25">
      <g>
       <use xlink:href="#mc6c3b50752" x="233.565756" y="225.24778" style="stroke: #000000; stroke-width: 0.5"/>
      </g>
     </g>
     <g id="line2d_26">
      <g>
       <use xlink:href="#mea7e3cfa50" x="233.565756" y="17.90218" style="stroke: #000000; stroke-width: 0.5"/>
      </g>
     </g>
    </g>
    <g id="xtick_14">
     <g id="line2d_27">
      <g>
       <use xlink:href="#mc6c3b50752" x="274.147574" y="225.24778" style="stroke: #000000; stroke-width: 0.5"/>
      </g>
     </g>
     <g id="line2d_28">
      <g>
       <use xlink:href="#mea7e3cfa50" x="274.147574" y="17.90218" style="stroke: #000000; stroke-width: 0.5"/>
      </g>
     </g>
    </g>
    <g id="xtick_15">
     <g id="line2d_29">
      <g>
       <use xlink:href="#mc6c3b50752" x="294.438483" y="225.24778" style="stroke: #000000; stroke-width: 0.5"/>
      </g>
     </g>
     <g id="line2d_30">
      <g>
       <use xlink:href="#mea7e3cfa50" x="294.438483" y="17.90218" style="stroke: #000000; stroke-width: 0.5"/>
      </g>
     </g>
    </g>
    <g id="xtick_16">
     <g id="line2d_31">
      <g>
       <use xlink:href="#mc6c3b50752" x="314.729392" y="225.24778" style="stroke: #000000; stroke-width: 0.5"/>
      </g>
     </g>
     <g id="line2d_32">
      <g>
       <use xlink:href="#mea7e3cfa50" x="314.729392" y="17.90218" style="stroke: #000000; stroke-width: 0.5"/>
      </g>
     </g>
    </g>
    <g id="xtick_17">
     <g id="line2d_33">
      <g>
       <use xlink:href="#mc6c3b50752" x="355.31121" y="225.24778" style="stroke: #000000; stroke-width: 0.5"/>
      </g>
     </g>
     <g id="line2d_34">
      <g>
       <use xlink:href="#mea7e3cfa50" x="355.31121" y="17.90218" style="stroke: #000000; stroke-width: 0.5"/>
      </g>
     </g>
    </g>
    <g id="xtick_18">
     <g id="line2d_35">
      <g>
       <use xlink:href="#mc6c3b50752" x="375.602119" y="225.24778" style="stroke: #000000; stroke-width: 0.5"/>
      </g>
     </g>
     <g id="line2d_36">
      <g>
       <use xlink:href="#mea7e3cfa50" x="375.602119" y="17.90218" style="stroke: #000000; stroke-width: 0.5"/>
      </g>
     </g>
    </g>
    <g id="xtick_19">
     <g id="line2d_37">
      <g>
       <use xlink:href="#mc6c3b50752" x="395.893028" y="225.24778" style="stroke: #000000; stroke-width: 0.5"/>
      </g>
     </g>
     <g id="line2d_38">
      <g>
       <use xlink:href="#mea7e3cfa50" x="395.893028" y="17.90218" style="stroke: #000000; stroke-width: 0.5"/>
      </g>
     </g>
    </g>
    <g id="text_6">
     <!-- Voltage [v] -->
     <g transform="translate(210.181173 249.075437) scale(0.1 -0.1)">
      <defs>
       <path id="CMR17-56" d="M 3776 3745 
C 3834 3886 3936 4160 4365 4160 
L 4365 4332 
C 4218 4319 4051 4319 3891 4319 
C 3738 4319 3475 4319 3328 4332 
L 3328 4160 
C 3648 4160 3661 3936 3661 3898 
C 3661 3827 3642 3783 3622 3732 
L 2362 446 
L 1043 3886 
C 1024 3931 1011 3963 1011 3994 
C 1011 4160 1267 4160 1402 4160 
L 1402 4319 
C 1197 4319 896 4319 685 4319 
C 518 4319 218 4319 64 4332 
L 64 4160 
C 435 4160 506 4135 582 3931 
L 2106 -26 
C 2138 -115 2144 -128 2214 -128 
C 2285 -128 2291 -115 2323 -26 
L 3776 3745 
z
" transform="scale(0.015625)"/>
       <path id="CMR17-6f" d="M 2758 1356 
C 2758 2176 2163 2816 1466 2816 
C 768 2816 173 2176 173 1356 
C 173 551 768 -64 1466 -64 
C 2163 -64 2758 551 2758 1356 
z
M 1466 51 
C 1165 51 909 230 762 480 
C 602 767 582 1126 582 1408 
C 582 1677 595 2010 762 2298 
C 890 2509 1139 2714 1466 2714 
C 1754 2714 1997 2554 2150 2330 
C 2349 2029 2349 1607 2349 1408 
C 2349 1158 2336 775 2163 467 
C 1984 173 1709 51 1466 51 
z
" transform="scale(0.015625)"/>
       <path id="CMR17-6c" d="M 979 4396 
L 218 4326 
L 218 4160 
C 595 4160 653 4122 653 3817 
L 653 426 
C 653 184 627 153 218 153 
L 218 -13 
C 371 0 653 0 813 0 
C 979 0 1261 0 1414 -13 
L 1414 153 
C 1005 153 979 178 979 426 
L 979 4396 
z
" transform="scale(0.015625)"/>
       <path id="CMR17-74" d="M 966 2560 
L 1862 2560 
L 1862 2725 
L 966 2725 
L 966 3904 
L 851 3904 
C 838 3245 614 2668 70 2668 
L 70 2560 
L 627 2560 
L 627 771 
C 627 650 627 -64 1370 -64 
C 1747 -64 1965 306 1965 777 
L 1965 1140 
L 1850 1140 
L 1850 783 
C 1850 344 1677 51 1408 51 
C 1222 51 966 178 966 758 
L 966 2560 
z
" transform="scale(0.015625)"/>
       <path id="CMR17-61" d="M 2304 1653 
C 2304 2072 2304 2294 2035 2543 
C 1798 2752 1523 2816 1306 2816 
C 800 2816 435 2407 435 1971 
C 435 1728 627 1728 666 1728 
C 749 1728 896 1778 896 1954 
C 896 2112 774 2181 666 2181 
C 640 2181 608 2174 589 2168 
C 723 2592 1069 2714 1293 2714 
C 1613 2714 1965 2429 1965 1885 
L 1965 1600 
C 1587 1600 1133 1549 774 1357 
C 371 1133 256 813 256 570 
C 256 77 832 -64 1171 -64 
C 1523 -64 1850 139 1990 511 
C 2003 233 2182 -18 2464 -18 
C 2598 -18 2938 70 2938 567 
L 2938 920 
L 2822 920 
L 2822 562 
C 2822 178 2650 128 2566 128 
C 2304 128 2304 458 2304 738 
L 2304 1653 
z
M 1965 870 
C 1965 317 1568 38 1216 38 
C 896 38 646 275 646 570 
C 646 761 730 1100 1101 1305 
C 1408 1478 1760 1504 1965 1504 
L 1965 870 
z
" transform="scale(0.015625)"/>
       <path id="CMR17-67" d="M 710 1164 
C 832 1068 1043 960 1299 960 
C 1805 960 2240 1357 2240 1888 
C 2240 2054 2189 2310 1997 2509 
C 2176 2692 2438 2752 2586 2752 
C 2611 2752 2650 2752 2682 2734 
C 2656 2728 2598 2703 2598 2605 
C 2598 2527 2656 2471 2739 2471 
C 2835 2471 2886 2533 2886 2614 
C 2886 2731 2790 2854 2586 2854 
C 2330 2854 2106 2738 1926 2580 
C 1734 2753 1504 2816 1299 2816 
C 794 2816 358 2419 358 1888 
C 358 1522 570 1292 634 1228 
C 442 1004 442 743 442 711 
C 442 545 506 302 723 168 
C 390 85 128 -169 128 -486 
C 128 -943 736 -1280 1466 -1280 
C 2170 -1280 2803 -956 2803 -479 
C 2803 384 1856 384 1363 384 
C 1216 384 954 384 922 391 
C 723 423 589 602 589 826 
C 589 883 589 1024 710 1164 
z
M 1299 1068 
C 736 1068 736 1760 736 1889 
C 736 2016 736 2708 1299 2708 
C 1862 2708 1862 2016 1862 1889 
C 1862 1760 1862 1068 1299 1068 
z
M 1466 -1171 
C 826 -1171 384 -835 384 -486 
C 384 -289 493 -105 634 -4 
C 794 104 858 104 1293 104 
C 1818 104 2547 104 2547 -486 
C 2547 -835 2106 -1171 1466 -1171 
z
" transform="scale(0.015625)"/>
       <path id="CMR17-65" d="M 2438 1472 
C 2464 1498 2464 1511 2464 1576 
C 2464 2238 2118 2816 1389 2816 
C 710 2816 173 2169 173 1383 
C 173 551 781 -64 1459 -64 
C 2176 -64 2458 607 2458 740 
C 2458 784 2419 784 2406 784 
C 2362 784 2355 771 2330 696 
C 2189 265 1837 51 1504 51 
C 1229 51 954 203 781 480 
C 582 803 582 1176 582 1472 
L 2438 1472 
z
M 589 1568 
C 634 2505 1126 2714 1382 2714 
C 1818 2714 2112 2297 2118 1568 
L 589 1568 
z
" transform="scale(0.015625)"/>
       <path id="CMR17-5b" d="M 1504 -1600 
L 1504 -1377 
L 902 -1377 
L 902 4544 
L 1504 4544 
L 1504 4767 
L 678 4767 
L 678 -1600 
L 1504 -1600 
z
" transform="scale(0.015625)"/>
       <path id="CMR17-76" d="M 2502 2163 
C 2560 2304 2662 2560 3034 2560 
L 3034 2726 
C 2912 2726 2752 2726 2630 2726 
C 2496 2726 2285 2726 2157 2732 
L 2157 2566 
C 2317 2553 2406 2477 2406 2311 
C 2406 2253 2406 2240 2368 2151 
L 1664 377 
L 902 2286 
C 864 2369 864 2381 864 2407 
C 864 2560 1075 2560 1171 2560 
L 1171 2732 
C 1018 2726 736 2726 576 2726 
C 403 2726 205 2726 64 2732 
L 64 2560 
C 307 2560 442 2560 518 2362 
L 1446 44 
C 1485 -51 1491 -64 1549 -64 
C 1606 -64 1613 -51 1651 44 
L 2502 2163 
z
" transform="scale(0.015625)"/>
       <path id="CMR17-5d" d="M 915 4767 
L 90 4767 
L 90 4544 
L 691 4544 
L 691 -1377 
L 90 -1377 
L 90 -1600 
L 915 -1600 
L 915 4767 
z
" transform="scale(0.015625)"/>
      </defs>
      <use xlink:href="#CMR17-56" transform="scale(0.996264)"/>
      <use xlink:href="#CMR17-6f" transform="translate(61.265174 0) scale(0.996264)"/>
      <use xlink:href="#CMR17-6c" transform="translate(106.955652 0) scale(0.996264)"/>
      <use xlink:href="#CMR17-74" transform="translate(131.82671 0) scale(0.996264)"/>
      <use xlink:href="#CMR17-61" transform="translate(167.107478 0) scale(0.996264)"/>
      <use xlink:href="#CMR17-67" transform="translate(212.797955 0) scale(0.996264)"/>
      <use xlink:href="#CMR17-65" transform="translate(258.488432 0) scale(0.996264)"/>
      <use xlink:href="#CMR17-5b" transform="translate(329.050059 0) scale(0.996264)"/>
      <use xlink:href="#CMR17-76" transform="translate(353.921117 0) scale(0.996264)"/>
      <use xlink:href="#CMR17-5d" transform="translate(402.214033 0) scale(0.996264)"/>
     </g>
    </g>
   </g>
   <g id="matplotlib.axis_2">
    <g id="ytick_1">
     <g id="line2d_39">
      <defs>
       <path id="ma01c1f69d0" d="M 0 0 
L 3 0 
" style="stroke: #000000; stroke-width: 0.5"/>
      </defs>
      <g>
       <use xlink:href="#ma01c1f69d0" x="32.685756" y="206.10001" style="stroke: #000000; stroke-width: 0.5"/>
      </g>
     </g>
     <g id="line2d_40">
      <defs>
       <path id="mf388cf0399" d="M 0 0 
L -3 0 
" style="stroke: #000000; stroke-width: 0.5"/>
      </defs>
      <g>
       <use xlink:href="#mf388cf0399" x="434.445756" y="206.10001" style="stroke: #000000; stroke-width: 0.5"/>
      </g>
     </g>
     <g id="text_7">
      <!-- $\mathdefault{0.0}$ -->
      <g transform="translate(16.455677 209.559259) scale(0.1 -0.1)">
       <use xlink:href="#CMR17-30" transform="scale(0.996264)"/>
       <use xlink:href="#CMMI12-3a" transform="translate(45.690477 0) scale(0.996264)"/>
       <use xlink:href="#CMR17-30" transform="translate(72.787654 0) scale(0.996264)"/>
      </g>
     </g>
    </g>
    <g id="ytick_2">
     <g id="line2d_41">
      <g>
       <use xlink:href="#ma01c1f69d0" x="32.685756" y="170.346152" style="stroke: #000000; stroke-width: 0.5"/>
      </g>
     </g>
     <g id="line2d_42">
      <g>
       <use xlink:href="#mf388cf0399" x="434.445756" y="170.346152" style="stroke: #000000; stroke-width: 0.5"/>
      </g>
     </g>
     <g id="text_8">
      <!-- $\mathdefault{0.2}$ -->
      <g transform="translate(16.455677 173.805401) scale(0.1 -0.1)">
       <use xlink:href="#CMR17-30" transform="scale(0.996264)"/>
       <use xlink:href="#CMMI12-3a" transform="translate(45.690477 0) scale(0.996264)"/>
       <use xlink:href="#CMR17-32" transform="translate(72.787654 0) scale(0.996264)"/>
      </g>
     </g>
    </g>
    <g id="ytick_3">
     <g id="line2d_43">
      <g>
       <use xlink:href="#ma01c1f69d0" x="32.685756" y="134.592295" style="stroke: #000000; stroke-width: 0.5"/>
      </g>
     </g>
     <g id="line2d_44">
      <g>
       <use xlink:href="#mf388cf0399" x="434.445756" y="134.592295" style="stroke: #000000; stroke-width: 0.5"/>
      </g>
     </g>
     <g id="text_9">
      <!-- $\mathdefault{0.4}$ -->
      <g transform="translate(16.455677 138.051544) scale(0.1 -0.1)">
       <use xlink:href="#CMR17-30" transform="scale(0.996264)"/>
       <use xlink:href="#CMMI12-3a" transform="translate(45.690477 0) scale(0.996264)"/>
       <use xlink:href="#CMR17-34" transform="translate(72.787654 0) scale(0.996264)"/>
      </g>
     </g>
    </g>
    <g id="ytick_4">
     <g id="line2d_45">
      <g>
       <use xlink:href="#ma01c1f69d0" x="32.685756" y="98.838437" style="stroke: #000000; stroke-width: 0.5"/>
      </g>
     </g>
     <g id="line2d_46">
      <g>
       <use xlink:href="#mf388cf0399" x="434.445756" y="98.838437" style="stroke: #000000; stroke-width: 0.5"/>
      </g>
     </g>
     <g id="text_10">
      <!-- $\mathdefault{0.6}$ -->
      <g transform="translate(16.455677 102.297686) scale(0.1 -0.1)">
       <use xlink:href="#CMR17-30" transform="scale(0.996264)"/>
       <use xlink:href="#CMMI12-3a" transform="translate(45.690477 0) scale(0.996264)"/>
       <use xlink:href="#CMR17-36" transform="translate(72.787654 0) scale(0.996264)"/>
      </g>
     </g>
    </g>
    <g id="ytick_5">
     <g id="line2d_47">
      <g>
       <use xlink:href="#ma01c1f69d0" x="32.685756" y="63.08458" style="stroke: #000000; stroke-width: 0.5"/>
      </g>
     </g>
     <g id="line2d_48">
      <g>
       <use xlink:href="#mf388cf0399" x="434.445756" y="63.08458" style="stroke: #000000; stroke-width: 0.5"/>
      </g>
     </g>
     <g id="text_11">
      <!-- $\mathdefault{0.8}$ -->
      <g transform="translate(16.455677 66.543829) scale(0.1 -0.1)">
       <use xlink:href="#CMR17-30" transform="scale(0.996264)"/>
       <use xlink:href="#CMMI12-3a" transform="translate(45.690477 0) scale(0.996264)"/>
       <use xlink:href="#CMR17-38" transform="translate(72.787654 0) scale(0.996264)"/>
      </g>
     </g>
    </g>
    <g id="ytick_6">
     <g id="line2d_49">
      <g>
       <use xlink:href="#ma01c1f69d0" x="32.685756" y="27.330722" style="stroke: #000000; stroke-width: 0.5"/>
      </g>
     </g>
     <g id="line2d_50">
      <g>
       <use xlink:href="#mf388cf0399" x="434.445756" y="27.330722" style="stroke: #000000; stroke-width: 0.5"/>
      </g>
     </g>
     <g id="text_12">
      <!-- $\mathdefault{1.0}$ -->
      <g transform="translate(16.455677 30.789971) scale(0.1 -0.1)">
       <defs>
        <path id="CMR17-31" d="M 1702 4058 
C 1702 4192 1696 4192 1606 4192 
C 1357 3916 979 3827 621 3827 
C 602 3827 570 3827 563 3808 
C 557 3795 557 3782 557 3648 
C 755 3648 1088 3686 1344 3839 
L 1344 461 
C 1344 236 1331 160 781 160 
L 589 160 
L 589 0 
C 896 0 1216 0 1523 0 
C 1830 0 2150 0 2458 0 
L 2458 160 
L 2266 160 
C 1715 160 1702 230 1702 458 
L 1702 4058 
z
" transform="scale(0.015625)"/>
       </defs>
       <use xlink:href="#CMR17-31" transform="scale(0.996264)"/>
       <use xlink:href="#CMMI12-3a" transform="translate(45.690477 0) scale(0.996264)"/>
       <use xlink:href="#CMR17-30" transform="translate(72.787654 0) scale(0.996264)"/>
      </g>
     </g>
    </g>
    <g id="ytick_7">
     <g id="line2d_51">
      <defs>
       <path id="mbf922436cd" d="M 0 0 
L 1.5 0 
" style="stroke: #000000; stroke-width: 0.5"/>
      </defs>
      <g>
       <use xlink:href="#mbf922436cd" x="32.685756" y="223.976939" style="stroke: #000000; stroke-width: 0.5"/>
      </g>
     </g>
     <g id="line2d_52">
      <defs>
       <path id="m4a21542cf3" d="M 0 0 
L -1.5 0 
" style="stroke: #000000; stroke-width: 0.5"/>
      </defs>
      <g>
       <use xlink:href="#m4a21542cf3" x="434.445756" y="223.976939" style="stroke: #000000; stroke-width: 0.5"/>
      </g>
     </g>
    </g>
    <g id="ytick_8">
     <g id="line2d_53">
      <g>
       <use xlink:href="#mbf922436cd" x="32.685756" y="215.038474" style="stroke: #000000; stroke-width: 0.5"/>
      </g>
     </g>
     <g id="line2d_54">
      <g>
       <use xlink:href="#m4a21542cf3" x="434.445756" y="215.038474" style="stroke: #000000; stroke-width: 0.5"/>
      </g>
     </g>
    </g>
    <g id="ytick_9">
     <g id="line2d_55">
      <g>
       <use xlink:href="#mbf922436cd" x="32.685756" y="197.161545" style="stroke: #000000; stroke-width: 0.5"/>
      </g>
     </g>
     <g id="line2d_56">
      <g>
       <use xlink:href="#m4a21542cf3" x="434.445756" y="197.161545" style="stroke: #000000; stroke-width: 0.5"/>
      </g>
     </g>
    </g>
    <g id="ytick_10">
     <g id="line2d_57">
      <g>
       <use xlink:href="#mbf922436cd" x="32.685756" y="188.223081" style="stroke: #000000; stroke-width: 0.5"/>
      </g>
     </g>
     <g id="line2d_58">
      <g>
       <use xlink:href="#m4a21542cf3" x="434.445756" y="188.223081" style="stroke: #000000; stroke-width: 0.5"/>
      </g>
     </g>
    </g>
    <g id="ytick_11">
     <g id="line2d_59">
      <g>
       <use xlink:href="#mbf922436cd" x="32.685756" y="179.284617" style="stroke: #000000; stroke-width: 0.5"/>
      </g>
     </g>
     <g id="line2d_60">
      <g>
       <use xlink:href="#m4a21542cf3" x="434.445756" y="179.284617" style="stroke: #000000; stroke-width: 0.5"/>
      </g>
     </g>
    </g>
    <g id="ytick_12">
     <g id="line2d_61">
      <g>
       <use xlink:href="#mbf922436cd" x="32.685756" y="161.407688" style="stroke: #000000; stroke-width: 0.5"/>
      </g>
     </g>
     <g id="line2d_62">
      <g>
       <use xlink:href="#m4a21542cf3" x="434.445756" y="161.407688" style="stroke: #000000; stroke-width: 0.5"/>
      </g>
     </g>
    </g>
    <g id="ytick_13">
     <g id="line2d_63">
      <g>
       <use xlink:href="#mbf922436cd" x="32.685756" y="152.469223" style="stroke: #000000; stroke-width: 0.5"/>
      </g>
     </g>
     <g id="line2d_64">
      <g>
       <use xlink:href="#m4a21542cf3" x="434.445756" y="152.469223" style="stroke: #000000; stroke-width: 0.5"/>
      </g>
     </g>
    </g>
    <g id="ytick_14">
     <g id="line2d_65">
      <g>
       <use xlink:href="#mbf922436cd" x="32.685756" y="143.530759" style="stroke: #000000; stroke-width: 0.5"/>
      </g>
     </g>
     <g id="line2d_66">
      <g>
       <use xlink:href="#m4a21542cf3" x="434.445756" y="143.530759" style="stroke: #000000; stroke-width: 0.5"/>
      </g>
     </g>
    </g>
    <g id="ytick_15">
     <g id="line2d_67">
      <g>
       <use xlink:href="#mbf922436cd" x="32.685756" y="125.65383" style="stroke: #000000; stroke-width: 0.5"/>
      </g>
     </g>
     <g id="line2d_68">
      <g>
       <use xlink:href="#m4a21542cf3" x="434.445756" y="125.65383" style="stroke: #000000; stroke-width: 0.5"/>
      </g>
     </g>
    </g>
    <g id="ytick_16">
     <g id="line2d_69">
      <g>
       <use xlink:href="#mbf922436cd" x="32.685756" y="116.715366" style="stroke: #000000; stroke-width: 0.5"/>
      </g>
     </g>
     <g id="line2d_70">
      <g>
       <use xlink:href="#m4a21542cf3" x="434.445756" y="116.715366" style="stroke: #000000; stroke-width: 0.5"/>
      </g>
     </g>
    </g>
    <g id="ytick_17">
     <g id="line2d_71">
      <g>
       <use xlink:href="#mbf922436cd" x="32.685756" y="107.776901" style="stroke: #000000; stroke-width: 0.5"/>
      </g>
     </g>
     <g id="line2d_72">
      <g>
       <use xlink:href="#m4a21542cf3" x="434.445756" y="107.776901" style="stroke: #000000; stroke-width: 0.5"/>
      </g>
     </g>
    </g>
    <g id="ytick_18">
     <g id="line2d_73">
      <g>
       <use xlink:href="#mbf922436cd" x="32.685756" y="89.899973" style="stroke: #000000; stroke-width: 0.5"/>
      </g>
     </g>
     <g id="line2d_74">
      <g>
       <use xlink:href="#m4a21542cf3" x="434.445756" y="89.899973" style="stroke: #000000; stroke-width: 0.5"/>
      </g>
     </g>
    </g>
    <g id="ytick_19">
     <g id="line2d_75">
      <g>
       <use xlink:href="#mbf922436cd" x="32.685756" y="80.961508" style="stroke: #000000; stroke-width: 0.5"/>
      </g>
     </g>
     <g id="line2d_76">
      <g>
       <use xlink:href="#m4a21542cf3" x="434.445756" y="80.961508" style="stroke: #000000; stroke-width: 0.5"/>
      </g>
     </g>
    </g>
    <g id="ytick_20">
     <g id="line2d_77">
      <g>
       <use xlink:href="#mbf922436cd" x="32.685756" y="72.023044" style="stroke: #000000; stroke-width: 0.5"/>
      </g>
     </g>
     <g id="line2d_78">
      <g>
       <use xlink:href="#m4a21542cf3" x="434.445756" y="72.023044" style="stroke: #000000; stroke-width: 0.5"/>
      </g>
     </g>
    </g>
    <g id="ytick_21">
     <g id="line2d_79">
      <g>
       <use xlink:href="#mbf922436cd" x="32.685756" y="54.146115" style="stroke: #000000; stroke-width: 0.5"/>
      </g>
     </g>
     <g id="line2d_80">
      <g>
       <use xlink:href="#m4a21542cf3" x="434.445756" y="54.146115" style="stroke: #000000; stroke-width: 0.5"/>
      </g>
     </g>
    </g>
    <g id="ytick_22">
     <g id="line2d_81">
      <g>
       <use xlink:href="#mbf922436cd" x="32.685756" y="45.207651" style="stroke: #000000; stroke-width: 0.5"/>
      </g>
     </g>
     <g id="line2d_82">
      <g>
       <use xlink:href="#m4a21542cf3" x="434.445756" y="45.207651" style="stroke: #000000; stroke-width: 0.5"/>
      </g>
     </g>
    </g>
    <g id="ytick_23">
     <g id="line2d_83">
      <g>
       <use xlink:href="#mbf922436cd" x="32.685756" y="36.269186" style="stroke: #000000; stroke-width: 0.5"/>
      </g>
     </g>
     <g id="line2d_84">
      <g>
       <use xlink:href="#m4a21542cf3" x="434.445756" y="36.269186" style="stroke: #000000; stroke-width: 0.5"/>
      </g>
     </g>
    </g>
    <g id="ytick_24">
     <g id="line2d_85">
      <g>
       <use xlink:href="#mbf922436cd" x="32.685756" y="18.392258" style="stroke: #000000; stroke-width: 0.5"/>
      </g>
     </g>
     <g id="line2d_86">
      <g>
       <use xlink:href="#m4a21542cf3" x="434.445756" y="18.392258" style="stroke: #000000; stroke-width: 0.5"/>
      </g>
     </g>
    </g>
    <g id="text_13">
     <!-- p -->
     <g transform="translate(10.518498 124.342388) rotate(-90) scale(0.1 -0.1)">
      <defs>
       <path id="CMR17-70" d="M 1408 -1063 
C 998 -1063 973 -1037 973 -789 
L 973 402 
C 1158 134 1427 -38 1766 -38 
C 2406 -38 3053 523 3053 1388 
C 3053 2191 2496 2802 1837 2802 
C 1453 2802 1139 2592 960 2338 
L 960 2802 
L 198 2732 
L 198 2567 
C 576 2567 634 2528 634 2223 
L 634 -789 
C 634 -1031 608 -1063 198 -1063 
L 198 -1228 
C 352 -1216 634 -1216 800 -1216 
C 966 -1216 1254 -1216 1408 -1228 
L 1408 -1063 
z
M 973 2012 
C 973 2102 973 2235 1222 2471 
C 1254 2497 1472 2688 1792 2688 
C 2259 2688 2643 2108 2643 1382 
C 2643 656 2234 64 1728 64 
C 1498 64 1248 172 1056 472 
C 973 612 973 650 973 752 
L 973 2012 
z
" transform="scale(0.015625)"/>
      </defs>
      <use xlink:href="#CMR17-70" transform="scale(0.996264)"/>
     </g>
    </g>
   </g>
   <g id="line2d_87">
    <path d="M 50.947574 30.763092 
L 52.414387 31.156385 
L 53.881199 31.013369 
L 55.348012 31.156385 
L 56.814825 30.977615 
L 59.74845 30.977615 
L 61.215263 31.549677 
L 64.148888 31.656939 
L 65.615701 32.157493 
L 67.082514 31.335154 
L 68.549326 31.585431 
L 70.016139 31.263646 
L 72.949764 32.336262 
L 74.416577 32.479277 
L 75.88339 32.908324 
L 77.350203 32.40777 
L 78.817015 32.372016 
L 80.283828 32.87257 
L 83.217453 32.693801 
L 84.684266 33.623401 
L 87.617892 33.980939 
L 89.084704 34.481493 
L 90.551517 33.980939 
L 92.01833 33.659155 
L 93.485142 34.553001 
L 94.951955 34.195463 
L 97.88558 34.481493 
L 99.352393 34.123955 
L 100.819206 34.660263 
L 102.286019 34.231216 
L 103.752831 35.697125 
L 105.219644 36.233432 
L 106.686457 35.84014 
L 108.153269 36.662479 
L 109.620082 35.37534 
L 111.086895 35.84014 
L 112.553707 36.662479 
L 114.02052 36.877002 
L 115.487333 35.482601 
L 116.954146 37.306048 
L 119.887771 36.841248 
L 121.354584 37.985371 
L 122.821396 38.843464 
L 124.288209 38.128387 
L 125.755022 38.092633 
L 127.221835 39.057987 
L 128.688647 38.593187 
L 130.15546 38.485925 
L 131.622273 40.452388 
L 133.089085 39.91608 
L 134.555898 41.131711 
L 137.489523 40.595403 
L 138.956336 41.882542 
L 140.423149 41.381988 
L 143.356774 42.383096 
L 144.823587 41.525003 
L 146.2904 42.41885 
L 147.757212 42.812142 
L 149.224025 44.528327 
L 150.690838 44.385312 
L 152.157651 45.636697 
L 153.624463 44.885866 
L 155.091276 46.423282 
L 156.558089 45.600943 
L 158.024901 45.743959 
L 159.491714 46.816574 
L 160.958527 45.136143 
L 162.425339 47.817682 
L 163.892152 46.923836 
L 165.358965 48.497006 
L 166.825778 48.497006 
L 168.29259 50.070175 
L 169.759403 50.534976 
L 171.226216 50.284698 
L 172.693028 51.142791 
L 174.159841 51.857868 
L 175.626654 51.786361 
L 177.093467 52.644453 
L 178.560279 53.073499 
L 180.027092 53.216515 
L 181.493905 54.825438 
L 182.960717 56.076823 
L 184.42753 54.789685 
L 185.894343 56.756147 
L 187.361155 56.934916 
L 188.827968 58.436578 
L 191.761594 58.722609 
L 193.228406 61.189625 
L 194.695219 60.760579 
L 196.162032 61.618671 
L 197.628844 63.656641 
L 199.095657 63.620887 
L 200.56247 67.089012 
L 202.029283 65.265565 
L 203.496095 66.838735 
L 204.962908 67.625319 
L 206.429721 66.838735 
L 207.896533 70.87892 
L 209.363346 71.629751 
L 210.830159 71.558244 
L 212.296971 71.844275 
L 213.763784 75.169383 
L 215.230597 74.633076 
L 216.69741 77.743661 
L 218.164222 77.421876 
L 219.631035 76.814061 
L 221.097848 80.317939 
L 222.56466 79.316831 
L 224.031473 83.392771 
L 225.498286 84.072094 
L 226.965099 85.216217 
L 228.431911 87.039664 
L 229.898724 86.396095 
L 231.365537 91.937943 
L 232.832349 91.937943 
L 235.765975 93.940159 
L 237.232787 93.475358 
L 238.6996 96.299913 
L 240.166413 97.265267 
L 241.633226 99.625022 
L 244.566851 105.452901 
L 246.033664 106.668532 
L 247.500476 107.598132 
L 248.967289 106.239486 
L 250.434102 109.600348 
L 251.900915 114.284104 
L 253.367727 113.926565 
L 254.83454 114.105334 
L 256.301353 118.538813 
L 257.768165 117.823735 
L 259.234978 120.755552 
L 260.701791 125.65383 
L 262.168603 124.044907 
L 263.635416 127.441523 
L 265.102229 128.299616 
L 266.569042 131.875001 
L 268.035854 136.165464 
L 269.502667 134.485033 
L 270.96948 135.164356 
L 273.903105 142.493897 
L 275.369918 144.925159 
L 276.83673 147.821222 
L 278.303543 148.286022 
L 279.770356 149.608915 
L 282.703981 158.011071 
L 284.170794 155.937348 
L 285.637607 160.335072 
L 287.104419 160.084795 
L 290.038045 164.840058 
L 291.504858 169.059013 
L 292.97167 169.559567 
L 294.438483 170.274645 
L 295.905296 174.350584 
L 297.372108 175.709231 
L 298.838921 177.246647 
L 300.305734 180.142709 
L 301.772546 181.07231 
L 303.239359 181.215325 
L 304.706172 184.111387 
L 306.172985 184.254403 
L 307.639797 187.329235 
L 309.10661 188.652127 
L 310.573423 189.474466 
L 312.040235 191.834221 
L 314.973861 192.871083 
L 316.440674 194.730283 
L 317.907486 195.981668 
L 319.374299 196.55373 
L 320.841112 196.482222 
L 322.307924 198.627454 
L 323.774737 199.092254 
L 325.24155 199.914592 
L 326.708362 201.130224 
L 328.175175 201.55927 
L 329.641988 201.380501 
L 331.108801 201.809547 
L 332.575613 202.774901 
L 335.509239 203.275455 
L 336.976051 204.097794 
L 338.442864 204.741363 
L 339.909677 204.812871 
L 341.37649 204.491086 
L 344.310115 204.884379 
L 345.776928 205.420687 
L 350.177366 205.742471 
L 351.644178 205.563702 
L 353.110991 205.885487 
L 357.511429 205.885487 
L 358.978242 206.064256 
L 360.445055 205.956994 
L 363.37868 206.10001 
L 367.779118 206.028502 
L 369.245931 206.10001 
L 370.712744 206.028502 
L 373.646369 206.064256 
L 379.51362 206.10001 
L 416.183938 206.10001 
L 416.183938 206.10001 
" clip-path="url(#p119ad013c9)" style="fill: none; stroke: #440154; stroke-opacity: 0.7; stroke-linecap: square"/>
   </g>
   <g id="line2d_88">
    <path d="M 50.947574 30.769198 
L 65.615701 31.668943 
L 78.817015 32.693518 
L 86.151079 33.360814 
L 89.084704 33.741158 
L 99.352393 34.797748 
L 118.420958 37.314019 
L 122.821396 38.07843 
L 127.221835 38.994815 
L 134.555898 40.432644 
L 140.423149 41.684832 
L 156.558089 45.865087 
L 166.825778 49.010799 
L 174.159841 51.762522 
L 185.894343 57.011613 
L 188.827968 58.487862 
L 191.761594 60.076166 
L 196.162032 62.542692 
L 199.095657 64.289081 
L 204.962908 68.208406 
L 210.830159 72.311015 
L 221.097848 80.716926 
L 228.431911 87.351974 
L 232.832349 91.577322 
L 244.566851 104.256159 
L 247.500476 107.69404 
L 250.434102 111.286865 
L 256.301353 118.740846 
L 266.569042 132.675927 
L 275.369918 145.453964 
L 281.237169 154.010053 
L 285.637607 160.382257 
L 292.97167 170.490388 
L 298.838921 177.866928 
L 301.772546 181.217231 
L 306.172985 185.99235 
L 310.573423 190.029112 
L 313.507048 192.54302 
L 316.440674 194.715292 
L 319.374299 196.809353 
L 323.774737 199.307042 
L 328.175175 201.302225 
L 331.108801 202.349533 
L 334.042426 203.285736 
L 338.442864 204.397865 
L 342.843302 205.083842 
L 347.24374 205.583774 
L 350.177366 205.833355 
L 357.511429 206.101048 
L 366.312306 206.201754 
L 385.380871 206.121674 
L 410.316687 206.093117 
L 416.183938 206.182014 
L 416.183938 206.182014 
" clip-path="url(#p119ad013c9)" style="fill: none; stroke: #fde725; stroke-opacity: 0.7; stroke-linecap: square"/>
   </g>
   <g id="line2d_89">
    <path d="M 50.947574 27.330722 
L 125.755022 27.366476 
L 127.221835 27.473737 
L 128.688647 27.330722 
L 136.022711 27.616753 
L 137.489523 27.40223 
L 140.423149 27.473737 
L 141.889962 27.40223 
L 143.356774 27.509491 
L 146.2904 27.473737 
L 165.358965 27.545245 
L 166.825778 27.616753 
L 168.29259 27.473737 
L 169.759403 27.473737 
L 171.226216 27.652507 
L 172.693028 27.473737 
L 174.159841 27.759768 
L 177.093467 27.580999 
L 178.560279 27.652507 
L 180.027092 27.509491 
L 182.960717 27.724014 
L 184.42753 27.688261 
L 185.894343 27.86703 
L 187.361155 27.652507 
L 190.294781 27.938538 
L 191.761594 27.938538 
L 193.228406 28.081553 
L 194.695219 28.081553 
L 196.162032 27.902784 
L 199.095657 27.974291 
L 200.56247 28.188815 
L 202.029283 28.081553 
L 204.962908 28.439092 
L 206.429721 28.010045 
L 207.896533 28.403338 
L 213.763784 28.474845 
L 215.230597 28.903892 
L 216.69741 28.33183 
L 218.164222 28.439092 
L 221.097848 29.082661 
L 222.56466 28.760876 
L 224.031473 29.011153 
L 225.498286 29.654723 
L 226.965099 29.940754 
L 228.431911 29.368692 
L 229.898724 29.154169 
L 231.365537 29.26143 
L 232.832349 29.797738 
L 234.299162 29.475953 
L 235.765975 30.119523 
L 240.166413 30.155277 
L 241.633226 30.512815 
L 243.100038 30.298292 
L 244.566851 31.049123 
L 246.033664 31.013369 
L 247.500476 31.907216 
L 248.967289 31.120631 
L 250.434102 31.656939 
L 251.900915 32.372016 
L 253.367727 32.479277 
L 254.83454 32.336262 
L 256.301353 32.40777 
L 257.768165 33.087093 
L 259.234978 32.693801 
L 260.701791 33.373124 
L 262.168603 34.302724 
L 265.102229 34.624509 
L 266.569042 35.339586 
L 268.035854 35.232324 
L 269.502667 35.589863 
L 270.96948 37.091525 
L 272.436292 36.877002 
L 273.903105 37.913864 
L 275.369918 37.699341 
L 276.83673 38.164141 
L 278.303543 39.808818 
L 281.237169 40.666911 
L 282.703981 41.48925 
L 284.170794 41.274726 
L 285.637607 43.062419 
L 288.571232 44.564081 
L 290.038045 43.741743 
L 291.504858 47.960698 
L 292.97167 47.996452 
L 294.438483 49.46236 
L 295.905296 50.427714 
L 297.372108 52.143899 
L 298.838921 53.395284 
L 300.305734 53.752823 
L 301.772546 55.218731 
L 303.239359 55.3975 
L 304.706172 58.114793 
L 306.172985 57.90027 
L 307.639797 62.297995 
L 309.10661 64.443226 
L 310.573423 65.837627 
L 312.040235 68.519166 
L 313.507048 70.235351 
L 314.973861 71.164951 
L 316.440674 75.920214 
L 317.907486 75.41966 
L 319.374299 81.104524 
L 320.841112 81.676585 
L 322.307924 85.43074 
L 323.774737 86.467602 
L 326.708362 95.692098 
L 328.175175 101.162438 
L 329.641988 100.483115 
L 331.108801 105.488655 
L 332.575613 112.067364 
L 334.042426 112.782442 
L 335.509239 116.822627 
L 336.976051 122.292968 
L 339.909677 128.6214 
L 341.37649 133.126386 
L 344.310115 143.101713 
L 347.24374 150.431254 
L 348.710553 155.86584 
L 350.177366 160.549595 
L 351.644178 163.409904 
L 353.110991 168.737229 
L 354.577804 172.133845 
L 357.511429 179.820924 
L 358.978242 183.432064 
L 361.911867 189.259943 
L 363.37868 191.405174 
L 364.845493 194.408498 
L 366.312306 195.44536 
L 367.779118 197.125792 
L 369.245931 199.592808 
L 370.712744 200.951454 
L 372.179556 202.131332 
L 375.113182 204.06204 
L 376.579994 204.097794 
L 378.046807 204.419579 
L 379.51362 205.17041 
L 380.980433 205.563702 
L 382.447245 205.563702 
L 383.914058 205.849733 
L 385.380871 205.849733 
L 388.314496 206.028502 
L 391.248122 206.10001 
L 397.115372 206.064256 
L 416.183938 206.10001 
L 416.183938 206.10001 
" clip-path="url(#p119ad013c9)" style="fill: none; stroke: #3b528b; stroke-opacity: 0.7; stroke-linecap: square"/>
   </g>
   <g id="line2d_90">
    <path d="M 50.947574 27.332599 
L 168.29259 27.543918 
L 194.695219 27.955653 
L 210.830159 28.436682 
L 228.431911 29.373955 
L 237.232787 30.089464 
L 246.033664 31.099919 
L 256.301353 32.764677 
L 262.168603 33.98852 
L 268.035854 35.699651 
L 276.83673 38.825546 
L 282.703981 41.558653 
L 287.104419 44.124996 
L 291.504858 46.952116 
L 295.905296 50.34335 
L 298.838921 53.024647 
L 301.772546 55.964488 
L 304.706172 59.323592 
L 307.639797 62.98868 
L 310.573423 67.116582 
L 313.507048 71.592007 
L 316.440674 76.619218 
L 319.374299 82.119785 
L 322.307924 88.074635 
L 325.24155 94.562809 
L 328.175175 101.517821 
L 332.575613 112.879281 
L 338.442864 129.070013 
L 348.710553 157.541044 
L 351.644178 165.095274 
L 354.577804 172.178888 
L 357.511429 178.715585 
L 360.445055 184.517164 
L 363.37868 189.657773 
L 364.845493 192.04852 
L 367.779118 196.069442 
L 369.245931 197.916464 
L 370.712744 199.496561 
L 373.646369 202.182202 
L 375.113182 203.273685 
L 376.579994 204.176894 
L 379.51362 205.579932 
L 380.980433 205.797587 
L 383.914058 206.426263 
L 386.847683 206.721551 
L 389.781309 206.755077 
L 394.181747 206.471242 
L 404.449436 205.503154 
L 407.383061 205.470234 
L 410.316687 205.676929 
L 413.250312 206.194863 
L 416.183938 207.09566 
L 416.183938 207.09566 
" clip-path="url(#p119ad013c9)" style="fill: none; stroke: #5ec962; stroke-opacity: 0.7; stroke-linecap: square"/>
   </g>
   <g id="line2d_91">
    <path d="M 50.947574 27.330722 
L 216.69741 27.330722 
L 218.164222 27.473737 
L 219.631035 27.330722 
L 226.965099 27.40223 
L 241.633226 27.473737 
L 243.100038 27.545245 
L 244.566851 27.473737 
L 247.500476 27.545245 
L 248.967289 27.366476 
L 250.434102 27.580999 
L 254.83454 27.545245 
L 256.301353 27.580999 
L 257.768165 27.795522 
L 259.234978 27.437984 
L 262.168603 27.831276 
L 263.635416 27.795522 
L 265.102229 27.580999 
L 266.569042 27.974291 
L 268.035854 27.759768 
L 270.96948 28.081553 
L 272.436292 28.081553 
L 273.903105 27.938538 
L 275.369918 28.224568 
L 278.303543 28.546353 
L 279.770356 28.939646 
L 281.237169 27.974291 
L 282.703981 28.474845 
L 284.170794 28.582107 
L 285.637607 28.296076 
L 288.571232 29.225676 
L 291.504858 29.547461 
L 292.97167 29.118415 
L 294.438483 30.405554 
L 295.905296 29.940754 
L 297.372108 30.191031 
L 298.838921 30.048015 
L 300.305734 30.548569 
L 301.772546 30.906108 
L 303.239359 31.478169 
L 304.706172 32.40777 
L 306.172985 32.229 
L 307.639797 31.835708 
L 309.10661 32.586539 
L 310.573423 33.087093 
L 313.507048 34.874786 
L 314.973861 34.803278 
L 316.440674 36.090417 
L 317.907486 36.590971 
L 319.374299 36.76974 
L 320.841112 38.521679 
L 322.307924 39.630049 
L 323.774737 39.630049 
L 325.24155 41.346234 
L 326.708362 42.204327 
L 329.641988 44.957374 
L 331.108801 47.531651 
L 332.575613 49.319344 
L 334.042426 50.034421 
L 335.509239 52.751715 
L 336.976051 52.680207 
L 338.442864 56.756147 
L 339.909677 59.47344 
L 341.37649 61.296887 
L 342.843302 65.015288 
L 344.310115 67.017504 
L 345.776928 70.092336 
L 347.24374 75.705691 
L 348.710553 79.245323 
L 350.177366 84.858679 
L 353.110991 91.830681 
L 354.577804 96.192652 
L 356.044617 101.09093 
L 357.511429 106.597024 
L 358.978242 113.426011 
L 360.445055 116.10755 
L 361.911867 126.225892 
L 363.37868 130.301832 
L 364.845493 135.450387 
L 366.312306 144.138575 
L 367.779118 150.288238 
L 369.245931 157.009963 
L 370.712744 162.837842 
L 372.179556 169.416552 
L 373.646369 175.172923 
L 375.113182 180.035448 
L 376.579994 183.253295 
L 378.046807 187.93705 
L 380.980433 196.08893 
L 383.914058 199.950346 
L 386.847683 203.382717 
L 389.781309 204.955886 
L 391.248122 205.563702 
L 392.714934 205.63521 
L 394.181747 205.956994 
L 395.64856 205.921241 
L 397.115372 206.064256 
L 398.582185 205.992748 
L 401.51581 206.10001 
L 416.183938 206.10001 
L 416.183938 206.10001 
" clip-path="url(#p119ad013c9)" style="fill: none; stroke: #21918c; stroke-opacity: 0.7; stroke-linecap: square"/>
   </g>
   <g id="line2d_92">
    <path d="M 50.947574 27.330722 
L 238.6996 27.440192 
L 254.83454 27.581284 
L 275.369918 28.128052 
L 281.237169 28.425135 
L 291.504858 29.304478 
L 298.838921 30.280321 
L 306.172985 31.877578 
L 310.573423 33.208489 
L 313.507048 34.231577 
L 316.440674 35.568732 
L 319.374299 37.201401 
L 322.307924 39.105041 
L 325.24155 41.428202 
L 326.708362 42.772299 
L 329.641988 45.820451 
L 332.575613 49.446901 
L 335.509239 53.7625 
L 336.976051 56.215799 
L 338.442864 58.904697 
L 341.37649 65.08935 
L 344.310115 72.14585 
L 347.24374 80.186315 
L 350.177366 89.150343 
L 353.110991 98.869737 
L 357.511429 114.476824 
L 366.312306 146.604376 
L 369.245931 156.807693 
L 372.179556 166.363941 
L 375.113182 175.0713 
L 378.046807 182.899325 
L 379.51362 186.446762 
L 380.980433 188.113622 
L 383.914058 194.276998 
L 386.847683 199.601098 
L 388.314496 201.934763 
L 389.781309 204.042221 
L 391.248122 205.918009 
L 392.714934 207.556665 
L 394.181747 208.952726 
L 395.64856 210.100729 
L 397.115372 210.995211 
L 398.582185 211.630711 
L 400.048998 212.001764 
L 401.51581 212.102909 
L 402.982623 211.928683 
L 404.449436 211.473623 
L 405.916249 210.732267 
L 407.383061 209.699151 
L 408.849874 208.368813 
L 410.316687 206.735791 
L 411.783499 204.794622 
L 413.250312 202.539842 
L 414.717125 199.96599 
L 416.183938 197.067603 
L 416.183938 197.067603 
" clip-path="url(#p119ad013c9)" style="fill: none; stroke: #21918c; stroke-opacity: 0.7; stroke-linecap: square"/>
   </g>
   <g id="line2d_93">
    <path d="M 50.947574 27.330722 
L 270.96948 27.40223 
L 273.903105 27.509491 
L 275.369918 27.330722 
L 278.303543 27.580999 
L 279.770356 27.366476 
L 284.170794 27.473737 
L 290.038045 27.545245 
L 291.504858 27.473737 
L 292.97167 27.795522 
L 294.438483 27.545245 
L 295.905296 27.759768 
L 297.372108 27.616753 
L 301.772546 27.616753 
L 303.239359 27.974291 
L 304.706172 28.188815 
L 306.172985 27.938538 
L 307.639797 28.260322 
L 309.10661 28.188815 
L 310.573423 28.296076 
L 313.507048 28.868138 
L 314.973861 28.582107 
L 316.440674 29.011153 
L 317.907486 28.975399 
L 319.374299 29.404446 
L 320.841112 29.4402 
L 322.307924 30.548569 
L 323.774737 29.761984 
L 325.24155 30.083769 
L 328.175175 30.298292 
L 329.641988 31.513923 
L 331.108801 32.050231 
L 332.575613 32.40777 
L 334.042426 34.052447 
L 335.509239 34.123955 
L 336.976051 34.052447 
L 338.442864 35.053555 
L 339.909677 36.447956 
L 341.37649 38.021125 
L 342.843302 38.879218 
L 344.310115 39.27251 
L 345.776928 41.417742 
L 347.24374 42.383096 
L 348.710553 45.100389 
L 350.177366 48.497006 
L 351.644178 49.676883 
L 353.110991 52.823222 
L 354.577804 54.217623 
L 356.044617 56.720393 
L 357.511429 60.331532 
L 358.978242 66.409688 
L 360.445055 69.806305 
L 361.911867 72.166059 
L 363.37868 79.9604 
L 364.845493 83.392771 
L 369.245931 101.484223 
L 372.179556 117.501951 
L 373.646369 126.583431 
L 375.113182 132.339802 
L 376.579994 139.061527 
L 378.046807 151.897162 
L 379.51362 158.261348 
L 383.914058 181.251079 
L 385.380871 187.150465 
L 386.847683 191.977236 
L 388.314496 195.767145 
L 389.781309 197.94813 
L 391.248122 201.630778 
L 392.714934 203.632994 
L 394.181747 204.777117 
L 397.115372 205.492194 
L 398.582185 205.956994 
L 400.048998 205.813979 
L 401.51581 206.028502 
L 416.183938 206.10001 
L 416.183938 206.10001 
" clip-path="url(#p119ad013c9)" style="fill: none; stroke: #5ec962; stroke-opacity: 0.7; stroke-linecap: square"/>
   </g>
   <g id="line2d_94">
    <path d="M 50.947574 27.330722 
L 285.637607 27.429219 
L 306.172985 27.858059 
L 317.907486 28.619881 
L 323.774737 29.404805 
L 329.641988 30.776507 
L 332.575613 31.818111 
L 335.509239 33.104968 
L 336.976051 33.856571 
L 338.442864 34.803178 
L 341.37649 37.109082 
L 342.843302 38.522468 
L 344.310115 40.173377 
L 345.776928 42.058697 
L 347.24374 44.187036 
L 348.710553 46.628786 
L 350.177366 49.41423 
L 351.644178 52.543081 
L 353.110991 56.063521 
L 354.577804 59.89451 
L 357.511429 68.595232 
L 360.445055 78.605766 
L 363.37868 89.598177 
L 366.312306 101.322041 
L 379.51362 155.716863 
L 380.980433 158.771167 
L 383.914058 170.571607 
L 386.847683 181.523254 
L 389.781309 191.38351 
L 391.248122 195.828555 
L 392.714934 199.909777 
L 394.181747 203.596852 
L 395.64856 206.859456 
L 397.115372 209.667263 
L 398.582185 211.989949 
L 400.048998 213.797188 
L 401.51581 215.058656 
L 402.982623 215.744028 
L 404.449436 215.82298 
L 405.916249 215.265186 
L 407.383061 214.040321 
L 408.849874 212.118062 
L 410.316687 209.468082 
L 411.783499 206.060058 
L 413.250312 201.863663 
L 414.717125 196.848575 
L 416.183938 190.984467 
L 416.183938 190.984467 
" clip-path="url(#p119ad013c9)" style="fill: none; stroke: #3b528b; stroke-opacity: 0.7; stroke-linecap: square"/>
   </g>
   <g id="patch_3">
    <path d="M 32.685756 225.24778 
L 32.685756 17.90218 
" style="fill: none; stroke: #000000; stroke-width: 0.5; stroke-linejoin: miter; stroke-linecap: square"/>
   </g>
   <g id="patch_4">
    <path d="M 434.445756 225.24778 
L 434.445756 17.90218 
" style="fill: none; stroke: #000000; stroke-width: 0.5; stroke-linejoin: miter; stroke-linecap: square"/>
   </g>
   <g id="patch_5">
    <path d="M 32.685756 225.24778 
L 434.445756 225.24778 
" style="fill: none; stroke: #000000; stroke-width: 0.5; stroke-linejoin: miter; stroke-linecap: square"/>
   </g>
   <g id="patch_6">
    <path d="M 32.685756 17.90218 
L 434.445756 17.90218 
" style="fill: none; stroke: #000000; stroke-width: 0.5; stroke-linejoin: miter; stroke-linecap: square"/>
   </g>
   <g id="text_14">
    <!-- Coin Bias -->
    <g transform="translate(208.577773 11.90218) scale(0.12 -0.12)">
     <defs>
      <path id="CMR17-43" d="M 3974 4289 
C 3974 4403 3968 4410 3930 4410 
C 3904 4410 3898 4403 3853 4327 
L 3571 3792 
C 3258 4187 2874 4416 2381 4416 
C 1286 4416 294 3456 294 2148 
C 294 826 1286 -128 2387 -128 
C 3366 -128 3974 730 3974 1461 
C 3974 1524 3974 1550 3917 1550 
C 3866 1550 3866 1531 3859 1474 
C 3808 585 3168 38 2477 38 
C 1824 38 781 495 781 2147 
C 781 3805 1843 4250 2464 4250 
C 3187 4250 3712 3628 3834 2745 
C 3846 2668 3846 2655 3904 2655 
C 3974 2655 3974 2668 3974 2783 
L 3974 4289 
z
" transform="scale(0.015625)"/>
      <path id="CMR17-69" d="M 992 3909 
C 992 4049 877 4170 730 4170 
C 589 4170 467 4056 467 3909 
C 467 3769 582 3648 730 3648 
C 870 3648 992 3763 992 3909 
z
M 243 2706 
L 243 2541 
C 602 2541 653 2502 653 2197 
L 653 427 
C 653 184 627 153 218 153 
L 218 -13 
C 371 0 646 0 806 0 
C 960 0 1222 0 1370 -13 
L 1370 153 
C 992 153 979 191 979 420 
L 979 2776 
L 243 2706 
z
" transform="scale(0.015625)"/>
      <path id="CMR17-6e" d="M 2656 1933 
C 2656 2259 2592 2790 1837 2790 
C 1331 2790 1069 2400 973 2144 
L 966 2144 
L 966 2790 
L 211 2720 
L 211 2554 
C 589 2554 646 2515 646 2208 
L 646 428 
C 646 184 621 153 211 153 
L 211 -13 
C 365 0 646 0 813 0 
C 979 0 1267 0 1421 -13 
L 1421 153 
C 1011 153 986 178 986 428 
L 986 1658 
C 986 2247 1344 2688 1792 2688 
C 2266 2688 2317 2266 2317 1958 
L 2317 428 
C 2317 184 2291 153 1882 153 
L 1882 -13 
C 2035 0 2317 0 2483 0 
C 2650 0 2938 0 3091 -13 
L 3091 153 
C 2682 153 2656 178 2656 428 
L 2656 1933 
z
" transform="scale(0.015625)"/>
      <path id="CMR17-42" d="M 333 4352 
L 333 4186 
C 774 4186 845 4186 845 3900 
L 845 452 
C 845 166 774 166 333 166 
L 333 0 
L 2534 0 
C 3354 0 3885 583 3885 1164 
C 3885 1741 3360 2233 2675 2233 
C 3290 2356 3718 2771 3718 3264 
C 3718 3802 3194 4352 2368 4352 
L 333 4352 
z
M 1248 2304 
L 1248 3937 
C 1248 4155 1261 4186 1517 4186 
L 2336 4186 
C 2970 4186 3251 3674 3251 3277 
C 3251 2791 2861 2304 2170 2304 
L 1248 2304 
z
M 1517 166 
C 1261 166 1248 197 1248 413 
L 1248 2202 
L 2432 2202 
C 3091 2202 3411 1625 3411 1162 
C 3411 699 3046 166 2349 166 
L 1517 166 
z
" transform="scale(0.015625)"/>
      <path id="CMR17-73" d="M 1978 2697 
C 1978 2813 1971 2819 1933 2819 
C 1907 2819 1901 2813 1824 2717 
C 1805 2691 1747 2626 1728 2601 
C 1523 2819 1235 2819 1126 2819 
C 416 2819 160 2447 160 2076 
C 160 1498 813 1365 998 1325 
C 1402 1243 1542 1217 1677 1101 
C 1760 1025 1901 884 1901 654 
C 1901 384 1747 38 1158 38 
C 602 38 403 460 288 1021 
C 269 1110 269 1117 218 1117 
C 166 1117 160 1110 160 983 
L 160 63 
C 160 -51 166 -58 205 -58 
C 237 -58 243 -51 275 0 
C 314 57 410 211 448 276 
C 576 103 800 -64 1158 -64 
C 1792 -64 2131 283 2131 784 
C 2131 1112 1958 1285 1875 1362 
C 1683 1561 1459 1606 1190 1657 
C 838 1735 390 1825 390 2217 
C 390 2383 480 2737 1126 2737 
C 1811 2737 1850 2094 1862 1888 
C 1869 1856 1901 1849 1920 1849 
C 1978 1849 1978 1869 1978 1978 
L 1978 2697 
z
" transform="scale(0.015625)"/>
     </defs>
     <use xlink:href="#CMR17-43" transform="scale(0.996264)"/>
     <use xlink:href="#CMR17-6f" transform="translate(66.509881 0) scale(0.996264)"/>
     <use xlink:href="#CMR17-69" transform="translate(112.200358 0) scale(0.996264)"/>
     <use xlink:href="#CMR17-6e" transform="translate(137.071416 0) scale(0.996264)"/>
     <use xlink:href="#CMR17-42" transform="translate(218.042752 0) scale(0.996264)"/>
     <use xlink:href="#CMR17-69" transform="translate(283.231507 0) scale(0.996264)"/>
     <use xlink:href="#CMR17-61" transform="translate(308.102565 0) scale(0.996264)"/>
     <use xlink:href="#CMR17-73" transform="translate(353.793042 0) scale(0.996264)"/>
    </g>
   </g>
  </g>
 </g>
 <defs>
  <clipPath id="p119ad013c9">
   <rect x="32.685756" y="17.90218" width="401.76" height="207.3456"/>
  </clipPath>
 </defs>
</svg>
