<?xml version="1.0" encoding="utf-8" standalone="no"?>
<!DOCTYPE svg PUBLIC "-//W3C//DTD SVG 1.1//EN"
  "http://www.w3.org/Graphics/SVG/1.1/DTD/svg11.dtd">
<svg xmlns:xlink="http://www.w3.org/1999/xlink" width="235.794777pt" height="193.073297pt" viewBox="0 0 235.794777 193.073297" xmlns="http://www.w3.org/2000/svg" version="1.1">
 <metadata>
  <rdf:RDF xmlns:dc="http://purl.org/dc/elements/1.1/" xmlns:cc="http://creativecommons.org/ns#" xmlns:rdf="http://www.w3.org/1999/02/22-rdf-syntax-ns#">
   <cc:Work>
    <dc:type rdf:resource="http://purl.org/dc/dcmitype/StillImage"/>
    <dc:date>2024-01-16T00:55:12.918180</dc:date>
    <dc:format>image/svg+xml</dc:format>
    <dc:creator>
     <cc:Agent>
      <dc:title>Matplotlib v3.7.2, https://matplotlib.org/</dc:title>
     </cc:Agent>
    </dc:creator>
   </cc:Work>
  </rdf:RDF>
 </metadata>
 <defs>
  <style type="text/css">*{stroke-linejoin: round; stroke-linecap: butt}</style>
 </defs>
 <g id="figure_1">
  <g id="patch_1">
   <path d="M 0 193.073297 
L 235.794777 193.073297 
L 235.794777 0 
L 0 0 
z
" style="fill: #ffffff"/>
  </g>
  <g id="axes_1">
   <g id="patch_2">
    <path d="M 32.685756 163.15498 
L 227.985756 163.15498 
L 227.985756 17.90218 
L 32.685756 17.90218 
z
" style="fill: #ffffff"/>
   </g>
   <g id="PathCollection_1">
    <defs>
     <path id="m770fcc3eeb" d="M 0 -1.936492 
L -1.936492 1.936492 
L 1.936492 1.936492 
z
" style="stroke: #000000"/>
    </defs>
    <g clip-path="url(#pe9d40722d1)">
     <use xlink:href="#m770fcc3eeb" x="219.093268" y="18.681263" style="stroke: #000000"/>
     <use xlink:href="#m770fcc3eeb" x="212.752903" y="18.958564" style="stroke: #000000"/>
     <use xlink:href="#m770fcc3eeb" x="206.412537" y="19.407527" style="stroke: #000000"/>
     <use xlink:href="#m770fcc3eeb" x="200.072171" y="19.671623" style="stroke: #000000"/>
     <use xlink:href="#m770fcc3eeb" x="193.731806" y="20.780826" style="stroke: #000000"/>
     <use xlink:href="#m770fcc3eeb" x="187.39144" y="21.097741" style="stroke: #000000"/>
     <use xlink:href="#m770fcc3eeb" x="181.051074" y="22.537065" style="stroke: #000000"/>
     <use xlink:href="#m770fcc3eeb" x="174.710709" y="24.227279" style="stroke: #000000"/>
     <use xlink:href="#m770fcc3eeb" x="168.370343" y="26.115565" style="stroke: #000000"/>
     <use xlink:href="#m770fcc3eeb" x="162.029977" y="29.231898" style="stroke: #000000"/>
     <use xlink:href="#m770fcc3eeb" x="155.689612" y="33.41782" style="stroke: #000000"/>
     <use xlink:href="#m770fcc3eeb" x="149.349246" y="39.35998" style="stroke: #000000"/>
     <use xlink:href="#m770fcc3eeb" x="143.00888" y="46.860306" style="stroke: #000000"/>
     <use xlink:href="#m770fcc3eeb" x="136.668515" y="56.750701" style="stroke: #000000"/>
     <use xlink:href="#m770fcc3eeb" x="130.328149" y="67.261722" style="stroke: #000000"/>
     <use xlink:href="#m770fcc3eeb" x="123.987783" y="82.183146" style="stroke: #000000"/>
     <use xlink:href="#m770fcc3eeb" x="117.647418" y="99.785145" style="stroke: #000000"/>
     <use xlink:href="#m770fcc3eeb" x="111.307052" y="117.638034" style="stroke: #000000"/>
     <use xlink:href="#m770fcc3eeb" x="104.966686" y="134.289287" style="stroke: #000000"/>
     <use xlink:href="#m770fcc3eeb" x="98.62632" y="147.414858" style="stroke: #000000"/>
     <use xlink:href="#m770fcc3eeb" x="92.285955" y="156.262074" style="stroke: #000000"/>
     <use xlink:href="#m770fcc3eeb" x="85.945589" y="160.778116" style="stroke: #000000"/>
     <use xlink:href="#m770fcc3eeb" x="79.605223" y="162.626788" style="stroke: #000000"/>
     <use xlink:href="#m770fcc3eeb" x="73.264858" y="163.12857" style="stroke: #000000"/>
     <use xlink:href="#m770fcc3eeb" x="66.924492" y="163.15498" style="stroke: #000000"/>
     <use xlink:href="#m770fcc3eeb" x="60.584126" y="163.15498" style="stroke: #000000"/>
     <use xlink:href="#m770fcc3eeb" x="54.243761" y="163.15498" style="stroke: #000000"/>
     <use xlink:href="#m770fcc3eeb" x="47.903395" y="163.15498" style="stroke: #000000"/>
     <use xlink:href="#m770fcc3eeb" x="41.563029" y="163.15498" style="stroke: #000000"/>
    </g>
   </g>
   <g id="PathCollection_2">
    <defs>
     <path id="m6be215345b" d="M 0 -1.936492 
L -1.936492 1.936492 
L 1.936492 1.936492 
z
" style="stroke: #ff0000"/>
    </defs>
    <g clip-path="url(#pe9d40722d1)">
     <use xlink:href="#m6be215345b" x="219.093268" y="18.734082" style="fill: #ff0000; stroke: #ff0000"/>
     <use xlink:href="#m6be215345b" x="212.752903" y="19.037793" style="fill: #ff0000; stroke: #ff0000"/>
     <use xlink:href="#m6be215345b" x="206.412537" y="19.473551" style="fill: #ff0000; stroke: #ff0000"/>
     <use xlink:href="#m6be215345b" x="200.072171" y="20.028153" style="fill: #ff0000; stroke: #ff0000"/>
     <use xlink:href="#m6be215345b" x="193.731806" y="21.005308" style="fill: #ff0000; stroke: #ff0000"/>
     <use xlink:href="#m6be215345b" x="187.39144" y="21.718367" style="fill: #ff0000; stroke: #ff0000"/>
     <use xlink:href="#m6be215345b" x="181.051074" y="22.867185" style="fill: #ff0000; stroke: #ff0000"/>
     <use xlink:href="#m6be215345b" x="174.710709" y="24.636628" style="fill: #ff0000; stroke: #ff0000"/>
     <use xlink:href="#m6be215345b" x="168.370343" y="27.898213" style="fill: #ff0000; stroke: #ff0000"/>
     <use xlink:href="#m6be215345b" x="162.029977" y="30.552378" style="fill: #ff0000; stroke: #ff0000"/>
     <use xlink:href="#m6be215345b" x="155.689612" y="35.002396" style="fill: #ff0000; stroke: #ff0000"/>
     <use xlink:href="#m6be215345b" x="149.349246" y="41.036989" style="fill: #ff0000; stroke: #ff0000"/>
     <use xlink:href="#m6be215345b" x="143.00888" y="48.563725" style="fill: #ff0000; stroke: #ff0000"/>
     <use xlink:href="#m6be215345b" x="136.668515" y="57.952338" style="fill: #ff0000; stroke: #ff0000"/>
     <use xlink:href="#m6be215345b" x="130.328149" y="69.585767" style="fill: #ff0000; stroke: #ff0000"/>
     <use xlink:href="#m6be215345b" x="123.987783" y="85.893695" style="fill: #ff0000; stroke: #ff0000"/>
     <use xlink:href="#m6be215345b" x="117.647418" y="102.967501" style="fill: #ff0000; stroke: #ff0000"/>
     <use xlink:href="#m6be215345b" x="111.307052" y="119.724393" style="fill: #ff0000; stroke: #ff0000"/>
     <use xlink:href="#m6be215345b" x="104.966686" y="137.009476" style="fill: #ff0000; stroke: #ff0000"/>
     <use xlink:href="#m6be215345b" x="98.62632" y="148.484447" style="fill: #ff0000; stroke: #ff0000"/>
     <use xlink:href="#m6be215345b" x="92.285955" y="157.18641" style="fill: #ff0000; stroke: #ff0000"/>
     <use xlink:href="#m6be215345b" x="85.945589" y="161.398741" style="fill: #ff0000; stroke: #ff0000"/>
     <use xlink:href="#m6be215345b" x="79.605223" y="162.79845" style="fill: #ff0000; stroke: #ff0000"/>
     <use xlink:href="#m6be215345b" x="73.264858" y="163.102161" style="fill: #ff0000; stroke: #ff0000"/>
     <use xlink:href="#m6be215345b" x="66.924492" y="163.15498" style="fill: #ff0000; stroke: #ff0000"/>
     <use xlink:href="#m6be215345b" x="60.584126" y="163.15498" style="fill: #ff0000; stroke: #ff0000"/>
     <use xlink:href="#m6be215345b" x="54.243761" y="163.15498" style="fill: #ff0000; stroke: #ff0000"/>
     <use xlink:href="#m6be215345b" x="47.903395" y="163.15498" style="fill: #ff0000; stroke: #ff0000"/>
     <use xlink:href="#m6be215345b" x="41.563029" y="163.15498" style="fill: #ff0000; stroke: #ff0000"/>
    </g>
   </g>
   <g id="PathCollection_3">
    <defs>
     <path id="m998766fa06" d="M 0 -1.936492 
L -1.936492 1.936492 
L 1.936492 1.936492 
z
" style="stroke: #0000ff"/>
    </defs>
    <g clip-path="url(#pe9d40722d1)">
     <use xlink:href="#m998766fa06" x="219.093268" y="18.773697" style="fill: #0000ff; stroke: #0000ff"/>
     <use xlink:href="#m998766fa06" x="212.752903" y="18.852925" style="fill: #0000ff; stroke: #0000ff"/>
     <use xlink:href="#m998766fa06" x="206.412537" y="19.328298" style="fill: #0000ff; stroke: #0000ff"/>
     <use xlink:href="#m998766fa06" x="200.072171" y="19.367913" style="fill: #0000ff; stroke: #0000ff"/>
     <use xlink:href="#m998766fa06" x="193.731806" y="20.292249" style="fill: #0000ff; stroke: #0000ff"/>
     <use xlink:href="#m998766fa06" x="187.39144" y="21.058127" style="fill: #0000ff; stroke: #0000ff"/>
     <use xlink:href="#m998766fa06" x="181.051074" y="22.391812" style="fill: #0000ff; stroke: #0000ff"/>
     <use xlink:href="#m998766fa06" x="174.710709" y="24.042412" style="fill: #0000ff; stroke: #0000ff"/>
     <use xlink:href="#m998766fa06" x="168.370343" y="26.181589" style="fill: #0000ff; stroke: #0000ff"/>
     <use xlink:href="#m998766fa06" x="162.029977" y="29.390356" style="fill: #0000ff; stroke: #0000ff"/>
     <use xlink:href="#m998766fa06" x="155.689612" y="32.506689" style="fill: #0000ff; stroke: #0000ff"/>
     <use xlink:href="#m998766fa06" x="149.349246" y="37.537717" style="fill: #0000ff; stroke: #0000ff"/>
     <use xlink:href="#m998766fa06" x="143.00888" y="45.024839" style="fill: #0000ff; stroke: #0000ff"/>
     <use xlink:href="#m998766fa06" x="136.668515" y="55.166125" style="fill: #0000ff; stroke: #0000ff"/>
     <use xlink:href="#m998766fa06" x="130.328149" y="64.132185" style="fill: #0000ff; stroke: #0000ff"/>
     <use xlink:href="#m998766fa06" x="123.987783" y="79.951535" style="fill: #0000ff; stroke: #0000ff"/>
     <use xlink:href="#m998766fa06" x="117.647418" y="96.299077" style="fill: #0000ff; stroke: #0000ff"/>
     <use xlink:href="#m998766fa06" x="111.307052" y="114.336834" style="fill: #0000ff; stroke: #0000ff"/>
     <use xlink:href="#m998766fa06" x="104.966686" y="132.018061" style="fill: #0000ff; stroke: #0000ff"/>
     <use xlink:href="#m998766fa06" x="98.62632" y="145.222861" style="fill: #0000ff; stroke: #0000ff"/>
     <use xlink:href="#m998766fa06" x="92.285955" y="155.654653" style="fill: #0000ff; stroke: #0000ff"/>
     <use xlink:href="#m998766fa06" x="85.945589" y="160.302743" style="fill: #0000ff; stroke: #0000ff"/>
     <use xlink:href="#m998766fa06" x="79.605223" y="162.600378" style="fill: #0000ff; stroke: #0000ff"/>
     <use xlink:href="#m998766fa06" x="73.264858" y="163.036137" style="fill: #0000ff; stroke: #0000ff"/>
     <use xlink:href="#m998766fa06" x="66.924492" y="163.115365" style="fill: #0000ff; stroke: #0000ff"/>
     <use xlink:href="#m998766fa06" x="60.584126" y="163.15498" style="fill: #0000ff; stroke: #0000ff"/>
     <use xlink:href="#m998766fa06" x="54.243761" y="163.15498" style="fill: #0000ff; stroke: #0000ff"/>
     <use xlink:href="#m998766fa06" x="47.903395" y="163.15498" style="fill: #0000ff; stroke: #0000ff"/>
     <use xlink:href="#m998766fa06" x="41.563029" y="163.15498" style="fill: #0000ff; stroke: #0000ff"/>
    </g>
   </g>
   <g id="PathCollection_4">
    <defs>
     <path id="m6007350e5c" d="M -1.732051 1.732051 
L 1.732051 1.732051 
L 1.732051 -1.732051 
L -1.732051 -1.732051 
z
" style="stroke: #bf00bf; stroke-opacity: 0.2"/>
    </defs>
    <g clip-path="url(#pe9d40722d1)">
     <use xlink:href="#m6007350e5c" x="54.244782" y="163.15498" style="fill: #bf00bf; fill-opacity: 0.2; stroke: #bf00bf; stroke-opacity: 0.2"/>
     <use xlink:href="#m6007350e5c" x="60.58519" y="163.096879" style="fill: #bf00bf; fill-opacity: 0.2; stroke: #bf00bf; stroke-opacity: 0.2"/>
     <use xlink:href="#m6007350e5c" x="66.925599" y="162.980676" style="fill: #bf00bf; fill-opacity: 0.2; stroke: #bf00bf; stroke-opacity: 0.2"/>
     <use xlink:href="#m6007350e5c" x="73.266007" y="162.472292" style="fill: #bf00bf; fill-opacity: 0.2; stroke: #bf00bf; stroke-opacity: 0.2"/>
     <use xlink:href="#m6007350e5c" x="79.606415" y="161.920331" style="fill: #bf00bf; fill-opacity: 0.2; stroke: #bf00bf; stroke-opacity: 0.2"/>
     <use xlink:href="#m6007350e5c" x="85.946823" y="160.104671" style="fill: #bf00bf; fill-opacity: 0.2; stroke: #bf00bf; stroke-opacity: 0.2"/>
     <use xlink:href="#m6007350e5c" x="92.287232" y="155.340379" style="fill: #bf00bf; fill-opacity: 0.2; stroke: #bf00bf; stroke-opacity: 0.2"/>
     <use xlink:href="#m6007350e5c" x="98.62764" y="149.733621" style="fill: #bf00bf; fill-opacity: 0.2; stroke: #bf00bf; stroke-opacity: 0.2"/>
     <use xlink:href="#m6007350e5c" x="104.968048" y="139.05754" style="fill: #bf00bf; fill-opacity: 0.2; stroke: #bf00bf; stroke-opacity: 0.2"/>
     <use xlink:href="#m6007350e5c" x="111.308456" y="124.909918" style="fill: #bf00bf; fill-opacity: 0.2; stroke: #bf00bf; stroke-opacity: 0.2"/>
     <use xlink:href="#m6007350e5c" x="117.648865" y="110.239385" style="fill: #bf00bf; fill-opacity: 0.2; stroke: #bf00bf; stroke-opacity: 0.2"/>
     <use xlink:href="#m6007350e5c" x="123.989273" y="90.833611" style="fill: #bf00bf; fill-opacity: 0.2; stroke: #bf00bf; stroke-opacity: 0.2"/>
     <use xlink:href="#m6007350e5c" x="130.329681" y="74.870328" style="fill: #bf00bf; fill-opacity: 0.2; stroke: #bf00bf; stroke-opacity: 0.2"/>
     <use xlink:href="#m6007350e5c" x="136.67009" y="57.962902" style="fill: #bf00bf; fill-opacity: 0.2; stroke: #bf00bf; stroke-opacity: 0.2"/>
     <use xlink:href="#m6007350e5c" x="143.010498" y="47.068942" style="fill: #bf00bf; fill-opacity: 0.2; stroke: #bf00bf; stroke-opacity: 0.2"/>
     <use xlink:href="#m6007350e5c" x="149.350906" y="37.119125" style="fill: #bf00bf; fill-opacity: 0.2; stroke: #bf00bf; stroke-opacity: 0.2"/>
     <use xlink:href="#m6007350e5c" x="155.691314" y="30.553699" style="fill: #bf00bf; fill-opacity: 0.2; stroke: #bf00bf; stroke-opacity: 0.2"/>
     <use xlink:href="#m6007350e5c" x="162.031723" y="26.530196" style="fill: #bf00bf; fill-opacity: 0.2; stroke: #bf00bf; stroke-opacity: 0.2"/>
     <use xlink:href="#m6007350e5c" x="168.372131" y="24.060899" style="fill: #bf00bf; fill-opacity: 0.2; stroke: #bf00bf; stroke-opacity: 0.2"/>
     <use xlink:href="#m6007350e5c" x="174.712539" y="22.114511" style="fill: #bf00bf; fill-opacity: 0.2; stroke: #bf00bf; stroke-opacity: 0.2"/>
     <use xlink:href="#m6007350e5c" x="181.052947" y="20.371477" style="fill: #bf00bf; fill-opacity: 0.2; stroke: #bf00bf; stroke-opacity: 0.2"/>
     <use xlink:href="#m6007350e5c" x="187.393356" y="20.168123" style="fill: #bf00bf; fill-opacity: 0.2; stroke: #bf00bf; stroke-opacity: 0.2"/>
     <use xlink:href="#m6007350e5c" x="193.733764" y="19.383758" style="fill: #bf00bf; fill-opacity: 0.2; stroke: #bf00bf; stroke-opacity: 0.2"/>
     <use xlink:href="#m6007350e5c" x="200.074172" y="19.049677" style="fill: #bf00bf; fill-opacity: 0.2; stroke: #bf00bf; stroke-opacity: 0.2"/>
     <use xlink:href="#m6007350e5c" x="206.41458" y="18.42509" style="fill: #bf00bf; fill-opacity: 0.2; stroke: #bf00bf; stroke-opacity: 0.2"/>
     <use xlink:href="#m6007350e5c" x="212.754989" y="18.381514" style="fill: #bf00bf; fill-opacity: 0.2; stroke: #bf00bf; stroke-opacity: 0.2"/>
     <use xlink:href="#m6007350e5c" x="219.095397" y="18.294362" style="fill: #bf00bf; fill-opacity: 0.2; stroke: #bf00bf; stroke-opacity: 0.2"/>
    </g>
   </g>
   <g id="PathCollection_5">
    <defs>
     <path id="m86c2ee7014" d="M -1.732051 1.732051 
L 1.732051 1.732051 
L 1.732051 -1.732051 
L -1.732051 -1.732051 
z
" style="stroke: #000000; stroke-opacity: 0.2"/>
    </defs>
    <g clip-path="url(#pe9d40722d1)">
     <use xlink:href="#m86c2ee7014" x="41.563028" y="163.15498" style="fill-opacity: 0.2; stroke: #000000; stroke-opacity: 0.2"/>
     <use xlink:href="#m86c2ee7014" x="47.903394" y="163.125929" style="fill-opacity: 0.2; stroke: #000000; stroke-opacity: 0.2"/>
     <use xlink:href="#m86c2ee7014" x="54.24376" y="163.096879" style="fill-opacity: 0.2; stroke: #000000; stroke-opacity: 0.2"/>
     <use xlink:href="#m86c2ee7014" x="60.584125" y="163.096879" style="fill-opacity: 0.2; stroke: #000000; stroke-opacity: 0.2"/>
     <use xlink:href="#m86c2ee7014" x="66.924491" y="162.719221" style="fill-opacity: 0.2; stroke: #000000; stroke-opacity: 0.2"/>
     <use xlink:href="#m86c2ee7014" x="73.264857" y="162.13821" style="fill-opacity: 0.2; stroke: #000000; stroke-opacity: 0.2"/>
     <use xlink:href="#m86c2ee7014" x="79.605222" y="161.484573" style="fill-opacity: 0.2; stroke: #000000; stroke-opacity: 0.2"/>
     <use xlink:href="#m86c2ee7014" x="85.945588" y="159.160528" style="fill-opacity: 0.2; stroke: #000000; stroke-opacity: 0.2"/>
     <use xlink:href="#m86c2ee7014" x="92.285954" y="154.062155" style="fill-opacity: 0.2; stroke: #000000; stroke-opacity: 0.2"/>
     <use xlink:href="#m86c2ee7014" x="98.626319" y="146.973818" style="fill-opacity: 0.2; stroke: #000000; stroke-opacity: 0.2"/>
     <use xlink:href="#m86c2ee7014" x="104.966685" y="136.254161" style="fill-opacity: 0.2; stroke: #000000; stroke-opacity: 0.2"/>
     <use xlink:href="#m86c2ee7014" x="111.307051" y="121.627204" style="fill-opacity: 0.2; stroke: #000000; stroke-opacity: 0.2"/>
     <use xlink:href="#m86c2ee7014" x="117.647416" y="104.313071" style="fill-opacity: 0.2; stroke: #000000; stroke-opacity: 0.2"/>
     <use xlink:href="#m86c2ee7014" x="123.987782" y="86.37435" style="fill-opacity: 0.2; stroke: #000000; stroke-opacity: 0.2"/>
     <use xlink:href="#m86c2ee7014" x="130.328148" y="69.29262" style="fill-opacity: 0.2; stroke: #000000; stroke-opacity: 0.2"/>
     <use xlink:href="#m86c2ee7014" x="136.668513" y="55.377402" style="fill-opacity: 0.2; stroke: #000000; stroke-opacity: 0.2"/>
     <use xlink:href="#m86c2ee7014" x="143.008879" y="44.759423" style="fill-opacity: 0.2; stroke: #000000; stroke-opacity: 0.2"/>
     <use xlink:href="#m86c2ee7014" x="149.349245" y="35.245364" style="fill-opacity: 0.2; stroke: #000000; stroke-opacity: 0.2"/>
     <use xlink:href="#m86c2ee7014" x="155.68961" y="29.638606" style="fill-opacity: 0.2; stroke: #000000; stroke-opacity: 0.2"/>
     <use xlink:href="#m86c2ee7014" x="162.029976" y="26.094438" style="fill-opacity: 0.2; stroke: #000000; stroke-opacity: 0.2"/>
     <use xlink:href="#m86c2ee7014" x="168.370342" y="22.608371" style="fill-opacity: 0.2; stroke: #000000; stroke-opacity: 0.2"/>
     <use xlink:href="#m86c2ee7014" x="174.710707" y="21.373722" style="fill-opacity: 0.2; stroke: #000000; stroke-opacity: 0.2"/>
     <use xlink:href="#m86c2ee7014" x="181.051073" y="20.502205" style="fill-opacity: 0.2; stroke: #000000; stroke-opacity: 0.2"/>
     <use xlink:href="#m86c2ee7014" x="187.391439" y="19.848567" style="fill-opacity: 0.2; stroke: #000000; stroke-opacity: 0.2"/>
     <use xlink:href="#m86c2ee7014" x="193.731804" y="19.296607" style="fill-opacity: 0.2; stroke: #000000; stroke-opacity: 0.2"/>
     <use xlink:href="#m86c2ee7014" x="200.07217" y="18.860848" style="fill-opacity: 0.2; stroke: #000000; stroke-opacity: 0.2"/>
     <use xlink:href="#m86c2ee7014" x="206.412536" y="18.512242" style="fill-opacity: 0.2; stroke: #000000; stroke-opacity: 0.2"/>
     <use xlink:href="#m86c2ee7014" x="212.752901" y="18.45414" style="fill-opacity: 0.2; stroke: #000000; stroke-opacity: 0.2"/>
     <use xlink:href="#m86c2ee7014" x="219.093267" y="18.265312" style="fill-opacity: 0.2; stroke: #000000; stroke-opacity: 0.2"/>
    </g>
   </g>
   <g id="PathCollection_6">
    <defs>
     <path id="m688d27e436" d="M -1.732051 1.732051 
L 1.732051 1.732051 
L 1.732051 -1.732051 
L -1.732051 -1.732051 
z
" style="stroke: #00bfbf; stroke-opacity: 0.2"/>
    </defs>
    <g clip-path="url(#pe9d40722d1)">
     <use xlink:href="#m688d27e436" x="47.910393" y="163.15498" style="fill: #00bfbf; fill-opacity: 0.2; stroke: #00bfbf; stroke-opacity: 0.2"/>
     <use xlink:href="#m688d27e436" x="54.251063" y="163.096879" style="fill: #00bfbf; fill-opacity: 0.2; stroke: #00bfbf; stroke-opacity: 0.2"/>
     <use xlink:href="#m688d27e436" x="60.591733" y="162.937101" style="fill: #00bfbf; fill-opacity: 0.2; stroke: #00bfbf; stroke-opacity: 0.2"/>
     <use xlink:href="#m688d27e436" x="66.932403" y="162.762797" style="fill: #00bfbf; fill-opacity: 0.2; stroke: #00bfbf; stroke-opacity: 0.2"/>
     <use xlink:href="#m688d27e436" x="73.273073" y="161.86223" style="fill: #00bfbf; fill-opacity: 0.2; stroke: #00bfbf; stroke-opacity: 0.2"/>
     <use xlink:href="#m688d27e436" x="79.613743" y="160.743783" style="fill: #00bfbf; fill-opacity: 0.2; stroke: #00bfbf; stroke-opacity: 0.2"/>
     <use xlink:href="#m688d27e436" x="85.954413" y="158.201859" style="fill: #00bfbf; fill-opacity: 0.2; stroke: #00bfbf; stroke-opacity: 0.2"/>
     <use xlink:href="#m688d27e436" x="92.295083" y="152.319121" style="fill: #00bfbf; fill-opacity: 0.2; stroke: #00bfbf; stroke-opacity: 0.2"/>
     <use xlink:href="#m688d27e436" x="98.635753" y="143.865408" style="fill: #00bfbf; fill-opacity: 0.2; stroke: #00bfbf; stroke-opacity: 0.2"/>
     <use xlink:href="#m688d27e436" x="104.976423" y="131.853001" style="fill: #00bfbf; fill-opacity: 0.2; stroke: #00bfbf; stroke-opacity: 0.2"/>
     <use xlink:href="#m688d27e436" x="111.317093" y="115.846143" style="fill: #00bfbf; fill-opacity: 0.2; stroke: #00bfbf; stroke-opacity: 0.2"/>
     <use xlink:href="#m688d27e436" x="117.657763" y="100.449346" style="fill: #00bfbf; fill-opacity: 0.2; stroke: #00bfbf; stroke-opacity: 0.2"/>
     <use xlink:href="#m688d27e436" x="123.998433" y="82.394423" style="fill: #00bfbf; fill-opacity: 0.2; stroke: #00bfbf; stroke-opacity: 0.2"/>
     <use xlink:href="#m688d27e436" x="130.339103" y="65.559623" style="fill: #00bfbf; fill-opacity: 0.2; stroke: #00bfbf; stroke-opacity: 0.2"/>
     <use xlink:href="#m688d27e436" x="136.679773" y="52.501397" style="fill: #00bfbf; fill-opacity: 0.2; stroke: #00bfbf; stroke-opacity: 0.2"/>
     <use xlink:href="#m688d27e436" x="143.020443" y="42.101296" style="fill: #00bfbf; fill-opacity: 0.2; stroke: #00bfbf; stroke-opacity: 0.2"/>
     <use xlink:href="#m688d27e436" x="149.361113" y="33.502331" style="fill: #00bfbf; fill-opacity: 0.2; stroke: #00bfbf; stroke-opacity: 0.2"/>
     <use xlink:href="#m688d27e436" x="155.701783" y="29.04307" style="fill: #00bfbf; fill-opacity: 0.2; stroke: #00bfbf; stroke-opacity: 0.2"/>
     <use xlink:href="#m688d27e436" x="162.042453" y="24.961466" style="fill: #00bfbf; fill-opacity: 0.2; stroke: #00bfbf; stroke-opacity: 0.2"/>
     <use xlink:href="#m688d27e436" x="168.383123" y="22.753623" style="fill: #00bfbf; fill-opacity: 0.2; stroke: #00bfbf; stroke-opacity: 0.2"/>
     <use xlink:href="#m688d27e436" x="174.723793" y="21.126792" style="fill: #00bfbf; fill-opacity: 0.2; stroke: #00bfbf; stroke-opacity: 0.2"/>
     <use xlink:href="#m688d27e436" x="181.064463" y="20.182649" style="fill: #00bfbf; fill-opacity: 0.2; stroke: #00bfbf; stroke-opacity: 0.2"/>
     <use xlink:href="#m688d27e436" x="187.405133" y="19.369233" style="fill: #00bfbf; fill-opacity: 0.2; stroke: #00bfbf; stroke-opacity: 0.2"/>
     <use xlink:href="#m688d27e436" x="193.745803" y="18.991576" style="fill: #00bfbf; fill-opacity: 0.2; stroke: #00bfbf; stroke-opacity: 0.2"/>
     <use xlink:href="#m688d27e436" x="200.086473" y="18.802747" style="fill: #00bfbf; fill-opacity: 0.2; stroke: #00bfbf; stroke-opacity: 0.2"/>
     <use xlink:href="#m688d27e436" x="206.427143" y="18.570343" style="fill: #00bfbf; fill-opacity: 0.2; stroke: #00bfbf; stroke-opacity: 0.2"/>
     <use xlink:href="#m688d27e436" x="212.767813" y="18.323413" style="fill: #00bfbf; fill-opacity: 0.2; stroke: #00bfbf; stroke-opacity: 0.2"/>
     <use xlink:href="#m688d27e436" x="219.108483" y="18.163635" style="fill: #00bfbf; fill-opacity: 0.2; stroke: #00bfbf; stroke-opacity: 0.2"/>
    </g>
   </g>
   <g id="matplotlib.axis_1">
    <g id="xtick_1">
     <g id="line2d_1">
      <defs>
       <path id="m0c022ce2f3" d="M 0 0 
L 0 -3 
" style="stroke: #000000; stroke-width: 0.5"/>
      </defs>
      <g>
       <use xlink:href="#m0c022ce2f3" x="96.327836" y="163.15498" style="stroke: #000000; stroke-width: 0.5"/>
      </g>
     </g>
     <g id="line2d_2">
      <defs>
       <path id="m79002804a3" d="M 0 0 
L 0 3 
" style="stroke: #000000; stroke-width: 0.5"/>
      </defs>
      <g>
       <use xlink:href="#m79002804a3" x="96.327836" y="17.90218" style="stroke: #000000; stroke-width: 0.5"/>
      </g>
     </g>
     <g id="text_1">
      <!-- $\mathdefault{0.6}$ -->
      <g transform="translate(89.962796 173.573478) scale(0.1 -0.1)">
       <defs>
        <path id="CMR17-30" d="M 2688 2025 
C 2688 2416 2682 3080 2413 3591 
C 2176 4039 1798 4198 1466 4198 
C 1158 4198 768 4058 525 3597 
C 269 3118 243 2524 243 2025 
C 243 1661 250 1106 448 619 
C 723 -39 1216 -128 1466 -128 
C 1760 -128 2208 -7 2470 600 
C 2662 1042 2688 1559 2688 2025 
z
M 1466 -26 
C 1056 -26 813 325 723 812 
C 653 1188 653 1738 653 2096 
C 653 2588 653 2997 736 3387 
C 858 3929 1216 4096 1466 4096 
C 1728 4096 2067 3923 2189 3400 
C 2272 3036 2278 2607 2278 2096 
C 2278 1680 2278 1169 2202 792 
C 2067 95 1690 -26 1466 -26 
z
" transform="scale(0.015625)"/>
        <path id="CMMI12-3a" d="M 1178 307 
C 1178 492 1024 619 870 619 
C 685 619 557 466 557 313 
C 557 128 710 0 864 0 
C 1050 0 1178 153 1178 307 
z
" transform="scale(0.015625)"/>
        <path id="CMR17-36" d="M 678 2176 
C 678 3690 1395 4032 1811 4032 
C 1946 4032 2272 4009 2400 3776 
C 2298 3776 2106 3776 2106 3553 
C 2106 3381 2246 3323 2336 3323 
C 2394 3323 2566 3348 2566 3560 
C 2566 3954 2246 4179 1805 4179 
C 1043 4179 243 3390 243 1984 
C 243 253 966 -128 1478 -128 
C 2099 -128 2688 427 2688 1283 
C 2688 2081 2170 2662 1517 2662 
C 1126 2662 838 2407 678 1960 
L 678 2176 
z
M 1478 25 
C 691 25 691 1200 691 1436 
C 691 1896 909 2560 1504 2560 
C 1613 2560 1926 2560 2138 2120 
C 2253 1870 2253 1609 2253 1289 
C 2253 944 2253 690 2118 434 
C 1978 171 1773 25 1478 25 
z
" transform="scale(0.015625)"/>
       </defs>
       <use xlink:href="#CMR17-30" transform="scale(0.996264)"/>
       <use xlink:href="#CMMI12-3a" transform="translate(45.690477 0) scale(0.996264)"/>
       <use xlink:href="#CMR17-36" transform="translate(72.787654 0) scale(0.996264)"/>
      </g>
     </g>
    </g>
    <g id="xtick_2">
     <g id="line2d_3">
      <g>
       <use xlink:href="#m0c022ce2f3" x="161.078787" y="163.15498" style="stroke: #000000; stroke-width: 0.5"/>
      </g>
     </g>
     <g id="line2d_4">
      <g>
       <use xlink:href="#m79002804a3" x="161.078787" y="17.90218" style="stroke: #000000; stroke-width: 0.5"/>
      </g>
     </g>
     <g id="text_2">
      <!-- $\mathdefault{0.8}$ -->
      <g transform="translate(154.713747 173.573478) scale(0.1 -0.1)">
       <defs>
        <path id="CMR17-38" d="M 1741 2264 
C 2144 2467 2554 2773 2554 3263 
C 2554 3841 1990 4179 1472 4179 
C 890 4179 378 3759 378 3180 
C 378 3021 416 2747 666 2505 
C 730 2442 998 2251 1171 2130 
C 883 1983 211 1634 211 934 
C 211 279 838 -128 1459 -128 
C 2144 -128 2720 362 2720 1010 
C 2720 1590 2330 1857 2074 2029 
L 1741 2264 
z
M 902 2822 
C 851 2854 595 3051 595 3351 
C 595 3739 998 4032 1459 4032 
C 1965 4032 2336 3676 2336 3262 
C 2336 2669 1670 2331 1638 2331 
C 1632 2331 1626 2331 1574 2370 
L 902 2822 
z
M 2080 1519 
C 2176 1449 2483 1240 2483 851 
C 2483 381 2010 25 1472 25 
C 890 25 448 438 448 940 
C 448 1443 838 1862 1280 2060 
L 2080 1519 
z
" transform="scale(0.015625)"/>
       </defs>
       <use xlink:href="#CMR17-30" transform="scale(0.996264)"/>
       <use xlink:href="#CMMI12-3a" transform="translate(45.690477 0) scale(0.996264)"/>
       <use xlink:href="#CMR17-38" transform="translate(72.787654 0) scale(0.996264)"/>
      </g>
     </g>
    </g>
    <g id="xtick_3">
     <g id="line2d_5">
      <g>
       <use xlink:href="#m0c022ce2f3" x="225.829737" y="163.15498" style="stroke: #000000; stroke-width: 0.5"/>
      </g>
     </g>
     <g id="line2d_6">
      <g>
       <use xlink:href="#m79002804a3" x="225.829737" y="17.90218" style="stroke: #000000; stroke-width: 0.5"/>
      </g>
     </g>
     <g id="text_3">
      <!-- $\mathdefault{1.0}$ -->
      <g transform="translate(219.464698 173.573478) scale(0.1 -0.1)">
       <defs>
        <path id="CMR17-31" d="M 1702 4058 
C 1702 4192 1696 4192 1606 4192 
C 1357 3916 979 3827 621 3827 
C 602 3827 570 3827 563 3808 
C 557 3795 557 3782 557 3648 
C 755 3648 1088 3686 1344 3839 
L 1344 461 
C 1344 236 1331 160 781 160 
L 589 160 
L 589 0 
C 896 0 1216 0 1523 0 
C 1830 0 2150 0 2458 0 
L 2458 160 
L 2266 160 
C 1715 160 1702 230 1702 458 
L 1702 4058 
z
" transform="scale(0.015625)"/>
       </defs>
       <use xlink:href="#CMR17-31" transform="scale(0.996264)"/>
       <use xlink:href="#CMMI12-3a" transform="translate(45.690477 0) scale(0.996264)"/>
       <use xlink:href="#CMR17-30" transform="translate(72.787654 0) scale(0.996264)"/>
      </g>
     </g>
    </g>
    <g id="xtick_4">
     <g id="line2d_7">
      <defs>
       <path id="mc7584f22ff" d="M 0 0 
L 0 -1.5 
" style="stroke: #000000; stroke-width: 0.5"/>
      </defs>
      <g>
       <use xlink:href="#mc7584f22ff" x="47.764623" y="163.15498" style="stroke: #000000; stroke-width: 0.5"/>
      </g>
     </g>
     <g id="line2d_8">
      <defs>
       <path id="m0d5930f381" d="M 0 0 
L 0 1.5 
" style="stroke: #000000; stroke-width: 0.5"/>
      </defs>
      <g>
       <use xlink:href="#m0d5930f381" x="47.764623" y="17.90218" style="stroke: #000000; stroke-width: 0.5"/>
      </g>
     </g>
    </g>
    <g id="xtick_5">
     <g id="line2d_9">
      <g>
       <use xlink:href="#mc7584f22ff" x="63.95236" y="163.15498" style="stroke: #000000; stroke-width: 0.5"/>
      </g>
     </g>
     <g id="line2d_10">
      <g>
       <use xlink:href="#m0d5930f381" x="63.95236" y="17.90218" style="stroke: #000000; stroke-width: 0.5"/>
      </g>
     </g>
    </g>
    <g id="xtick_6">
     <g id="line2d_11">
      <g>
       <use xlink:href="#mc7584f22ff" x="80.140098" y="163.15498" style="stroke: #000000; stroke-width: 0.5"/>
      </g>
     </g>
     <g id="line2d_12">
      <g>
       <use xlink:href="#m0d5930f381" x="80.140098" y="17.90218" style="stroke: #000000; stroke-width: 0.5"/>
      </g>
     </g>
    </g>
    <g id="xtick_7">
     <g id="line2d_13">
      <g>
       <use xlink:href="#mc7584f22ff" x="112.515574" y="163.15498" style="stroke: #000000; stroke-width: 0.5"/>
      </g>
     </g>
     <g id="line2d_14">
      <g>
       <use xlink:href="#m0d5930f381" x="112.515574" y="17.90218" style="stroke: #000000; stroke-width: 0.5"/>
      </g>
     </g>
    </g>
    <g id="xtick_8">
     <g id="line2d_15">
      <g>
       <use xlink:href="#mc7584f22ff" x="128.703311" y="163.15498" style="stroke: #000000; stroke-width: 0.5"/>
      </g>
     </g>
     <g id="line2d_16">
      <g>
       <use xlink:href="#m0d5930f381" x="128.703311" y="17.90218" style="stroke: #000000; stroke-width: 0.5"/>
      </g>
     </g>
    </g>
    <g id="xtick_9">
     <g id="line2d_17">
      <g>
       <use xlink:href="#mc7584f22ff" x="144.891049" y="163.15498" style="stroke: #000000; stroke-width: 0.5"/>
      </g>
     </g>
     <g id="line2d_18">
      <g>
       <use xlink:href="#m0d5930f381" x="144.891049" y="17.90218" style="stroke: #000000; stroke-width: 0.5"/>
      </g>
     </g>
    </g>
    <g id="xtick_10">
     <g id="line2d_19">
      <g>
       <use xlink:href="#mc7584f22ff" x="177.266524" y="163.15498" style="stroke: #000000; stroke-width: 0.5"/>
      </g>
     </g>
     <g id="line2d_20">
      <g>
       <use xlink:href="#m0d5930f381" x="177.266524" y="17.90218" style="stroke: #000000; stroke-width: 0.5"/>
      </g>
     </g>
    </g>
    <g id="xtick_11">
     <g id="line2d_21">
      <g>
       <use xlink:href="#mc7584f22ff" x="193.454262" y="163.15498" style="stroke: #000000; stroke-width: 0.5"/>
      </g>
     </g>
     <g id="line2d_22">
      <g>
       <use xlink:href="#m0d5930f381" x="193.454262" y="17.90218" style="stroke: #000000; stroke-width: 0.5"/>
      </g>
     </g>
    </g>
    <g id="xtick_12">
     <g id="line2d_23">
      <g>
       <use xlink:href="#mc7584f22ff" x="209.642" y="163.15498" style="stroke: #000000; stroke-width: 0.5"/>
      </g>
     </g>
     <g id="line2d_24">
      <g>
       <use xlink:href="#m0d5930f381" x="209.642" y="17.90218" style="stroke: #000000; stroke-width: 0.5"/>
      </g>
     </g>
    </g>
    <g id="text_4">
     <!-- Pulse Amplitude [v] -->
     <g transform="translate(86.790623 186.982637) scale(0.1 -0.1)">
      <defs>
       <path id="CMR17-50" d="M 1267 2042 
L 2291 2042 
C 3117 2042 3718 2578 3718 3184 
C 3718 3791 3130 4352 2291 4352 
L 333 4352 
L 333 4186 
C 774 4186 845 4186 845 3899 
L 845 446 
C 845 160 774 160 333 160 
L 333 0 
C 518 0 858 0 1056 0 
C 1254 0 1594 0 1779 0 
L 1779 160 
C 1338 160 1267 160 1267 446 
L 1267 2042 
z
M 1254 2176 
L 1254 3938 
C 1254 4155 1267 4186 1523 4186 
L 2170 4186 
C 2995 4186 3232 3714 3232 3184 
C 3232 2604 2950 2176 2170 2176 
L 1254 2176 
z
" transform="scale(0.015625)"/>
       <path id="CMR17-75" d="M 1882 2693 
L 1882 2528 
C 2259 2528 2317 2489 2317 2186 
L 2317 1032 
C 2317 500 2029 38 1555 38 
C 1030 38 986 348 986 678 
L 986 2763 
L 211 2693 
L 211 2528 
C 467 2528 640 2528 646 2274 
L 646 1058 
C 646 633 646 361 813 183 
C 896 101 1056 -64 1517 -64 
C 2061 -64 2272 377 2323 506 
L 2330 506 
L 2330 -63 
L 3091 -63 
L 3091 128 
C 2714 128 2656 166 2656 473 
L 2656 2763 
L 1882 2693 
z
" transform="scale(0.015625)"/>
       <path id="CMR17-6c" d="M 979 4396 
L 218 4326 
L 218 4160 
C 595 4160 653 4122 653 3817 
L 653 426 
C 653 184 627 153 218 153 
L 218 -13 
C 371 0 653 0 813 0 
C 979 0 1261 0 1414 -13 
L 1414 153 
C 1005 153 979 178 979 426 
L 979 4396 
z
" transform="scale(0.015625)"/>
       <path id="CMR17-73" d="M 1978 2697 
C 1978 2813 1971 2819 1933 2819 
C 1907 2819 1901 2813 1824 2717 
C 1805 2691 1747 2626 1728 2601 
C 1523 2819 1235 2819 1126 2819 
C 416 2819 160 2447 160 2076 
C 160 1498 813 1365 998 1325 
C 1402 1243 1542 1217 1677 1101 
C 1760 1025 1901 884 1901 654 
C 1901 384 1747 38 1158 38 
C 602 38 403 460 288 1021 
C 269 1110 269 1117 218 1117 
C 166 1117 160 1110 160 983 
L 160 63 
C 160 -51 166 -58 205 -58 
C 237 -58 243 -51 275 0 
C 314 57 410 211 448 276 
C 576 103 800 -64 1158 -64 
C 1792 -64 2131 283 2131 784 
C 2131 1112 1958 1285 1875 1362 
C 1683 1561 1459 1606 1190 1657 
C 838 1735 390 1825 390 2217 
C 390 2383 480 2737 1126 2737 
C 1811 2737 1850 2094 1862 1888 
C 1869 1856 1901 1849 1920 1849 
C 1978 1849 1978 1869 1978 1978 
L 1978 2697 
z
" transform="scale(0.015625)"/>
       <path id="CMR17-65" d="M 2438 1472 
C 2464 1498 2464 1511 2464 1576 
C 2464 2238 2118 2816 1389 2816 
C 710 2816 173 2169 173 1383 
C 173 551 781 -64 1459 -64 
C 2176 -64 2458 607 2458 740 
C 2458 784 2419 784 2406 784 
C 2362 784 2355 771 2330 696 
C 2189 265 1837 51 1504 51 
C 1229 51 954 203 781 480 
C 582 803 582 1176 582 1472 
L 2438 1472 
z
M 589 1568 
C 634 2505 1126 2714 1382 2714 
C 1818 2714 2112 2297 2118 1568 
L 589 1568 
z
" transform="scale(0.015625)"/>
       <path id="CMR17-41" d="M 2323 4378 
C 2291 4461 2278 4480 2214 4480 
C 2150 4480 2138 4461 2106 4378 
L 749 566 
C 627 223 371 153 147 153 
L 147 -13 
C 262 0 518 0 640 0 
C 800 0 1056 0 1210 -13 
L 1210 153 
C 909 153 864 361 864 439 
C 864 497 877 530 890 569 
L 1229 1536 
L 2906 1536 
L 3290 442 
C 3322 365 3322 352 3322 327 
C 3322 153 3046 153 2925 153 
L 2925 0 
C 3110 0 3443 0 3642 0 
C 3808 0 4128 0 4282 -13 
L 4282 153 
C 3942 153 3827 153 3744 387 
L 2323 4378 
z
M 2067 3893 
L 2848 1702 
L 1286 1702 
L 2067 3893 
z
" transform="scale(0.015625)"/>
       <path id="CMR17-6d" d="M 4326 1933 
C 4326 2252 4269 2790 3507 2790 
C 3072 2790 2771 2496 2656 2151 
L 2650 2151 
C 2573 2676 2195 2790 1837 2790 
C 1331 2790 1069 2400 973 2144 
L 966 2144 
L 966 2790 
L 211 2720 
L 211 2554 
C 589 2554 646 2515 646 2208 
L 646 428 
C 646 184 621 153 211 153 
L 211 -13 
C 365 0 646 0 813 0 
C 979 0 1267 0 1421 -13 
L 1421 153 
C 1011 153 986 178 986 428 
L 986 1658 
C 986 2247 1344 2688 1792 2688 
C 2266 2688 2317 2266 2317 1958 
L 2317 428 
C 2317 184 2291 153 1882 153 
L 1882 -13 
C 2035 0 2317 0 2483 0 
C 2650 0 2938 0 3091 -13 
L 3091 153 
C 2682 153 2656 178 2656 428 
L 2656 1658 
C 2656 2247 3014 2688 3462 2688 
C 3936 2688 3987 2266 3987 1958 
L 3987 428 
C 3987 184 3962 153 3552 153 
L 3552 -13 
C 3706 0 3987 0 4154 0 
C 4320 0 4608 0 4762 -13 
L 4762 153 
C 4352 153 4326 178 4326 428 
L 4326 1933 
z
" transform="scale(0.015625)"/>
       <path id="CMR17-70" d="M 1408 -1063 
C 998 -1063 973 -1037 973 -789 
L 973 402 
C 1158 134 1427 -38 1766 -38 
C 2406 -38 3053 523 3053 1388 
C 3053 2191 2496 2802 1837 2802 
C 1453 2802 1139 2592 960 2338 
L 960 2802 
L 198 2732 
L 198 2567 
C 576 2567 634 2528 634 2223 
L 634 -789 
C 634 -1031 608 -1063 198 -1063 
L 198 -1228 
C 352 -1216 634 -1216 800 -1216 
C 966 -1216 1254 -1216 1408 -1228 
L 1408 -1063 
z
M 973 2012 
C 973 2102 973 2235 1222 2471 
C 1254 2497 1472 2688 1792 2688 
C 2259 2688 2643 2108 2643 1382 
C 2643 656 2234 64 1728 64 
C 1498 64 1248 172 1056 472 
C 973 612 973 650 973 752 
L 973 2012 
z
" transform="scale(0.015625)"/>
       <path id="CMR17-69" d="M 992 3909 
C 992 4049 877 4170 730 4170 
C 589 4170 467 4056 467 3909 
C 467 3769 582 3648 730 3648 
C 870 3648 992 3763 992 3909 
z
M 243 2706 
L 243 2541 
C 602 2541 653 2502 653 2197 
L 653 427 
C 653 184 627 153 218 153 
L 218 -13 
C 371 0 646 0 806 0 
C 960 0 1222 0 1370 -13 
L 1370 153 
C 992 153 979 191 979 420 
L 979 2776 
L 243 2706 
z
" transform="scale(0.015625)"/>
       <path id="CMR17-74" d="M 966 2560 
L 1862 2560 
L 1862 2725 
L 966 2725 
L 966 3904 
L 851 3904 
C 838 3245 614 2668 70 2668 
L 70 2560 
L 627 2560 
L 627 771 
C 627 650 627 -64 1370 -64 
C 1747 -64 1965 306 1965 777 
L 1965 1140 
L 1850 1140 
L 1850 783 
C 1850 344 1677 51 1408 51 
C 1222 51 966 178 966 758 
L 966 2560 
z
" transform="scale(0.015625)"/>
       <path id="CMR17-64" d="M 1869 4326 
L 1869 4160 
C 2246 4160 2304 4122 2304 3820 
L 2304 2345 
C 2278 2377 2016 2790 1498 2790 
C 845 2790 211 2208 211 1364 
C 211 525 806 -64 1434 -64 
C 1978 -64 2259 337 2291 380 
L 2291 -63 
L 3066 -63 
L 3066 128 
C 2688 128 2630 166 2630 473 
L 2630 4396 
L 1869 4326 
z
M 2291 755 
C 2291 563 2176 390 2029 262 
C 1811 70 1594 38 1472 38 
C 1286 38 621 134 621 1356 
C 621 2612 1363 2688 1530 2688 
C 1824 2688 2061 2522 2208 2291 
C 2291 2157 2291 2138 2291 2023 
L 2291 755 
z
" transform="scale(0.015625)"/>
       <path id="CMR17-5b" d="M 1504 -1600 
L 1504 -1377 
L 902 -1377 
L 902 4544 
L 1504 4544 
L 1504 4767 
L 678 4767 
L 678 -1600 
L 1504 -1600 
z
" transform="scale(0.015625)"/>
       <path id="CMR17-76" d="M 2502 2163 
C 2560 2304 2662 2560 3034 2560 
L 3034 2726 
C 2912 2726 2752 2726 2630 2726 
C 2496 2726 2285 2726 2157 2732 
L 2157 2566 
C 2317 2553 2406 2477 2406 2311 
C 2406 2253 2406 2240 2368 2151 
L 1664 377 
L 902 2286 
C 864 2369 864 2381 864 2407 
C 864 2560 1075 2560 1171 2560 
L 1171 2732 
C 1018 2726 736 2726 576 2726 
C 403 2726 205 2726 64 2732 
L 64 2560 
C 307 2560 442 2560 518 2362 
L 1446 44 
C 1485 -51 1491 -64 1549 -64 
C 1606 -64 1613 -51 1651 44 
L 2502 2163 
z
" transform="scale(0.015625)"/>
       <path id="CMR17-5d" d="M 915 4767 
L 90 4767 
L 90 4544 
L 691 4544 
L 691 -1377 
L 90 -1377 
L 90 -1600 
L 915 -1600 
L 915 4767 
z
" transform="scale(0.015625)"/>
      </defs>
      <use xlink:href="#CMR17-50" transform="scale(0.996264)"/>
      <use xlink:href="#CMR17-75" transform="translate(62.586301 0) scale(0.996264)"/>
      <use xlink:href="#CMR17-6c" transform="translate(113.48167 0) scale(0.996264)"/>
      <use xlink:href="#CMR17-73" transform="translate(138.352729 0) scale(0.996264)"/>
      <use xlink:href="#CMR17-65" transform="translate(174.154066 0) scale(0.996264)"/>
      <use xlink:href="#CMR17-41" transform="translate(244.715693 0) scale(0.996264)"/>
      <use xlink:href="#CMR17-6d" transform="translate(313.788123 0) scale(0.996264)"/>
      <use xlink:href="#CMR17-70" transform="translate(390.707713 0) scale(0.996264)"/>
      <use xlink:href="#CMR17-6c" transform="translate(441.603083 0) scale(0.996264)"/>
      <use xlink:href="#CMR17-69" transform="translate(466.474141 0) scale(0.996264)"/>
      <use xlink:href="#CMR17-74" transform="translate(491.3452 0) scale(0.996264)"/>
      <use xlink:href="#CMR17-75" transform="translate(526.625967 0) scale(0.996264)"/>
      <use xlink:href="#CMR17-64" transform="translate(577.521337 0) scale(0.996264)"/>
      <use xlink:href="#CMR17-65" transform="translate(628.416707 0) scale(0.996264)"/>
      <use xlink:href="#CMR17-5b" transform="translate(698.978334 0) scale(0.996264)"/>
      <use xlink:href="#CMR17-76" transform="translate(723.849392 0) scale(0.996264)"/>
      <use xlink:href="#CMR17-5d" transform="translate(772.142308 0) scale(0.996264)"/>
     </g>
    </g>
   </g>
   <g id="matplotlib.axis_2">
    <g id="ytick_1">
     <g id="line2d_25">
      <defs>
       <path id="m1849046c29" d="M 0 0 
L 3 0 
" style="stroke: #000000; stroke-width: 0.5"/>
      </defs>
      <g>
       <use xlink:href="#m1849046c29" x="32.685756" y="163.15498" style="stroke: #000000; stroke-width: 0.5"/>
      </g>
     </g>
     <g id="line2d_26">
      <defs>
       <path id="m512dc038d3" d="M 0 0 
L -3 0 
" style="stroke: #000000; stroke-width: 0.5"/>
      </defs>
      <g>
       <use xlink:href="#m512dc038d3" x="227.985756" y="163.15498" style="stroke: #000000; stroke-width: 0.5"/>
      </g>
     </g>
     <g id="text_5">
      <!-- $\mathdefault{0.0}$ -->
      <g transform="translate(16.455677 166.614229) scale(0.1 -0.1)">
       <use xlink:href="#CMR17-30" transform="scale(0.996264)"/>
       <use xlink:href="#CMMI12-3a" transform="translate(45.690477 0) scale(0.996264)"/>
       <use xlink:href="#CMR17-30" transform="translate(72.787654 0) scale(0.996264)"/>
      </g>
     </g>
    </g>
    <g id="ytick_2">
     <g id="line2d_27">
      <g>
       <use xlink:href="#m1849046c29" x="32.685756" y="134.10442" style="stroke: #000000; stroke-width: 0.5"/>
      </g>
     </g>
     <g id="line2d_28">
      <g>
       <use xlink:href="#m512dc038d3" x="227.985756" y="134.10442" style="stroke: #000000; stroke-width: 0.5"/>
      </g>
     </g>
     <g id="text_6">
      <!-- $\mathdefault{0.2}$ -->
      <g transform="translate(16.455677 137.563669) scale(0.1 -0.1)">
       <defs>
        <path id="CMR17-32" d="M 2669 989 
L 2554 989 
C 2490 536 2438 459 2413 420 
C 2381 369 1920 369 1830 369 
L 602 369 
C 832 619 1280 1072 1824 1597 
C 2214 1967 2669 2402 2669 3035 
C 2669 3790 2067 4224 1395 4224 
C 691 4224 262 3604 262 3030 
C 262 2780 448 2748 525 2748 
C 589 2748 781 2787 781 3010 
C 781 3207 614 3264 525 3264 
C 486 3264 448 3258 422 3245 
C 544 3790 915 4058 1306 4058 
C 1862 4058 2227 3617 2227 3035 
C 2227 2479 1901 2000 1536 1584 
L 262 146 
L 262 0 
L 2515 0 
L 2669 989 
z
" transform="scale(0.015625)"/>
       </defs>
       <use xlink:href="#CMR17-30" transform="scale(0.996264)"/>
       <use xlink:href="#CMMI12-3a" transform="translate(45.690477 0) scale(0.996264)"/>
       <use xlink:href="#CMR17-32" transform="translate(72.787654 0) scale(0.996264)"/>
      </g>
     </g>
    </g>
    <g id="ytick_3">
     <g id="line2d_29">
      <g>
       <use xlink:href="#m1849046c29" x="32.685756" y="105.05386" style="stroke: #000000; stroke-width: 0.5"/>
      </g>
     </g>
     <g id="line2d_30">
      <g>
       <use xlink:href="#m512dc038d3" x="227.985756" y="105.05386" style="stroke: #000000; stroke-width: 0.5"/>
      </g>
     </g>
     <g id="text_7">
      <!-- $\mathdefault{0.4}$ -->
      <g transform="translate(16.455677 108.513109) scale(0.1 -0.1)">
       <defs>
        <path id="CMR17-34" d="M 2150 4122 
C 2150 4256 2144 4256 2029 4256 
L 128 1254 
L 128 1088 
L 1779 1088 
L 1779 457 
C 1779 224 1766 160 1318 160 
L 1197 160 
L 1197 0 
C 1402 0 1747 0 1965 0 
C 2182 0 2528 0 2733 0 
L 2733 160 
L 2611 160 
C 2163 160 2150 224 2150 457 
L 2150 1088 
L 2803 1088 
L 2803 1254 
L 2150 1254 
L 2150 4122 
z
M 1798 3703 
L 1798 1254 
L 256 1254 
L 1798 3703 
z
" transform="scale(0.015625)"/>
       </defs>
       <use xlink:href="#CMR17-30" transform="scale(0.996264)"/>
       <use xlink:href="#CMMI12-3a" transform="translate(45.690477 0) scale(0.996264)"/>
       <use xlink:href="#CMR17-34" transform="translate(72.787654 0) scale(0.996264)"/>
      </g>
     </g>
    </g>
    <g id="ytick_4">
     <g id="line2d_31">
      <g>
       <use xlink:href="#m1849046c29" x="32.685756" y="76.0033" style="stroke: #000000; stroke-width: 0.5"/>
      </g>
     </g>
     <g id="line2d_32">
      <g>
       <use xlink:href="#m512dc038d3" x="227.985756" y="76.0033" style="stroke: #000000; stroke-width: 0.5"/>
      </g>
     </g>
     <g id="text_8">
      <!-- $\mathdefault{0.6}$ -->
      <g transform="translate(16.455677 79.462549) scale(0.1 -0.1)">
       <use xlink:href="#CMR17-30" transform="scale(0.996264)"/>
       <use xlink:href="#CMMI12-3a" transform="translate(45.690477 0) scale(0.996264)"/>
       <use xlink:href="#CMR17-36" transform="translate(72.787654 0) scale(0.996264)"/>
      </g>
     </g>
    </g>
    <g id="ytick_5">
     <g id="line2d_33">
      <g>
       <use xlink:href="#m1849046c29" x="32.685756" y="46.95274" style="stroke: #000000; stroke-width: 0.5"/>
      </g>
     </g>
     <g id="line2d_34">
      <g>
       <use xlink:href="#m512dc038d3" x="227.985756" y="46.95274" style="stroke: #000000; stroke-width: 0.5"/>
      </g>
     </g>
     <g id="text_9">
      <!-- $\mathdefault{0.8}$ -->
      <g transform="translate(16.455677 50.411989) scale(0.1 -0.1)">
       <use xlink:href="#CMR17-30" transform="scale(0.996264)"/>
       <use xlink:href="#CMMI12-3a" transform="translate(45.690477 0) scale(0.996264)"/>
       <use xlink:href="#CMR17-38" transform="translate(72.787654 0) scale(0.996264)"/>
      </g>
     </g>
    </g>
    <g id="ytick_6">
     <g id="line2d_35">
      <g>
       <use xlink:href="#m1849046c29" x="32.685756" y="17.90218" style="stroke: #000000; stroke-width: 0.5"/>
      </g>
     </g>
     <g id="line2d_36">
      <g>
       <use xlink:href="#m512dc038d3" x="227.985756" y="17.90218" style="stroke: #000000; stroke-width: 0.5"/>
      </g>
     </g>
     <g id="text_10">
      <!-- $\mathdefault{1.0}$ -->
      <g transform="translate(16.455677 21.361429) scale(0.1 -0.1)">
       <use xlink:href="#CMR17-31" transform="scale(0.996264)"/>
       <use xlink:href="#CMMI12-3a" transform="translate(45.690477 0) scale(0.996264)"/>
       <use xlink:href="#CMR17-30" transform="translate(72.787654 0) scale(0.996264)"/>
      </g>
     </g>
    </g>
    <g id="ytick_7">
     <g id="line2d_37">
      <defs>
       <path id="m5ccc91c0c3" d="M 0 0 
L 1.5 0 
" style="stroke: #000000; stroke-width: 0.5"/>
      </defs>
      <g>
       <use xlink:href="#m5ccc91c0c3" x="32.685756" y="155.89234" style="stroke: #000000; stroke-width: 0.5"/>
      </g>
     </g>
     <g id="line2d_38">
      <defs>
       <path id="me94e7f5e91" d="M 0 0 
L -1.5 0 
" style="stroke: #000000; stroke-width: 0.5"/>
      </defs>
      <g>
       <use xlink:href="#me94e7f5e91" x="227.985756" y="155.89234" style="stroke: #000000; stroke-width: 0.5"/>
      </g>
     </g>
    </g>
    <g id="ytick_8">
     <g id="line2d_39">
      <g>
       <use xlink:href="#m5ccc91c0c3" x="32.685756" y="148.6297" style="stroke: #000000; stroke-width: 0.5"/>
      </g>
     </g>
     <g id="line2d_40">
      <g>
       <use xlink:href="#me94e7f5e91" x="227.985756" y="148.6297" style="stroke: #000000; stroke-width: 0.5"/>
      </g>
     </g>
    </g>
    <g id="ytick_9">
     <g id="line2d_41">
      <g>
       <use xlink:href="#m5ccc91c0c3" x="32.685756" y="141.36706" style="stroke: #000000; stroke-width: 0.5"/>
      </g>
     </g>
     <g id="line2d_42">
      <g>
       <use xlink:href="#me94e7f5e91" x="227.985756" y="141.36706" style="stroke: #000000; stroke-width: 0.5"/>
      </g>
     </g>
    </g>
    <g id="ytick_10">
     <g id="line2d_43">
      <g>
       <use xlink:href="#m5ccc91c0c3" x="32.685756" y="126.84178" style="stroke: #000000; stroke-width: 0.5"/>
      </g>
     </g>
     <g id="line2d_44">
      <g>
       <use xlink:href="#me94e7f5e91" x="227.985756" y="126.84178" style="stroke: #000000; stroke-width: 0.5"/>
      </g>
     </g>
    </g>
    <g id="ytick_11">
     <g id="line2d_45">
      <g>
       <use xlink:href="#m5ccc91c0c3" x="32.685756" y="119.57914" style="stroke: #000000; stroke-width: 0.5"/>
      </g>
     </g>
     <g id="line2d_46">
      <g>
       <use xlink:href="#me94e7f5e91" x="227.985756" y="119.57914" style="stroke: #000000; stroke-width: 0.5"/>
      </g>
     </g>
    </g>
    <g id="ytick_12">
     <g id="line2d_47">
      <g>
       <use xlink:href="#m5ccc91c0c3" x="32.685756" y="112.3165" style="stroke: #000000; stroke-width: 0.5"/>
      </g>
     </g>
     <g id="line2d_48">
      <g>
       <use xlink:href="#me94e7f5e91" x="227.985756" y="112.3165" style="stroke: #000000; stroke-width: 0.5"/>
      </g>
     </g>
    </g>
    <g id="ytick_13">
     <g id="line2d_49">
      <g>
       <use xlink:href="#m5ccc91c0c3" x="32.685756" y="97.79122" style="stroke: #000000; stroke-width: 0.5"/>
      </g>
     </g>
     <g id="line2d_50">
      <g>
       <use xlink:href="#me94e7f5e91" x="227.985756" y="97.79122" style="stroke: #000000; stroke-width: 0.5"/>
      </g>
     </g>
    </g>
    <g id="ytick_14">
     <g id="line2d_51">
      <g>
       <use xlink:href="#m5ccc91c0c3" x="32.685756" y="90.52858" style="stroke: #000000; stroke-width: 0.5"/>
      </g>
     </g>
     <g id="line2d_52">
      <g>
       <use xlink:href="#me94e7f5e91" x="227.985756" y="90.52858" style="stroke: #000000; stroke-width: 0.5"/>
      </g>
     </g>
    </g>
    <g id="ytick_15">
     <g id="line2d_53">
      <g>
       <use xlink:href="#m5ccc91c0c3" x="32.685756" y="83.26594" style="stroke: #000000; stroke-width: 0.5"/>
      </g>
     </g>
     <g id="line2d_54">
      <g>
       <use xlink:href="#me94e7f5e91" x="227.985756" y="83.26594" style="stroke: #000000; stroke-width: 0.5"/>
      </g>
     </g>
    </g>
    <g id="ytick_16">
     <g id="line2d_55">
      <g>
       <use xlink:href="#m5ccc91c0c3" x="32.685756" y="68.74066" style="stroke: #000000; stroke-width: 0.5"/>
      </g>
     </g>
     <g id="line2d_56">
      <g>
       <use xlink:href="#me94e7f5e91" x="227.985756" y="68.74066" style="stroke: #000000; stroke-width: 0.5"/>
      </g>
     </g>
    </g>
    <g id="ytick_17">
     <g id="line2d_57">
      <g>
       <use xlink:href="#m5ccc91c0c3" x="32.685756" y="61.47802" style="stroke: #000000; stroke-width: 0.5"/>
      </g>
     </g>
     <g id="line2d_58">
      <g>
       <use xlink:href="#me94e7f5e91" x="227.985756" y="61.47802" style="stroke: #000000; stroke-width: 0.5"/>
      </g>
     </g>
    </g>
    <g id="ytick_18">
     <g id="line2d_59">
      <g>
       <use xlink:href="#m5ccc91c0c3" x="32.685756" y="54.21538" style="stroke: #000000; stroke-width: 0.5"/>
      </g>
     </g>
     <g id="line2d_60">
      <g>
       <use xlink:href="#me94e7f5e91" x="227.985756" y="54.21538" style="stroke: #000000; stroke-width: 0.5"/>
      </g>
     </g>
    </g>
    <g id="ytick_19">
     <g id="line2d_61">
      <g>
       <use xlink:href="#m5ccc91c0c3" x="32.685756" y="39.6901" style="stroke: #000000; stroke-width: 0.5"/>
      </g>
     </g>
     <g id="line2d_62">
      <g>
       <use xlink:href="#me94e7f5e91" x="227.985756" y="39.6901" style="stroke: #000000; stroke-width: 0.5"/>
      </g>
     </g>
    </g>
    <g id="ytick_20">
     <g id="line2d_63">
      <g>
       <use xlink:href="#m5ccc91c0c3" x="32.685756" y="32.42746" style="stroke: #000000; stroke-width: 0.5"/>
      </g>
     </g>
     <g id="line2d_64">
      <g>
       <use xlink:href="#me94e7f5e91" x="227.985756" y="32.42746" style="stroke: #000000; stroke-width: 0.5"/>
      </g>
     </g>
    </g>
    <g id="ytick_21">
     <g id="line2d_65">
      <g>
       <use xlink:href="#m5ccc91c0c3" x="32.685756" y="25.16482" style="stroke: #000000; stroke-width: 0.5"/>
      </g>
     </g>
     <g id="line2d_66">
      <g>
       <use xlink:href="#me94e7f5e91" x="227.985756" y="25.16482" style="stroke: #000000; stroke-width: 0.5"/>
      </g>
     </g>
    </g>
    <g id="text_11">
     <!-- p -->
     <g transform="translate(10.518498 93.295988) rotate(-90) scale(0.1 -0.1)">
      <use xlink:href="#CMR17-70" transform="scale(0.996264)"/>
     </g>
    </g>
   </g>
   <g id="line2d_67">
    <path d="M 219.093268 18.681263 
L 212.752903 18.958564 
L 206.412537 19.407527 
L 200.072171 19.671623 
L 193.731806 20.780826 
L 187.39144 21.097741 
L 181.051074 22.537065 
L 174.710709 24.227279 
L 168.370343 26.115565 
L 162.029977 29.231898 
L 155.689612 33.41782 
L 149.349246 39.35998 
L 143.00888 46.860306 
L 136.668515 56.750701 
L 130.328149 67.261722 
L 123.987783 82.183146 
L 117.647418 99.785145 
L 111.307052 117.638034 
L 104.966686 134.289287 
L 98.62632 147.414858 
L 92.285955 156.262074 
L 85.945589 160.778116 
L 79.605223 162.626788 
L 73.264858 163.12857 
L 66.924492 163.15498 
L 60.584126 163.15498 
L 54.243761 163.15498 
L 47.903395 163.15498 
L 41.563029 163.15498 
" clip-path="url(#pe9d40722d1)" style="fill: none; stroke-dasharray: 3.7,1.6; stroke-dashoffset: 0; stroke: #000000"/>
   </g>
   <g id="line2d_68">
    <path d="M 219.093268 18.734082 
L 212.752903 19.037793 
L 206.412537 19.473551 
L 200.072171 20.028153 
L 193.731806 21.005308 
L 187.39144 21.718367 
L 181.051074 22.867185 
L 174.710709 24.636628 
L 168.370343 27.898213 
L 162.029977 30.552378 
L 155.689612 35.002396 
L 149.349246 41.036989 
L 143.00888 48.563725 
L 136.668515 57.952338 
L 130.328149 69.585767 
L 123.987783 85.893695 
L 117.647418 102.967501 
L 111.307052 119.724393 
L 104.966686 137.009476 
L 98.62632 148.484447 
L 92.285955 157.18641 
L 85.945589 161.398741 
L 79.605223 162.79845 
L 73.264858 163.102161 
L 66.924492 163.15498 
L 60.584126 163.15498 
L 54.243761 163.15498 
L 47.903395 163.15498 
L 41.563029 163.15498 
" clip-path="url(#pe9d40722d1)" style="fill: none; stroke-dasharray: 3.7,1.6; stroke-dashoffset: 0; stroke: #ff0000"/>
   </g>
   <g id="line2d_69">
    <path d="M 219.093268 18.773697 
L 212.752903 18.852925 
L 206.412537 19.328298 
L 200.072171 19.367913 
L 193.731806 20.292249 
L 187.39144 21.058127 
L 181.051074 22.391812 
L 174.710709 24.042412 
L 168.370343 26.181589 
L 162.029977 29.390356 
L 155.689612 32.506689 
L 149.349246 37.537717 
L 143.00888 45.024839 
L 136.668515 55.166125 
L 130.328149 64.132185 
L 123.987783 79.951535 
L 117.647418 96.299077 
L 111.307052 114.336834 
L 104.966686 132.018061 
L 98.62632 145.222861 
L 92.285955 155.654653 
L 85.945589 160.302743 
L 79.605223 162.600378 
L 73.264858 163.036137 
L 66.924492 163.115365 
L 60.584126 163.15498 
L 54.243761 163.15498 
L 47.903395 163.15498 
L 41.563029 163.15498 
" clip-path="url(#pe9d40722d1)" style="fill: none; stroke-dasharray: 3.7,1.6; stroke-dashoffset: 0; stroke: #0000ff"/>
   </g>
   <g id="line2d_70">
    <path d="M 54.244782 163.15498 
L 60.58519 163.096879 
L 66.925599 162.980676 
L 73.266007 162.472292 
L 79.606415 161.920331 
L 85.946823 160.104671 
L 92.287232 155.340379 
L 98.62764 149.733621 
L 104.968048 139.05754 
L 111.308456 124.909918 
L 117.648865 110.239385 
L 123.989273 90.833611 
L 130.329681 74.870328 
L 136.67009 57.962902 
L 143.010498 47.068942 
L 149.350906 37.119125 
L 155.691314 30.553699 
L 162.031723 26.530196 
L 168.372131 24.060899 
L 174.712539 22.114511 
L 181.052947 20.371477 
L 187.393356 20.168123 
L 193.733764 19.383758 
L 200.074172 19.049677 
L 206.41458 18.42509 
L 212.754989 18.381514 
L 219.095397 18.294362 
" clip-path="url(#pe9d40722d1)" style="fill: none; stroke: #bf00bf; stroke-opacity: 0.25; stroke-linecap: square"/>
   </g>
   <g id="line2d_71">
    <path d="M 41.563028 163.15498 
L 47.903394 163.125929 
L 54.24376 163.096879 
L 60.584125 163.096879 
L 66.924491 162.719221 
L 73.264857 162.13821 
L 79.605222 161.484573 
L 85.945588 159.160528 
L 92.285954 154.062155 
L 98.626319 146.973818 
L 104.966685 136.254161 
L 111.307051 121.627204 
L 117.647416 104.313071 
L 123.987782 86.37435 
L 130.328148 69.29262 
L 136.668513 55.377402 
L 143.008879 44.759423 
L 149.349245 35.245364 
L 155.68961 29.638606 
L 162.029976 26.094438 
L 168.370342 22.608371 
L 174.710707 21.373722 
L 181.051073 20.502205 
L 187.391439 19.848567 
L 193.731804 19.296607 
L 200.07217 18.860848 
L 206.412536 18.512242 
L 212.752901 18.45414 
L 219.093267 18.265312 
" clip-path="url(#pe9d40722d1)" style="fill: none; stroke: #000000; stroke-opacity: 0.25; stroke-linecap: square"/>
   </g>
   <g id="line2d_72">
    <path d="M 47.910393 163.15498 
L 54.251063 163.096879 
L 60.591733 162.937101 
L 66.932403 162.762797 
L 73.273073 161.86223 
L 79.613743 160.743783 
L 85.954413 158.201859 
L 92.295083 152.319121 
L 98.635753 143.865408 
L 104.976423 131.853001 
L 111.317093 115.846143 
L 117.657763 100.449346 
L 123.998433 82.394423 
L 130.339103 65.559623 
L 136.679773 52.501397 
L 143.020443 42.101296 
L 149.361113 33.502331 
L 155.701783 29.04307 
L 162.042453 24.961466 
L 168.383123 22.753623 
L 174.723793 21.126792 
L 181.064463 20.182649 
L 187.405133 19.369233 
L 193.745803 18.991576 
L 200.086473 18.802747 
L 206.427143 18.570343 
L 212.767813 18.323413 
L 219.108483 18.163635 
" clip-path="url(#pe9d40722d1)" style="fill: none; stroke: #00bfbf; stroke-opacity: 0.25; stroke-linecap: square"/>
   </g>
   <g id="patch_3">
    <path d="M 32.685756 163.15498 
L 32.685756 17.90218 
" style="fill: none; stroke: #000000; stroke-width: 0.5; stroke-linejoin: miter; stroke-linecap: square"/>
   </g>
   <g id="patch_4">
    <path d="M 227.985756 163.15498 
L 227.985756 17.90218 
" style="fill: none; stroke: #000000; stroke-width: 0.5; stroke-linejoin: miter; stroke-linecap: square"/>
   </g>
   <g id="patch_5">
    <path d="M 32.685756 163.15498 
L 227.985756 163.15498 
" style="fill: none; stroke: #000000; stroke-width: 0.5; stroke-linejoin: miter; stroke-linecap: square"/>
   </g>
   <g id="patch_6">
    <path d="M 32.685756 17.90218 
L 227.985756 17.90218 
" style="fill: none; stroke: #000000; stroke-width: 0.5; stroke-linejoin: miter; stroke-linecap: square"/>
   </g>
   <g id="text_12">
    <!-- Coin Bias -->
    <g transform="translate(105.347773 11.90218) scale(0.12 -0.12)">
     <defs>
      <path id="CMR17-43" d="M 3974 4289 
C 3974 4403 3968 4410 3930 4410 
C 3904 4410 3898 4403 3853 4327 
L 3571 3792 
C 3258 4187 2874 4416 2381 4416 
C 1286 4416 294 3456 294 2148 
C 294 826 1286 -128 2387 -128 
C 3366 -128 3974 730 3974 1461 
C 3974 1524 3974 1550 3917 1550 
C 3866 1550 3866 1531 3859 1474 
C 3808 585 3168 38 2477 38 
C 1824 38 781 495 781 2147 
C 781 3805 1843 4250 2464 4250 
C 3187 4250 3712 3628 3834 2745 
C 3846 2668 3846 2655 3904 2655 
C 3974 2655 3974 2668 3974 2783 
L 3974 4289 
z
" transform="scale(0.015625)"/>
      <path id="CMR17-6f" d="M 2758 1356 
C 2758 2176 2163 2816 1466 2816 
C 768 2816 173 2176 173 1356 
C 173 551 768 -64 1466 -64 
C 2163 -64 2758 551 2758 1356 
z
M 1466 51 
C 1165 51 909 230 762 480 
C 602 767 582 1126 582 1408 
C 582 1677 595 2010 762 2298 
C 890 2509 1139 2714 1466 2714 
C 1754 2714 1997 2554 2150 2330 
C 2349 2029 2349 1607 2349 1408 
C 2349 1158 2336 775 2163 467 
C 1984 173 1709 51 1466 51 
z
" transform="scale(0.015625)"/>
      <path id="CMR17-6e" d="M 2656 1933 
C 2656 2259 2592 2790 1837 2790 
C 1331 2790 1069 2400 973 2144 
L 966 2144 
L 966 2790 
L 211 2720 
L 211 2554 
C 589 2554 646 2515 646 2208 
L 646 428 
C 646 184 621 153 211 153 
L 211 -13 
C 365 0 646 0 813 0 
C 979 0 1267 0 1421 -13 
L 1421 153 
C 1011 153 986 178 986 428 
L 986 1658 
C 986 2247 1344 2688 1792 2688 
C 2266 2688 2317 2266 2317 1958 
L 2317 428 
C 2317 184 2291 153 1882 153 
L 1882 -13 
C 2035 0 2317 0 2483 0 
C 2650 0 2938 0 3091 -13 
L 3091 153 
C 2682 153 2656 178 2656 428 
L 2656 1933 
z
" transform="scale(0.015625)"/>
      <path id="CMR17-42" d="M 333 4352 
L 333 4186 
C 774 4186 845 4186 845 3900 
L 845 452 
C 845 166 774 166 333 166 
L 333 0 
L 2534 0 
C 3354 0 3885 583 3885 1164 
C 3885 1741 3360 2233 2675 2233 
C 3290 2356 3718 2771 3718 3264 
C 3718 3802 3194 4352 2368 4352 
L 333 4352 
z
M 1248 2304 
L 1248 3937 
C 1248 4155 1261 4186 1517 4186 
L 2336 4186 
C 2970 4186 3251 3674 3251 3277 
C 3251 2791 2861 2304 2170 2304 
L 1248 2304 
z
M 1517 166 
C 1261 166 1248 197 1248 413 
L 1248 2202 
L 2432 2202 
C 3091 2202 3411 1625 3411 1162 
C 3411 699 3046 166 2349 166 
L 1517 166 
z
" transform="scale(0.015625)"/>
      <path id="CMR17-61" d="M 2304 1653 
C 2304 2072 2304 2294 2035 2543 
C 1798 2752 1523 2816 1306 2816 
C 800 2816 435 2407 435 1971 
C 435 1728 627 1728 666 1728 
C 749 1728 896 1778 896 1954 
C 896 2112 774 2181 666 2181 
C 640 2181 608 2174 589 2168 
C 723 2592 1069 2714 1293 2714 
C 1613 2714 1965 2429 1965 1885 
L 1965 1600 
C 1587 1600 1133 1549 774 1357 
C 371 1133 256 813 256 570 
C 256 77 832 -64 1171 -64 
C 1523 -64 1850 139 1990 511 
C 2003 233 2182 -18 2464 -18 
C 2598 -18 2938 70 2938 567 
L 2938 920 
L 2822 920 
L 2822 562 
C 2822 178 2650 128 2566 128 
C 2304 128 2304 458 2304 738 
L 2304 1653 
z
M 1965 870 
C 1965 317 1568 38 1216 38 
C 896 38 646 275 646 570 
C 646 761 730 1100 1101 1305 
C 1408 1478 1760 1504 1965 1504 
L 1965 870 
z
" transform="scale(0.015625)"/>
     </defs>
     <use xlink:href="#CMR17-43" transform="scale(0.996264)"/>
     <use xlink:href="#CMR17-6f" transform="translate(66.509881 0) scale(0.996264)"/>
     <use xlink:href="#CMR17-69" transform="translate(112.200358 0) scale(0.996264)"/>
     <use xlink:href="#CMR17-6e" transform="translate(137.071416 0) scale(0.996264)"/>
     <use xlink:href="#CMR17-42" transform="translate(218.042752 0) scale(0.996264)"/>
     <use xlink:href="#CMR17-69" transform="translate(283.231507 0) scale(0.996264)"/>
     <use xlink:href="#CMR17-61" transform="translate(308.102565 0) scale(0.996264)"/>
     <use xlink:href="#CMR17-73" transform="translate(353.793042 0) scale(0.996264)"/>
    </g>
   </g>
   <g id="legend_1">
    <g id="line2d_73">
     <path d="M 117.012986 134.780623 
L 127.012986 134.780623 
L 137.012986 134.780623 
" style="fill: none; stroke: #3b528b; stroke-linecap: square"/>
     <defs>
      <path id="m0be6e19496" d="M -3 3 
L 3 3 
L 3 -3 
L -3 -3 
z
" style="stroke: #3b528b; stroke-linejoin: miter"/>
     </defs>
     <g>
      <use xlink:href="#m0be6e19496" x="127.012986" y="134.780623" style="fill: #3b528b; stroke: #3b528b; stroke-linejoin: miter"/>
     </g>
    </g>
    <g id="text_13">
     <!-- experiment -->
     <g transform="translate(145.012986 138.280623) scale(0.1 -0.1)">
      <defs>
       <path id="CMR17-78" d="M 1664 1477 
C 1856 1726 2074 2006 2253 2216 
C 2464 2458 2707 2560 2989 2560 
L 2989 2726 
C 2880 2726 2656 2726 2541 2726 
C 2368 2726 2170 2726 2022 2732 
L 2022 2566 
C 2112 2553 2163 2489 2163 2400 
C 2163 2285 2099 2215 2067 2171 
L 1594 1573 
L 1030 2306 
C 973 2376 973 2388 973 2420 
C 973 2497 1037 2560 1146 2560 
L 1146 2732 
C 992 2726 717 2726 557 2726 
C 384 2726 179 2726 38 2732 
L 38 2560 
C 384 2560 461 2534 614 2343 
L 1350 1395 
C 1363 1382 1395 1344 1395 1325 
C 1395 1299 838 619 768 530 
C 480 185 179 160 6 160 
L 6 0 
C 115 0 339 0 454 0 
C 582 0 864 0 979 -6 
L 979 160 
C 941 166 838 179 838 325 
C 838 440 890 510 947 586 
L 1478 1236 
L 2035 512 
C 2086 442 2163 346 2163 301 
C 2163 211 2086 160 1984 160 
L 1984 -6 
C 2138 0 2413 0 2573 0 
C 2746 0 2950 0 3091 -6 
L 3091 160 
C 2771 160 2675 172 2522 370 
L 1664 1477 
z
" transform="scale(0.015625)"/>
       <path id="CMR17-72" d="M 960 1497 
C 960 2112 1222 2688 1702 2688 
C 1747 2688 1792 2682 1837 2662 
C 1837 2662 1696 2617 1696 2452 
C 1696 2298 1818 2234 1914 2234 
C 1990 2234 2131 2279 2131 2458 
C 2131 2663 1926 2790 1709 2790 
C 1222 2790 1011 2317 947 2093 
L 941 2093 
L 941 2790 
L 198 2720 
L 198 2554 
C 576 2554 634 2515 634 2208 
L 634 428 
C 634 184 608 153 198 153 
L 198 -13 
C 352 0 646 0 813 0 
C 998 0 1325 0 1498 -13 
L 1498 153 
C 1037 153 960 153 960 440 
L 960 1497 
z
" transform="scale(0.015625)"/>
      </defs>
      <use xlink:href="#CMR17-65" transform="scale(0.996264)"/>
      <use xlink:href="#CMR17-78" transform="translate(40.48566 0) scale(0.996264)"/>
      <use xlink:href="#CMR17-70" transform="translate(88.778576 0) scale(0.996264)"/>
      <use xlink:href="#CMR17-65" transform="translate(142.276385 0) scale(0.996264)"/>
      <use xlink:href="#CMR17-72" transform="translate(182.762045 0) scale(0.996264)"/>
      <use xlink:href="#CMR17-69" transform="translate(218.042813 0) scale(0.996264)"/>
      <use xlink:href="#CMR17-6d" transform="translate(242.913872 0) scale(0.996264)"/>
      <use xlink:href="#CMR17-65" transform="translate(319.833461 0) scale(0.996264)"/>
      <use xlink:href="#CMR17-6e" transform="translate(360.319122 0) scale(0.996264)"/>
      <use xlink:href="#CMR17-74" transform="translate(408.612038 0) scale(0.996264)"/>
     </g>
    </g>
    <g id="line2d_74">
     <path d="M 117.012986 148.717801 
L 127.012986 148.717801 
L 137.012986 148.717801 
" style="fill: none; stroke: #3b528b; stroke-linecap: square"/>
     <defs>
      <path id="m1d6c943bd3" d="M 0 -3 
L -3 3 
L 3 3 
z
" style="stroke: #3b528b; stroke-linejoin: miter"/>
     </defs>
     <g>
      <use xlink:href="#m1d6c943bd3" x="127.012986" y="148.717801" style="fill: #3b528b; stroke: #3b528b; stroke-linejoin: miter"/>
     </g>
    </g>
    <g id="text_14">
     <!-- macrospin model -->
     <g transform="translate(145.012986 152.217801) scale(0.1 -0.1)">
      <defs>
       <path id="CMR17-63" d="M 2234 2240 
C 2112 2240 1933 2240 1933 2017 
C 1933 1838 2080 1787 2163 1787 
C 2208 1787 2394 1807 2394 2024 
C 2394 2467 1958 2803 1466 2803 
C 787 2803 211 2178 211 1363 
C 211 516 813 -64 1466 -64 
C 2259 -64 2458 677 2458 748 
C 2458 774 2451 793 2406 793 
C 2362 793 2355 787 2330 703 
C 2163 180 1798 51 1523 51 
C 1114 51 621 427 621 1369 
C 621 2338 1094 2688 1472 2688 
C 1722 2688 2093 2573 2234 2240 
z
" transform="scale(0.015625)"/>
      </defs>
      <use xlink:href="#CMR17-6d" transform="scale(0.996264)"/>
      <use xlink:href="#CMR17-61" transform="translate(76.91959 0) scale(0.996264)"/>
      <use xlink:href="#CMR17-63" transform="translate(122.610067 0) scale(0.996264)"/>
      <use xlink:href="#CMR17-72" transform="translate(163.095727 0) scale(0.996264)"/>
      <use xlink:href="#CMR17-6f" transform="translate(198.376495 0) scale(0.996264)"/>
      <use xlink:href="#CMR17-73" transform="translate(244.066972 0) scale(0.996264)"/>
      <use xlink:href="#CMR17-70" transform="translate(279.86831 0) scale(0.996264)"/>
      <use xlink:href="#CMR17-69" transform="translate(330.76368 0) scale(0.996264)"/>
      <use xlink:href="#CMR17-6e" transform="translate(355.634738 0) scale(0.996264)"/>
      <use xlink:href="#CMR17-6d" transform="translate(436.606074 0) scale(0.996264)"/>
      <use xlink:href="#CMR17-6f" transform="translate(513.525664 0) scale(0.996264)"/>
      <use xlink:href="#CMR17-64" transform="translate(561.81858 0) scale(0.996264)"/>
      <use xlink:href="#CMR17-65" transform="translate(612.71395 0) scale(0.996264)"/>
      <use xlink:href="#CMR17-6c" transform="translate(653.19961 0) scale(0.996264)"/>
     </g>
    </g>
   </g>
  </g>
 </g>
 <defs>
  <clipPath id="pe9d40722d1">
   <rect x="32.685756" y="17.90218" width="195.3" height="145.2528"/>
  </clipPath>
 </defs>
</svg>
